<?xml version="1.0" encoding="UTF-8" standalone="no"?>
<!-- This is a Stata 18.0 generated SVG file (http://www.stata.com) -->

<svg version="1.1" width="6.000in" height="4.000in" viewBox="0 0 4320 2880" xmlns="http://www.w3.org/2000/svg" xmlns:xlink="http://www.w3.org/1999/xlink">
	<desc>Stata Graph - Graph</desc>
	<rect x="0" y="0" width="4320" height="2880" style="fill:#FFFFFF;stroke:none"/>
	<rect x="0.00" y="0.00" width="4320.00" height="2880.00" style="fill:#FFFFFF"/>
	<rect x="2.88" y="2.88" width="4314.24" height="2874.24" style="fill:none;stroke:#FFFFFF;stroke-width:5.76"/>
	<rect x="547.42" y="275.40" width="3671.73" height="2183.79" style="fill:#FFFFFF"/>
	<rect x="550.30" y="278.28" width="3665.97" height="2178.03" style="fill:none;stroke:#000000;stroke-width:5.76"/>
	<path d=" M847.13 737.92 L856.98 804.07 L866.70 805.15 L876.56 815.41 L886.41 823.38 L896.27 809.88 L906.12 867.79 L915.98 960.81 L925.83 748.86 L935.69 772.62 L945.54 788.82 L955.40 699.18 L965.25 871.71 L975.11 848.89 L984.96 828.24 L994.82 919.23 L1004.67 896.01 L1014.53 995.51 L1024.38 928.00 L1034.10 945.15 L1043.96 1181.94 L1053.81 1301.29 L1063.67 1331.12 L1073.52 1494.74 L1083.38 1454.78 L1093.23 1571.15 L1103.09 1628.26 L1112.94 1583.84 L1122.80 1512.29 L1132.65 1418.60 L1142.51 1503.38 L1152.36 1473.28 L1162.21 1365.14 L1172.07 1365.41 L1181.93 1311.55 L1191.78 1285.76 L1201.64 1226.36 L1211.36 1239.86 L1221.21 1244.18 L1231.07 1248.50 L1240.92 1359.88 L1250.78 1430.35 L1260.63 1391.33 L1270.48 1460.86 L1280.34 1528.49 L1290.20 1481.38 L1300.05 1478.54 L1309.91 1400.38 L1319.76 1396.06 L1329.62 1406.32 L1339.47 1389.04 L1349.33 1358.93 L1359.18 1390.25 L1369.04 1408.21 L1378.76 1445.06 L1388.61 1442.50 L1398.47 1470.04 L1408.32 1470.44 L1418.18 1502.17 L1428.03 1581.95 L1437.89 1634.07 L1447.74 1545.50 L1457.60 1549.01 L1467.45 1599.91 L1477.31 1623.27 L1487.16 1631.10 L1497.02 1606.12 L1506.87 1549.96 L1516.73 1461.40 L1526.58 1504.46 L1536.44 1410.10 L1546.16 1448.44 L1556.01 1480.70 L1565.87 1478.41 L1575.72 1383.50 L1585.58 1506.35 L1595.43 1647.70 L1605.29 1735.99 L1615.14 1858.98 L1625.00 1918.51 L1634.85 1927.43 L1644.71 1921.08 L1654.56 2057.84 L1664.42 2003.57 L1674.27 1933.37 L1684.13 1940.25 L1693.98 1918.38 L1703.84 1840.48 L1713.56 1668.22 L1723.41 1565.89 L1733.27 1358.39 L1743.12 1204.62 L1752.98 1095.14 L1762.83 985.79 L1772.69 952.44 L1782.54 918.96 L1792.40 891.01 L1802.25 884.40 L1812.11 964.86 L1821.96 830.80 L1831.82 760.60 L1841.67 696.07 L1851.53 755.88 L1861.38 864.42 L1871.24 1013.06 L1880.96 1000.77 L1890.81 847.54 L1900.67 647.88 L1910.52 770.46 L1920.38 753.18 L1930.23 725.64 L1940.09 793.14 L1949.94 823.11 L1959.80 856.05 L1969.65 926.65 L1979.51 766.95 L1989.36 648.01 L1999.22 857.67 L2009.07 935.56 L2018.93 1037.63 L2028.78 917.74 L2038.64 911.94 L2048.36 921.66 L2058.21 899.92 L2068.07 881.16 L2077.92 854.16 L2087.78 772.89 L2097.63 905.32 L2107.49 991.05 L2117.34 885.21 L2127.20 759.25 L2137.05 752.77 L2146.91 785.58 L2156.76 773.70 L2166.61 790.84 L2176.47 824.86 L2186.32 834.04 L2196.18 923.82 L2206.04 1042.22 L2215.89 997.53 L2225.61 962.97 L2235.47 835.12 L2245.32 905.05 L2255.18 1004.42 L2265.03 1095.00 L2274.89 1215.83 L2284.74 1356.77 L2294.59 1460.72 L2304.45 1516.07 L2314.30 1515.67 L2324.16 1452.08 L2334.02 1495.82 L2343.87 1586.95 L2353.73 1792.56 L2363.58 1953.35 L2373.44 1962.66 L2383.29 1870.72 L2393.01 1778.79 L2402.86 1643.79 L2412.72 1568.05 L2422.57 1505.81 L2432.43 1533.08 L2442.29 1608.01 L2452.14 1621.78 L2462.00 1558.33 L2471.85 1474.63 L2481.71 1364.20 L2491.56 1340.57 L2501.42 1373.65 L2511.27 1437.50 L2521.13 1443.58 L2530.98 1369.33 L2540.84 1327.07 L2550.69 1212.59 L2560.41 1123.62 L2570.27 976.07 L2580.12 884.26 L2589.98 825.27 L2599.83 811.90 L2609.69 755.20 L2619.54 782.74 L2629.40 800.97 L2639.25 806.77 L2649.11 794.49 L2658.96 777.48 L2668.82 780.45 L2678.67 770.73 L2688.53 948.93 L2698.38 1006.04 L2708.24 1099.32 L2718.09 1162.10 L2727.81 1264.56 L2737.67 1271.72 L2747.52 1232.70 L2757.38 1209.89 L2767.23 1282.39 L2777.09 1332.20 L2786.94 1333.69 L2796.80 1350.56 L2806.65 1298.72 L2816.51 1322.62 L2826.36 1379.32 L2836.22 1338.14 L2846.07 1309.52 L2855.93 1294.00 L2865.78 1271.18 L2875.64 1347.19 L2885.49 1403.89 L2895.21 1500.14 L2905.07 1578.98 L2914.92 1568.72 L2924.78 1569.13 L2934.63 1588.43 L2944.49 1527.82 L2954.34 1425.76 L2964.20 1390.66 L2974.05 1440.47 L2983.91 1481.24 L2993.76 1493.80 L3003.62 1426.57 L3013.47 1374.32 L3023.33 1338.01 L3033.18 1291.97 L3043.04 1226.36 L3052.89 1214.34 L3062.61 1184.78 L3072.47 1266.86 L3082.32 1314.38 L3092.18 1266.99 L3102.03 1250.39 L3111.89 1224.87 L3121.74 1251.20 L3131.60 1289.00 L3141.45 1300.21 L3151.31 1392.14 L3161.16 1469.77 L3171.02 1444.39 L3180.87 1435.75 L3190.73 1482.05 L3200.58 1504.06 L3210.44 1640.41 L3220.29 1689.28 L3230.15 1625.83 L3239.87 1662.28 L3249.72 1628.80 L3259.58 1635.15 L3269.43 1610.17 L3279.29 1642.03 L3289.14 1610.31 L3299.00 1660.12 L3308.85 1652.02 L3318.71 1643.92 L3328.56 1529.98 L3338.42 1506.49 L3348.27 1500.82 L3358.13 1388.50 L3367.98 1375.94 L3377.84 1338.14 L3387.69 1367.30 L3397.55 1333.15 L3407.27 1372.16 L3417.12 1416.44 L3426.98 1340.03 L3436.83 1330.72 L3446.69 1414.28 L3456.54 1432.24 L3466.40 1472.06 L3476.25 1500.41 L3486.11 1506.22 L3495.96 1566.16 L3505.82 1552.66 L3515.67 1489.88 L3525.53 1478.81 L3535.38 1410.91 L3545.24 1374.32 L3555.09 1354.21 L3564.95 1341.65 L3574.67 1275.23 L3584.52 1289.14 L3594.38 1291.16 L3604.23 1355.83 L3614.09 1350.16 L3623.94 1364.74 L3633.80 1364.74 L3643.65 1417.52 L3653.51 1388.23 L3663.36 1572.91 L3673.22 1627.45 L3683.07 1535.92 L3692.93 1620.97 L3702.78 1610.58 L3712.64 1656.34 L3722.49 1538.35 L3732.35 1483.00 L3742.07 1339.76 L3751.92 1335.71 L3761.78 1337.47 L3771.63 1280.77 L3781.49 1237.97 L3791.34 1256.19 L3801.20 1403.35 L3811.05 1448.30 L3820.91 1499.87 L3830.76 1462.48 L3840.62 1525.52 L3850.47 1566.16 L3860.33 1671.46 L3870.18 1735.72 L3880.04 1690.77 L3889.89 1767.99 L3899.75 1782.03 L3909.47 1747.33 L3919.32 1633.66 L3929.18 1546.58 L3939.03 1430.62 L3948.89 1433.72 L3958.74 1500.68 L3968.60 1469.09 L3978.45 1500.68 L3988.31 1561.97" stroke-linejoin="round" style="fill:none;stroke:#0080FF;stroke-width:8.64"/>
	<path d=" M847.13 1350.29 L856.98 1350.29 L866.70 1350.29 L876.56 1350.29 L886.41 1350.29 L896.27 1350.29 L906.12 1350.29 L915.98 1350.29 L925.83 1350.29 L935.69 1350.29 L945.54 1350.29 L955.40 1350.29 L965.25 1350.29 L975.11 1350.29 L984.96 1350.29 L994.82 1350.29 L1004.67 1350.29 L1014.53 1350.29 L1024.38 1350.29 L1034.10 1350.29 L1043.96 1350.29 L1053.81 1350.29 L1063.67 1350.29 L1073.52 1350.29 L1083.38 1350.29 L1093.23 1350.29 L1103.09 1350.29 L1112.94 1350.29 L1122.80 1350.29 L1132.65 1350.29 L1142.51 1350.29 L1152.36 1350.29 L1162.21 1350.29 L1172.07 1350.29 L1181.93 1350.29 L1191.78 1350.29 L1201.64 1350.29 L1211.36 1350.29 L1221.21 1350.29 L1231.07 1350.29 L1240.92 1350.29 L1250.78 1350.29 L1260.63 1350.29 L1270.48 1350.29 L1280.34 1350.29 L1290.20 1350.29 L1300.05 1350.29 L1309.91 1350.29 L1319.76 1350.29 L1329.62 1350.29 L1339.47 1350.29 L1349.33 1350.29 L1359.18 1350.29 L1369.04 1350.29 L1378.76 1350.29 L1388.61 1350.29 L1398.47 1350.29 L1408.32 1350.29 L1418.18 1350.29 L1428.03 1350.29 L1437.89 1350.29 L1447.74 1350.29 L1457.60 1350.29 L1467.45 1350.29 L1477.31 1350.29 L1487.16 1350.29 L1497.02 1350.29 L1506.87 1350.29 L1516.73 1350.29 L1526.58 1350.29 L1536.44 1350.29 L1546.16 1350.29 L1556.01 1350.29 L1565.87 1350.29 L1575.72 1350.29 L1585.58 1350.29 L1595.43 1350.29 L1605.29 1350.29 L1615.14 1350.29 L1625.00 1350.29 L1634.85 1350.29 L1644.71 1350.29 L1654.56 1350.29 L1664.42 1350.29 L1674.27 1350.29 L1684.13 1350.29 L1693.98 1350.29 L1703.84 1350.29 L1713.56 1350.29 L1723.41 1350.29 L1733.27 1350.29 L1743.12 1350.29 L1752.98 1350.29 L1762.83 1350.29 L1772.69 1350.29 L1782.54 1350.29 L1792.40 1350.29 L1802.25 1350.29 L1812.11 1350.29 L1821.96 1350.29 L1831.82 1350.29 L1841.67 1350.29 L1851.53 1350.29 L1861.38 1350.29 L1871.24 1350.29 L1880.96 1350.29 L1890.81 1350.29 L1900.67 1350.29 L1910.52 1350.29 L1920.38 1350.29 L1930.23 1350.29 L1940.09 1350.29 L1949.94 1350.29 L1959.80 1350.29 L1969.65 1350.29 L1979.51 1350.29 L1989.36 1350.29 L1999.22 1350.29 L2009.07 1350.29 L2018.93 1350.29 L2028.78 1350.29 L2038.64 1350.29 L2048.36 1350.29 L2058.21 1350.29 L2068.07 1350.29 L2077.92 1350.29 L2087.78 1350.29 L2097.63 1350.29 L2107.49 1350.29 L2117.34 1350.29 L2127.20 1350.29 L2137.05 1350.29 L2146.91 1350.29 L2156.76 1350.29 L2166.61 1350.29 L2176.47 1350.29 L2186.32 1350.29 L2196.18 1350.29 L2206.04 1350.29 L2215.89 1350.29 L2225.61 1350.29 L2235.47 1350.29 L2245.32 1350.29 L2255.18 1350.29 L2265.03 1350.29 L2274.89 1350.29 L2284.74 1350.29 L2294.59 1350.29 L2304.45 1350.29 L2314.30 1350.29 L2324.16 1350.29 L2334.02 1350.29 L2343.87 1350.29 L2353.73 1350.29 L2363.58 1350.29 L2373.44 1350.29 L2383.29 1350.29 L2393.01 1350.29 L2402.86 1350.29 L2412.72 1350.29 L2422.57 1350.29 L2432.43 1350.29 L2442.29 1350.29 L2452.14 1350.29 L2462.00 1350.29 L2471.85 1350.29 L2481.71 1350.29 L2491.56 1350.29 L2501.42 1350.29 L2511.27 1350.29 L2521.13 1350.29 L2530.98 1350.29 L2540.84 1350.29 L2550.69 1350.29 L2560.41 1350.29 L2570.27 1350.29 L2580.12 1350.29 L2589.98 1350.29 L2599.83 1350.29 L2609.69 1350.29 L2619.54 1350.29 L2629.40 1350.29 L2639.25 1350.29 L2649.11 1350.29 L2658.96 1350.29 L2668.82 1350.29 L2678.67 1350.29 L2688.53 1350.29 L2698.38 1350.29 L2708.24 1350.29 L2718.09 1350.29 L2727.81 1350.29 L2737.67 1350.29 L2747.52 1350.29 L2757.38 1350.29 L2767.23 1350.29 L2777.09 1350.29 L2786.94 1350.29 L2796.80 1350.29 L2806.65 1350.29 L2816.51 1350.29 L2826.36 1350.29 L2836.22 1350.29 L2846.07 1350.29 L2855.93 1350.29 L2865.78 1350.29 L2875.64 1350.29 L2885.49 1350.29 L2895.21 1350.29 L2905.07 1350.29 L2914.92 1350.29 L2924.78 1350.29 L2934.63 1350.29 L2944.49 1350.29 L2954.34 1350.29 L2964.20 1350.29 L2974.05 1350.29 L2983.91 1350.29 L2993.76 1350.29 L3003.62 1350.29 L3013.47 1350.29 L3023.33 1350.29 L3033.18 1350.29 L3043.04 1350.29 L3052.89 1350.29 L3062.61 1350.29 L3072.47 1350.29 L3082.32 1350.29 L3092.18 1350.29 L3102.03 1350.29 L3111.89 1350.29 L3121.74 1350.29 L3131.60 1350.29 L3141.45 1350.29 L3151.31 1350.29 L3161.16 1350.29 L3171.02 1350.29 L3180.87 1350.29 L3190.73 1350.29 L3200.58 1350.29 L3210.44 1350.29 L3220.29 1350.29 L3230.15 1350.29 L3239.87 1350.29 L3249.72 1350.29 L3259.58 1350.29 L3269.43 1350.29 L3279.29 1350.29 L3289.14 1350.29 L3299.00 1350.29 L3308.85 1350.29 L3318.71 1350.29 L3328.56 1350.29 L3338.42 1350.29 L3348.27 1350.29 L3358.13 1350.29 L3367.98 1350.29 L3377.84 1350.29 L3387.69 1350.29 L3397.55 1350.29 L3407.27 1350.29 L3417.12 1350.29 L3426.98 1350.29 L3436.83 1350.29 L3446.69 1350.29 L3456.54 1350.29 L3466.40 1350.29 L3476.25 1350.29 L3486.11 1350.29 L3495.96 1350.29 L3505.82 1350.29 L3515.67 1350.29 L3525.53 1350.29 L3535.38 1350.29 L3545.24 1350.29 L3555.09 1350.29 L3564.95 1350.29 L3574.67 1350.29 L3584.52 1350.29 L3594.38 1350.29 L3604.23 1350.29 L3614.09 1350.29 L3623.94 1350.29 L3633.80 1350.29 L3643.65 1350.29 L3653.51 1350.29 L3663.36 1350.29 L3673.22 1350.29 L3683.07 1350.29 L3692.93 1350.29 L3702.78 1350.29 L3712.64 1350.29 L3722.49 1350.29 L3732.35 1350.29 L3742.07 1350.29 L3751.92 1350.29 L3761.78 1350.29 L3771.63 1350.29 L3781.49 1350.29 L3791.34 1350.29 L3801.20 1350.29 L3811.05 1350.29 L3820.91 1350.29 L3830.76 1350.29 L3840.62 1350.29 L3850.47 1350.29 L3860.33 1350.29 L3870.18 1350.29 L3880.04 1350.29 L3889.89 1350.29 L3899.75 1350.29 L3909.47 1350.29 L3919.32 1350.29 L3929.18 1350.29 L3939.03 1350.29 L3948.89 1350.29 L3958.74 1350.29 L3968.60 1350.29 L3978.45 1350.29 L3988.31 1350.29" stroke-linejoin="round" style="fill:none;stroke:#D41159;stroke-width:8.64"/>
	<line x1="547.42" y1="2459.20" x2="547.42" y2="275.40" style="stroke:#000000;stroke-width:5.76"/>
	<line x1="547.42" y1="2395.88" x2="507.47" y2="2395.88" style="stroke:#000000;stroke-width:5.76"/>
	<text x="487.49" y="2430.93" style="font-family:'Helvetica';font-size:100.04px;fill:#000000" text-anchor="end">-10.00</text>
	<line x1="547.42" y1="1881.52" x2="507.47" y2="1881.52" style="stroke:#000000;stroke-width:5.76"/>
	<text x="487.49" y="1916.57" style="font-family:'Helvetica';font-size:100.04px;fill:#000000" text-anchor="end">0.00</text>
	<line x1="547.42" y1="1367.30" x2="507.47" y2="1367.30" style="stroke:#000000;stroke-width:5.76"/>
	<text x="487.49" y="1402.35" style="font-family:'Helvetica';font-size:100.04px;fill:#000000" text-anchor="end">10.00</text>
	<line x1="547.42" y1="852.94" x2="507.47" y2="852.94" style="stroke:#000000;stroke-width:5.76"/>
	<text x="487.49" y="887.99" style="font-family:'Helvetica';font-size:100.04px;fill:#000000" text-anchor="end">20.00</text>
	<line x1="547.42" y1="338.72" x2="507.47" y2="338.72" style="stroke:#000000;stroke-width:5.76"/>
	<text x="487.49" y="373.77" style="font-family:'Helvetica';font-size:100.04px;fill:#000000" text-anchor="end">30.00</text>
	<line x1="547.42" y1="2459.20" x2="4219.16" y2="2459.20" style="stroke:#000000;stroke-width:5.76"/>
	<line x1="610.74" y1="2459.20" x2="610.74" y2="2499.16" style="stroke:#000000;stroke-width:5.76"/>
	<text x="610.74" y="2589.10" style="font-family:'Helvetica';font-size:100.04px;fill:#000000" text-anchor="middle">1995m1</text>
	<line x1="1201.64" y1="2459.20" x2="1201.64" y2="2499.16" style="stroke:#000000;stroke-width:5.76"/>
	<text x="1201.64" y="2589.10" style="font-family:'Helvetica';font-size:100.04px;fill:#000000" text-anchor="middle">2000m1</text>
	<line x1="1792.53" y1="2459.20" x2="1792.53" y2="2499.16" style="stroke:#000000;stroke-width:5.76"/>
	<text x="1792.53" y="2589.10" style="font-family:'Helvetica';font-size:100.04px;fill:#000000" text-anchor="middle">2005m1</text>
	<line x1="2383.29" y1="2459.20" x2="2383.29" y2="2499.16" style="stroke:#000000;stroke-width:5.76"/>
	<text x="2383.29" y="2589.10" style="font-family:'Helvetica';font-size:100.04px;fill:#000000" text-anchor="middle">2010m1</text>
	<line x1="2974.19" y1="2459.20" x2="2974.19" y2="2499.16" style="stroke:#000000;stroke-width:5.76"/>
	<text x="2974.19" y="2589.10" style="font-family:'Helvetica';font-size:100.04px;fill:#000000" text-anchor="middle">2015m1</text>
	<line x1="3564.95" y1="2459.20" x2="3564.95" y2="2499.16" style="stroke:#000000;stroke-width:5.76"/>
	<text x="3564.95" y="2589.10" style="font-family:'Helvetica';font-size:100.04px;fill:#000000" text-anchor="middle">2020m1</text>
	<line x1="4155.84" y1="2459.20" x2="4155.84" y2="2499.16" style="stroke:#000000;stroke-width:5.76"/>
	<text x="4155.84" y="2589.10" style="font-family:'Helvetica';font-size:100.04px;fill:#000000" text-anchor="middle">2025m1</text>
	<text x="2383.29" y="2729.09" style="font-family:'Helvetica';font-size:100.04px;fill:#000000" text-anchor="middle">Fecha</text>
	<text x="2383.29" y="216.06" style="font-family:'Helvetica';font-size:140.00px;fill:#000000" text-anchor="middle">M2 y su Esperanza Incondicional</text>
</svg>
