<?xml version="1.0" encoding="UTF-8" standalone="no"?>
<!-- This is a Stata 18.0 generated SVG file (http://www.stata.com) -->

<svg version="1.1" width="6.000in" height="4.000in" viewBox="0 0 4320 2880" xmlns="http://www.w3.org/2000/svg" xmlns:xlink="http://www.w3.org/1999/xlink">
	<desc>Stata Graph - Graph</desc>
	<rect x="0" y="0" width="4320" height="2880" style="fill:#FFFFFF;stroke:none"/>
	<rect x="0.00" y="0.00" width="4320.00" height="2880.00" style="fill:#FFFFFF"/>
	<rect x="2.88" y="2.88" width="4314.24" height="2874.24" style="fill:none;stroke:#FFFFFF;stroke-width:5.76"/>
	<rect x="485.33" y="275.40" width="3733.83" height="2183.79" style="fill:#FFFFFF"/>
	<rect x="488.20" y="278.28" width="3728.07" height="2178.03" style="fill:none;stroke:#000000;stroke-width:5.76"/>
	<line x1="485.33" y1="1869.51" x2="542.97" y2="1869.51" style="stroke:#F0F0F0;stroke-width:8.64"/>
	<line x1="571.73" y1="1869.51" x2="629.37" y2="1869.51" style="stroke:#F0F0F0;stroke-width:8.64"/>
	<line x1="658.13" y1="1869.51" x2="715.77" y2="1869.51" style="stroke:#F0F0F0;stroke-width:8.64"/>
	<line x1="744.53" y1="1869.51" x2="802.17" y2="1869.51" style="stroke:#F0F0F0;stroke-width:8.64"/>
	<line x1="830.93" y1="1869.51" x2="888.57" y2="1869.51" style="stroke:#F0F0F0;stroke-width:8.64"/>
	<line x1="917.33" y1="1869.51" x2="974.97" y2="1869.51" style="stroke:#F0F0F0;stroke-width:8.64"/>
	<line x1="1003.73" y1="1869.51" x2="1061.37" y2="1869.51" style="stroke:#F0F0F0;stroke-width:8.64"/>
	<line x1="1090.13" y1="1869.51" x2="1147.77" y2="1869.51" style="stroke:#F0F0F0;stroke-width:8.64"/>
	<line x1="1176.53" y1="1869.51" x2="1234.17" y2="1869.51" style="stroke:#F0F0F0;stroke-width:8.64"/>
	<line x1="1262.93" y1="1869.51" x2="1320.57" y2="1869.51" style="stroke:#F0F0F0;stroke-width:8.64"/>
	<line x1="1349.33" y1="1869.51" x2="1406.97" y2="1869.51" style="stroke:#F0F0F0;stroke-width:8.64"/>
	<line x1="1435.73" y1="1869.51" x2="1493.37" y2="1869.51" style="stroke:#F0F0F0;stroke-width:8.64"/>
	<line x1="1522.13" y1="1869.51" x2="1579.77" y2="1869.51" style="stroke:#F0F0F0;stroke-width:8.64"/>
	<line x1="1608.53" y1="1869.51" x2="1666.17" y2="1869.51" style="stroke:#F0F0F0;stroke-width:8.64"/>
	<line x1="1694.93" y1="1869.51" x2="1752.57" y2="1869.51" style="stroke:#F0F0F0;stroke-width:8.64"/>
	<line x1="1781.33" y1="1869.51" x2="1838.97" y2="1869.51" style="stroke:#F0F0F0;stroke-width:8.64"/>
	<line x1="1867.73" y1="1869.51" x2="1925.37" y2="1869.51" style="stroke:#F0F0F0;stroke-width:8.64"/>
	<line x1="1954.13" y1="1869.51" x2="2011.77" y2="1869.51" style="stroke:#F0F0F0;stroke-width:8.64"/>
	<line x1="2040.53" y1="1869.51" x2="2098.17" y2="1869.51" style="stroke:#F0F0F0;stroke-width:8.64"/>
	<line x1="2126.93" y1="1869.51" x2="2184.57" y2="1869.51" style="stroke:#F0F0F0;stroke-width:8.64"/>
	<line x1="2213.32" y1="1869.51" x2="2270.97" y2="1869.51" style="stroke:#F0F0F0;stroke-width:8.64"/>
	<line x1="2299.73" y1="1869.51" x2="2357.37" y2="1869.51" style="stroke:#F0F0F0;stroke-width:8.64"/>
	<line x1="2386.13" y1="1869.51" x2="2443.77" y2="1869.51" style="stroke:#F0F0F0;stroke-width:8.64"/>
	<line x1="2472.53" y1="1869.51" x2="2530.17" y2="1869.51" style="stroke:#F0F0F0;stroke-width:8.64"/>
	<line x1="2558.93" y1="1869.51" x2="2616.57" y2="1869.51" style="stroke:#F0F0F0;stroke-width:8.64"/>
	<line x1="2645.33" y1="1869.51" x2="2702.97" y2="1869.51" style="stroke:#F0F0F0;stroke-width:8.64"/>
	<line x1="2731.73" y1="1869.51" x2="2789.37" y2="1869.51" style="stroke:#F0F0F0;stroke-width:8.64"/>
	<line x1="2818.13" y1="1869.51" x2="2875.77" y2="1869.51" style="stroke:#F0F0F0;stroke-width:8.64"/>
	<line x1="2904.53" y1="1869.51" x2="2962.17" y2="1869.51" style="stroke:#F0F0F0;stroke-width:8.64"/>
	<line x1="2990.93" y1="1869.51" x2="3048.57" y2="1869.51" style="stroke:#F0F0F0;stroke-width:8.64"/>
	<line x1="3077.33" y1="1869.51" x2="3134.97" y2="1869.51" style="stroke:#F0F0F0;stroke-width:8.64"/>
	<line x1="3163.73" y1="1869.51" x2="3221.37" y2="1869.51" style="stroke:#F0F0F0;stroke-width:8.64"/>
	<line x1="3250.13" y1="1869.51" x2="3307.77" y2="1869.51" style="stroke:#F0F0F0;stroke-width:8.64"/>
	<line x1="3336.53" y1="1869.51" x2="3394.17" y2="1869.51" style="stroke:#F0F0F0;stroke-width:8.64"/>
	<line x1="3422.93" y1="1869.51" x2="3480.57" y2="1869.51" style="stroke:#F0F0F0;stroke-width:8.64"/>
	<line x1="3509.33" y1="1869.51" x2="3566.97" y2="1869.51" style="stroke:#F0F0F0;stroke-width:8.64"/>
	<line x1="3595.73" y1="1869.51" x2="3653.37" y2="1869.51" style="stroke:#F0F0F0;stroke-width:8.64"/>
	<line x1="3682.13" y1="1869.51" x2="3739.77" y2="1869.51" style="stroke:#F0F0F0;stroke-width:8.64"/>
	<line x1="3768.53" y1="1869.51" x2="3826.17" y2="1869.51" style="stroke:#F0F0F0;stroke-width:8.64"/>
	<line x1="3854.93" y1="1869.51" x2="3912.57" y2="1869.51" style="stroke:#F0F0F0;stroke-width:8.64"/>
	<line x1="3941.33" y1="1869.51" x2="3998.97" y2="1869.51" style="stroke:#F0F0F0;stroke-width:8.64"/>
	<line x1="4027.73" y1="1869.51" x2="4085.37" y2="1869.51" style="stroke:#F0F0F0;stroke-width:8.64"/>
	<line x1="4114.13" y1="1869.51" x2="4171.77" y2="1869.51" style="stroke:#F0F0F0;stroke-width:8.64"/>
	<line x1="4200.52" y1="1869.51" x2="4219.16" y2="1869.51" style="stroke:#F0F0F0;stroke-width:8.64"/>
	<defs>
		<path id="path_jpprUdTR" d="M668.93 2083.89 L668.93 2083.89 L789.21 2083.89 L909.36 2083.89 L1029.65 2083.89 L1149.80 2083.89 L1270.08 2083.89 L1390.37 2083.89 L1510.52 2083.89 L1630.80 2083.89 L1751.09 2083.89 L1871.24 2083.89 L1991.52 2083.89 L2111.80 2083.89 L2231.96 2083.89 L2352.24 2083.89 L2472.53 2083.89 L2592.68 2083.89 L2712.96 2083.89 L2833.11 2083.89 L2953.40 2083.89 L3073.68 2083.89 L3193.83 2083.89 L3314.12 2083.89 L3434.40 2083.89 L3554.55 2083.89 L3674.84 2083.89 L3795.12 2083.89 L3915.27 2083.89 L4035.56 2083.89 L4155.84 2083.89 L4155.84 1655.13 L4035.56 1655.13 L3915.27 1655.13 L3795.12 1655.13 L3674.84 1655.13 L3554.55 1655.13 L3434.40 1655.13 L3314.12 1655.13 L3193.83 1655.13 L3073.68 1655.13 L2953.40 1655.13 L2833.11 1655.13 L2712.96 1655.13 L2592.68 1655.13 L2472.53 1655.13 L2352.24 1655.13 L2231.96 1655.13 L2111.80 1655.13 L1991.52 1655.13 L1871.24 1655.13 L1751.09 1655.13 L1630.80 1655.13 L1510.52 1655.13 L1390.37 1655.13 L1270.08 1655.13 L1149.80 1655.13 L1029.65 1655.13 L909.36 1655.13 L789.21 1655.13 L668.93 1655.13 L668.93 2083.89 Z" stroke-linejoin="round"/>
	</defs>
	<defs>
		<clipPath id="clipPath_BWAClUDE">
			<use xlink:href="#path_jpprUdTR"/>
		</clipPath>
	</defs>
	<use xlink:href="#path_jpprUdTR" style="stroke:none;fill:#E0E0E0"/>
	<use xlink:href="#path_jpprUdTR" style="fill:none;stroke:#E0E0E0;stroke-width:17.28" clip-path="url(#clipPath_BWAClUDE)"/>
	<line x1="668.93" y1="1869.51" x2="668.93" y2="373.82" style="stroke:#FF0000;stroke-width:8.64"/>
	<line x1="789.21" y1="1869.51" x2="789.21" y2="2395.88" style="stroke:#FF0000;stroke-width:8.64"/>
	<line x1="909.36" y1="1869.51" x2="909.36" y2="2320.28" style="stroke:#FF0000;stroke-width:8.64"/>
	<line x1="1029.65" y1="1869.51" x2="1029.65" y2="2109.81" style="stroke:#FF0000;stroke-width:8.64"/>
	<line x1="1149.80" y1="1869.51" x2="1149.80" y2="1737.07" style="stroke:#FF0000;stroke-width:8.64"/>
	<line x1="1270.08" y1="1869.51" x2="1270.08" y2="1892.32" style="stroke:#FF0000;stroke-width:8.64"/>
	<line x1="1390.37" y1="1869.51" x2="1390.37" y2="1905.82" style="stroke:#FF0000;stroke-width:8.64"/>
	<line x1="1510.52" y1="1869.51" x2="1510.52" y2="1980.48" style="stroke:#FF0000;stroke-width:8.64"/>
	<line x1="1630.80" y1="1869.51" x2="1630.80" y2="2012.34" style="stroke:#FF0000;stroke-width:8.64"/>
	<line x1="1751.09" y1="1869.51" x2="1751.09" y2="2073.50" style="stroke:#FF0000;stroke-width:8.64"/>
	<line x1="1871.24" y1="1869.51" x2="1871.24" y2="2267.23" style="stroke:#FF0000;stroke-width:8.64"/>
	<line x1="1991.52" y1="1869.51" x2="1991.52" y2="2061.62" style="stroke:#FF0000;stroke-width:8.64"/>
	<line x1="2111.80" y1="1869.51" x2="2111.80" y2="1954.97" style="stroke:#FF0000;stroke-width:8.64"/>
	<line x1="2231.96" y1="1869.51" x2="2231.96" y2="1877.47" style="stroke:#FF0000;stroke-width:8.64"/>
	<line x1="2352.24" y1="1869.51" x2="2352.24" y2="1952.13" style="stroke:#FF0000;stroke-width:8.64"/>
	<line x1="2472.53" y1="1869.51" x2="2472.53" y2="1925.67" style="stroke:#FF0000;stroke-width:8.64"/>
	<line x1="2592.68" y1="1869.51" x2="2592.68" y2="1890.30" style="stroke:#FF0000;stroke-width:8.64"/>
	<line x1="2712.96" y1="1869.51" x2="2712.96" y2="1993.98" style="stroke:#FF0000;stroke-width:8.64"/>
	<line x1="2833.11" y1="1869.51" x2="2833.11" y2="2069.99" style="stroke:#FF0000;stroke-width:8.64"/>
	<line x1="2953.40" y1="1869.51" x2="2953.40" y2="2025.17" style="stroke:#FF0000;stroke-width:8.64"/>
	<line x1="3073.68" y1="1869.51" x2="3073.68" y2="2134.25" style="stroke:#FF0000;stroke-width:8.64"/>
	<line x1="3193.83" y1="1869.51" x2="3193.83" y2="1890.30" style="stroke:#FF0000;stroke-width:8.64"/>
	<line x1="3314.12" y1="1869.51" x2="3314.12" y2="2011.26" style="stroke:#FF0000;stroke-width:8.64"/>
	<line x1="3434.40" y1="1869.51" x2="3434.40" y2="1729.24" style="stroke:#FF0000;stroke-width:8.64"/>
	<line x1="3554.55" y1="1869.51" x2="3554.55" y2="1980.35" style="stroke:#FF0000;stroke-width:8.64"/>
	<line x1="3674.84" y1="1869.51" x2="3674.84" y2="2118.45" style="stroke:#FF0000;stroke-width:8.64"/>
	<line x1="3795.12" y1="1869.51" x2="3795.12" y2="1950.92" style="stroke:#FF0000;stroke-width:8.64"/>
	<line x1="3915.27" y1="1869.51" x2="3915.27" y2="1833.60" style="stroke:#FF0000;stroke-width:8.64"/>
	<line x1="4035.56" y1="1869.51" x2="4035.56" y2="2022.60" style="stroke:#FF0000;stroke-width:8.64"/>
	<line x1="4155.84" y1="1869.51" x2="4155.84" y2="1971.30" style="stroke:#FF0000;stroke-width:8.64"/>
	<circle cx="668.79" cy="373.96" r="19.30" style="fill:#FF0000"/>
	<circle cx="668.79" cy="373.96" r="14.99" style="fill:none;stroke:#FF0000;stroke-width:8.64"/>
	<circle cx="789.08" cy="2395.88" r="19.30" style="fill:#FF0000"/>
	<circle cx="789.08" cy="2395.88" r="14.99" style="fill:none;stroke:#FF0000;stroke-width:8.64"/>
	<circle cx="909.36" cy="2320.28" r="19.30" style="fill:#FF0000"/>
	<circle cx="909.36" cy="2320.28" r="14.99" style="fill:none;stroke:#FF0000;stroke-width:8.64"/>
	<circle cx="1029.51" cy="2109.81" r="19.30" style="fill:#FF0000"/>
	<circle cx="1029.51" cy="2109.81" r="14.99" style="fill:none;stroke:#FF0000;stroke-width:8.64"/>
	<circle cx="1149.80" cy="1737.21" r="19.30" style="fill:#FF0000"/>
	<circle cx="1149.80" cy="1737.21" r="14.99" style="fill:none;stroke:#FF0000;stroke-width:8.64"/>
	<circle cx="1270.08" cy="1892.32" r="19.30" style="fill:#FF0000"/>
	<circle cx="1270.08" cy="1892.32" r="14.99" style="fill:none;stroke:#FF0000;stroke-width:8.64"/>
	<circle cx="1390.23" cy="1905.96" r="19.30" style="fill:#FF0000"/>
	<circle cx="1390.23" cy="1905.96" r="14.99" style="fill:none;stroke:#FF0000;stroke-width:8.64"/>
	<circle cx="1510.52" cy="1980.62" r="19.30" style="fill:#FF0000"/>
	<circle cx="1510.52" cy="1980.62" r="14.99" style="fill:none;stroke:#FF0000;stroke-width:8.64"/>
	<circle cx="1630.80" cy="2012.48" r="19.30" style="fill:#FF0000"/>
	<circle cx="1630.80" cy="2012.48" r="14.99" style="fill:none;stroke:#FF0000;stroke-width:8.64"/>
	<circle cx="1750.95" cy="2073.63" r="19.30" style="fill:#FF0000"/>
	<circle cx="1750.95" cy="2073.63" r="14.99" style="fill:none;stroke:#FF0000;stroke-width:8.64"/>
	<circle cx="1871.24" cy="2267.36" r="19.30" style="fill:#FF0000"/>
	<circle cx="1871.24" cy="2267.36" r="14.99" style="fill:none;stroke:#FF0000;stroke-width:8.64"/>
	<circle cx="1991.39" cy="2061.62" r="19.30" style="fill:#FF0000"/>
	<circle cx="1991.39" cy="2061.62" r="14.99" style="fill:none;stroke:#FF0000;stroke-width:8.64"/>
	<circle cx="2111.67" cy="1954.97" r="19.30" style="fill:#FF0000"/>
	<circle cx="2111.67" cy="1954.97" r="14.99" style="fill:none;stroke:#FF0000;stroke-width:8.64"/>
	<circle cx="2231.96" cy="1877.61" r="19.30" style="fill:#FF0000"/>
	<circle cx="2231.96" cy="1877.61" r="14.99" style="fill:none;stroke:#FF0000;stroke-width:8.64"/>
	<circle cx="2352.11" cy="1952.13" r="19.30" style="fill:#FF0000"/>
	<circle cx="2352.11" cy="1952.13" r="14.99" style="fill:none;stroke:#FF0000;stroke-width:8.64"/>
	<circle cx="2472.39" cy="1925.81" r="19.30" style="fill:#FF0000"/>
	<circle cx="2472.39" cy="1925.81" r="14.99" style="fill:none;stroke:#FF0000;stroke-width:8.64"/>
	<circle cx="2592.68" cy="1890.43" r="19.30" style="fill:#FF0000"/>
	<circle cx="2592.68" cy="1890.43" r="14.99" style="fill:none;stroke:#FF0000;stroke-width:8.64"/>
	<circle cx="2712.83" cy="1994.12" r="19.30" style="fill:#FF0000"/>
	<circle cx="2712.83" cy="1994.12" r="14.99" style="fill:none;stroke:#FF0000;stroke-width:8.64"/>
	<circle cx="2833.11" cy="2070.12" r="19.30" style="fill:#FF0000"/>
	<circle cx="2833.11" cy="2070.12" r="14.99" style="fill:none;stroke:#FF0000;stroke-width:8.64"/>
	<circle cx="2953.40" cy="2025.30" r="19.30" style="fill:#FF0000"/>
	<circle cx="2953.40" cy="2025.30" r="14.99" style="fill:none;stroke:#FF0000;stroke-width:8.64"/>
	<circle cx="3073.55" cy="2134.38" r="19.30" style="fill:#FF0000"/>
	<circle cx="3073.55" cy="2134.38" r="14.99" style="fill:none;stroke:#FF0000;stroke-width:8.64"/>
	<circle cx="3193.83" cy="1890.43" r="19.30" style="fill:#FF0000"/>
	<circle cx="3193.83" cy="1890.43" r="14.99" style="fill:none;stroke:#FF0000;stroke-width:8.64"/>
	<circle cx="3314.12" cy="2011.40" r="19.30" style="fill:#FF0000"/>
	<circle cx="3314.12" cy="2011.40" r="14.99" style="fill:none;stroke:#FF0000;stroke-width:8.64"/>
	<circle cx="3434.27" cy="1729.24" r="19.30" style="fill:#FF0000"/>
	<circle cx="3434.27" cy="1729.24" r="14.99" style="fill:none;stroke:#FF0000;stroke-width:8.64"/>
	<circle cx="3554.55" cy="1980.35" r="19.30" style="fill:#FF0000"/>
	<circle cx="3554.55" cy="1980.35" r="14.99" style="fill:none;stroke:#FF0000;stroke-width:8.64"/>
	<circle cx="3674.70" cy="2118.45" r="19.30" style="fill:#FF0000"/>
	<circle cx="3674.70" cy="2118.45" r="14.99" style="fill:none;stroke:#FF0000;stroke-width:8.64"/>
	<circle cx="3794.99" cy="1951.05" r="19.30" style="fill:#FF0000"/>
	<circle cx="3794.99" cy="1951.05" r="14.99" style="fill:none;stroke:#FF0000;stroke-width:8.64"/>
	<circle cx="3915.27" cy="1833.73" r="19.30" style="fill:#FF0000"/>
	<circle cx="3915.27" cy="1833.73" r="14.99" style="fill:none;stroke:#FF0000;stroke-width:8.64"/>
	<circle cx="4035.42" cy="2022.74" r="19.30" style="fill:#FF0000"/>
	<circle cx="4035.42" cy="2022.74" r="14.99" style="fill:none;stroke:#FF0000;stroke-width:8.64"/>
	<circle cx="4155.71" cy="1971.44" r="19.30" style="fill:#FF0000"/>
	<circle cx="4155.71" cy="1971.44" r="14.99" style="fill:none;stroke:#FF0000;stroke-width:8.64"/>
	<line x1="485.33" y1="2459.20" x2="485.33" y2="275.40" style="stroke:#000000;stroke-width:5.76"/>
	<line x1="485.33" y1="2252.11" x2="445.37" y2="2252.11" style="stroke:#000000;stroke-width:5.76"/>
	<text x="425.39" y="2287.15" style="font-family:'Helvetica';font-size:100.04px;fill:#000000" text-anchor="end">-0.20</text>
	<line x1="485.33" y1="1869.51" x2="445.37" y2="1869.51" style="stroke:#000000;stroke-width:5.76"/>
	<text x="425.39" y="1904.56" style="font-family:'Helvetica';font-size:100.04px;fill:#000000" text-anchor="end">0.00</text>
	<line x1="485.33" y1="1486.78" x2="445.37" y2="1486.78" style="stroke:#000000;stroke-width:5.76"/>
	<text x="425.39" y="1521.82" style="font-family:'Helvetica';font-size:100.04px;fill:#000000" text-anchor="end">0.20</text>
	<line x1="485.33" y1="1104.05" x2="445.37" y2="1104.05" style="stroke:#000000;stroke-width:5.76"/>
	<text x="425.39" y="1139.09" style="font-family:'Helvetica';font-size:100.04px;fill:#000000" text-anchor="end">0.40</text>
	<line x1="485.33" y1="721.45" x2="445.37" y2="721.45" style="stroke:#000000;stroke-width:5.76"/>
	<text x="425.39" y="756.50" style="font-family:'Helvetica';font-size:100.04px;fill:#000000" text-anchor="end">0.60</text>
	<line x1="485.33" y1="338.72" x2="445.37" y2="338.72" style="stroke:#000000;stroke-width:5.76"/>
	<text x="425.39" y="373.77" style="font-family:'Helvetica';font-size:100.04px;fill:#000000" text-anchor="end">0.80</text>
	<line x1="485.33" y1="2459.20" x2="4219.16" y2="2459.20" style="stroke:#000000;stroke-width:5.76"/>
	<line x1="548.64" y1="2459.20" x2="548.64" y2="2499.16" style="stroke:#000000;stroke-width:5.76"/>
	<text x="548.64" y="2589.10" style="font-family:'Helvetica';font-size:100.04px;fill:#000000" text-anchor="middle">0</text>
	<line x1="1751.09" y1="2459.20" x2="1751.09" y2="2499.16" style="stroke:#000000;stroke-width:5.76"/>
	<text x="1751.09" y="2589.10" style="font-family:'Helvetica';font-size:100.04px;fill:#000000" text-anchor="middle">10</text>
	<line x1="2953.40" y1="2459.20" x2="2953.40" y2="2499.16" style="stroke:#000000;stroke-width:5.76"/>
	<text x="2953.40" y="2589.10" style="font-family:'Helvetica';font-size:100.04px;fill:#000000" text-anchor="middle">20</text>
	<line x1="4155.84" y1="2459.20" x2="4155.84" y2="2499.16" style="stroke:#000000;stroke-width:5.76"/>
	<text x="4155.84" y="2589.10" style="font-family:'Helvetica';font-size:100.04px;fill:#000000" text-anchor="middle">30</text>
	<text x="2352.24" y="2729.09" style="font-family:'Helvetica';font-size:100.04px;fill:#000000" text-anchor="middle">Rezago</text>
	<text x="2352.24" y="216.06" style="font-family:'Helvetica';font-size:140.00px;fill:#000000" text-anchor="middle">Autocorrelación parcial del ciclo con tendencia estocástica</text>
</svg>
