<?xml version="1.0" encoding="UTF-8" standalone="no"?>
<!-- This is a Stata 18.0 generated SVG file (http://www.stata.com) -->

<svg version="1.1" width="6.000in" height="4.000in" viewBox="0 0 4320 2880" xmlns="http://www.w3.org/2000/svg" xmlns:xlink="http://www.w3.org/1999/xlink">
	<desc>Stata Graph - Graph</desc>
	<rect x="0" y="0" width="4320" height="2880" style="fill:#FFFFFF;stroke:none"/>
	<rect x="0.00" y="0.00" width="4320.00" height="2880.00" style="fill:#FFFFFF"/>
	<rect x="2.88" y="2.88" width="4314.24" height="2874.24" style="fill:none;stroke:#FFFFFF;stroke-width:5.76"/>
	<rect x="397.17" y="275.40" width="3821.98" height="1928.24" style="fill:#FFFFFF"/>
	<rect x="400.05" y="278.28" width="3816.23" height="1922.48" style="fill:none;stroke:#000000;stroke-width:5.76"/>
	<path d=" M472.50 2072.82 L484.52 2099.69 L496.53 2112.24 L508.68 2065.13 L520.70 2040.69 L532.71 2027.06 L544.73 2027.87 L556.74 2045.55 L568.76 2095.77 L580.91 2140.46 L592.92 2120.88 L604.93 2138.97 L616.95 2080.92 L628.97 2055.14 L640.98 2034.62 L653.13 2003.16 L665.15 2037.05 L677.16 2033.13 L689.18 2057.57 L701.19 2083.76 L713.21 2078.36 L725.22 2102.93 L737.37 2089.83 L749.39 2071.61 L761.40 2067.42 L773.42 2067.69 L785.43 2075.79 L797.45 2099.55 L809.60 2103.87 L821.61 2106.84 L833.63 2095.50 L845.64 2085.51 L857.66 2060.40 L869.67 2045.69 L881.82 2043.53 L893.84 2038.94 L905.85 2049.20 L917.87 2053.25 L929.88 2057.43 L941.90 2061.62 L954.05 2067.56 L966.06 2069.18 L978.08 2064.05 L990.09 2088.75 L1002.11 2110.49 L1014.12 2118.32 L1026.14 2099.01 L1038.29 2077.55 L1050.30 2064.72 L1062.32 2045.69 L1074.33 2067.83 L1086.35 2061.48 L1098.36 2036.91 L1110.51 2068.37 L1122.53 2072.55 L1134.54 2110.22 L1146.56 2106.71 L1158.57 2091.32 L1170.59 2074.04 L1182.73 2074.04 L1194.75 2063.78 L1206.77 2071.07 L1218.78 2071.47 L1230.80 2085.38 L1242.81 2076.06 L1254.96 2077.14 L1266.97 2074.04 L1278.99 2076.33 L1291.01 2071.34 L1303.02 2078.22 L1315.04 2077.14 L1327.05 2079.98 L1339.20 2059.05 L1351.22 2063.64 L1363.23 2058.78 L1375.25 2061.62 L1387.26 2043.93 L1399.28 2052.57 L1411.43 2058.65 L1423.44 2060.67 L1435.46 2071.34 L1447.47 2085.24 L1459.49 2080.11 L1471.50 2076.87 L1483.65 2073.90 L1495.67 2065.80 L1507.68 2076.47 L1519.70 2075.93 L1531.71 2061.89 L1543.73 2066.07 L1555.88 2062.83 L1567.89 2079.57 L1579.91 2090.78 L1591.92 2092.80 L1603.94 2090.91 L1615.95 2109.41 L1627.97 2080.52 L1640.12 2075.39 L1652.13 2074.85 L1664.15 2085.65 L1676.16 2070.12 L1688.18 2057.03 L1700.19 2055.68 L1712.34 2056.35 L1724.36 2042.31 L1736.37 2032.32 L1748.39 2044.88 L1760.40 2036.51 L1772.42 2055.14 L1784.57 2057.84 L1796.58 2074.71 L1808.60 2074.71 L1820.61 2127.36 L1832.63 2138.30 L1844.64 2119.26 L1856.79 2114.13 L1868.81 2090.78 L1880.82 2083.08 L1892.84 2085.78 L1904.85 2087.67 L1916.87 2078.63 L1928.88 2062.70 L1941.03 2052.44 L1953.05 2063.64 L1965.06 2061.75 L1977.08 2047.04 L1989.09 2042.04 L2001.11 2038.26 L2013.26 2040.29 L2025.27 2042.58 L2037.29 2049.33 L2049.30 2056.08 L2061.32 2059.46 L2073.33 2086.32 L2085.48 2107.11 L2097.50 2082.54 L2109.51 2058.11 L2121.53 2071.61 L2133.54 2057.16 L2145.55 2069.18 L2157.71 2099.69 L2169.72 2102.12 L2181.74 2107.25 L2193.75 2133.44 L2205.77 2126.82 L2217.78 2106.03 L2229.80 2092.40 L2241.95 2069.72 L2253.96 2047.31 L2265.98 2042.31 L2277.99 2040.29 L2290.01 2048.12 L2302.02 2059.86 L2314.17 2058.65 L2326.19 2064.05 L2338.20 2056.76 L2350.22 2059.73 L2362.23 2067.56 L2374.25 2077.82 L2386.40 2079.17 L2398.41 2073.50 L2410.43 2075.12 L2422.44 2076.74 L2434.46 2059.19 L2446.47 2074.58 L2458.49 2068.91 L2470.64 2068.23 L2482.65 2064.59 L2494.67 2055.68 L2506.68 2058.92 L2518.70 2062.02 L2530.71 2064.59 L2542.86 2062.16 L2554.88 2062.56 L2566.89 2068.77 L2578.91 2086.19 L2590.92 2096.99 L2602.94 2098.34 L2615.09 2094.42 L2627.10 2086.32 L2639.12 2094.15 L2651.13 2081.06 L2663.15 2082.00 L2675.16 2076.74 L2687.31 2073.90 L2699.33 2076.47 L2711.34 2082.95 L2723.36 2072.96 L2735.37 2067.15 L2747.39 2058.38 L2759.40 2068.50 L2771.55 2062.43 L2783.57 2065.13 L2795.58 2076.87 L2807.60 2084.57 L2819.61 2083.35 L2831.63 2084.84 L2843.78 2077.41 L2855.79 2070.80 L2867.81 2077.28 L2879.82 2077.68 L2891.84 2066.48 L2903.85 2068.37 L2916.00 2069.99 L2928.02 2063.10 L2940.03 2070.26 L2952.05 2067.96 L2964.06 2064.18 L2976.08 2060.94 L2988.23 2064.99 L3000.24 2061.08 L3012.26 2057.03 L3024.27 2062.43 L3036.29 2048.79 L3048.30 2054.19 L3060.32 2056.08 L3072.47 2071.74 L3084.48 2073.36 L3096.50 2081.73 L3108.51 2098.34 L3120.53 2091.86 L3132.54 2089.16 L3144.69 2091.59 L3156.71 2093.88 L3168.72 2093.75 L3180.74 2094.15 L3192.75 2086.19 L3204.77 2078.76 L3216.92 2080.52 L3228.93 2071.34 L3240.95 2068.77 L3252.96 2064.59 L3264.98 2057.97 L3276.99 2062.97 L3289.14 2060.00 L3301.16 2051.22 L3313.17 2047.04 L3325.19 2048.12 L3337.20 2048.25 L3349.22 2052.30 L3361.23 2052.44 L3373.38 2047.58 L3385.40 2048.52 L3397.41 2049.33 L3409.43 2054.60 L3421.44 2056.76 L3433.46 2060.00 L3445.61 2087.00 L3457.62 2119.80 L3469.64 2135.60 L3481.65 2135.46 L3493.67 2109.27 L3505.68 2103.47 L3517.83 2089.56 L3529.85 2078.49 L3541.86 2081.46 L3553.88 2089.56 L3565.89 2081.06 L3577.91 2083.35 L3590.06 2065.80 L3602.07 2063.78 L3614.09 2061.75 L3626.10 2065.53 L3638.12 2072.82 L3650.13 2066.34 L3662.15 2067.42 L3674.30 2060.67 L3686.31 2062.70 L3698.33 2070.12 L3710.34 2063.10 L3722.36 2060.81 L3734.37 2064.05 L3746.52 2058.24 L3758.54 2060.81 L3770.55 2063.78 L3782.57 2068.91 L3794.58 2073.50 L3806.60 2077.82 L3818.75 2079.44 L3830.76 2074.44 L3842.78 2077.95 L3854.79 2076.06 L3866.81 2073.77 L3878.82 2070.80 L3890.97 2068.77 L3902.99 2070.93 L3915.00 2064.45 L3927.02 2066.21 L3939.03 2066.07 L3951.05 2065.80 L3963.06 2064.59 L3975.21 2069.85 L3987.23 2079.17 L3999.24 2126.01 L4011.26 2078.22 L4023.27 2071.07 L4035.29 2075.52 L4047.44 2081.60 L4059.45 2072.69 L4071.47 2056.89 L4083.48 2054.60 L4095.50 2064.59 L4107.51 2072.28 L4119.66 2071.74 L4131.68 2080.38 L4143.69 2078.63" stroke-linejoin="round" style="fill:none;stroke:#1A85FF;stroke-width:8.64"/>
	<path d=" M472.50 504.64 L484.52 531.10 L496.53 543.25 L508.68 495.59 L520.70 470.75 L532.71 456.85 L544.73 457.39 L556.74 475.07 L568.76 525.29 L580.91 569.98 L592.92 550.40 L604.93 568.49 L616.95 510.44 L628.97 484.52 L640.98 464.27 L653.13 433.22 L665.15 467.92 L677.16 464.81 L689.18 490.33 L701.19 517.87 L713.21 513.95 L725.22 540.14 L737.37 528.67 L749.39 512.06 L761.40 509.50 L773.42 511.39 L785.43 520.97 L797.45 546.22 L809.60 551.89 L821.61 556.21 L833.63 546.08 L845.64 537.31 L857.66 513.41 L869.67 499.91 L881.82 499.10 L893.84 496.00 L905.85 508.01 L917.87 513.95 L929.88 520.16 L941.90 526.37 L954.05 534.61 L966.06 538.52 L978.08 535.55 L990.09 562.28 L1002.11 586.04 L1014.12 595.63 L1026.14 577.94 L1038.29 557.96 L1050.30 546.22 L1062.32 528.26 L1074.33 551.21 L1086.35 545.54 L1098.36 521.51 L1110.51 553.51 L1122.53 557.96 L1134.54 595.49 L1146.56 591.85 L1158.57 575.92 L1170.59 557.96 L1182.73 557.02 L1194.75 545.54 L1206.77 551.48 L1218.78 550.27 L1230.80 562.69 L1242.81 551.48 L1254.96 550.67 L1266.97 545.68 L1278.99 545.95 L1291.01 539.06 L1303.02 543.79 L1315.04 540.82 L1327.05 541.90 L1339.20 519.35 L1351.22 522.32 L1363.23 516.25 L1375.25 518.14 L1387.26 499.64 L1399.28 507.74 L1411.43 513.68 L1423.44 515.71 L1435.46 526.64 L1447.47 541.09 L1459.49 536.63 L1471.50 534.20 L1483.65 532.31 L1495.67 525.29 L1507.68 537.04 L1519.70 537.71 L1531.71 525.02 L1543.73 530.56 L1555.88 528.67 L1567.89 546.76 L1579.91 559.31 L1591.92 562.55 L1603.94 561.74 L1615.95 581.32 L1627.97 553.37 L1640.12 549.05 L1652.13 549.46 L1664.15 561.20 L1676.16 546.76 L1688.18 534.61 L1700.19 534.47 L1712.34 536.50 L1724.36 523.94 L1736.37 515.71 L1748.39 530.29 L1760.40 524.08 L1772.42 545.00 L1784.57 550.13 L1796.58 569.44 L1808.60 571.60 L1820.61 626.27 L1832.63 638.96 L1844.64 621.28 L1856.79 617.23 L1868.81 594.55 L1880.82 587.26 L1892.84 590.23 L1904.85 592.12 L1916.87 582.94 L1928.88 566.87 L1941.03 556.61 L1953.05 567.95 L1965.06 566.33 L1977.08 552.16 L1989.09 547.84 L2001.11 545.14 L2013.26 548.65 L2025.27 552.97 L2037.29 561.88 L2049.30 571.06 L2061.32 577.00 L2073.33 606.70 L2085.48 630.46 L2097.50 608.72 L2109.51 587.26 L2121.53 603.46 L2133.54 591.71 L2145.55 606.02 L2157.71 638.83 L2169.72 643.15 L2181.74 649.90 L2193.75 677.17 L2205.77 671.37 L2217.78 650.85 L2229.80 637.48 L2241.95 614.66 L2253.96 592.12 L2265.98 586.99 L2277.99 584.83 L2290.01 592.66 L2302.02 604.81 L2314.17 604.13 L2326.19 610.21 L2338.20 603.86 L2350.22 608.05 L2362.23 617.23 L2374.25 629.24 L2386.40 632.48 L2398.41 628.97 L2410.43 632.89 L2422.44 637.07 L2434.46 622.09 L2446.47 640.45 L2458.49 637.88 L2470.64 640.45 L2482.65 640.18 L2494.67 634.64 L2506.68 641.67 L2518.70 648.42 L2530.71 654.76 L2542.86 656.11 L2554.88 660.16 L2566.89 670.02 L2578.91 690.94 L2590.92 704.85 L2602.94 709.03 L2615.09 707.68 L2627.10 701.74 L2639.12 711.33 L2651.13 699.72 L2663.15 701.61 L2675.16 697.15 L2687.31 694.72 L2699.33 697.29 L2711.34 703.50 L2723.36 692.97 L2735.37 686.35 L2747.39 676.77 L2759.40 685.81 L2771.55 678.39 L2783.57 679.74 L2795.58 690.00 L2807.60 696.07 L2819.61 693.24 L2831.63 692.97 L2843.78 683.65 L2855.79 675.15 L2867.81 679.74 L2879.82 678.25 L2891.84 665.43 L2903.85 665.70 L2916.00 665.83 L2928.02 657.73 L2940.03 663.94 L2952.05 660.84 L2964.06 656.52 L2976.08 653.01 L2988.23 657.19 L3000.24 653.68 L3012.26 650.44 L3024.27 656.79 L3036.29 644.50 L3048.30 651.79 L3060.32 655.44 L3072.47 673.39 L3084.48 677.31 L3096.50 687.97 L3108.51 707.14 L3120.53 702.96 L3132.54 702.69 L3144.69 707.55 L3156.71 712.14 L3168.72 714.30 L3180.74 716.73 L3192.75 710.92 L3204.77 705.66 L3216.92 709.57 L3228.93 702.82 L3240.95 702.69 L3252.96 701.20 L3264.98 697.56 L3276.99 705.79 L3289.14 706.47 L3301.16 701.88 L3313.17 702.15 L3325.19 708.22 L3337.20 713.89 L3349.22 723.75 L3361.23 730.09 L3373.38 731.85 L3385.40 739.68 L3397.41 747.37 L3409.43 759.93 L3421.44 769.38 L3433.46 779.64 L3445.61 813.52 L3457.62 852.94 L3469.64 874.68 L3481.65 880.08 L3493.67 858.88 L3505.68 857.26 L3517.83 847.00 L3529.85 838.90 L3541.86 844.30 L3553.88 854.29 L3565.89 847.27 L3577.91 850.51 L3590.06 833.64 L3602.07 831.88 L3614.09 829.99 L3626.10 833.91 L3638.12 840.93 L3650.13 834.18 L3662.15 834.99 L3674.30 828.10 L3686.31 829.99 L3698.33 837.42 L3710.34 830.40 L3722.36 828.51 L3734.37 832.15 L3746.52 826.89 L3758.54 830.40 L3770.55 834.31 L3782.57 840.66 L3794.58 846.60 L3806.60 852.40 L3818.75 855.78 L3830.76 852.67 L3842.78 858.07 L3854.79 858.21 L3866.81 858.07 L3878.82 857.40 L3890.97 857.67 L3902.99 862.39 L3915.00 858.48 L3927.02 862.93 L3939.03 865.50 L3951.05 868.20 L3963.06 869.82 L3975.21 877.92 L3987.23 890.20 L3999.24 940.02 L4011.26 894.93 L4023.27 890.74 L4035.29 897.90 L4047.44 906.67 L4059.45 900.60 L4071.47 887.50 L4083.48 887.91 L4095.50 900.73 L4107.51 911.26 L4119.66 913.56 L4131.68 925.17 L4143.69 926.25" stroke-linejoin="round" style="fill:none;stroke:#D41159;stroke-width:8.64"/>
	<path d=" M460.49 2072.55 L472.50 2072.55 L484.52 2072.55 L496.53 2072.55 L508.68 2072.55 L520.70 2072.55 L532.71 2072.55 L544.73 2072.55 L556.74 2072.55 L568.76 2072.55 L580.91 2072.55 L592.92 2072.55 L604.93 2072.55 L616.95 2072.55 L628.97 2072.55 L640.98 2072.55 L653.13 2072.55 L665.15 2072.55 L677.16 2072.55 L689.18 2072.55 L701.19 2072.55 L713.21 2072.55 L725.22 2072.55 L737.37 2072.55 L749.39 2072.55 L761.40 2072.55 L773.42 2072.55 L785.43 2072.55 L797.45 2072.55 L809.60 2072.55 L821.61 2072.55 L833.63 2072.55 L845.64 2072.55 L857.66 2072.55 L869.67 2072.55 L881.82 2072.55 L893.84 2072.55 L905.85 2072.55 L917.87 2072.55 L929.88 2072.55 L941.90 2072.55 L954.05 2072.55 L966.06 2072.55 L978.08 2072.55 L990.09 2072.55 L1002.11 2072.55 L1014.12 2072.55 L1026.14 2072.55 L1038.29 2072.55 L1050.30 2072.55 L1062.32 2072.55 L1074.33 2072.55 L1086.35 2072.55 L1098.36 2072.55 L1110.51 2072.55 L1122.53 2072.55 L1134.54 2072.55 L1146.56 2072.55 L1158.57 2072.55 L1170.59 2072.55 L1182.73 2072.55 L1194.75 2072.55 L1206.77 2072.55 L1218.78 2072.55 L1230.80 2072.55 L1242.81 2072.55 L1254.96 2072.55 L1266.97 2072.55 L1278.99 2072.55 L1291.01 2072.55 L1303.02 2072.55 L1315.04 2072.55 L1327.05 2072.55 L1339.20 2072.55 L1351.22 2072.55 L1363.23 2072.55 L1375.25 2072.55 L1387.26 2072.55 L1399.28 2072.55 L1411.43 2072.55 L1423.44 2072.55 L1435.46 2072.55 L1447.47 2072.55 L1459.49 2072.55 L1471.50 2072.55 L1483.65 2072.55 L1495.67 2072.55 L1507.68 2072.55 L1519.70 2072.55 L1531.71 2072.55 L1543.73 2072.55 L1555.88 2072.55 L1567.89 2072.55 L1579.91 2072.55 L1591.92 2072.55 L1603.94 2072.55 L1615.95 2072.55 L1627.97 2072.55 L1640.12 2072.55 L1652.13 2072.55 L1664.15 2072.55 L1676.16 2072.55 L1688.18 2072.55 L1700.19 2072.55 L1712.34 2072.55 L1724.36 2072.55 L1736.37 2072.55 L1748.39 2072.55 L1760.40 2072.55 L1772.42 2072.55 L1784.57 2072.55 L1796.58 2072.55 L1808.60 2072.55 L1820.61 2072.55 L1832.63 2072.55 L1844.64 2072.55 L1856.79 2072.55 L1868.81 2072.55 L1880.82 2072.55 L1892.84 2072.55 L1904.85 2072.55 L1916.87 2072.55 L1928.88 2072.55 L1941.03 2072.55 L1953.05 2072.55 L1965.06 2072.55 L1977.08 2072.55 L1989.09 2072.55 L2001.11 2072.55 L2013.26 2072.55 L2025.27 2072.55 L2037.29 2072.55 L2049.30 2072.55 L2061.32 2072.55 L2073.33 2072.55 L2085.48 2072.55 L2097.50 2072.55 L2109.51 2072.55 L2121.53 2072.55 L2133.54 2072.55 L2145.55 2072.55 L2157.71 2072.55 L2169.72 2072.55 L2181.74 2072.55 L2193.75 2072.55 L2205.77 2072.55 L2217.78 2072.55 L2229.80 2072.55 L2241.95 2072.55 L2253.96 2072.55 L2265.98 2072.55 L2277.99 2072.55 L2290.01 2072.55 L2302.02 2072.55 L2314.17 2072.55 L2326.19 2072.55 L2338.20 2072.55 L2350.22 2072.55 L2362.23 2072.55 L2374.25 2072.55 L2386.40 2072.55 L2398.41 2072.55 L2410.43 2072.55 L2422.44 2072.55 L2434.46 2072.55 L2446.47 2072.55 L2458.49 2072.55 L2470.64 2072.55 L2482.65 2072.55 L2494.67 2072.55 L2506.68 2072.55 L2518.70 2072.55 L2530.71 2072.55 L2542.86 2072.55 L2554.88 2072.55 L2566.89 2072.55 L2578.91 2072.55 L2590.92 2072.55 L2602.94 2072.55 L2615.09 2072.55 L2627.10 2072.55 L2639.12 2072.55 L2651.13 2072.55 L2663.15 2072.55 L2675.16 2072.55 L2687.31 2072.55 L2699.33 2072.55 L2711.34 2072.55 L2723.36 2072.55 L2735.37 2072.55 L2747.39 2072.55 L2759.40 2072.55 L2771.55 2072.55 L2783.57 2072.55 L2795.58 2072.55 L2807.60 2072.55 L2819.61 2072.55 L2831.63 2072.55 L2843.78 2072.55 L2855.79 2072.55 L2867.81 2072.55 L2879.82 2072.55 L2891.84 2072.55 L2903.85 2072.55 L2916.00 2072.55 L2928.02 2072.55 L2940.03 2072.55 L2952.05 2072.55 L2964.06 2072.55 L2976.08 2072.55 L2988.23 2072.55 L3000.24 2072.55 L3012.26 2072.55 L3024.27 2072.55 L3036.29 2072.55 L3048.30 2072.55 L3060.32 2072.55 L3072.47 2072.55 L3084.48 2072.55 L3096.50 2072.55 L3108.51 2072.55 L3120.53 2072.55 L3132.54 2072.55 L3144.69 2072.55 L3156.71 2072.55 L3168.72 2072.55 L3180.74 2072.55 L3192.75 2072.55 L3204.77 2072.55 L3216.92 2072.55 L3228.93 2072.55 L3240.95 2072.55 L3252.96 2072.55 L3264.98 2072.55 L3276.99 2072.55 L3289.14 2072.55 L3301.16 2072.55 L3313.17 2072.55 L3325.19 2072.55 L3337.20 2072.55 L3349.22 2072.55 L3361.23 2072.55 L3373.38 2072.55 L3385.40 2072.55 L3397.41 2072.55 L3409.43 2072.55 L3421.44 2072.55 L3433.46 2072.55 L3445.61 2072.55 L3457.62 2072.55 L3469.64 2072.55 L3481.65 2072.55 L3493.67 2072.55 L3505.68 2072.55 L3517.83 2072.55 L3529.85 2072.55 L3541.86 2072.55 L3553.88 2072.55 L3565.89 2072.55 L3577.91 2072.55 L3590.06 2072.55 L3602.07 2072.55 L3614.09 2072.55 L3626.10 2072.55 L3638.12 2072.55 L3650.13 2072.55 L3662.15 2072.55 L3674.30 2072.55 L3686.31 2072.55 L3698.33 2072.55 L3710.34 2072.55 L3722.36 2072.55 L3734.37 2072.55 L3746.52 2072.55 L3758.54 2072.55 L3770.55 2072.55 L3782.57 2072.55 L3794.58 2072.55 L3806.60 2072.55 L3818.75 2072.55 L3830.76 2072.55 L3842.78 2072.55 L3854.79 2072.55 L3866.81 2072.55 L3878.82 2072.55 L3890.97 2072.55 L3902.99 2072.55 L3915.00 2072.55 L3927.02 2072.55 L3939.03 2072.55 L3951.05 2072.55 L3963.06 2072.55 L3975.21 2072.55 L3987.23 2072.55 L3999.24 2072.55 L4011.26 2072.55 L4023.27 2072.55 L4035.29 2072.55 L4047.44 2072.55 L4059.45 2072.55 L4071.47 2072.55 L4083.48 2072.55 L4095.50 2072.55 L4107.51 2072.55 L4119.66 2072.55 L4131.68 2072.55 L4143.69 2072.55 L4155.71 2072.55" stroke-linejoin="round" style="fill:none;stroke:#00BF7F;stroke-width:8.64"/>
	<line x1="397.17" y1="2203.64" x2="397.17" y2="275.40" style="stroke:#000000;stroke-width:5.76"/>
	<line x1="397.17" y1="2072.55" x2="357.21" y2="2072.55" style="stroke:#000000;stroke-width:5.76"/>
	<text x="337.23" y="2107.60" style="font-family:'Helvetica';font-size:100.04px;fill:#000000" text-anchor="end">0</text>
	<line x1="397.17" y1="1494.61" x2="357.21" y2="1494.61" style="stroke:#000000;stroke-width:5.76"/>
	<text x="337.23" y="1529.65" style="font-family:'Helvetica';font-size:100.04px;fill:#000000" text-anchor="end">2</text>
	<line x1="397.17" y1="916.66" x2="357.21" y2="916.66" style="stroke:#000000;stroke-width:5.76"/>
	<text x="337.23" y="951.71" style="font-family:'Helvetica';font-size:100.04px;fill:#000000" text-anchor="end">4</text>
	<line x1="397.17" y1="338.72" x2="357.21" y2="338.72" style="stroke:#000000;stroke-width:5.76"/>
	<text x="337.23" y="373.77" style="font-family:'Helvetica';font-size:100.04px;fill:#000000" text-anchor="end">6</text>
	<text x="190.78" y="1239.59" style="font-family:'Helvetica';font-size:100.04px;fill:#000000" transform="rotate(-90 190.78,1239.59)" text-anchor="middle">Ciclo Estimado para la Inversión privada doméstica</text>
	<line x1="397.17" y1="2203.64" x2="4219.16" y2="2203.64" style="stroke:#000000;stroke-width:5.76"/>
	<line x1="617.09" y1="2203.64" x2="617.09" y2="2243.74" style="stroke:#000000;stroke-width:5.76"/>
	<text x="617.09" y="2333.67" style="font-family:'Helvetica';font-size:100.04px;fill:#000000" text-anchor="middle">1950q1</text>
	<line x1="1098.49" y1="2203.64" x2="1098.49" y2="2243.74" style="stroke:#000000;stroke-width:5.76"/>
	<text x="1098.49" y="2333.67" style="font-family:'Helvetica';font-size:100.04px;fill:#000000" text-anchor="middle">1960q1</text>
	<line x1="1579.91" y1="2203.64" x2="1579.91" y2="2243.74" style="stroke:#000000;stroke-width:5.76"/>
	<text x="1579.91" y="2333.67" style="font-family:'Helvetica';font-size:100.04px;fill:#000000" text-anchor="middle">1970q1</text>
	<line x1="2061.45" y1="2203.64" x2="2061.45" y2="2243.74" style="stroke:#000000;stroke-width:5.76"/>
	<text x="2061.45" y="2333.67" style="font-family:'Helvetica';font-size:100.04px;fill:#000000" text-anchor="middle">1980q1</text>
	<line x1="2542.86" y1="2203.64" x2="2542.86" y2="2243.74" style="stroke:#000000;stroke-width:5.76"/>
	<text x="2542.86" y="2333.67" style="font-family:'Helvetica';font-size:100.04px;fill:#000000" text-anchor="middle">1990q1</text>
	<line x1="3024.41" y1="2203.64" x2="3024.41" y2="2243.74" style="stroke:#000000;stroke-width:5.76"/>
	<text x="3024.41" y="2333.67" style="font-family:'Helvetica';font-size:100.04px;fill:#000000" text-anchor="middle">2000q1</text>
	<line x1="3505.82" y1="2203.64" x2="3505.82" y2="2243.74" style="stroke:#000000;stroke-width:5.76"/>
	<text x="3505.82" y="2333.67" style="font-family:'Helvetica';font-size:100.04px;fill:#000000" text-anchor="middle">2010q1</text>
	<line x1="3987.23" y1="2203.64" x2="3987.23" y2="2243.74" style="stroke:#000000;stroke-width:5.76"/>
	<text x="3987.23" y="2333.67" style="font-family:'Helvetica';font-size:100.04px;fill:#000000" text-anchor="middle">2020q1</text>
	<text x="2308.23" y="2473.67" style="font-family:'Helvetica';font-size:100.04px;fill:#000000" text-anchor="middle">Trimestre</text>
	<rect x="431.73" y="2558.29" width="3752.87" height="186.30" style="fill:#FFFFFF"/>
	<rect x="434.61" y="2561.17" width="3747.11" height="180.54" style="fill:none;stroke:#FFFFFF;stroke-width:5.76"/>
	<line x1="474.93" y1="2651.44" x2="696.74" y2="2651.44" style="stroke:#1A85FF;stroke-width:8.64"/>
	<line x1="2315.11" y1="2651.44" x2="2536.92" y2="2651.44" style="stroke:#D41159;stroke-width:8.64"/>
	<text x="754.38" y="2686.49" style="font-family:'Helvetica';font-size:100.04px;fill:#000000">Ciclo con Tendencia estocástica</text>
	<text x="2594.70" y="2686.49" style="font-family:'Helvetica';font-size:100.04px;fill:#000000">Ciclo con Tendencia determinística</text>
	<text x="2308.09" y="216.06" style="font-family:'Helvetica';font-size:140.00px;fill:#000000" text-anchor="middle">Comparación de cilos estimados para la Inversión, USA</text>
</svg>
