<?xml version="1.0" encoding="UTF-8" standalone="no"?>
<!-- This is a Stata 18.0 generated SVG file (http://www.stata.com) -->

<svg version="1.1" width="6.000in" height="4.000in" viewBox="0 0 4320 2880" xmlns="http://www.w3.org/2000/svg" xmlns:xlink="http://www.w3.org/1999/xlink">
	<desc>Stata Graph - Graph</desc>
	<rect x="0" y="0" width="4320" height="2880" style="fill:#FFFFFF;stroke:none"/>
	<rect x="0.00" y="0.00" width="4320.00" height="2880.00" style="fill:#FFFFFF"/>
	<rect x="2.88" y="2.88" width="4314.24" height="2874.24" style="fill:none;stroke:#FFFFFF;stroke-width:5.76"/>
	<rect x="387.99" y="275.40" width="3831.17" height="2183.79" style="fill:#FFFFFF"/>
	<rect x="390.87" y="278.28" width="3825.41" height="2178.03" style="fill:none;stroke:#000000;stroke-width:5.76"/>
	<path d=" M451.31 2176.77 L463.46 2217.81 L475.61 2233.20 L487.76 2142.21 L499.91 2091.99 L512.05 2061.08 L524.21 2055.81 L536.36 2081.06 L548.51 2164.22 L560.66 2237.52 L572.80 2196.62 L584.96 2222.54 L597.11 2113.05 L609.26 2060.67 L621.41 2018.28 L633.55 1956.72 L645.57 2012.21 L657.72 2000.46 L669.87 2039.75 L682.02 2082.41 L694.17 2069.18 L706.32 2109.54 L718.47 2082.68 L730.62 2046.90 L742.77 2035.97 L754.92 2033.00 L767.07 2043.93 L779.22 2082.54 L791.37 2086.19 L803.52 2087.40 L815.67 2063.10 L827.82 2041.10 L839.97 1992.09 L852.12 1961.72 L864.27 1953.89 L876.42 1942.14 L888.57 1956.99 L900.72 1961.04 L912.87 1965.77 L925.02 1970.49 L937.17 1978.59 L949.32 1979.13 L961.47 1967.39 L973.62 2008.56 L985.77 2044.47 L997.92 2055.00 L1010.07 2016.93 L1022.09 1974.81 L1034.23 1947.54 L1046.39 1909.06 L1058.54 1943.36 L1070.69 1926.89 L1082.84 1877.61 L1094.98 1927.97 L1107.14 1929.32 L1119.29 1989.66 L1131.44 1976.43 L1143.59 1941.60 L1155.73 1903.12 L1167.89 1894.75 L1180.04 1867.62 L1192.19 1871.80 L1204.34 1863.03 L1216.48 1878.42 L1228.64 1851.96 L1240.79 1843.86 L1252.94 1828.33 L1265.09 1822.12 L1277.23 1803.22 L1289.39 1804.98 L1301.54 1793.23 L1313.69 1788.24 L1325.84 1741.53 L1337.99 1740.18 L1350.14 1722.49 L1362.29 1719.12 L1374.44 1679.56 L1386.45 1687.26 L1398.60 1691.04 L1410.75 1688.07 L1422.90 1700.89 L1435.05 1719.79 L1447.20 1704.94 L1459.35 1694.01 L1471.50 1683.75 L1483.65 1664.44 L1495.80 1678.62 L1507.95 1673.08 L1520.10 1643.65 L1532.25 1646.76 L1544.40 1636.36 L1556.55 1661.88 L1568.70 1677.40 L1580.85 1676.32 L1593.00 1667.95 L1605.15 1696.03 L1617.30 1639.33 L1629.45 1624.89 L1641.60 1618.68 L1653.75 1632.72 L1665.90 1599.91 L1678.05 1571.56 L1690.20 1564.27 L1702.35 1561.03 L1714.50 1531.73 L1726.65 1510.27 L1738.80 1529.30 L1750.95 1511.35 L1762.97 1541.59 L1775.12 1543.61 L1787.27 1571.02 L1799.42 1567.91 L1811.57 1658.23 L1823.72 1673.76 L1835.87 1635.28 L1848.02 1621.24 L1860.17 1573.85 L1872.32 1553.87 L1884.47 1552.12 L1896.62 1548.20 L1908.77 1524.98 L1920.92 1489.34 L1933.07 1463.96 L1945.22 1477.06 L1957.37 1467.07 L1969.52 1434.67 L1981.67 1419.95 L1993.82 1408.21 L2005.97 1407.40 L2018.12 1407.80 L2030.27 1416.58 L2042.42 1425.76 L2054.57 1429.27 L2066.72 1475.03 L2078.86 1510.13 L2091.02 1464.23 L2103.17 1418.74 L2115.32 1440.47 L2127.33 1412.26 L2139.48 1430.75 L2151.63 1481.78 L2163.78 1482.19 L2175.93 1486.91 L2188.08 1528.36 L2200.23 1510.81 L2212.38 1467.20 L2224.53 1436.02 L2236.68 1388.23 L2248.83 1340.71 L2260.98 1324.24 L2273.13 1313.30 L2285.28 1320.05 L2297.43 1334.36 L2309.58 1325.59 L2321.73 1329.10 L2333.88 1310.47 L2346.03 1310.74 L2358.18 1319.78 L2370.33 1333.82 L2382.48 1332.20 L2394.63 1318.57 L2406.78 1318.30 L2418.93 1318.16 L2431.08 1284.28 L2443.23 1309.52 L2455.38 1297.51 L2467.53 1294.67 L2479.68 1286.84 L2491.83 1269.69 L2503.84 1274.69 L2516.00 1279.28 L2528.15 1283.20 L2540.30 1278.06 L2552.45 1277.93 L2564.59 1287.92 L2576.75 1317.62 L2588.90 1334.90 L2601.05 1335.04 L2613.20 1324.91 L2625.35 1306.96 L2637.50 1316.54 L2649.65 1288.33 L2661.80 1284.14 L2673.95 1268.75 L2686.10 1256.73 L2698.25 1253.76 L2710.40 1257.27 L2722.55 1230.95 L2734.70 1211.78 L2746.85 1187.07 L2759.00 1195.58 L2771.15 1174.79 L2783.30 1169.39 L2795.45 1180.19 L2807.60 1183.29 L2819.75 1170.60 L2831.90 1162.50 L2844.05 1138.34 L2856.20 1115.52 L2868.21 1116.20 L2880.36 1105.94 L2892.51 1075.29 L2904.66 1068.14 L2916.81 1060.71 L2928.96 1038.57 L2941.11 1041.81 L2953.26 1028.58 L2965.41 1013.19 L2977.56 999.29 L2989.71 999.02 L3001.86 984.98 L3014.01 971.48 L3026.16 975.12 L3038.31 945.55 L3050.46 950.55 L3062.61 949.47 L3074.76 973.37 L3086.91 972.56 L3099.06 983.90 L3111.21 1010.09 L3123.36 994.97 L3135.51 986.73 L3147.66 987.41 L3159.81 987.81 L3171.96 983.63 L3184.11 980.39 L3196.26 962.03 L3208.41 944.74 L3220.56 943.93 L3232.71 923.82 L3244.73 915.85 L3256.88 905.19 L3269.03 891.01 L3281.18 897.63 L3293.33 891.01 L3305.48 874.81 L3317.63 867.39 L3329.78 870.36 L3341.93 872.25 L3354.08 881.97 L3366.23 885.21 L3378.38 880.35 L3390.53 886.29 L3402.68 892.23 L3414.83 906.40 L3426.98 915.18 L3439.13 925.57 L3451.28 977.82 L3463.43 1039.79 L3475.58 1070.70 L3487.73 1072.19 L3499.88 1026.29 L3512.03 1015.35 L3524.18 989.03 L3536.33 966.75 L3548.48 968.10 L3560.63 977.82 L3572.78 957.16 L3584.93 955.00 L3597.08 916.80 L3609.09 905.46 L3621.24 894.12 L3633.39 892.77 L3645.54 897.09 L3657.69 876.97 L3669.84 870.36 L3681.99 849.97 L3694.14 845.11 L3706.29 850.11 L3718.44 829.45 L3730.59 817.71 L3742.74 816.09 L3754.89 798.40 L3767.04 796.38 L3779.19 795.30 L3791.34 798.40 L3803.49 800.56 L3815.64 802.86 L3827.79 800.56 L3839.94 786.66 L3852.09 788.01 L3864.24 780.04 L3876.39 771.54 L3888.54 761.95 L3900.69 754.12 L3912.84 754.26 L3924.99 738.87 L3937.14 738.46 L3949.29 734.82 L3961.44 731.17 L3973.59 725.77 L3985.61 731.85 L3997.76 745.21 L4009.91 825.54 L4022.06 737.11 L4034.21 721.05 L4046.36 725.50 L4058.51 732.66 L4070.66 713.49 L4082.81 681.76 L4094.96 674.07 L4107.10 688.51 L4119.26 698.64 L4131.41 694.32 L4143.56 706.60 L4155.71 699.99" stroke-linejoin="round" style="fill:none;stroke:#0080FF;stroke-width:8.64"/>
	<line x1="387.99" y1="2459.20" x2="387.99" y2="275.40" style="stroke:#000000;stroke-width:5.76"/>
	<line x1="387.99" y1="2395.88" x2="348.03" y2="2395.88" style="stroke:#000000;stroke-width:5.76"/>
	<text x="328.05" y="2430.93" style="font-family:'Helvetica';font-size:100.04px;fill:#000000" text-anchor="end">5</text>
	<line x1="387.99" y1="1881.52" x2="348.03" y2="1881.52" style="stroke:#000000;stroke-width:5.76"/>
	<text x="328.05" y="1916.57" style="font-family:'Helvetica';font-size:100.04px;fill:#000000" text-anchor="end">6</text>
	<line x1="387.99" y1="1367.30" x2="348.03" y2="1367.30" style="stroke:#000000;stroke-width:5.76"/>
	<text x="328.05" y="1402.35" style="font-family:'Helvetica';font-size:100.04px;fill:#000000" text-anchor="end">7</text>
	<line x1="387.99" y1="852.94" x2="348.03" y2="852.94" style="stroke:#000000;stroke-width:5.76"/>
	<text x="328.05" y="887.99" style="font-family:'Helvetica';font-size:100.04px;fill:#000000" text-anchor="end">8</text>
	<line x1="387.99" y1="338.72" x2="348.03" y2="338.72" style="stroke:#000000;stroke-width:5.76"/>
	<text x="328.05" y="373.77" style="font-family:'Helvetica';font-size:100.04px;fill:#000000" text-anchor="end">9</text>
	<text x="190.78" y="1367.30" style="font-family:'Helvetica';font-size:100.04px;fill:#000000" transform="rotate(-90 190.78,1367.30)" text-anchor="middle">Logaritmo de la Inversión privada doméstica</text>
	<line x1="387.99" y1="2459.20" x2="4219.16" y2="2459.20" style="stroke:#000000;stroke-width:5.76"/>
	<line x1="597.11" y1="2459.20" x2="597.11" y2="2499.16" style="stroke:#000000;stroke-width:5.76"/>
	<text x="597.11" y="2589.10" style="font-family:'Helvetica';font-size:100.04px;fill:#000000" text-anchor="middle">1950q1</text>
	<line x1="1082.97" y1="2459.20" x2="1082.97" y2="2499.16" style="stroke:#000000;stroke-width:5.76"/>
	<text x="1082.97" y="2589.10" style="font-family:'Helvetica';font-size:100.04px;fill:#000000" text-anchor="middle">1960q1</text>
	<line x1="1568.70" y1="2459.20" x2="1568.70" y2="2499.16" style="stroke:#000000;stroke-width:5.76"/>
	<text x="1568.70" y="2589.10" style="font-family:'Helvetica';font-size:100.04px;fill:#000000" text-anchor="middle">1970q1</text>
	<line x1="2054.57" y1="2459.20" x2="2054.57" y2="2499.16" style="stroke:#000000;stroke-width:5.76"/>
	<text x="2054.57" y="2589.10" style="font-family:'Helvetica';font-size:100.04px;fill:#000000" text-anchor="middle">1980q1</text>
	<line x1="2540.43" y1="2459.20" x2="2540.43" y2="2499.16" style="stroke:#000000;stroke-width:5.76"/>
	<text x="2540.43" y="2589.10" style="font-family:'Helvetica';font-size:100.04px;fill:#000000" text-anchor="middle">1990q1</text>
	<line x1="3026.30" y1="2459.20" x2="3026.30" y2="2499.16" style="stroke:#000000;stroke-width:5.76"/>
	<text x="3026.30" y="2589.10" style="font-family:'Helvetica';font-size:100.04px;fill:#000000" text-anchor="middle">2000q1</text>
	<line x1="3512.03" y1="2459.20" x2="3512.03" y2="2499.16" style="stroke:#000000;stroke-width:5.76"/>
	<text x="3512.03" y="2589.10" style="font-family:'Helvetica';font-size:100.04px;fill:#000000" text-anchor="middle">2010q1</text>
	<line x1="3997.89" y1="2459.20" x2="3997.89" y2="2499.16" style="stroke:#000000;stroke-width:5.76"/>
	<text x="3997.89" y="2589.10" style="font-family:'Helvetica';font-size:100.04px;fill:#000000" text-anchor="middle">2020q1</text>
	<text x="2303.64" y="2729.09" style="font-family:'Helvetica';font-size:100.04px;fill:#000000" text-anchor="middle">Trimestre</text>
	<text x="2303.64" y="216.06" style="font-family:'Helvetica';font-size:140.00px;fill:#000000" text-anchor="middle">Evolución del logaritmo de la Inversión privada doméstica, USA</text>
</svg>
