<?xml version="1.0" encoding="UTF-8" standalone="no"?>
<!-- This is a Stata 18.0 generated SVG file (http://www.stata.com) -->

<svg version="1.1" width="6.000in" height="4.000in" viewBox="0 0 4320 2880" xmlns="http://www.w3.org/2000/svg" xmlns:xlink="http://www.w3.org/1999/xlink">
	<desc>Stata Graph - Graph</desc>
	<rect x="0" y="0" width="4320" height="2880" style="fill:#FFFFFF;stroke:none"/>
	<rect x="0.00" y="0.00" width="4320.00" height="2880.00" style="fill:#FFFFFF"/>
	<rect x="2.88" y="2.88" width="4314.24" height="2874.24" style="fill:none;stroke:#FFFFFF;stroke-width:5.76"/>
	<rect x="408.24" y="275.40" width="3810.92" height="1928.24" style="fill:#FFFFFF"/>
	<rect x="411.12" y="278.28" width="3805.16" height="1922.48" style="fill:none;stroke:#000000;stroke-width:5.76"/>
	<path d=" M471.56 1948.49 L483.71 1984.40 L495.72 1997.90 L507.87 1918.24 L519.89 1874.23 L532.04 1847.10 L544.05 1842.51 L556.07 1864.65 L568.22 1937.42 L580.23 2001.68 L592.38 1965.90 L604.40 1988.58 L616.54 1892.59 L628.56 1846.83 L640.71 1809.70 L652.73 1755.84 L664.88 1804.30 L676.89 1794.04 L689.04 1828.47 L701.06 1865.86 L713.21 1854.25 L725.22 1889.62 L737.37 1866.00 L749.39 1834.68 L761.54 1825.09 L773.55 1822.53 L785.70 1832.11 L797.72 1865.86 L809.73 1869.10 L821.88 1870.18 L833.90 1848.99 L846.05 1829.68 L858.06 1786.75 L870.21 1760.16 L882.23 1753.27 L894.38 1743.01 L906.39 1755.97 L918.54 1759.62 L930.56 1763.67 L942.71 1767.85 L954.72 1774.87 L966.87 1775.28 L978.89 1765.15 L991.04 1801.20 L1003.05 1832.65 L1015.20 1841.83 L1027.21 1808.49 L1039.23 1771.63 L1051.38 1747.74 L1063.40 1713.99 L1075.55 1744.09 L1087.56 1729.65 L1099.71 1686.45 L1111.72 1730.59 L1123.88 1731.67 L1135.89 1784.59 L1148.04 1772.98 L1160.06 1742.61 L1172.21 1708.86 L1184.22 1701.43 L1196.37 1677.81 L1208.39 1681.32 L1220.54 1673.76 L1232.55 1687.12 L1244.70 1664.04 L1256.71 1656.88 L1268.87 1643.25 L1280.88 1637.85 L1292.90 1621.24 L1305.05 1622.86 L1317.06 1612.47 L1329.21 1608.28 L1341.23 1567.24 L1353.38 1566.02 L1365.39 1550.63 L1377.54 1547.66 L1389.56 1513.10 L1401.71 1519.72 L1413.72 1523.09 L1425.87 1520.53 L1437.89 1531.60 L1450.04 1548.20 L1462.05 1535.24 L1474.20 1525.66 L1486.22 1516.75 L1498.37 1499.74 L1510.38 1512.29 L1522.40 1507.30 L1534.55 1481.65 L1546.56 1484.21 L1558.71 1475.17 L1570.73 1497.44 L1582.88 1511.08 L1594.89 1510.13 L1607.04 1502.84 L1619.06 1527.41 L1631.21 1477.73 L1643.22 1465.18 L1655.37 1459.78 L1667.39 1472.06 L1679.54 1443.31 L1691.55 1418.47 L1703.70 1412.12 L1715.72 1409.29 L1727.87 1383.64 L1739.88 1364.74 L1752.03 1381.48 L1764.05 1365.68 L1776.06 1392.14 L1788.21 1393.90 L1800.23 1417.93 L1812.38 1415.23 L1824.39 1494.34 L1836.54 1507.97 L1848.56 1474.36 L1860.71 1461.94 L1872.72 1420.36 L1884.87 1402.94 L1896.89 1401.32 L1909.04 1397.95 L1921.05 1377.56 L1933.20 1346.38 L1945.22 1324.24 L1957.37 1335.58 L1969.38 1326.94 L1981.53 1298.59 L1993.55 1285.63 L2005.56 1275.36 L2017.71 1274.55 L2029.73 1274.96 L2041.88 1282.66 L2053.89 1290.76 L2066.04 1293.86 L2078.05 1333.82 L2090.21 1364.60 L2102.22 1324.51 L2114.37 1284.55 L2126.39 1303.72 L2138.54 1279.01 L2150.55 1295.08 L2162.70 1339.90 L2174.72 1340.17 L2186.86 1344.35 L2198.88 1380.53 L2211.03 1365.28 L2223.05 1327.07 L2235.06 1299.67 L2247.21 1257.81 L2259.23 1216.37 L2271.38 1201.92 L2283.39 1192.20 L2295.54 1198.14 L2307.55 1210.70 L2319.71 1203.00 L2331.72 1206.11 L2343.87 1189.77 L2355.89 1189.91 L2368.04 1197.87 L2380.05 1210.16 L2392.20 1208.81 L2404.22 1196.79 L2416.36 1196.66 L2428.38 1196.52 L2440.53 1166.82 L2452.55 1188.96 L2464.70 1178.43 L2476.71 1175.87 L2488.73 1169.12 L2500.88 1154.00 L2512.89 1158.45 L2525.04 1162.50 L2537.05 1165.88 L2549.21 1161.42 L2561.22 1161.29 L2573.37 1170.06 L2585.39 1195.98 L2597.54 1211.24 L2609.55 1211.24 L2621.70 1202.46 L2633.72 1186.67 L2645.87 1195.04 L2657.88 1170.33 L2670.03 1166.82 L2682.05 1153.19 L2694.20 1142.79 L2706.21 1140.09 L2718.23 1143.20 L2730.38 1120.11 L2742.39 1103.37 L2754.54 1081.64 L2766.56 1089.06 L2778.71 1070.97 L2790.72 1066.25 L2802.87 1075.70 L2814.89 1078.40 L2827.04 1067.33 L2839.05 1060.17 L2851.20 1038.98 L2863.22 1019.00 L2875.37 1019.67 L2887.38 1010.63 L2899.53 983.76 L2911.55 977.55 L2923.70 971.07 L2935.71 951.63 L2947.86 954.46 L2959.88 942.85 L2971.89 929.49 L2984.04 917.20 L2996.06 916.93 L3008.21 904.78 L3020.22 892.90 L3032.37 896.01 L3044.39 870.09 L3056.54 874.54 L3068.55 873.60 L3080.70 894.66 L3092.72 893.85 L3104.87 903.70 L3116.88 926.79 L3129.03 913.42 L3141.05 906.27 L3153.20 906.81 L3165.21 907.21 L3177.36 903.57 L3189.38 900.60 L3201.39 884.67 L3213.54 869.55 L3225.56 868.74 L3237.71 851.19 L3249.72 844.17 L3261.87 834.85 L3273.89 822.43 L3286.04 828.24 L3298.05 822.43 L3310.20 808.26 L3322.22 801.78 L3334.37 804.34 L3346.38 805.96 L3358.53 814.47 L3370.55 817.44 L3382.70 813.12 L3394.71 818.25 L3406.86 823.51 L3418.88 835.93 L3431.03 843.63 L3443.04 852.67 L3455.06 898.44 L3467.21 952.71 L3479.22 979.71 L3491.37 981.06 L3503.39 940.83 L3515.54 931.24 L3527.55 908.29 L3539.70 888.72 L3551.72 889.93 L3563.87 898.44 L3575.88 880.35 L3588.03 878.46 L3600.05 844.98 L3612.20 835.12 L3624.21 825.13 L3636.36 823.92 L3648.38 827.70 L3660.53 810.15 L3672.54 804.34 L3684.56 786.52 L3696.71 782.20 L3708.72 786.66 L3720.87 768.43 L3732.89 758.17 L3745.04 756.82 L3757.05 741.43 L3769.20 739.54 L3781.22 738.60 L3793.37 741.30 L3805.38 743.19 L3817.53 745.21 L3829.55 743.19 L3841.70 731.04 L3853.71 732.25 L3865.86 725.23 L3877.88 717.81 L3890.03 709.44 L3902.04 702.55 L3914.19 702.69 L3926.21 689.19 L3938.22 688.92 L3950.37 685.54 L3962.39 682.44 L3974.54 677.71 L3986.55 682.98 L3998.70 694.72 L4010.72 765.06 L4022.87 687.57 L4034.88 673.66 L4047.03 677.44 L4059.05 683.79 L4071.20 666.91 L4083.21 639.23 L4095.36 632.35 L4107.38 645.04 L4119.52 653.95 L4131.54 650.17 L4143.69 660.84 L4155.71 655.17" stroke-linejoin="round" style="fill:none;stroke:#1A85FF;stroke-width:8.64"/>
	<path d=" M471.56 1964.69 L483.71 1944.84 L495.72 1985.61 L507.87 1991.42 L519.89 1899.34 L532.04 1868.56 L544.05 1848.31 L556.07 1848.85 L568.22 1873.69 L580.23 1948.49 L592.38 2001.95 L604.40 1946.46 L616.54 1979.40 L628.56 1867.21 L640.71 1838.32 L652.73 1807.14 L664.88 1755.57 L676.89 1821.31 L689.04 1797.82 L701.06 1837.78 L713.21 1870.45 L725.22 1848.18 L737.37 1889.35 L749.39 1854.39 L761.54 1824.55 L773.55 1820.50 L785.70 1819.29 L797.72 1829.82 L809.73 1864.38 L821.88 1859.38 L833.90 1859.11 L846.05 1834.68 L858.06 1817.67 L870.21 1774.06 L882.23 1753.95 L894.38 1751.92 L906.39 1741.53 L918.54 1757.73 L930.56 1758.00 L942.71 1760.97 L954.72 1764.07 L966.87 1770.15 L978.89 1768.39 L991.04 1756.38 L1003.05 1797.96 L1015.20 1823.74 L1027.21 1825.90 L1039.23 1786.21 L1051.38 1752.60 L1063.40 1734.10 L1075.55 1701.70 L1087.56 1742.34 L1099.71 1718.71 L1111.72 1673.62 L1123.88 1731.94 L1135.89 1722.22 L1148.04 1779.87 L1160.06 1754.08 L1172.21 1722.36 L1184.22 1691.58 L1196.37 1690.63 L1208.39 1665.52 L1220.54 1674.43 L1232.55 1664.58 L1244.70 1680.51 L1256.71 1651.21 L1268.87 1648.11 L1280.88 1634.07 L1292.90 1630.69 L1305.05 1613.01 L1317.06 1618.00 L1329.21 1605.58 L1341.23 1602.61 L1353.38 1557.65 L1365.39 1565.21 L1377.54 1547.93 L1389.56 1547.53 L1401.71 1509.32 L1413.72 1524.31 L1425.87 1525.79 L1437.89 1521.47 L1450.04 1533.89 L1462.05 1549.01 L1474.20 1530.11 L1486.22 1521.88 L1498.37 1513.64 L1510.38 1496.50 L1522.40 1513.64 L1534.55 1504.73 L1546.56 1476.65 L1558.71 1485.02 L1570.73 1473.82 L1582.88 1500.01 L1594.89 1509.32 L1607.04 1504.46 L1619.06 1495.96 L1631.21 1524.31 L1643.22 1463.02 L1655.37 1460.05 L1667.39 1456.40 L1679.54 1470.71 L1691.55 1435.34 L1703.70 1414.01 L1715.72 1412.26 L1727.87 1409.96 L1739.88 1381.61 L1752.03 1366.22 L1764.05 1388.50 L1776.06 1366.63 L1788.21 1399.03 L1800.23 1394.17 L1812.38 1419.82 L1824.39 1410.50 L1836.54 1498.25 L1848.56 1494.20 L1860.71 1453.16 L1872.72 1446.68 L1884.87 1403.08 L1896.89 1392.95 L1909.04 1394.71 L1921.05 1390.79 L1933.20 1368.38 L1945.22 1338.01 L1957.37 1320.19 L1969.38 1337.47 L1981.53 1324.64 L1993.55 1294.67 L2005.56 1286.44 L2017.71 1277.52 L2029.73 1278.47 L2041.88 1278.60 L2053.89 1286.44 L2066.04 1292.92 L2078.05 1293.86 L2090.21 1336.93 L2102.22 1361.09 L2114.37 1308.85 L2126.39 1273.61 L2138.54 1303.45 L2150.55 1271.04 L2162.70 1294.13 L2174.72 1339.36 L2186.86 1328.69 L2198.88 1332.74 L2211.03 1371.35 L2223.05 1345.30 L2235.06 1306.01 L2247.21 1284.14 L2259.23 1243.64 L2271.38 1206.92 L2283.39 1200.17 L2295.54 1192.20 L2307.55 1200.44 L2319.71 1212.45 L2331.72 1200.57 L2343.87 1205.16 L2355.89 1185.86 L2368.04 1189.23 L2380.05 1197.47 L2392.20 1208.67 L2404.22 1203.81 L2416.36 1190.31 L2428.38 1192.34 L2440.53 1191.80 L2452.55 1158.32 L2464.70 1189.23 L2476.71 1171.82 L2488.73 1171.01 L2500.88 1163.45 L2512.89 1147.92 L2525.04 1155.75 L2537.05 1158.72 L2549.21 1160.88 L2561.22 1154.67 L2573.37 1155.08 L2585.39 1164.39 L2597.54 1190.45 L2609.55 1200.71 L2621.70 1196.66 L2633.72 1186.26 L2645.87 1170.47 L2657.88 1182.89 L2670.03 1153.05 L2682.05 1154.40 L2694.20 1139.69 L2706.21 1130.78 L2718.23 1129.83 L2730.38 1133.34 L2742.39 1106.48 L2754.54 1092.71 L2766.56 1072.19 L2778.71 1085.01 L2790.72 1062.60 L2802.87 1061.12 L2814.89 1072.19 L2827.04 1072.46 L2839.05 1059.09 L2851.20 1053.29 L2863.22 1031.01 L2875.37 1013.33 L2887.38 1018.19 L2899.53 1007.52 L2911.55 979.44 L2923.70 978.36 L2935.71 972.02 L2947.86 951.63 L2959.88 958.78 L2971.89 944.88 L2984.04 932.05 L2996.06 921.25 L3008.21 923.28 L3020.22 909.37 L3032.37 898.57 L3044.39 904.38 L3056.54 874.41 L3068.55 884.94 L3080.70 882.37 L3092.72 905.32 L3104.87 899.11 L3116.88 909.78 L3129.03 932.32 L3141.05 911.80 L3153.20 906.40 L3165.21 908.29 L3177.36 908.16 L3189.38 903.43 L3201.39 900.60 L3213.54 883.05 L3225.56 869.68 L3237.71 871.84 L3249.72 852.13 L3261.87 847.81 L3273.89 838.77 L3286.04 826.62 L3298.05 835.66 L3310.20 827.29 L3322.22 812.58 L3334.37 808.12 L3346.38 812.04 L3358.53 812.85 L3370.55 821.35 L3382.70 822.16 L3394.71 816.22 L3406.86 822.43 L3418.88 826.62 L3431.03 838.63 L3443.04 843.76 L3455.06 851.59 L3467.21 899.65 L3479.22 948.66 L3491.37 965.27 L3503.39 960.00 L3515.54 914.77 L3527.55 913.02 L3539.70 889.39 L3551.72 872.65 L3563.87 878.19 L3575.88 886.83 L3588.03 864.28 L3600.05 865.90 L3612.20 828.91 L3624.21 825.27 L3636.36 816.09 L3648.38 816.76 L3660.53 820.81 L3672.54 799.89 L3684.56 797.19 L3696.71 778.29 L3708.72 777.34 L3720.87 782.74 L3732.89 761.14 L3745.04 753.58 L3757.05 753.99 L3769.20 736.84 L3781.22 738.06 L3793.37 736.98 L3805.38 739.68 L3817.53 740.76 L3829.55 741.97 L3841.70 739.00 L3853.71 725.50 L3865.86 729.28 L3877.88 720.78 L3890.03 713.76 L3902.04 705.79 L3914.19 699.72 L3926.21 700.93 L3938.22 685.54 L3950.37 687.97 L3962.39 684.06 L3974.54 680.82 L3986.55 675.96 L3998.70 682.44 L4010.72 693.78 L4022.87 768.43 L4034.88 665.83 L4047.03 667.99 L4059.05 675.15 L4071.20 680.82 L4083.21 660.30 L4095.36 633.02 L4107.38 631.67 L4119.52 646.80 L4131.54 653.28 L4143.69 646.66 L4155.71 658.95" stroke-linejoin="round" style="fill:none;stroke:#D41159;stroke-width:8.64"/>
	<line x1="408.24" y1="2203.64" x2="408.24" y2="275.40" style="stroke:#000000;stroke-width:5.76"/>
	<line x1="408.24" y1="2140.32" x2="368.28" y2="2140.32" style="stroke:#000000;stroke-width:5.76"/>
	<text x="348.30" y="2175.37" style="font-family:'Helvetica';font-size:100.04px;fill:#000000" text-anchor="end">5</text>
	<line x1="408.24" y1="1689.96" x2="368.28" y2="1689.96" style="stroke:#000000;stroke-width:5.76"/>
	<text x="348.30" y="1725.00" style="font-family:'Helvetica';font-size:100.04px;fill:#000000" text-anchor="end">6</text>
	<line x1="408.24" y1="1239.59" x2="368.28" y2="1239.59" style="stroke:#000000;stroke-width:5.76"/>
	<text x="348.30" y="1274.64" style="font-family:'Helvetica';font-size:100.04px;fill:#000000" text-anchor="end">7</text>
	<line x1="408.24" y1="789.09" x2="368.28" y2="789.09" style="stroke:#000000;stroke-width:5.76"/>
	<text x="348.30" y="824.13" style="font-family:'Helvetica';font-size:100.04px;fill:#000000" text-anchor="end">8</text>
	<line x1="408.24" y1="338.72" x2="368.28" y2="338.72" style="stroke:#000000;stroke-width:5.76"/>
	<text x="348.30" y="373.77" style="font-family:'Helvetica';font-size:100.04px;fill:#000000" text-anchor="end">9</text>
	<text x="190.78" y="1239.59" style="font-family:'Helvetica';font-size:100.04px;fill:#000000" transform="rotate(-90 190.78,1239.59)" text-anchor="middle">Log. Inversión privada doméstica</text>
	<line x1="408.24" y1="2203.64" x2="4219.16" y2="2203.64" style="stroke:#000000;stroke-width:5.76"/>
	<line x1="616.54" y1="2203.64" x2="616.54" y2="2243.74" style="stroke:#000000;stroke-width:5.76"/>
	<text x="616.54" y="2333.67" style="font-family:'Helvetica';font-size:100.04px;fill:#000000" text-anchor="middle">1950q1</text>
	<line x1="1099.71" y1="2203.64" x2="1099.71" y2="2243.74" style="stroke:#000000;stroke-width:5.76"/>
	<text x="1099.71" y="2333.67" style="font-family:'Helvetica';font-size:100.04px;fill:#000000" text-anchor="middle">1960q1</text>
	<line x1="1582.88" y1="2203.64" x2="1582.88" y2="2243.74" style="stroke:#000000;stroke-width:5.76"/>
	<text x="1582.88" y="2333.67" style="font-family:'Helvetica';font-size:100.04px;fill:#000000" text-anchor="middle">1970q1</text>
	<line x1="2066.04" y1="2203.64" x2="2066.04" y2="2243.74" style="stroke:#000000;stroke-width:5.76"/>
	<text x="2066.04" y="2333.67" style="font-family:'Helvetica';font-size:100.04px;fill:#000000" text-anchor="middle">1980q1</text>
	<line x1="2549.21" y1="2203.64" x2="2549.21" y2="2243.74" style="stroke:#000000;stroke-width:5.76"/>
	<text x="2549.21" y="2333.67" style="font-family:'Helvetica';font-size:100.04px;fill:#000000" text-anchor="middle">1990q1</text>
	<line x1="3032.37" y1="2203.64" x2="3032.37" y2="2243.74" style="stroke:#000000;stroke-width:5.76"/>
	<text x="3032.37" y="2333.67" style="font-family:'Helvetica';font-size:100.04px;fill:#000000" text-anchor="middle">2000q1</text>
	<line x1="3515.54" y1="2203.64" x2="3515.54" y2="2243.74" style="stroke:#000000;stroke-width:5.76"/>
	<text x="3515.54" y="2333.67" style="font-family:'Helvetica';font-size:100.04px;fill:#000000" text-anchor="middle">2010q1</text>
	<line x1="3998.70" y1="2203.64" x2="3998.70" y2="2243.74" style="stroke:#000000;stroke-width:5.76"/>
	<text x="3998.70" y="2333.67" style="font-family:'Helvetica';font-size:100.04px;fill:#000000" text-anchor="middle">2020q1</text>
	<text x="2313.77" y="2473.67" style="font-family:'Helvetica';font-size:100.04px;fill:#000000" text-anchor="middle">Trimestre</text>
	<rect x="1248.08" y="2558.29" width="2131.25" height="186.30" style="fill:#FFFFFF"/>
	<rect x="1250.95" y="2561.17" width="2125.49" height="180.54" style="fill:none;stroke:#FFFFFF;stroke-width:5.76"/>
	<line x1="1291.28" y1="2651.44" x2="1521.59" y2="2651.44" style="stroke:#1A85FF;stroke-width:8.64"/>
	<line x1="2377.89" y1="2651.44" x2="2608.34" y2="2651.44" style="stroke:#D41159;stroke-width:8.64"/>
	<text x="1581.66" y="2686.49" style="font-family:'Helvetica';font-size:100.04px;fill:#000000">Log(Inversión)</text>
	<text x="2668.28" y="2686.49" style="font-family:'Helvetica';font-size:100.04px;fill:#000000">Valor ajustado</text>
	<text x="2313.77" y="216.06" style="font-family:'Helvetica';font-size:140.00px;fill:#000000" text-anchor="middle">Ajuste del modelo para el logaritmo de la Inversión, USA</text>
</svg>
