<?xml version="1.0" encoding="UTF-8" standalone="no"?>
<!-- This is a Stata 18.0 generated SVG file (http://www.stata.com) -->

<svg version="1.1" width="7.500in" height="4.500in" viewBox="0 0 5400 3240" xmlns="http://www.w3.org/2000/svg" xmlns:xlink="http://www.w3.org/1999/xlink">
	<desc>Stata Graph - Graph</desc>
	<rect x="0" y="0" width="5400" height="3240" style="fill:#FFFFFF;stroke:none"/>
	<rect x="0.00" y="0.00" width="5400.00" height="3240.00" style="fill:#FFFFFF"/>
	<rect x="3.24" y="3.24" width="5393.52" height="3233.52" style="fill:none;stroke:#FFFFFF;stroke-width:6.48"/>
	<rect x="71.21" y="71.21" width="2628.79" height="3097.58" style="fill:#FFFFFF"/>
	<rect x="73.64" y="73.64" width="2623.93" height="3092.71" style="fill:none;stroke:#FFFFFF;stroke-width:4.86"/>
	<rect x="568.35" y="303.58" width="2046.60" height="2510.16" style="fill:#FFFFFF"/>
	<rect x="570.78" y="306.01" width="2041.74" height="2505.30" style="fill:none;stroke:#000000;stroke-width:4.86"/>
	<line x1="568.35" y1="1318.28" x2="633.15" y2="1318.28" style="stroke:#F0F0F0;stroke-width:7.29"/>
	<line x1="665.55" y1="1318.28" x2="730.35" y2="1318.28" style="stroke:#F0F0F0;stroke-width:7.29"/>
	<line x1="762.75" y1="1318.28" x2="827.55" y2="1318.28" style="stroke:#F0F0F0;stroke-width:7.29"/>
	<line x1="859.95" y1="1318.28" x2="924.75" y2="1318.28" style="stroke:#F0F0F0;stroke-width:7.29"/>
	<line x1="957.15" y1="1318.28" x2="1021.95" y2="1318.28" style="stroke:#F0F0F0;stroke-width:7.29"/>
	<line x1="1054.35" y1="1318.28" x2="1119.15" y2="1318.28" style="stroke:#F0F0F0;stroke-width:7.29"/>
	<line x1="1151.55" y1="1318.28" x2="1216.35" y2="1318.28" style="stroke:#F0F0F0;stroke-width:7.29"/>
	<line x1="1248.75" y1="1318.28" x2="1313.55" y2="1318.28" style="stroke:#F0F0F0;stroke-width:7.29"/>
	<line x1="1345.95" y1="1318.28" x2="1410.75" y2="1318.28" style="stroke:#F0F0F0;stroke-width:7.29"/>
	<line x1="1443.15" y1="1318.28" x2="1507.95" y2="1318.28" style="stroke:#F0F0F0;stroke-width:7.29"/>
	<line x1="1540.35" y1="1318.28" x2="1605.15" y2="1318.28" style="stroke:#F0F0F0;stroke-width:7.29"/>
	<line x1="1637.55" y1="1318.28" x2="1702.35" y2="1318.28" style="stroke:#F0F0F0;stroke-width:7.29"/>
	<line x1="1734.75" y1="1318.28" x2="1799.55" y2="1318.28" style="stroke:#F0F0F0;stroke-width:7.29"/>
	<line x1="1831.95" y1="1318.28" x2="1896.75" y2="1318.28" style="stroke:#F0F0F0;stroke-width:7.29"/>
	<line x1="1929.15" y1="1318.28" x2="1993.95" y2="1318.28" style="stroke:#F0F0F0;stroke-width:7.29"/>
	<line x1="2026.35" y1="1318.28" x2="2091.15" y2="1318.28" style="stroke:#F0F0F0;stroke-width:7.29"/>
	<line x1="2123.55" y1="1318.28" x2="2188.35" y2="1318.28" style="stroke:#F0F0F0;stroke-width:7.29"/>
	<line x1="2220.75" y1="1318.28" x2="2285.55" y2="1318.28" style="stroke:#F0F0F0;stroke-width:7.29"/>
	<line x1="2317.95" y1="1318.28" x2="2382.75" y2="1318.28" style="stroke:#F0F0F0;stroke-width:7.29"/>
	<line x1="2415.15" y1="1318.28" x2="2479.95" y2="1318.28" style="stroke:#F0F0F0;stroke-width:7.29"/>
	<line x1="2512.35" y1="1318.28" x2="2577.15" y2="1318.28" style="stroke:#F0F0F0;stroke-width:7.29"/>
	<line x1="2609.55" y1="1318.28" x2="2614.95" y2="1318.28" style="stroke:#F0F0F0;stroke-width:7.29"/>
	<defs>
		<path id="path_vTVPfXKA" d="M686.48 1585.07 L686.48 1585.07 L751.11 1589.12 L815.74 1589.12 L880.37 1589.12 L945.17 1589.63 L1009.80 1589.63 L1074.43 1589.96 L1139.06 1590.47 L1203.69 1590.98 L1268.33 1591.65 L1332.96 1591.65 L1397.76 1591.82 L1462.39 1591.99 L1527.02 1592.16 L1591.65 1592.16 L1656.28 1593.34 L1720.91 1594.69 L1785.54 1594.69 L1850.34 1595.03 L1914.98 1595.03 L1979.61 1595.03 L2044.24 1595.19 L2108.87 1595.19 L2173.50 1595.19 L2238.13 1595.19 L2302.93 1595.19 L2367.56 1595.36 L2432.19 1595.53 L2496.82 1595.53 L2561.46 1595.53 L2561.46 1041.02 L2496.82 1041.02 L2432.19 1041.02 L2367.56 1041.36 L2302.93 1041.36 L2238.13 1041.36 L2173.50 1041.53 L2108.87 1041.53 L2044.24 1041.53 L1979.61 1041.53 L1914.98 1041.69 L1850.34 1041.69 L1785.54 1042.03 L1720.91 1042.03 L1656.28 1043.38 L1591.65 1044.56 L1527.02 1044.56 L1462.39 1044.73 L1397.76 1044.90 L1332.96 1044.90 L1268.33 1044.90 L1203.69 1045.74 L1139.06 1046.08 L1074.43 1046.76 L1009.80 1047.09 L945.17 1047.09 L880.37 1047.43 L815.74 1047.60 L751.11 1047.60 L686.48 1051.65 L686.48 1585.07 Z" stroke-linejoin="round"/>
	</defs>
	<defs>
		<clipPath id="clipPath_NeiBfiAQ">
			<use xlink:href="#path_vTVPfXKA"/>
		</clipPath>
	</defs>
	<use xlink:href="#path_vTVPfXKA" style="stroke:none;fill:#E0E0E0"/>
	<use xlink:href="#path_vTVPfXKA" style="fill:none;stroke:#E0E0E0;stroke-width:14.58" clip-path="url(#clipPath_NeiBfiAQ)"/>
	<line x1="686.48" y1="1318.28" x2="686.48" y2="2503.74" style="stroke:#FF0000;stroke-width:7.29"/>
	<line x1="751.11" y1="1318.28" x2="751.11" y2="1311.86" style="stroke:#FF0000;stroke-width:7.29"/>
	<line x1="815.74" y1="1318.28" x2="815.74" y2="1154.42" style="stroke:#FF0000;stroke-width:7.29"/>
	<line x1="880.37" y1="1318.28" x2="880.37" y2="1674.17" style="stroke:#FF0000;stroke-width:7.29"/>
	<line x1="945.17" y1="1318.28" x2="945.17" y2="1371.09" style="stroke:#FF0000;stroke-width:7.29"/>
	<line x1="1009.80" y1="1318.28" x2="1009.80" y2="1668.26" style="stroke:#FF0000;stroke-width:7.29"/>
	<line x1="1074.43" y1="1318.28" x2="1074.43" y2="854.38" style="stroke:#FF0000;stroke-width:7.29"/>
	<line x1="1139.06" y1="1318.28" x2="1139.06" y2="1728.17" style="stroke:#FF0000;stroke-width:7.29"/>
	<line x1="1203.69" y1="1318.28" x2="1203.69" y2="807.64" style="stroke:#FF0000;stroke-width:7.29"/>
	<line x1="1268.33" y1="1318.28" x2="1268.33" y2="1327.05" style="stroke:#FF0000;stroke-width:7.29"/>
	<line x1="1332.96" y1="1318.28" x2="1332.96" y2="1424.76" style="stroke:#FF0000;stroke-width:7.29"/>
	<line x1="1397.76" y1="1318.28" x2="1397.76" y2="1045.24" style="stroke:#FF0000;stroke-width:7.29"/>
	<line x1="1462.39" y1="1318.28" x2="1462.39" y2="1566.84" style="stroke:#FF0000;stroke-width:7.29"/>
	<line x1="1527.02" y1="1318.28" x2="1527.02" y2="1303.76" style="stroke:#FF0000;stroke-width:7.29"/>
	<line x1="1591.65" y1="1318.28" x2="1591.65" y2="1964.08" style="stroke:#FF0000;stroke-width:7.29"/>
	<line x1="1656.28" y1="1318.28" x2="1656.28" y2="620.66" style="stroke:#FF0000;stroke-width:7.29"/>
	<line x1="1720.91" y1="1318.28" x2="1720.91" y2="1418.18" style="stroke:#FF0000;stroke-width:7.29"/>
	<line x1="1785.54" y1="1318.28" x2="1785.54" y2="1617.13" style="stroke:#FF0000;stroke-width:7.29"/>
	<line x1="1850.34" y1="1318.28" x2="1850.34" y2="1191.04" style="stroke:#FF0000;stroke-width:7.29"/>
	<line x1="1914.98" y1="1318.28" x2="1914.98" y2="1155.60" style="stroke:#FF0000;stroke-width:7.29"/>
	<line x1="1979.61" y1="1318.28" x2="1979.61" y2="1438.26" style="stroke:#FF0000;stroke-width:7.29"/>
	<line x1="2044.24" y1="1318.28" x2="2044.24" y2="1441.80" style="stroke:#FF0000;stroke-width:7.29"/>
	<line x1="2108.87" y1="1318.28" x2="2108.87" y2="1307.31" style="stroke:#FF0000;stroke-width:7.29"/>
	<line x1="2173.50" y1="1318.28" x2="2173.50" y2="1508.46" style="stroke:#FF0000;stroke-width:7.29"/>
	<line x1="2238.13" y1="1318.28" x2="2238.13" y2="1267.14" style="stroke:#FF0000;stroke-width:7.29"/>
	<line x1="2302.93" y1="1318.28" x2="2302.93" y2="1500.19" style="stroke:#FF0000;stroke-width:7.29"/>
	<line x1="2367.56" y1="1318.28" x2="2367.56" y2="1033.76" style="stroke:#FF0000;stroke-width:7.29"/>
	<line x1="2432.19" y1="1318.28" x2="2432.19" y2="1417.33" style="stroke:#FF0000;stroke-width:7.29"/>
	<line x1="2496.82" y1="1318.28" x2="2496.82" y2="1343.93" style="stroke:#FF0000;stroke-width:7.29"/>
	<line x1="2561.46" y1="1318.28" x2="2561.46" y2="1253.98" style="stroke:#FF0000;stroke-width:7.29"/>
	<circle cx="686.31" cy="2503.91" r="16.30" style="fill:#FF0000"/>
	<circle cx="686.31" cy="2503.91" r="12.66" style="fill:none;stroke:#FF0000;stroke-width:7.29"/>
	<circle cx="751.11" cy="1311.86" r="16.30" style="fill:#FF0000"/>
	<circle cx="751.11" cy="1311.86" r="12.66" style="fill:none;stroke:#FF0000;stroke-width:7.29"/>
	<circle cx="815.74" cy="1154.42" r="16.30" style="fill:#FF0000"/>
	<circle cx="815.74" cy="1154.42" r="12.66" style="fill:none;stroke:#FF0000;stroke-width:7.29"/>
	<circle cx="880.37" cy="1674.17" r="16.30" style="fill:#FF0000"/>
	<circle cx="880.37" cy="1674.17" r="12.66" style="fill:none;stroke:#FF0000;stroke-width:7.29"/>
	<circle cx="945.00" cy="1371.09" r="16.30" style="fill:#FF0000"/>
	<circle cx="945.00" cy="1371.09" r="12.66" style="fill:none;stroke:#FF0000;stroke-width:7.29"/>
	<circle cx="1009.63" cy="1668.43" r="16.30" style="fill:#FF0000"/>
	<circle cx="1009.63" cy="1668.43" r="12.66" style="fill:none;stroke:#FF0000;stroke-width:7.29"/>
	<circle cx="1074.26" cy="854.55" r="16.30" style="fill:#FF0000"/>
	<circle cx="1074.26" cy="854.55" r="12.66" style="fill:none;stroke:#FF0000;stroke-width:7.29"/>
	<circle cx="1138.89" cy="1728.17" r="16.30" style="fill:#FF0000"/>
	<circle cx="1138.89" cy="1728.17" r="12.66" style="fill:none;stroke:#FF0000;stroke-width:7.29"/>
	<circle cx="1203.69" cy="807.64" r="16.30" style="fill:#FF0000"/>
	<circle cx="1203.69" cy="807.64" r="12.66" style="fill:none;stroke:#FF0000;stroke-width:7.29"/>
	<circle cx="1268.33" cy="1327.05" r="16.30" style="fill:#FF0000"/>
	<circle cx="1268.33" cy="1327.05" r="12.66" style="fill:none;stroke:#FF0000;stroke-width:7.29"/>
	<circle cx="1332.96" cy="1424.93" r="16.30" style="fill:#FF0000"/>
	<circle cx="1332.96" cy="1424.93" r="12.66" style="fill:none;stroke:#FF0000;stroke-width:7.29"/>
	<circle cx="1397.59" cy="1045.24" r="16.30" style="fill:#FF0000"/>
	<circle cx="1397.59" cy="1045.24" r="12.66" style="fill:none;stroke:#FF0000;stroke-width:7.29"/>
	<circle cx="1462.22" cy="1566.84" r="16.30" style="fill:#FF0000"/>
	<circle cx="1462.22" cy="1566.84" r="12.66" style="fill:none;stroke:#FF0000;stroke-width:7.29"/>
	<circle cx="1526.85" cy="1303.93" r="16.30" style="fill:#FF0000"/>
	<circle cx="1526.85" cy="1303.93" r="12.66" style="fill:none;stroke:#FF0000;stroke-width:7.29"/>
	<circle cx="1591.65" cy="1964.08" r="16.30" style="fill:#FF0000"/>
	<circle cx="1591.65" cy="1964.08" r="12.66" style="fill:none;stroke:#FF0000;stroke-width:7.29"/>
	<circle cx="1656.28" cy="620.83" r="16.30" style="fill:#FF0000"/>
	<circle cx="1656.28" cy="620.83" r="12.66" style="fill:none;stroke:#FF0000;stroke-width:7.29"/>
	<circle cx="1720.91" cy="1418.18" r="16.30" style="fill:#FF0000"/>
	<circle cx="1720.91" cy="1418.18" r="12.66" style="fill:none;stroke:#FF0000;stroke-width:7.29"/>
	<circle cx="1785.54" cy="1617.13" r="16.30" style="fill:#FF0000"/>
	<circle cx="1785.54" cy="1617.13" r="12.66" style="fill:none;stroke:#FF0000;stroke-width:7.29"/>
	<circle cx="1850.18" cy="1191.04" r="16.30" style="fill:#FF0000"/>
	<circle cx="1850.18" cy="1191.04" r="12.66" style="fill:none;stroke:#FF0000;stroke-width:7.29"/>
	<circle cx="1914.81" cy="1155.60" r="16.30" style="fill:#FF0000"/>
	<circle cx="1914.81" cy="1155.60" r="12.66" style="fill:none;stroke:#FF0000;stroke-width:7.29"/>
	<circle cx="1979.44" cy="1438.26" r="16.30" style="fill:#FF0000"/>
	<circle cx="1979.44" cy="1438.26" r="12.66" style="fill:none;stroke:#FF0000;stroke-width:7.29"/>
	<circle cx="2044.24" cy="1441.80" r="16.30" style="fill:#FF0000"/>
	<circle cx="2044.24" cy="1441.80" r="12.66" style="fill:none;stroke:#FF0000;stroke-width:7.29"/>
	<circle cx="2108.87" cy="1307.31" r="16.30" style="fill:#FF0000"/>
	<circle cx="2108.87" cy="1307.31" r="12.66" style="fill:none;stroke:#FF0000;stroke-width:7.29"/>
	<circle cx="2173.50" cy="1508.46" r="16.30" style="fill:#FF0000"/>
	<circle cx="2173.50" cy="1508.46" r="12.66" style="fill:none;stroke:#FF0000;stroke-width:7.29"/>
	<circle cx="2238.13" cy="1267.14" r="16.30" style="fill:#FF0000"/>
	<circle cx="2238.13" cy="1267.14" r="12.66" style="fill:none;stroke:#FF0000;stroke-width:7.29"/>
	<circle cx="2302.76" cy="1500.19" r="16.30" style="fill:#FF0000"/>
	<circle cx="2302.76" cy="1500.19" r="12.66" style="fill:none;stroke:#FF0000;stroke-width:7.29"/>
	<circle cx="2367.39" cy="1033.93" r="16.30" style="fill:#FF0000"/>
	<circle cx="2367.39" cy="1033.93" r="12.66" style="fill:none;stroke:#FF0000;stroke-width:7.29"/>
	<circle cx="2432.03" cy="1417.50" r="16.30" style="fill:#FF0000"/>
	<circle cx="2432.03" cy="1417.50" r="12.66" style="fill:none;stroke:#FF0000;stroke-width:7.29"/>
	<circle cx="2496.82" cy="1343.93" r="16.30" style="fill:#FF0000"/>
	<circle cx="2496.82" cy="1343.93" r="12.66" style="fill:none;stroke:#FF0000;stroke-width:7.29"/>
	<circle cx="2561.46" cy="1253.98" r="16.30" style="fill:#FF0000"/>
	<circle cx="2561.46" cy="1253.98" r="12.66" style="fill:none;stroke:#FF0000;stroke-width:7.29"/>
	<line x1="568.35" y1="2813.74" x2="568.35" y2="303.58" style="stroke:#000000;stroke-width:4.86"/>
	<line x1="568.35" y1="2760.24" x2="534.60" y2="2760.24" style="stroke:#000000;stroke-width:4.86"/>
	<text x="517.73" y="2789.82" style="font-family:'Helvetica';font-size:84.38px;fill:#000000" text-anchor="end">-0.15</text>
	<line x1="568.35" y1="2279.64" x2="534.60" y2="2279.64" style="stroke:#000000;stroke-width:4.86"/>
	<text x="517.73" y="2309.22" style="font-family:'Helvetica';font-size:84.38px;fill:#000000" text-anchor="end">-0.10</text>
	<line x1="568.35" y1="1799.04" x2="534.60" y2="1799.04" style="stroke:#000000;stroke-width:4.86"/>
	<text x="517.73" y="1828.62" style="font-family:'Helvetica';font-size:84.38px;fill:#000000" text-anchor="end">-0.05</text>
	<line x1="568.35" y1="1318.28" x2="534.60" y2="1318.28" style="stroke:#000000;stroke-width:4.86"/>
	<text x="517.73" y="1347.85" style="font-family:'Helvetica';font-size:84.38px;fill:#000000" text-anchor="end">0.00</text>
	<line x1="568.35" y1="837.68" x2="534.60" y2="837.68" style="stroke:#000000;stroke-width:4.86"/>
	<text x="517.73" y="867.25" style="font-family:'Helvetica';font-size:84.38px;fill:#000000" text-anchor="end">0.05</text>
	<line x1="568.35" y1="357.07" x2="534.60" y2="357.07" style="stroke:#000000;stroke-width:4.86"/>
	<text x="517.73" y="386.65" style="font-family:'Helvetica';font-size:84.38px;fill:#000000" text-anchor="end">0.10</text>
	<text x="232.12" y="1558.58" style="font-family:'Helvetica';font-size:84.38px;fill:#000000" transform="rotate(-90 232.12,1558.58)" text-anchor="middle">Autocorrelación</text>
	<line x1="568.35" y1="2813.74" x2="2614.95" y2="2813.74" style="stroke:#000000;stroke-width:4.86"/>
	<line x1="621.84" y1="2813.74" x2="621.84" y2="2847.49" style="stroke:#000000;stroke-width:4.86"/>
	<text x="621.84" y="2923.34" style="font-family:'Helvetica';font-size:84.38px;fill:#000000" text-anchor="middle">0</text>
	<line x1="1268.33" y1="2813.74" x2="1268.33" y2="2847.49" style="stroke:#000000;stroke-width:4.86"/>
	<text x="1268.33" y="2923.34" style="font-family:'Helvetica';font-size:84.38px;fill:#000000" text-anchor="middle">10</text>
	<line x1="1914.98" y1="2813.74" x2="1914.98" y2="2847.49" style="stroke:#000000;stroke-width:4.86"/>
	<text x="1914.98" y="2923.34" style="font-family:'Helvetica';font-size:84.38px;fill:#000000" text-anchor="middle">20</text>
	<line x1="2561.46" y1="2813.74" x2="2561.46" y2="2847.49" style="stroke:#000000;stroke-width:4.86"/>
	<text x="2561.46" y="2923.34" style="font-family:'Helvetica';font-size:84.38px;fill:#000000" text-anchor="middle">30</text>
	<text x="1591.65" y="3041.47" style="font-family:'Helvetica';font-size:84.38px;fill:#000000" text-anchor="middle">Rezago</text>
	<text x="1591.65" y="253.55" style="font-family:'Helvetica';font-size:118.13px;fill:#000000" text-anchor="middle">AC: Retorno S&amp;P500</text>
	<rect x="2700.00" y="71.21" width="2628.79" height="3097.58" style="fill:#FFFFFF"/>
	<rect x="2702.43" y="73.64" width="2623.93" height="3092.71" style="fill:none;stroke:#FFFFFF;stroke-width:4.86"/>
	<rect x="3197.14" y="303.58" width="2046.60" height="2510.16" style="fill:#FFFFFF"/>
	<rect x="3199.57" y="306.01" width="2041.74" height="2505.30" style="fill:none;stroke:#000000;stroke-width:4.86"/>
	<line x1="3197.14" y1="1006.09" x2="3261.94" y2="1006.09" style="stroke:#F0F0F0;stroke-width:7.29"/>
	<line x1="3294.34" y1="1006.09" x2="3359.14" y2="1006.09" style="stroke:#F0F0F0;stroke-width:7.29"/>
	<line x1="3391.54" y1="1006.09" x2="3456.34" y2="1006.09" style="stroke:#F0F0F0;stroke-width:7.29"/>
	<line x1="3488.74" y1="1006.09" x2="3553.54" y2="1006.09" style="stroke:#F0F0F0;stroke-width:7.29"/>
	<line x1="3585.94" y1="1006.09" x2="3650.74" y2="1006.09" style="stroke:#F0F0F0;stroke-width:7.29"/>
	<line x1="3683.14" y1="1006.09" x2="3747.94" y2="1006.09" style="stroke:#F0F0F0;stroke-width:7.29"/>
	<line x1="3780.34" y1="1006.09" x2="3845.14" y2="1006.09" style="stroke:#F0F0F0;stroke-width:7.29"/>
	<line x1="3877.54" y1="1006.09" x2="3942.34" y2="1006.09" style="stroke:#F0F0F0;stroke-width:7.29"/>
	<line x1="3974.74" y1="1006.09" x2="4039.54" y2="1006.09" style="stroke:#F0F0F0;stroke-width:7.29"/>
	<line x1="4071.94" y1="1006.09" x2="4136.74" y2="1006.09" style="stroke:#F0F0F0;stroke-width:7.29"/>
	<line x1="4169.14" y1="1006.09" x2="4233.94" y2="1006.09" style="stroke:#F0F0F0;stroke-width:7.29"/>
	<line x1="4266.34" y1="1006.09" x2="4331.14" y2="1006.09" style="stroke:#F0F0F0;stroke-width:7.29"/>
	<line x1="4363.54" y1="1006.09" x2="4428.34" y2="1006.09" style="stroke:#F0F0F0;stroke-width:7.29"/>
	<line x1="4460.74" y1="1006.09" x2="4525.54" y2="1006.09" style="stroke:#F0F0F0;stroke-width:7.29"/>
	<line x1="4557.94" y1="1006.09" x2="4622.74" y2="1006.09" style="stroke:#F0F0F0;stroke-width:7.29"/>
	<line x1="4655.14" y1="1006.09" x2="4719.94" y2="1006.09" style="stroke:#F0F0F0;stroke-width:7.29"/>
	<line x1="4752.34" y1="1006.09" x2="4817.14" y2="1006.09" style="stroke:#F0F0F0;stroke-width:7.29"/>
	<line x1="4849.54" y1="1006.09" x2="4914.34" y2="1006.09" style="stroke:#F0F0F0;stroke-width:7.29"/>
	<line x1="4946.74" y1="1006.09" x2="5011.54" y2="1006.09" style="stroke:#F0F0F0;stroke-width:7.29"/>
	<line x1="5043.94" y1="1006.09" x2="5108.74" y2="1006.09" style="stroke:#F0F0F0;stroke-width:7.29"/>
	<line x1="5141.14" y1="1006.09" x2="5205.94" y2="1006.09" style="stroke:#F0F0F0;stroke-width:7.29"/>
	<line x1="5238.34" y1="1006.09" x2="5243.74" y2="1006.09" style="stroke:#F0F0F0;stroke-width:7.29"/>
	<defs>
		<path id="path_HNdZoEHz" d="M3315.26 1330.59 L3315.26 1330.59 L3379.89 1330.59 L3444.53 1330.59 L3509.16 1330.59 L3573.79 1330.59 L3638.42 1330.59 L3703.05 1330.59 L3767.85 1330.59 L3832.48 1330.59 L3897.11 1330.59 L3961.74 1330.59 L4026.38 1330.59 L4091.01 1330.59 L4155.64 1330.59 L4220.44 1330.59 L4285.07 1330.59 L4349.70 1330.59 L4414.33 1330.59 L4478.96 1330.59 L4543.59 1330.59 L4608.23 1330.59 L4673.02 1330.59 L4737.66 1330.59 L4802.29 1330.59 L4866.92 1330.59 L4931.55 1330.59 L4996.18 1330.59 L5060.98 1330.59 L5125.61 1330.59 L5190.24 1330.59 L5190.24 681.58 L5125.61 681.58 L5060.98 681.58 L4996.18 681.58 L4931.55 681.58 L4866.92 681.58 L4802.29 681.58 L4737.66 681.58 L4673.02 681.58 L4608.23 681.58 L4543.59 681.58 L4478.96 681.58 L4414.33 681.58 L4349.70 681.58 L4285.07 681.58 L4220.44 681.58 L4155.64 681.58 L4091.01 681.58 L4026.38 681.58 L3961.74 681.58 L3897.11 681.58 L3832.48 681.58 L3767.85 681.58 L3703.05 681.58 L3638.42 681.58 L3573.79 681.58 L3509.16 681.58 L3444.53 681.58 L3379.89 681.58 L3315.26 681.58 L3315.26 1330.59 Z" stroke-linejoin="round"/>
	</defs>
	<defs>
		<clipPath id="clipPath_zMKmDinQ">
			<use xlink:href="#path_HNdZoEHz"/>
		</clipPath>
	</defs>
	<use xlink:href="#path_HNdZoEHz" style="stroke:none;fill:#E0E0E0"/>
	<use xlink:href="#path_HNdZoEHz" style="fill:none;stroke:#E0E0E0;stroke-width:14.58" clip-path="url(#clipPath_zMKmDinQ)"/>
	<line x1="3315.26" y1="1006.09" x2="3315.26" y2="2448.39" style="stroke:#FF0000;stroke-width:7.29"/>
	<line x1="3379.89" y1="1006.09" x2="3379.89" y2="1178.89" style="stroke:#FF0000;stroke-width:7.29"/>
	<line x1="3444.53" y1="1006.09" x2="3444.53" y2="824.34" style="stroke:#FF0000;stroke-width:7.29"/>
	<line x1="3509.16" y1="1006.09" x2="3509.16" y2="1397.76" style="stroke:#FF0000;stroke-width:7.29"/>
	<line x1="3573.79" y1="1006.09" x2="3573.79" y2="1172.81" style="stroke:#FF0000;stroke-width:7.29"/>
	<line x1="3638.42" y1="1006.09" x2="3638.42" y2="1476.56" style="stroke:#FF0000;stroke-width:7.29"/>
	<line x1="3703.05" y1="1006.09" x2="3703.05" y2="532.74" style="stroke:#FF0000;stroke-width:7.29"/>
	<line x1="3767.85" y1="1006.09" x2="3767.85" y2="1401.81" style="stroke:#FF0000;stroke-width:7.29"/>
	<line x1="3832.48" y1="1006.09" x2="3832.48" y2="472.50" style="stroke:#FF0000;stroke-width:7.29"/>
	<line x1="3897.11" y1="1006.09" x2="3897.11" y2="929.64" style="stroke:#FF0000;stroke-width:7.29"/>
	<line x1="3961.74" y1="1006.09" x2="3961.74" y2="1079.83" style="stroke:#FF0000;stroke-width:7.29"/>
	<line x1="4026.38" y1="1006.09" x2="4026.38" y2="744.02" style="stroke:#FF0000;stroke-width:7.29"/>
	<line x1="4091.01" y1="1006.09" x2="4091.01" y2="1175.51" style="stroke:#FF0000;stroke-width:7.29"/>
	<line x1="4155.64" y1="1006.09" x2="4155.64" y2="1073.08" style="stroke:#FF0000;stroke-width:7.29"/>
	<line x1="4220.44" y1="1006.09" x2="4220.44" y2="1761.41" style="stroke:#FF0000;stroke-width:7.29"/>
	<line x1="4285.07" y1="1006.09" x2="4285.07" y2="357.07" style="stroke:#FF0000;stroke-width:7.29"/>
	<line x1="4349.70" y1="1006.09" x2="4349.70" y2="941.29" style="stroke:#FF0000;stroke-width:7.29"/>
	<line x1="4414.33" y1="1006.09" x2="4414.33" y2="1357.09" style="stroke:#FF0000;stroke-width:7.29"/>
	<line x1="4478.96" y1="1006.09" x2="4478.96" y2="1066.50" style="stroke:#FF0000;stroke-width:7.29"/>
	<line x1="4543.59" y1="1006.09" x2="4543.59" y2="711.62" style="stroke:#FF0000;stroke-width:7.29"/>
	<line x1="4608.23" y1="1006.09" x2="4608.23" y2="1157.63" style="stroke:#FF0000;stroke-width:7.29"/>
	<line x1="4673.02" y1="1006.09" x2="4673.02" y2="1096.71" style="stroke:#FF0000;stroke-width:7.29"/>
	<line x1="4737.66" y1="1006.09" x2="4737.66" y2="1135.18" style="stroke:#FF0000;stroke-width:7.29"/>
	<line x1="4802.29" y1="1006.09" x2="4802.29" y2="1148.34" style="stroke:#FF0000;stroke-width:7.29"/>
	<line x1="4866.92" y1="1006.09" x2="4866.92" y2="1014.86" style="stroke:#FF0000;stroke-width:7.29"/>
	<line x1="4931.55" y1="1006.09" x2="4931.55" y2="1269.17" style="stroke:#FF0000;stroke-width:7.29"/>
	<line x1="4996.18" y1="1006.09" x2="4996.18" y2="652.22" style="stroke:#FF0000;stroke-width:7.29"/>
	<line x1="5060.98" y1="1006.09" x2="5060.98" y2="1120.84" style="stroke:#FF0000;stroke-width:7.29"/>
	<line x1="5125.61" y1="1006.09" x2="5125.61" y2="1066.16" style="stroke:#FF0000;stroke-width:7.29"/>
	<line x1="5190.24" y1="1006.09" x2="5190.24" y2="985.84" style="stroke:#FF0000;stroke-width:7.29"/>
	<circle cx="3315.09" cy="2448.39" r="16.30" style="fill:#FF0000"/>
	<circle cx="3315.09" cy="2448.39" r="12.66" style="fill:none;stroke:#FF0000;stroke-width:7.29"/>
	<circle cx="3379.73" cy="1178.89" r="16.30" style="fill:#FF0000"/>
	<circle cx="3379.73" cy="1178.89" r="12.66" style="fill:none;stroke:#FF0000;stroke-width:7.29"/>
	<circle cx="3444.36" cy="824.34" r="16.30" style="fill:#FF0000"/>
	<circle cx="3444.36" cy="824.34" r="12.66" style="fill:none;stroke:#FF0000;stroke-width:7.29"/>
	<circle cx="3509.16" cy="1397.93" r="16.30" style="fill:#FF0000"/>
	<circle cx="3509.16" cy="1397.93" r="12.66" style="fill:none;stroke:#FF0000;stroke-width:7.29"/>
	<circle cx="3573.79" cy="1172.81" r="16.30" style="fill:#FF0000"/>
	<circle cx="3573.79" cy="1172.81" r="12.66" style="fill:none;stroke:#FF0000;stroke-width:7.29"/>
	<circle cx="3638.42" cy="1476.56" r="16.30" style="fill:#FF0000"/>
	<circle cx="3638.42" cy="1476.56" r="12.66" style="fill:none;stroke:#FF0000;stroke-width:7.29"/>
	<circle cx="3703.05" cy="532.74" r="16.30" style="fill:#FF0000"/>
	<circle cx="3703.05" cy="532.74" r="12.66" style="fill:none;stroke:#FF0000;stroke-width:7.29"/>
	<circle cx="3767.68" cy="1401.98" r="16.30" style="fill:#FF0000"/>
	<circle cx="3767.68" cy="1401.98" r="12.66" style="fill:none;stroke:#FF0000;stroke-width:7.29"/>
	<circle cx="3832.31" cy="472.67" r="16.30" style="fill:#FF0000"/>
	<circle cx="3832.31" cy="472.67" r="12.66" style="fill:none;stroke:#FF0000;stroke-width:7.29"/>
	<circle cx="3896.94" cy="929.64" r="16.30" style="fill:#FF0000"/>
	<circle cx="3896.94" cy="929.64" r="12.66" style="fill:none;stroke:#FF0000;stroke-width:7.29"/>
	<circle cx="3961.74" cy="1079.83" r="16.30" style="fill:#FF0000"/>
	<circle cx="3961.74" cy="1079.83" r="12.66" style="fill:none;stroke:#FF0000;stroke-width:7.29"/>
	<circle cx="4026.38" cy="744.19" r="16.30" style="fill:#FF0000"/>
	<circle cx="4026.38" cy="744.19" r="12.66" style="fill:none;stroke:#FF0000;stroke-width:7.29"/>
	<circle cx="4091.01" cy="1175.68" r="16.30" style="fill:#FF0000"/>
	<circle cx="4091.01" cy="1175.68" r="12.66" style="fill:none;stroke:#FF0000;stroke-width:7.29"/>
	<circle cx="4155.64" cy="1073.08" r="16.30" style="fill:#FF0000"/>
	<circle cx="4155.64" cy="1073.08" r="12.66" style="fill:none;stroke:#FF0000;stroke-width:7.29"/>
	<circle cx="4220.27" cy="1761.41" r="16.30" style="fill:#FF0000"/>
	<circle cx="4220.27" cy="1761.41" r="12.66" style="fill:none;stroke:#FF0000;stroke-width:7.29"/>
	<circle cx="4284.90" cy="357.07" r="16.30" style="fill:#FF0000"/>
	<circle cx="4284.90" cy="357.07" r="12.66" style="fill:none;stroke:#FF0000;stroke-width:7.29"/>
	<circle cx="4349.53" cy="941.29" r="16.30" style="fill:#FF0000"/>
	<circle cx="4349.53" cy="941.29" r="12.66" style="fill:none;stroke:#FF0000;stroke-width:7.29"/>
	<circle cx="4414.33" cy="1357.09" r="16.30" style="fill:#FF0000"/>
	<circle cx="4414.33" cy="1357.09" r="12.66" style="fill:none;stroke:#FF0000;stroke-width:7.29"/>
	<circle cx="4478.96" cy="1066.50" r="16.30" style="fill:#FF0000"/>
	<circle cx="4478.96" cy="1066.50" r="12.66" style="fill:none;stroke:#FF0000;stroke-width:7.29"/>
	<circle cx="4543.59" cy="711.79" r="16.30" style="fill:#FF0000"/>
	<circle cx="4543.59" cy="711.79" r="12.66" style="fill:none;stroke:#FF0000;stroke-width:7.29"/>
	<circle cx="4608.23" cy="1157.63" r="16.30" style="fill:#FF0000"/>
	<circle cx="4608.23" cy="1157.63" r="12.66" style="fill:none;stroke:#FF0000;stroke-width:7.29"/>
	<circle cx="4672.86" cy="1096.88" r="16.30" style="fill:#FF0000"/>
	<circle cx="4672.86" cy="1096.88" r="12.66" style="fill:none;stroke:#FF0000;stroke-width:7.29"/>
	<circle cx="4737.49" cy="1135.18" r="16.30" style="fill:#FF0000"/>
	<circle cx="4737.49" cy="1135.18" r="12.66" style="fill:none;stroke:#FF0000;stroke-width:7.29"/>
	<circle cx="4802.12" cy="1148.51" r="16.30" style="fill:#FF0000"/>
	<circle cx="4802.12" cy="1148.51" r="12.66" style="fill:none;stroke:#FF0000;stroke-width:7.29"/>
	<circle cx="4866.92" cy="1015.03" r="16.30" style="fill:#FF0000"/>
	<circle cx="4866.92" cy="1015.03" r="12.66" style="fill:none;stroke:#FF0000;stroke-width:7.29"/>
	<circle cx="4931.55" cy="1269.17" r="16.30" style="fill:#FF0000"/>
	<circle cx="4931.55" cy="1269.17" r="12.66" style="fill:none;stroke:#FF0000;stroke-width:7.29"/>
	<circle cx="4996.18" cy="652.22" r="16.30" style="fill:#FF0000"/>
	<circle cx="4996.18" cy="652.22" r="12.66" style="fill:none;stroke:#FF0000;stroke-width:7.29"/>
	<circle cx="5060.81" cy="1121.01" r="16.30" style="fill:#FF0000"/>
	<circle cx="5060.81" cy="1121.01" r="12.66" style="fill:none;stroke:#FF0000;stroke-width:7.29"/>
	<circle cx="5125.44" cy="1066.16" r="16.30" style="fill:#FF0000"/>
	<circle cx="5125.44" cy="1066.16" r="12.66" style="fill:none;stroke:#FF0000;stroke-width:7.29"/>
	<circle cx="5190.08" cy="986.01" r="16.30" style="fill:#FF0000"/>
	<circle cx="5190.08" cy="986.01" r="12.66" style="fill:none;stroke:#FF0000;stroke-width:7.29"/>
	<line x1="3197.14" y1="2813.74" x2="3197.14" y2="303.58" style="stroke:#000000;stroke-width:4.86"/>
	<line x1="3197.14" y1="2760.24" x2="3163.39" y2="2760.24" style="stroke:#000000;stroke-width:4.86"/>
	<text x="3146.51" y="2789.82" style="font-family:'Helvetica';font-size:84.38px;fill:#000000" text-anchor="end">-0.15</text>
	<line x1="3197.14" y1="2175.53" x2="3163.39" y2="2175.53" style="stroke:#000000;stroke-width:4.86"/>
	<text x="3146.51" y="2205.10" style="font-family:'Helvetica';font-size:84.38px;fill:#000000" text-anchor="end">-0.10</text>
	<line x1="3197.14" y1="1590.81" x2="3163.39" y2="1590.81" style="stroke:#000000;stroke-width:4.86"/>
	<text x="3146.51" y="1620.38" style="font-family:'Helvetica';font-size:84.38px;fill:#000000" text-anchor="end">-0.05</text>
	<line x1="3197.14" y1="1006.09" x2="3163.39" y2="1006.09" style="stroke:#000000;stroke-width:4.86"/>
	<text x="3146.51" y="1035.66" style="font-family:'Helvetica';font-size:84.38px;fill:#000000" text-anchor="end">0.00</text>
	<line x1="3197.14" y1="421.37" x2="3163.39" y2="421.37" style="stroke:#000000;stroke-width:4.86"/>
	<text x="3146.51" y="450.94" style="font-family:'Helvetica';font-size:84.38px;fill:#000000" text-anchor="end">0.05</text>
	<text x="2860.90" y="1558.58" style="font-family:'Helvetica';font-size:84.38px;fill:#000000" transform="rotate(-90 2860.90,1558.58)" text-anchor="middle">Autocorrelación Parcial</text>
	<line x1="3197.14" y1="2813.74" x2="5243.74" y2="2813.74" style="stroke:#000000;stroke-width:4.86"/>
	<line x1="3250.46" y1="2813.74" x2="3250.46" y2="2847.49" style="stroke:#000000;stroke-width:4.86"/>
	<text x="3250.46" y="2923.34" style="font-family:'Helvetica';font-size:84.38px;fill:#000000" text-anchor="middle">0</text>
	<line x1="3897.11" y1="2813.74" x2="3897.11" y2="2847.49" style="stroke:#000000;stroke-width:4.86"/>
	<text x="3897.11" y="2923.34" style="font-family:'Helvetica';font-size:84.38px;fill:#000000" text-anchor="middle">10</text>
	<line x1="4543.59" y1="2813.74" x2="4543.59" y2="2847.49" style="stroke:#000000;stroke-width:4.86"/>
	<text x="4543.59" y="2923.34" style="font-family:'Helvetica';font-size:84.38px;fill:#000000" text-anchor="middle">20</text>
	<line x1="5190.24" y1="2813.74" x2="5190.24" y2="2847.49" style="stroke:#000000;stroke-width:4.86"/>
	<text x="5190.24" y="2923.34" style="font-family:'Helvetica';font-size:84.38px;fill:#000000" text-anchor="middle">30</text>
	<text x="4220.44" y="3041.47" style="font-family:'Helvetica';font-size:84.38px;fill:#000000" text-anchor="middle">Rezago</text>
	<text x="4220.44" y="253.55" style="font-family:'Helvetica';font-size:118.13px;fill:#000000" text-anchor="middle">PAC: Retorno S&amp;P500</text>
</svg>
