<?xml version="1.0" encoding="UTF-8" standalone="no"?>
<!-- This is a Stata 18.0 generated SVG file (http://www.stata.com) -->

<svg version="1.1" width="7.500in" height="4.500in" viewBox="0 0 5400 3240" xmlns="http://www.w3.org/2000/svg" xmlns:xlink="http://www.w3.org/1999/xlink">
	<desc>Stata Graph - Graph</desc>
	<rect x="0" y="0" width="5400" height="3240" style="fill:#FFFFFF;stroke:none"/>
	<rect x="0.00" y="0.00" width="5400.00" height="3240.00" style="fill:#FFFFFF"/>
	<rect x="3.24" y="3.24" width="5393.52" height="3233.52" style="fill:none;stroke:#FFFFFF;stroke-width:6.48"/>
	<rect x="492.08" y="309.82" width="4794.53" height="2456.83" style="fill:#FFFFFF"/>
	<rect x="495.32" y="313.06" width="4788.05" height="2450.35" style="fill:none;stroke:#000000;stroke-width:6.48"/>
	<rect x="688.33" y="2725.14" width="249.58" height="41.51" style="fill:#3191FF"/>
	<rect x="690.76" y="2727.57" width="244.72" height="36.65" style="fill:none;stroke:#5FAAFF;stroke-width:4.86"/>
	<rect x="1187.66" y="2756.19" width="249.75" height="10.46" style="fill:#3191FF"/>
	<rect x="1190.09" y="2758.62" width="244.89" height="5.60" style="fill:none;stroke:#5FAAFF;stroke-width:4.86"/>
	<rect x="1437.41" y="2714.85" width="249.58" height="51.81" style="fill:#3191FF"/>
	<rect x="1439.84" y="2717.28" width="244.72" height="46.95" style="fill:none;stroke:#5FAAFF;stroke-width:4.86"/>
	<rect x="1686.99" y="2683.80" width="249.75" height="82.86" style="fill:#3191FF"/>
	<rect x="1689.42" y="2686.23" width="244.89" height="78.00" style="fill:none;stroke:#5FAAFF;stroke-width:4.86"/>
	<rect x="1936.74" y="2673.51" width="249.58" height="93.15" style="fill:#3191FF"/>
	<rect x="1939.17" y="2675.94" width="244.72" height="88.29" style="fill:none;stroke:#5FAAFF;stroke-width:4.86"/>
	<rect x="2186.32" y="2580.36" width="249.75" height="186.30" style="fill:#3191FF"/>
	<rect x="2188.75" y="2582.79" width="244.89" height="181.44" style="fill:none;stroke:#5FAAFF;stroke-width:4.86"/>
	<rect x="2436.07" y="2425.11" width="249.75" height="341.55" style="fill:#3191FF"/>
	<rect x="2438.50" y="2427.54" width="244.89" height="336.69" style="fill:none;stroke:#5FAAFF;stroke-width:4.86"/>
	<rect x="2685.83" y="1876.50" width="249.58" height="890.16" style="fill:#3191FF"/>
	<rect x="2688.25" y="1878.93" width="244.72" height="885.30" style="fill:none;stroke:#5FAAFF;stroke-width:4.86"/>
	<rect x="2935.41" y="831.26" width="249.75" height="1935.39" style="fill:#3191FF"/>
	<rect x="2937.84" y="833.69" width="244.89" height="1930.53" style="fill:none;stroke:#5FAAFF;stroke-width:4.86"/>
	<rect x="3185.16" y="2062.80" width="249.75" height="703.86" style="fill:#3191FF"/>
	<rect x="3187.59" y="2065.23" width="244.89" height="699.00" style="fill:none;stroke:#5FAAFF;stroke-width:4.86"/>
	<rect x="3434.91" y="2280.15" width="249.58" height="486.51" style="fill:#3191FF"/>
	<rect x="3437.34" y="2282.58" width="244.72" height="481.65" style="fill:none;stroke:#5FAAFF;stroke-width:4.86"/>
	<rect x="3684.49" y="2683.80" width="249.75" height="82.86" style="fill:#3191FF"/>
	<rect x="3686.92" y="2686.23" width="244.89" height="78.00" style="fill:none;stroke:#5FAAFF;stroke-width:4.86"/>
	<rect x="3934.24" y="2704.56" width="249.75" height="62.10" style="fill:#3191FF"/>
	<rect x="3936.67" y="2706.99" width="244.89" height="57.24" style="fill:none;stroke:#5FAAFF;stroke-width:4.86"/>
	<rect x="4183.99" y="2694.09" width="249.58" height="72.56" style="fill:#3191FF"/>
	<rect x="4186.42" y="2696.52" width="244.72" height="67.70" style="fill:none;stroke:#5FAAFF;stroke-width:4.86"/>
	<rect x="4433.57" y="2704.56" width="249.75" height="62.10" style="fill:#3191FF"/>
	<rect x="4436.00" y="2706.99" width="244.89" height="57.24" style="fill:none;stroke:#5FAAFF;stroke-width:4.86"/>
	<rect x="4683.32" y="2725.14" width="249.58" height="41.51" style="fill:#3191FF"/>
	<rect x="4685.75" y="2727.57" width="244.72" height="36.65" style="fill:none;stroke:#5FAAFF;stroke-width:4.86"/>
	<rect x="4932.90" y="2735.61" width="249.75" height="31.05" style="fill:#3191FF"/>
	<rect x="4935.33" y="2738.04" width="244.89" height="26.19" style="fill:none;stroke:#5FAAFF;stroke-width:4.86"/>
	<path d=" M688.16 2729.19 L703.18 2729.03 L718.20 2729.70 L733.22 2730.88 L748.24 2732.91 L763.26 2734.09 L778.44 2735.27 L793.46 2737.63 L808.48 2740.84 L823.50 2745.06 L838.52 2750.29 L853.54 2752.65 L868.56 2754.34 L883.58 2754.34 L898.59 2754.00 L913.61 2754.00 L928.63 2754.34 L943.65 2754.84 L958.67 2755.52 L973.86 2756.53 L988.88 2757.71 L1003.89 2759.23 L1018.91 2760.92 L1033.93 2762.94 L1048.95 2765.14 L1063.97 2765.48 L1078.99 2763.28 L1094.01 2761.26 L1109.03 2759.57 L1124.04 2758.05 L1139.06 2756.70 L1154.08 2755.69 L1169.27 2754.84 L1184.29 2754.34 L1199.31 2754.17 L1214.33 2754.00 L1229.34 2754.17 L1244.36 2754.68 L1259.38 2755.35 L1274.40 2756.36 L1289.42 2757.54 L1304.44 2758.56 L1319.46 2757.88 L1334.48 2757.71 L1349.49 2758.05 L1364.51 2758.56 L1379.70 2754.84 L1394.72 2751.64 L1409.74 2748.77 L1424.76 2744.38 L1439.78 2740.50 L1454.79 2735.10 L1469.81 2730.54 L1484.83 2727.00 L1499.85 2722.61 L1514.87 2718.73 L1529.89 2716.03 L1544.91 2714.68 L1559.93 2714.51 L1575.11 2711.98 L1590.13 2709.79 L1605.15 2709.28 L1620.17 2705.40 L1635.19 2701.35 L1650.21 2697.98 L1665.23 2695.44 L1680.24 2693.59 L1695.26 2690.38 L1710.28 2689.37 L1725.30 2687.68 L1740.32 2686.16 L1755.34 2685.32 L1770.53 2685.49 L1785.54 2686.50 L1800.56 2687.34 L1815.58 2688.53 L1830.60 2690.38 L1845.62 2693.08 L1860.64 2698.14 L1875.66 2702.87 L1890.68 2704.56 L1905.69 2707.93 L1920.71 2709.62 L1935.73 2709.79 L1950.75 2710.46 L1965.94 2708.10 L1980.96 2706.24 L1995.98 2703.38 L2010.99 2700.00 L2026.01 2694.43 L2041.03 2686.67 L2056.05 2679.08 L2071.07 2671.65 L2086.09 2662.03 L2101.11 2650.56 L2116.13 2640.94 L2131.14 2627.94 L2146.16 2611.74 L2161.18 2598.92 L2176.37 2590.82 L2191.39 2580.36 L2206.41 2571.92 L2221.43 2566.86 L2236.44 2564.32 L2251.46 2566.18 L2266.48 2568.21 L2281.50 2570.06 L2296.52 2573.61 L2311.54 2573.94 L2326.56 2574.96 L2341.57 2572.76 L2356.59 2570.91 L2371.78 2572.76 L2386.80 2576.14 L2401.82 2574.79 L2416.84 2575.97 L2431.86 2574.45 L2446.88 2570.06 L2461.89 2564.49 L2476.91 2561.12 L2491.93 2552.68 L2506.95 2535.47 L2521.97 2515.05 L2536.99 2492.94 L2552.01 2474.04 L2567.19 2459.36 L2582.21 2439.28 L2597.23 2422.24 L2612.25 2400.30 L2627.27 2373.81 L2642.29 2341.91 L2657.31 2301.75 L2672.33 2263.28 L2687.34 2232.56 L2702.36 2204.21 L2717.38 2177.72 L2732.40 2147.34 L2747.42 2115.62 L2762.44 2078.83 L2777.63 2039.85 L2792.64 1983.15 L2807.66 1908.06 L2822.68 1820.81 L2837.70 1724.29 L2852.72 1629.28 L2867.74 1544.74 L2882.76 1439.61 L2897.78 1329.58 L2912.79 1233.73 L2927.81 1152.56 L2942.83 1081.86 L2957.85 1008.28 L2973.04 935.04 L2988.06 871.93 L3003.08 833.63 L3018.09 813.38 L3033.11 800.04 L3048.13 801.06 L3063.15 814.56 L3078.17 850.16 L3093.19 900.28 L3108.21 958.16 L3123.23 1021.28 L3138.24 1095.69 L3153.26 1187.32 L3168.45 1290.09 L3183.47 1389.15 L3198.49 1470.15 L3213.51 1553.34 L3228.53 1647.34 L3243.54 1746.06 L3258.56 1845.62 L3273.58 1940.29 L3288.60 2008.80 L3303.62 2072.59 L3318.64 2134.69 L3333.66 2177.04 L3348.68 2207.59 L3363.86 2218.89 L3378.88 2225.81 L3393.90 2224.29 L3408.92 2221.26 L3423.94 2218.22 L3438.96 2215.35 L3453.98 2215.35 L3468.99 2221.26 L3484.01 2228.34 L3499.03 2233.41 L3514.05 2240.16 L3529.07 2247.75 L3544.09 2257.37 L3559.11 2275.76 L3574.29 2303.27 L3589.31 2333.31 L3604.33 2365.03 L3619.35 2397.09 L3634.37 2430.34 L3649.39 2466.45 L3664.41 2497.67 L3679.43 2526.19 L3694.44 2549.98 L3709.46 2572.09 L3724.48 2590.65 L3739.50 2609.72 L3754.52 2627.10 L3769.71 2638.41 L3784.73 2651.23 L3799.74 2660.18 L3814.76 2668.11 L3829.78 2673.84 L3844.80 2677.56 L3859.82 2681.10 L3874.84 2680.43 L3889.86 2680.59 L3904.88 2683.29 L3919.89 2688.19 L3934.91 2692.24 L3949.93 2697.47 L3965.12 2703.04 L3980.14 2707.26 L3995.16 2708.94 L4010.18 2708.78 L4025.19 2710.13 L4040.21 2710.29 L4055.23 2710.13 L4070.25 2709.11 L4085.27 2706.24 L4100.29 2700.51 L4115.31 2696.29 L4130.33 2694.26 L4145.34 2694.26 L4160.36 2693.08 L4175.55 2688.53 L4190.57 2682.96 L4205.59 2677.05 L4220.61 2673.34 L4235.63 2671.82 L4250.64 2672.49 L4265.66 2675.36 L4280.68 2680.43 L4295.70 2684.98 L4310.72 2689.71 L4325.74 2696.63 L4340.76 2703.54 L4355.77 2707.43 L4370.96 2712.99 L4385.98 2717.89 L4401.00 2720.08 L4416.02 2721.43 L4431.04 2723.29 L4446.06 2726.49 L4461.08 2729.70 L4476.09 2728.52 L4491.11 2725.82 L4506.13 2722.78 L4521.15 2720.25 L4536.17 2717.04 L4551.19 2714.51 L4566.38 2709.79 L4581.39 2703.71 L4596.41 2698.31 L4611.43 2693.76 L4626.45 2691.39 L4641.47 2690.55 L4656.49 2689.20 L4671.51 2687.34 L4686.52 2687.51 L4701.54 2689.54 L4716.56 2693.08 L4731.58 2696.29 L4746.60 2701.35 L4761.79 2708.10 L4776.81 2716.20 L4791.83 2721.09 L4806.84 2727.34 L4821.86 2734.59 L4836.88 2742.36 L4851.90 2749.44 L4866.92 2755.52 L4881.94 2756.87 L4896.96 2755.01 L4911.98 2752.14 L4926.99 2750.12 L4942.01 2748.77 L4957.03 2748.09 L4972.22 2746.41 L4987.24 2744.38 L5002.26 2742.86 L5017.27 2742.02 L5032.29 2741.01 L5047.31 2738.64 L5062.33 2737.13 L5077.35 2736.28 L5092.37 2736.11 L5107.39 2736.79 L5122.41 2738.14 L5137.43 2740.16 L5152.44 2742.86 L5167.63 2746.41 L5182.65 2750.79" stroke-linejoin="round" style="fill:none;stroke:#FF0000;stroke-width:9.72"/>
	<path d=" M688.16 2766.66 L703.18 2766.66 L718.20 2766.49 L733.22 2766.49 L748.24 2766.49 L763.26 2766.49 L778.44 2766.49 L793.46 2766.49 L808.48 2766.49 L823.50 2766.32 L838.52 2766.32 L853.54 2766.32 L868.56 2766.32 L883.58 2766.32 L898.59 2766.15 L913.61 2766.15 L928.63 2766.15 L943.65 2765.98 L958.67 2765.98 L973.86 2765.81 L988.88 2765.81 L1003.89 2765.64 L1018.91 2765.48 L1033.93 2765.48 L1048.95 2765.31 L1063.97 2765.14 L1078.99 2764.97 L1094.01 2764.80 L1109.03 2764.63 L1124.04 2764.46 L1139.06 2764.29 L1154.08 2763.96 L1169.27 2763.79 L1184.29 2763.45 L1199.31 2763.11 L1214.33 2762.78 L1229.34 2762.44 L1244.36 2762.10 L1259.38 2761.59 L1274.40 2761.09 L1289.42 2760.58 L1304.44 2760.08 L1319.46 2759.57 L1334.48 2758.89 L1349.49 2758.22 L1364.51 2757.54 L1379.70 2756.70 L1394.72 2755.86 L1409.74 2755.01 L1424.76 2754.00 L1439.78 2752.99 L1454.79 2751.81 L1469.81 2750.63 L1484.83 2749.28 L1499.85 2747.93 L1514.87 2746.41 L1529.89 2744.89 L1544.91 2743.20 L1559.93 2741.51 L1575.11 2739.49 L1590.13 2737.46 L1605.15 2735.44 L1620.17 2733.08 L1635.19 2730.71 L1650.21 2728.18 L1665.23 2725.31 L1680.24 2722.44 L1695.26 2719.41 L1710.28 2716.20 L1725.30 2712.83 L1740.32 2709.28 L1755.34 2705.57 L1770.53 2701.52 L1785.54 2697.30 L1800.56 2692.91 L1815.58 2688.36 L1830.60 2683.46 L1845.62 2678.40 L1860.64 2673.17 L1875.66 2667.60 L1890.68 2661.69 L1905.69 2655.62 L1920.71 2649.38 L1935.73 2642.79 L1950.75 2635.88 L1965.94 2628.62 L1980.96 2621.19 L1995.98 2613.43 L2010.99 2605.50 L2026.01 2597.06 L2041.03 2588.46 L2056.05 2579.51 L2071.07 2570.40 L2086.09 2560.78 L2101.11 2550.99 L2116.13 2540.70 L2131.14 2530.24 L2146.16 2519.61 L2161.18 2508.47 L2176.37 2497.16 L2191.39 2485.52 L2206.41 2473.54 L2221.43 2461.39 L2236.44 2448.90 L2251.46 2436.07 L2266.48 2423.08 L2281.50 2409.75 L2296.52 2396.25 L2311.54 2382.58 L2326.56 2368.57 L2341.57 2354.40 L2356.59 2340.06 L2371.78 2325.54 L2386.80 2310.86 L2401.82 2296.01 L2416.84 2281.16 L2431.86 2265.98 L2446.88 2250.96 L2461.89 2235.60 L2476.91 2220.41 L2491.93 2205.06 L2506.95 2189.87 L2521.97 2174.51 L2536.99 2159.32 L2552.01 2144.14 L2567.19 2129.12 L2582.21 2114.10 L2597.23 2099.25 L2612.25 2084.74 L2627.27 2070.23 L2642.29 2055.88 L2657.31 2041.88 L2672.33 2028.21 L2687.34 2014.71 L2702.36 2001.71 L2717.38 1988.89 L2732.40 1976.40 L2747.42 1964.42 L2762.44 1952.78 L2777.63 1941.64 L2792.64 1931.01 L2807.66 1920.71 L2822.68 1910.93 L2837.70 1901.81 L2852.72 1893.21 L2867.74 1885.11 L2882.76 1877.51 L2897.78 1870.59 L2912.79 1864.35 L2927.81 1858.61 L2942.83 1853.55 L2957.85 1849.16 L2973.04 1845.45 L2988.06 1842.41 L3003.08 1839.88 L3018.09 1838.19 L3033.11 1837.18 L3048.13 1836.84 L3063.15 1837.18 L3078.17 1838.19 L3093.19 1839.88 L3108.21 1842.24 L3123.23 1845.11 L3138.24 1848.83 L3153.26 1853.21 L3168.45 1858.28 L3183.47 1863.84 L3198.49 1870.09 L3213.51 1877.01 L3228.53 1884.43 L3243.54 1892.53 L3258.56 1901.14 L3273.58 1910.25 L3288.60 1920.04 L3303.62 1930.16 L3318.64 1940.79 L3333.66 1951.93 L3348.68 1963.58 L3363.86 1975.56 L3378.88 1987.88 L3393.90 2000.70 L3408.92 2013.69 L3423.94 2027.19 L3438.96 2040.86 L3453.98 2054.87 L3468.99 2069.04 L3484.01 2083.56 L3499.03 2098.24 L3514.05 2113.09 L3529.07 2127.94 L3544.09 2142.96 L3559.11 2158.14 L3574.29 2173.33 L3589.31 2188.69 L3604.33 2204.04 L3619.35 2219.23 L3634.37 2234.59 L3649.39 2249.78 L3664.41 2264.96 L3679.43 2279.98 L3694.44 2295.00 L3709.46 2309.68 L3724.48 2324.53 L3739.50 2339.04 L3754.52 2353.39 L3769.71 2367.56 L3784.73 2381.57 L3799.74 2395.24 L3814.76 2408.74 L3829.78 2422.07 L3844.80 2435.06 L3859.82 2447.89 L3874.84 2460.38 L3889.86 2472.69 L3904.88 2484.68 L3919.89 2496.32 L3934.91 2507.63 L3949.93 2518.76 L3965.12 2529.56 L3980.14 2540.03 L3995.16 2550.15 L4010.18 2560.11 L4025.19 2569.56 L4040.21 2578.84 L4055.23 2587.78 L4070.25 2596.56 L4085.27 2604.82 L4100.29 2612.93 L4115.31 2620.69 L4130.33 2628.11 L4145.34 2635.37 L4160.36 2642.29 L4175.55 2648.87 L4190.57 2655.28 L4205.59 2661.36 L4220.61 2667.09 L4235.63 2672.66 L4250.64 2678.06 L4265.66 2683.13 L4280.68 2688.02 L4295.70 2692.58 L4310.72 2697.13 L4325.74 2701.18 L4340.76 2705.23 L4355.77 2708.94 L4370.96 2712.66 L4385.98 2716.03 L4401.00 2719.24 L4416.02 2722.28 L4431.04 2725.14 L4446.06 2727.84 L4461.08 2730.54 L4476.09 2732.91 L4491.11 2735.27 L4506.13 2737.29 L4521.15 2739.32 L4536.17 2741.34 L4551.19 2743.03 L4566.38 2744.72 L4581.39 2746.41 L4596.41 2747.76 L4611.43 2749.28 L4626.45 2750.46 L4641.47 2751.64 L4656.49 2752.82 L4671.51 2753.83 L4686.52 2754.84 L4701.54 2755.86 L4716.56 2756.70 L4731.58 2757.38 L4746.60 2758.22 L4761.79 2758.89 L4776.81 2759.40 L4791.83 2760.08 L4806.84 2760.58 L4821.86 2761.09 L4836.88 2761.59 L4851.90 2761.93 L4866.92 2762.44 L4881.94 2762.78 L4896.96 2763.11 L4911.98 2763.45 L4926.99 2763.79 L4942.01 2763.96 L4957.03 2764.29 L4972.22 2764.46 L4987.24 2764.63 L5002.26 2764.80 L5017.27 2764.97 L5032.29 2765.14 L5047.31 2765.31 L5062.33 2765.48 L5077.35 2765.48 L5092.37 2765.64 L5107.39 2765.81 L5122.41 2765.81 L5137.43 2765.98 L5152.44 2765.98 L5167.63 2766.15 L5182.65 2766.15" stroke-linejoin="round" style="fill:none;stroke:#0000FF;stroke-width:9.72"/>
	<line x1="492.08" y1="2766.66" x2="492.08" y2="309.82" style="stroke:#000000;stroke-width:6.48"/>
	<line x1="492.08" y1="2766.66" x2="447.19" y2="2766.66" style="stroke:#000000;stroke-width:6.48"/>
	<text x="424.58" y="2806.09" style="font-family:'Helvetica';font-size:112.56px;fill:#000000" text-anchor="end">0</text>
	<line x1="492.08" y1="2170.29" x2="447.19" y2="2170.29" style="stroke:#000000;stroke-width:6.48"/>
	<text x="424.58" y="2209.73" style="font-family:'Helvetica';font-size:112.56px;fill:#000000" text-anchor="end">.1</text>
	<line x1="492.08" y1="1573.76" x2="447.19" y2="1573.76" style="stroke:#000000;stroke-width:6.48"/>
	<text x="424.58" y="1613.20" style="font-family:'Helvetica';font-size:112.56px;fill:#000000" text-anchor="end">.2</text>
	<line x1="492.08" y1="977.40" x2="447.19" y2="977.40" style="stroke:#000000;stroke-width:6.48"/>
	<text x="424.58" y="1016.84" style="font-family:'Helvetica';font-size:112.56px;fill:#000000" text-anchor="end">.3</text>
	<line x1="492.08" y1="381.04" x2="447.19" y2="381.04" style="stroke:#000000;stroke-width:6.48"/>
	<text x="424.58" y="420.47" style="font-family:'Helvetica';font-size:112.56px;fill:#000000" text-anchor="end">.4</text>
	<text x="214.55" y="1538.16" style="font-family:'Helvetica';font-size:112.56px;fill:#000000" transform="rotate(-90 214.55,1538.16)" text-anchor="middle">Densidad del Ciclo</text>
	<line x1="492.08" y1="2766.66" x2="5286.60" y2="2766.66" style="stroke:#000000;stroke-width:6.48"/>
	<line x1="882.23" y1="2766.66" x2="882.23" y2="2811.54" style="stroke:#000000;stroke-width:6.48"/>
	<text x="882.23" y="2912.86" style="font-family:'Helvetica';font-size:112.56px;fill:#000000" text-anchor="middle">-10</text>
	<line x1="1965.43" y1="2766.66" x2="1965.43" y2="2811.54" style="stroke:#000000;stroke-width:6.48"/>
	<text x="1965.43" y="2912.86" style="font-family:'Helvetica';font-size:112.56px;fill:#000000" text-anchor="middle">-5</text>
	<line x1="3048.81" y1="2766.66" x2="3048.81" y2="2811.54" style="stroke:#000000;stroke-width:6.48"/>
	<text x="3048.81" y="2912.86" style="font-family:'Helvetica';font-size:112.56px;fill:#000000" text-anchor="middle">0</text>
	<line x1="4132.01" y1="2766.66" x2="4132.01" y2="2811.54" style="stroke:#000000;stroke-width:6.48"/>
	<text x="4132.01" y="2912.86" style="font-family:'Helvetica';font-size:112.56px;fill:#000000" text-anchor="middle">5</text>
	<line x1="5215.39" y1="2766.66" x2="5215.39" y2="2811.54" style="stroke:#000000;stroke-width:6.48"/>
	<text x="5215.39" y="2912.86" style="font-family:'Helvetica';font-size:112.56px;fill:#000000" text-anchor="middle">10</text>
	<text x="2889.34" y="3070.31" style="font-family:'Helvetica';font-size:112.56px;fill:#000000" text-anchor="middle">Variación cíclica</text>
	<text x="2889.34" y="243.10" style="font-family:'Helvetica';font-size:157.44px;fill:#000000" text-anchor="middle">Histograma del Componente cíclico del Índice</text>
</svg>
