<?xml version="1.0" encoding="UTF-8" standalone="no"?>
<!-- This is a Stata 18.0 generated SVG file (http://www.stata.com) -->

<svg version="1.1" width="7.500in" height="4.500in" viewBox="0 0 5400 3240" xmlns="http://www.w3.org/2000/svg" xmlns:xlink="http://www.w3.org/1999/xlink">
	<desc>Stata Graph - Graph</desc>
	<rect x="0" y="0" width="5400" height="3240" style="fill:#FFFFFF;stroke:none"/>
	<rect x="0.00" y="0.00" width="5400.00" height="3240.00" style="fill:#FFFFFF"/>
	<rect x="3.24" y="3.24" width="5393.52" height="3233.52" style="fill:none;stroke:#FFFFFF;stroke-width:6.48"/>
	<rect x="71.21" y="71.21" width="2628.79" height="3097.58" style="fill:#FFFFFF"/>
	<rect x="73.64" y="73.64" width="2623.93" height="3092.71" style="fill:none;stroke:#FFFFFF;stroke-width:4.86"/>
	<rect x="360.96" y="303.58" width="2253.99" height="2510.16" style="fill:#FFFFFF"/>
	<rect x="363.39" y="306.01" width="2249.13" height="2505.30" style="fill:none;stroke:#000000;stroke-width:4.86"/>
	<path d=" M422.38 1260.56 L430.65 1312.71 L438.75 1353.54 L446.85 1437.41 L454.95 1351.52 L463.05 1223.10 L471.32 1274.06 L479.42 1451.59 L487.52 1378.86 L495.62 1348.31 L503.72 1505.42 L511.99 1399.11 L520.09 1451.93 L528.19 1452.26 L536.29 1317.60 L544.39 1390.67 L552.49 1357.26 L560.76 1485.00 L568.86 1532.42 L576.96 1291.95 L585.06 1447.20 L593.16 1434.38 L601.42 1444.67 L609.53 1276.76 L617.63 1151.21 L625.73 1135.18 L633.83 1303.93 L642.09 1314.06 L650.19 1371.60 L658.29 1145.31 L666.39 1224.62 L674.49 1353.71 L682.76 1219.05 L690.86 1318.11 L698.96 1232.04 L707.06 1475.21 L715.16 1462.56 L723.43 1532.93 L731.53 1190.87 L739.63 1227.66 L747.73 1304.44 L755.83 1468.80 L764.10 1317.60 L772.20 1318.11 L780.30 1366.88 L788.40 1334.98 L796.50 1112.57 L804.77 1288.41 L812.87 1180.91 L820.97 1182.09 L829.07 1329.75 L837.17 1358.27 L845.44 1301.06 L853.54 625.72 L861.64 1376.16 L869.74 1215.51 L877.84 1327.05 L885.94 1164.21 L894.21 1340.38 L902.31 1008.28 L910.41 1327.05 L918.51 1274.91 L926.61 1229.51 L934.88 1121.18 L942.98 1344.77 L951.08 1507.78 L959.18 1147.16 L967.28 1194.41 L975.54 1189.01 L983.64 1270.69 L991.74 1132.14 L999.84 1535.63 L1007.94 1401.13 L1016.21 1365.19 L1024.31 1342.74 L1032.41 1341.90 L1040.51 1260.73 L1048.61 1627.09 L1056.88 1266.30 L1064.98 1369.74 L1073.08 1354.56 L1081.18 1367.55 L1089.28 1537.65 L1097.55 2625.92 L1105.65 1077.64 L1113.75 1430.83 L1121.85 901.46 L1129.95 1352.03 L1138.22 1364.68 L1146.32 1413.96 L1154.42 1542.54 L1162.52 1215.84 L1170.62 1187.16 L1178.89 1532.25 L1186.99 1315.91 L1195.09 945.68 L1203.19 1324.35 L1211.29 1141.09 L1219.39 1557.39 L1227.66 1655.10 L1235.76 1070.04 L1243.86 1218.38 L1251.96 1279.63 L1260.06 1381.39 L1268.33 1385.61 L1276.43 1197.28 L1284.53 1199.31 L1292.63 1166.57 L1300.72 1461.71 L1308.99 1153.57 L1317.09 1535.79 L1325.19 1083.71 L1333.29 1506.26 L1341.39 1122.02 L1349.66 1215.00 L1357.76 1430.33 L1365.86 1261.07 L1373.96 1182.77 L1382.06 1387.63 L1390.33 1436.23 L1398.43 1357.76 L1406.53 1279.13 L1414.63 1171.46 L1422.73 1386.62 L1431.00 1437.75 L1439.10 1606.16 L1447.20 1021.78 L1455.30 1249.93 L1463.40 1453.28 L1471.67 1426.28 L1479.77 1245.88 L1487.87 1159.31 L1495.97 1240.48 L1504.07 1262.76 L1512.34 1282.50 L1520.44 1236.09 L1528.54 1237.78 L1536.64 967.78 L1544.74 1712.98 L1552.84 1256.51 L1561.11 1065.82 L1569.21 1188.00 L1577.31 1212.64 L1585.41 1291.44 L1593.51 1303.59 L1601.78 1257.69 L1609.88 1568.03 L1617.98 1341.23 L1626.08 1178.55 L1634.18 1338.53 L1642.44 1439.27 L1650.54 1229.34 L1658.64 1365.02 L1666.74 1362.32 L1674.84 1457.16 L1683.11 991.41 L1691.21 1487.36 L1699.31 1342.24 L1707.41 1336.67 L1715.51 1316.59 L1723.78 1215.34 L1731.88 1585.41 L1739.98 1024.65 L1748.08 1498.16 L1756.18 1292.79 L1764.45 1403.33 L1772.55 1405.52 L1780.65 1140.41 L1788.75 1116.62 L1796.85 1727.66 L1805.12 952.26 L1813.22 1332.79 L1821.32 1073.59 L1829.42 1061.44 L1837.52 1057.72 L1845.79 1711.80 L1853.89 1182.09 L1861.99 1085.40 L1870.09 1571.74 L1878.19 1475.89 L1886.29 1333.13 L1894.56 1326.71 L1902.66 1532.93 L1910.76 1171.63 L1918.86 1515.88 L1926.96 1584.39 L1935.23 1523.64 L1943.33 937.07 L1951.43 1438.93 L1959.53 1436.06 L1967.63 1449.06 L1975.89 1349.49 L1983.99 1108.35 L1992.09 1144.80 L2000.19 1166.74 L2008.29 1303.43 L2016.56 1492.09 L2024.66 1295.83 L2032.76 1217.36 L2040.86 1709.27 L2048.96 1323.68 L2057.23 1458.34 L2065.33 1166.74 L2073.43 1289.93 L2081.53 1517.23 L2089.63 1238.96 L2097.90 2308.50 L2106.00 1508.79 L2114.10 1227.32 L2122.20 1387.63 L2130.30 1443.49 L2138.57 1009.46 L2146.67 1261.41 L2154.77 1171.29 L2162.87 1721.93 L2170.97 1324.35 L2179.24 1438.26 L2187.34 1334.81 L2195.44 742.50 L2203.54 1466.10 L2211.64 1282.33 L2219.91 1108.52 L2228.01 1472.68 L2236.11 1763.10 L2244.21 1282.16 L2252.31 1402.82 L2260.41 973.01 L2268.68 986.01 L2276.78 1396.24 L2284.88 1473.02 L2292.98 1102.44 L2301.07 580.33 L2309.34 1128.09 L2317.44 1477.41 L2325.54 777.94 L2333.64 1275.58 L2341.74 1427.46 L2350.01 1382.91 L2358.11 1296.17 L2366.21 1104.97 L2374.31 1292.96 L2382.41 1322.49 L2390.68 1514.70 L2398.78 1569.21 L2406.88 1379.03 L2414.98 1703.03 L2423.08 2036.48" stroke-linejoin="round" style="fill:none;stroke:#0080FF;stroke-width:7.29"/>
	<path d=" M414.28 1318.44 L422.38 1318.44 L430.65 1318.44 L438.75 1318.44 L446.85 1318.44 L454.95 1318.44 L463.05 1318.44 L471.32 1318.44 L479.42 1318.44 L487.52 1318.44 L495.62 1318.44 L503.72 1318.44 L511.99 1318.44 L520.09 1318.44 L528.19 1318.44 L536.29 1318.44 L544.39 1318.44 L552.49 1318.44 L560.76 1318.44 L568.86 1318.44 L576.96 1318.44 L585.06 1318.44 L593.16 1318.44 L601.42 1318.44 L609.53 1318.44 L617.63 1318.44 L625.73 1318.44 L633.83 1318.44 L642.09 1318.44 L650.19 1318.44 L658.29 1318.44 L666.39 1318.44 L674.49 1318.44 L682.76 1318.44 L690.86 1318.44 L698.96 1318.44 L707.06 1318.44 L715.16 1318.44 L723.43 1318.44 L731.53 1318.44 L739.63 1318.44 L747.73 1318.44 L755.83 1318.44 L764.10 1318.44 L772.20 1318.44 L780.30 1318.44 L788.40 1318.44 L796.50 1318.44 L804.77 1318.44 L812.87 1318.44 L820.97 1318.44 L829.07 1318.44 L837.17 1318.44 L845.44 1318.44 L853.54 1318.44 L861.64 1318.44 L869.74 1318.44 L877.84 1318.44 L885.94 1318.44 L894.21 1318.44 L902.31 1318.44 L910.41 1318.44 L918.51 1318.44 L926.61 1318.44 L934.88 1318.44 L942.98 1318.44 L951.08 1318.44 L959.18 1318.44 L967.28 1318.44 L975.54 1318.44 L983.64 1318.44 L991.74 1318.44 L999.84 1318.44 L1007.94 1318.44 L1016.21 1318.44 L1024.31 1318.44 L1032.41 1318.44 L1040.51 1318.44 L1048.61 1318.44 L1056.88 1318.44 L1064.98 1318.44 L1073.08 1318.44 L1081.18 1318.44 L1089.28 1318.44 L1097.55 1318.44 L1105.65 1318.44 L1113.75 1318.44 L1121.85 1318.44 L1129.95 1318.44 L1138.22 1318.44 L1146.32 1318.44 L1154.42 1318.44 L1162.52 1318.44 L1170.62 1318.44 L1178.89 1318.44 L1186.99 1318.44 L1195.09 1318.44 L1203.19 1318.44 L1211.29 1318.44 L1219.39 1318.44 L1227.66 1318.44 L1235.76 1318.44 L1243.86 1318.44 L1251.96 1318.44 L1260.06 1318.44 L1268.33 1318.44 L1276.43 1318.44 L1284.53 1318.44 L1292.63 1318.44 L1300.72 1318.44 L1308.99 1318.44 L1317.09 1318.44 L1325.19 1318.44 L1333.29 1318.44 L1341.39 1318.44 L1349.66 1318.44 L1357.76 1318.44 L1365.86 1318.44 L1373.96 1318.44 L1382.06 1318.44 L1390.33 1318.44 L1398.43 1318.44 L1406.53 1318.44 L1414.63 1318.44 L1422.73 1318.44 L1431.00 1318.44 L1439.10 1318.44 L1447.20 1318.44 L1455.30 1318.44 L1463.40 1318.44 L1471.67 1318.44 L1479.77 1318.44 L1487.87 1318.44 L1495.97 1318.44 L1504.07 1318.44 L1512.34 1318.44 L1520.44 1318.44 L1528.54 1318.44 L1536.64 1318.44 L1544.74 1318.44 L1552.84 1318.44 L1561.11 1318.44 L1569.21 1318.44 L1577.31 1318.44 L1585.41 1318.44 L1593.51 1318.44 L1601.78 1318.44 L1609.88 1318.44 L1617.98 1318.44 L1626.08 1318.44 L1634.18 1318.44 L1642.44 1318.44 L1650.54 1318.44 L1658.64 1318.44 L1666.74 1318.44 L1674.84 1318.44 L1683.11 1318.44 L1691.21 1318.44 L1699.31 1318.44 L1707.41 1318.44 L1715.51 1318.44 L1723.78 1318.44 L1731.88 1318.44 L1739.98 1318.44 L1748.08 1318.44 L1756.18 1318.44 L1764.45 1318.44 L1772.55 1318.44 L1780.65 1318.44 L1788.75 1318.44 L1796.85 1318.44 L1805.12 1318.44 L1813.22 1318.44 L1821.32 1318.44 L1829.42 1318.44 L1837.52 1318.44 L1845.79 1318.44 L1853.89 1318.44 L1861.99 1318.44 L1870.09 1318.44 L1878.19 1318.44 L1886.29 1318.44 L1894.56 1318.44 L1902.66 1318.44 L1910.76 1318.44 L1918.86 1318.44 L1926.96 1318.44 L1935.23 1318.44 L1943.33 1318.44 L1951.43 1318.44 L1959.53 1318.44 L1967.63 1318.44 L1975.89 1318.44 L1983.99 1318.44 L1992.09 1318.44 L2000.19 1318.44 L2008.29 1318.44 L2016.56 1318.44 L2024.66 1318.44 L2032.76 1318.44 L2040.86 1318.44 L2048.96 1318.44 L2057.23 1318.44 L2065.33 1318.44 L2073.43 1318.44 L2081.53 1318.44 L2089.63 1318.44 L2097.90 1318.44 L2106.00 1318.44 L2114.10 1318.44 L2122.20 1318.44 L2130.30 1318.44 L2138.57 1318.44 L2146.67 1318.44 L2154.77 1318.44 L2162.87 1318.44 L2170.97 1318.44 L2179.24 1318.44 L2187.34 1318.44 L2195.44 1318.44 L2203.54 1318.44 L2211.64 1318.44 L2219.91 1318.44 L2228.01 1318.44 L2236.11 1318.44 L2244.21 1318.44 L2252.31 1318.44 L2260.41 1318.44 L2268.68 1318.44 L2276.78 1318.44 L2284.88 1318.44 L2292.98 1318.44 L2301.07 1318.44 L2309.34 1318.44 L2317.44 1318.44 L2325.54 1318.44 L2333.64 1318.44 L2341.74 1318.44 L2350.01 1318.44 L2358.11 1318.44 L2366.21 1318.44 L2374.31 1318.44 L2382.41 1318.44 L2390.68 1318.44 L2398.78 1318.44 L2406.88 1318.44 L2414.98 1318.44 L2423.08 1318.44" stroke-linejoin="round" style="fill:none;stroke:#D41159;stroke-width:7.29"/>
	<line x1="360.96" y1="2813.74" x2="360.96" y2="303.58" style="stroke:#000000;stroke-width:4.86"/>
	<line x1="360.96" y1="2760.24" x2="327.21" y2="2760.24" style="stroke:#000000;stroke-width:4.86"/>
	<text x="310.33" y="2789.82" style="font-family:'Helvetica';font-size:84.38px;fill:#000000" text-anchor="end">-3</text>
	<line x1="360.96" y1="2279.64" x2="327.21" y2="2279.64" style="stroke:#000000;stroke-width:4.86"/>
	<text x="310.33" y="2309.22" style="font-family:'Helvetica';font-size:84.38px;fill:#000000" text-anchor="end">-2</text>
	<line x1="360.96" y1="1799.04" x2="327.21" y2="1799.04" style="stroke:#000000;stroke-width:4.86"/>
	<text x="310.33" y="1828.62" style="font-family:'Helvetica';font-size:84.38px;fill:#000000" text-anchor="end">-1</text>
	<line x1="360.96" y1="1318.28" x2="327.21" y2="1318.28" style="stroke:#000000;stroke-width:4.86"/>
	<text x="310.33" y="1347.85" style="font-family:'Helvetica';font-size:84.38px;fill:#000000" text-anchor="end">0</text>
	<line x1="360.96" y1="837.68" x2="327.21" y2="837.68" style="stroke:#000000;stroke-width:4.86"/>
	<text x="310.33" y="867.25" style="font-family:'Helvetica';font-size:84.38px;fill:#000000" text-anchor="end">1</text>
	<line x1="360.96" y1="357.07" x2="327.21" y2="357.07" style="stroke:#000000;stroke-width:4.86"/>
	<text x="310.33" y="386.65" style="font-family:'Helvetica';font-size:84.38px;fill:#000000" text-anchor="end">2</text>
	<line x1="360.96" y1="2813.74" x2="2614.95" y2="2813.74" style="stroke:#000000;stroke-width:4.86"/>
	<line x1="609.53" y1="2813.74" x2="609.53" y2="2847.49" style="stroke:#000000;stroke-width:4.86"/>
	<text x="609.53" y="2923.34" style="font-family:'Helvetica';font-size:84.38px;fill:#000000" text-anchor="middle">2005m1</text>
	<line x1="1097.55" y1="2813.74" x2="1097.55" y2="2847.49" style="stroke:#000000;stroke-width:4.86"/>
	<text x="1097.55" y="2923.34" style="font-family:'Helvetica';font-size:84.38px;fill:#000000" text-anchor="middle">2010m1</text>
	<line x1="1585.58" y1="2813.74" x2="1585.58" y2="2847.49" style="stroke:#000000;stroke-width:4.86"/>
	<text x="1585.58" y="2923.34" style="font-family:'Helvetica';font-size:84.38px;fill:#000000" text-anchor="middle">2015m1</text>
	<line x1="2073.43" y1="2813.74" x2="2073.43" y2="2847.49" style="stroke:#000000;stroke-width:4.86"/>
	<text x="2073.43" y="2923.34" style="font-family:'Helvetica';font-size:84.38px;fill:#000000" text-anchor="middle">2020m1</text>
	<line x1="2561.46" y1="2813.74" x2="2561.46" y2="2847.49" style="stroke:#000000;stroke-width:4.86"/>
	<text x="2561.46" y="2923.34" style="font-family:'Helvetica';font-size:84.38px;fill:#000000" text-anchor="middle">2025m1</text>
	<text x="1487.87" y="3041.47" style="font-family:'Helvetica';font-size:84.38px;fill:#000000" text-anchor="middle">Periodo</text>
	<text x="1487.87" y="253.55" style="font-family:'Helvetica';font-size:118.13px;fill:#000000" text-anchor="middle">Error de predicción a un periodo</text>
	<rect x="2700.00" y="71.21" width="2628.79" height="3097.58" style="fill:#FFFFFF"/>
	<rect x="2702.43" y="73.64" width="2623.93" height="3092.71" style="fill:none;stroke:#FFFFFF;stroke-width:4.86"/>
	<rect x="2989.58" y="303.58" width="2254.16" height="2510.16" style="fill:#FFFFFF"/>
	<rect x="2992.00" y="306.01" width="2249.30" height="2505.30" style="fill:none;stroke:#000000;stroke-width:4.86"/>
	<path d=" M3059.27 1218.04 L3067.37 1308.15 L3075.64 1429.14 L3083.74 1429.31 L3091.84 1220.57 L3099.94 1140.41 L3108.04 1363.33 L3116.31 1455.64 L3124.41 1368.06 L3132.51 1489.22 L3140.61 1541.03 L3148.71 1487.19 L3156.81 1538.49 L3165.08 1403.49 L3173.18 1344.60 L3181.28 1384.09 L3189.38 1485.51 L3197.48 1649.87 L3205.74 1461.88 L3213.84 1380.88 L3221.94 1507.78 L3230.04 1510.14 L3238.14 1357.43 L3246.41 1081.52 L3254.51 946.35 L3262.61 1095.19 L3270.71 1259.55 L3278.81 1326.88 L3287.08 1161.34 L3295.18 1029.04 L3303.28 1226.31 L3311.38 1217.53 L3319.48 1186.65 L3327.75 1197.62 L3335.85 1351.86 L3343.95 1564.82 L3352.05 1625.40 L3360.15 1361.31 L3368.42 1073.76 L3376.52 1180.41 L3384.62 1412.78 L3392.72 1420.37 L3400.82 1281.83 L3409.09 1326.71 L3417.19 1345.11 L3425.29 1097.89 L3433.39 1056.21 L3441.49 1120.67 L3449.76 1005.92 L3457.86 1151.72 L3465.96 1328.74 L3474.06 1303.76 L3482.16 599.91 L3490.26 623.87 L3498.53 1234.24 L3506.63 1180.91 L3514.73 1138.22 L3522.83 1144.13 L3530.93 1005.07 L3539.19 966.09 L3547.29 1241.49 L3555.39 1151.55 L3563.49 998.32 L3571.59 1103.12 L3579.86 1489.39 L3587.96 1309.33 L3596.06 985.67 L3604.16 1027.18 L3612.26 1099.57 L3620.53 1051.48 L3628.63 1295.49 L3636.73 1586.08 L3644.83 1415.64 L3652.93 1352.87 L3661.20 1328.40 L3669.30 1249.09 L3677.40 1516.73 L3685.50 1553.18 L3693.60 1275.92 L3701.87 1368.56 L3709.97 1359.45 L3718.07 1538.16 L3726.17 2760.24 L3734.27 2379.21 L3742.54 1148.68 L3750.64 993.26 L3758.74 886.28 L3766.84 1356.24 L3774.94 1416.15 L3783.21 1576.46 L3791.31 1413.62 L3799.41 1049.12 L3807.51 1355.40 L3815.61 1500.02 L3823.88 924.41 L3831.98 927.28 L3840.08 1120.16 L3848.18 1321.48 L3856.28 1843.26 L3864.38 1383.08 L3872.64 938.42 L3880.74 1144.46 L3888.84 1304.94 L3896.94 1407.88 L3905.04 1230.19 L3913.31 1050.81 L3921.41 1019.25 L3929.51 1286.89 L3937.61 1258.71 L3945.71 1331.27 L3953.98 1261.41 L3962.08 1238.46 L3970.18 1269.00 L3978.28 998.66 L3986.38 1276.09 L3994.65 1325.87 L4002.75 1115.27 L4010.85 1204.20 L4018.95 1459.18 L4027.05 1418.18 L4035.32 1280.14 L4043.42 1106.49 L4051.52 1202.68 L4059.62 1463.74 L4067.72 1672.14 L4075.99 1278.11 L4084.09 925.59 L4092.19 1344.26 L4100.29 1518.41 L4108.39 1310.34 L4116.66 1058.57 L4124.76 1057.39 L4132.86 1153.24 L4140.96 1193.74 L4149.06 1166.91 L4157.33 1127.59 L4165.43 869.74 L4173.52 1336.16 L4181.63 1593.34 L4189.73 987.02 L4197.83 902.47 L4206.09 1058.57 L4214.19 1157.63 L4222.29 1243.52 L4230.39 1206.73 L4238.49 1462.73 L4246.76 1538.16 L4254.86 1166.91 L4262.96 1174.67 L4271.06 1416.66 L4279.16 1314.90 L4287.43 1243.69 L4295.53 1365.69 L4303.63 1450.58 L4311.73 1095.53 L4319.83 1129.78 L4328.10 1448.04 L4336.20 1318.28 L4344.30 1300.56 L4352.40 1179.06 L4360.50 1445.51 L4368.77 1240.82 L4376.87 1189.69 L4384.97 1415.48 L4393.07 1341.90 L4401.17 1439.27 L4409.44 1188.68 L4417.54 930.32 L4425.64 1492.93 L4433.74 1290.77 L4441.84 967.11 L4450.11 1056.54 L4458.21 824.85 L4466.31 803.93 L4474.41 1429.14 L4482.51 1491.41 L4490.77 939.77 L4498.88 1320.64 L4506.98 1651.56 L4515.08 1431.84 L4523.18 1301.91 L4531.27 1495.13 L4539.54 1328.23 L4547.64 1342.58 L4555.74 1706.74 L4563.84 1704.88 L4571.94 1096.88 L4580.21 1059.41 L4588.31 1500.19 L4596.41 1508.46 L4604.51 1424.25 L4612.61 1104.81 L4620.88 930.99 L4628.98 981.28 L4637.08 1131.64 L4645.18 1434.54 L4653.28 1412.27 L4661.55 1163.70 L4669.65 1566.51 L4677.75 1628.94 L4685.85 1419.86 L4693.95 1258.20 L4702.22 1121.34 L4710.32 1445.34 L4718.42 1378.18 L4726.52 2161.86 L4734.62 2331.62 L4742.89 1385.10 L4750.99 1270.18 L4759.09 1461.54 L4767.19 1094.85 L4775.29 954.45 L4783.56 1080.34 L4791.66 1536.13 L4799.76 1638.56 L4807.86 1408.56 L4815.96 1401.13 L4824.23 745.54 L4832.33 921.38 L4840.43 1370.42 L4848.52 1047.26 L4856.63 1246.89 L4864.73 1839.04 L4872.99 1628.27 L4881.09 1326.71 L4889.19 1021.44 L4897.29 665.89 L4905.39 1061.61 L4913.66 1497.66 L4921.76 1208.25 L4929.86 382.05 L4937.96 453.77 L4946.06 1267.82 L4954.33 904.67 L4962.43 754.82 L4970.53 1340.38 L4978.63 1438.26 L4986.73 1316.59 L4995.00 1056.54 L5003.10 1067.68 L5011.20 1257.36 L5019.30 1472.18 L5027.40 1696.11 L5035.67 1564.48 L5043.77 1708.09 L5051.87 2315.08" stroke-linejoin="round" style="fill:none;stroke:#0080FF;stroke-width:7.29"/>
	<path d=" M3043.07 1280.31 L3051.17 1280.31 L3059.27 1280.31 L3067.37 1280.31 L3075.64 1280.31 L3083.74 1280.31 L3091.84 1280.31 L3099.94 1280.31 L3108.04 1280.31 L3116.31 1280.31 L3124.41 1280.31 L3132.51 1280.31 L3140.61 1280.31 L3148.71 1280.31 L3156.81 1280.31 L3165.08 1280.31 L3173.18 1280.31 L3181.28 1280.31 L3189.38 1280.31 L3197.48 1280.31 L3205.74 1280.31 L3213.84 1280.31 L3221.94 1280.31 L3230.04 1280.31 L3238.14 1280.31 L3246.41 1280.31 L3254.51 1280.31 L3262.61 1280.31 L3270.71 1280.31 L3278.81 1280.31 L3287.08 1280.31 L3295.18 1280.31 L3303.28 1280.31 L3311.38 1280.31 L3319.48 1280.31 L3327.75 1280.31 L3335.85 1280.31 L3343.95 1280.31 L3352.05 1280.31 L3360.15 1280.31 L3368.42 1280.31 L3376.52 1280.31 L3384.62 1280.31 L3392.72 1280.31 L3400.82 1280.31 L3409.09 1280.31 L3417.19 1280.31 L3425.29 1280.31 L3433.39 1280.31 L3441.49 1280.31 L3449.76 1280.31 L3457.86 1280.31 L3465.96 1280.31 L3474.06 1280.31 L3482.16 1280.31 L3490.26 1280.31 L3498.53 1280.31 L3506.63 1280.31 L3514.73 1280.31 L3522.83 1280.31 L3530.93 1280.31 L3539.19 1280.31 L3547.29 1280.31 L3555.39 1280.31 L3563.49 1280.31 L3571.59 1280.31 L3579.86 1280.31 L3587.96 1280.31 L3596.06 1280.31 L3604.16 1280.31 L3612.26 1280.31 L3620.53 1280.31 L3628.63 1280.31 L3636.73 1280.31 L3644.83 1280.31 L3652.93 1280.31 L3661.20 1280.31 L3669.30 1280.31 L3677.40 1280.31 L3685.50 1280.31 L3693.60 1280.31 L3701.87 1280.31 L3709.97 1280.31 L3718.07 1280.31 L3726.17 1280.31 L3734.27 1280.31 L3742.54 1280.31 L3750.64 1280.31 L3758.74 1280.31 L3766.84 1280.31 L3774.94 1280.31 L3783.21 1280.31 L3791.31 1280.31 L3799.41 1280.31 L3807.51 1280.31 L3815.61 1280.31 L3823.88 1280.31 L3831.98 1280.31 L3840.08 1280.31 L3848.18 1280.31 L3856.28 1280.31 L3864.38 1280.31 L3872.64 1280.31 L3880.74 1280.31 L3888.84 1280.31 L3896.94 1280.31 L3905.04 1280.31 L3913.31 1280.31 L3921.41 1280.31 L3929.51 1280.31 L3937.61 1280.31 L3945.71 1280.31 L3953.98 1280.31 L3962.08 1280.31 L3970.18 1280.31 L3978.28 1280.31 L3986.38 1280.31 L3994.65 1280.31 L4002.75 1280.31 L4010.85 1280.31 L4018.95 1280.31 L4027.05 1280.31 L4035.32 1280.31 L4043.42 1280.31 L4051.52 1280.31 L4059.62 1280.31 L4067.72 1280.31 L4075.99 1280.31 L4084.09 1280.31 L4092.19 1280.31 L4100.29 1280.31 L4108.39 1280.31 L4116.66 1280.31 L4124.76 1280.31 L4132.86 1280.31 L4140.96 1280.31 L4149.06 1280.31 L4157.33 1280.31 L4165.43 1280.31 L4173.52 1280.31 L4181.63 1280.31 L4189.73 1280.31 L4197.83 1280.31 L4206.09 1280.31 L4214.19 1280.31 L4222.29 1280.31 L4230.39 1280.31 L4238.49 1280.31 L4246.76 1280.31 L4254.86 1280.31 L4262.96 1280.31 L4271.06 1280.31 L4279.16 1280.31 L4287.43 1280.31 L4295.53 1280.31 L4303.63 1280.31 L4311.73 1280.31 L4319.83 1280.31 L4328.10 1280.31 L4336.20 1280.31 L4344.30 1280.31 L4352.40 1280.31 L4360.50 1280.31 L4368.77 1280.31 L4376.87 1280.31 L4384.97 1280.31 L4393.07 1280.31 L4401.17 1280.31 L4409.44 1280.31 L4417.54 1280.31 L4425.64 1280.31 L4433.74 1280.31 L4441.84 1280.31 L4450.11 1280.31 L4458.21 1280.31 L4466.31 1280.31 L4474.41 1280.31 L4482.51 1280.31 L4490.77 1280.31 L4498.88 1280.31 L4506.98 1280.31 L4515.08 1280.31 L4523.18 1280.31 L4531.27 1280.31 L4539.54 1280.31 L4547.64 1280.31 L4555.74 1280.31 L4563.84 1280.31 L4571.94 1280.31 L4580.21 1280.31 L4588.31 1280.31 L4596.41 1280.31 L4604.51 1280.31 L4612.61 1280.31 L4620.88 1280.31 L4628.98 1280.31 L4637.08 1280.31 L4645.18 1280.31 L4653.28 1280.31 L4661.55 1280.31 L4669.65 1280.31 L4677.75 1280.31 L4685.85 1280.31 L4693.95 1280.31 L4702.22 1280.31 L4710.32 1280.31 L4718.42 1280.31 L4726.52 1280.31 L4734.62 1280.31 L4742.89 1280.31 L4750.99 1280.31 L4759.09 1280.31 L4767.19 1280.31 L4775.29 1280.31 L4783.56 1280.31 L4791.66 1280.31 L4799.76 1280.31 L4807.86 1280.31 L4815.96 1280.31 L4824.23 1280.31 L4832.33 1280.31 L4840.43 1280.31 L4848.52 1280.31 L4856.63 1280.31 L4864.73 1280.31 L4872.99 1280.31 L4881.09 1280.31 L4889.19 1280.31 L4897.29 1280.31 L4905.39 1280.31 L4913.66 1280.31 L4921.76 1280.31 L4929.86 1280.31 L4937.96 1280.31 L4946.06 1280.31 L4954.33 1280.31 L4962.43 1280.31 L4970.53 1280.31 L4978.63 1280.31 L4986.73 1280.31 L4995.00 1280.31 L5003.10 1280.31 L5011.20 1280.31 L5019.30 1280.31 L5027.40 1280.31 L5035.67 1280.31 L5043.77 1280.31 L5051.87 1280.31" stroke-linejoin="round" style="fill:none;stroke:#D41159;stroke-width:7.29"/>
	<line x1="2989.58" y1="2813.74" x2="2989.58" y2="303.58" style="stroke:#000000;stroke-width:4.86"/>
	<line x1="2989.58" y1="2665.07" x2="2955.83" y2="2665.07" style="stroke:#000000;stroke-width:4.86"/>
	<text x="2938.95" y="2694.64" style="font-family:'Helvetica';font-size:84.38px;fill:#000000" text-anchor="end">-3</text>
	<line x1="2989.58" y1="2203.37" x2="2955.83" y2="2203.37" style="stroke:#000000;stroke-width:4.86"/>
	<text x="2938.95" y="2232.94" style="font-family:'Helvetica';font-size:84.38px;fill:#000000" text-anchor="end">-2</text>
	<line x1="2989.58" y1="1741.84" x2="2955.83" y2="1741.84" style="stroke:#000000;stroke-width:4.86"/>
	<text x="2938.95" y="1771.41" style="font-family:'Helvetica';font-size:84.38px;fill:#000000" text-anchor="end">-1</text>
	<line x1="2989.58" y1="1280.31" x2="2955.83" y2="1280.31" style="stroke:#000000;stroke-width:4.86"/>
	<text x="2938.95" y="1309.88" style="font-family:'Helvetica';font-size:84.38px;fill:#000000" text-anchor="end">0</text>
	<line x1="2989.58" y1="818.61" x2="2955.83" y2="818.61" style="stroke:#000000;stroke-width:4.86"/>
	<text x="2938.95" y="848.18" style="font-family:'Helvetica';font-size:84.38px;fill:#000000" text-anchor="end">1</text>
	<line x1="2989.58" y1="357.07" x2="2955.83" y2="357.07" style="stroke:#000000;stroke-width:4.86"/>
	<text x="2938.95" y="386.65" style="font-family:'Helvetica';font-size:84.38px;fill:#000000" text-anchor="end">2</text>
	<line x1="2989.58" y1="2813.74" x2="5243.74" y2="2813.74" style="stroke:#000000;stroke-width:4.86"/>
	<line x1="3238.31" y1="2813.74" x2="3238.31" y2="2847.49" style="stroke:#000000;stroke-width:4.86"/>
	<text x="3238.31" y="2923.34" style="font-family:'Helvetica';font-size:84.38px;fill:#000000" text-anchor="middle">2005m1</text>
	<line x1="3726.34" y1="2813.74" x2="3726.34" y2="2847.49" style="stroke:#000000;stroke-width:4.86"/>
	<text x="3726.34" y="2923.34" style="font-family:'Helvetica';font-size:84.38px;fill:#000000" text-anchor="middle">2010m1</text>
	<line x1="4214.19" y1="2813.74" x2="4214.19" y2="2847.49" style="stroke:#000000;stroke-width:4.86"/>
	<text x="4214.19" y="2923.34" style="font-family:'Helvetica';font-size:84.38px;fill:#000000" text-anchor="middle">2015m1</text>
	<line x1="4702.22" y1="2813.74" x2="4702.22" y2="2847.49" style="stroke:#000000;stroke-width:4.86"/>
	<text x="4702.22" y="2923.34" style="font-family:'Helvetica';font-size:84.38px;fill:#000000" text-anchor="middle">2020m1</text>
	<line x1="5190.24" y1="2813.74" x2="5190.24" y2="2847.49" style="stroke:#000000;stroke-width:4.86"/>
	<text x="5190.24" y="2923.34" style="font-family:'Helvetica';font-size:84.38px;fill:#000000" text-anchor="middle">2025m1</text>
	<text x="4116.66" y="3041.47" style="font-family:'Helvetica';font-size:84.38px;fill:#000000" text-anchor="middle">Periodo</text>
	<text x="4116.66" y="253.55" style="font-family:'Helvetica';font-size:118.13px;fill:#000000" text-anchor="middle">Error de predicción a dos periodos</text>
</svg>
