<?xml version="1.0" encoding="UTF-8" standalone="no"?>
<!-- This is a Stata 18.0 generated SVG file (http://www.stata.com) -->

<svg version="1.1" width="6.000in" height="4.000in" viewBox="0 0 4320 2880" xmlns="http://www.w3.org/2000/svg" xmlns:xlink="http://www.w3.org/1999/xlink">
	<desc>Stata Graph - Graph</desc>
	<rect x="0" y="0" width="4320" height="2880" style="fill:#FFFFFF;stroke:none"/>
	<rect x="0.00" y="0.00" width="4320.00" height="2880.00" style="fill:#FFFFFF"/>
	<rect x="2.88" y="2.88" width="4314.24" height="2874.24" style="fill:none;stroke:#FFFFFF;stroke-width:5.76"/>
	<rect x="576.99" y="275.40" width="3642.17" height="2183.79" style="fill:#FFFFFF"/>
	<rect x="579.87" y="278.28" width="3636.41" height="2178.03" style="fill:none;stroke:#000000;stroke-width:5.76"/>
	<path d=" M801.63 1444.12 L808.25 1429.00 L815.00 1482.73 L821.75 1570.07 L828.50 1642.98 L835.11 1809.43 L841.86 1906.50 L848.61 2307.46 L855.36 2287.75 L862.11 2281.94 L868.73 2217.27 L875.48 2131.95 L882.23 2034.75 L888.98 2032.46 L895.73 2033.94 L902.34 1987.77 L909.09 1844.53 L915.84 1706.97 L922.59 1513.51 L929.34 1446.95 L935.96 1447.63 L942.71 1382.83 L949.46 1402.40 L956.21 1471.79 L962.96 1256.19 L969.57 1206.11 L976.32 1241.88 L983.07 1211.78 L989.82 1305.74 L996.44 1334.36 L1003.19 1463.96 L1009.94 1458.02 L1016.69 1496.50 L1023.44 1499.47 L1030.05 1432.64 L1036.80 1453.84 L1043.55 1314.38 L1050.30 1274.96 L1057.05 1252.01 L1063.67 1197.06 L1070.42 1147.38 L1077.17 1164.93 L1083.92 1061.79 L1090.67 1065.30 L1097.28 941.50 L1104.03 962.84 L1110.78 1016.84 L1117.53 913.69 L1124.15 1182.89 L1130.90 1224.60 L1137.65 1203.41 L1144.40 1251.74 L1151.15 1208.54 L1157.76 1211.64 L1164.51 1253.63 L1171.26 1276.71 L1178.01 1338.95 L1184.76 1346.78 L1191.38 1288.33 L1198.13 1376.21 L1204.88 1435.34 L1211.63 1408.61 L1218.38 1444.79 L1224.99 1469.09 L1231.74 1520.53 L1238.49 1433.05 L1245.24 1426.70 L1251.99 1411.72 L1258.61 1285.90 L1265.36 1243.23 L1272.11 1320.46 L1278.86 1259.57 L1285.47 1214.61 L1292.22 1208.40 L1298.97 1161.15 L1305.72 1182.89 L1312.47 1175.33 L1319.09 1128.21 L1325.84 1150.22 L1332.59 1146.98 L1339.34 1306.42 L1346.09 1405.64 L1352.70 1398.22 L1359.45 1496.63 L1366.20 1503.92 L1372.95 1489.34 L1379.70 1499.20 L1386.32 1445.33 L1393.07 1432.91 L1399.82 1509.73 L1406.57 1470.98 L1413.18 1459.91 L1419.93 1404.83 L1426.68 1336.39 L1433.43 1270.23 L1440.18 1098.92 L1446.80 1032.36 L1453.55 1097.70 L1460.30 1069.49 L1467.05 1045.32 L1473.80 1022.91 L1480.41 1009.01 L1487.16 956.22 L1493.91 929.35 L1500.66 934.35 L1507.41 788.95 L1514.03 790.98 L1520.78 660.16 L1527.53 695.53 L1534.28 701.07 L1541.03 758.17 L1547.64 838.50 L1554.39 886.96 L1561.14 907.21 L1567.89 1047.08 L1574.51 1140.63 L1581.26 1018.86 L1588.01 1087.04 L1594.76 1130.51 L1601.51 1271.72 L1608.12 1310.74 L1614.87 1268.21 L1621.62 1266.05 L1628.37 1231.62 L1635.12 1274.28 L1641.74 1309.12 L1648.49 1252.95 L1655.24 1225.01 L1661.99 1361.09 L1668.74 1442.23 L1675.35 1490.69 L1682.10 1515.40 L1688.85 1491.64 L1695.60 1534.30 L1702.22 1568.59 L1708.97 1612.74 L1715.72 1602.07 L1722.47 1533.08 L1729.22 1586.81 L1735.83 1579.93 L1742.58 1513.91 L1749.33 1468.82 L1756.08 1468.15 L1762.83 1373.38 L1769.45 1421.98 L1776.20 1359.88 L1782.95 1328.83 L1789.70 1317.49 L1796.45 1402.67 L1803.06 1407.80 L1809.81 1398.22 L1816.56 1402.00 L1823.31 1430.62 L1829.93 1527.95 L1836.68 1556.44 L1843.43 1644.06 L1850.18 1701.57 L1856.93 1723.57 L1863.54 1698.46 L1870.29 1722.90 L1877.04 1668.49 L1883.79 1684.42 L1890.54 1700.62 L1897.16 1714.39 L1903.91 1717.90 L1910.66 1725.60 L1917.41 1693.60 L1924.16 1690.09 L1930.77 1714.39 L1937.52 1727.62 L1944.27 1772.98 L1951.02 1776.36 L1957.77 1763.13 L1964.39 1783.78 L1971.14 1779.87 L1977.89 1763.80 L1984.64 1816.32 L1991.25 1814.70 L1998.00 1839.40 L2004.75 1907.31 L2011.50 1884.49 L2018.25 1883.01 L2024.87 1882.33 L2031.62 1914.06 L2038.37 1936.47 L2045.12 1976.03 L2051.86 1966.58 L2058.48 1985.21 L2065.23 1979.81 L2071.98 1979.94 L2078.73 1984.94 L2085.48 2014.77 L2092.09 1989.12 L2098.84 1999.38 L2105.59 1997.22 L2112.34 1981.16 L2118.96 1973.19 L2125.71 1961.45 L2132.46 1978.59 L2139.21 1990.20 L2145.96 1995.74 L2152.57 1991.28 L2159.32 2011.80 L2166.07 1999.38 L2172.82 2041.50 L2179.57 2056.08 L2186.19 2072.96 L2192.94 2078.76 L2199.69 2089.02 L2206.44 2082.68 L2213.19 2093.48 L2219.80 2106.44 L2226.55 2110.08 L2233.30 2124.12 L2240.05 2133.71 L2246.80 2152.61 L2253.42 2155.98 L2260.17 2142.35 L2266.92 2121.15 L2273.67 2126.96 L2280.29 2133.44 L2287.04 2151.12 L2293.79 2137.22 L2300.54 2109.14 L2307.29 2113.59 L2313.90 2094.42 L2320.65 2084.70 L2327.40 2125.34 L2334.15 2109.95 L2340.90 2117.10 L2347.52 2122.77 L2354.27 2127.63 L2361.02 2119.26 L2367.77 2109.95 L2374.52 2112.38 L2381.13 2126.28 L2387.88 2133.03 L2394.63 2152.47 L2401.38 2154.23 L2408.00 2125.34 L2414.75 2129.39 L2421.50 2129.25 L2428.25 2133.17 L2435.00 2146.26 L2441.61 2150.04 L2448.36 2167.19 L2455.11 2182.04 L2461.86 2185.95 L2468.61 2179.34 L2475.23 2171.64 L2481.98 2173.13 L2488.73 2187.84 L2495.48 2190.54 L2502.23 2187.98 L2508.84 2190.68 L2515.59 2194.32 L2522.34 2206.74 L2529.09 2211.06 L2535.71 2201.75 L2542.46 2196.89 L2549.21 2207.42 L2555.96 2207.55 L2562.71 2206.47 L2569.32 2223.48 L2576.07 2227.53 L2582.82 2237.39 L2589.57 2249.41 L2596.32 2243.06 L2602.94 2244.14 L2609.69 2239.68 L2616.44 2246.17 L2623.19 2259.40 L2629.94 2246.71 L2636.55 2253.59 L2643.30 2257.64 L2650.05 2258.32 L2656.80 2244.95 L2663.55 2217.14 L2670.17 2186.09 L2676.92 2170.56 L2683.67 2154.23 L2690.42 2147.21 L2697.03 2120.34 L2703.78 2104.14 L2710.53 2102.79 L2717.28 2084.43 L2724.03 2081.73 L2730.65 2072.15 L2737.40 2086.73 L2744.15 2102.93 L2750.90 2127.09 L2757.65 2118.99 L2764.26 2114.27 L2771.01 2116.16 L2777.76 2128.44 L2784.51 2125.61 L2791.26 2124.93 L2797.88 2129.93 L2804.63 2128.44 L2811.38 2103.60 L2818.13 2098.61 L2824.74 2080.25 L2831.49 2058.11 L2838.24 2055.81 L2844.99 2056.49 L2851.74 2052.44 L2858.36 1979.94 L2865.11 1983.45 L2871.86 1973.60 L2878.61 1967.66 L2885.36 1958.88 L2891.97 1966.98 L2898.72 1941.87 L2905.47 1948.35 L2912.22 1953.35 L2918.97 1950.11 L2925.59 1939.71 L2932.34 1951.86 L2939.09 1981.83 L2945.84 1974.27 L2952.59 1972.52 L2959.20 1970.76 L2965.95 1971.71 L2972.70 1958.88 L2979.45 1988.45 L2986.07 2006.94 L2992.82 2021.93 L2999.57 2037.45 L3006.32 2049.74 L3013.07 2051.63 L3019.68 2090.51 L3026.43 2092.26 L3033.18 2102.52 L3039.93 2111.70 L3046.68 2117.10 L3053.30 2140.32 L3060.05 2280.19 L3066.80 2261.56 L3073.55 2275.73 L3080.30 2231.31 L3086.91 2216.06 L3093.66 2203.64 L3100.41 2195.94 L3107.16 2204.31 L3113.78 2180.96 L3120.53 2154.36 L3127.28 2163.95 L3134.03 2152.07 L3140.78 2103.60 L3147.39 2097.12 L3154.14 2071.34 L3160.89 2090.37 L3167.64 2123.85 L3174.39 2099.42 L3181.01 2091.05 L3187.76 2084.30 L3194.51 2088.08 L3201.26 2094.42 L3208.01 2081.87 L3214.62 2069.99 L3221.37 2053.52 L3228.12 2070.93 L3234.87 2056.89 L3241.62 2083.35 L3248.24 2064.05 L3254.99 2086.32 L3261.74 2070.26 L3268.49 2061.21 L3275.10 2076.33 L3281.85 2072.82 L3288.60 2062.70 L3295.35 2072.15 L3302.10 2087.94 L3308.72 2094.69 L3315.47 2092.80 L3322.22 2078.90 L3328.97 2086.73 L3335.72 2100.36 L3342.33 2132.22 L3349.08 2103.06 L3355.83 2096.31 L3362.58 2109.68 L3369.33 2119.67 L3375.95 2112.24 L3382.70 2095.91 L3389.45 2086.32 L3396.20 2077.55 L3402.81 2072.15 L3409.56 2063.10 L3416.31 2055.95 L3423.06 2020.58 L3429.81 2066.88 L3436.43 2060.54 L3443.18 2043.26 L3449.93 2035.83 L3456.68 2027.06 L3463.43 2028.54 L3470.04 2032.59 L3476.79 2033.13 L3483.54 2067.56 L3490.29 2077.01 L3497.04 2071.07 L3503.66 2079.57 L3510.41 2096.31 L3517.16 2091.86 L3523.91 2102.93 L3530.52 2110.62 L3537.27 2128.85 L3544.02 2096.58 L3550.77 2117.91 L3557.52 2118.32 L3564.14 2122.91 L3570.89 2124.26 L3577.64 2114.40 L3584.39 2144.91 L3591.14 2112.78 L3597.75 2136.27 L3604.50 2131.82 L3611.25 2143.02 L3618.00 2152.74 L3624.75 2134.38 L3631.37 2115.48 L3638.12 2160.30 L3644.87 2117.37 L3651.62 2125.47 L3658.37 2098.88 L3664.98 2074.71 L3671.73 2050.14 L3678.48 2095.77 L3685.23 2079.98 L3691.85 2065.67 L3698.60 2098.74 L3705.35 2116.29 L3712.10 2123.04 L3718.85 2128.44 L3725.46 2154.23 L3732.21 2138.84 L3738.96 2164.49 L3745.71 2190.14 L3752.46 2210.79 L3759.08 2169.62 L3765.83 2185.01 L3772.58 2190.14 L3779.33 2200.53 L3786.08 2200.53 L3792.69 2174.75 L3799.44 2154.23 L3806.19 2133.57 L3812.94 2128.44 L3819.56 2143.97 L3826.31 2138.84 L3833.06 2128.44 L3839.81 2169.62 L3846.56 2164.49 L3853.17 2179.88 L3859.92 2159.36 L3866.67 2154.23 L3873.42 2169.62 L3880.17 2154.23 L3886.79 2257.10 L3893.54 2262.23 L3900.29 2251.97 L3907.04 2251.97 L3913.79 2251.97 L3920.40 2205.66 L3927.15 2190.14 L3933.90 2159.36 L3940.65 2190.14 L3947.40 2174.75 L3954.02 2179.88 L3960.77 2169.62 L3967.52 2097.66 L3974.27 2107.92 L3980.88 2087.40 L3987.63 2056.49 L3994.38 2066.75 L4001.13 2102.79 L4007.88 2087.40 L4014.50 2092.53 L4021.25 2046.23 L4028.00 2005.05 L4034.75 2005.05 L4041.50 2010.18 L4048.11 1979.40 L4054.86 1897.05 L4061.61 1876.53 L4068.36 1886.79 L4075.11 1825.09 L4081.73 1825.09 L4088.48 1835.35 L4095.23 1840.48 L4101.98 1840.48 L4108.59 1819.96 L4115.34 1819.96 L4122.09 1819.96 L4128.84 1840.48 L4135.59 1866.27 L4142.21 1871.40 L4148.96 1912.44 L4155.71 1984.53" stroke-linejoin="round" style="fill:none;stroke:#0080FF;stroke-width:8.64"/>
	<path d=" M801.63 1844.40 L808.25 1844.40 L815.00 1844.40 L821.75 1844.40 L828.50 1844.40 L835.11 1844.40 L841.86 1844.40 L848.61 1844.40 L855.36 1844.40 L862.11 1844.40 L868.73 1844.40 L875.48 1844.40 L882.23 1844.40 L888.98 1844.40 L895.73 1844.40 L902.34 1844.40 L909.09 1844.40 L915.84 1844.40 L922.59 1844.40 L929.34 1844.40 L935.96 1844.40 L942.71 1844.40 L949.46 1844.40 L956.21 1844.40 L962.96 1844.40 L969.57 1844.40 L976.32 1844.40 L983.07 1844.40 L989.82 1844.40 L996.44 1844.40 L1003.19 1844.40 L1009.94 1844.40 L1016.69 1844.40 L1023.44 1844.40 L1030.05 1844.40 L1036.80 1844.40 L1043.55 1844.40 L1050.30 1844.40 L1057.05 1844.40 L1063.67 1844.40 L1070.42 1844.40 L1077.17 1844.40 L1083.92 1844.40 L1090.67 1844.40 L1097.28 1844.40 L1104.03 1844.40 L1110.78 1844.40 L1117.53 1844.40 L1124.15 1844.40 L1130.90 1844.40 L1137.65 1844.40 L1144.40 1844.40 L1151.15 1844.40 L1157.76 1844.40 L1164.51 1844.40 L1171.26 1844.40 L1178.01 1844.40 L1184.76 1844.40 L1191.38 1844.40 L1198.13 1844.40 L1204.88 1844.40 L1211.63 1844.40 L1218.38 1844.40 L1224.99 1844.40 L1231.74 1844.40 L1238.49 1844.40 L1245.24 1844.40 L1251.99 1844.40 L1258.61 1844.40 L1265.36 1844.40 L1272.11 1844.40 L1278.86 1844.40 L1285.47 1844.40 L1292.22 1844.40 L1298.97 1844.40 L1305.72 1844.40 L1312.47 1844.40 L1319.09 1844.40 L1325.84 1844.40 L1332.59 1844.40 L1339.34 1844.40 L1346.09 1844.40 L1352.70 1844.40 L1359.45 1844.40 L1366.20 1844.40 L1372.95 1844.40 L1379.70 1844.40 L1386.32 1844.40 L1393.07 1844.40 L1399.82 1844.40 L1406.57 1844.40 L1413.18 1844.40 L1419.93 1844.40 L1426.68 1844.40 L1433.43 1844.40 L1440.18 1844.40 L1446.80 1844.40 L1453.55 1844.40 L1460.30 1844.40 L1467.05 1844.40 L1473.80 1844.40 L1480.41 1844.40 L1487.16 1844.40 L1493.91 1844.40 L1500.66 1844.40 L1507.41 1844.40 L1514.03 1844.40 L1520.78 1844.40 L1527.53 1844.40 L1534.28 1844.40 L1541.03 1844.40 L1547.64 1844.40 L1554.39 1844.40 L1561.14 1844.40 L1567.89 1844.40 L1574.51 1844.40 L1581.26 1844.40 L1588.01 1844.40 L1594.76 1844.40 L1601.51 1844.40 L1608.12 1844.40 L1614.87 1844.40 L1621.62 1844.40 L1628.37 1844.40 L1635.12 1844.40 L1641.74 1844.40 L1648.49 1844.40 L1655.24 1844.40 L1661.99 1844.40 L1668.74 1844.40 L1675.35 1844.40 L1682.10 1844.40 L1688.85 1844.40 L1695.60 1844.40 L1702.22 1844.40 L1708.97 1844.40 L1715.72 1844.40 L1722.47 1844.40 L1729.22 1844.40 L1735.83 1844.40 L1742.58 1844.40 L1749.33 1844.40 L1756.08 1844.40 L1762.83 1844.40 L1769.45 1844.40 L1776.20 1844.40 L1782.95 1844.40 L1789.70 1844.40 L1796.45 1844.40 L1803.06 1844.40 L1809.81 1844.40 L1816.56 1844.40 L1823.31 1844.40 L1829.93 1844.40 L1836.68 1844.40 L1843.43 1844.40 L1850.18 1844.40 L1856.93 1844.40 L1863.54 1844.40 L1870.29 1844.40 L1877.04 1844.40 L1883.79 1844.40 L1890.54 1844.40 L1897.16 1844.40 L1903.91 1844.40 L1910.66 1844.40 L1917.41 1844.40 L1924.16 1844.40 L1930.77 1844.40 L1937.52 1844.40 L1944.27 1844.40 L1951.02 1844.40 L1957.77 1844.40 L1964.39 1844.40 L1971.14 1844.40 L1977.89 1844.40 L1984.64 1844.40 L1991.25 1844.40 L1998.00 1844.40 L2004.75 1844.40 L2011.50 1844.40 L2018.25 1844.40 L2024.87 1844.40 L2031.62 1844.40 L2038.37 1844.40 L2045.12 1844.40 L2051.86 1844.40 L2058.48 1844.40 L2065.23 1844.40 L2071.98 1844.40 L2078.73 1844.40 L2085.48 1844.40 L2092.09 1844.40 L2098.84 1844.40 L2105.59 1844.40 L2112.34 1844.40 L2118.96 1844.40 L2125.71 1844.40 L2132.46 1844.40 L2139.21 1844.40 L2145.96 1844.40 L2152.57 1844.40 L2159.32 1844.40 L2166.07 1844.40 L2172.82 1844.40 L2179.57 1844.40 L2186.19 1844.40 L2192.94 1844.40 L2199.69 1844.40 L2206.44 1844.40 L2213.19 1844.40 L2219.80 1844.40 L2226.55 1844.40 L2233.30 1844.40 L2240.05 1844.40 L2246.80 1844.40 L2253.42 1844.40 L2260.17 1844.40 L2266.92 1844.40 L2273.67 1844.40 L2280.29 1844.40 L2287.04 1844.40 L2293.79 1844.40 L2300.54 1844.40 L2307.29 1844.40 L2313.90 1844.40 L2320.65 1844.40 L2327.40 1844.40 L2334.15 1844.40 L2340.90 1844.40 L2347.52 1844.40 L2354.27 1844.40 L2361.02 1844.40 L2367.77 1844.40 L2374.52 1844.40 L2381.13 1844.40 L2387.88 1844.40 L2394.63 1844.40 L2401.38 1844.40 L2408.00 1844.40 L2414.75 1844.40 L2421.50 1844.40 L2428.25 1844.40 L2435.00 1844.40 L2441.61 1844.40 L2448.36 1844.40 L2455.11 1844.40 L2461.86 1844.40 L2468.61 1844.40 L2475.23 1844.40 L2481.98 1844.40 L2488.73 1844.40 L2495.48 1844.40 L2502.23 1844.40 L2508.84 1844.40 L2515.59 1844.40 L2522.34 1844.40 L2529.09 1844.40 L2535.71 1844.40 L2542.46 1844.40 L2549.21 1844.40 L2555.96 1844.40 L2562.71 1844.40 L2569.32 1844.40 L2576.07 1844.40 L2582.82 1844.40 L2589.57 1844.40 L2596.32 1844.40 L2602.94 1844.40 L2609.69 1844.40 L2616.44 1844.40 L2623.19 1844.40 L2629.94 1844.40 L2636.55 1844.40 L2643.30 1844.40 L2650.05 1844.40 L2656.80 1844.40 L2663.55 1844.40 L2670.17 1844.40 L2676.92 1844.40 L2683.67 1844.40 L2690.42 1844.40 L2697.03 1844.40 L2703.78 1844.40 L2710.53 1844.40 L2717.28 1844.40 L2724.03 1844.40 L2730.65 1844.40 L2737.40 1844.40 L2744.15 1844.40 L2750.90 1844.40 L2757.65 1844.40 L2764.26 1844.40 L2771.01 1844.40 L2777.76 1844.40 L2784.51 1844.40 L2791.26 1844.40 L2797.88 1844.40 L2804.63 1844.40 L2811.38 1844.40 L2818.13 1844.40 L2824.74 1844.40 L2831.49 1844.40 L2838.24 1844.40 L2844.99 1844.40 L2851.74 1844.40 L2858.36 1844.40 L2865.11 1844.40 L2871.86 1844.40 L2878.61 1844.40 L2885.36 1844.40 L2891.97 1844.40 L2898.72 1844.40 L2905.47 1844.40 L2912.22 1844.40 L2918.97 1844.40 L2925.59 1844.40 L2932.34 1844.40 L2939.09 1844.40 L2945.84 1844.40 L2952.59 1844.40 L2959.20 1844.40 L2965.95 1844.40 L2972.70 1844.40 L2979.45 1844.40 L2986.07 1844.40 L2992.82 1844.40 L2999.57 1844.40 L3006.32 1844.40 L3013.07 1844.40 L3019.68 1844.40 L3026.43 1844.40 L3033.18 1844.40 L3039.93 1844.40 L3046.68 1844.40 L3053.30 1844.40 L3060.05 1844.40 L3066.80 1844.40 L3073.55 1844.40 L3080.30 1844.40 L3086.91 1844.40 L3093.66 1844.40 L3100.41 1844.40 L3107.16 1844.40 L3113.78 1844.40 L3120.53 1844.40 L3127.28 1844.40 L3134.03 1844.40 L3140.78 1844.40 L3147.39 1844.40 L3154.14 1844.40 L3160.89 1844.40 L3167.64 1844.40 L3174.39 1844.40 L3181.01 1844.40 L3187.76 1844.40 L3194.51 1844.40 L3201.26 1844.40 L3208.01 1844.40 L3214.62 1844.40 L3221.37 1844.40 L3228.12 1844.40 L3234.87 1844.40 L3241.62 1844.40 L3248.24 1844.40 L3254.99 1844.40 L3261.74 1844.40 L3268.49 1844.40 L3275.10 1844.40 L3281.85 1844.40 L3288.60 1844.40 L3295.35 1844.40 L3302.10 1844.40 L3308.72 1844.40 L3315.47 1844.40 L3322.22 1844.40 L3328.97 1844.40 L3335.72 1844.40 L3342.33 1844.40 L3349.08 1844.40 L3355.83 1844.40 L3362.58 1844.40 L3369.33 1844.40 L3375.95 1844.40 L3382.70 1844.40 L3389.45 1844.40 L3396.20 1844.40 L3402.81 1844.40 L3409.56 1844.40 L3416.31 1844.40 L3423.06 1844.40 L3429.81 1844.40 L3436.43 1844.40 L3443.18 1844.40 L3449.93 1844.40 L3456.68 1844.40 L3463.43 1844.40 L3470.04 1844.40 L3476.79 1844.40 L3483.54 1844.40 L3490.29 1844.40 L3497.04 1844.40 L3503.66 1844.40 L3510.41 1844.40 L3517.16 1844.40 L3523.91 1844.40 L3530.52 1844.40 L3537.27 1844.40 L3544.02 1844.40 L3550.77 1844.40 L3557.52 1844.40 L3564.14 1844.40 L3570.89 1844.40 L3577.64 1844.40 L3584.39 1844.40 L3591.14 1844.40 L3597.75 1844.40 L3604.50 1844.40 L3611.25 1844.40 L3618.00 1844.40 L3624.75 1844.40 L3631.37 1844.40 L3638.12 1844.40 L3644.87 1844.40 L3651.62 1844.40 L3658.37 1844.40 L3664.98 1844.40 L3671.73 1844.40 L3678.48 1844.40 L3685.23 1844.40 L3691.85 1844.40 L3698.60 1844.40 L3705.35 1844.40 L3712.10 1844.40 L3718.85 1844.40 L3725.46 1844.40 L3732.21 1844.40 L3738.96 1844.40 L3745.71 1844.40 L3752.46 1844.40 L3759.08 1844.40 L3765.83 1844.40 L3772.58 1844.40 L3779.33 1844.40 L3786.08 1844.40 L3792.69 1844.40 L3799.44 1844.40 L3806.19 1844.40 L3812.94 1844.40 L3819.56 1844.40 L3826.31 1844.40 L3833.06 1844.40 L3839.81 1844.40 L3846.56 1844.40 L3853.17 1844.40 L3859.92 1844.40 L3866.67 1844.40 L3873.42 1844.40 L3880.17 1844.40 L3886.79 1844.40 L3893.54 1844.40 L3900.29 1844.40 L3907.04 1844.40 L3913.79 1844.40 L3920.40 1844.40 L3927.15 1844.40 L3933.90 1844.40 L3940.65 1844.40 L3947.40 1844.40 L3954.02 1844.40 L3960.77 1844.40 L3967.52 1844.40 L3974.27 1844.40 L3980.88 1844.40 L3987.63 1844.40 L3994.38 1844.40 L4001.13 1844.40 L4007.88 1844.40 L4014.50 1844.40 L4021.25 1844.40 L4028.00 1844.40 L4034.75 1844.40 L4041.50 1844.40 L4048.11 1844.40 L4054.86 1844.40 L4061.61 1844.40 L4068.36 1844.40 L4075.11 1844.40 L4081.73 1844.40 L4088.48 1844.40 L4095.23 1844.40 L4101.98 1844.40 L4108.59 1844.40 L4115.34 1844.40 L4122.09 1844.40 L4128.84 1844.40 L4135.59 1844.40 L4142.21 1844.40 L4148.96 1844.40 L4155.71 1844.40" stroke-linejoin="round" style="fill:none;stroke:#D41159;stroke-width:8.64"/>
	<line x1="576.99" y1="2459.20" x2="576.99" y2="275.40" style="stroke:#000000;stroke-width:5.76"/>
	<line x1="576.99" y1="2395.88" x2="536.90" y2="2395.88" style="stroke:#000000;stroke-width:5.76"/>
	<text x="516.92" y="2430.93" style="font-family:'Helvetica';font-size:100.04px;fill:#000000" text-anchor="end">0.00</text>
	<line x1="576.99" y1="1881.52" x2="536.90" y2="1881.52" style="stroke:#000000;stroke-width:5.76"/>
	<text x="516.92" y="1916.57" style="font-family:'Helvetica';font-size:100.04px;fill:#000000" text-anchor="end">10.00</text>
	<line x1="576.99" y1="1367.30" x2="536.90" y2="1367.30" style="stroke:#000000;stroke-width:5.76"/>
	<text x="516.92" y="1402.35" style="font-family:'Helvetica';font-size:100.04px;fill:#000000" text-anchor="end">20.00</text>
	<line x1="576.99" y1="852.94" x2="536.90" y2="852.94" style="stroke:#000000;stroke-width:5.76"/>
	<text x="516.92" y="887.99" style="font-family:'Helvetica';font-size:100.04px;fill:#000000" text-anchor="end">30.00</text>
	<line x1="576.99" y1="338.72" x2="536.90" y2="338.72" style="stroke:#000000;stroke-width:5.76"/>
	<text x="516.92" y="373.77" style="font-family:'Helvetica';font-size:100.04px;fill:#000000" text-anchor="end">40.00</text>
	<text x="190.78" y="1367.30" style="font-family:'Helvetica';font-size:100.04px;fill:#000000" transform="rotate(-90 190.78,1367.30)" text-anchor="middle">Crecimiento porcentual</text>
	<line x1="576.99" y1="2459.20" x2="4219.16" y2="2459.20" style="stroke:#000000;stroke-width:5.76"/>
	<line x1="640.30" y1="2459.20" x2="640.30" y2="2499.16" style="stroke:#000000;stroke-width:5.76"/>
	<text x="640.30" y="2589.10" style="font-family:'Helvetica';font-size:100.04px;fill:#000000" text-anchor="middle">1980m1</text>
	<line x1="1446.93" y1="2459.20" x2="1446.93" y2="2499.16" style="stroke:#000000;stroke-width:5.76"/>
	<text x="1446.93" y="2589.10" style="font-family:'Helvetica';font-size:100.04px;fill:#000000" text-anchor="middle">1990m1</text>
	<line x1="2253.55" y1="2459.20" x2="2253.55" y2="2499.16" style="stroke:#000000;stroke-width:5.76"/>
	<text x="2253.55" y="2589.10" style="font-family:'Helvetica';font-size:100.04px;fill:#000000" text-anchor="middle">2000m1</text>
	<line x1="3060.18" y1="2459.20" x2="3060.18" y2="2499.16" style="stroke:#000000;stroke-width:5.76"/>
	<text x="3060.18" y="2589.10" style="font-family:'Helvetica';font-size:100.04px;fill:#000000" text-anchor="middle">2010m1</text>
	<line x1="3866.81" y1="2459.20" x2="3866.81" y2="2499.16" style="stroke:#000000;stroke-width:5.76"/>
	<text x="3866.81" y="2589.10" style="font-family:'Helvetica';font-size:100.04px;fill:#000000" text-anchor="middle">2020m1</text>
	<text x="2398.01" y="2729.09" style="font-family:'Helvetica';font-size:100.04px;fill:#000000" text-anchor="middle">Mes</text>
	<text x="2398.01" y="216.06" style="font-family:'Helvetica';font-size:140.00px;fill:#000000" text-anchor="middle">Evolución del Crecimiento (%) del Índice de remuneraciones</text>
</svg>
