<?xml version="1.0" encoding="UTF-8" standalone="no"?>
<!-- This is a Stata 18.0 generated SVG file (http://www.stata.com) -->

<svg version="1.1" width="7.500in" height="4.500in" viewBox="0 0 5400 3240" xmlns="http://www.w3.org/2000/svg" xmlns:xlink="http://www.w3.org/1999/xlink">
	<desc>Stata Graph - Graph</desc>
	<rect x="0" y="0" width="5400" height="3240" style="fill:#FFFFFF;stroke:none"/>
	<rect x="0.00" y="0.00" width="5400.00" height="3240.00" style="fill:#FFFFFF"/>
	<rect x="3.24" y="3.24" width="5393.52" height="3233.52" style="fill:none;stroke:#FFFFFF;stroke-width:6.48"/>
	<rect x="71.21" y="71.21" width="2628.79" height="3097.58" style="fill:#FFFFFF"/>
	<rect x="73.64" y="73.64" width="2623.93" height="3092.71" style="fill:none;stroke:#FFFFFF;stroke-width:4.86"/>
	<rect x="360.96" y="303.58" width="2253.99" height="2510.16" style="fill:#FFFFFF"/>
	<rect x="363.39" y="306.01" width="2249.13" height="2505.30" style="fill:none;stroke:#000000;stroke-width:4.86"/>
	<path d=" M422.38 1260.56 L430.65 1312.71 L438.75 1353.54 L446.85 1437.41 L454.95 1351.52 L463.05 1221.92 L471.32 1269.51 L479.42 1447.20 L487.52 1360.63 L495.62 1324.01 L503.72 1485.84 L511.99 1382.57 L520.09 1427.79 L528.19 1440.62 L536.29 1296.84 L544.39 1369.91 L552.49 1343.08 L560.76 1471.33 L568.86 1526.18 L576.96 1280.81 L585.06 1451.93 L593.16 1446.69 L601.42 1438.09 L609.53 1281.15 L617.63 1165.56 L625.73 1161.34 L633.83 1337.34 L642.09 1330.26 L650.19 1378.35 L658.29 1144.97 L666.39 1229.01 L674.49 1358.78 L682.76 1200.99 L690.86 1300.56 L698.96 1219.56 L707.06 1451.93 L715.16 1434.71 L723.43 1493.61 L731.53 1159.14 L739.63 1210.44 L747.73 1313.04 L755.83 1465.76 L764.10 1306.13 L772.20 1311.86 L780.30 1374.98 L788.40 1340.38 L796.50 1115.78 L804.77 1308.99 L812.87 1214.33 L820.97 1186.31 L829.07 1340.89 L837.17 1375.99 L845.44 1297.35 L853.54 616.61 L861.64 1343.59 L869.74 1269.00 L877.84 1298.87 L885.94 1135.69 L894.21 1307.14 L902.31 982.63 L910.41 1268.83 L918.51 1252.80 L926.61 1186.99 L934.88 1068.19 L942.98 1298.03 L951.08 1478.08 L959.18 1105.82 L967.28 1121.85 L975.54 1151.55 L983.64 1237.44 L991.74 1096.54 L999.84 1490.74 L1007.94 1383.08 L1016.21 1329.08 L1024.31 1290.60 L1032.41 1305.62 L1040.51 1230.36 L1048.61 1597.73 L1056.88 1269.17 L1064.98 1346.46 L1073.08 1335.32 L1081.18 1367.38 L1089.28 1529.89 L1097.55 2630.31 L1105.65 1113.58 L1113.75 1342.91 L1121.85 848.14 L1129.95 1403.33 L1138.22 1426.61 L1146.32 1507.28 L1154.42 1580.34 L1162.52 1252.97 L1170.62 1198.13 L1178.89 1543.73 L1186.99 1372.44 L1195.09 978.75 L1203.19 1340.55 L1211.29 1213.31 L1219.39 1615.11 L1227.66 1668.43 L1235.76 1090.63 L1243.86 1177.20 L1251.96 1249.59 L1260.06 1417.33 L1268.33 1396.74 L1276.43 1199.81 L1284.53 1192.89 L1292.63 1169.61 L1300.72 1508.63 L1308.99 1195.59 L1317.09 1543.39 L1325.19 1087.09 L1333.29 1496.14 L1341.39 1119.66 L1349.66 1223.10 L1357.76 1428.47 L1365.86 1296.34 L1373.96 1194.24 L1382.06 1366.03 L1390.33 1458.34 L1398.43 1356.92 L1406.53 1243.35 L1414.63 1147.33 L1422.73 1385.61 L1431.00 1459.01 L1439.10 1616.46 L1447.20 1002.38 L1455.30 1214.16 L1463.40 1451.25 L1471.67 1478.42 L1479.77 1248.24 L1487.87 1148.18 L1495.97 1245.21 L1504.07 1283.85 L1512.34 1306.80 L1520.44 1249.09 L1528.54 1251.11 L1536.64 978.24 L1544.74 1742.85 L1552.84 1245.04 L1561.11 1094.68 L1569.21 1130.63 L1577.31 1218.54 L1585.41 1307.81 L1593.51 1302.41 L1601.78 1251.28 L1609.88 1546.93 L1617.98 1307.98 L1626.08 1144.29 L1634.18 1277.61 L1642.44 1421.55 L1650.54 1230.19 L1658.64 1351.86 L1666.74 1338.36 L1674.84 1455.98 L1683.11 966.43 L1691.21 1483.82 L1699.31 1318.11 L1707.41 1373.96 L1715.51 1280.64 L1723.78 1212.13 L1731.88 1589.12 L1739.98 1012.33 L1748.08 1517.40 L1756.18 1256.51 L1764.45 1441.29 L1772.55 1367.38 L1780.65 1137.54 L1788.75 1121.18 L1796.85 1753.48 L1805.12 954.11 L1813.22 1369.58 L1821.32 1040.85 L1829.42 1143.11 L1837.52 1082.36 L1845.79 1772.21 L1853.89 1153.74 L1861.99 1086.92 L1870.09 1500.53 L1878.19 1446.69 L1886.29 1285.54 L1894.56 1233.90 L1902.66 1481.79 L1910.76 1123.03 L1918.86 1504.41 L1926.96 1524.15 L1935.23 1500.53 L1943.33 873.96 L1951.43 1446.19 L1959.53 1429.65 L1967.63 1501.71 L1975.89 1323.84 L1983.99 1106.49 L1992.09 1170.79 L2000.19 1214.33 L2008.29 1376.49 L2016.56 1535.79 L2024.66 1305.45 L2032.76 1209.43 L2040.86 1689.86 L2048.96 1288.91 L2057.23 1444.16 L2065.33 1095.86 L2073.43 1313.04 L2081.53 1516.89 L2089.63 1260.39 L2097.90 2321.32 L2106.00 1398.77 L2114.10 1206.56 L2122.20 1287.73 L2130.30 1495.29 L2138.57 1076.46 L2146.67 1357.26 L2154.77 1256.01 L2162.87 1850.01 L2170.97 1352.36 L2179.24 1495.46 L2187.34 1314.06 L2195.44 796.33 L2203.54 1562.46 L2211.64 1342.74 L2219.91 1220.40 L2228.01 1497.66 L2236.11 1784.36 L2244.21 1256.18 L2252.31 1372.61 L2260.41 932.68 L2268.68 1056.88 L2276.78 1461.38 L2284.88 1552.67 L2292.98 1131.81 L2301.07 582.02 L2309.34 1201.16 L2317.44 1567.69 L2325.54 850.16 L2333.64 1282.50 L2341.74 1391.51 L2350.01 1365.86 L2358.11 1200.49 L2366.21 1012.67 L2374.31 1235.93 L2382.41 1268.49 L2390.68 1467.45 L2398.78 1481.29 L2406.88 1277.78 L2414.98 1603.97 L2423.08 1929.66" stroke-linejoin="round" style="fill:none;stroke:#0080FF;stroke-width:7.29"/>
	<path d=" M414.28 1318.44 L422.38 1318.44 L430.65 1318.44 L438.75 1318.44 L446.85 1318.44 L454.95 1318.44 L463.05 1318.44 L471.32 1318.44 L479.42 1318.44 L487.52 1318.44 L495.62 1318.44 L503.72 1318.44 L511.99 1318.44 L520.09 1318.44 L528.19 1318.44 L536.29 1318.44 L544.39 1318.44 L552.49 1318.44 L560.76 1318.44 L568.86 1318.44 L576.96 1318.44 L585.06 1318.44 L593.16 1318.44 L601.42 1318.44 L609.53 1318.44 L617.63 1318.44 L625.73 1318.44 L633.83 1318.44 L642.09 1318.44 L650.19 1318.44 L658.29 1318.44 L666.39 1318.44 L674.49 1318.44 L682.76 1318.44 L690.86 1318.44 L698.96 1318.44 L707.06 1318.44 L715.16 1318.44 L723.43 1318.44 L731.53 1318.44 L739.63 1318.44 L747.73 1318.44 L755.83 1318.44 L764.10 1318.44 L772.20 1318.44 L780.30 1318.44 L788.40 1318.44 L796.50 1318.44 L804.77 1318.44 L812.87 1318.44 L820.97 1318.44 L829.07 1318.44 L837.17 1318.44 L845.44 1318.44 L853.54 1318.44 L861.64 1318.44 L869.74 1318.44 L877.84 1318.44 L885.94 1318.44 L894.21 1318.44 L902.31 1318.44 L910.41 1318.44 L918.51 1318.44 L926.61 1318.44 L934.88 1318.44 L942.98 1318.44 L951.08 1318.44 L959.18 1318.44 L967.28 1318.44 L975.54 1318.44 L983.64 1318.44 L991.74 1318.44 L999.84 1318.44 L1007.94 1318.44 L1016.21 1318.44 L1024.31 1318.44 L1032.41 1318.44 L1040.51 1318.44 L1048.61 1318.44 L1056.88 1318.44 L1064.98 1318.44 L1073.08 1318.44 L1081.18 1318.44 L1089.28 1318.44 L1097.55 1318.44 L1105.65 1318.44 L1113.75 1318.44 L1121.85 1318.44 L1129.95 1318.44 L1138.22 1318.44 L1146.32 1318.44 L1154.42 1318.44 L1162.52 1318.44 L1170.62 1318.44 L1178.89 1318.44 L1186.99 1318.44 L1195.09 1318.44 L1203.19 1318.44 L1211.29 1318.44 L1219.39 1318.44 L1227.66 1318.44 L1235.76 1318.44 L1243.86 1318.44 L1251.96 1318.44 L1260.06 1318.44 L1268.33 1318.44 L1276.43 1318.44 L1284.53 1318.44 L1292.63 1318.44 L1300.72 1318.44 L1308.99 1318.44 L1317.09 1318.44 L1325.19 1318.44 L1333.29 1318.44 L1341.39 1318.44 L1349.66 1318.44 L1357.76 1318.44 L1365.86 1318.44 L1373.96 1318.44 L1382.06 1318.44 L1390.33 1318.44 L1398.43 1318.44 L1406.53 1318.44 L1414.63 1318.44 L1422.73 1318.44 L1431.00 1318.44 L1439.10 1318.44 L1447.20 1318.44 L1455.30 1318.44 L1463.40 1318.44 L1471.67 1318.44 L1479.77 1318.44 L1487.87 1318.44 L1495.97 1318.44 L1504.07 1318.44 L1512.34 1318.44 L1520.44 1318.44 L1528.54 1318.44 L1536.64 1318.44 L1544.74 1318.44 L1552.84 1318.44 L1561.11 1318.44 L1569.21 1318.44 L1577.31 1318.44 L1585.41 1318.44 L1593.51 1318.44 L1601.78 1318.44 L1609.88 1318.44 L1617.98 1318.44 L1626.08 1318.44 L1634.18 1318.44 L1642.44 1318.44 L1650.54 1318.44 L1658.64 1318.44 L1666.74 1318.44 L1674.84 1318.44 L1683.11 1318.44 L1691.21 1318.44 L1699.31 1318.44 L1707.41 1318.44 L1715.51 1318.44 L1723.78 1318.44 L1731.88 1318.44 L1739.98 1318.44 L1748.08 1318.44 L1756.18 1318.44 L1764.45 1318.44 L1772.55 1318.44 L1780.65 1318.44 L1788.75 1318.44 L1796.85 1318.44 L1805.12 1318.44 L1813.22 1318.44 L1821.32 1318.44 L1829.42 1318.44 L1837.52 1318.44 L1845.79 1318.44 L1853.89 1318.44 L1861.99 1318.44 L1870.09 1318.44 L1878.19 1318.44 L1886.29 1318.44 L1894.56 1318.44 L1902.66 1318.44 L1910.76 1318.44 L1918.86 1318.44 L1926.96 1318.44 L1935.23 1318.44 L1943.33 1318.44 L1951.43 1318.44 L1959.53 1318.44 L1967.63 1318.44 L1975.89 1318.44 L1983.99 1318.44 L1992.09 1318.44 L2000.19 1318.44 L2008.29 1318.44 L2016.56 1318.44 L2024.66 1318.44 L2032.76 1318.44 L2040.86 1318.44 L2048.96 1318.44 L2057.23 1318.44 L2065.33 1318.44 L2073.43 1318.44 L2081.53 1318.44 L2089.63 1318.44 L2097.90 1318.44 L2106.00 1318.44 L2114.10 1318.44 L2122.20 1318.44 L2130.30 1318.44 L2138.57 1318.44 L2146.67 1318.44 L2154.77 1318.44 L2162.87 1318.44 L2170.97 1318.44 L2179.24 1318.44 L2187.34 1318.44 L2195.44 1318.44 L2203.54 1318.44 L2211.64 1318.44 L2219.91 1318.44 L2228.01 1318.44 L2236.11 1318.44 L2244.21 1318.44 L2252.31 1318.44 L2260.41 1318.44 L2268.68 1318.44 L2276.78 1318.44 L2284.88 1318.44 L2292.98 1318.44 L2301.07 1318.44 L2309.34 1318.44 L2317.44 1318.44 L2325.54 1318.44 L2333.64 1318.44 L2341.74 1318.44 L2350.01 1318.44 L2358.11 1318.44 L2366.21 1318.44 L2374.31 1318.44 L2382.41 1318.44 L2390.68 1318.44 L2398.78 1318.44 L2406.88 1318.44 L2414.98 1318.44 L2423.08 1318.44" stroke-linejoin="round" style="fill:none;stroke:#D41159;stroke-width:7.29"/>
	<line x1="360.96" y1="2813.74" x2="360.96" y2="303.58" style="stroke:#000000;stroke-width:4.86"/>
	<line x1="360.96" y1="2760.24" x2="327.21" y2="2760.24" style="stroke:#000000;stroke-width:4.86"/>
	<text x="310.33" y="2789.82" style="font-family:'Helvetica';font-size:84.38px;fill:#000000" text-anchor="end">-3</text>
	<line x1="360.96" y1="2279.64" x2="327.21" y2="2279.64" style="stroke:#000000;stroke-width:4.86"/>
	<text x="310.33" y="2309.22" style="font-family:'Helvetica';font-size:84.38px;fill:#000000" text-anchor="end">-2</text>
	<line x1="360.96" y1="1799.04" x2="327.21" y2="1799.04" style="stroke:#000000;stroke-width:4.86"/>
	<text x="310.33" y="1828.62" style="font-family:'Helvetica';font-size:84.38px;fill:#000000" text-anchor="end">-1</text>
	<line x1="360.96" y1="1318.28" x2="327.21" y2="1318.28" style="stroke:#000000;stroke-width:4.86"/>
	<text x="310.33" y="1347.85" style="font-family:'Helvetica';font-size:84.38px;fill:#000000" text-anchor="end">0</text>
	<line x1="360.96" y1="837.68" x2="327.21" y2="837.68" style="stroke:#000000;stroke-width:4.86"/>
	<text x="310.33" y="867.25" style="font-family:'Helvetica';font-size:84.38px;fill:#000000" text-anchor="end">1</text>
	<line x1="360.96" y1="357.07" x2="327.21" y2="357.07" style="stroke:#000000;stroke-width:4.86"/>
	<text x="310.33" y="386.65" style="font-family:'Helvetica';font-size:84.38px;fill:#000000" text-anchor="end">2</text>
	<line x1="360.96" y1="2813.74" x2="2614.95" y2="2813.74" style="stroke:#000000;stroke-width:4.86"/>
	<line x1="609.53" y1="2813.74" x2="609.53" y2="2847.49" style="stroke:#000000;stroke-width:4.86"/>
	<text x="609.53" y="2923.34" style="font-family:'Helvetica';font-size:84.38px;fill:#000000" text-anchor="middle">2005m1</text>
	<line x1="1097.55" y1="2813.74" x2="1097.55" y2="2847.49" style="stroke:#000000;stroke-width:4.86"/>
	<text x="1097.55" y="2923.34" style="font-family:'Helvetica';font-size:84.38px;fill:#000000" text-anchor="middle">2010m1</text>
	<line x1="1585.58" y1="2813.74" x2="1585.58" y2="2847.49" style="stroke:#000000;stroke-width:4.86"/>
	<text x="1585.58" y="2923.34" style="font-family:'Helvetica';font-size:84.38px;fill:#000000" text-anchor="middle">2015m1</text>
	<line x1="2073.43" y1="2813.74" x2="2073.43" y2="2847.49" style="stroke:#000000;stroke-width:4.86"/>
	<text x="2073.43" y="2923.34" style="font-family:'Helvetica';font-size:84.38px;fill:#000000" text-anchor="middle">2020m1</text>
	<line x1="2561.46" y1="2813.74" x2="2561.46" y2="2847.49" style="stroke:#000000;stroke-width:4.86"/>
	<text x="2561.46" y="2923.34" style="font-family:'Helvetica';font-size:84.38px;fill:#000000" text-anchor="middle">2025m1</text>
	<text x="1487.87" y="3041.47" style="font-family:'Helvetica';font-size:84.38px;fill:#000000" text-anchor="middle">Periodo</text>
	<text x="1487.87" y="253.55" style="font-family:'Helvetica';font-size:118.13px;fill:#000000" text-anchor="middle">Error de predicción a un periodo</text>
	<rect x="2700.00" y="71.21" width="2628.79" height="3097.58" style="fill:#FFFFFF"/>
	<rect x="2702.43" y="73.64" width="2623.93" height="3092.71" style="fill:none;stroke:#FFFFFF;stroke-width:4.86"/>
	<rect x="2989.58" y="303.58" width="2254.16" height="2510.16" style="fill:#FFFFFF"/>
	<rect x="2992.00" y="306.01" width="2249.30" height="2505.30" style="fill:none;stroke:#000000;stroke-width:4.86"/>
	<path d=" M3059.27 1222.09 L3067.37 1312.54 L3075.64 1434.04 L3083.74 1434.21 L3091.84 1224.62 L3099.94 1142.27 L3108.04 1360.13 L3116.31 1452.60 L3124.41 1332.45 L3132.51 1452.09 L3140.61 1512.00 L3148.71 1454.12 L3156.81 1510.99 L3165.08 1385.27 L3173.18 1313.55 L3181.28 1359.28 L3189.38 1456.99 L3197.48 1636.54 L3205.74 1454.46 L3213.84 1377.17 L3221.94 1540.18 L3230.04 1527.53 L3238.14 1367.72 L3246.41 1100.76 L3254.51 981.79 L3262.61 1146.99 L3270.71 1314.23 L3278.81 1354.22 L3287.08 1176.69 L3295.18 1027.01 L3303.28 1234.41 L3311.38 1210.95 L3319.48 1151.38 L3327.75 1171.13 L3335.85 1315.58 L3343.95 1528.71 L3352.05 1569.38 L3360.15 1304.78 L3368.42 1023.30 L3376.52 1171.80 L3384.62 1421.21 L3392.72 1418.68 L3400.82 1266.64 L3409.09 1332.62 L3417.19 1361.81 L3425.29 1111.05 L3433.39 1075.11 L3441.49 1174.33 L3449.76 1054.01 L3457.86 1175.18 L3465.96 1361.98 L3474.06 1321.48 L3482.16 586.91 L3490.26 614.08 L3498.53 1259.55 L3506.63 1216.86 L3514.73 1088.78 L3522.83 1092.82 L3530.93 948.71 L3539.19 904.16 L3547.29 1170.45 L3555.39 1092.49 L3563.49 912.77 L3571.59 1016.38 L3579.86 1417.16 L3587.96 1237.61 L3596.06 884.93 L3604.16 927.96 L3612.26 1040.34 L3620.53 989.55 L3628.63 1230.36 L3636.73 1516.89 L3644.83 1359.79 L3652.93 1268.66 L3661.20 1244.70 L3669.30 1186.99 L3677.40 1466.78 L3685.50 1513.86 L3693.60 1263.77 L3701.87 1328.74 L3709.97 1348.82 L3718.07 1537.31 L3726.17 2760.24 L3734.27 2388.82 L3742.54 1109.36 L3750.64 854.55 L3758.74 900.28 L3766.84 1468.97 L3774.94 1574.78 L3783.21 1725.30 L3791.31 1482.47 L3799.41 1104.97 L3807.51 1382.57 L3815.61 1559.93 L3823.88 1011.32 L3831.98 969.47 L3840.08 1204.20 L3848.18 1466.78 L3856.28 1916.16 L3864.38 1412.94 L3872.64 922.89 L3880.74 1077.97 L3888.84 1311.53 L3896.94 1458.17 L3905.04 1248.24 L3913.31 1046.08 L3921.41 1016.21 L3929.51 1320.13 L3937.61 1354.39 L3945.71 1380.38 L3953.98 1284.19 L3962.08 1227.66 L3970.18 1268.16 L3978.28 996.47 L3986.38 1295.66 L3994.65 1372.11 L4002.75 1143.28 L4010.85 1207.74 L4018.95 1466.44 L4027.05 1460.36 L4035.32 1250.61 L4043.42 1045.24 L4051.52 1179.90 L4059.62 1486.52 L4067.72 1711.63 L4075.99 1275.24 L4084.09 871.76 L4092.19 1308.99 L4100.29 1570.39 L4108.39 1375.65 L4116.66 1051.31 L4124.76 1045.41 L4132.86 1178.38 L4140.96 1238.96 L4149.06 1206.22 L4157.33 1151.04 L4165.43 889.48 L4173.52 1357.09 L4181.63 1633.50 L4189.73 997.48 L4197.83 882.06 L4206.09 1002.04 L4214.19 1175.01 L4222.29 1258.37 L4230.39 1204.03 L4238.49 1438.59 L4246.76 1500.69 L4254.86 1107.00 L4262.96 1072.91 L4271.06 1343.25 L4279.16 1301.40 L4287.43 1229.68 L4295.53 1336.67 L4303.63 1437.24 L4311.73 1081.18 L4319.83 1096.20 L4328.10 1447.20 L4336.20 1338.36 L4344.30 1303.26 L4352.40 1144.97 L4360.50 1440.62 L4368.77 1256.68 L4376.87 1174.84 L4384.97 1420.54 L4393.07 1342.91 L4401.17 1452.94 L4409.44 1158.81 L4417.54 915.97 L4425.64 1509.47 L4433.74 1361.98 L4441.84 975.54 L4450.11 1066.33 L4458.21 842.74 L4466.31 883.41 L4474.41 1489.73 L4482.51 1571.74 L4490.77 900.45 L4498.88 1232.55 L4506.98 1586.93 L4515.08 1379.19 L4523.18 1170.96 L4531.27 1359.11 L4539.54 1256.51 L4547.64 1272.54 L4555.74 1665.56 L4563.84 1662.86 L4571.94 1035.11 L4580.21 971.49 L4588.31 1516.73 L4596.41 1571.06 L4604.51 1470.15 L4612.61 1085.91 L4620.88 934.03 L4628.98 1038.66 L4637.08 1238.12 L4645.18 1551.15 L4653.28 1486.01 L4661.55 1167.24 L4669.65 1535.96 L4677.75 1621.01 L4685.85 1377.68 L4693.95 1193.40 L4702.22 1061.27 L4710.32 1470.15 L4718.42 1423.58 L4726.52 2195.78 L4734.62 2346.47 L4742.89 1260.06 L4750.99 1145.64 L4759.09 1424.93 L4767.19 1224.79 L4775.29 1085.57 L4783.56 1261.74 L4791.66 1736.44 L4799.76 1838.53 L4807.86 1491.08 L4815.96 1454.12 L4824.23 777.43 L4832.33 1008.28 L4840.43 1546.43 L4848.52 1214.49 L4856.63 1361.81 L4864.73 1909.41 L4872.99 1680.58 L4881.09 1276.26 L4889.19 965.42 L4897.29 654.75 L4905.39 1165.39 L4913.66 1650.21 L4921.76 1334.31 L4929.86 391.67 L4937.96 449.89 L4946.06 1409.23 L4954.33 1077.47 L4962.43 790.43 L4970.53 1318.78 L4978.63 1401.98 L4986.73 1217.70 L4995.00 874.13 L5003.10 904.50 L5011.20 1154.25 L5019.30 1379.19 L5027.40 1587.94 L5035.67 1405.69 L5043.77 1520.78 L5051.87 2154.77" stroke-linejoin="round" style="fill:none;stroke:#0080FF;stroke-width:7.29"/>
	<path d=" M3043.07 1284.69 L3051.17 1284.69 L3059.27 1284.69 L3067.37 1284.69 L3075.64 1284.69 L3083.74 1284.69 L3091.84 1284.69 L3099.94 1284.69 L3108.04 1284.69 L3116.31 1284.69 L3124.41 1284.69 L3132.51 1284.69 L3140.61 1284.69 L3148.71 1284.69 L3156.81 1284.69 L3165.08 1284.69 L3173.18 1284.69 L3181.28 1284.69 L3189.38 1284.69 L3197.48 1284.69 L3205.74 1284.69 L3213.84 1284.69 L3221.94 1284.69 L3230.04 1284.69 L3238.14 1284.69 L3246.41 1284.69 L3254.51 1284.69 L3262.61 1284.69 L3270.71 1284.69 L3278.81 1284.69 L3287.08 1284.69 L3295.18 1284.69 L3303.28 1284.69 L3311.38 1284.69 L3319.48 1284.69 L3327.75 1284.69 L3335.85 1284.69 L3343.95 1284.69 L3352.05 1284.69 L3360.15 1284.69 L3368.42 1284.69 L3376.52 1284.69 L3384.62 1284.69 L3392.72 1284.69 L3400.82 1284.69 L3409.09 1284.69 L3417.19 1284.69 L3425.29 1284.69 L3433.39 1284.69 L3441.49 1284.69 L3449.76 1284.69 L3457.86 1284.69 L3465.96 1284.69 L3474.06 1284.69 L3482.16 1284.69 L3490.26 1284.69 L3498.53 1284.69 L3506.63 1284.69 L3514.73 1284.69 L3522.83 1284.69 L3530.93 1284.69 L3539.19 1284.69 L3547.29 1284.69 L3555.39 1284.69 L3563.49 1284.69 L3571.59 1284.69 L3579.86 1284.69 L3587.96 1284.69 L3596.06 1284.69 L3604.16 1284.69 L3612.26 1284.69 L3620.53 1284.69 L3628.63 1284.69 L3636.73 1284.69 L3644.83 1284.69 L3652.93 1284.69 L3661.20 1284.69 L3669.30 1284.69 L3677.40 1284.69 L3685.50 1284.69 L3693.60 1284.69 L3701.87 1284.69 L3709.97 1284.69 L3718.07 1284.69 L3726.17 1284.69 L3734.27 1284.69 L3742.54 1284.69 L3750.64 1284.69 L3758.74 1284.69 L3766.84 1284.69 L3774.94 1284.69 L3783.21 1284.69 L3791.31 1284.69 L3799.41 1284.69 L3807.51 1284.69 L3815.61 1284.69 L3823.88 1284.69 L3831.98 1284.69 L3840.08 1284.69 L3848.18 1284.69 L3856.28 1284.69 L3864.38 1284.69 L3872.64 1284.69 L3880.74 1284.69 L3888.84 1284.69 L3896.94 1284.69 L3905.04 1284.69 L3913.31 1284.69 L3921.41 1284.69 L3929.51 1284.69 L3937.61 1284.69 L3945.71 1284.69 L3953.98 1284.69 L3962.08 1284.69 L3970.18 1284.69 L3978.28 1284.69 L3986.38 1284.69 L3994.65 1284.69 L4002.75 1284.69 L4010.85 1284.69 L4018.95 1284.69 L4027.05 1284.69 L4035.32 1284.69 L4043.42 1284.69 L4051.52 1284.69 L4059.62 1284.69 L4067.72 1284.69 L4075.99 1284.69 L4084.09 1284.69 L4092.19 1284.69 L4100.29 1284.69 L4108.39 1284.69 L4116.66 1284.69 L4124.76 1284.69 L4132.86 1284.69 L4140.96 1284.69 L4149.06 1284.69 L4157.33 1284.69 L4165.43 1284.69 L4173.52 1284.69 L4181.63 1284.69 L4189.73 1284.69 L4197.83 1284.69 L4206.09 1284.69 L4214.19 1284.69 L4222.29 1284.69 L4230.39 1284.69 L4238.49 1284.69 L4246.76 1284.69 L4254.86 1284.69 L4262.96 1284.69 L4271.06 1284.69 L4279.16 1284.69 L4287.43 1284.69 L4295.53 1284.69 L4303.63 1284.69 L4311.73 1284.69 L4319.83 1284.69 L4328.10 1284.69 L4336.20 1284.69 L4344.30 1284.69 L4352.40 1284.69 L4360.50 1284.69 L4368.77 1284.69 L4376.87 1284.69 L4384.97 1284.69 L4393.07 1284.69 L4401.17 1284.69 L4409.44 1284.69 L4417.54 1284.69 L4425.64 1284.69 L4433.74 1284.69 L4441.84 1284.69 L4450.11 1284.69 L4458.21 1284.69 L4466.31 1284.69 L4474.41 1284.69 L4482.51 1284.69 L4490.77 1284.69 L4498.88 1284.69 L4506.98 1284.69 L4515.08 1284.69 L4523.18 1284.69 L4531.27 1284.69 L4539.54 1284.69 L4547.64 1284.69 L4555.74 1284.69 L4563.84 1284.69 L4571.94 1284.69 L4580.21 1284.69 L4588.31 1284.69 L4596.41 1284.69 L4604.51 1284.69 L4612.61 1284.69 L4620.88 1284.69 L4628.98 1284.69 L4637.08 1284.69 L4645.18 1284.69 L4653.28 1284.69 L4661.55 1284.69 L4669.65 1284.69 L4677.75 1284.69 L4685.85 1284.69 L4693.95 1284.69 L4702.22 1284.69 L4710.32 1284.69 L4718.42 1284.69 L4726.52 1284.69 L4734.62 1284.69 L4742.89 1284.69 L4750.99 1284.69 L4759.09 1284.69 L4767.19 1284.69 L4775.29 1284.69 L4783.56 1284.69 L4791.66 1284.69 L4799.76 1284.69 L4807.86 1284.69 L4815.96 1284.69 L4824.23 1284.69 L4832.33 1284.69 L4840.43 1284.69 L4848.52 1284.69 L4856.63 1284.69 L4864.73 1284.69 L4872.99 1284.69 L4881.09 1284.69 L4889.19 1284.69 L4897.29 1284.69 L4905.39 1284.69 L4913.66 1284.69 L4921.76 1284.69 L4929.86 1284.69 L4937.96 1284.69 L4946.06 1284.69 L4954.33 1284.69 L4962.43 1284.69 L4970.53 1284.69 L4978.63 1284.69 L4986.73 1284.69 L4995.00 1284.69 L5003.10 1284.69 L5011.20 1284.69 L5019.30 1284.69 L5027.40 1284.69 L5035.67 1284.69 L5043.77 1284.69 L5051.87 1284.69" stroke-linejoin="round" style="fill:none;stroke:#D41159;stroke-width:7.29"/>
	<line x1="2989.58" y1="2813.74" x2="2989.58" y2="303.58" style="stroke:#000000;stroke-width:4.86"/>
	<line x1="2989.58" y1="2675.87" x2="2955.83" y2="2675.87" style="stroke:#000000;stroke-width:4.86"/>
	<text x="2938.95" y="2705.44" style="font-family:'Helvetica';font-size:84.38px;fill:#000000" text-anchor="end">-3</text>
	<line x1="2989.58" y1="2212.14" x2="2955.83" y2="2212.14" style="stroke:#000000;stroke-width:4.86"/>
	<text x="2938.95" y="2241.72" style="font-family:'Helvetica';font-size:84.38px;fill:#000000" text-anchor="end">-2</text>
	<line x1="2989.58" y1="1748.25" x2="2955.83" y2="1748.25" style="stroke:#000000;stroke-width:4.86"/>
	<text x="2938.95" y="1777.82" style="font-family:'Helvetica';font-size:84.38px;fill:#000000" text-anchor="end">-1</text>
	<line x1="2989.58" y1="1284.53" x2="2955.83" y2="1284.53" style="stroke:#000000;stroke-width:4.86"/>
	<text x="2938.95" y="1314.10" style="font-family:'Helvetica';font-size:84.38px;fill:#000000" text-anchor="end">0</text>
	<line x1="2989.58" y1="820.80" x2="2955.83" y2="820.80" style="stroke:#000000;stroke-width:4.86"/>
	<text x="2938.95" y="850.37" style="font-family:'Helvetica';font-size:84.38px;fill:#000000" text-anchor="end">1</text>
	<line x1="2989.58" y1="357.07" x2="2955.83" y2="357.07" style="stroke:#000000;stroke-width:4.86"/>
	<text x="2938.95" y="386.65" style="font-family:'Helvetica';font-size:84.38px;fill:#000000" text-anchor="end">2</text>
	<line x1="2989.58" y1="2813.74" x2="5243.74" y2="2813.74" style="stroke:#000000;stroke-width:4.86"/>
	<line x1="3238.31" y1="2813.74" x2="3238.31" y2="2847.49" style="stroke:#000000;stroke-width:4.86"/>
	<text x="3238.31" y="2923.34" style="font-family:'Helvetica';font-size:84.38px;fill:#000000" text-anchor="middle">2005m1</text>
	<line x1="3726.34" y1="2813.74" x2="3726.34" y2="2847.49" style="stroke:#000000;stroke-width:4.86"/>
	<text x="3726.34" y="2923.34" style="font-family:'Helvetica';font-size:84.38px;fill:#000000" text-anchor="middle">2010m1</text>
	<line x1="4214.19" y1="2813.74" x2="4214.19" y2="2847.49" style="stroke:#000000;stroke-width:4.86"/>
	<text x="4214.19" y="2923.34" style="font-family:'Helvetica';font-size:84.38px;fill:#000000" text-anchor="middle">2015m1</text>
	<line x1="4702.22" y1="2813.74" x2="4702.22" y2="2847.49" style="stroke:#000000;stroke-width:4.86"/>
	<text x="4702.22" y="2923.34" style="font-family:'Helvetica';font-size:84.38px;fill:#000000" text-anchor="middle">2020m1</text>
	<line x1="5190.24" y1="2813.74" x2="5190.24" y2="2847.49" style="stroke:#000000;stroke-width:4.86"/>
	<text x="5190.24" y="2923.34" style="font-family:'Helvetica';font-size:84.38px;fill:#000000" text-anchor="middle">2025m1</text>
	<text x="4116.66" y="3041.47" style="font-family:'Helvetica';font-size:84.38px;fill:#000000" text-anchor="middle">Periodo</text>
	<text x="4116.66" y="253.55" style="font-family:'Helvetica';font-size:118.13px;fill:#000000" text-anchor="middle">Error de predicción a dos periodos</text>
</svg>
