<?xml version="1.0" encoding="UTF-8" standalone="no"?>
<!-- This is a Stata 18.0 generated SVG file (http://www.stata.com) -->

<svg version="1.1" width="6.000in" height="4.000in" viewBox="0 0 4320 2880" xmlns="http://www.w3.org/2000/svg" xmlns:xlink="http://www.w3.org/1999/xlink">
	<desc>Stata Graph - Graph</desc>
	<rect x="0" y="0" width="4320" height="2880" style="fill:#FFFFFF;stroke:none"/>
	<rect x="0.00" y="0.00" width="4320.00" height="2880.00" style="fill:#FFFFFF"/>
	<rect x="2.88" y="2.88" width="4314.24" height="2874.24" style="fill:none;stroke:#FFFFFF;stroke-width:5.76"/>
	<rect x="554.17" y="275.40" width="3664.98" height="2183.79" style="fill:#FFFFFF"/>
	<rect x="557.05" y="278.28" width="3659.22" height="2178.03" style="fill:none;stroke:#000000;stroke-width:5.76"/>
	<path d=" M617.36 2336.35 L618.17 2336.48 L618.84 2344.31 L619.52 2350.79 L620.19 2355.52 L621.00 2356.06 L621.67 2360.24 L622.35 2362.81 L623.03 2363.75 L623.84 2367.53 L624.51 2368.48 L625.18 2371.45 L625.86 2371.31 L626.67 2373.34 L627.35 2375.36 L628.02 2370.64 L628.70 2368.61 L629.37 2360.11 L630.18 2363.75 L630.86 2366.99 L631.53 2369.83 L632.21 2372.66 L633.02 2370.91 L633.69 2373.61 L634.37 2368.48 L635.04 2371.04 L635.85 2372.80 L636.53 2369.69 L637.20 2371.45 L637.88 2371.99 L638.68 2370.23 L639.36 2371.85 L640.04 2373.34 L640.71 2374.96 L641.52 2376.44 L642.20 2377.93 L642.87 2379.01 L643.54 2380.49 L644.36 2381.71 L645.03 2378.74 L645.71 2378.47 L646.38 2379.95 L647.19 2380.90 L647.87 2381.98 L648.54 2378.87 L649.22 2377.79 L650.03 2366.05 L650.70 2353.76 L651.38 2353.49 L652.05 2346.47 L652.73 2352.14 L653.54 2351.87 L654.21 2357.27 L654.89 2353.76 L655.56 2347.42 L656.37 2352.95 L657.05 2357.41 L657.72 2351.20 L658.40 2356.73 L659.21 2354.44 L659.88 2358.89 L660.56 2363.35 L661.23 2366.18 L662.04 2366.45 L662.72 2366.99 L663.39 2369.96 L664.07 2369.83 L664.88 2372.39 L665.55 2374.01 L666.23 2365.24 L666.90 2368.34 L667.71 2371.45 L668.39 2373.07 L669.06 2375.50 L669.74 2363.35 L670.55 2366.59 L671.22 2360.92 L671.90 2365.10 L672.57 2367.26 L673.25 2370.37 L674.06 2361.73 L674.73 2361.19 L675.41 2362.27 L676.08 2363.21 L676.89 2366.99 L677.57 2370.37 L678.24 2369.83 L678.92 2360.24 L679.73 2355.79 L680.40 2359.16 L681.08 2363.62 L681.75 2367.13 L682.56 2370.23 L683.24 2365.24 L683.91 2367.67 L684.59 2370.10 L685.40 2372.93 L686.07 2374.96 L686.75 2376.98 L687.42 2367.40 L688.23 2370.50 L688.91 2371.99 L689.58 2374.55 L690.26 2376.71 L691.07 2378.20 L691.74 2376.31 L692.42 2377.39 L693.09 2366.99 L693.90 2370.10 L694.58 2367.67 L695.25 2370.23 L695.93 2367.26 L696.60 2369.42 L697.41 2372.39 L698.09 2374.55 L698.76 2376.58 L699.44 2377.25 L700.25 2378.60 L700.92 2376.85 L701.60 2378.20 L702.27 2377.66 L703.08 2379.14 L703.76 2380.49 L704.43 2381.17 L705.11 2375.90 L705.92 2376.71 L706.59 2373.88 L707.27 2376.04 L707.94 2373.34 L708.75 2375.50 L709.43 2377.52 L710.10 2379.28 L710.78 2379.68 L711.59 2379.41 L712.26 2378.60 L712.94 2379.95 L713.61 2379.68 L714.42 2370.37 L715.10 2373.07 L715.77 2369.02 L716.45 2371.18 L717.12 2370.37 L717.93 2373.20 L718.61 2374.96 L719.28 2377.12 L719.96 2378.33 L720.77 2377.12 L721.44 2378.60 L722.12 2363.21 L722.79 2350.25 L723.60 2355.92 L724.28 2354.30 L724.95 2358.62 L725.63 2353.76 L726.44 2358.89 L727.11 2355.92 L727.79 2360.78 L728.46 2358.35 L729.27 2361.86 L729.95 2364.43 L730.62 2367.53 L731.30 2370.77 L732.11 2371.04 L732.78 2373.74 L733.46 2375.90 L734.13 2374.15 L734.94 2375.90 L735.62 2377.79 L736.29 2374.01 L736.97 2375.23 L737.78 2375.36 L738.45 2376.17 L739.13 2378.06 L739.80 2378.74 L740.48 2380.22 L741.29 2381.44 L741.96 2379.55 L742.64 2380.76 L743.31 2381.30 L744.12 2380.49 L744.80 2380.22 L745.47 2370.50 L746.15 2371.18 L746.96 2373.88 L747.63 2373.61 L748.31 2374.82 L748.98 2376.31 L749.79 2378.20 L750.47 2369.15 L751.14 2371.58 L751.82 2374.15 L752.63 2374.55 L753.30 2371.31 L753.98 2369.83 L754.65 2372.66 L755.46 2374.55 L756.14 2373.20 L756.81 2369.29 L757.49 2371.85 L758.30 2373.47 L758.97 2369.96 L759.65 2372.80 L760.32 2375.09 L761.00 2370.91 L761.81 2373.34 L762.48 2366.18 L763.16 2361.32 L763.83 2365.37 L764.64 2368.75 L765.32 2371.72 L765.99 2374.28 L766.67 2370.77 L767.48 2359.84 L768.15 2363.21 L768.83 2366.99 L769.50 2370.23 L770.31 2372.93 L770.99 2371.45 L771.66 2369.42 L772.34 2372.39 L773.15 2372.12 L773.82 2373.34 L774.50 2375.63 L775.17 2370.77 L775.98 2372.26 L776.66 2374.69 L777.33 2376.04 L778.01 2377.93 L778.82 2378.87 L779.49 2379.28 L780.17 2369.96 L780.84 2372.80 L781.65 2375.23 L782.33 2377.12 L783.00 2372.12 L783.68 2374.01 L784.35 2374.82 L785.16 2376.85 L785.84 2374.69 L786.51 2376.04 L787.19 2377.79 L788.00 2379.14 L788.67 2377.39 L789.35 2379.14 L790.02 2376.71 L790.83 2377.93 L791.51 2379.55 L792.18 2379.82 L792.86 2378.87 L793.67 2380.36 L794.34 2381.71 L795.02 2382.52 L795.69 2379.82 L796.50 2372.39 L797.18 2373.61 L797.85 2375.63 L798.53 2377.39 L799.34 2378.87 L800.01 2378.06 L800.69 2379.28 L801.36 2376.17 L802.17 2376.98 L802.85 2374.55 L803.52 2371.58 L804.20 2369.83 L804.87 2369.42 L805.68 2371.04 L806.36 2373.34 L807.03 2374.82 L807.71 2376.98 L808.52 2378.06 L809.19 2376.98 L809.87 2376.71 L810.54 2378.06 L811.35 2379.14 L812.03 2375.36 L812.70 2377.25 L813.38 2379.01 L814.19 2375.90 L814.86 2377.39 L815.54 2377.12 L816.21 2378.87 L817.02 2379.95 L817.70 2381.30 L818.37 2378.60 L819.05 2380.09 L819.86 2368.88 L820.53 2371.04 L821.21 2371.18 L821.88 2369.42 L822.69 2369.96 L823.37 2371.58 L824.04 2374.15 L824.72 2376.31 L825.53 2374.28 L826.20 2376.04 L826.88 2376.44 L827.55 2372.12 L828.23 2374.69 L829.04 2373.34 L829.71 2374.69 L830.39 2373.47 L831.06 2371.04 L831.87 2373.74 L832.55 2375.90 L833.22 2375.90 L833.90 2370.50 L834.71 2373.20 L835.38 2375.23 L836.06 2377.25 L836.73 2374.82 L837.54 2369.29 L838.22 2372.12 L838.89 2371.72 L839.57 2374.15 L840.38 2375.77 L841.05 2377.66 L841.73 2377.93 L842.40 2375.09 L843.21 2377.12 L843.89 2377.93 L844.56 2371.45 L845.24 2366.32 L846.05 2351.33 L846.72 2357.00 L847.40 2360.65 L848.07 2353.49 L848.75 2342.83 L849.56 2346.74 L850.23 2350.39 L850.91 2350.66 L851.58 2356.06 L852.39 2352.01 L853.07 2352.14 L853.74 2357.00 L854.42 2361.73 L855.23 2359.70 L855.90 2363.62 L856.58 2367.13 L857.25 2368.75 L858.06 2364.43 L858.74 2367.67 L859.41 2364.16 L860.09 2365.91 L860.90 2365.91 L861.57 2366.99 L862.25 2366.05 L862.92 2368.34 L863.73 2371.18 L864.41 2373.20 L865.08 2375.50 L865.76 2376.71 L866.57 2377.25 L867.24 2378.87 L867.92 2377.79 L868.59 2375.90 L869.40 2377.79 L870.08 2376.85 L870.75 2378.60 L871.43 2380.09 L872.10 2380.90 L872.91 2381.03 L873.59 2381.71 L874.26 2382.65 L874.94 2383.46 L875.75 2384.14 L876.42 2384.41 L877.10 2383.87 L877.77 2384.54 L878.58 2384.95 L879.26 2385.49 L879.93 2379.14 L880.61 2376.17 L881.42 2377.93 L882.09 2376.31 L882.77 2378.06 L883.44 2376.17 L884.25 2377.93 L884.93 2376.31 L885.60 2374.28 L886.28 2376.44 L887.09 2371.99 L887.76 2372.66 L888.44 2374.96 L889.11 2376.98 L889.92 2378.60 L890.60 2380.09 L891.27 2379.55 L891.95 2379.28 L892.62 2379.55 L893.43 2378.47 L894.11 2378.87 L894.78 2379.41 L895.46 2380.76 L896.27 2381.17 L896.94 2380.90 L897.62 2378.74 L898.29 2380.22 L899.10 2379.41 L899.78 2380.76 L900.45 2378.74 L901.13 2376.44 L901.94 2377.39 L902.61 2377.25 L903.29 2378.74 L903.96 2378.06 L904.77 2377.52 L905.45 2379.01 L906.12 2371.85 L906.80 2374.42 L907.61 2376.31 L908.28 2378.20 L908.96 2379.82 L909.63 2380.36 L910.44 2378.33 L911.12 2379.82 L911.79 2378.33 L912.47 2378.74 L913.28 2379.28 L913.95 2376.58 L914.63 2378.47 L915.30 2379.41 L915.98 2374.28 L916.79 2376.17 L917.46 2376.85 L918.14 2375.90 L918.81 2377.79 L919.62 2376.04 L920.30 2376.85 L920.97 2378.60 L921.65 2377.52 L922.46 2377.52 L923.13 2374.69 L923.81 2371.18 L924.48 2373.61 L925.29 2375.90 L925.97 2377.79 L926.64 2379.41 L927.32 2380.90 L928.13 2378.74 L928.80 2380.22 L929.48 2381.30 L930.15 2375.90 L930.96 2363.48 L931.64 2365.10 L932.31 2368.48 L932.99 2367.67 L933.80 2370.10 L934.47 2369.56 L935.15 2372.12 L935.82 2372.53 L936.50 2374.69 L937.31 2369.83 L937.98 2363.62 L938.66 2353.90 L939.33 2359.16 L940.14 2351.87 L940.82 2357.14 L941.49 2360.11 L942.17 2357.00 L942.98 2351.06 L943.65 2354.17 L944.33 2358.49 L945.00 2358.89 L945.81 2362.67 L946.49 2366.59 L947.16 2369.96 L947.84 2371.85 L948.65 2374.42 L949.32 2373.47 L950.00 2375.36 L950.67 2377.39 L951.48 2377.93 L952.16 2379.55 L952.83 2376.98 L953.51 2377.79 L954.32 2378.20 L954.99 2378.47 L955.67 2379.41 L956.34 2380.63 L957.15 2377.93 L957.83 2379.55 L958.50 2378.33 L959.18 2373.07 L959.85 2375.50 L960.66 2377.12 L961.34 2378.87 L962.01 2379.01 L962.69 2380.22 L963.50 2381.17 L964.17 2382.38 L964.85 2381.98 L965.52 2382.25 L966.33 2383.19 L967.01 2383.33 L967.68 2381.98 L968.36 2382.92 L969.17 2383.60 L969.84 2383.73 L970.52 2384.54 L971.19 2379.55 L972.00 2381.03 L972.68 2381.30 L973.35 2380.76 L974.03 2370.10 L974.84 2372.12 L975.51 2374.69 L976.19 2372.66 L976.86 2374.42 L977.67 2376.58 L978.35 2377.93 L979.02 2377.39 L979.70 2379.14 L980.37 2379.82 L981.18 2379.95 L981.86 2380.09 L982.53 2362.54 L983.21 2366.45 L984.02 2369.83 L984.69 2372.39 L985.37 2372.80 L986.04 2372.39 L986.85 2374.82 L987.53 2375.90 L988.20 2377.79 L988.88 2374.55 L989.69 2374.28 L990.36 2376.44 L991.04 2374.01 L991.71 2373.47 L992.52 2375.50 L993.20 2377.39 L993.87 2378.20 L994.55 2375.50 L995.36 2377.12 L996.03 2376.31 L996.71 2377.93 L997.38 2378.87 L998.19 2378.20 L998.87 2379.01 L999.54 2380.49 L1000.22 2381.30 L1001.03 2375.90 L1001.70 2375.23 L1002.38 2376.98 L1003.05 2378.60 L1003.73 2376.71 L1004.54 2378.06 L1005.21 2379.68 L1005.89 2379.55 L1006.56 2379.14 L1007.37 2380.49 L1008.05 2376.98 L1008.72 2377.79 L1009.40 2379.41 L1010.21 2380.76 L1010.88 2381.71 L1011.56 2380.49 L1012.23 2380.49 L1013.04 2381.30 L1013.72 2382.52 L1014.39 2383.33 L1015.07 2381.30 L1015.88 2380.36 L1016.55 2381.30 L1017.23 2381.17 L1017.90 2382.25 L1018.71 2381.57 L1019.39 2381.98 L1020.06 2382.79 L1020.74 2376.98 L1021.55 2378.74 L1022.22 2376.31 L1022.90 2378.20 L1023.57 2379.82 L1024.24 2380.36 L1025.06 2368.75 L1025.73 2371.45 L1026.41 2374.15 L1027.08 2376.31 L1027.89 2377.66 L1028.57 2377.66 L1029.24 2379.14 L1029.92 2380.22 L1030.72 2381.57 L1031.40 2381.44 L1032.08 2381.17 L1032.75 2381.30 L1033.56 2382.25 L1034.23 2378.33 L1034.91 2379.95 L1035.59 2381.30 L1036.40 2382.11 L1037.07 2373.34 L1037.74 2366.99 L1038.42 2370.23 L1039.23 2372.66 L1039.91 2357.54 L1040.58 2358.08 L1041.26 2362.40 L1042.07 2364.97 L1042.74 2366.59 L1043.42 2369.96 L1044.09 2367.67 L1044.90 2369.56 L1045.58 2357.41 L1046.25 2360.38 L1046.93 2357.95 L1047.60 2362.54 L1048.41 2347.55 L1049.09 2353.09 L1049.76 2355.38 L1050.44 2360.38 L1051.24 2362.67 L1051.92 2357.00 L1052.60 2352.01 L1053.27 2357.14 L1054.08 2342.15 L1054.76 2348.36 L1055.43 2348.23 L1056.11 2354.17 L1056.92 2355.92 L1057.59 2358.89 L1058.27 2363.08 L1058.94 2366.32 L1059.75 2364.16 L1060.43 2367.13 L1061.10 2349.04 L1061.78 2354.84 L1062.59 2357.54 L1063.26 2359.03 L1063.94 2363.35 L1064.61 2364.02 L1065.42 2367.80 L1066.10 2370.50 L1066.77 2366.05 L1067.45 2357.95 L1068.12 2359.97 L1068.93 2363.75 L1069.61 2367.53 L1070.28 2355.52 L1070.96 2356.46 L1071.77 2357.41 L1072.44 2350.66 L1073.12 2354.44 L1073.79 2359.57 L1074.60 2362.67 L1075.28 2360.24 L1075.95 2364.43 L1076.63 2366.59 L1077.44 2369.15 L1078.11 2371.99 L1078.79 2374.42 L1079.46 2375.90 L1080.27 2376.85 L1080.95 2377.12 L1081.62 2378.20 L1082.30 2378.74 L1083.11 2380.22 L1083.78 2373.07 L1084.46 2372.53 L1085.13 2374.82 L1085.94 2376.44 L1086.62 2377.39 L1087.29 2379.14 L1087.96 2379.28 L1088.78 2380.63 L1089.45 2381.71 L1090.13 2381.84 L1090.80 2382.79 L1091.47 2383.73 L1092.29 2384.27 L1092.96 2383.73 L1093.64 2384.41 L1094.31 2379.41 L1095.12 2379.01 L1095.80 2380.09 L1096.47 2381.44 L1097.15 2377.66 L1097.96 2378.60 L1098.63 2379.95 L1099.31 2381.17 L1099.98 2382.25 L1100.79 2382.79 L1101.46 2382.38 L1102.14 2381.57 L1102.82 2382.11 L1103.63 2379.82 L1104.30 2378.33 L1104.97 2379.95 L1105.65 2381.17 L1106.46 2381.98 L1107.14 2382.25 L1107.81 2383.06 L1108.48 2376.85 L1109.30 2378.33 L1109.97 2379.55 L1110.65 2380.90 L1111.32 2381.98 L1111.99 2382.52 L1112.81 2379.14 L1113.48 2380.36 L1114.16 2381.30 L1114.83 2381.71 L1115.64 2382.79 L1116.32 2383.60 L1116.99 2384.41 L1117.67 2383.33 L1118.47 2384.14 L1119.15 2384.41 L1119.83 2383.73 L1120.50 2380.63 L1121.31 2381.84 L1121.98 2382.92 L1122.66 2380.76 L1123.34 2381.84 L1124.15 2382.52 L1124.82 2377.79 L1125.49 2379.14 L1126.17 2380.49 L1126.98 2380.09 L1127.66 2381.30 L1128.33 2382.25 L1129.01 2381.30 L1129.82 2382.25 L1130.49 2382.92 L1131.17 2383.87 L1131.84 2384.54 L1132.65 2385.08 L1133.33 2385.49 L1134.00 2385.22 L1134.68 2375.09 L1135.35 2376.85 L1136.16 2374.82 L1136.84 2376.85 L1137.51 2378.06 L1138.19 2376.17 L1138.99 2377.25 L1139.67 2378.87 L1140.35 2379.41 L1141.02 2380.76 L1141.83 2381.84 L1142.51 2382.79 L1143.18 2383.73 L1143.86 2380.90 L1144.67 2381.98 L1145.34 2382.38 L1146.02 2383.33 L1146.69 2384.00 L1147.50 2383.73 L1148.18 2382.65 L1148.85 2382.92 L1149.53 2381.57 L1150.34 2382.52 L1151.01 2382.11 L1151.69 2382.92 L1152.36 2383.87 L1153.17 2382.25 L1153.85 2383.19 L1154.52 2383.87 L1155.20 2384.54 L1155.87 2383.60 L1156.68 2383.33 L1157.36 2384.14 L1158.03 2384.81 L1158.71 2384.68 L1159.52 2385.08 L1160.19 2383.87 L1160.87 2384.27 L1161.54 2381.71 L1162.35 2375.90 L1163.03 2377.52 L1163.70 2379.01 L1164.38 2379.28 L1165.19 2378.74 L1165.86 2378.87 L1166.54 2380.36 L1167.21 2381.44 L1168.02 2382.65 L1168.70 2383.46 L1169.37 2384.14 L1170.05 2381.71 L1170.86 2381.84 L1171.53 2380.63 L1172.21 2379.01 L1172.88 2380.49 L1173.69 2381.71 L1174.37 2382.52 L1175.04 2383.33 L1175.71 2384.00 L1176.53 2383.87 L1177.20 2384.41 L1177.88 2315.83 L1178.55 2326.49 L1179.22 2335.00 L1180.04 2334.59 L1180.71 2335.54 L1181.39 2333.92 L1182.06 2341.61 L1182.87 2346.88 L1183.55 2353.09 L1184.22 2358.35 L1184.90 2337.56 L1185.71 2344.18 L1186.38 2350.66 L1187.06 2355.25 L1187.73 2356.06 L1188.54 2359.16 L1189.21 2350.12 L1189.89 2355.92 L1190.57 2360.92 L1191.38 2365.10 L1192.05 2366.05 L1192.72 2365.24 L1193.40 2368.48 L1194.21 2371.45 L1194.89 2373.88 L1195.56 2372.26 L1196.23 2374.69 L1197.05 2376.58 L1197.72 2378.33 L1198.40 2379.68 L1199.07 2378.33 L1199.74 2378.47 L1200.56 2379.55 L1201.23 2375.23 L1201.91 2377.12 L1202.58 2378.87 L1203.39 2380.22 L1204.07 2377.25 L1204.74 2378.74 L1205.42 2380.22 L1206.22 2376.85 L1206.90 2378.74 L1207.58 2380.22 L1208.25 2378.20 L1209.06 2379.68 L1209.73 2378.87 L1210.41 2379.55 L1211.09 2380.63 L1211.90 2381.71 L1212.57 2382.65 L1213.24 2383.19 L1213.92 2373.61 L1214.73 2372.26 L1215.41 2374.55 L1216.08 2376.58 L1216.76 2374.96 L1217.57 2376.98 L1218.24 2376.71 L1218.92 2378.47 L1219.59 2379.95 L1220.40 2381.17 L1221.08 2376.98 L1221.75 2377.79 L1222.43 2379.28 L1223.10 2377.66 L1223.91 2379.41 L1224.59 2380.22 L1225.26 2381.30 L1225.94 2380.90 L1226.74 2377.25 L1227.42 2360.38 L1228.10 2359.84 L1228.77 2364.29 L1229.58 2361.19 L1230.26 2355.52 L1230.93 2359.30 L1231.61 2361.73 L1232.42 2365.64 L1233.09 2369.02 L1233.77 2361.32 L1234.44 2364.29 L1235.25 2358.22 L1235.93 2361.73 L1236.60 2364.70 L1237.28 2364.97 L1238.09 2368.48 L1238.76 2371.31 L1239.44 2369.29 L1240.11 2371.58 L1240.92 2374.15 L1241.60 2375.90 L1242.27 2377.93 L1242.95 2368.07 L1243.62 2370.37 L1244.43 2355.25 L1245.11 2359.70 L1245.78 2363.89 L1246.46 2367.53 L1247.27 2370.50 L1247.94 2372.53 L1248.62 2366.72 L1249.29 2369.42 L1250.10 2350.25 L1250.78 2355.65 L1251.45 2328.79 L1252.13 2319.74 L1252.94 2327.17 L1253.61 2326.49 L1254.29 2334.59 L1254.96 2342.15 L1255.77 2307.19 L1256.45 2296.52 L1257.12 2308.81 L1257.80 2311.51 L1258.61 2273.17 L1259.28 2290.18 L1259.96 2304.62 L1260.63 2296.93 L1261.44 2295.31 L1262.12 2309.21 L1262.79 2295.58 L1263.46 2309.48 L1264.28 2321.36 L1264.95 2325.68 L1265.63 2335.00 L1266.30 2337.29 L1266.97 2340.40 L1267.79 2314.48 L1268.46 2307.19 L1269.14 2318.53 L1269.81 2324.20 L1270.62 2328.65 L1271.30 2330.00 L1271.97 2338.51 L1272.65 2328.79 L1273.46 2337.16 L1274.13 2337.43 L1274.81 2345.26 L1275.48 2349.04 L1276.29 2354.98 L1276.96 2358.08 L1277.64 2322.17 L1278.32 2329.87 L1279.13 2336.35 L1279.80 2343.64 L1280.47 2348.90 L1281.15 2354.71 L1281.96 2358.62 L1282.64 2362.54 L1283.31 2365.91 L1283.98 2361.32 L1284.80 2365.37 L1285.47 2367.67 L1286.15 2370.77 L1286.82 2369.02 L1287.49 2371.58 L1288.31 2371.18 L1288.98 2373.74 L1289.66 2374.42 L1290.33 2375.63 L1291.14 2373.74 L1291.82 2373.07 L1292.49 2375.50 L1293.17 2377.39 L1293.97 2341.48 L1294.65 2348.50 L1295.33 2351.33 L1296.00 2356.60 L1296.81 2361.19 L1297.48 2356.73 L1298.16 2360.92 L1298.84 2362.67 L1299.65 2360.51 L1300.32 2326.76 L1300.99 2335.94 L1301.67 2341.88 L1302.48 2342.96 L1303.16 2300.98 L1303.83 2313.67 L1304.51 2310.83 L1305.32 2314.75 L1305.99 2290.18 L1306.67 2302.33 L1307.34 2303.14 L1308.15 2315.56 L1308.83 2307.05 L1309.50 2319.07 L1310.18 2312.45 L1310.85 2313.13 L1311.66 2291.66 L1312.34 2298.55 L1313.01 2275.06 L1313.69 2291.93 L1314.50 2304.49 L1315.17 2315.02 L1315.85 2322.44 L1316.52 2322.31 L1317.33 2321.63 L1318.01 2331.62 L1318.68 2338.10 L1319.36 2310.97 L1320.17 2321.90 L1320.84 2332.03 L1321.52 2328.65 L1322.19 2322.58 L1323.00 2331.76 L1323.68 2339.99 L1324.35 2346.74 L1325.03 2340.26 L1325.84 2344.45 L1326.51 2351.06 L1327.19 2344.45 L1327.86 2351.06 L1328.67 2353.22 L1329.35 2345.26 L1330.02 2351.47 L1330.70 2320.55 L1331.37 2330.81 L1332.18 2317.72 L1332.86 2322.44 L1333.53 2330.14 L1334.21 2327.30 L1335.02 2332.97 L1335.69 2304.35 L1336.37 2312.86 L1337.04 2269.39 L1337.85 2281.94 L1338.53 2286.80 L1339.20 2285.05 L1339.88 2297.06 L1340.69 2294.63 L1341.36 2298.41 L1342.04 2310.70 L1342.71 2320.15 L1343.52 2319.34 L1344.20 2323.25 L1344.87 2326.49 L1345.55 2271.82 L1346.36 2282.62 L1347.03 2297.33 L1347.71 2309.21 L1348.38 2320.55 L1349.19 2329.19 L1349.87 2330.68 L1350.54 2328.52 L1351.22 2337.43 L1352.03 2344.72 L1352.70 2349.17 L1353.38 2344.45 L1354.05 2349.58 L1354.73 2347.42 L1355.54 2351.47 L1356.21 2357.00 L1356.89 2356.33 L1357.56 2315.56 L1358.37 2326.09 L1359.05 2333.92 L1359.72 2341.61 L1360.40 2318.12 L1361.21 2321.90 L1361.88 2313.67 L1362.56 2265.61 L1363.23 2279.24 L1364.04 2295.04 L1364.72 2280.73 L1365.39 2289.77 L1366.07 2227.40 L1366.88 2221.73 L1367.55 2224.70 L1368.23 2237.39 L1368.90 2259.94 L1369.71 2274.38 L1370.39 2282.08 L1371.06 2292.88 L1371.74 2306.65 L1372.55 2257.24 L1373.22 2276.81 L1373.90 2293.55 L1374.57 2307.86 L1375.25 2320.01 L1376.06 2328.25 L1376.73 2333.11 L1377.41 2341.07 L1378.08 2324.47 L1378.89 2332.30 L1379.57 2340.26 L1380.24 2323.79 L1380.92 2333.51 L1381.73 2326.22 L1382.40 2335.54 L1383.08 2338.78 L1383.75 2346.20 L1384.56 2350.79 L1385.24 2354.57 L1385.91 2359.57 L1386.59 2362.94 L1387.40 2365.64 L1388.07 2355.52 L1388.75 2359.84 L1389.42 2363.08 L1390.23 2364.43 L1390.91 2350.39 L1391.58 2355.92 L1392.26 2357.95 L1393.07 2357.41 L1393.74 2362.00 L1394.42 2365.37 L1395.09 2363.62 L1395.90 2367.40 L1396.58 2370.50 L1397.25 2368.48 L1397.93 2355.65 L1398.60 2360.65 L1399.41 2354.17 L1400.09 2357.81 L1400.76 2362.00 L1401.44 2364.83 L1402.25 2368.34 L1402.92 2364.97 L1403.60 2365.64 L1404.27 2369.02 L1405.08 2354.84 L1405.76 2308.67 L1406.43 2320.55 L1407.11 2330.00 L1407.92 2320.82 L1408.59 2330.95 L1409.27 2330.00 L1409.94 2338.91 L1410.75 2342.96 L1411.43 2342.83 L1412.10 2349.58 L1412.78 2334.05 L1413.59 2342.02 L1414.26 2347.82 L1414.94 2353.09 L1415.61 2306.24 L1416.42 2315.96 L1417.10 2326.76 L1417.77 2335.94 L1418.45 2321.50 L1419.12 2331.35 L1419.93 2333.51 L1420.61 2330.68 L1421.28 2306.92 L1421.96 2318.39 L1422.77 2318.93 L1423.44 2322.44 L1424.12 2321.23 L1424.79 2305.57 L1425.60 2312.45 L1426.28 2323.93 L1426.95 2333.24 L1427.63 2333.78 L1428.44 2341.75 L1429.11 2317.99 L1429.79 2328.65 L1430.46 2316.50 L1431.27 2306.78 L1431.95 2305.30 L1432.62 2307.32 L1433.30 2316.64 L1434.11 2320.69 L1434.78 2293.96 L1435.46 2307.73 L1436.13 2301.52 L1436.94 2291.66 L1437.62 2303.41 L1438.29 2307.32 L1438.97 2318.53 L1439.78 2328.38 L1440.45 2336.75 L1441.13 2330.41 L1441.80 2332.70 L1442.48 2340.26 L1443.29 2347.42 L1443.96 2348.50 L1444.64 2333.11 L1445.31 2341.34 L1446.12 2346.07 L1446.80 2342.42 L1447.47 2339.05 L1448.15 2344.72 L1448.96 2350.66 L1449.63 2302.73 L1450.31 2315.56 L1450.98 2308.40 L1451.79 2255.48 L1452.47 2275.06 L1453.14 2284.51 L1453.82 2300.03 L1454.63 2182.31 L1455.30 2204.45 L1455.98 2099.82 L1456.65 2067.42 L1457.46 2036.37 L1458.14 2013.96 L1458.81 2049.06 L1459.49 2098.74 L1460.30 2127.50 L1460.97 2166.24 L1461.65 1730.59 L1462.32 1719.25 L1463.00 1817.80 L1463.81 1806.60 L1464.48 1873.69 L1465.16 1854.66 L1465.83 1706.02 L1466.64 1789.99 L1467.32 1489.48 L1467.99 1600.59 L1468.67 1174.79 L1469.48 1355.69 L1470.15 986.33 L1470.83 1142.12 L1471.50 1322.89 L1472.31 1386.88 L1472.99 1474.63 L1473.66 1370.27 L1474.34 1522.28 L1475.15 1572.10 L1475.82 1607.74 L1476.50 1240.13 L1477.17 1404.97 L1477.98 1525.52 L1478.66 1647.84 L1479.33 1758.13 L1480.01 1786.08 L1480.82 1725.06 L1481.49 1644.19 L1482.17 1728.57 L1482.84 1813.48 L1483.65 1865.32 L1484.33 1755.70 L1485.00 1656.07 L1485.68 1660.26 L1486.35 1719.52 L1487.16 1819.42 L1487.84 1676.46 L1488.51 1450.87 L1489.19 1444.52 L1490.00 1404.02 L1490.67 1548.74 L1491.35 1626.64 L1492.02 1735.99 L1492.83 1335.31 L1493.51 1439.66 L1494.18 1556.44 L1494.86 1633.66 L1495.67 1700.62 L1496.34 1728.03 L1497.02 1794.18 L1497.69 1878.15 L1498.50 1900.15 L1499.18 1972.25 L1499.85 2020.17 L1500.53 1951.46 L1501.34 2010.86 L1502.01 2042.18 L1502.69 2093.88 L1503.36 2118.99 L1504.17 2148.15 L1504.85 2183.25 L1505.52 2213.90 L1506.20 2239.01 L1506.87 2239.68 L1507.68 2250.76 L1508.36 2226.59 L1509.03 2250.35 L1509.71 2269.52 L1510.52 2239.55 L1511.19 2261.96 L1511.87 2255.21 L1512.54 2238.47 L1513.35 2261.02 L1514.03 2208.23 L1514.70 2234.96 L1515.38 2257.24 L1516.19 2113.46 L1516.86 2086.05 L1517.54 2118.59 L1518.21 2158.82 L1519.02 2192.70 L1519.70 2218.35 L1520.37 2191.08 L1521.05 2159.76 L1521.86 2157.33 L1522.53 2190.81 L1523.21 2210.93 L1523.88 2232.93 L1524.69 2245.76 L1525.37 2234.42 L1526.04 2257.37 L1526.72 2133.84 L1527.39 2171.24 L1528.20 2203.91 L1528.88 2224.70 L1529.55 2117.51 L1530.23 2156.52 L1531.04 2177.85 L1531.71 2198.24 L1532.39 2142.48 L1533.06 2116.29 L1533.87 2148.15 L1534.55 2166.11 L1535.22 2154.90 L1535.90 2048.12 L1536.71 2088.48 L1537.38 2113.86 L1538.06 2036.78 L1538.73 2088.35 L1539.54 2120.21 L1540.22 1984.53 L1540.89 2045.01 L1541.57 2019.23 L1542.38 2072.82 L1543.05 2119.26 L1543.73 2118.45 L1544.40 2134.11 L1545.21 2161.25 L1545.89 2172.32 L1546.56 1984.94 L1547.24 2029.89 L1548.05 2080.92 L1548.72 2098.34 L1549.40 2119.67 L1550.07 2089.83 L1550.75 2130.06 L1551.56 2154.77 L1552.23 2149.10 L1552.91 2178.39 L1553.58 2206.07 L1554.39 2201.88 L1555.07 2225.24 L1555.74 2175.02 L1556.42 2206.20 L1557.23 2213.36 L1557.90 2233.47 L1558.58 2242.93 L1559.25 2263.18 L1560.06 2184.20 L1560.74 2197.43 L1561.41 2223.48 L1562.09 2243.87 L1562.90 2250.62 L1563.57 2266.82 L1564.25 2284.51 L1564.92 2277.08 L1565.73 2293.82 L1566.41 2306.51 L1567.08 2259.13 L1567.76 2278.43 L1568.57 2278.16 L1569.24 2287.34 L1569.92 2272.36 L1570.59 2268.44 L1571.27 2286.40 L1572.08 2261.96 L1572.75 2276.41 L1573.43 2286.13 L1574.10 2254.67 L1574.91 2274.79 L1575.59 2290.85 L1576.26 2288.83 L1576.94 2303.68 L1577.75 2283.83 L1578.42 2283.83 L1579.10 2289.64 L1579.77 2293.28 L1580.58 2271.95 L1581.26 2288.56 L1581.93 2294.09 L1582.61 2301.38 L1583.42 2314.21 L1584.09 2325.41 L1584.77 2334.32 L1585.44 2342.15 L1586.25 2347.42 L1586.93 2353.36 L1587.60 2328.11 L1588.28 2327.17 L1589.09 2335.94 L1589.76 2340.40 L1590.44 2347.28 L1591.11 2303.00 L1591.92 2315.83 L1592.60 2325.01 L1593.27 2312.18 L1593.95 2323.66 L1594.62 2329.60 L1595.43 2334.86 L1596.11 2342.29 L1596.78 2302.19 L1597.46 2315.15 L1598.27 2303.00 L1598.94 2315.15 L1599.62 2325.95 L1600.29 2334.19 L1601.10 2314.48 L1601.78 2323.93 L1602.45 2290.04 L1603.13 2299.76 L1603.94 2313.13 L1604.61 2317.85 L1605.29 2327.57 L1605.96 2336.75 L1606.77 2316.50 L1607.45 2326.22 L1608.12 2334.86 L1608.80 2342.69 L1609.61 2348.77 L1610.28 2347.42 L1610.96 2353.49 L1611.63 2345.80 L1612.44 2351.33 L1613.12 2356.73 L1613.79 2360.11 L1614.47 2354.71 L1615.14 2359.57 L1615.95 2355.92 L1616.63 2354.57 L1617.30 2356.60 L1617.98 2358.22 L1618.79 2330.54 L1619.46 2335.27 L1620.14 2340.67 L1620.81 2341.21 L1621.62 2329.06 L1622.30 2337.97 L1622.97 2345.26 L1623.65 2351.74 L1624.46 2356.87 L1625.13 2361.46 L1625.81 2362.27 L1626.48 2339.05 L1627.29 2345.26 L1627.97 2348.63 L1628.64 2345.53 L1629.32 2347.42 L1630.13 2349.98 L1630.80 2349.58 L1631.48 2355.52 L1632.15 2358.22 L1632.96 2362.13 L1633.64 2353.09 L1634.31 2358.35 L1634.99 2362.40 L1635.80 2365.91 L1636.47 2366.86 L1637.15 2365.37 L1637.82 2364.02 L1638.50 2365.24 L1639.31 2352.95 L1639.98 2358.22 L1640.66 2362.27 L1641.33 2329.06 L1642.14 2336.08 L1642.82 2334.32 L1643.49 2331.89 L1644.17 2339.99 L1644.98 2344.18 L1645.65 2349.17 L1646.33 2353.76 L1647.00 2358.62 L1647.81 2346.88 L1648.49 2351.87 L1649.16 2354.71 L1649.84 2355.65 L1650.65 2359.16 L1651.32 2359.03 L1652.00 2357.95 L1652.67 2354.98 L1653.48 2352.14 L1654.16 2356.46 L1654.83 2339.72 L1655.51 2325.55 L1656.32 2293.82 L1656.99 2307.19 L1657.67 2319.34 L1658.34 2329.73 L1659.02 2321.09 L1659.83 2330.81 L1660.50 2314.61 L1661.18 2325.68 L1661.85 2333.78 L1662.66 2336.48 L1663.34 2342.96 L1664.01 2339.18 L1664.69 2346.47 L1665.50 2352.82 L1666.17 2348.63 L1666.85 2353.63 L1667.52 2349.98 L1668.33 2355.79 L1669.01 2359.70 L1669.68 2347.96 L1670.36 2353.76 L1671.17 2352.01 L1671.84 2357.54 L1672.52 2358.08 L1673.19 2361.46 L1674.00 2365.24 L1674.68 2362.81 L1675.35 2366.45 L1676.03 2368.21 L1676.84 2370.64 L1677.51 2370.91 L1678.19 2371.85 L1678.86 2374.42 L1679.67 2368.34 L1680.35 2370.23 L1681.02 2367.94 L1681.70 2370.23 L1682.37 2372.80 L1683.18 2373.74 L1683.86 2376.04 L1684.53 2377.93 L1685.21 2379.55 L1686.02 2375.36 L1686.69 2365.91 L1687.37 2368.61 L1688.04 2371.72 L1688.85 2373.47 L1689.53 2375.36 L1690.20 2377.25 L1690.88 2374.15 L1691.69 2373.34 L1692.36 2375.36 L1693.04 2371.18 L1693.71 2366.99 L1694.52 2364.70 L1695.20 2347.01 L1695.87 2322.44 L1696.55 2332.16 L1697.36 2339.18 L1698.03 2345.93 L1698.71 2343.64 L1699.38 2343.23 L1700.19 2342.42 L1700.87 2341.34 L1701.54 2346.61 L1702.22 2295.58 L1702.89 2309.62 L1703.70 2315.56 L1704.38 2320.28 L1705.05 2330.00 L1705.73 2335.27 L1706.54 2342.56 L1707.21 2335.00 L1707.89 2342.29 L1708.56 2347.28 L1709.37 2353.36 L1710.05 2358.62 L1710.72 2353.76 L1711.40 2355.38 L1712.21 2359.97 L1712.88 2364.29 L1713.56 2363.75 L1714.23 2367.26 L1715.04 2370.50 L1715.72 2372.66 L1716.39 2365.91 L1717.07 2369.29 L1717.88 2372.26 L1718.55 2373.74 L1719.23 2375.23 L1719.90 2377.25 L1720.71 2379.01 L1721.39 2377.39 L1722.06 2377.39 L1722.74 2379.14 L1723.55 2379.01 L1724.22 2379.28 L1724.90 2378.20 L1725.57 2378.47 L1726.25 2379.68 L1727.06 2381.17 L1727.73 2380.76 L1728.41 2381.98 L1729.08 2382.38 L1729.89 2380.76 L1730.57 2378.74 L1731.24 2379.95 L1731.92 2379.41 L1732.73 2380.36 L1733.40 2379.41 L1734.08 2380.63 L1734.75 2381.84 L1735.56 2376.31 L1736.24 2378.20 L1736.91 2366.18 L1737.59 2369.02 L1738.40 2368.61 L1739.07 2371.58 L1739.75 2374.01 L1740.42 2373.61 L1741.23 2375.09 L1741.91 2346.47 L1742.58 2351.60 L1743.26 2349.04 L1744.07 2340.94 L1744.74 2341.07 L1745.42 2317.85 L1746.09 2324.60 L1746.77 2271.68 L1747.58 2271.14 L1748.25 2203.37 L1748.93 2230.77 L1749.60 2246.17 L1750.41 2259.26 L1751.09 2256.43 L1751.76 2276.14 L1752.44 2280.05 L1753.25 2293.42 L1753.92 2215.25 L1754.60 2235.23 L1755.27 2246.84 L1756.08 2267.77 L1756.76 2282.35 L1757.43 2250.49 L1758.11 2262.23 L1758.92 2261.56 L1759.59 2254.81 L1760.27 2274.11 L1760.94 2220.11 L1761.75 2229.83 L1762.43 2250.76 L1763.10 2268.58 L1763.78 2250.08 L1764.59 2269.93 L1765.26 2287.21 L1765.94 2277.49 L1766.61 2294.09 L1767.42 2308.27 L1768.10 2320.42 L1768.77 2329.46 L1769.45 2321.63 L1770.12 2330.41 L1770.93 2320.15 L1771.61 2330.54 L1772.28 2338.37 L1772.96 2288.15 L1773.77 2292.61 L1774.44 2305.03 L1775.12 2314.61 L1775.79 2325.28 L1776.60 2291.80 L1777.28 2301.79 L1777.95 2312.99 L1778.63 2324.33 L1779.44 2323.79 L1780.11 2333.65 L1780.79 2341.88 L1781.46 2300.57 L1782.27 2313.26 L1782.95 2319.34 L1783.62 2320.15 L1784.30 2308.81 L1785.11 2317.31 L1785.78 2321.90 L1786.46 2331.89 L1787.13 2337.43 L1787.94 2343.50 L1788.62 2350.25 L1789.29 2333.24 L1789.97 2340.67 L1790.64 2346.34 L1791.45 2352.68 L1792.13 2357.14 L1792.80 2360.78 L1793.48 2362.94 L1794.29 2320.42 L1794.96 2327.30 L1795.64 2334.73 L1796.31 2342.83 L1797.12 2343.77 L1797.80 2350.52 L1798.47 2338.78 L1799.15 2344.45 L1799.96 2349.31 L1800.63 2341.21 L1801.31 2348.36 L1801.98 2349.85 L1802.79 2344.99 L1803.47 2338.64 L1804.14 2345.93 L1804.82 2313.26 L1805.63 2320.01 L1806.30 2321.90 L1806.98 2324.74 L1807.65 2332.97 L1808.46 2340.53 L1809.14 2346.74 L1809.81 2347.15 L1810.49 2353.36 L1811.30 2358.22 L1811.97 2362.81 L1812.65 2366.72 L1813.32 2358.76 L1814.00 2362.94 L1814.81 2365.51 L1815.48 2364.56 L1816.16 2346.88 L1816.83 2351.87 L1817.64 2356.33 L1818.32 2360.78 L1818.99 2364.43 L1819.67 2367.40 L1820.48 2367.26 L1821.15 2350.25 L1821.83 2356.06 L1822.50 2360.78 L1823.31 2363.21 L1823.99 2366.99 L1824.66 2369.56 L1825.34 2369.83 L1826.15 2372.12 L1826.82 2374.55 L1827.50 2374.01 L1828.17 2363.08 L1828.98 2362.13 L1829.66 2365.91 L1830.33 2369.15 L1831.01 2371.85 L1831.82 2374.42 L1832.49 2376.17 L1833.17 2378.06 L1833.84 2379.55 L1834.52 2381.03 L1835.33 2379.41 L1836.00 2379.95 L1836.68 2362.13 L1837.35 2364.83 L1838.16 2368.21 L1838.84 2367.94 L1839.51 2370.37 L1840.19 2372.26 L1841.00 2366.86 L1841.67 2369.96 L1842.35 2357.68 L1843.02 2362.27 L1843.83 2355.38 L1844.51 2359.97 L1845.18 2364.16 L1845.86 2356.06 L1846.67 2351.60 L1847.34 2354.30 L1848.02 2359.16 L1848.69 2361.05 L1849.50 2343.23 L1850.18 2340.94 L1850.85 2347.55 L1851.53 2353.63 L1852.34 2358.89 L1853.01 2362.81 L1853.69 2365.91 L1854.36 2367.53 L1855.17 2370.77 L1855.85 2373.47 L1856.52 2374.42 L1857.20 2374.96 L1857.87 2376.98 L1858.68 2378.47 L1859.36 2378.06 L1860.03 2379.14 L1860.71 2380.49 L1861.52 2381.71 L1862.19 2382.79 L1862.87 2383.60 L1863.54 2384.27 L1864.35 2384.95 L1865.03 2379.14 L1865.70 2380.63 L1866.38 2380.49 L1867.19 2381.57 L1867.86 2382.52 L1868.54 2383.33 L1869.21 2383.46 L1870.02 2380.22 L1870.70 2381.44 L1871.37 2379.82 L1872.05 2381.03 L1872.86 2376.85 L1873.53 2378.47 L1874.21 2379.82 L1874.88 2379.41 L1875.69 2380.90 L1876.37 2381.17 L1877.04 2382.11 L1877.72 2366.05 L1878.39 2367.40 L1879.20 2356.19 L1879.88 2360.92 L1880.55 2364.83 L1881.23 2368.07 L1882.04 2369.15 L1882.71 2371.04 L1883.39 2373.47 L1884.06 2375.77 L1884.87 2376.17 L1885.55 2377.66 L1886.22 2378.87 L1886.90 2378.47 L1887.71 2379.55 L1888.38 2380.63 L1889.06 2359.43 L1889.73 2360.78 L1890.54 2364.83 L1891.22 2363.21 L1891.89 2365.51 L1892.57 2355.79 L1893.38 2360.65 L1894.05 2350.52 L1894.73 2353.76 L1895.40 2354.57 L1896.21 2356.60 L1896.89 2361.32 L1897.56 2344.99 L1898.24 2350.12 L1899.05 2353.49 L1899.72 2350.79 L1900.40 2332.03 L1901.07 2334.19 L1901.75 2341.75 L1902.56 2338.10 L1903.23 2344.85 L1903.91 2351.20 L1904.58 2353.22 L1905.39 2358.08 L1906.07 2362.00 L1906.74 2363.89 L1907.42 2365.64 L1908.23 2369.02 L1908.90 2371.04 L1909.58 2373.74 L1910.25 2376.04 L1911.06 2377.79 L1911.74 2379.14 L1912.41 2379.68 L1913.09 2380.22 L1913.90 2377.79 L1914.57 2379.41 L1915.25 2380.76 L1915.92 2381.57 L1916.73 2375.63 L1917.41 2376.71 L1918.08 2369.83 L1918.76 2371.31 L1919.57 2373.74 L1920.24 2372.39 L1920.92 2372.80 L1921.59 2374.69 L1922.27 2376.44 L1923.08 2378.20 L1923.75 2379.01 L1924.43 2377.52 L1925.10 2374.01 L1925.91 2375.90 L1926.59 2376.98 L1927.26 2375.63 L1927.94 2370.91 L1928.75 2372.93 L1929.42 2371.45 L1930.10 2371.18 L1930.77 2373.74 L1931.58 2372.66 L1932.26 2374.96 L1932.93 2373.47 L1933.61 2366.32 L1934.42 2369.42 L1935.09 2372.12 L1935.77 2374.15 L1936.44 2375.90 L1937.25 2372.66 L1937.93 2346.07 L1938.60 2351.87 L1939.28 2350.66 L1940.09 2348.23 L1940.76 2353.76 L1941.44 2357.41 L1942.11 2360.65 L1942.92 2352.82 L1943.60 2358.08 L1944.27 2356.33 L1944.95 2343.10 L1945.62 2349.85 L1946.43 2355.65 L1947.11 2359.70 L1947.78 2356.60 L1948.46 2358.89 L1949.27 2362.27 L1949.94 2357.14 L1950.62 2359.30 L1951.29 2356.19 L1952.10 2358.08 L1952.78 2357.81 L1953.45 2352.14 L1954.13 2357.68 L1954.94 2362.27 L1955.61 2361.19 L1956.29 2362.81 L1956.96 2347.42 L1957.77 2351.60 L1958.45 2357.00 L1959.12 2358.76 L1959.80 2362.27 L1960.61 2362.00 L1961.28 2354.44 L1961.96 2359.57 L1962.63 2355.25 L1963.44 2360.24 L1964.12 2362.67 L1964.79 2365.10 L1965.47 2344.72 L1966.14 2349.71 L1966.95 2352.28 L1967.63 2355.92 L1968.30 2321.09 L1968.98 2331.08 L1969.79 2203.91 L1970.46 2230.10 L1971.14 1979.40 L1971.81 1957.40 L1972.62 1906.36 L1973.30 1892.05 L1973.97 1965.77 L1974.65 2007.08 L1975.46 2056.62 L1976.13 2106.30 L1976.81 2021.52 L1977.48 2057.16 L1978.29 2105.49 L1978.97 2094.69 L1979.64 2132.49 L1980.32 2157.33 L1981.13 2185.95 L1981.80 2176.23 L1982.48 2208.09 L1983.15 2234.01 L1983.96 2246.44 L1984.64 2230.10 L1985.31 2246.57 L1985.99 2230.23 L1986.80 2246.30 L1987.47 2225.51 L1988.15 2249.68 L1988.82 2266.96 L1989.50 2278.84 L1990.31 2280.05 L1990.98 2295.44 L1991.66 2304.22 L1992.33 2315.96 L1993.14 2277.49 L1993.82 2223.89 L1994.49 2248.19 L1995.17 2247.65 L1995.98 2262.91 L1996.65 2254.54 L1997.33 2272.90 L1998.00 2249.95 L1998.81 2218.35 L1999.49 2228.07 L2000.16 2236.71 L2000.84 2245.22 L2001.65 2263.04 L2002.32 2231.04 L2003.00 2254.54 L2003.67 2270.87 L2004.48 2288.15 L2005.16 2289.77 L2005.83 2285.18 L2006.51 2283.16 L2007.32 2290.85 L2007.99 2305.03 L2008.67 2300.44 L2009.34 2304.35 L2010.02 2296.25 L2010.83 2305.70 L2011.50 2258.45 L2012.18 2277.76 L2012.85 2261.69 L2013.66 2233.74 L2014.34 2247.11 L2015.01 2249.95 L2015.69 2269.12 L2016.50 2285.32 L2017.17 2293.82 L2017.85 2235.77 L2018.52 2256.70 L2019.33 2257.91 L2020.01 2273.30 L2020.68 2289.91 L2021.36 2289.37 L2022.17 2286.13 L2022.84 2301.25 L2023.52 2293.01 L2024.19 2305.16 L2025.00 2286.53 L2025.68 2300.30 L2026.35 2276.41 L2027.03 2292.88 L2027.84 2217.41 L2028.51 2243.06 L2029.19 2264.93 L2029.86 2278.70 L2030.67 2295.17 L2031.35 2309.08 L2032.02 2296.25 L2032.70 2298.41 L2033.37 2300.17 L2034.18 2308.13 L2034.86 2311.24 L2035.53 2322.71 L2036.21 2332.43 L2037.02 2332.57 L2037.69 2301.11 L2038.37 2313.94 L2039.04 2322.04 L2039.85 2327.98 L2040.53 2337.02 L2041.20 2335.94 L2041.88 2339.18 L2042.69 2345.53 L2043.36 2340.53 L2044.04 2347.82 L2044.71 2353.49 L2045.52 2358.35 L2046.20 2362.81 L2046.87 2362.94 L2047.55 2366.86 L2048.36 2369.96 L2049.03 2371.58 L2049.71 2373.74 L2050.38 2369.56 L2051.19 2371.04 L2051.86 2373.61 L2052.54 2375.90 L2053.22 2377.79 L2053.89 2375.90 L2054.70 2376.31 L2055.38 2378.06 L2056.05 2379.28 L2056.73 2380.63 L2057.54 2378.06 L2058.21 2379.55 L2058.89 2369.83 L2059.56 2372.66 L2060.37 2374.96 L2061.05 2376.71 L2061.72 2378.47 L2062.40 2377.39 L2063.21 2376.98 L2063.88 2378.74 L2064.55 2378.74 L2065.23 2374.69 L2066.04 2376.31 L2066.72 2378.20 L2067.39 2379.28 L2068.07 2379.95 L2068.88 2381.03 L2069.55 2382.11 L2070.23 2382.52 L2070.90 2382.38 L2071.71 2381.57 L2072.39 2382.11 L2073.06 2382.25 L2073.74 2369.56 L2074.55 2370.77 L2075.22 2368.75 L2075.90 2371.04 L2076.57 2373.61 L2077.25 2359.03 L2078.05 2363.48 L2078.73 2365.37 L2079.41 2368.75 L2080.08 2370.77 L2080.89 2373.07 L2081.57 2375.23 L2082.24 2374.15 L2082.92 2376.04 L2083.73 2368.48 L2084.40 2371.31 L2085.07 2372.39 L2085.75 2374.69 L2086.56 2376.31 L2087.24 2375.09 L2087.91 2376.44 L2088.59 2372.53 L2089.40 2374.82 L2090.07 2369.56 L2090.75 2354.17 L2091.42 2357.68 L2092.23 2353.49 L2092.91 2350.79 L2093.58 2356.19 L2094.26 2349.98 L2095.07 2354.84 L2095.74 2357.68 L2096.42 2362.40 L2097.09 2362.00 L2097.77 2365.78 L2098.57 2360.38 L2099.25 2362.40 L2099.93 2366.18 L2100.60 2368.48 L2101.41 2370.23 L2102.09 2372.66 L2102.76 2371.45 L2103.44 2357.81 L2104.25 2362.40 L2104.92 2364.70 L2105.59 2365.10 L2106.27 2368.61 L2107.08 2370.64 L2107.76 2364.83 L2108.43 2365.37 L2109.11 2366.72 L2109.92 2355.11 L2110.59 2354.71 L2111.27 2349.98 L2111.94 2355.79 L2112.75 2360.65 L2113.43 2364.97 L2114.10 2367.94 L2114.78 2366.59 L2115.59 2357.81 L2116.26 2361.32 L2116.94 2327.84 L2117.61 2336.48 L2118.42 2343.64 L2119.09 2326.63 L2119.77 2335.94 L2120.45 2341.34 L2121.12 2338.51 L2121.93 2341.07 L2122.61 2344.85 L2123.28 2346.74 L2123.96 2348.50 L2124.77 2354.44 L2125.44 2355.65 L2126.11 2360.51 L2126.79 2335.27 L2127.60 2341.88 L2128.28 2333.24 L2128.95 2341.07 L2129.63 2345.26 L2130.44 2351.60 L2131.11 2329.06 L2131.79 2337.43 L2132.46 2343.50 L2133.27 2349.17 L2133.95 2349.31 L2134.62 2354.84 L2135.30 2355.25 L2136.11 2360.24 L2136.78 2362.40 L2137.46 2354.17 L2138.13 2358.89 L2138.94 2361.05 L2139.61 2363.35 L2140.29 2366.72 L2140.97 2363.89 L2141.64 2362.40 L2142.45 2360.24 L2143.13 2364.43 L2143.80 2356.33 L2144.48 2341.75 L2145.29 2348.90 L2145.96 2353.76 L2146.64 2358.08 L2147.31 2359.43 L2148.12 2347.82 L2148.80 2353.49 L2149.47 2357.68 L2150.15 2362.27 L2150.96 2366.32 L2151.63 2369.56 L2152.30 2372.26 L2152.98 2374.82 L2153.79 2376.85 L2154.47 2376.17 L2155.14 2377.93 L2155.82 2379.55 L2156.63 2380.22 L2157.30 2381.44 L2157.98 2378.60 L2158.65 2378.47 L2159.46 2379.95 L2160.14 2381.30 L2160.81 2382.38 L2161.49 2379.82 L2162.30 2380.49 L2162.97 2381.57 L2163.65 2382.52 L2164.32 2363.08 L2165.00 2365.91 L2165.80 2367.53 L2166.48 2370.37 L2167.16 2372.93 L2167.83 2362.13 L2168.64 2364.97 L2169.32 2368.07 L2169.99 2371.18 L2170.67 2373.74 L2171.48 2376.04 L2172.15 2377.93 L2172.82 2379.28 L2173.50 2374.28 L2174.31 2374.01 L2174.99 2372.39 L2175.66 2373.88 L2176.34 2375.90 L2177.15 2377.79 L2177.82 2379.01 L2178.50 2378.06 L2179.17 2379.68 L2179.98 2380.22 L2180.66 2375.63 L2181.33 2374.69 L2182.01 2376.85 L2182.82 2377.79 L2183.49 2376.98 L2184.17 2373.61 L2184.84 2375.09 L2185.52 2376.71 L2186.32 2362.54 L2187.00 2366.45 L2187.68 2357.00 L2188.35 2360.51 L2189.16 2364.70 L2189.84 2368.21 L2190.51 2371.18 L2191.19 2368.75 L2192.00 2366.59 L2192.67 2369.83 L2193.34 2370.37 L2194.02 2341.61 L2194.83 2337.02 L2195.51 2344.72 L2196.18 2351.20 L2196.86 2355.38 L2197.67 2347.15 L2198.34 2352.55 L2199.02 2357.54 L2199.69 2344.58 L2200.50 2351.20 L2201.18 2356.73 L2201.85 2354.44 L2202.53 2359.30 L2203.34 2361.59 L2204.01 2363.35 L2204.69 2366.59 L2205.36 2369.96 L2206.17 2371.04 L2206.84 2373.20 L2207.52 2375.63 L2208.20 2377.25 L2208.87 2378.87 L2209.68 2380.36 L2210.36 2379.95 L2211.03 2381.30 L2211.71 2379.82 L2212.52 2379.68 L2213.19 2375.23 L2213.86 2370.50 L2214.54 2370.23 L2215.35 2371.85 L2216.03 2369.15 L2216.70 2371.45 L2217.38 2372.26 L2218.19 2374.42 L2218.86 2368.48 L2219.54 2359.16 L2220.21 2331.35 L2221.02 2339.86 L2221.70 2346.34 L2222.37 2352.14 L2223.05 2356.87 L2223.86 2361.46 L2224.53 2362.94 L2225.21 2366.86 L2225.88 2369.96 L2226.69 2372.80 L2227.36 2375.23 L2228.04 2375.77 L2228.72 2377.25 L2229.39 2378.06 L2230.20 2379.55 L2230.88 2380.90 L2231.55 2380.76 L2232.23 2381.84 L2233.04 2381.84 L2233.71 2382.11 L2234.39 2382.65 L2235.06 2378.74 L2235.87 2373.34 L2236.55 2370.91 L2237.22 2373.61 L2237.90 2375.77 L2238.71 2376.31 L2239.38 2378.20 L2240.05 2379.82 L2240.73 2381.17 L2241.54 2382.25 L2242.22 2383.19 L2242.89 2381.57 L2243.57 2374.69 L2244.38 2373.88 L2245.05 2372.93 L2245.73 2356.87 L2246.40 2360.65 L2247.21 2357.27 L2247.89 2362.00 L2248.56 2365.91 L2249.24 2368.34 L2250.05 2366.99 L2250.72 2370.23 L2251.40 2372.93 L2252.07 2374.28 L2252.75 2375.90 L2253.55 2377.66 L2254.23 2379.28 L2254.91 2379.14 L2255.58 2380.49 L2256.39 2379.95 L2257.07 2380.76 L2257.74 2380.09 L2258.42 2377.66 L2259.23 2377.12 L2259.90 2378.20 L2260.57 2376.98 L2261.25 2378.74 L2262.06 2379.55 L2262.74 2379.68 L2263.41 2379.95 L2264.09 2374.82 L2264.90 2376.44 L2265.57 2376.98 L2266.25 2376.98 L2266.92 2378.33 L2267.73 2372.12 L2268.41 2374.01 L2269.08 2375.90 L2269.76 2347.42 L2270.57 2344.99 L2271.24 2339.99 L2271.92 2344.31 L2272.59 2348.36 L2273.27 2353.22 L2274.07 2353.76 L2274.75 2359.03 L2275.43 2362.94 L2276.10 2366.72 L2276.91 2367.94 L2277.59 2370.77 L2278.26 2368.34 L2278.94 2367.40 L2279.75 2365.10 L2280.42 2368.34 L2281.09 2370.23 L2281.77 2371.99 L2282.58 2373.74 L2283.26 2375.09 L2283.93 2377.12 L2284.61 2373.34 L2285.42 2374.28 L2286.09 2375.36 L2286.77 2372.53 L2287.44 2374.96 L2288.25 2376.98 L2288.93 2375.36 L2289.60 2376.71 L2290.28 2378.47 L2291.09 2378.20 L2291.76 2377.39 L2292.44 2378.74 L2293.11 2369.15 L2293.92 2370.91 L2294.59 2371.85 L2295.27 2362.94 L2295.95 2364.29 L2296.62 2359.97 L2297.43 2364.29 L2298.11 2361.86 L2298.78 2361.05 L2299.46 2355.79 L2300.27 2358.89 L2300.94 2361.19 L2301.61 2362.40 L2302.29 2356.06 L2303.10 2322.98 L2303.78 2332.84 L2304.45 2331.62 L2305.13 2337.16 L2305.94 2341.07 L2306.61 2346.34 L2307.29 2351.33 L2307.96 2355.92 L2308.77 2360.78 L2309.45 2364.97 L2310.12 2364.29 L2310.80 2366.59 L2311.61 2367.53 L2312.28 2370.77 L2312.96 2364.83 L2313.63 2367.80 L2314.44 2370.91 L2315.11 2372.80 L2315.79 2374.96 L2316.47 2375.77 L2317.14 2377.66 L2317.95 2379.14 L2318.63 2380.36 L2319.30 2380.76 L2319.98 2381.84 L2320.79 2382.92 L2321.46 2382.92 L2322.14 2383.73 L2322.81 2384.54 L2323.62 2377.52 L2324.30 2379.01 L2324.97 2380.36 L2325.65 2379.68 L2326.46 2379.95 L2327.13 2380.90 L2327.80 2381.30 L2328.48 2382.25 L2329.29 2383.06 L2329.97 2382.11 L2330.64 2370.91 L2331.32 2372.26 L2332.13 2372.12 L2332.80 2374.28 L2333.48 2374.15 L2334.15 2373.61 L2334.96 2375.36 L2335.64 2376.17 L2336.31 2362.40 L2336.99 2366.32 L2337.80 2369.69 L2338.47 2371.72 L2339.15 2373.88 L2339.82 2373.47 L2340.50 2375.77 L2341.30 2377.66 L2341.98 2375.23 L2342.66 2374.69 L2343.33 2376.44 L2344.14 2377.52 L2344.82 2379.01 L2345.49 2379.14 L2346.17 2379.82 L2346.98 2373.74 L2347.65 2375.90 L2348.32 2374.82 L2349.00 2375.23 L2349.81 2376.71 L2350.49 2377.79 L2351.16 2379.14 L2351.84 2379.41 L2352.65 2378.33 L2353.32 2377.52 L2354.00 2379.14 L2354.67 2375.50 L2355.48 2375.77 L2356.16 2373.34 L2356.83 2365.78 L2357.51 2369.15 L2358.32 2349.98 L2358.99 2353.63 L2359.67 2358.08 L2360.34 2359.70 L2361.02 2355.38 L2361.82 2358.08 L2362.50 2360.24 L2363.18 2364.56 L2363.85 2366.59 L2364.66 2368.61 L2365.34 2371.18 L2366.01 2373.07 L2366.69 2375.36 L2367.50 2375.90 L2368.17 2376.85 L2368.84 2377.52 L2369.52 2378.87 L2370.33 2379.82 L2371.01 2380.90 L2371.68 2381.44 L2372.36 2373.20 L2373.17 2367.94 L2373.84 2371.04 L2374.52 2373.34 L2375.19 2372.66 L2376.00 2373.88 L2376.68 2375.09 L2377.35 2376.44 L2378.03 2378.06 L2378.84 2378.74 L2379.51 2377.25 L2380.19 2377.66 L2380.86 2379.28 L2381.67 2380.76 L2382.34 2381.71 L2383.02 2382.79 L2383.70 2383.19 L2384.37 2383.33 L2385.18 2384.00 L2385.86 2383.33 L2386.53 2378.47 L2387.21 2379.82 L2388.02 2380.63 L2388.69 2374.01 L2389.36 2374.96 L2390.04 2376.98 L2390.85 2377.12 L2391.53 2378.20 L2392.20 2366.59 L2392.88 2369.96 L2393.69 2371.72 L2394.36 2373.07 L2395.04 2374.96 L2395.71 2376.04 L2396.52 2377.93 L2397.20 2379.55 L2397.87 2380.22 L2398.55 2376.98 L2399.36 2378.74 L2400.03 2379.68 L2400.71 2379.41 L2401.38 2380.76 L2402.19 2381.98 L2402.86 2382.92 L2403.54 2375.23 L2404.22 2372.80 L2404.89 2373.74 L2405.70 2375.90 L2406.38 2376.85 L2407.05 2378.47 L2407.73 2380.09 L2408.54 2376.58 L2409.21 2352.55 L2409.89 2355.25 L2410.56 2359.16 L2411.37 2357.00 L2412.05 2356.87 L2412.72 2358.89 L2413.40 2332.03 L2414.21 2339.32 L2414.88 2346.20 L2415.55 2346.47 L2416.23 2344.45 L2417.04 2351.06 L2417.72 2351.20 L2418.39 2356.87 L2419.07 2360.24 L2419.88 2363.62 L2420.55 2367.26 L2421.23 2367.80 L2421.90 2369.56 L2422.71 2372.26 L2423.39 2373.07 L2424.06 2375.23 L2424.74 2377.25 L2425.55 2378.20 L2426.22 2379.41 L2426.90 2377.52 L2427.57 2368.34 L2428.25 2371.45 L2429.05 2373.88 L2429.73 2376.17 L2430.41 2378.06 L2431.08 2377.93 L2431.89 2379.55 L2432.57 2372.53 L2433.24 2374.28 L2433.92 2372.80 L2434.73 2372.53 L2435.40 2372.66 L2436.07 2373.61 L2436.75 2375.23 L2437.56 2375.77 L2438.24 2377.25 L2438.91 2376.17 L2439.59 2377.52 L2440.40 2378.47 L2441.07 2377.39 L2441.75 2376.58 L2442.42 2378.06 L2443.23 2379.55 L2443.91 2371.45 L2444.58 2366.59 L2445.26 2369.69 L2446.07 2366.99 L2446.74 2345.80 L2447.42 2345.39 L2448.09 2349.98 L2448.77 2353.76 L2449.57 2354.17 L2450.25 2359.30 L2450.93 2363.35 L2451.60 2366.45 L2452.41 2369.42 L2453.09 2372.26 L2453.76 2370.50 L2454.44 2373.07 L2455.25 2374.55 L2455.92 2376.44 L2456.59 2378.20 L2457.27 2379.68 L2458.08 2381.03 L2458.76 2377.39 L2459.43 2378.20 L2460.11 2379.68 L2460.92 2381.03 L2461.59 2377.93 L2462.27 2379.55 L2462.94 2379.55 L2463.75 2375.23 L2464.43 2376.85 L2465.10 2378.20 L2465.78 2377.25 L2466.59 2376.58 L2467.26 2378.20 L2467.94 2379.14 L2468.61 2379.01 L2469.42 2380.36 L2470.09 2380.49 L2470.77 2381.57 L2471.45 2382.65 L2472.12 2383.60 L2472.93 2384.27 L2473.61 2383.06 L2474.28 2382.79 L2474.96 2383.73 L2475.77 2384.54 L2476.44 2384.27 L2477.11 2381.84 L2477.79 2382.79 L2478.60 2383.60 L2479.28 2384.27 L2479.95 2382.25 L2480.63 2383.06 L2481.44 2383.87 L2482.11 2384.68 L2482.79 2382.79 L2483.46 2382.92 L2484.27 2383.73 L2484.95 2384.41 L2485.62 2385.08 L2486.30 2383.60 L2487.11 2384.41 L2487.78 2383.73 L2488.46 2383.60 L2489.13 2381.30 L2489.94 2381.84 L2490.61 2381.84 L2491.29 2382.92 L2491.97 2382.79 L2492.64 2383.46 L2493.45 2383.60 L2494.13 2376.44 L2494.80 2374.01 L2495.48 2375.90 L2496.29 2376.85 L2496.96 2378.60 L2497.64 2380.09 L2498.31 2379.82 L2499.12 2381.17 L2499.80 2380.90 L2500.47 2381.98 L2501.15 2359.30 L2501.96 2362.67 L2502.63 2364.97 L2503.30 2362.94 L2503.98 2366.72 L2504.79 2367.67 L2505.47 2365.78 L2506.14 2369.02 L2506.82 2371.58 L2507.63 2372.53 L2508.30 2374.28 L2508.98 2376.44 L2509.65 2375.36 L2510.46 2376.17 L2511.14 2377.93 L2511.81 2379.28 L2512.49 2380.36 L2513.30 2380.76 L2513.97 2381.98 L2514.65 2382.92 L2515.32 2383.60 L2516.00 2384.00 L2516.80 2384.68 L2517.48 2385.22 L2518.16 2385.49 L2518.83 2384.95 L2519.64 2384.95 L2520.32 2382.79 L2520.99 2383.46 L2521.67 2384.27 L2522.48 2382.52 L2523.15 2383.33 L2523.82 2381.98 L2524.50 2382.92 L2525.31 2382.92 L2525.99 2383.87 L2526.66 2380.49 L2527.34 2379.28 L2528.15 2378.47 L2528.82 2365.24 L2529.50 2366.45 L2530.17 2369.29 L2530.98 2371.45 L2531.66 2362.81 L2532.33 2366.45 L2533.01 2364.97 L2533.82 2368.34 L2534.49 2357.00 L2535.17 2349.31 L2535.84 2331.08 L2536.52 2330.00 L2537.32 2319.47 L2538.00 2329.87 L2538.68 2333.11 L2539.35 2341.21 L2540.16 2342.56 L2540.84 2345.80 L2541.51 2335.00 L2542.19 2340.26 L2543.00 2341.75 L2543.67 2346.47 L2544.34 2352.55 L2545.02 2351.47 L2545.83 2357.00 L2546.51 2360.11 L2547.18 2357.81 L2547.86 2362.54 L2548.67 2365.91 L2549.34 2367.94 L2550.02 2370.37 L2550.69 2373.20 L2551.50 2375.23 L2552.18 2377.25 L2552.85 2378.87 L2553.53 2380.36 L2554.34 2381.71 L2555.01 2382.79 L2555.69 2382.52 L2556.36 2383.46 L2557.17 2384.14 L2557.84 2383.60 L2558.52 2384.00 L2559.20 2384.68 L2559.87 2384.95 L2560.68 2385.22 L2561.36 2382.92 L2562.03 2382.11 L2562.71 2382.52 L2563.52 2383.33 L2564.19 2384.14 L2564.86 2381.84 L2565.54 2382.92 L2566.35 2368.34 L2567.03 2371.04 L2567.70 2358.35 L2568.38 2359.43 L2569.19 2358.35 L2569.86 2344.85 L2570.54 2322.31 L2571.21 2330.68 L2572.02 2338.78 L2572.70 2346.20 L2573.37 2352.55 L2574.05 2357.54 L2574.86 2362.27 L2575.53 2364.83 L2576.21 2361.73 L2576.88 2365.78 L2577.69 2349.31 L2578.36 2349.17 L2579.04 2350.12 L2579.72 2339.99 L2580.39 2343.64 L2581.20 2345.93 L2581.88 2351.47 L2582.55 2354.57 L2583.23 2353.36 L2584.04 2351.47 L2584.71 2357.00 L2585.39 2360.92 L2586.06 2354.57 L2586.87 2358.22 L2587.55 2362.67 L2588.22 2356.19 L2588.90 2348.63 L2589.71 2351.60 L2590.38 2346.88 L2591.05 2346.61 L2591.73 2343.23 L2592.54 2349.17 L2593.22 2350.93 L2593.89 2355.92 L2594.57 2359.43 L2595.38 2358.89 L2596.05 2363.35 L2596.73 2362.81 L2597.40 2365.91 L2598.21 2369.29 L2598.89 2372.12 L2599.56 2374.55 L2600.24 2375.23 L2601.05 2377.25 L2601.72 2378.74 L2602.40 2380.22 L2603.07 2381.30 L2603.75 2381.84 L2604.55 2381.44 L2605.23 2381.44 L2605.91 2381.03 L2606.58 2382.25 L2607.39 2371.45 L2608.07 2373.74 L2608.74 2358.89 L2609.42 2362.67 L2610.23 2360.24 L2610.90 2362.40 L2611.57 2358.76 L2612.25 2362.67 L2613.06 2360.24 L2613.74 2363.21 L2614.41 2363.62 L2615.09 2367.26 L2615.90 2367.94 L2616.57 2357.81 L2617.25 2361.59 L2617.92 2365.64 L2618.73 2362.40 L2619.41 2361.86 L2620.08 2364.43 L2620.76 2367.94 L2621.57 2369.29 L2622.24 2371.72 L2622.92 2374.15 L2623.59 2375.77 L2624.27 2376.58 L2625.08 2376.98 L2625.75 2378.74 L2626.43 2379.28 L2627.10 2380.63 L2627.91 2373.88 L2628.59 2372.80 L2629.26 2375.09 L2629.94 2376.04 L2630.75 2377.93 L2631.42 2379.28 L2632.10 2379.41 L2632.77 2380.63 L2633.58 2380.76 L2634.26 2375.77 L2634.93 2373.34 L2635.61 2375.23 L2636.42 2368.75 L2637.09 2369.96 L2637.77 2372.53 L2638.44 2366.45 L2639.25 2368.21 L2639.93 2370.64 L2640.60 2373.20 L2641.28 2370.23 L2642.09 2373.07 L2642.76 2375.09 L2643.44 2376.98 L2644.11 2378.74 L2644.92 2380.22 L2645.60 2381.17 L2646.27 2375.36 L2646.95 2374.15 L2647.62 2376.17 L2648.43 2375.50 L2649.11 2377.52 L2649.78 2379.14 L2650.46 2380.49 L2651.27 2377.25 L2651.94 2378.47 L2652.62 2377.12 L2653.29 2378.87 L2654.10 2374.01 L2654.78 2376.17 L2655.45 2374.96 L2656.13 2375.09 L2656.94 2376.04 L2657.61 2377.93 L2658.29 2375.23 L2658.96 2375.36 L2659.77 2376.04 L2660.45 2377.93 L2661.12 2376.31 L2661.80 2377.12 L2662.61 2378.74 L2663.28 2353.90 L2663.96 2359.03 L2664.63 2362.00 L2665.44 2366.05 L2666.12 2367.94 L2666.79 2369.83 L2667.47 2355.65 L2668.14 2360.65 L2668.95 2358.89 L2669.63 2357.27 L2670.30 2361.32 L2670.98 2365.37 L2671.79 2366.45 L2672.46 2369.83 L2673.14 2372.66 L2673.81 2373.88 L2674.62 2375.50 L2675.30 2375.23 L2675.97 2369.42 L2676.65 2369.56 L2677.46 2366.59 L2678.13 2367.40 L2678.81 2370.50 L2679.48 2372.80 L2680.29 2374.42 L2680.97 2376.04 L2681.64 2377.79 L2682.32 2375.63 L2683.13 2376.58 L2683.80 2371.45 L2684.48 2368.61 L2685.15 2371.72 L2685.96 2373.88 L2686.64 2375.77 L2687.31 2376.85 L2687.99 2378.06 L2688.80 2374.82 L2689.47 2349.58 L2690.15 2290.18 L2690.82 2203.50 L2691.50 2212.95 L2692.31 2175.83 L2692.98 2179.07 L2693.66 2210.52 L2694.33 2231.58 L2695.14 2200.53 L2695.82 2218.08 L2696.49 2243.74 L2697.17 2249.54 L2697.98 2245.09 L2698.65 2255.08 L2699.33 2274.65 L2700.00 2291.39 L2700.81 2304.49 L2701.49 2311.24 L2702.16 2319.61 L2702.84 2329.19 L2703.65 2321.77 L2704.32 2331.62 L2705.00 2330.27 L2705.67 2337.97 L2706.48 2344.18 L2707.16 2350.52 L2707.83 2315.15 L2708.51 2325.95 L2709.32 2320.82 L2709.99 2330.95 L2710.67 2331.22 L2711.34 2324.06 L2712.02 2332.97 L2712.83 2338.91 L2713.50 2342.96 L2714.18 2349.85 L2714.85 2355.65 L2715.66 2357.68 L2716.34 2360.38 L2717.01 2355.11 L2717.69 2359.16 L2718.50 2363.62 L2719.17 2367.13 L2719.85 2368.07 L2720.52 2358.89 L2721.33 2356.73 L2722.01 2361.46 L2722.68 2365.10 L2723.36 2362.13 L2724.17 2366.05 L2724.84 2368.07 L2725.52 2364.70 L2726.19 2367.80 L2727.00 2370.37 L2727.68 2372.93 L2728.35 2375.36 L2729.03 2371.72 L2729.84 2374.28 L2730.51 2375.77 L2731.19 2366.05 L2731.86 2360.65 L2732.67 2355.79 L2733.35 2360.65 L2734.02 2352.55 L2734.70 2357.95 L2735.37 2362.00 L2736.18 2365.78 L2736.86 2369.29 L2737.53 2372.12 L2738.21 2374.69 L2739.02 2375.23 L2739.69 2372.12 L2740.37 2367.80 L2741.04 2358.35 L2741.85 2345.12 L2742.53 2349.44 L2743.20 2352.14 L2743.88 2353.49 L2744.69 2358.76 L2745.36 2341.07 L2746.04 2347.96 L2746.71 2349.44 L2747.52 2345.12 L2748.20 2339.32 L2748.87 2326.22 L2749.55 2334.19 L2750.36 2339.05 L2751.03 2339.32 L2751.71 2346.61 L2752.38 2352.41 L2753.19 2353.09 L2753.87 2355.52 L2754.54 2354.57 L2755.22 2344.31 L2755.89 2351.06 L2756.70 2345.39 L2757.38 2315.96 L2758.05 2316.37 L2758.73 2327.03 L2759.54 2334.59 L2760.21 2304.76 L2760.89 2308.40 L2761.56 2291.80 L2762.37 2305.97 L2763.05 2307.46 L2763.72 2319.34 L2764.40 2313.26 L2765.21 2310.16 L2765.88 2315.56 L2766.56 2318.66 L2767.23 2328.79 L2768.04 2310.43 L2768.72 2322.17 L2769.39 2310.43 L2770.07 2321.90 L2770.88 2331.89 L2771.55 2318.80 L2772.23 2313.94 L2772.90 2324.47 L2773.71 2333.78 L2774.39 2330.81 L2775.06 2325.14 L2775.74 2322.44 L2776.55 2319.47 L2777.22 2328.38 L2777.90 2337.29 L2778.57 2336.35 L2779.25 2335.54 L2780.06 2343.23 L2780.73 2344.45 L2781.41 2350.79 L2782.08 2352.01 L2782.89 2332.03 L2783.57 2339.45 L2784.24 2346.34 L2784.92 2352.28 L2785.73 2357.81 L2786.40 2354.98 L2787.08 2359.30 L2787.75 2363.75 L2788.56 2354.44 L2789.24 2359.57 L2789.91 2363.75 L2790.59 2366.32 L2791.40 2367.40 L2792.07 2369.69 L2792.75 2372.53 L2793.42 2374.82 L2794.23 2374.69 L2794.91 2376.71 L2795.58 2378.60 L2796.26 2376.58 L2797.07 2377.39 L2797.74 2378.87 L2798.42 2378.47 L2799.09 2379.41 L2799.77 2374.96 L2800.58 2372.53 L2801.25 2367.53 L2801.93 2370.50 L2802.60 2372.80 L2803.41 2371.04 L2804.09 2368.48 L2804.76 2371.58 L2805.44 2374.01 L2806.25 2374.28 L2806.92 2376.04 L2807.60 2377.93 L2808.27 2377.93 L2809.08 2379.55 L2809.76 2380.76 L2810.43 2381.84 L2811.11 2382.79 L2811.92 2379.01 L2812.59 2378.47 L2813.27 2377.52 L2813.94 2374.96 L2814.75 2374.42 L2815.43 2376.44 L2816.10 2378.06 L2816.78 2379.68 L2817.59 2373.74 L2818.26 2371.04 L2818.94 2373.61 L2819.61 2371.04 L2820.42 2369.83 L2821.10 2367.40 L2821.77 2370.50 L2822.45 2371.99 L2823.12 2373.20 L2823.93 2374.96 L2824.61 2368.34 L2825.28 2369.15 L2825.96 2372.12 L2826.77 2374.01 L2827.44 2376.31 L2828.12 2378.20 L2828.79 2379.41 L2829.60 2380.22 L2830.28 2380.49 L2830.95 2381.71 L2831.63 2382.25 L2832.44 2382.92 L2833.11 2379.01 L2833.79 2375.63 L2834.46 2377.25 L2835.27 2378.47 L2835.95 2379.68 L2836.62 2380.09 L2837.30 2380.22 L2838.11 2381.30 L2838.78 2382.25 L2839.46 2375.50 L2840.13 2307.59 L2840.94 2295.44 L2841.62 2297.33 L2842.29 2297.20 L2842.97 2301.25 L2843.64 2314.21 L2844.45 2322.58 L2845.13 2331.62 L2845.80 2340.13 L2846.48 2336.75 L2847.29 2343.77 L2847.96 2348.23 L2848.64 2354.30 L2849.31 2358.22 L2850.12 2362.81 L2850.80 2366.45 L2851.47 2369.69 L2852.15 2371.72 L2852.96 2373.61 L2853.63 2374.96 L2854.31 2376.58 L2854.98 2378.47 L2855.79 2379.82 L2856.47 2381.17 L2857.14 2382.25 L2857.82 2383.06 L2858.63 2381.44 L2859.30 2382.25 L2859.98 2383.19 L2860.65 2380.63 L2861.46 2381.84 L2862.14 2382.79 L2862.81 2383.06 L2863.49 2383.06 L2864.30 2383.87 L2864.97 2384.27 L2865.65 2383.06 L2866.32 2383.87 L2867.00 2384.54 L2867.81 2385.08 L2868.48 2385.49 L2869.16 2385.89 L2869.83 2384.54 L2870.64 2384.95 L2871.32 2385.22 L2871.99 2384.68 L2872.67 2384.95 L2873.48 2385.08 L2874.15 2385.62 L2874.83 2385.35 L2875.50 2385.62 L2876.31 2386.16 L2876.99 2386.03 L2877.66 2352.01 L2878.34 2349.85 L2879.15 2343.50 L2879.82 2349.98 L2880.50 2351.74 L2881.17 2356.33 L2881.98 2361.19 L2882.66 2365.24 L2883.33 2363.75 L2884.01 2365.51 L2884.82 2367.13 L2885.49 2365.24 L2886.17 2367.53 L2886.84 2369.56 L2887.52 2367.26 L2888.33 2368.34 L2889.00 2370.64 L2889.68 2371.45 L2890.35 2373.61 L2891.16 2375.90 L2891.84 2376.98 L2892.51 2378.06 L2893.19 2370.37 L2894.00 2373.20 L2894.67 2374.55 L2895.35 2376.58 L2896.02 2377.52 L2896.83 2377.93 L2897.51 2379.55 L2898.18 2380.63 L2898.86 2381.84 L2899.67 2382.11 L2900.34 2381.98 L2901.02 2382.65 L2901.69 2382.52 L2902.50 2382.52 L2903.18 2383.33 L2903.85 2380.90 L2904.53 2378.47 L2905.34 2378.06 L2906.01 2379.01 L2906.69 2358.35 L2907.36 2362.27 L2908.17 2360.51 L2908.85 2364.70 L2909.52 2368.07 L2910.20 2371.18 L2910.87 2371.31 L2911.68 2373.74 L2912.36 2375.09 L2913.03 2376.71 L2913.71 2376.04 L2914.52 2377.79 L2915.19 2379.41 L2915.87 2380.36 L2916.54 2380.09 L2917.35 2381.44 L2918.03 2382.11 L2918.70 2382.11 L2919.38 2383.06 L2920.19 2382.65 L2920.86 2383.06 L2921.54 2375.77 L2922.21 2377.39 L2923.02 2377.39 L2923.70 2379.14 L2924.37 2378.60 L2925.05 2376.71 L2925.86 2378.06 L2926.53 2379.55 L2927.21 2380.76 L2927.88 2381.44 L2928.69 2382.25 L2929.37 2382.92 L2930.04 2383.87 L2930.72 2384.41 L2931.39 2381.03 L2932.20 2382.11 L2932.88 2381.71 L2933.55 2379.68 L2934.23 2379.55 L2935.04 2380.90 L2935.71 2381.71 L2936.39 2381.98 L2937.06 2383.06 L2937.87 2383.60 L2938.55 2384.14 L2939.22 2384.68 L2939.90 2384.68 L2940.71 2385.35 L2941.38 2384.95 L2942.06 2385.08 L2942.73 2385.08 L2943.54 2383.87 L2944.22 2381.57 L2944.89 2382.65 L2945.57 2383.46 L2946.38 2382.11 L2947.05 2382.92 L2947.73 2383.87 L2948.40 2384.54 L2949.21 2382.92 L2949.89 2383.46 L2950.56 2384.27 L2951.24 2384.95 L2951.91 2384.14 L2952.72 2384.27 L2953.40 2383.73 L2954.07 2383.73 L2954.75 2383.19 L2955.56 2384.00 L2956.23 2384.68 L2956.91 2383.60 L2957.58 2384.41 L2958.39 2385.08 L2959.07 2385.49 L2959.74 2386.03 L2960.42 2386.03 L2961.23 2377.52 L2961.90 2377.66 L2962.58 2379.41 L2963.25 2380.09 L2964.06 2380.90 L2964.74 2381.57 L2965.41 2382.65 L2966.09 2383.19 L2966.90 2384.14 L2967.57 2384.00 L2968.25 2381.71 L2968.92 2382.65 L2969.73 2383.33 L2970.41 2383.87 L2971.08 2375.50 L2971.76 2377.52 L2972.57 2379.14 L2973.24 2380.36 L2973.92 2381.57 L2974.59 2380.49 L2975.27 2381.71 L2976.08 2382.52 L2976.75 2383.06 L2977.43 2383.60 L2978.10 2384.41 L2978.91 2384.41 L2979.59 2384.95 L2980.26 2385.49 L2980.94 2386.03 L2981.75 2386.16 L2982.42 2385.49 L2983.10 2382.65 L2983.77 2380.76 L2984.58 2381.44 L2985.26 2382.11 L2985.93 2381.03 L2986.61 2381.57 L2987.42 2377.66 L2988.09 2377.52 L2988.77 2379.14 L2989.44 2380.63 L2990.25 2381.57 L2990.93 2382.65 L2991.60 2383.60 L2992.28 2384.14 L2993.09 2384.95 L2993.76 2384.95 L2994.44 2385.49 L2995.11 2385.89 L2995.79 2386.30 L2996.60 2386.30 L2997.27 2386.43 L2997.95 2386.03 L2998.62 2386.30 L2999.43 2367.53 L3000.11 2370.64 L3000.78 2371.58 L3001.46 2372.93 L3002.27 2375.23 L3002.94 2377.12 L3003.62 2378.20 L3004.29 2379.82 L3005.10 2380.90 L3005.78 2382.11 L3006.45 2380.63 L3007.13 2381.30 L3007.94 2382.25 L3008.61 2382.65 L3009.29 2383.60 L3009.96 2384.41 L3010.77 2384.95 L3011.45 2385.49 L3012.12 2385.22 L3012.80 2385.62 L3013.61 2385.76 L3014.28 2386.16 L3014.96 2383.46 L3015.63 2381.84 L3016.44 2382.79 L3017.12 2383.60 L3017.79 2384.41 L3018.47 2385.08 L3019.14 2381.57 L3019.95 2379.68 L3020.63 2376.85 L3021.30 2378.74 L3021.98 2380.09 L3022.79 2381.44 L3023.46 2376.98 L3024.14 2377.52 L3024.81 2379.14 L3025.62 2380.49 L3026.30 2379.68 L3026.97 2381.03 L3027.65 2381.30 L3028.46 2382.52 L3029.13 2383.46 L3029.81 2383.06 L3030.48 2383.87 L3031.29 2384.68 L3031.97 2385.08 L3032.64 2385.35 L3033.32 2385.89 L3034.13 2386.30 L3034.80 2386.43 L3035.48 2386.70 L3036.15 2386.97 L3036.96 2387.24 L3037.64 2387.11 L3038.31 2387.24 L3038.99 2387.51 L3039.66 2387.24 L3040.47 2387.38 L3041.15 2375.23 L3041.82 2377.25 L3042.50 2374.69 L3043.31 2376.85 L3043.98 2378.60 L3044.66 2366.05 L3045.33 2368.75 L3046.14 2371.72 L3046.82 2370.10 L3047.49 2372.12 L3048.17 2374.15 L3048.98 2376.31 L3049.65 2378.20 L3050.33 2379.82 L3051.00 2380.49 L3051.81 2380.49 L3052.49 2381.57 L3053.16 2379.01 L3053.84 2380.22 L3054.65 2381.57 L3055.32 2382.38 L3056.00 2378.47 L3056.67 2379.41 L3057.48 2380.90 L3058.16 2381.98 L3058.83 2382.92 L3059.51 2383.73 L3060.32 2384.54 L3060.99 2385.22 L3061.67 2385.08 L3062.34 2385.62 L3063.02 2385.62 L3063.83 2386.16 L3064.50 2386.03 L3065.18 2386.43 L3065.85 2386.30 L3066.66 2386.03 L3067.34 2386.30 L3068.01 2386.70 L3068.69 2385.62 L3069.50 2386.03 L3070.17 2386.16 L3070.85 2386.43 L3071.52 2386.70 L3072.33 2386.84 L3073.01 2387.11 L3073.68 2387.38 L3074.36 2387.65 L3075.17 2387.78 L3075.84 2387.92 L3076.52 2386.97 L3077.19 2386.30 L3078.00 2386.70 L3078.68 2385.62 L3079.35 2386.03 L3080.03 2383.60 L3080.84 2383.87 L3081.51 2384.68 L3082.19 2385.22 L3082.86 2385.76 L3083.54 2385.89 L3084.35 2386.30 L3085.02 2386.70 L3085.70 2386.97 L3086.37 2386.30 L3087.18 2386.57 L3087.86 2386.97 L3088.53 2386.84 L3089.21 2384.95 L3090.02 2382.92 L3090.69 2383.46 L3091.37 2384.27 L3092.04 2383.19 L3092.85 2384.00 L3093.53 2384.54 L3094.20 2385.22 L3094.88 2381.30 L3095.69 2382.38 L3096.36 2380.22 L3097.04 2381.30 L3097.71 2382.38 L3098.52 2382.38 L3099.20 2383.33 L3099.87 2383.87 L3100.55 2383.19 L3101.36 2383.60 L3102.03 2384.27 L3102.71 2384.95 L3103.38 2384.54 L3104.19 2381.71 L3104.87 2381.17 L3105.54 2381.84 L3106.22 2382.79 L3106.89 2383.60 L3107.70 2384.41 L3108.38 2384.95 L3109.05 2385.49 L3109.73 2385.89 L3110.54 2384.81 L3111.21 2382.52 L3111.89 2381.30 L3112.56 2381.57 L3113.37 2380.09 L3114.05 2381.30 L3114.72 2382.38 L3115.40 2383.33 L3116.21 2381.71 L3116.88 2380.22 L3117.56 2381.03 L3118.23 2377.79 L3119.04 2379.41 L3119.72 2379.82 L3120.39 2377.66 L3121.07 2379.01 L3121.88 2380.49 L3122.55 2381.71 L3123.23 2375.36 L3123.90 2375.50 L3124.71 2370.91 L3125.39 2373.61 L3126.06 2375.90 L3126.74 2352.95 L3127.41 2258.32 L3128.22 2267.63 L3128.90 2284.24 L3129.57 2217.27 L3130.25 2236.58 L3131.06 2250.62 L3131.73 2271.14 L3132.41 2280.86 L3133.08 2289.91 L3133.89 2304.76 L3134.57 2315.02 L3135.24 2323.79 L3135.92 2333.51 L3136.73 2330.00 L3137.40 2331.49 L3138.08 2331.62 L3138.75 2332.03 L3139.56 2328.65 L3140.24 2337.16 L3140.91 2339.59 L3141.59 2346.74 L3142.40 2352.95 L3143.07 2357.68 L3143.75 2347.69 L3144.42 2353.90 L3145.23 2356.60 L3145.91 2359.03 L3146.58 2363.35 L3147.26 2367.13 L3148.07 2358.49 L3148.74 2363.08 L3149.42 2366.45 L3150.09 2332.43 L3150.77 2310.56 L3151.58 2292.20 L3152.25 2290.04 L3152.93 2303.41 L3153.60 2309.21 L3154.41 2292.47 L3155.09 2302.06 L3155.76 2309.35 L3156.44 2319.34 L3157.25 2301.65 L3157.92 2314.75 L3158.60 2313.80 L3159.27 2323.25 L3160.08 2330.68 L3160.76 2338.64 L3161.43 2343.77 L3162.11 2345.39 L3162.92 2351.87 L3163.59 2355.11 L3164.27 2355.25 L3164.94 2360.11 L3165.75 2353.09 L3166.43 2358.49 L3167.10 2358.76 L3167.78 2363.21 L3168.59 2362.54 L3169.26 2366.45 L3169.94 2366.05 L3170.61 2368.75 L3171.29 2365.10 L3172.10 2368.21 L3172.77 2371.31 L3173.45 2369.96 L3174.12 2368.61 L3174.93 2371.58 L3175.61 2374.15 L3176.28 2373.47 L3176.96 2375.36 L3177.77 2377.25 L3178.44 2378.33 L3179.12 2377.79 L3179.79 2378.87 L3180.60 2380.09 L3181.28 2381.03 L3181.95 2381.71 L3182.63 2374.28 L3183.44 2369.96 L3184.11 2369.96 L3184.79 2367.80 L3185.46 2370.10 L3186.27 2372.93 L3186.95 2372.26 L3187.62 2374.69 L3188.30 2376.58 L3189.11 2378.33 L3189.78 2379.82 L3190.46 2380.22 L3191.13 2381.44 L3191.94 2382.38 L3192.62 2382.92 L3193.29 2382.65 L3193.97 2383.60 L3194.64 2381.84 L3195.45 2382.92 L3196.13 2372.66 L3196.80 2375.09 L3197.48 2372.26 L3198.29 2373.61 L3198.96 2375.90 L3199.64 2377.52 L3200.31 2377.39 L3201.12 2376.31 L3201.80 2374.96 L3202.47 2373.20 L3203.15 2374.96 L3203.96 2374.28 L3204.63 2373.47 L3205.31 2375.63 L3205.98 2377.52 L3206.79 2378.60 L3207.47 2380.09 L3208.14 2380.36 L3208.82 2381.57 L3209.63 2382.52 L3210.30 2382.52 L3210.98 2379.41 L3211.65 2380.36 L3212.46 2379.01 L3213.14 2378.06 L3213.81 2378.87 L3214.49 2380.22 L3215.16 2380.63 L3215.97 2380.90 L3216.65 2381.57 L3217.32 2382.38 L3218.00 2383.33 L3218.81 2384.00 L3219.48 2381.57 L3220.16 2381.30 L3220.83 2380.90 L3221.64 2378.60 L3222.32 2377.66 L3222.99 2378.87 L3223.67 2380.22 L3224.48 2381.44 L3225.15 2382.52 L3225.83 2383.19 L3226.50 2382.38 L3227.31 2380.49 L3227.99 2381.84 L3228.66 2381.44 L3229.34 2381.57 L3230.15 2382.65 L3230.82 2383.33 L3231.50 2383.60 L3232.17 2383.46 L3232.98 2383.73 L3233.66 2384.41 L3234.33 2384.68 L3235.01 2385.22 L3235.82 2384.68 L3236.49 2385.35 L3237.17 2383.87 L3237.84 2383.60 L3238.52 2384.41 L3239.33 2382.11 L3240.00 2383.19 L3240.68 2383.19 L3241.35 2383.87 L3242.16 2383.87 L3242.84 2384.41 L3243.51 2385.08 L3244.19 2385.22 L3245.00 2385.76 L3245.67 2386.16 L3246.35 2382.52 L3247.02 2381.17 L3247.83 2382.25 L3248.51 2382.92 L3249.18 2321.09 L3249.86 2301.11 L3250.67 2307.73 L3251.34 2317.31 L3252.02 2308.27 L3252.69 2320.28 L3253.50 2317.72 L3254.18 2327.98 L3254.85 2335.27 L3255.53 2340.40 L3256.34 2289.10 L3257.01 2292.61 L3257.69 2288.56 L3258.36 2298.95 L3259.04 2303.81 L3259.85 2311.51 L3260.52 2318.66 L3261.20 2326.49 L3261.87 2335.13 L3262.68 2341.75 L3263.36 2327.84 L3264.03 2336.62 L3264.71 2338.91 L3265.52 2321.90 L3266.19 2331.08 L3266.87 2335.13 L3267.54 2339.32 L3268.35 2346.61 L3269.03 2335.94 L3269.70 2320.82 L3270.38 2330.95 L3271.19 2335.81 L3271.86 2334.46 L3272.54 2342.42 L3273.21 2324.74 L3274.02 2334.05 L3274.70 2339.45 L3275.37 2341.75 L3276.05 2291.39 L3276.86 2304.89 L3277.53 2284.10 L3278.21 2299.63 L3278.88 2312.86 L3279.69 2323.52 L3280.37 2333.24 L3281.04 2318.26 L3281.72 2298.68 L3282.39 2311.51 L3283.20 2306.11 L3283.88 2299.09 L3284.55 2280.86 L3285.23 2244.01 L3286.04 2165.70 L3286.71 2195.81 L3287.39 2224.29 L3288.06 2247.11 L3288.87 2268.31 L3289.55 2246.98 L3290.22 2219.70 L3290.90 2242.93 L3291.71 2260.75 L3292.38 2279.65 L3293.06 2295.31 L3293.73 2309.21 L3294.54 2319.07 L3295.22 2325.55 L3295.89 2334.86 L3296.57 2340.94 L3297.38 2339.45 L3298.05 2335.54 L3298.73 2343.50 L3299.40 2350.25 L3300.21 2352.82 L3300.89 2354.17 L3301.56 2359.16 L3302.24 2353.22 L3302.91 2354.44 L3303.72 2359.57 L3304.40 2361.59 L3305.07 2364.83 L3305.75 2368.21 L3306.56 2365.78 L3307.23 2369.15 L3307.91 2372.12 L3308.58 2366.32 L3309.39 2369.29 L3310.07 2371.85 L3310.74 2369.29 L3311.42 2371.99 L3312.23 2374.42 L3312.90 2376.04 L3313.58 2376.31 L3314.25 2378.06 L3315.06 2379.55 L3315.74 2381.03 L3316.41 2381.57 L3317.09 2380.36 L3317.90 2380.76 L3318.57 2381.84 L3319.25 2380.22 L3319.92 2377.39 L3320.73 2378.47 L3321.41 2369.83 L3322.08 2372.26 L3322.76 2372.26 L3323.57 2374.69 L3324.24 2375.63 L3324.92 2376.98 L3325.59 2378.74 L3326.27 2379.68 L3327.08 2375.23 L3327.75 2357.81 L3328.43 2362.27 L3329.10 2364.29 L3329.91 2366.86 L3330.59 2369.96 L3331.26 2370.37 L3331.94 2366.72 L3332.75 2369.96 L3333.42 2372.66 L3334.10 2374.96 L3334.77 2376.04 L3335.58 2377.93 L3336.26 2377.39 L3336.93 2378.60 L3337.61 2380.09 L3338.42 2379.14 L3339.09 2380.63 L3339.77 2381.84 L3340.44 2382.52 L3341.25 2383.33 L3341.93 2384.14 L3342.60 2380.90 L3343.28 2381.84 L3344.09 2382.79 L3344.76 2382.92 L3345.44 2383.73 L3346.11 2384.41 L3346.79 2382.11 L3347.60 2382.65 L3348.27 2379.14 L3348.95 2379.55 L3349.62 2365.64 L3350.43 2368.48 L3351.11 2370.77 L3351.78 2373.20 L3352.46 2342.69 L3353.27 2347.96 L3353.94 2352.82 L3354.62 2354.71 L3355.29 2357.68 L3356.10 2359.03 L3356.78 2360.92 L3357.45 2364.56 L3358.13 2359.16 L3358.94 2363.62 L3359.61 2362.54 L3360.29 2362.67 L3360.96 2366.59 L3361.77 2358.62 L3362.45 2361.86 L3363.12 2346.07 L3363.80 2349.17 L3364.61 2353.49 L3365.28 2353.76 L3365.96 2358.08 L3366.63 2362.67 L3367.44 2366.18 L3368.12 2369.02 L3368.79 2371.85 L3369.47 2374.42 L3370.14 2372.26 L3370.95 2374.28 L3371.63 2372.12 L3372.30 2374.55 L3372.98 2376.44 L3373.79 2372.93 L3374.46 2375.09 L3375.14 2376.71 L3375.81 2376.98 L3376.62 2375.90 L3377.30 2377.39 L3377.97 2376.31 L3378.65 2378.06 L3379.46 2378.20 L3380.13 2379.82 L3380.81 2380.22 L3381.48 2381.30 L3382.29 2381.44 L3382.97 2382.65 L3383.64 2382.79 L3384.32 2381.03 L3385.13 2381.84 L3385.80 2380.63 L3386.48 2381.71 L3387.15 2380.63 L3387.96 2380.76 L3388.64 2380.49 L3389.31 2379.41 L3389.99 2380.63 L3390.66 2381.44 L3391.47 2375.36 L3392.15 2371.85 L3392.82 2370.37 L3393.50 2320.42 L3394.31 2325.55 L3394.98 2335.00 L3395.66 2327.03 L3396.33 2333.78 L3397.14 2332.84 L3397.82 2332.84 L3398.49 2293.42 L3399.17 2307.73 L3399.98 2311.24 L3400.65 2315.83 L3401.33 2322.98 L3402.00 2330.41 L3402.81 2339.05 L3403.49 2307.46 L3404.16 2316.23 L3404.84 2326.22 L3405.65 2334.19 L3406.32 2335.27 L3407.00 2343.23 L3407.67 2346.88 L3408.48 2348.50 L3409.16 2346.34 L3409.83 2352.68 L3410.51 2358.08 L3411.32 2362.67 L3411.99 2364.29 L3412.67 2367.67 L3413.34 2370.77 L3414.02 2372.80 L3414.83 2375.09 L3415.50 2377.12 L3416.18 2378.87 L3416.85 2378.74 L3417.66 2380.22 L3418.34 2377.12 L3419.01 2377.52 L3419.69 2378.74 L3420.50 2378.33 L3421.17 2379.14 L3421.85 2371.85 L3422.52 2353.76 L3423.33 2357.27 L3424.01 2352.95 L3424.68 2357.14 L3425.36 2346.61 L3426.17 2350.39 L3426.84 2354.57 L3427.52 2354.17 L3428.19 2359.16 L3429.00 2359.16 L3429.68 2363.35 L3430.35 2366.99 L3431.03 2369.02 L3431.84 2370.10 L3432.51 2371.99 L3433.19 2374.28 L3433.86 2376.44 L3434.54 2377.52 L3435.35 2377.93 L3436.02 2379.55 L3436.70 2380.63 L3437.37 2381.44 L3438.18 2378.47 L3438.86 2379.28 L3439.53 2380.63 L3440.21 2381.84 L3441.02 2382.65 L3441.69 2383.33 L3442.37 2383.87 L3443.04 2384.54 L3443.85 2385.22 L3444.53 2385.76 L3445.20 2383.46 L3445.88 2384.27 L3446.69 2384.95 L3447.36 2384.68 L3448.04 2385.08 L3448.71 2385.49 L3449.52 2383.46 L3450.20 2384.00 L3450.87 2383.87 L3451.55 2383.73 L3452.36 2380.09 L3453.03 2378.33 L3453.71 2378.47 L3454.38 2379.95 L3455.19 2377.39 L3455.87 2378.60 L3456.54 2379.95 L3457.22 2381.03 L3457.89 2378.74 L3458.70 2380.22 L3459.38 2379.01 L3460.05 2380.49 L3460.73 2381.84 L3461.54 2381.98 L3462.21 2381.71 L3462.89 2382.79 L3463.56 2383.73 L3464.37 2383.33 L3465.05 2384.14 L3465.72 2382.92 L3466.40 2383.46 L3467.21 2380.90 L3467.88 2379.68 L3468.56 2380.63 L3469.23 2381.44 L3470.04 2381.44 L3470.72 2380.36 L3471.39 2381.30 L3472.07 2380.09 L3472.88 2381.30 L3473.55 2382.38 L3474.23 2379.82 L3474.90 2380.22 L3475.71 2381.17 L3476.39 2382.38 L3477.06 2383.33 L3477.74 2379.68 L3478.41 2366.45 L3479.22 2365.91 L3479.90 2369.29 L3480.57 2371.85 L3481.25 2356.60 L3482.06 2359.70 L3482.73 2353.36 L3483.41 2351.47 L3484.08 2356.46 L3484.89 2359.84 L3485.57 2362.00 L3486.24 2365.78 L3486.92 2367.26 L3487.73 2370.37 L3488.40 2373.07 L3489.08 2374.96 L3489.75 2376.17 L3490.56 2377.25 L3491.24 2372.53 L3491.91 2309.75 L3492.59 2262.10 L3493.40 2278.43 L3494.07 2176.64 L3494.75 2199.59 L3495.42 2136.27 L3496.23 2131.95 L3496.91 2094.42 L3497.58 2075.79 L3498.26 2100.50 L3499.07 1780.68 L3499.74 1781.76 L3500.42 1730.59 L3501.09 1246.20 L3501.77 1097.84 L3502.58 435.92 L3503.25 613.58 L3503.93 712.81 L3504.60 963.38 L3505.41 1041.95 L3506.09 1171.14 L3506.76 1007.25 L3507.44 1206.92 L3508.25 1214.21 L3508.92 1328.29 L3509.60 1446.14 L3510.27 1570.75 L3511.08 1566.83 L3511.76 1675.65 L3512.43 1765.56 L3513.11 1642.98 L3513.92 1754.62 L3514.59 1796.07 L3515.27 1874.64 L3515.94 1946.19 L3516.75 1971.84 L3517.43 2010.05 L3518.10 2066.21 L3518.78 2079.71 L3519.59 2109.14 L3520.26 2094.56 L3520.94 2118.99 L3521.61 2159.36 L3522.29 2185.41 L3523.10 2204.99 L3523.77 2231.04 L3524.45 2220.51 L3525.12 2241.85 L3525.93 2219.16 L3526.61 2244.41 L3527.28 2262.37 L3527.96 2278.30 L3528.77 2289.23 L3529.44 2290.04 L3530.12 2304.76 L3530.79 2293.28 L3531.60 2288.02 L3532.28 2298.68 L3532.95 2311.51 L3533.63 2274.65 L3534.44 2287.21 L3535.11 2289.50 L3535.79 2301.52 L3536.46 2314.48 L3537.27 2318.26 L3537.95 2316.50 L3538.62 2327.30 L3539.30 2335.27 L3540.11 2342.42 L3540.78 2345.53 L3541.46 2341.75 L3542.13 2348.50 L3542.94 2319.07 L3543.62 2319.07 L3544.29 2327.44 L3544.97 2335.40 L3545.64 2148.83 L3546.45 2179.88 L3547.13 2207.82 L3547.80 2215.25 L3548.48 2240.77 L3549.29 2262.91 L3549.96 2279.78 L3550.64 2293.96 L3551.31 2307.32 L3552.12 2284.78 L3552.80 2296.25 L3553.47 2279.11 L3554.15 2287.48 L3554.96 2290.04 L3555.63 2303.41 L3556.31 2315.02 L3556.98 2313.13 L3557.79 2319.20 L3558.47 2326.90 L3559.14 2334.59 L3559.82 2337.43 L3560.63 2340.80 L3561.30 2339.32 L3561.98 2342.02 L3562.65 2348.63 L3563.46 2354.44 L3564.14 2355.52 L3564.81 2360.38 L3565.49 2362.67 L3566.16 2358.89 L3566.97 2361.05 L3567.65 2362.81 L3568.32 2364.83 L3569.00 2361.19 L3569.81 2364.83 L3570.48 2365.64 L3571.16 2366.05 L3571.83 2368.61 L3572.64 2369.29 L3573.32 2369.69 L3573.99 2372.53 L3574.67 2374.55 L3575.48 2373.61 L3576.15 2366.05 L3576.83 2369.42 L3577.50 2372.39 L3578.31 2374.42 L3578.99 2376.31 L3579.66 2377.25 L3580.34 2378.47 L3581.15 2379.41 L3581.82 2375.09 L3582.50 2376.17 L3583.17 2371.99 L3583.98 2374.28 L3584.66 2373.61 L3585.33 2375.77 L3586.01 2374.28 L3586.82 2363.08 L3587.49 2305.30 L3588.17 2312.72 L3588.84 2280.05 L3589.52 2279.38 L3590.33 2279.65 L3591.00 2295.98 L3591.68 2302.73 L3592.35 2314.07 L3593.16 2323.93 L3593.84 2329.46 L3594.51 2330.00 L3595.19 2330.00 L3596.00 2335.00 L3596.67 2311.64 L3597.35 2323.25 L3598.02 2321.77 L3598.83 2318.80 L3599.51 2328.11 L3600.18 2334.46 L3600.86 2341.34 L3601.67 2343.23 L3602.34 2335.54 L3603.02 2333.38 L3603.69 2328.11 L3604.50 2333.65 L3605.18 2337.56 L3605.85 2331.08 L3606.53 2338.37 L3607.34 2343.23 L3608.01 2349.85 L3608.69 2355.79 L3609.36 2346.07 L3610.04 2352.01 L3610.85 2357.14 L3611.52 2360.78 L3612.20 2364.56 L3612.87 2348.90 L3613.68 2353.76 L3614.36 2286.13 L3615.03 2297.47 L3615.71 2301.65 L3616.52 2308.94 L3617.19 2306.51 L3617.87 2293.01 L3618.54 2287.34 L3619.35 2302.60 L3620.03 2308.94 L3620.70 2320.82 L3621.38 2328.25 L3622.19 2332.57 L3622.86 2332.43 L3623.54 2332.97 L3624.21 2340.40 L3625.02 2340.53 L3625.70 2347.28 L3626.37 2351.06 L3627.05 2355.38 L3627.86 2346.74 L3628.53 2353.09 L3629.21 2358.08 L3629.88 2361.59 L3630.69 2359.30 L3631.37 2363.48 L3632.04 2367.26 L3632.72 2366.59 L3633.39 2369.83 L3634.20 2372.26 L3634.88 2371.72 L3635.55 2374.15 L3636.23 2376.17 L3637.04 2376.98 L3637.71 2370.64 L3638.39 2373.20 L3639.06 2373.74 L3639.87 2375.36 L3640.55 2376.58 L3641.22 2378.06 L3641.90 2379.68 L3642.71 2380.49 L3643.38 2377.79 L3644.06 2379.28 L3644.73 2380.63 L3645.54 2379.82 L3646.22 2369.96 L3646.89 2371.04 L3647.57 2371.99 L3648.38 2362.94 L3649.05 2364.83 L3649.73 2366.32 L3650.40 2369.69 L3651.21 2372.39 L3651.89 2374.15 L3652.56 2373.34 L3653.24 2372.80 L3653.91 2364.83 L3654.72 2368.34 L3655.40 2371.04 L3656.07 2373.07 L3656.75 2375.36 L3657.56 2341.07 L3658.23 2344.99 L3658.91 2331.08 L3659.58 2328.79 L3660.39 2327.84 L3661.07 2336.89 L3661.74 2338.91 L3662.42 2345.39 L3663.23 2349.04 L3663.90 2354.98 L3664.58 2360.11 L3665.25 2364.29 L3666.06 2366.86 L3666.74 2370.10 L3667.41 2372.93 L3668.09 2374.28 L3668.90 2376.17 L3669.57 2374.69 L3670.25 2376.85 L3670.92 2372.26 L3671.73 2342.83 L3672.41 2347.42 L3673.08 2327.57 L3673.76 2333.92 L3674.57 2331.62 L3675.24 2328.38 L3675.92 2321.23 L3676.59 2329.87 L3677.27 2329.60 L3678.08 2336.62 L3678.75 2338.78 L3679.43 2346.34 L3680.10 2350.52 L3680.91 2356.06 L3681.59 2360.65 L3682.26 2352.68 L3682.94 2357.95 L3683.75 2360.65 L3684.42 2361.86 L3685.10 2363.62 L3685.77 2366.32 L3686.58 2356.33 L3687.26 2361.19 L3687.93 2364.70 L3688.61 2367.80 L3689.42 2364.16 L3690.09 2356.19 L3690.77 2361.19 L3691.44 2365.10 L3692.25 2367.80 L3692.93 2367.53 L3693.60 2370.77 L3694.28 2372.80 L3695.09 2374.42 L3695.76 2370.10 L3696.44 2372.12 L3697.11 2373.47 L3697.79 2372.93 L3698.60 2371.04 L3699.27 2369.42 L3699.95 2366.45 L3700.62 2369.56 L3701.43 2372.53 L3702.11 2374.82 L3702.78 2374.42 L3703.46 2373.88 L3704.27 2375.77 L3704.94 2375.09 L3705.62 2377.12 L3706.29 2375.90 L3707.10 2374.55 L3707.78 2370.91 L3708.45 2369.15 L3709.13 2344.18 L3709.94 2344.99 L3710.61 2340.94 L3711.29 2347.96 L3711.96 2349.31 L3712.77 2354.57 L3713.45 2355.11 L3714.12 2360.24 L3714.80 2360.24 L3715.61 2364.43 L3716.28 2368.07 L3716.96 2371.04 L3717.63 2373.74 L3718.44 2376.04 L3719.12 2377.93 L3719.79 2378.74 L3720.47 2376.98 L3721.14 2378.74 L3721.95 2380.36 L3722.63 2381.30 L3723.30 2381.71 L3723.98 2382.65 L3724.79 2383.46 L3725.46 2384.00 L3726.14 2382.79 L3726.81 2383.60 L3727.62 2374.15 L3728.30 2367.94 L3728.97 2369.83 L3729.65 2372.66 L3730.46 2373.74 L3731.13 2375.50 L3731.81 2377.25 L3732.48 2379.01 L3733.29 2380.49 L3733.97 2380.49 L3734.64 2378.87 L3735.32 2380.22 L3736.13 2381.17 L3736.80 2378.33 L3737.48 2374.28 L3738.15 2375.77 L3738.96 2377.12 L3739.64 2378.87 L3740.31 2379.68 L3740.99 2377.66 L3741.66 2364.16 L3742.47 2358.22 L3743.15 2359.30 L3743.82 2363.48 L3744.50 2362.40 L3745.31 2366.05 L3745.98 2368.21 L3746.66 2371.31 L3747.33 2373.20 L3748.14 2374.01 L3748.82 2375.90 L3749.49 2374.69 L3750.17 2375.63 L3750.98 2376.17 L3751.65 2377.93 L3752.33 2379.55 L3753.00 2380.90 L3753.81 2381.84 L3754.49 2382.52 L3755.16 2383.46 L3755.84 2384.00 L3756.65 2381.98 L3757.32 2375.77 L3758.00 2377.79 L3758.67 2376.58 L3759.48 2374.69 L3760.16 2376.71 L3760.83 2378.33 L3761.51 2377.93 L3762.32 2376.04 L3762.99 2376.98 L3763.67 2378.74 L3764.34 2380.22 L3765.02 2381.17 L3765.83 2382.38 L3766.50 2382.65 L3767.18 2383.33 L3767.85 2382.79 L3768.66 2379.82 L3769.34 2381.03 L3770.01 2379.95 L3770.69 2378.33 L3771.50 2379.68 L3772.17 2376.04 L3772.85 2359.57 L3773.52 2363.62 L3774.33 2364.02 L3775.01 2360.65 L3775.68 2364.83 L3776.36 2367.80 L3777.17 2345.93 L3777.84 2352.28 L3778.52 2348.23 L3779.19 2349.31 L3780.00 2344.72 L3780.68 2347.15 L3781.35 2352.95 L3782.03 2355.11 L3782.84 2359.70 L3783.51 2361.05 L3784.19 2364.29 L3784.86 2367.80 L3785.54 2358.22 L3786.35 2359.57 L3787.02 2363.62 L3787.70 2364.56 L3788.37 2367.67 L3789.18 2370.37 L3789.86 2373.07 L3790.53 2374.28 L3791.21 2376.44 L3792.02 2376.98 L3792.69 2374.69 L3793.37 2376.58 L3794.04 2378.33 L3794.85 2379.14 L3795.53 2378.74 L3796.20 2379.14 L3796.88 2379.95 L3797.69 2381.17 L3798.36 2381.57 L3799.04 2379.01 L3799.71 2380.49 L3800.52 2379.14 L3801.20 2380.63 L3801.87 2381.03 L3802.55 2381.84 L3803.36 2382.25 L3804.03 2382.92 L3804.71 2383.33 L3805.38 2384.14 L3806.19 2384.54 L3806.87 2356.06 L3807.54 2354.03 L3808.22 2339.05 L3808.89 2337.16 L3809.70 2337.43 L3810.38 2341.34 L3811.05 2343.23 L3811.73 2327.98 L3812.54 2336.62 L3813.21 2341.61 L3813.89 2345.12 L3814.56 2347.42 L3815.37 2349.58 L3816.05 2343.23 L3816.72 2346.07 L3817.40 2345.93 L3818.21 2343.23 L3818.88 2336.21 L3819.56 2338.91 L3820.23 2344.18 L3821.04 2341.48 L3821.72 2348.63 L3822.39 2354.57 L3823.07 2359.30 L3823.88 2363.21 L3824.55 2365.10 L3825.23 2368.61 L3825.90 2351.06 L3826.71 2356.33 L3827.39 2359.97 L3828.06 2363.89 L3828.74 2364.02 L3829.41 2367.53 L3830.22 2359.16 L3830.90 2363.62 L3831.57 2347.42 L3832.25 2346.07 L3833.06 2343.37 L3833.73 2326.22 L3834.41 2335.54 L3835.08 2332.97 L3835.89 2340.40 L3836.57 2344.58 L3837.24 2326.09 L3837.92 2318.53 L3838.73 2326.63 L3839.40 2332.30 L3840.08 2307.46 L3840.75 2319.34 L3841.56 2328.52 L3842.24 2335.00 L3842.91 2333.51 L3843.59 2323.52 L3844.40 2309.48 L3845.07 2319.07 L3845.75 2319.61 L3846.42 2330.00 L3847.23 2311.78 L3847.91 2317.99 L3848.58 2320.42 L3849.26 2307.05 L3850.07 2312.18 L3850.74 2300.98 L3851.42 2313.80 L3852.09 2309.21 L3852.77 2307.73 L3853.58 2317.99 L3854.25 2323.66 L3854.93 2278.43 L3855.60 2288.83 L3856.41 2277.35 L3857.09 2292.74 L3857.76 2294.90 L3858.44 2303.68 L3859.25 2298.41 L3859.92 2287.61 L3860.60 2295.31 L3861.27 2302.60 L3862.08 2315.56 L3862.76 2320.69 L3863.43 2322.44 L3864.11 2323.52 L3864.92 2332.16 L3865.59 2337.97 L3866.27 2338.24 L3866.94 2344.04 L3867.75 2336.08 L3868.43 2343.77 L3869.10 2347.69 L3869.78 2345.53 L3870.59 2345.26 L3871.26 2351.33 L3871.94 2356.33 L3872.61 2344.31 L3873.29 2349.31 L3874.10 2350.25 L3874.77 2347.01 L3875.45 2353.22 L3876.12 2347.69 L3876.93 2353.76 L3877.61 2345.39 L3878.28 2304.35 L3878.96 2316.77 L3879.77 2279.92 L3880.44 2296.12 L3881.12 2283.70 L3881.79 2225.24 L3882.60 2249.54 L3883.28 2270.06 L3883.95 2246.84 L3884.63 2202.02 L3885.44 2224.43 L3886.11 2181.90 L3886.79 2212.82 L3887.46 2218.35 L3888.27 2242.93 L3888.95 2243.60 L3889.62 2264.12 L3890.30 2267.63 L3891.11 2192.70 L3891.78 2215.92 L3892.46 2241.44 L3893.13 2250.89 L3893.94 2266.69 L3894.62 2282.75 L3895.29 2281.67 L3895.97 2268.31 L3896.64 2284.24 L3897.45 2295.44 L3898.13 2295.31 L3898.80 2294.23 L3899.48 2308.40 L3900.29 2317.04 L3900.96 2320.82 L3901.64 2294.90 L3902.31 2253.19 L3903.12 2173.26 L3903.80 2201.61 L3904.47 2223.21 L3905.15 2183.12 L3905.96 2213.63 L3906.63 2216.46 L3907.31 2241.85 L3907.98 2261.42 L3908.79 2238.87 L3909.47 2260.75 L3910.14 2253.73 L3910.82 2273.17 L3911.63 2283.97 L3912.30 2296.39 L3912.98 2310.29 L3913.65 2321.90 L3914.46 2322.98 L3915.14 2332.70 L3915.81 2331.76 L3916.49 2333.24 L3917.16 2339.05 L3917.97 2345.12 L3918.65 2336.75 L3919.32 2340.13 L3920.00 2313.94 L3920.81 2323.39 L3921.48 2328.65 L3922.16 2332.43 L3922.83 2340.80 L3923.64 2339.32 L3924.32 2315.56 L3924.99 2318.80 L3925.67 2318.12 L3926.48 2328.38 L3927.15 2335.00 L3927.83 2332.30 L3928.50 2340.67 L3929.31 2347.69 L3929.99 2353.76 L3930.66 2357.68 L3931.34 2339.86 L3932.15 2347.28 L3932.82 2337.56 L3933.50 2344.18 L3934.17 2350.52 L3934.98 2353.36 L3935.66 2358.35 L3936.33 2353.49 L3937.01 2332.97 L3937.82 2340.26 L3938.49 2347.28 L3939.17 2344.58 L3939.84 2290.72 L3940.52 2300.57 L3941.33 2305.30 L3942.00 2312.59 L3942.68 2323.93 L3943.35 2325.68 L3944.16 2333.11 L3944.84 2327.84 L3945.51 2335.00 L3946.19 2332.43 L3947.00 2335.27 L3947.67 2238.20 L3948.35 2260.88 L3949.02 2270.87 L3949.83 2284.10 L3950.51 2298.82 L3951.18 2304.08 L3951.86 2295.85 L3952.67 2303.14 L3953.34 2293.96 L3954.02 2298.41 L3954.69 2310.29 L3955.50 2306.92 L3956.18 2291.12 L3956.85 2287.88 L3957.53 2278.43 L3958.34 2249.68 L3959.01 2270.20 L3959.69 2280.59 L3960.36 2245.49 L3961.04 2260.61 L3961.85 2274.65 L3962.52 2290.04 L3963.20 2278.03 L3963.87 2262.77 L3964.68 2255.08 L3965.36 2269.12 L3966.03 2283.70 L3966.71 2294.23 L3967.52 2284.91 L3968.19 2293.55 L3968.87 2295.04 L3969.54 2305.97 L3970.35 2315.56 L3971.03 2299.09 L3971.70 2309.89 L3972.38 2320.28 L3973.19 2293.15 L3973.86 2298.41 L3974.54 2305.30 L3975.21 2313.53 L3976.02 2323.66 L3976.70 2308.54 L3977.37 2179.74 L3978.05 2204.45 L3978.86 2228.34 L3979.53 2249.27 L3980.21 2266.82 L3980.88 2284.24 L3981.69 2298.95 L3982.37 2311.51 L3983.04 2314.34 L3983.72 2323.52 L3984.39 2333.38 L3985.20 2328.11 L3985.88 2336.75 L3986.55 2298.55 L3987.23 2312.05 L3988.04 2323.39 L3988.71 2315.56 L3989.39 2313.13 L3990.06 2323.93 L3990.87 2331.35 L3991.55 2336.89 L3992.22 2335.67 L3992.90 2340.94 L3993.71 2346.07 L3994.38 2316.23 L3995.06 2317.58 L3995.73 2321.77 L3996.54 2331.76 L3997.22 2331.08 L3997.89 2327.84 L3998.57 2336.35 L3999.38 2342.83 L4000.05 2339.86 L4000.73 2335.13 L4001.40 2342.69 L4002.21 2348.09 L4002.89 2352.41 L4003.56 2349.58 L4004.24 2332.84 L4004.91 2341.21 L4005.72 2346.47 L4006.40 2344.99 L4007.07 2350.93 L4007.75 2356.06 L4008.56 2360.65 L4009.23 2350.52 L4009.91 2351.87 L4010.58 2341.75 L4011.39 2341.07 L4012.07 2348.23 L4012.74 2354.30 L4013.42 2353.90 L4014.23 2358.76 L4014.90 2353.90 L4015.58 2349.71 L4016.25 2349.58 L4017.06 2343.37 L4017.74 2345.26 L4018.41 2349.44 L4019.09 2347.69 L4019.90 2348.09 L4020.57 2349.17 L4021.25 2354.98 L4021.92 2353.76 L4022.73 2359.03 L4023.41 2363.21 L4024.08 2356.73 L4024.76 2360.65 L4025.57 2341.34 L4026.24 2347.82 L4026.92 2353.22 L4027.59 2351.87 L4028.27 2357.27 L4029.08 2361.19 L4029.75 2363.48 L4030.43 2365.24 L4031.10 2356.46 L4031.91 2361.32 L4032.59 2351.74 L4033.26 2357.27 L4033.94 2341.48 L4034.75 2333.65 L4035.42 2341.07 L4036.10 2336.35 L4036.77 2340.80 L4037.58 2334.86 L4038.26 2335.81 L4038.93 2340.80 L4039.61 2340.67 L4040.42 2333.24 L4041.09 2341.61 L4041.77 2347.55 L4042.44 2353.63 L4043.25 2358.62 L4043.93 2354.44 L4044.60 2357.95 L4045.28 2352.41 L4046.09 2357.00 L4046.76 2359.84 L4047.44 2363.62 L4048.11 2366.99 L4048.79 2370.23 L4049.60 2373.07 L4050.27 2374.28 L4050.95 2368.48 L4051.62 2371.31 L4052.43 2373.61 L4053.11 2375.90 L4053.78 2377.79 L4054.46 2377.25 L4055.27 2379.01 L4055.94 2380.49 L4056.62 2367.53 L4057.29 2369.15 L4058.10 2354.57 L4058.78 2355.92 L4059.45 2360.78 L4060.13 2357.14 L4060.94 2358.35 L4061.61 2359.03 L4062.29 2348.23 L4062.96 2354.30 L4063.77 2358.08 L4064.45 2362.13 L4065.12 2365.91 L4065.80 2369.02 L4066.61 2371.72 L4067.28 2371.72 L4067.96 2368.07 L4068.63 2366.72 L4069.44 2369.96 L4070.12 2372.80 L4070.79 2368.07 L4071.47 2367.13 L4072.14 2367.40 L4072.95 2362.40 L4073.63 2366.32 L4074.30 2367.26 L4074.98 2366.32 L4075.79 2358.89 L4076.46 2363.35 L4077.14 2366.99 L4077.81 2369.42 L4078.62 2370.77 L4079.30 2373.34 L4079.97 2371.45 L4080.65 2371.31 L4081.46 2373.88 L4082.13 2368.34 L4082.81 2370.91 L4083.48 2372.39 L4084.29 2373.20 L4084.97 2374.96 L4085.64 2373.88 L4086.32 2374.69 L4087.13 2370.91 L4087.80 2373.61 L4088.48 2374.96 L4089.15 2369.15 L4089.96 2371.99 L4090.64 2374.42 L4091.31 2372.93 L4091.99 2374.69 L4092.66 2376.71 L4093.47 2376.31 L4094.15 2375.23 L4094.82 2373.20 L4095.50 2375.63 L4096.31 2376.85 L4096.98 2375.90 L4097.66 2377.39 L4098.33 2376.85 L4099.14 2378.60 L4099.81 2379.41 L4100.49 2380.36 L4101.17 2381.57 L4101.98 2380.49 L4102.65 2377.25 L4103.33 2378.87 L4104.00 2379.95 L4104.81 2370.64 L4105.48 2372.66 L4106.16 2373.20 L4106.84 2372.12 L4107.65 2373.61 L4108.32 2372.80 L4109.00 2375.09 L4109.67 2377.12 L4110.48 2377.52 L4111.16 2371.72 L4111.83 2369.96 L4112.51 2368.34 L4113.31 2371.31 L4113.99 2372.26 L4114.67 2374.15 L4115.34 2371.31 L4116.02 2363.62 L4116.83 2366.05 L4117.50 2367.94 L4118.18 2360.78 L4118.85 2364.29 L4119.66 2367.80 L4120.34 2370.91 L4121.01 2372.53 L4121.69 2371.58 L4122.50 2373.20 L4123.17 2375.63 L4123.85 2375.63 L4124.52 2375.50 L4125.33 2377.52 L4126.01 2376.31 L4126.68 2370.10 L4127.35 2372.93 L4128.17 2374.82 L4128.84 2371.04 L4129.52 2356.46 L4130.19 2360.11 L4131.00 2364.16 L4131.68 2354.17 L4132.35 2359.16 L4133.02 2362.67 L4133.84 2365.91 L4134.51 2369.15 L4135.19 2359.70 L4135.86 2362.40 L4136.54 2366.05 L4137.35 2364.02 L4138.02 2366.18 L4138.70 2368.61 L4139.37 2371.04 L4140.18 2371.18 L4140.85 2371.58 L4141.53 2369.83 L4142.21 2372.66 L4143.02 2364.02 L4143.69 2361.86 L4144.37 2354.84 L4145.04 2359.03 L4145.85 2362.00 L4146.52 2352.95 L4147.20 2347.55" stroke-linejoin="round" style="fill:none;stroke:#0080FF;stroke-width:8.64"/>
	<line x1="554.17" y1="2459.20" x2="554.17" y2="275.40" style="stroke:#000000;stroke-width:5.76"/>
	<line x1="554.17" y1="2395.88" x2="514.08" y2="2395.88" style="stroke:#000000;stroke-width:5.76"/>
	<text x="494.10" y="2430.93" style="font-family:'Helvetica';font-size:100.04px;fill:#000000" text-anchor="end">0</text>
	<line x1="554.17" y1="1984.40" x2="514.08" y2="1984.40" style="stroke:#000000;stroke-width:5.76"/>
	<text x="494.10" y="2019.44" style="font-family:'Helvetica';font-size:100.04px;fill:#000000" text-anchor="end">.001</text>
	<line x1="554.17" y1="1573.04" x2="514.08" y2="1573.04" style="stroke:#000000;stroke-width:5.76"/>
	<text x="494.10" y="1608.09" style="font-family:'Helvetica';font-size:100.04px;fill:#000000" text-anchor="end">.002</text>
	<line x1="554.17" y1="1161.56" x2="514.08" y2="1161.56" style="stroke:#000000;stroke-width:5.76"/>
	<text x="494.10" y="1196.60" style="font-family:'Helvetica';font-size:100.04px;fill:#000000" text-anchor="end">.003</text>
	<line x1="554.17" y1="750.21" x2="514.08" y2="750.21" style="stroke:#000000;stroke-width:5.76"/>
	<text x="494.10" y="785.25" style="font-family:'Helvetica';font-size:100.04px;fill:#000000" text-anchor="end">.004</text>
	<line x1="554.17" y1="338.72" x2="514.08" y2="338.72" style="stroke:#000000;stroke-width:5.76"/>
	<text x="494.10" y="373.77" style="font-family:'Helvetica';font-size:100.04px;fill:#000000" text-anchor="end">.005</text>
	<text x="190.78" y="1367.30" style="font-family:'Helvetica';font-size:100.04px;fill:#000000" transform="rotate(-90 190.78,1367.30)" text-anchor="middle">Varianza condicional a un periodo</text>
	<line x1="554.17" y1="2459.20" x2="4219.16" y2="2459.20" style="stroke:#000000;stroke-width:5.76"/>
	<line x1="617.49" y1="2459.20" x2="617.49" y2="2499.16" style="stroke:#000000;stroke-width:5.76"/>
	<text x="617.49" y="2589.10" style="font-family:'Helvetica';font-size:100.04px;fill:#000000" text-anchor="middle">05jan2004</text>
	<line x1="1325.16" y1="2459.20" x2="1325.16" y2="2499.16" style="stroke:#000000;stroke-width:5.76"/>
	<text x="1325.16" y="2589.10" style="font-family:'Helvetica';font-size:100.04px;fill:#000000" text-anchor="middle">24dec2007</text>
	<line x1="2032.83" y1="2459.20" x2="2032.83" y2="2499.16" style="stroke:#000000;stroke-width:5.76"/>
	<text x="2032.83" y="2589.10" style="font-family:'Helvetica';font-size:100.04px;fill:#000000" text-anchor="middle">12dec2011</text>
	<line x1="2740.50" y1="2459.20" x2="2740.50" y2="2499.16" style="stroke:#000000;stroke-width:5.76"/>
	<text x="2740.50" y="2589.10" style="font-family:'Helvetica';font-size:100.04px;fill:#000000" text-anchor="middle">03dec2015</text>
	<line x1="3448.17" y1="2459.20" x2="3448.17" y2="2499.16" style="stroke:#000000;stroke-width:5.76"/>
	<text x="3448.17" y="2589.10" style="font-family:'Helvetica';font-size:100.04px;fill:#000000" text-anchor="middle">22nov2019</text>
	<line x1="4155.84" y1="2459.20" x2="4155.84" y2="2499.16" style="stroke:#000000;stroke-width:5.76"/>
	<text x="4155.84" y="2589.10" style="font-family:'Helvetica';font-size:100.04px;fill:#000000" text-anchor="middle">5000</text>
	<text x="2386.67" y="2729.09" style="font-family:'Helvetica';font-size:100.04px;fill:#000000" text-anchor="middle">Fecha</text>
	<text x="2386.67" y="216.06" style="font-family:'Helvetica';font-size:140.00px;fill:#000000" text-anchor="middle">Varianza S&amp;P500</text>
</svg>
