<?xml version="1.0" encoding="UTF-8" standalone="no"?>
<!-- This is a Stata 18.0 generated SVG file (http://www.stata.com) -->

<svg version="1.1" width="7.500in" height="4.500in" viewBox="0 0 5400 3240" xmlns="http://www.w3.org/2000/svg" xmlns:xlink="http://www.w3.org/1999/xlink">
	<desc>Stata Graph - Graph</desc>
	<rect x="0" y="0" width="5400" height="3240" style="fill:#FFFFFF;stroke:none"/>
	<rect x="0.00" y="0.00" width="5400.00" height="3240.00" style="fill:#FFFFFF"/>
	<rect x="3.24" y="3.24" width="5393.52" height="3233.52" style="fill:none;stroke:#FFFFFF;stroke-width:6.48"/>
	<rect x="71.21" y="71.21" width="2628.79" height="3097.58" style="fill:#FFFFFF"/>
	<rect x="73.64" y="73.64" width="2623.93" height="3092.71" style="fill:none;stroke:#FFFFFF;stroke-width:4.86"/>
	<rect x="568.35" y="303.58" width="2046.60" height="2510.16" style="fill:#FFFFFF"/>
	<rect x="570.78" y="306.01" width="2041.74" height="2505.30" style="fill:none;stroke:#000000;stroke-width:4.86"/>
	<line x1="568.35" y1="1998.17" x2="633.15" y2="1998.17" style="stroke:#F0F0F0;stroke-width:7.29"/>
	<line x1="665.55" y1="1998.17" x2="730.35" y2="1998.17" style="stroke:#F0F0F0;stroke-width:7.29"/>
	<line x1="762.75" y1="1998.17" x2="827.55" y2="1998.17" style="stroke:#F0F0F0;stroke-width:7.29"/>
	<line x1="859.95" y1="1998.17" x2="924.75" y2="1998.17" style="stroke:#F0F0F0;stroke-width:7.29"/>
	<line x1="957.15" y1="1998.17" x2="1021.95" y2="1998.17" style="stroke:#F0F0F0;stroke-width:7.29"/>
	<line x1="1054.35" y1="1998.17" x2="1119.15" y2="1998.17" style="stroke:#F0F0F0;stroke-width:7.29"/>
	<line x1="1151.55" y1="1998.17" x2="1216.35" y2="1998.17" style="stroke:#F0F0F0;stroke-width:7.29"/>
	<line x1="1248.75" y1="1998.17" x2="1313.55" y2="1998.17" style="stroke:#F0F0F0;stroke-width:7.29"/>
	<line x1="1345.95" y1="1998.17" x2="1410.75" y2="1998.17" style="stroke:#F0F0F0;stroke-width:7.29"/>
	<line x1="1443.15" y1="1998.17" x2="1507.95" y2="1998.17" style="stroke:#F0F0F0;stroke-width:7.29"/>
	<line x1="1540.35" y1="1998.17" x2="1605.15" y2="1998.17" style="stroke:#F0F0F0;stroke-width:7.29"/>
	<line x1="1637.55" y1="1998.17" x2="1702.35" y2="1998.17" style="stroke:#F0F0F0;stroke-width:7.29"/>
	<line x1="1734.75" y1="1998.17" x2="1799.55" y2="1998.17" style="stroke:#F0F0F0;stroke-width:7.29"/>
	<line x1="1831.95" y1="1998.17" x2="1896.75" y2="1998.17" style="stroke:#F0F0F0;stroke-width:7.29"/>
	<line x1="1929.15" y1="1998.17" x2="1993.95" y2="1998.17" style="stroke:#F0F0F0;stroke-width:7.29"/>
	<line x1="2026.35" y1="1998.17" x2="2091.15" y2="1998.17" style="stroke:#F0F0F0;stroke-width:7.29"/>
	<line x1="2123.55" y1="1998.17" x2="2188.35" y2="1998.17" style="stroke:#F0F0F0;stroke-width:7.29"/>
	<line x1="2220.75" y1="1998.17" x2="2285.55" y2="1998.17" style="stroke:#F0F0F0;stroke-width:7.29"/>
	<line x1="2317.95" y1="1998.17" x2="2382.75" y2="1998.17" style="stroke:#F0F0F0;stroke-width:7.29"/>
	<line x1="2415.15" y1="1998.17" x2="2479.95" y2="1998.17" style="stroke:#F0F0F0;stroke-width:7.29"/>
	<line x1="2512.35" y1="1998.17" x2="2577.15" y2="1998.17" style="stroke:#F0F0F0;stroke-width:7.29"/>
	<line x1="2609.55" y1="1998.17" x2="2614.95" y2="1998.17" style="stroke:#F0F0F0;stroke-width:7.29"/>
	<defs>
		<path id="path_AQXqzRiJ" d="M718.88 2757.21 L718.88 2757.21 L815.74 2757.21 L912.77 2757.71 L1009.80 2757.71 L1106.66 2757.88 L1203.69 2758.05 L1300.72 2758.05 L1397.76 2758.22 L1494.62 2758.22 L1591.65 2758.22 L1688.68 2759.74 L1785.54 2759.74 L1882.58 2759.74 L1979.61 2759.74 L2076.64 2759.74 L2173.50 2760.08 L2270.53 2760.08 L2367.56 2760.08 L2464.43 2760.24 L2561.46 2760.24 L2561.46 1236.09 L2464.43 1236.09 L2367.56 1236.26 L2270.53 1236.26 L2173.50 1236.26 L2076.64 1236.43 L1979.61 1236.43 L1882.58 1236.43 L1785.54 1236.43 L1688.68 1236.60 L1591.65 1238.12 L1494.62 1238.12 L1397.76 1238.12 L1300.72 1238.12 L1203.69 1238.12 L1106.66 1238.29 L1009.80 1238.63 L912.77 1238.63 L815.74 1238.96 L718.88 1239.13 L718.88 2757.21 Z" stroke-linejoin="round"/>
	</defs>
	<defs>
		<clipPath id="clipPath_TDAVXqYb">
			<use xlink:href="#path_AQXqzRiJ"/>
		</clipPath>
	</defs>
	<use xlink:href="#path_AQXqzRiJ" style="stroke:none;fill:#E0E0E0"/>
	<use xlink:href="#path_AQXqzRiJ" style="fill:none;stroke:#E0E0E0;stroke-width:14.58" clip-path="url(#clipPath_TDAVXqYb)"/>
	<line x1="718.88" y1="1998.17" x2="718.88" y2="2320.65" style="stroke:#FF0000;stroke-width:7.29"/>
	<line x1="815.74" y1="1998.17" x2="815.74" y2="1377.34" style="stroke:#FF0000;stroke-width:7.29"/>
	<line x1="912.77" y1="1998.17" x2="912.77" y2="2013.02" style="stroke:#FF0000;stroke-width:7.29"/>
	<line x1="1009.80" y1="1998.17" x2="1009.80" y2="1455.81" style="stroke:#FF0000;stroke-width:7.29"/>
	<line x1="1106.66" y1="1998.17" x2="1106.66" y2="2320.65" style="stroke:#FF0000;stroke-width:7.29"/>
	<line x1="1203.69" y1="1998.17" x2="1203.69" y2="2021.29" style="stroke:#FF0000;stroke-width:7.29"/>
	<line x1="1300.72" y1="1998.17" x2="1300.72" y2="2297.03" style="stroke:#FF0000;stroke-width:7.29"/>
	<line x1="1397.76" y1="1998.17" x2="1397.76" y2="1834.99" style="stroke:#FF0000;stroke-width:7.29"/>
	<line x1="1494.62" y1="1998.17" x2="1494.62" y2="2067.86" style="stroke:#FF0000;stroke-width:7.29"/>
	<line x1="1591.65" y1="1998.17" x2="1591.65" y2="770.68" style="stroke:#FF0000;stroke-width:7.29"/>
	<line x1="1688.68" y1="1998.17" x2="1688.68" y2="2192.40" style="stroke:#FF0000;stroke-width:7.29"/>
	<line x1="1785.54" y1="1998.17" x2="1785.54" y2="2139.07" style="stroke:#FF0000;stroke-width:7.29"/>
	<line x1="1882.58" y1="1998.17" x2="1882.58" y2="2139.41" style="stroke:#FF0000;stroke-width:7.29"/>
	<line x1="1979.61" y1="1998.17" x2="1979.61" y2="2156.29" style="stroke:#FF0000;stroke-width:7.29"/>
	<line x1="2076.64" y1="1998.17" x2="2076.64" y2="2460.38" style="stroke:#FF0000;stroke-width:7.29"/>
	<line x1="2173.50" y1="1998.17" x2="2173.50" y2="2057.74" style="stroke:#FF0000;stroke-width:7.29"/>
	<line x1="2270.53" y1="1998.17" x2="2270.53" y2="2072.08" style="stroke:#FF0000;stroke-width:7.29"/>
	<line x1="2367.56" y1="1998.17" x2="2367.56" y2="2399.63" style="stroke:#FF0000;stroke-width:7.29"/>
	<line x1="2464.43" y1="1998.17" x2="2464.43" y2="2162.36" style="stroke:#FF0000;stroke-width:7.29"/>
	<line x1="2561.46" y1="1998.17" x2="2561.46" y2="2118.32" style="stroke:#FF0000;stroke-width:7.29"/>
	<circle cx="718.71" cy="2320.82" r="16.30" style="fill:#FF0000"/>
	<circle cx="718.71" cy="2320.82" r="12.66" style="fill:none;stroke:#FF0000;stroke-width:7.29"/>
	<circle cx="815.74" cy="1377.51" r="16.30" style="fill:#FF0000"/>
	<circle cx="815.74" cy="1377.51" r="12.66" style="fill:none;stroke:#FF0000;stroke-width:7.29"/>
	<circle cx="912.60" cy="2013.02" r="16.30" style="fill:#FF0000"/>
	<circle cx="912.60" cy="2013.02" r="12.66" style="fill:none;stroke:#FF0000;stroke-width:7.29"/>
	<circle cx="1009.63" cy="1455.81" r="16.30" style="fill:#FF0000"/>
	<circle cx="1009.63" cy="1455.81" r="12.66" style="fill:none;stroke:#FF0000;stroke-width:7.29"/>
	<circle cx="1106.66" cy="2320.65" r="16.30" style="fill:#FF0000"/>
	<circle cx="1106.66" cy="2320.65" r="12.66" style="fill:none;stroke:#FF0000;stroke-width:7.29"/>
	<circle cx="1203.69" cy="2021.29" r="16.30" style="fill:#FF0000"/>
	<circle cx="1203.69" cy="2021.29" r="12.66" style="fill:none;stroke:#FF0000;stroke-width:7.29"/>
	<circle cx="1300.56" cy="2297.19" r="16.30" style="fill:#FF0000"/>
	<circle cx="1300.56" cy="2297.19" r="12.66" style="fill:none;stroke:#FF0000;stroke-width:7.29"/>
	<circle cx="1397.59" cy="1834.99" r="16.30" style="fill:#FF0000"/>
	<circle cx="1397.59" cy="1834.99" r="12.66" style="fill:none;stroke:#FF0000;stroke-width:7.29"/>
	<circle cx="1494.62" cy="2068.03" r="16.30" style="fill:#FF0000"/>
	<circle cx="1494.62" cy="2068.03" r="12.66" style="fill:none;stroke:#FF0000;stroke-width:7.29"/>
	<circle cx="1591.65" cy="770.85" r="16.30" style="fill:#FF0000"/>
	<circle cx="1591.65" cy="770.85" r="12.66" style="fill:none;stroke:#FF0000;stroke-width:7.29"/>
	<circle cx="1688.51" cy="2192.57" r="16.30" style="fill:#FF0000"/>
	<circle cx="1688.51" cy="2192.57" r="12.66" style="fill:none;stroke:#FF0000;stroke-width:7.29"/>
	<circle cx="1785.54" cy="2139.24" r="16.30" style="fill:#FF0000"/>
	<circle cx="1785.54" cy="2139.24" r="12.66" style="fill:none;stroke:#FF0000;stroke-width:7.29"/>
	<circle cx="1882.58" cy="2139.41" r="16.30" style="fill:#FF0000"/>
	<circle cx="1882.58" cy="2139.41" r="12.66" style="fill:none;stroke:#FF0000;stroke-width:7.29"/>
	<circle cx="1979.44" cy="2156.46" r="16.30" style="fill:#FF0000"/>
	<circle cx="1979.44" cy="2156.46" r="12.66" style="fill:none;stroke:#FF0000;stroke-width:7.29"/>
	<circle cx="2076.47" cy="2460.38" r="16.30" style="fill:#FF0000"/>
	<circle cx="2076.47" cy="2460.38" r="12.66" style="fill:none;stroke:#FF0000;stroke-width:7.29"/>
	<circle cx="2173.50" cy="2057.74" r="16.30" style="fill:#FF0000"/>
	<circle cx="2173.50" cy="2057.74" r="12.66" style="fill:none;stroke:#FF0000;stroke-width:7.29"/>
	<circle cx="2270.53" cy="2072.08" r="16.30" style="fill:#FF0000"/>
	<circle cx="2270.53" cy="2072.08" r="12.66" style="fill:none;stroke:#FF0000;stroke-width:7.29"/>
	<circle cx="2367.39" cy="2399.63" r="16.30" style="fill:#FF0000"/>
	<circle cx="2367.39" cy="2399.63" r="12.66" style="fill:none;stroke:#FF0000;stroke-width:7.29"/>
	<circle cx="2464.43" cy="2162.36" r="16.30" style="fill:#FF0000"/>
	<circle cx="2464.43" cy="2162.36" r="12.66" style="fill:none;stroke:#FF0000;stroke-width:7.29"/>
	<circle cx="2561.46" cy="2118.32" r="16.30" style="fill:#FF0000"/>
	<circle cx="2561.46" cy="2118.32" r="12.66" style="fill:none;stroke:#FF0000;stroke-width:7.29"/>
	<line x1="568.35" y1="2813.74" x2="568.35" y2="303.58" style="stroke:#000000;stroke-width:4.86"/>
	<line x1="568.35" y1="2545.09" x2="534.60" y2="2545.09" style="stroke:#000000;stroke-width:4.86"/>
	<text x="517.73" y="2574.66" style="font-family:'Helvetica';font-size:84.38px;fill:#000000" text-anchor="end">-0.02</text>
	<line x1="568.35" y1="1998.17" x2="534.60" y2="1998.17" style="stroke:#000000;stroke-width:4.86"/>
	<text x="517.73" y="2027.74" style="font-family:'Helvetica';font-size:84.38px;fill:#000000" text-anchor="end">0.00</text>
	<line x1="568.35" y1="1451.08" x2="534.60" y2="1451.08" style="stroke:#000000;stroke-width:4.86"/>
	<text x="517.73" y="1480.65" style="font-family:'Helvetica';font-size:84.38px;fill:#000000" text-anchor="end">0.02</text>
	<line x1="568.35" y1="904.16" x2="534.60" y2="904.16" style="stroke:#000000;stroke-width:4.86"/>
	<text x="517.73" y="933.74" style="font-family:'Helvetica';font-size:84.38px;fill:#000000" text-anchor="end">0.04</text>
	<line x1="568.35" y1="357.07" x2="534.60" y2="357.07" style="stroke:#000000;stroke-width:4.86"/>
	<text x="517.73" y="386.65" style="font-family:'Helvetica';font-size:84.38px;fill:#000000" text-anchor="end">0.06</text>
	<text x="232.12" y="1558.58" style="font-family:'Helvetica';font-size:84.38px;fill:#000000" transform="rotate(-90 232.12,1558.58)" text-anchor="middle">Autocorrelación</text>
	<line x1="568.35" y1="2813.74" x2="2614.95" y2="2813.74" style="stroke:#000000;stroke-width:4.86"/>
	<line x1="621.84" y1="2813.74" x2="621.84" y2="2847.49" style="stroke:#000000;stroke-width:4.86"/>
	<text x="621.84" y="2923.34" style="font-family:'Helvetica';font-size:84.38px;fill:#000000" text-anchor="middle">0</text>
	<line x1="1106.66" y1="2813.74" x2="1106.66" y2="2847.49" style="stroke:#000000;stroke-width:4.86"/>
	<text x="1106.66" y="2923.34" style="font-family:'Helvetica';font-size:84.38px;fill:#000000" text-anchor="middle">5</text>
	<line x1="1591.65" y1="2813.74" x2="1591.65" y2="2847.49" style="stroke:#000000;stroke-width:4.86"/>
	<text x="1591.65" y="2923.34" style="font-family:'Helvetica';font-size:84.38px;fill:#000000" text-anchor="middle">10</text>
	<line x1="2076.64" y1="2813.74" x2="2076.64" y2="2847.49" style="stroke:#000000;stroke-width:4.86"/>
	<text x="2076.64" y="2923.34" style="font-family:'Helvetica';font-size:84.38px;fill:#000000" text-anchor="middle">15</text>
	<line x1="2561.46" y1="2813.74" x2="2561.46" y2="2847.49" style="stroke:#000000;stroke-width:4.86"/>
	<text x="2561.46" y="2923.34" style="font-family:'Helvetica';font-size:84.38px;fill:#000000" text-anchor="middle">20</text>
	<text x="1591.65" y="3041.47" style="font-family:'Helvetica';font-size:84.38px;fill:#000000" text-anchor="middle">Rezago</text>
	<text x="1591.65" y="253.55" style="font-family:'Helvetica';font-size:118.13px;fill:#000000" text-anchor="middle">AC: Residuo al Cuadrado, GARCH</text>
	<rect x="2700.00" y="71.21" width="2628.79" height="3097.58" style="fill:#FFFFFF"/>
	<rect x="2702.43" y="73.64" width="2623.93" height="3092.71" style="fill:none;stroke:#FFFFFF;stroke-width:4.86"/>
	<rect x="3197.14" y="303.58" width="2046.60" height="2510.16" style="fill:#FFFFFF"/>
	<rect x="3199.57" y="306.01" width="2041.74" height="2505.30" style="fill:none;stroke:#000000;stroke-width:4.86"/>
	<line x1="3197.14" y1="1838.53" x2="3261.94" y2="1838.53" style="stroke:#F0F0F0;stroke-width:7.29"/>
	<line x1="3294.34" y1="1838.53" x2="3359.14" y2="1838.53" style="stroke:#F0F0F0;stroke-width:7.29"/>
	<line x1="3391.54" y1="1838.53" x2="3456.34" y2="1838.53" style="stroke:#F0F0F0;stroke-width:7.29"/>
	<line x1="3488.74" y1="1838.53" x2="3553.54" y2="1838.53" style="stroke:#F0F0F0;stroke-width:7.29"/>
	<line x1="3585.94" y1="1838.53" x2="3650.74" y2="1838.53" style="stroke:#F0F0F0;stroke-width:7.29"/>
	<line x1="3683.14" y1="1838.53" x2="3747.94" y2="1838.53" style="stroke:#F0F0F0;stroke-width:7.29"/>
	<line x1="3780.34" y1="1838.53" x2="3845.14" y2="1838.53" style="stroke:#F0F0F0;stroke-width:7.29"/>
	<line x1="3877.54" y1="1838.53" x2="3942.34" y2="1838.53" style="stroke:#F0F0F0;stroke-width:7.29"/>
	<line x1="3974.74" y1="1838.53" x2="4039.54" y2="1838.53" style="stroke:#F0F0F0;stroke-width:7.29"/>
	<line x1="4071.94" y1="1838.53" x2="4136.74" y2="1838.53" style="stroke:#F0F0F0;stroke-width:7.29"/>
	<line x1="4169.14" y1="1838.53" x2="4233.94" y2="1838.53" style="stroke:#F0F0F0;stroke-width:7.29"/>
	<line x1="4266.34" y1="1838.53" x2="4331.14" y2="1838.53" style="stroke:#F0F0F0;stroke-width:7.29"/>
	<line x1="4363.54" y1="1838.53" x2="4428.34" y2="1838.53" style="stroke:#F0F0F0;stroke-width:7.29"/>
	<line x1="4460.74" y1="1838.53" x2="4525.54" y2="1838.53" style="stroke:#F0F0F0;stroke-width:7.29"/>
	<line x1="4557.94" y1="1838.53" x2="4622.74" y2="1838.53" style="stroke:#F0F0F0;stroke-width:7.29"/>
	<line x1="4655.14" y1="1838.53" x2="4719.94" y2="1838.53" style="stroke:#F0F0F0;stroke-width:7.29"/>
	<line x1="4752.34" y1="1838.53" x2="4817.14" y2="1838.53" style="stroke:#F0F0F0;stroke-width:7.29"/>
	<line x1="4849.54" y1="1838.53" x2="4914.34" y2="1838.53" style="stroke:#F0F0F0;stroke-width:7.29"/>
	<line x1="4946.74" y1="1838.53" x2="5011.54" y2="1838.53" style="stroke:#F0F0F0;stroke-width:7.29"/>
	<line x1="5043.94" y1="1838.53" x2="5108.74" y2="1838.53" style="stroke:#F0F0F0;stroke-width:7.29"/>
	<line x1="5141.14" y1="1838.53" x2="5205.94" y2="1838.53" style="stroke:#F0F0F0;stroke-width:7.29"/>
	<line x1="5238.34" y1="1838.53" x2="5243.74" y2="1838.53" style="stroke:#F0F0F0;stroke-width:7.29"/>
	<defs>
		<path id="path_mvggKErb" d="M3347.49 2760.24 L3347.49 2760.24 L3444.53 2760.24 L3541.56 2760.24 L3638.42 2760.24 L3735.45 2760.24 L3832.48 2760.24 L3929.34 2760.24 L4026.38 2760.24 L4123.41 2760.24 L4220.44 2760.24 L4317.30 2760.24 L4414.33 2760.24 L4511.36 2760.24 L4608.23 2760.24 L4705.26 2760.24 L4802.29 2760.24 L4899.32 2760.24 L4996.18 2760.24 L5093.21 2760.24 L5190.24 2760.24 L5190.24 916.82 L5093.21 916.82 L4996.18 916.82 L4899.32 916.82 L4802.29 916.82 L4705.26 916.82 L4608.23 916.82 L4511.36 916.82 L4414.33 916.82 L4317.30 916.82 L4220.44 916.82 L4123.41 916.82 L4026.38 916.82 L3929.34 916.82 L3832.48 916.82 L3735.45 916.82 L3638.42 916.82 L3541.56 916.82 L3444.53 916.82 L3347.49 916.82 L3347.49 2760.24 Z" stroke-linejoin="round"/>
	</defs>
	<defs>
		<clipPath id="clipPath_mhsDHEmd">
			<use xlink:href="#path_mvggKErb"/>
		</clipPath>
	</defs>
	<use xlink:href="#path_mvggKErb" style="stroke:none;fill:#E0E0E0"/>
	<use xlink:href="#path_mvggKErb" style="fill:none;stroke:#E0E0E0;stroke-width:14.58" clip-path="url(#clipPath_mhsDHEmd)"/>
	<line x1="3347.49" y1="1838.53" x2="3347.49" y2="2230.20" style="stroke:#FF0000;stroke-width:7.29"/>
	<line x1="3444.53" y1="1838.53" x2="3444.53" y2="1089.11" style="stroke:#FF0000;stroke-width:7.29"/>
	<line x1="3541.56" y1="1838.53" x2="3541.56" y2="1838.87" style="stroke:#FF0000;stroke-width:7.29"/>
	<line x1="3638.42" y1="1838.53" x2="3638.42" y2="1196.44" style="stroke:#FF0000;stroke-width:7.29"/>
	<line x1="3735.45" y1="1838.53" x2="3735.45" y2="2215.01" style="stroke:#FF0000;stroke-width:7.29"/>
	<line x1="3832.48" y1="1838.53" x2="3832.48" y2="1904.51" style="stroke:#FF0000;stroke-width:7.29"/>
	<line x1="3929.34" y1="1838.53" x2="3929.34" y2="2185.65" style="stroke:#FF0000;stroke-width:7.29"/>
	<line x1="4026.38" y1="1838.53" x2="4026.38" y2="1658.48" style="stroke:#FF0000;stroke-width:7.29"/>
	<line x1="4123.41" y1="1838.53" x2="4123.41" y2="1888.14" style="stroke:#FF0000;stroke-width:7.29"/>
	<line x1="4220.44" y1="1838.53" x2="4220.44" y2="357.07" style="stroke:#FF0000;stroke-width:7.29"/>
	<line x1="4317.30" y1="1838.53" x2="4317.30" y2="2026.18" style="stroke:#FF0000;stroke-width:7.29"/>
	<line x1="4414.33" y1="1838.53" x2="4414.33" y2="2096.04" style="stroke:#FF0000;stroke-width:7.29"/>
	<line x1="4511.36" y1="1838.53" x2="4511.36" y2="2002.39" style="stroke:#FF0000;stroke-width:7.29"/>
	<line x1="4608.23" y1="1838.53" x2="4608.23" y2="2087.61" style="stroke:#FF0000;stroke-width:7.29"/>
	<line x1="4705.26" y1="1838.53" x2="4705.26" y2="2354.06" style="stroke:#FF0000;stroke-width:7.29"/>
	<line x1="4802.29" y1="1838.53" x2="4802.29" y2="1906.03" style="stroke:#FF0000;stroke-width:7.29"/>
	<line x1="4899.32" y1="1838.53" x2="4899.32" y2="1873.46" style="stroke:#FF0000;stroke-width:7.29"/>
	<line x1="4996.18" y1="1838.53" x2="4996.18" y2="2341.41" style="stroke:#FF0000;stroke-width:7.29"/>
	<line x1="5093.21" y1="1838.53" x2="5093.21" y2="2028.88" style="stroke:#FF0000;stroke-width:7.29"/>
	<line x1="5190.24" y1="1838.53" x2="5190.24" y2="2046.43" style="stroke:#FF0000;stroke-width:7.29"/>
	<circle cx="3347.49" cy="2230.20" r="16.30" style="fill:#FF0000"/>
	<circle cx="3347.49" cy="2230.20" r="12.66" style="fill:none;stroke:#FF0000;stroke-width:7.29"/>
	<circle cx="3444.36" cy="1089.28" r="16.30" style="fill:#FF0000"/>
	<circle cx="3444.36" cy="1089.28" r="12.66" style="fill:none;stroke:#FF0000;stroke-width:7.29"/>
	<circle cx="3541.39" cy="1839.04" r="16.30" style="fill:#FF0000"/>
	<circle cx="3541.39" cy="1839.04" r="12.66" style="fill:none;stroke:#FF0000;stroke-width:7.29"/>
	<circle cx="3638.42" cy="1196.61" r="16.30" style="fill:#FF0000"/>
	<circle cx="3638.42" cy="1196.61" r="12.66" style="fill:none;stroke:#FF0000;stroke-width:7.29"/>
	<circle cx="3735.45" cy="2215.18" r="16.30" style="fill:#FF0000"/>
	<circle cx="3735.45" cy="2215.18" r="12.66" style="fill:none;stroke:#FF0000;stroke-width:7.29"/>
	<circle cx="3832.31" cy="1904.68" r="16.30" style="fill:#FF0000"/>
	<circle cx="3832.31" cy="1904.68" r="12.66" style="fill:none;stroke:#FF0000;stroke-width:7.29"/>
	<circle cx="3929.34" cy="2185.65" r="16.30" style="fill:#FF0000"/>
	<circle cx="3929.34" cy="2185.65" r="12.66" style="fill:none;stroke:#FF0000;stroke-width:7.29"/>
	<circle cx="4026.38" cy="1658.48" r="16.30" style="fill:#FF0000"/>
	<circle cx="4026.38" cy="1658.48" r="12.66" style="fill:none;stroke:#FF0000;stroke-width:7.29"/>
	<circle cx="4123.24" cy="1888.31" r="16.30" style="fill:#FF0000"/>
	<circle cx="4123.24" cy="1888.31" r="12.66" style="fill:none;stroke:#FF0000;stroke-width:7.29"/>
	<circle cx="4220.27" cy="357.07" r="16.30" style="fill:#FF0000"/>
	<circle cx="4220.27" cy="357.07" r="12.66" style="fill:none;stroke:#FF0000;stroke-width:7.29"/>
	<circle cx="4317.30" cy="2026.35" r="16.30" style="fill:#FF0000"/>
	<circle cx="4317.30" cy="2026.35" r="12.66" style="fill:none;stroke:#FF0000;stroke-width:7.29"/>
	<circle cx="4414.33" cy="2096.04" r="16.30" style="fill:#FF0000"/>
	<circle cx="4414.33" cy="2096.04" r="12.66" style="fill:none;stroke:#FF0000;stroke-width:7.29"/>
	<circle cx="4511.19" cy="2002.39" r="16.30" style="fill:#FF0000"/>
	<circle cx="4511.19" cy="2002.39" r="12.66" style="fill:none;stroke:#FF0000;stroke-width:7.29"/>
	<circle cx="4608.23" cy="2087.78" r="16.30" style="fill:#FF0000"/>
	<circle cx="4608.23" cy="2087.78" r="12.66" style="fill:none;stroke:#FF0000;stroke-width:7.29"/>
	<circle cx="4705.26" cy="2354.23" r="16.30" style="fill:#FF0000"/>
	<circle cx="4705.26" cy="2354.23" r="12.66" style="fill:none;stroke:#FF0000;stroke-width:7.29"/>
	<circle cx="4802.12" cy="1906.20" r="16.30" style="fill:#FF0000"/>
	<circle cx="4802.12" cy="1906.20" r="12.66" style="fill:none;stroke:#FF0000;stroke-width:7.29"/>
	<circle cx="4899.15" cy="1873.46" r="16.30" style="fill:#FF0000"/>
	<circle cx="4899.15" cy="1873.46" r="12.66" style="fill:none;stroke:#FF0000;stroke-width:7.29"/>
	<circle cx="4996.18" cy="2341.57" r="16.30" style="fill:#FF0000"/>
	<circle cx="4996.18" cy="2341.57" r="12.66" style="fill:none;stroke:#FF0000;stroke-width:7.29"/>
	<circle cx="5093.21" cy="2028.88" r="16.30" style="fill:#FF0000"/>
	<circle cx="5093.21" cy="2028.88" r="12.66" style="fill:none;stroke:#FF0000;stroke-width:7.29"/>
	<circle cx="5190.08" cy="2046.60" r="16.30" style="fill:#FF0000"/>
	<circle cx="5190.08" cy="2046.60" r="12.66" style="fill:none;stroke:#FF0000;stroke-width:7.29"/>
	<line x1="3197.14" y1="2813.74" x2="3197.14" y2="303.58" style="stroke:#000000;stroke-width:4.86"/>
	<line x1="3197.14" y1="2502.73" x2="3163.39" y2="2502.73" style="stroke:#000000;stroke-width:4.86"/>
	<text x="3146.51" y="2532.30" style="font-family:'Helvetica';font-size:84.38px;fill:#000000" text-anchor="end">-0.02</text>
	<line x1="3197.14" y1="1838.53" x2="3163.39" y2="1838.53" style="stroke:#000000;stroke-width:4.86"/>
	<text x="3146.51" y="1868.10" style="font-family:'Helvetica';font-size:84.38px;fill:#000000" text-anchor="end">0.00</text>
	<line x1="3197.14" y1="1174.16" x2="3163.39" y2="1174.16" style="stroke:#000000;stroke-width:4.86"/>
	<text x="3146.51" y="1203.74" style="font-family:'Helvetica';font-size:84.38px;fill:#000000" text-anchor="end">0.02</text>
	<line x1="3197.14" y1="509.96" x2="3163.39" y2="509.96" style="stroke:#000000;stroke-width:4.86"/>
	<text x="3146.51" y="539.54" style="font-family:'Helvetica';font-size:84.38px;fill:#000000" text-anchor="end">0.04</text>
	<text x="2860.90" y="1558.58" style="font-family:'Helvetica';font-size:84.38px;fill:#000000" transform="rotate(-90 2860.90,1558.58)" text-anchor="middle">Autocorrelación Parcial</text>
	<line x1="3197.14" y1="2813.74" x2="5243.74" y2="2813.74" style="stroke:#000000;stroke-width:4.86"/>
	<line x1="3250.46" y1="2813.74" x2="3250.46" y2="2847.49" style="stroke:#000000;stroke-width:4.86"/>
	<text x="3250.46" y="2923.34" style="font-family:'Helvetica';font-size:84.38px;fill:#000000" text-anchor="middle">0</text>
	<line x1="3735.45" y1="2813.74" x2="3735.45" y2="2847.49" style="stroke:#000000;stroke-width:4.86"/>
	<text x="3735.45" y="2923.34" style="font-family:'Helvetica';font-size:84.38px;fill:#000000" text-anchor="middle">5</text>
	<line x1="4220.44" y1="2813.74" x2="4220.44" y2="2847.49" style="stroke:#000000;stroke-width:4.86"/>
	<text x="4220.44" y="2923.34" style="font-family:'Helvetica';font-size:84.38px;fill:#000000" text-anchor="middle">10</text>
	<line x1="4705.26" y1="2813.74" x2="4705.26" y2="2847.49" style="stroke:#000000;stroke-width:4.86"/>
	<text x="4705.26" y="2923.34" style="font-family:'Helvetica';font-size:84.38px;fill:#000000" text-anchor="middle">15</text>
	<line x1="5190.24" y1="2813.74" x2="5190.24" y2="2847.49" style="stroke:#000000;stroke-width:4.86"/>
	<text x="5190.24" y="2923.34" style="font-family:'Helvetica';font-size:84.38px;fill:#000000" text-anchor="middle">20</text>
	<text x="4220.44" y="3041.47" style="font-family:'Helvetica';font-size:84.38px;fill:#000000" text-anchor="middle">Rezago</text>
	<text x="4220.44" y="253.55" style="font-family:'Helvetica';font-size:118.13px;fill:#000000" text-anchor="middle">PAC: Residuo al Cuadrado, GARCH</text>
</svg>
