<?xml version="1.0" encoding="UTF-8" standalone="no"?>
<!-- This is a Stata 18.0 generated SVG file (http://www.stata.com) -->

<svg version="1.1" width="7.500in" height="4.500in" viewBox="0 0 5400 3240" xmlns="http://www.w3.org/2000/svg" xmlns:xlink="http://www.w3.org/1999/xlink">
	<desc>Stata Graph - Graph</desc>
	<rect x="0" y="0" width="5400" height="3240" style="fill:#FFFFFF;stroke:none"/>
	<rect x="0.00" y="0.00" width="5400.00" height="3240.00" style="fill:#FFFFFF"/>
	<rect x="3.24" y="3.24" width="5393.52" height="3233.52" style="fill:none;stroke:#FFFFFF;stroke-width:6.48"/>
	<rect x="71.21" y="71.21" width="2628.79" height="3097.58" style="fill:#FFFFFF"/>
	<rect x="73.64" y="73.64" width="2623.93" height="3092.71" style="fill:none;stroke:#FFFFFF;stroke-width:4.86"/>
	<rect x="568.35" y="303.58" width="2046.60" height="2510.16" style="fill:#FFFFFF"/>
	<rect x="570.78" y="306.01" width="2041.74" height="2505.30" style="fill:none;stroke:#000000;stroke-width:4.86"/>
	<line x1="568.35" y1="1558.58" x2="633.15" y2="1558.58" style="stroke:#F0F0F0;stroke-width:7.29"/>
	<line x1="665.55" y1="1558.58" x2="730.35" y2="1558.58" style="stroke:#F0F0F0;stroke-width:7.29"/>
	<line x1="762.75" y1="1558.58" x2="827.55" y2="1558.58" style="stroke:#F0F0F0;stroke-width:7.29"/>
	<line x1="859.95" y1="1558.58" x2="924.75" y2="1558.58" style="stroke:#F0F0F0;stroke-width:7.29"/>
	<line x1="957.15" y1="1558.58" x2="1021.95" y2="1558.58" style="stroke:#F0F0F0;stroke-width:7.29"/>
	<line x1="1054.35" y1="1558.58" x2="1119.15" y2="1558.58" style="stroke:#F0F0F0;stroke-width:7.29"/>
	<line x1="1151.55" y1="1558.58" x2="1216.35" y2="1558.58" style="stroke:#F0F0F0;stroke-width:7.29"/>
	<line x1="1248.75" y1="1558.58" x2="1313.55" y2="1558.58" style="stroke:#F0F0F0;stroke-width:7.29"/>
	<line x1="1345.95" y1="1558.58" x2="1410.75" y2="1558.58" style="stroke:#F0F0F0;stroke-width:7.29"/>
	<line x1="1443.15" y1="1558.58" x2="1507.95" y2="1558.58" style="stroke:#F0F0F0;stroke-width:7.29"/>
	<line x1="1540.35" y1="1558.58" x2="1605.15" y2="1558.58" style="stroke:#F0F0F0;stroke-width:7.29"/>
	<line x1="1637.55" y1="1558.58" x2="1702.35" y2="1558.58" style="stroke:#F0F0F0;stroke-width:7.29"/>
	<line x1="1734.75" y1="1558.58" x2="1799.55" y2="1558.58" style="stroke:#F0F0F0;stroke-width:7.29"/>
	<line x1="1831.95" y1="1558.58" x2="1896.75" y2="1558.58" style="stroke:#F0F0F0;stroke-width:7.29"/>
	<line x1="1929.15" y1="1558.58" x2="1993.95" y2="1558.58" style="stroke:#F0F0F0;stroke-width:7.29"/>
	<line x1="2026.35" y1="1558.58" x2="2091.15" y2="1558.58" style="stroke:#F0F0F0;stroke-width:7.29"/>
	<line x1="2123.55" y1="1558.58" x2="2188.35" y2="1558.58" style="stroke:#F0F0F0;stroke-width:7.29"/>
	<line x1="2220.75" y1="1558.58" x2="2285.55" y2="1558.58" style="stroke:#F0F0F0;stroke-width:7.29"/>
	<line x1="2317.95" y1="1558.58" x2="2382.75" y2="1558.58" style="stroke:#F0F0F0;stroke-width:7.29"/>
	<line x1="2415.15" y1="1558.58" x2="2479.95" y2="1558.58" style="stroke:#F0F0F0;stroke-width:7.29"/>
	<line x1="2512.35" y1="1558.58" x2="2577.15" y2="1558.58" style="stroke:#F0F0F0;stroke-width:7.29"/>
	<line x1="2609.55" y1="1558.58" x2="2614.95" y2="1558.58" style="stroke:#F0F0F0;stroke-width:7.29"/>
	<defs>
		<path id="path_IDUVMbHW" d="M686.48 2225.48 L686.48 2225.48 L751.11 2225.48 L815.74 2225.48 L880.37 2225.64 L945.17 2225.64 L1009.80 2226.99 L1074.43 2226.99 L1139.06 2226.99 L1203.69 2226.99 L1268.33 2227.67 L1332.96 2227.84 L1397.76 2227.84 L1462.39 2228.18 L1527.02 2228.18 L1591.65 2228.68 L1656.28 2229.86 L1720.91 2231.21 L1785.54 2231.38 L1850.34 2232.56 L1914.98 2232.73 L1979.61 2232.90 L2044.24 2233.07 L2108.87 2233.07 L2173.50 2233.24 L2238.13 2233.24 L2302.93 2233.24 L2367.56 2233.41 L2432.19 2233.57 L2496.82 2233.57 L2561.46 2233.57 L2561.46 883.74 L2496.82 883.74 L2432.19 883.74 L2367.56 883.91 L2302.93 883.91 L2238.13 884.08 L2173.50 884.08 L2108.87 884.25 L2044.24 884.25 L1979.61 884.42 L1914.98 884.59 L1850.34 884.76 L1785.54 885.94 L1720.91 886.11 L1656.28 887.46 L1591.65 888.64 L1527.02 889.14 L1462.39 889.14 L1397.76 889.48 L1332.96 889.48 L1268.33 889.65 L1203.69 890.16 L1139.06 890.16 L1074.43 890.32 L1009.80 890.32 L945.17 891.68 L880.37 891.68 L815.74 891.68 L751.11 891.68 L686.48 891.68 L686.48 2225.48 Z" stroke-linejoin="round"/>
	</defs>
	<defs>
		<clipPath id="clipPath_rXvvEUZA">
			<use xlink:href="#path_IDUVMbHW"/>
		</clipPath>
	</defs>
	<use xlink:href="#path_IDUVMbHW" style="stroke:none;fill:#E0E0E0"/>
	<use xlink:href="#path_IDUVMbHW" style="fill:none;stroke:#E0E0E0;stroke-width:14.58" clip-path="url(#clipPath_rXvvEUZA)"/>
	<line x1="686.48" y1="1558.58" x2="686.48" y2="1569.04" style="stroke:#FF0000;stroke-width:7.29"/>
	<line x1="751.11" y1="1558.58" x2="751.11" y2="1486.18" style="stroke:#FF0000;stroke-width:7.29"/>
	<line x1="815.74" y1="1558.58" x2="815.74" y2="1600.43" style="stroke:#FF0000;stroke-width:7.29"/>
	<line x1="880.37" y1="1558.58" x2="880.37" y2="1869.58" style="stroke:#FF0000;stroke-width:7.29"/>
	<line x1="945.17" y1="1558.58" x2="945.17" y2="2638.91" style="stroke:#FF0000;stroke-width:7.29"/>
	<line x1="1009.80" y1="1558.58" x2="1009.80" y2="1553.51" style="stroke:#FF0000;stroke-width:7.29"/>
	<line x1="1074.43" y1="1558.58" x2="1074.43" y2="1361.48" style="stroke:#FF0000;stroke-width:7.29"/>
	<line x1="1139.06" y1="1558.58" x2="1139.06" y2="1654.26" style="stroke:#FF0000;stroke-width:7.29"/>
	<line x1="1203.69" y1="1558.58" x2="1203.69" y2="858.43" style="stroke:#FF0000;stroke-width:7.29"/>
	<line x1="1268.33" y1="1558.58" x2="1268.33" y2="1164.88" style="stroke:#FF0000;stroke-width:7.29"/>
	<line x1="1332.96" y1="1558.58" x2="1332.96" y2="1816.59" style="stroke:#FF0000;stroke-width:7.29"/>
	<line x1="1397.76" y1="1558.58" x2="1397.76" y2="1097.89" style="stroke:#FF0000;stroke-width:7.29"/>
	<line x1="1462.39" y1="1558.58" x2="1462.39" y2="1828.07" style="stroke:#FF0000;stroke-width:7.29"/>
	<line x1="1527.02" y1="1558.58" x2="1527.02" y2="2189.19" style="stroke:#FF0000;stroke-width:7.29"/>
	<line x1="1591.65" y1="1558.58" x2="1591.65" y2="2556.73" style="stroke:#FF0000;stroke-width:7.29"/>
	<line x1="1656.28" y1="1558.58" x2="1656.28" y2="439.09" style="stroke:#FF0000;stroke-width:7.29"/>
	<line x1="1720.91" y1="1558.58" x2="1720.91" y2="1327.56" style="stroke:#FF0000;stroke-width:7.29"/>
	<line x1="1785.54" y1="1558.58" x2="1785.54" y2="2577.99" style="stroke:#FF0000;stroke-width:7.29"/>
	<line x1="1850.34" y1="1558.58" x2="1850.34" y2="1121.51" style="stroke:#FF0000;stroke-width:7.29"/>
	<line x1="1914.98" y1="1558.58" x2="1914.98" y2="1180.41" style="stroke:#FF0000;stroke-width:7.29"/>
	<line x1="1979.61" y1="1558.58" x2="1979.61" y2="1929.99" style="stroke:#FF0000;stroke-width:7.29"/>
	<line x1="2044.24" y1="1558.58" x2="2044.24" y2="1749.77" style="stroke:#FF0000;stroke-width:7.29"/>
	<line x1="2108.87" y1="1558.58" x2="2108.87" y2="1855.91" style="stroke:#FF0000;stroke-width:7.29"/>
	<line x1="2173.50" y1="1558.58" x2="2173.50" y2="1783.01" style="stroke:#FF0000;stroke-width:7.29"/>
	<line x1="2238.13" y1="1558.58" x2="2238.13" y2="1792.29" style="stroke:#FF0000;stroke-width:7.29"/>
	<line x1="2302.93" y1="1558.58" x2="2302.93" y2="1706.06" style="stroke:#FF0000;stroke-width:7.29"/>
	<line x1="2367.56" y1="1558.58" x2="2367.56" y2="1081.52" style="stroke:#FF0000;stroke-width:7.29"/>
	<line x1="2432.19" y1="1558.58" x2="2432.19" y2="1638.06" style="stroke:#FF0000;stroke-width:7.29"/>
	<line x1="2496.82" y1="1558.58" x2="2496.82" y2="1656.28" style="stroke:#FF0000;stroke-width:7.29"/>
	<line x1="2561.46" y1="1558.58" x2="2561.46" y2="1494.28" style="stroke:#FF0000;stroke-width:7.29"/>
	<circle cx="686.31" cy="1569.21" r="16.30" style="fill:#FF0000"/>
	<circle cx="686.31" cy="1569.21" r="12.66" style="fill:none;stroke:#FF0000;stroke-width:7.29"/>
	<circle cx="751.11" cy="1486.35" r="16.30" style="fill:#FF0000"/>
	<circle cx="751.11" cy="1486.35" r="12.66" style="fill:none;stroke:#FF0000;stroke-width:7.29"/>
	<circle cx="815.74" cy="1600.59" r="16.30" style="fill:#FF0000"/>
	<circle cx="815.74" cy="1600.59" r="12.66" style="fill:none;stroke:#FF0000;stroke-width:7.29"/>
	<circle cx="880.37" cy="1869.58" r="16.30" style="fill:#FF0000"/>
	<circle cx="880.37" cy="1869.58" r="12.66" style="fill:none;stroke:#FF0000;stroke-width:7.29"/>
	<circle cx="945.00" cy="2638.91" r="16.30" style="fill:#FF0000"/>
	<circle cx="945.00" cy="2638.91" r="12.66" style="fill:none;stroke:#FF0000;stroke-width:7.29"/>
	<circle cx="1009.63" cy="1553.68" r="16.30" style="fill:#FF0000"/>
	<circle cx="1009.63" cy="1553.68" r="12.66" style="fill:none;stroke:#FF0000;stroke-width:7.29"/>
	<circle cx="1074.26" cy="1361.48" r="16.30" style="fill:#FF0000"/>
	<circle cx="1074.26" cy="1361.48" r="12.66" style="fill:none;stroke:#FF0000;stroke-width:7.29"/>
	<circle cx="1138.89" cy="1654.26" r="16.30" style="fill:#FF0000"/>
	<circle cx="1138.89" cy="1654.26" r="12.66" style="fill:none;stroke:#FF0000;stroke-width:7.29"/>
	<circle cx="1203.69" cy="858.43" r="16.30" style="fill:#FF0000"/>
	<circle cx="1203.69" cy="858.43" r="12.66" style="fill:none;stroke:#FF0000;stroke-width:7.29"/>
	<circle cx="1268.33" cy="1164.88" r="16.30" style="fill:#FF0000"/>
	<circle cx="1268.33" cy="1164.88" r="12.66" style="fill:none;stroke:#FF0000;stroke-width:7.29"/>
	<circle cx="1332.96" cy="1816.59" r="16.30" style="fill:#FF0000"/>
	<circle cx="1332.96" cy="1816.59" r="12.66" style="fill:none;stroke:#FF0000;stroke-width:7.29"/>
	<circle cx="1397.59" cy="1098.06" r="16.30" style="fill:#FF0000"/>
	<circle cx="1397.59" cy="1098.06" r="12.66" style="fill:none;stroke:#FF0000;stroke-width:7.29"/>
	<circle cx="1462.22" cy="1828.07" r="16.30" style="fill:#FF0000"/>
	<circle cx="1462.22" cy="1828.07" r="12.66" style="fill:none;stroke:#FF0000;stroke-width:7.29"/>
	<circle cx="1526.85" cy="2189.36" r="16.30" style="fill:#FF0000"/>
	<circle cx="1526.85" cy="2189.36" r="12.66" style="fill:none;stroke:#FF0000;stroke-width:7.29"/>
	<circle cx="1591.65" cy="2556.73" r="16.30" style="fill:#FF0000"/>
	<circle cx="1591.65" cy="2556.73" r="12.66" style="fill:none;stroke:#FF0000;stroke-width:7.29"/>
	<circle cx="1656.28" cy="439.09" r="16.30" style="fill:#FF0000"/>
	<circle cx="1656.28" cy="439.09" r="12.66" style="fill:none;stroke:#FF0000;stroke-width:7.29"/>
	<circle cx="1720.91" cy="1327.56" r="16.30" style="fill:#FF0000"/>
	<circle cx="1720.91" cy="1327.56" r="12.66" style="fill:none;stroke:#FF0000;stroke-width:7.29"/>
	<circle cx="1785.54" cy="2578.16" r="16.30" style="fill:#FF0000"/>
	<circle cx="1785.54" cy="2578.16" r="12.66" style="fill:none;stroke:#FF0000;stroke-width:7.29"/>
	<circle cx="1850.18" cy="1121.51" r="16.30" style="fill:#FF0000"/>
	<circle cx="1850.18" cy="1121.51" r="12.66" style="fill:none;stroke:#FF0000;stroke-width:7.29"/>
	<circle cx="1914.81" cy="1180.57" r="16.30" style="fill:#FF0000"/>
	<circle cx="1914.81" cy="1180.57" r="12.66" style="fill:none;stroke:#FF0000;stroke-width:7.29"/>
	<circle cx="1979.44" cy="1930.16" r="16.30" style="fill:#FF0000"/>
	<circle cx="1979.44" cy="1930.16" r="12.66" style="fill:none;stroke:#FF0000;stroke-width:7.29"/>
	<circle cx="2044.24" cy="1749.77" r="16.30" style="fill:#FF0000"/>
	<circle cx="2044.24" cy="1749.77" r="12.66" style="fill:none;stroke:#FF0000;stroke-width:7.29"/>
	<circle cx="2108.87" cy="1855.91" r="16.30" style="fill:#FF0000"/>
	<circle cx="2108.87" cy="1855.91" r="12.66" style="fill:none;stroke:#FF0000;stroke-width:7.29"/>
	<circle cx="2173.50" cy="1783.18" r="16.30" style="fill:#FF0000"/>
	<circle cx="2173.50" cy="1783.18" r="12.66" style="fill:none;stroke:#FF0000;stroke-width:7.29"/>
	<circle cx="2238.13" cy="1792.46" r="16.30" style="fill:#FF0000"/>
	<circle cx="2238.13" cy="1792.46" r="12.66" style="fill:none;stroke:#FF0000;stroke-width:7.29"/>
	<circle cx="2302.76" cy="1706.23" r="16.30" style="fill:#FF0000"/>
	<circle cx="2302.76" cy="1706.23" r="12.66" style="fill:none;stroke:#FF0000;stroke-width:7.29"/>
	<circle cx="2367.39" cy="1081.69" r="16.30" style="fill:#FF0000"/>
	<circle cx="2367.39" cy="1081.69" r="12.66" style="fill:none;stroke:#FF0000;stroke-width:7.29"/>
	<circle cx="2432.03" cy="1638.06" r="16.30" style="fill:#FF0000"/>
	<circle cx="2432.03" cy="1638.06" r="12.66" style="fill:none;stroke:#FF0000;stroke-width:7.29"/>
	<circle cx="2496.82" cy="1656.45" r="16.30" style="fill:#FF0000"/>
	<circle cx="2496.82" cy="1656.45" r="12.66" style="fill:none;stroke:#FF0000;stroke-width:7.29"/>
	<circle cx="2561.46" cy="1494.45" r="16.30" style="fill:#FF0000"/>
	<circle cx="2561.46" cy="1494.45" r="12.66" style="fill:none;stroke:#FF0000;stroke-width:7.29"/>
	<line x1="568.35" y1="2813.74" x2="568.35" y2="303.58" style="stroke:#000000;stroke-width:4.86"/>
	<line x1="568.35" y1="2760.24" x2="534.60" y2="2760.24" style="stroke:#000000;stroke-width:4.86"/>
	<text x="517.73" y="2789.82" style="font-family:'Helvetica';font-size:84.38px;fill:#000000" text-anchor="end">-0.05</text>
	<line x1="568.35" y1="1558.58" x2="534.60" y2="1558.58" style="stroke:#000000;stroke-width:4.86"/>
	<text x="517.73" y="1588.15" style="font-family:'Helvetica';font-size:84.38px;fill:#000000" text-anchor="end">0.00</text>
	<line x1="568.35" y1="357.07" x2="534.60" y2="357.07" style="stroke:#000000;stroke-width:4.86"/>
	<text x="517.73" y="386.65" style="font-family:'Helvetica';font-size:84.38px;fill:#000000" text-anchor="end">0.05</text>
	<text x="232.12" y="1558.58" style="font-family:'Helvetica';font-size:84.38px;fill:#000000" transform="rotate(-90 232.12,1558.58)" text-anchor="middle">Autocorrelación</text>
	<line x1="568.35" y1="2813.74" x2="2614.95" y2="2813.74" style="stroke:#000000;stroke-width:4.86"/>
	<line x1="621.84" y1="2813.74" x2="621.84" y2="2847.49" style="stroke:#000000;stroke-width:4.86"/>
	<text x="621.84" y="2923.34" style="font-family:'Helvetica';font-size:84.38px;fill:#000000" text-anchor="middle">0</text>
	<line x1="1268.33" y1="2813.74" x2="1268.33" y2="2847.49" style="stroke:#000000;stroke-width:4.86"/>
	<text x="1268.33" y="2923.34" style="font-family:'Helvetica';font-size:84.38px;fill:#000000" text-anchor="middle">10</text>
	<line x1="1914.98" y1="2813.74" x2="1914.98" y2="2847.49" style="stroke:#000000;stroke-width:4.86"/>
	<text x="1914.98" y="2923.34" style="font-family:'Helvetica';font-size:84.38px;fill:#000000" text-anchor="middle">20</text>
	<line x1="2561.46" y1="2813.74" x2="2561.46" y2="2847.49" style="stroke:#000000;stroke-width:4.86"/>
	<text x="2561.46" y="2923.34" style="font-family:'Helvetica';font-size:84.38px;fill:#000000" text-anchor="middle">30</text>
	<text x="1591.65" y="3041.47" style="font-family:'Helvetica';font-size:84.38px;fill:#000000" text-anchor="middle">Rezago</text>
	<text x="1591.65" y="253.55" style="font-family:'Helvetica';font-size:118.13px;fill:#000000" text-anchor="middle">AC: Residuo</text>
	<rect x="2700.00" y="71.21" width="2628.79" height="3097.58" style="fill:#FFFFFF"/>
	<rect x="2702.43" y="73.64" width="2623.93" height="3092.71" style="fill:none;stroke:#FFFFFF;stroke-width:4.86"/>
	<rect x="3197.14" y="303.58" width="2046.60" height="2510.16" style="fill:#FFFFFF"/>
	<rect x="3199.57" y="306.01" width="2041.74" height="2505.30" style="fill:none;stroke:#000000;stroke-width:4.86"/>
	<line x1="3197.14" y1="1558.58" x2="3261.94" y2="1558.58" style="stroke:#F0F0F0;stroke-width:7.29"/>
	<line x1="3294.34" y1="1558.58" x2="3359.14" y2="1558.58" style="stroke:#F0F0F0;stroke-width:7.29"/>
	<line x1="3391.54" y1="1558.58" x2="3456.34" y2="1558.58" style="stroke:#F0F0F0;stroke-width:7.29"/>
	<line x1="3488.74" y1="1558.58" x2="3553.54" y2="1558.58" style="stroke:#F0F0F0;stroke-width:7.29"/>
	<line x1="3585.94" y1="1558.58" x2="3650.74" y2="1558.58" style="stroke:#F0F0F0;stroke-width:7.29"/>
	<line x1="3683.14" y1="1558.58" x2="3747.94" y2="1558.58" style="stroke:#F0F0F0;stroke-width:7.29"/>
	<line x1="3780.34" y1="1558.58" x2="3845.14" y2="1558.58" style="stroke:#F0F0F0;stroke-width:7.29"/>
	<line x1="3877.54" y1="1558.58" x2="3942.34" y2="1558.58" style="stroke:#F0F0F0;stroke-width:7.29"/>
	<line x1="3974.74" y1="1558.58" x2="4039.54" y2="1558.58" style="stroke:#F0F0F0;stroke-width:7.29"/>
	<line x1="4071.94" y1="1558.58" x2="4136.74" y2="1558.58" style="stroke:#F0F0F0;stroke-width:7.29"/>
	<line x1="4169.14" y1="1558.58" x2="4233.94" y2="1558.58" style="stroke:#F0F0F0;stroke-width:7.29"/>
	<line x1="4266.34" y1="1558.58" x2="4331.14" y2="1558.58" style="stroke:#F0F0F0;stroke-width:7.29"/>
	<line x1="4363.54" y1="1558.58" x2="4428.34" y2="1558.58" style="stroke:#F0F0F0;stroke-width:7.29"/>
	<line x1="4460.74" y1="1558.58" x2="4525.54" y2="1558.58" style="stroke:#F0F0F0;stroke-width:7.29"/>
	<line x1="4557.94" y1="1558.58" x2="4622.74" y2="1558.58" style="stroke:#F0F0F0;stroke-width:7.29"/>
	<line x1="4655.14" y1="1558.58" x2="4719.94" y2="1558.58" style="stroke:#F0F0F0;stroke-width:7.29"/>
	<line x1="4752.34" y1="1558.58" x2="4817.14" y2="1558.58" style="stroke:#F0F0F0;stroke-width:7.29"/>
	<line x1="4849.54" y1="1558.58" x2="4914.34" y2="1558.58" style="stroke:#F0F0F0;stroke-width:7.29"/>
	<line x1="4946.74" y1="1558.58" x2="5011.54" y2="1558.58" style="stroke:#F0F0F0;stroke-width:7.29"/>
	<line x1="5043.94" y1="1558.58" x2="5108.74" y2="1558.58" style="stroke:#F0F0F0;stroke-width:7.29"/>
	<line x1="5141.14" y1="1558.58" x2="5205.94" y2="1558.58" style="stroke:#F0F0F0;stroke-width:7.29"/>
	<line x1="5238.34" y1="1558.58" x2="5243.74" y2="1558.58" style="stroke:#F0F0F0;stroke-width:7.29"/>
	<defs>
		<path id="path_pXnVoeOl" d="M3315.26 2225.48 L3315.26 2225.48 L3379.89 2225.48 L3444.53 2225.48 L3509.16 2225.48 L3573.79 2225.48 L3638.42 2225.48 L3703.05 2225.48 L3767.85 2225.48 L3832.48 2225.48 L3897.11 2225.48 L3961.74 2225.48 L4026.38 2225.48 L4091.01 2225.48 L4155.64 2225.48 L4220.44 2225.48 L4285.07 2225.48 L4349.70 2225.48 L4414.33 2225.48 L4478.96 2225.48 L4543.59 2225.48 L4608.23 2225.48 L4673.02 2225.48 L4737.66 2225.48 L4802.29 2225.48 L4866.92 2225.48 L4931.55 2225.48 L4996.18 2225.48 L5060.98 2225.48 L5125.61 2225.48 L5190.24 2225.48 L5190.24 891.68 L5125.61 891.68 L5060.98 891.68 L4996.18 891.68 L4931.55 891.68 L4866.92 891.68 L4802.29 891.68 L4737.66 891.68 L4673.02 891.68 L4608.23 891.68 L4543.59 891.68 L4478.96 891.68 L4414.33 891.68 L4349.70 891.68 L4285.07 891.68 L4220.44 891.68 L4155.64 891.68 L4091.01 891.68 L4026.38 891.68 L3961.74 891.68 L3897.11 891.68 L3832.48 891.68 L3767.85 891.68 L3703.05 891.68 L3638.42 891.68 L3573.79 891.68 L3509.16 891.68 L3444.53 891.68 L3379.89 891.68 L3315.26 891.68 L3315.26 2225.48 Z" stroke-linejoin="round"/>
	</defs>
	<defs>
		<clipPath id="clipPath_GQTNhjGs">
			<use xlink:href="#path_pXnVoeOl"/>
		</clipPath>
	</defs>
	<use xlink:href="#path_pXnVoeOl" style="stroke:none;fill:#E0E0E0"/>
	<use xlink:href="#path_pXnVoeOl" style="fill:none;stroke:#E0E0E0;stroke-width:14.58" clip-path="url(#clipPath_GQTNhjGs)"/>
	<line x1="3315.26" y1="1558.58" x2="3315.26" y2="1569.04" style="stroke:#FF0000;stroke-width:7.29"/>
	<line x1="3379.89" y1="1558.58" x2="3379.89" y2="1486.18" style="stroke:#FF0000;stroke-width:7.29"/>
	<line x1="3444.53" y1="1558.58" x2="3444.53" y2="1600.43" style="stroke:#FF0000;stroke-width:7.29"/>
	<line x1="3509.16" y1="1558.58" x2="3509.16" y2="1870.09" style="stroke:#FF0000;stroke-width:7.29"/>
	<line x1="3573.79" y1="1558.58" x2="3573.79" y2="2639.76" style="stroke:#FF0000;stroke-width:7.29"/>
	<line x1="3638.42" y1="1558.58" x2="3638.42" y2="1553.51" style="stroke:#FF0000;stroke-width:7.29"/>
	<line x1="3703.05" y1="1558.58" x2="3703.05" y2="1355.40" style="stroke:#FF0000;stroke-width:7.29"/>
	<line x1="3767.85" y1="1558.58" x2="3767.85" y2="1662.02" style="stroke:#FF0000;stroke-width:7.29"/>
	<line x1="3832.48" y1="1558.58" x2="3832.48" y2="886.11" style="stroke:#FF0000;stroke-width:7.29"/>
	<line x1="3897.11" y1="1558.58" x2="3897.11" y2="1209.43" style="stroke:#FF0000;stroke-width:7.29"/>
	<line x1="3961.74" y1="1558.58" x2="3961.74" y2="1816.26" style="stroke:#FF0000;stroke-width:7.29"/>
	<line x1="4026.38" y1="1558.58" x2="4026.38" y2="1080.51" style="stroke:#FF0000;stroke-width:7.29"/>
	<line x1="4091.01" y1="1558.58" x2="4091.01" y2="1816.93" style="stroke:#FF0000;stroke-width:7.29"/>
	<line x1="4155.64" y1="1558.58" x2="4155.64" y2="2128.11" style="stroke:#FF0000;stroke-width:7.29"/>
	<line x1="4220.44" y1="1558.58" x2="4220.44" y2="2531.76" style="stroke:#FF0000;stroke-width:7.29"/>
	<line x1="4285.07" y1="1558.58" x2="4285.07" y2="454.78" style="stroke:#FF0000;stroke-width:7.29"/>
	<line x1="4349.70" y1="1558.58" x2="4349.70" y2="1283.68" style="stroke:#FF0000;stroke-width:7.29"/>
	<line x1="4414.33" y1="1558.58" x2="4414.33" y2="2649.88" style="stroke:#FF0000;stroke-width:7.29"/>
	<line x1="4478.96" y1="1558.58" x2="4478.96" y2="1223.94" style="stroke:#FF0000;stroke-width:7.29"/>
	<line x1="4543.59" y1="1558.58" x2="4543.59" y2="1204.71" style="stroke:#FF0000;stroke-width:7.29"/>
	<line x1="4608.23" y1="1558.58" x2="4608.23" y2="1850.68" style="stroke:#FF0000;stroke-width:7.29"/>
	<line x1="4673.02" y1="1558.58" x2="4673.02" y2="1750.44" style="stroke:#FF0000;stroke-width:7.29"/>
	<line x1="4737.66" y1="1558.58" x2="4737.66" y2="1910.59" style="stroke:#FF0000;stroke-width:7.29"/>
	<line x1="4802.29" y1="1558.58" x2="4802.29" y2="1677.71" style="stroke:#FF0000;stroke-width:7.29"/>
	<line x1="4866.92" y1="1558.58" x2="4866.92" y2="1786.89" style="stroke:#FF0000;stroke-width:7.29"/>
	<line x1="4931.55" y1="1558.58" x2="4931.55" y2="1802.42" style="stroke:#FF0000;stroke-width:7.29"/>
	<line x1="4996.18" y1="1558.58" x2="4996.18" y2="998.32" style="stroke:#FF0000;stroke-width:7.29"/>
	<line x1="5060.98" y1="1558.58" x2="5060.98" y2="1730.70" style="stroke:#FF0000;stroke-width:7.29"/>
	<line x1="5125.61" y1="1558.58" x2="5125.61" y2="1773.56" style="stroke:#FF0000;stroke-width:7.29"/>
	<line x1="5190.24" y1="1558.58" x2="5190.24" y2="1428.13" style="stroke:#FF0000;stroke-width:7.29"/>
	<circle cx="3315.09" cy="1569.21" r="16.30" style="fill:#FF0000"/>
	<circle cx="3315.09" cy="1569.21" r="12.66" style="fill:none;stroke:#FF0000;stroke-width:7.29"/>
	<circle cx="3379.73" cy="1486.35" r="16.30" style="fill:#FF0000"/>
	<circle cx="3379.73" cy="1486.35" r="12.66" style="fill:none;stroke:#FF0000;stroke-width:7.29"/>
	<circle cx="3444.36" cy="1600.43" r="16.30" style="fill:#FF0000"/>
	<circle cx="3444.36" cy="1600.43" r="12.66" style="fill:none;stroke:#FF0000;stroke-width:7.29"/>
	<circle cx="3509.16" cy="1870.09" r="16.30" style="fill:#FF0000"/>
	<circle cx="3509.16" cy="1870.09" r="12.66" style="fill:none;stroke:#FF0000;stroke-width:7.29"/>
	<circle cx="3573.79" cy="2639.93" r="16.30" style="fill:#FF0000"/>
	<circle cx="3573.79" cy="2639.93" r="12.66" style="fill:none;stroke:#FF0000;stroke-width:7.29"/>
	<circle cx="3638.42" cy="1553.68" r="16.30" style="fill:#FF0000"/>
	<circle cx="3638.42" cy="1553.68" r="12.66" style="fill:none;stroke:#FF0000;stroke-width:7.29"/>
	<circle cx="3703.05" cy="1355.57" r="16.30" style="fill:#FF0000"/>
	<circle cx="3703.05" cy="1355.57" r="12.66" style="fill:none;stroke:#FF0000;stroke-width:7.29"/>
	<circle cx="3767.68" cy="1662.02" r="16.30" style="fill:#FF0000"/>
	<circle cx="3767.68" cy="1662.02" r="12.66" style="fill:none;stroke:#FF0000;stroke-width:7.29"/>
	<circle cx="3832.31" cy="886.11" r="16.30" style="fill:#FF0000"/>
	<circle cx="3832.31" cy="886.11" r="12.66" style="fill:none;stroke:#FF0000;stroke-width:7.29"/>
	<circle cx="3896.94" cy="1209.43" r="16.30" style="fill:#FF0000"/>
	<circle cx="3896.94" cy="1209.43" r="12.66" style="fill:none;stroke:#FF0000;stroke-width:7.29"/>
	<circle cx="3961.74" cy="1816.26" r="16.30" style="fill:#FF0000"/>
	<circle cx="3961.74" cy="1816.26" r="12.66" style="fill:none;stroke:#FF0000;stroke-width:7.29"/>
	<circle cx="4026.38" cy="1080.51" r="16.30" style="fill:#FF0000"/>
	<circle cx="4026.38" cy="1080.51" r="12.66" style="fill:none;stroke:#FF0000;stroke-width:7.29"/>
	<circle cx="4091.01" cy="1816.93" r="16.30" style="fill:#FF0000"/>
	<circle cx="4091.01" cy="1816.93" r="12.66" style="fill:none;stroke:#FF0000;stroke-width:7.29"/>
	<circle cx="4155.64" cy="2128.28" r="16.30" style="fill:#FF0000"/>
	<circle cx="4155.64" cy="2128.28" r="12.66" style="fill:none;stroke:#FF0000;stroke-width:7.29"/>
	<circle cx="4220.27" cy="2531.93" r="16.30" style="fill:#FF0000"/>
	<circle cx="4220.27" cy="2531.93" r="12.66" style="fill:none;stroke:#FF0000;stroke-width:7.29"/>
	<circle cx="4284.90" cy="454.78" r="16.30" style="fill:#FF0000"/>
	<circle cx="4284.90" cy="454.78" r="12.66" style="fill:none;stroke:#FF0000;stroke-width:7.29"/>
	<circle cx="4349.53" cy="1283.85" r="16.30" style="fill:#FF0000"/>
	<circle cx="4349.53" cy="1283.85" r="12.66" style="fill:none;stroke:#FF0000;stroke-width:7.29"/>
	<circle cx="4414.33" cy="2650.05" r="16.30" style="fill:#FF0000"/>
	<circle cx="4414.33" cy="2650.05" r="12.66" style="fill:none;stroke:#FF0000;stroke-width:7.29"/>
	<circle cx="4478.96" cy="1224.11" r="16.30" style="fill:#FF0000"/>
	<circle cx="4478.96" cy="1224.11" r="12.66" style="fill:none;stroke:#FF0000;stroke-width:7.29"/>
	<circle cx="4543.59" cy="1204.71" r="16.30" style="fill:#FF0000"/>
	<circle cx="4543.59" cy="1204.71" r="12.66" style="fill:none;stroke:#FF0000;stroke-width:7.29"/>
	<circle cx="4608.23" cy="1850.68" r="16.30" style="fill:#FF0000"/>
	<circle cx="4608.23" cy="1850.68" r="12.66" style="fill:none;stroke:#FF0000;stroke-width:7.29"/>
	<circle cx="4672.86" cy="1750.61" r="16.30" style="fill:#FF0000"/>
	<circle cx="4672.86" cy="1750.61" r="12.66" style="fill:none;stroke:#FF0000;stroke-width:7.29"/>
	<circle cx="4737.49" cy="1910.59" r="16.30" style="fill:#FF0000"/>
	<circle cx="4737.49" cy="1910.59" r="12.66" style="fill:none;stroke:#FF0000;stroke-width:7.29"/>
	<circle cx="4802.12" cy="1677.71" r="16.30" style="fill:#FF0000"/>
	<circle cx="4802.12" cy="1677.71" r="12.66" style="fill:none;stroke:#FF0000;stroke-width:7.29"/>
	<circle cx="4866.92" cy="1787.06" r="16.30" style="fill:#FF0000"/>
	<circle cx="4866.92" cy="1787.06" r="12.66" style="fill:none;stroke:#FF0000;stroke-width:7.29"/>
	<circle cx="4931.55" cy="1802.42" r="16.30" style="fill:#FF0000"/>
	<circle cx="4931.55" cy="1802.42" r="12.66" style="fill:none;stroke:#FF0000;stroke-width:7.29"/>
	<circle cx="4996.18" cy="998.49" r="16.30" style="fill:#FF0000"/>
	<circle cx="4996.18" cy="998.49" r="12.66" style="fill:none;stroke:#FF0000;stroke-width:7.29"/>
	<circle cx="5060.81" cy="1730.87" r="16.30" style="fill:#FF0000"/>
	<circle cx="5060.81" cy="1730.87" r="12.66" style="fill:none;stroke:#FF0000;stroke-width:7.29"/>
	<circle cx="5125.44" cy="1773.56" r="16.30" style="fill:#FF0000"/>
	<circle cx="5125.44" cy="1773.56" r="12.66" style="fill:none;stroke:#FF0000;stroke-width:7.29"/>
	<circle cx="5190.08" cy="1428.30" r="16.30" style="fill:#FF0000"/>
	<circle cx="5190.08" cy="1428.30" r="12.66" style="fill:none;stroke:#FF0000;stroke-width:7.29"/>
	<line x1="3197.14" y1="2813.74" x2="3197.14" y2="303.58" style="stroke:#000000;stroke-width:4.86"/>
	<line x1="3197.14" y1="2760.24" x2="3163.39" y2="2760.24" style="stroke:#000000;stroke-width:4.86"/>
	<text x="3146.51" y="2789.82" style="font-family:'Helvetica';font-size:84.38px;fill:#000000" text-anchor="end">-0.05</text>
	<line x1="3197.14" y1="1558.58" x2="3163.39" y2="1558.58" style="stroke:#000000;stroke-width:4.86"/>
	<text x="3146.51" y="1588.15" style="font-family:'Helvetica';font-size:84.38px;fill:#000000" text-anchor="end">0.00</text>
	<line x1="3197.14" y1="357.07" x2="3163.39" y2="357.07" style="stroke:#000000;stroke-width:4.86"/>
	<text x="3146.51" y="386.65" style="font-family:'Helvetica';font-size:84.38px;fill:#000000" text-anchor="end">0.05</text>
	<text x="2860.90" y="1558.58" style="font-family:'Helvetica';font-size:84.38px;fill:#000000" transform="rotate(-90 2860.90,1558.58)" text-anchor="middle">Autocorrelación Parcial</text>
	<line x1="3197.14" y1="2813.74" x2="5243.74" y2="2813.74" style="stroke:#000000;stroke-width:4.86"/>
	<line x1="3250.46" y1="2813.74" x2="3250.46" y2="2847.49" style="stroke:#000000;stroke-width:4.86"/>
	<text x="3250.46" y="2923.34" style="font-family:'Helvetica';font-size:84.38px;fill:#000000" text-anchor="middle">0</text>
	<line x1="3897.11" y1="2813.74" x2="3897.11" y2="2847.49" style="stroke:#000000;stroke-width:4.86"/>
	<text x="3897.11" y="2923.34" style="font-family:'Helvetica';font-size:84.38px;fill:#000000" text-anchor="middle">10</text>
	<line x1="4543.59" y1="2813.74" x2="4543.59" y2="2847.49" style="stroke:#000000;stroke-width:4.86"/>
	<text x="4543.59" y="2923.34" style="font-family:'Helvetica';font-size:84.38px;fill:#000000" text-anchor="middle">20</text>
	<line x1="5190.24" y1="2813.74" x2="5190.24" y2="2847.49" style="stroke:#000000;stroke-width:4.86"/>
	<text x="5190.24" y="2923.34" style="font-family:'Helvetica';font-size:84.38px;fill:#000000" text-anchor="middle">30</text>
	<text x="4220.44" y="3041.47" style="font-family:'Helvetica';font-size:84.38px;fill:#000000" text-anchor="middle">Rezago</text>
	<text x="4220.44" y="253.55" style="font-family:'Helvetica';font-size:118.13px;fill:#000000" text-anchor="middle">PAC: Residuo</text>
</svg>
