<?xml version="1.0" encoding="UTF-8" standalone="no"?>
<!-- This is a Stata 18.0 generated SVG file (http://www.stata.com) -->

<svg version="1.1" width="7.500in" height="4.500in" viewBox="0 0 5400 3240" xmlns="http://www.w3.org/2000/svg" xmlns:xlink="http://www.w3.org/1999/xlink">
	<desc>Stata Graph - Graph</desc>
	<rect x="0" y="0" width="5400" height="3240" style="fill:#FFFFFF;stroke:none"/>
	<rect x="0.00" y="0.00" width="5400.00" height="3240.00" style="fill:#FFFFFF"/>
	<rect x="3.24" y="3.24" width="5393.52" height="3233.52" style="fill:none;stroke:#FFFFFF;stroke-width:6.48"/>
	<rect x="689.01" y="309.82" width="4597.59" height="1696.78" style="fill:#FFFFFF"/>
	<rect x="692.25" y="313.06" width="4591.11" height="1690.30" style="fill:none;stroke:#000000;stroke-width:6.48"/>
	<path d=" M958.16 1216.35 L966.43 1204.88 L974.70 1245.54 L982.97 1311.53 L991.24 1366.54 L999.51 1492.26 L1007.78 1565.66 L1016.04 1868.57 L1024.14 1853.72 L1032.41 1849.33 L1040.68 1800.56 L1048.95 1736.10 L1057.22 1662.53 L1065.49 1660.84 L1073.76 1662.02 L1082.03 1627.09 L1090.29 1518.75 L1098.39 1414.97 L1106.66 1268.83 L1114.93 1218.38 L1123.20 1218.88 L1131.47 1169.94 L1139.74 1184.79 L1148.01 1237.11 L1156.28 1074.26 L1164.54 1036.46 L1172.64 1063.46 L1180.91 1040.68 L1189.18 1111.72 L1197.45 1133.32 L1205.72 1231.37 L1213.99 1226.81 L1222.26 1255.84 L1230.53 1258.20 L1238.79 1207.58 L1246.89 1223.61 L1255.16 1118.31 L1263.43 1088.44 L1271.70 1071.06 L1279.97 1029.71 L1288.24 992.08 L1296.51 1005.41 L1304.78 927.45 L1313.04 930.15 L1321.14 836.49 L1329.41 852.69 L1337.68 893.53 L1345.95 815.57 L1354.22 1018.91 L1362.49 1050.47 L1370.76 1034.44 L1379.03 1071.06 L1387.29 1038.32 L1395.39 1040.68 L1403.66 1072.41 L1411.93 1089.79 L1420.20 1136.87 L1428.47 1142.78 L1436.74 1098.56 L1445.01 1165.05 L1453.28 1209.60 L1461.54 1189.52 L1469.64 1216.86 L1477.91 1235.25 L1486.18 1274.06 L1494.45 1207.91 L1502.72 1203.19 L1510.99 1191.71 L1519.26 1096.88 L1527.53 1064.47 L1535.79 1122.86 L1543.89 1076.79 L1552.16 1042.88 L1560.43 1038.15 L1568.70 1002.54 L1576.97 1018.91 L1585.24 1013.18 L1593.51 977.57 L1601.78 994.28 L1610.04 991.74 L1618.14 1112.23 L1626.41 1187.32 L1634.68 1181.59 L1642.95 1256.01 L1651.22 1261.41 L1659.49 1250.44 L1667.76 1257.86 L1676.03 1217.19 L1684.29 1207.74 L1692.39 1265.96 L1700.66 1236.60 L1708.93 1228.33 L1717.20 1186.65 L1725.47 1134.84 L1733.74 1084.89 L1742.01 955.46 L1750.28 905.18 L1758.54 954.62 L1766.64 933.19 L1774.91 914.96 L1783.18 898.09 L1791.45 887.63 L1799.72 847.63 L1807.99 827.38 L1816.26 831.09 L1824.53 721.24 L1832.79 722.76 L1840.89 624.04 L1849.16 650.70 L1857.43 654.92 L1865.70 698.12 L1873.97 758.70 L1882.24 795.32 L1890.51 810.68 L1898.78 916.31 L1907.04 987.02 L1915.14 895.05 L1923.41 946.52 L1931.68 979.43 L1939.95 1086.07 L1948.22 1115.44 L1956.49 1083.38 L1964.76 1081.69 L1973.03 1055.70 L1981.29 1087.93 L1989.39 1114.26 L1997.66 1071.90 L2005.93 1050.81 L2014.20 1153.57 L2022.47 1214.83 L2030.74 1251.45 L2039.01 1270.18 L2047.28 1252.29 L2055.54 1284.53 L2063.64 1310.34 L2071.91 1343.59 L2080.18 1335.66 L2088.45 1283.51 L2096.72 1324.18 L2104.99 1318.95 L2113.26 1269.00 L2121.53 1234.91 L2129.79 1234.58 L2137.89 1162.86 L2146.16 1199.47 L2154.43 1152.73 L2162.70 1129.28 L2170.97 1120.67 L2179.24 1184.96 L2187.51 1188.84 L2195.78 1181.59 L2204.04 1184.46 L2212.14 1206.06 L2220.41 1279.63 L2228.68 1301.06 L2236.95 1367.38 L2245.22 1410.75 L2253.49 1427.46 L2261.76 1408.56 L2270.03 1426.95 L2278.29 1385.78 L2286.39 1397.93 L2294.66 1410.24 L2302.93 1420.54 L2311.20 1423.24 L2319.47 1428.98 L2327.74 1404.84 L2336.01 1402.14 L2344.28 1420.54 L2352.54 1430.49 L2360.64 1464.75 L2368.91 1467.28 L2377.18 1457.33 L2385.45 1473.02 L2393.72 1469.98 L2401.99 1457.83 L2410.26 1497.49 L2418.53 1496.31 L2426.79 1514.87 L2434.89 1566.34 L2443.16 1548.96 L2451.43 1547.94 L2459.70 1547.44 L2467.97 1571.40 L2476.24 1588.28 L2484.51 1618.14 L2492.78 1611.06 L2501.04 1625.06 L2509.14 1621.01 L2517.41 1621.18 L2525.68 1625.06 L2533.95 1647.51 L2542.22 1628.10 L2550.49 1635.86 L2558.76 1634.18 L2567.03 1622.03 L2575.29 1616.12 L2583.39 1607.18 L2591.66 1620.17 L2599.93 1628.94 L2608.20 1632.99 L2616.47 1629.79 L2624.74 1645.31 L2633.01 1635.86 L2641.28 1667.59 L2649.54 1678.73 L2657.64 1691.55 L2665.91 1695.94 L2674.18 1703.53 L2682.45 1698.81 L2690.72 1706.91 L2698.99 1716.69 L2707.26 1719.56 L2715.53 1730.03 L2723.79 1737.45 L2731.89 1751.63 L2740.16 1754.16 L2748.43 1743.86 L2756.70 1727.83 L2764.97 1732.22 L2773.24 1737.11 L2781.51 1750.44 L2789.78 1739.98 L2798.04 1718.89 L2806.14 1722.09 L2814.41 1707.58 L2822.68 1700.33 L2830.95 1731.04 L2839.22 1719.39 L2847.49 1724.79 L2855.76 1729.18 L2864.03 1732.73 L2872.29 1726.48 L2880.39 1719.39 L2888.66 1721.25 L2896.93 1731.71 L2905.20 1736.78 L2913.47 1751.63 L2921.74 1752.81 L2930.01 1731.04 L2938.28 1734.08 L2946.54 1733.91 L2954.64 1736.94 L2962.91 1746.73 L2971.18 1749.60 L2979.45 1762.59 L2987.72 1773.90 L2995.99 1776.77 L3004.26 1771.88 L3012.53 1765.97 L3020.79 1767.15 L3028.89 1778.29 L3037.16 1780.31 L3045.43 1778.29 L3053.70 1780.31 L3061.97 1783.18 L3070.24 1792.46 L3078.51 1795.84 L3086.78 1788.75 L3095.04 1785.04 L3103.14 1792.97 L3111.41 1793.14 L3119.68 1792.29 L3127.95 1805.29 L3136.22 1808.16 L3144.49 1815.75 L3152.76 1824.69 L3161.03 1819.97 L3169.29 1820.81 L3177.39 1817.44 L3185.66 1822.33 L3193.93 1832.29 L3202.20 1822.67 L3210.47 1827.90 L3218.74 1831.11 L3227.01 1831.44 L3235.28 1821.32 L3243.54 1800.39 L3251.64 1776.94 L3259.91 1765.13 L3268.18 1752.81 L3276.45 1747.58 L3284.72 1727.16 L3292.99 1715.01 L3301.26 1713.99 L3309.53 1700.16 L3317.79 1698.13 L3325.89 1690.71 L3334.16 1701.84 L3342.43 1714.16 L3350.70 1732.39 L3358.97 1726.14 L3367.24 1722.77 L3375.51 1724.12 L3383.78 1733.40 L3392.04 1731.21 L3400.14 1730.70 L3408.41 1734.58 L3416.68 1733.40 L3424.95 1714.67 L3433.22 1710.79 L3441.49 1696.95 L3449.76 1680.24 L3458.03 1678.56 L3466.29 1679.06 L3474.39 1675.86 L3482.66 1621.18 L3490.93 1623.88 L3499.20 1616.46 L3507.47 1611.90 L3515.74 1605.32 L3524.01 1611.39 L3532.28 1592.33 L3540.54 1597.39 L3548.64 1601.10 L3556.91 1598.57 L3565.18 1590.81 L3573.45 1599.92 L3581.72 1622.53 L3589.99 1616.79 L3598.26 1615.61 L3606.53 1614.26 L3614.79 1614.94 L3622.89 1605.32 L3631.16 1627.59 L3639.43 1641.43 L3647.70 1652.91 L3655.97 1664.55 L3664.24 1674.00 L3672.51 1675.35 L3680.78 1704.71 L3689.04 1706.06 L3697.14 1713.83 L3705.41 1720.74 L3713.68 1724.79 L3721.95 1742.34 L3730.22 1847.98 L3738.49 1833.98 L3746.76 1844.61 L3755.03 1811.03 L3763.29 1799.55 L3771.39 1790.10 L3779.66 1784.36 L3787.93 1790.78 L3796.20 1773.06 L3804.47 1752.98 L3812.74 1760.23 L3821.01 1751.29 L3829.28 1714.67 L3837.54 1709.61 L3845.64 1690.20 L3853.91 1704.54 L3862.18 1729.86 L3870.45 1711.46 L3878.72 1705.05 L3886.99 1699.99 L3895.26 1702.86 L3903.53 1707.58 L3911.79 1698.13 L3919.89 1689.19 L3928.16 1676.70 L3936.43 1689.86 L3944.70 1679.23 L3952.97 1699.31 L3961.24 1684.63 L3969.51 1701.51 L3977.78 1689.36 L3986.04 1682.61 L3994.14 1694.08 L4002.41 1691.21 L4010.68 1683.62 L4018.95 1690.88 L4027.22 1702.69 L4035.49 1707.92 L4043.76 1706.40 L4052.03 1695.94 L4060.29 1701.84 L4068.56 1712.14 L4076.66 1736.27 L4084.93 1714.16 L4093.20 1709.10 L4101.47 1719.23 L4109.74 1726.65 L4118.01 1721.08 L4126.27 1708.76 L4134.54 1701.51 L4142.81 1694.93 L4150.91 1690.88 L4159.18 1683.96 L4167.45 1678.56 L4175.72 1651.89 L4183.99 1686.83 L4192.26 1682.10 L4200.52 1669.11 L4208.79 1663.37 L4217.06 1656.79 L4225.16 1657.97 L4233.43 1661.01 L4241.70 1661.34 L4249.97 1687.33 L4258.24 1694.59 L4266.51 1690.03 L4274.77 1696.44 L4283.04 1709.10 L4291.31 1705.73 L4299.41 1713.99 L4307.68 1719.90 L4315.95 1733.57 L4324.22 1709.27 L4332.49 1725.47 L4340.76 1725.64 L4349.02 1729.18 L4357.29 1730.19 L4365.56 1722.77 L4373.66 1745.72 L4381.93 1721.59 L4390.20 1739.31 L4398.47 1735.93 L4406.74 1744.37 L4415.01 1751.79 L4423.27 1737.79 L4431.54 1723.61 L4439.81 1757.36 L4447.91 1724.96 L4456.18 1731.04 L4464.45 1710.96 L4472.72 1692.73 L4480.99 1674.17 L4489.26 1708.76 L4497.52 1696.78 L4505.79 1685.98 L4514.06 1710.96 L4522.16 1724.29 L4530.43 1729.35 L4538.70 1733.40 L4546.97 1752.81 L4555.24 1741.16 L4563.51 1760.57 L4571.77 1779.98 L4580.04 1795.50 L4588.31 1764.45 L4596.41 1776.09 L4604.68 1779.98 L4612.95 1787.74 L4621.22 1787.74 L4629.49 1768.33 L4637.76 1752.81 L4646.02 1737.28 L4654.29 1733.40 L4662.56 1745.04 L4670.66 1741.16 L4678.93 1733.40 L4687.20 1764.45 L4695.47 1760.57 L4703.74 1772.21 L4712.01 1756.69 L4720.27 1752.81 L4728.54 1764.45 L4736.81 1752.81 L4744.91 1830.60 L4753.18 1834.48 L4761.45 1826.72 L4769.72 1826.72 L4777.99 1826.72 L4786.26 1791.62 L4794.52 1779.98 L4802.79 1756.69 L4811.06 1779.98 L4819.16 1768.33 L4827.43 1772.21 L4835.70 1764.45 L4843.97 1710.11 L4852.24 1717.88 L4860.51 1702.35 L4868.77 1679.06 L4877.04 1686.83 L4885.31 1713.99 L4893.41 1702.35 L4901.68 1706.23 L4909.95 1671.30 L4918.22 1640.08 L4926.49 1640.08 L4934.76 1643.96 L4943.02 1620.68 L4951.29 1558.58 L4959.56 1543.05 L4967.66 1550.81 L4975.93 1504.07 L4984.20 1504.07 L4992.47 1511.83 L5000.74 1515.88 L5009.01 1515.88 L5017.27 1500.19 L5025.54 1500.19 L5033.81 1500.19 L5041.91 1515.88 L5050.18 1535.29 L5058.45 1539.17 L5066.72 1570.22 L5074.99 1624.56" stroke-linejoin="round" style="fill:none;stroke:#0080FF;stroke-width:9.72"/>
	<path d=" M958.16 1518.75 L966.43 1518.75 L974.70 1518.75 L982.97 1518.75 L991.24 1518.75 L999.51 1518.75 L1007.78 1518.75 L1016.04 1518.75 L1024.14 1518.75 L1032.41 1518.75 L1040.68 1518.75 L1048.95 1518.75 L1057.22 1518.75 L1065.49 1518.75 L1073.76 1518.75 L1082.03 1518.75 L1090.29 1518.75 L1098.39 1518.75 L1106.66 1518.75 L1114.93 1518.75 L1123.20 1518.75 L1131.47 1518.75 L1139.74 1518.75 L1148.01 1518.75 L1156.28 1518.75 L1164.54 1518.75 L1172.64 1518.75 L1180.91 1518.75 L1189.18 1518.75 L1197.45 1518.75 L1205.72 1518.75 L1213.99 1518.75 L1222.26 1518.75 L1230.53 1518.75 L1238.79 1518.75 L1246.89 1518.75 L1255.16 1518.75 L1263.43 1518.75 L1271.70 1518.75 L1279.97 1518.75 L1288.24 1518.75 L1296.51 1518.75 L1304.78 1518.75 L1313.04 1518.75 L1321.14 1518.75 L1329.41 1518.75 L1337.68 1518.75 L1345.95 1518.75 L1354.22 1518.75 L1362.49 1518.75 L1370.76 1518.75 L1379.03 1518.75 L1387.29 1518.75 L1395.39 1518.75 L1403.66 1518.75 L1411.93 1518.75 L1420.20 1518.75 L1428.47 1518.75 L1436.74 1518.75 L1445.01 1518.75 L1453.28 1518.75 L1461.54 1518.75 L1469.64 1518.75 L1477.91 1518.75 L1486.18 1518.75 L1494.45 1518.75 L1502.72 1518.75 L1510.99 1518.75 L1519.26 1518.75 L1527.53 1518.75 L1535.79 1518.75 L1543.89 1518.75 L1552.16 1518.75 L1560.43 1518.75 L1568.70 1518.75 L1576.97 1518.75 L1585.24 1518.75 L1593.51 1518.75 L1601.78 1518.75 L1610.04 1518.75 L1618.14 1518.75 L1626.41 1518.75 L1634.68 1518.75 L1642.95 1518.75 L1651.22 1518.75 L1659.49 1518.75 L1667.76 1518.75 L1676.03 1518.75 L1684.29 1518.75 L1692.39 1518.75 L1700.66 1518.75 L1708.93 1518.75 L1717.20 1518.75 L1725.47 1518.75 L1733.74 1518.75 L1742.01 1518.75 L1750.28 1518.75 L1758.54 1518.75 L1766.64 1518.75 L1774.91 1518.75 L1783.18 1518.75 L1791.45 1518.75 L1799.72 1518.75 L1807.99 1518.75 L1816.26 1518.75 L1824.53 1518.75 L1832.79 1518.75 L1840.89 1518.75 L1849.16 1518.75 L1857.43 1518.75 L1865.70 1518.75 L1873.97 1518.75 L1882.24 1518.75 L1890.51 1518.75 L1898.78 1518.75 L1907.04 1518.75 L1915.14 1518.75 L1923.41 1518.75 L1931.68 1518.75 L1939.95 1518.75 L1948.22 1518.75 L1956.49 1518.75 L1964.76 1518.75 L1973.03 1518.75 L1981.29 1518.75 L1989.39 1518.75 L1997.66 1518.75 L2005.93 1518.75 L2014.20 1518.75 L2022.47 1518.75 L2030.74 1518.75 L2039.01 1518.75 L2047.28 1518.75 L2055.54 1518.75 L2063.64 1518.75 L2071.91 1518.75 L2080.18 1518.75 L2088.45 1518.75 L2096.72 1518.75 L2104.99 1518.75 L2113.26 1518.75 L2121.53 1518.75 L2129.79 1518.75 L2137.89 1518.75 L2146.16 1518.75 L2154.43 1518.75 L2162.70 1518.75 L2170.97 1518.75 L2179.24 1518.75 L2187.51 1518.75 L2195.78 1518.75 L2204.04 1518.75 L2212.14 1518.75 L2220.41 1518.75 L2228.68 1518.75 L2236.95 1518.75 L2245.22 1518.75 L2253.49 1518.75 L2261.76 1518.75 L2270.03 1518.75 L2278.29 1518.75 L2286.39 1518.75 L2294.66 1518.75 L2302.93 1518.75 L2311.20 1518.75 L2319.47 1518.75 L2327.74 1518.75 L2336.01 1518.75 L2344.28 1518.75 L2352.54 1518.75 L2360.64 1518.75 L2368.91 1518.75 L2377.18 1518.75 L2385.45 1518.75 L2393.72 1518.75 L2401.99 1518.75 L2410.26 1518.75 L2418.53 1518.75 L2426.79 1518.75 L2434.89 1518.75 L2443.16 1518.75 L2451.43 1518.75 L2459.70 1518.75 L2467.97 1518.75 L2476.24 1518.75 L2484.51 1518.75 L2492.78 1518.75 L2501.04 1518.75 L2509.14 1518.75 L2517.41 1518.75 L2525.68 1518.75 L2533.95 1518.75 L2542.22 1518.75 L2550.49 1518.75 L2558.76 1518.75 L2567.03 1518.75 L2575.29 1518.75 L2583.39 1518.75 L2591.66 1518.75 L2599.93 1518.75 L2608.20 1518.75 L2616.47 1518.75 L2624.74 1518.75 L2633.01 1518.75 L2641.28 1518.75 L2649.54 1518.75 L2657.64 1518.75 L2665.91 1518.75 L2674.18 1518.75 L2682.45 1518.75 L2690.72 1518.75 L2698.99 1518.75 L2707.26 1518.75 L2715.53 1518.75 L2723.79 1518.75 L2731.89 1518.75 L2740.16 1518.75 L2748.43 1518.75 L2756.70 1518.75 L2764.97 1518.75 L2773.24 1518.75 L2781.51 1518.75 L2789.78 1518.75 L2798.04 1518.75 L2806.14 1518.75 L2814.41 1518.75 L2822.68 1518.75 L2830.95 1518.75 L2839.22 1518.75 L2847.49 1518.75 L2855.76 1518.75 L2864.03 1518.75 L2872.29 1518.75 L2880.39 1518.75 L2888.66 1518.75 L2896.93 1518.75 L2905.20 1518.75 L2913.47 1518.75 L2921.74 1518.75 L2930.01 1518.75 L2938.28 1518.75 L2946.54 1518.75 L2954.64 1518.75 L2962.91 1518.75 L2971.18 1518.75 L2979.45 1518.75 L2987.72 1518.75 L2995.99 1518.75 L3004.26 1518.75 L3012.53 1518.75 L3020.79 1518.75 L3028.89 1518.75 L3037.16 1518.75 L3045.43 1518.75 L3053.70 1518.75 L3061.97 1518.75 L3070.24 1518.75 L3078.51 1518.75 L3086.78 1518.75 L3095.04 1518.75 L3103.14 1518.75 L3111.41 1518.75 L3119.68 1518.75 L3127.95 1518.75 L3136.22 1518.75 L3144.49 1518.75 L3152.76 1518.75 L3161.03 1518.75 L3169.29 1518.75 L3177.39 1518.75 L3185.66 1518.75 L3193.93 1518.75 L3202.20 1518.75 L3210.47 1518.75 L3218.74 1518.75 L3227.01 1518.75 L3235.28 1518.75 L3243.54 1518.75 L3251.64 1518.75 L3259.91 1518.75 L3268.18 1518.75 L3276.45 1518.75 L3284.72 1518.75 L3292.99 1518.75 L3301.26 1518.75 L3309.53 1518.75 L3317.79 1518.75 L3325.89 1518.75 L3334.16 1518.75 L3342.43 1518.75 L3350.70 1518.75 L3358.97 1518.75 L3367.24 1518.75 L3375.51 1518.75 L3383.78 1518.75 L3392.04 1518.75 L3400.14 1518.75 L3408.41 1518.75 L3416.68 1518.75 L3424.95 1518.75 L3433.22 1518.75 L3441.49 1518.75 L3449.76 1518.75 L3458.03 1518.75 L3466.29 1518.75 L3474.39 1518.75 L3482.66 1518.75 L3490.93 1518.75 L3499.20 1518.75 L3507.47 1518.75 L3515.74 1518.75 L3524.01 1518.75 L3532.28 1518.75 L3540.54 1518.75 L3548.64 1518.75 L3556.91 1518.75 L3565.18 1518.75 L3573.45 1518.75 L3581.72 1518.75 L3589.99 1518.75 L3598.26 1518.75 L3606.53 1518.75 L3614.79 1518.75 L3622.89 1518.75 L3631.16 1518.75 L3639.43 1518.75 L3647.70 1518.75 L3655.97 1518.75 L3664.24 1518.75 L3672.51 1518.75 L3680.78 1518.75 L3689.04 1518.75 L3697.14 1518.75 L3705.41 1518.75 L3713.68 1518.75 L3721.95 1518.75 L3730.22 1518.75 L3738.49 1518.75 L3746.76 1518.75 L3755.03 1518.75 L3763.29 1518.75 L3771.39 1518.75 L3779.66 1518.75 L3787.93 1518.75 L3796.20 1518.75 L3804.47 1518.75 L3812.74 1518.75 L3821.01 1518.75 L3829.28 1518.75 L3837.54 1518.75 L3845.64 1518.75 L3853.91 1518.75 L3862.18 1518.75 L3870.45 1518.75 L3878.72 1518.75 L3886.99 1518.75 L3895.26 1518.75 L3903.53 1518.75 L3911.79 1518.75 L3919.89 1518.75 L3928.16 1518.75 L3936.43 1518.75 L3944.70 1518.75 L3952.97 1518.75 L3961.24 1518.75 L3969.51 1518.75 L3977.78 1518.75 L3986.04 1518.75 L3994.14 1518.75 L4002.41 1518.75 L4010.68 1518.75 L4018.95 1518.75 L4027.22 1518.75 L4035.49 1518.75 L4043.76 1518.75 L4052.03 1518.75 L4060.29 1518.75 L4068.56 1518.75 L4076.66 1518.75 L4084.93 1518.75 L4093.20 1518.75 L4101.47 1518.75 L4109.74 1518.75 L4118.01 1518.75 L4126.27 1518.75 L4134.54 1518.75 L4142.81 1518.75 L4150.91 1518.75 L4159.18 1518.75 L4167.45 1518.75 L4175.72 1518.75 L4183.99 1518.75 L4192.26 1518.75 L4200.52 1518.75 L4208.79 1518.75 L4217.06 1518.75 L4225.16 1518.75 L4233.43 1518.75 L4241.70 1518.75 L4249.97 1518.75 L4258.24 1518.75 L4266.51 1518.75 L4274.77 1518.75 L4283.04 1518.75 L4291.31 1518.75 L4299.41 1518.75 L4307.68 1518.75 L4315.95 1518.75 L4324.22 1518.75 L4332.49 1518.75 L4340.76 1518.75 L4349.02 1518.75 L4357.29 1518.75 L4365.56 1518.75 L4373.66 1518.75 L4381.93 1518.75 L4390.20 1518.75 L4398.47 1518.75 L4406.74 1518.75 L4415.01 1518.75 L4423.27 1518.75 L4431.54 1518.75 L4439.81 1518.75 L4447.91 1518.75 L4456.18 1518.75 L4464.45 1518.75 L4472.72 1518.75 L4480.99 1518.75 L4489.26 1518.75 L4497.52 1518.75 L4505.79 1518.75 L4514.06 1518.75 L4522.16 1518.75 L4530.43 1518.75 L4538.70 1518.75 L4546.97 1518.75 L4555.24 1518.75 L4563.51 1518.75 L4571.77 1518.75 L4580.04 1518.75 L4588.31 1518.75 L4596.41 1518.75 L4604.68 1518.75 L4612.95 1518.75 L4621.22 1518.75 L4629.49 1518.75 L4637.76 1518.75 L4646.02 1518.75 L4654.29 1518.75 L4662.56 1518.75 L4670.66 1518.75 L4678.93 1518.75 L4687.20 1518.75 L4695.47 1518.75 L4703.74 1518.75 L4712.01 1518.75 L4720.27 1518.75 L4728.54 1518.75 L4736.81 1518.75 L4744.91 1518.75 L4753.18 1518.75 L4761.45 1518.75 L4769.72 1518.75 L4777.99 1518.75 L4786.26 1518.75 L4794.52 1518.75 L4802.79 1518.75 L4811.06 1518.75 L4819.16 1518.75 L4827.43 1518.75 L4835.70 1518.75 L4843.97 1518.75 L4852.24 1518.75 L4860.51 1518.75 L4868.77 1518.75 L4877.04 1518.75 L4885.31 1518.75 L4893.41 1518.75 L4901.68 1518.75 L4909.95 1518.75 L4918.22 1518.75 L4926.49 1518.75 L4934.76 1518.75 L4943.02 1518.75 L4951.29 1518.75 L4959.56 1518.75 L4967.66 1518.75 L4975.93 1518.75 L4984.20 1518.75 L4992.47 1518.75 L5000.74 1518.75 L5009.01 1518.75 L5017.27 1518.75 L5025.54 1518.75 L5033.81 1518.75 L5041.91 1518.75 L5050.18 1518.75 L5058.45 1518.75 L5066.72 1518.75 L5074.99 1518.75 L5083.26 1518.75 L5091.52 1518.75 L5099.79 1518.75 L5108.06 1518.75 L5116.16 1518.75 L5124.43 1518.75 L5132.70 1518.75 L5140.97 1518.75 L5149.24 1518.75 L5157.51 1518.75" stroke-linejoin="round" style="fill:none;stroke:#D41159;stroke-width:9.72"/>
	<path d=" M958.16 1513.01 L966.43 1503.56 L974.70 1493.94 L982.97 1484.33 L991.24 1474.71 L999.51 1464.92 L1007.78 1455.30 L1016.04 1445.51 L1024.14 1435.89 L1032.41 1425.94 L1040.68 1416.15 L1048.95 1406.19 L1057.22 1396.24 L1065.49 1386.28 L1073.76 1376.33 L1082.03 1366.20 L1090.29 1356.24 L1098.39 1346.12 L1106.66 1336.16 L1114.93 1326.21 L1123.20 1316.42 L1131.47 1306.63 L1139.74 1296.84 L1148.01 1287.22 L1156.28 1277.78 L1164.54 1268.49 L1172.64 1259.38 L1180.91 1250.44 L1189.18 1241.66 L1197.45 1232.89 L1205.72 1224.45 L1213.99 1216.18 L1222.26 1208.25 L1230.53 1200.32 L1238.79 1192.72 L1246.89 1185.30 L1255.16 1178.04 L1263.43 1171.13 L1271.70 1164.21 L1279.97 1157.79 L1288.24 1151.55 L1296.51 1145.47 L1304.78 1139.74 L1313.04 1134.17 L1321.14 1128.77 L1329.41 1123.88 L1337.68 1118.98 L1345.95 1114.43 L1354.22 1110.04 L1362.49 1105.99 L1370.76 1102.11 L1379.03 1098.39 L1387.29 1094.85 L1395.39 1091.47 L1403.66 1088.44 L1411.93 1085.40 L1420.20 1082.36 L1428.47 1079.66 L1436.74 1076.96 L1445.01 1074.43 L1453.28 1071.90 L1461.54 1069.54 L1469.64 1067.18 L1477.91 1064.81 L1486.18 1062.62 L1494.45 1060.43 L1502.72 1058.23 L1510.99 1056.04 L1519.26 1053.84 L1527.53 1051.82 L1535.79 1049.79 L1543.89 1047.77 L1552.16 1045.74 L1560.43 1043.72 L1568.70 1041.69 L1576.97 1039.67 L1585.24 1037.81 L1593.51 1035.79 L1601.78 1033.93 L1610.04 1031.91 L1618.14 1030.05 L1626.41 1028.19 L1634.68 1026.34 L1642.95 1024.48 L1651.22 1022.63 L1659.49 1020.77 L1667.76 1018.91 L1676.03 1017.06 L1684.29 1015.37 L1692.39 1013.68 L1700.66 1011.99 L1708.93 1010.31 L1717.20 1008.79 L1725.47 1007.27 L1733.74 1005.92 L1742.01 1004.74 L1750.28 1003.56 L1758.54 1002.71 L1766.64 1002.04 L1774.91 1001.53 L1783.18 1001.19 L1791.45 1001.19 L1799.72 1001.36 L1807.99 1001.87 L1816.26 1002.71 L1824.53 1003.72 L1832.79 1005.07 L1840.89 1006.76 L1849.16 1008.79 L1857.43 1010.98 L1865.70 1013.68 L1873.97 1016.72 L1882.24 1019.93 L1890.51 1023.64 L1898.78 1027.52 L1907.04 1031.74 L1915.14 1036.29 L1923.41 1041.02 L1931.68 1046.08 L1939.95 1051.31 L1948.22 1056.88 L1956.49 1062.62 L1964.76 1068.69 L1973.03 1074.77 L1981.29 1081.18 L1989.39 1087.76 L1997.66 1094.34 L2005.93 1101.26 L2014.20 1108.18 L2022.47 1115.44 L2030.74 1122.53 L2039.01 1129.95 L2047.28 1137.38 L2055.54 1144.80 L2063.64 1152.39 L2071.91 1160.16 L2080.18 1167.75 L2088.45 1175.51 L2096.72 1183.44 L2104.99 1191.21 L2113.26 1199.14 L2121.53 1207.07 L2129.79 1215.17 L2137.89 1223.27 L2146.16 1231.37 L2154.43 1239.47 L2162.70 1247.74 L2170.97 1256.01 L2179.24 1264.28 L2187.51 1272.54 L2195.78 1280.98 L2204.04 1289.25 L2212.14 1297.69 L2220.41 1306.13 L2228.68 1314.73 L2236.95 1323.17 L2245.22 1331.61 L2253.49 1340.04 L2261.76 1348.48 L2270.03 1357.09 L2278.29 1365.36 L2286.39 1373.79 L2294.66 1382.23 L2302.93 1390.50 L2311.20 1398.77 L2319.47 1407.04 L2327.74 1415.31 L2336.01 1423.58 L2344.28 1431.68 L2352.54 1439.61 L2360.64 1447.71 L2368.91 1455.64 L2377.18 1463.57 L2385.45 1471.33 L2393.72 1479.09 L2401.99 1486.69 L2410.26 1494.28 L2418.53 1501.88 L2426.79 1509.30 L2434.89 1516.73 L2443.16 1523.98 L2451.43 1531.07 L2459.70 1538.16 L2467.97 1545.08 L2476.24 1551.99 L2484.51 1558.74 L2492.78 1565.33 L2501.04 1571.91 L2509.14 1578.32 L2517.41 1584.56 L2525.68 1590.81 L2533.95 1596.88 L2542.22 1602.79 L2550.49 1608.69 L2558.76 1614.43 L2567.03 1620.00 L2575.29 1625.40 L2583.39 1630.80 L2591.66 1636.20 L2599.93 1641.26 L2608.20 1646.33 L2616.47 1651.39 L2624.74 1656.11 L2633.01 1660.84 L2641.28 1665.56 L2649.54 1669.95 L2657.64 1674.34 L2665.91 1678.73 L2674.18 1682.94 L2682.45 1686.99 L2690.72 1690.88 L2698.99 1694.76 L2707.26 1698.47 L2715.53 1702.01 L2723.79 1705.56 L2731.89 1708.93 L2740.16 1712.31 L2748.43 1715.51 L2756.70 1718.55 L2764.97 1721.59 L2773.24 1724.46 L2781.51 1727.16 L2789.78 1729.86 L2798.04 1732.56 L2806.14 1735.09 L2814.41 1737.45 L2822.68 1739.81 L2830.95 1742.18 L2839.22 1744.37 L2847.49 1746.39 L2855.76 1748.42 L2864.03 1750.44 L2872.29 1752.30 L2880.39 1754.16 L2888.66 1755.84 L2896.93 1757.53 L2905.20 1759.05 L2913.47 1760.57 L2921.74 1762.09 L2930.01 1763.44 L2938.28 1764.79 L2946.54 1765.97 L2954.64 1767.15 L2962.91 1768.33 L2971.18 1769.34 L2979.45 1770.19 L2987.72 1771.03 L2995.99 1771.88 L3004.26 1772.55 L3012.53 1773.23 L3020.79 1773.73 L3028.89 1774.24 L3037.16 1774.74 L3045.43 1774.91 L3053.70 1775.25 L3061.97 1775.25 L3070.24 1775.25 L3078.51 1775.25 L3086.78 1775.08 L3095.04 1774.91 L3103.14 1774.58 L3111.41 1774.07 L3119.68 1773.56 L3127.95 1772.89 L3136.22 1772.21 L3144.49 1771.37 L3152.76 1770.53 L3161.03 1769.51 L3169.29 1768.33 L3177.39 1767.15 L3185.66 1765.80 L3193.93 1764.45 L3202.20 1762.93 L3210.47 1761.41 L3218.74 1759.73 L3227.01 1758.04 L3235.28 1756.18 L3243.54 1754.33 L3251.64 1752.47 L3259.91 1750.44 L3268.18 1748.42 L3276.45 1746.23 L3284.72 1744.20 L3292.99 1742.01 L3301.26 1739.81 L3309.53 1737.62 L3317.79 1735.43 L3325.89 1733.23 L3334.16 1731.04 L3342.43 1728.84 L3350.70 1726.65 L3358.97 1724.46 L3367.24 1722.26 L3375.51 1720.07 L3383.78 1717.88 L3392.04 1715.85 L3400.14 1713.83 L3408.41 1711.80 L3416.68 1709.78 L3424.95 1707.92 L3433.22 1706.06 L3441.49 1704.21 L3449.76 1702.52 L3458.03 1700.83 L3466.29 1699.14 L3474.39 1697.63 L3482.66 1696.28 L3490.93 1694.93 L3499.20 1693.74 L3507.47 1692.56 L3515.74 1691.55 L3524.01 1690.54 L3532.28 1689.86 L3540.54 1689.02 L3548.64 1688.51 L3556.91 1688.01 L3565.18 1687.67 L3573.45 1687.33 L3581.72 1687.16 L3589.99 1687.16 L3598.26 1687.16 L3606.53 1687.16 L3614.79 1687.50 L3622.89 1687.67 L3631.16 1688.01 L3639.43 1688.51 L3647.70 1689.02 L3655.97 1689.53 L3664.24 1690.20 L3672.51 1690.88 L3680.78 1691.38 L3689.04 1692.23 L3697.14 1692.90 L3705.41 1693.58 L3713.68 1694.25 L3721.95 1695.09 L3730.22 1695.77 L3738.49 1696.44 L3746.76 1697.12 L3755.03 1697.63 L3763.29 1698.30 L3771.39 1698.81 L3779.66 1699.31 L3787.93 1699.82 L3796.20 1700.16 L3804.47 1700.66 L3812.74 1701.00 L3821.01 1701.34 L3829.28 1701.51 L3837.54 1701.84 L3845.64 1702.01 L3853.91 1702.18 L3862.18 1702.35 L3870.45 1702.52 L3878.72 1702.52 L3886.99 1702.69 L3895.26 1702.69 L3903.53 1702.69 L3911.79 1702.69 L3919.89 1702.86 L3928.16 1702.86 L3936.43 1702.86 L3944.70 1702.86 L3952.97 1702.86 L3961.24 1702.86 L3969.51 1702.86 L3977.78 1702.86 L3986.04 1702.86 L3994.14 1702.86 L4002.41 1702.86 L4010.68 1702.86 L4018.95 1702.86 L4027.22 1703.03 L4035.49 1703.03 L4043.76 1703.03 L4052.03 1703.19 L4060.29 1703.36 L4068.56 1703.36 L4076.66 1703.53 L4084.93 1703.70 L4093.20 1703.87 L4101.47 1704.04 L4109.74 1704.38 L4118.01 1704.54 L4126.27 1704.88 L4134.54 1705.22 L4142.81 1705.56 L4150.91 1705.89 L4159.18 1706.23 L4167.45 1706.74 L4175.72 1707.24 L4183.99 1707.75 L4192.26 1708.26 L4200.52 1708.76 L4208.79 1709.44 L4217.06 1710.11 L4225.16 1710.79 L4233.43 1711.63 L4241.70 1712.31 L4249.97 1713.15 L4258.24 1713.99 L4266.51 1715.01 L4274.77 1715.85 L4283.04 1716.86 L4291.31 1717.88 L4299.41 1718.89 L4307.68 1719.90 L4315.95 1720.91 L4324.22 1721.93 L4332.49 1723.11 L4340.76 1724.12 L4349.02 1725.30 L4357.29 1726.31 L4365.56 1727.49 L4373.66 1728.51 L4381.93 1729.69 L4390.20 1730.70 L4398.47 1731.88 L4406.74 1732.89 L4415.01 1734.08 L4423.27 1735.09 L4431.54 1736.10 L4439.81 1737.11 L4447.91 1738.13 L4456.18 1739.14 L4464.45 1739.98 L4472.72 1740.99 L4480.99 1741.84 L4489.26 1742.68 L4497.52 1743.53 L4505.79 1744.37 L4514.06 1745.04 L4522.16 1745.72 L4530.43 1746.39 L4538.70 1746.90 L4546.97 1747.58 L4555.24 1747.91 L4563.51 1748.25 L4571.77 1748.59 L4580.04 1748.76 L4588.31 1748.93 L4596.41 1748.93 L4604.68 1748.93 L4612.95 1748.76 L4621.22 1748.42 L4629.49 1748.08 L4637.76 1747.58 L4646.02 1746.90 L4654.29 1746.23 L4662.56 1745.21 L4670.66 1744.37 L4678.93 1743.19 L4687.20 1742.01 L4695.47 1740.49 L4703.74 1738.97 L4712.01 1737.45 L4720.27 1735.59 L4728.54 1733.57 L4736.81 1731.54 L4744.91 1729.18 L4753.18 1726.82 L4761.45 1724.29 L4769.72 1721.59 L4777.99 1718.72 L4786.26 1715.68 L4794.52 1712.48 L4802.79 1709.10 L4811.06 1705.56 L4819.16 1702.01 L4827.43 1698.30 L4835.70 1694.25 L4843.97 1690.37 L4852.24 1686.15 L4860.51 1681.93 L4868.77 1677.54 L4877.04 1672.99 L4885.31 1668.43 L4893.41 1663.71 L4901.68 1658.98 L4909.95 1654.09 L4918.22 1649.19 L4926.49 1644.13 L4934.76 1639.07 L4943.02 1634.01 L4951.29 1628.94 L4959.56 1623.71 L4967.66 1618.48 L4975.93 1613.25 L4984.20 1608.02 L4992.47 1602.79 L5000.74 1597.56 L5009.01 1592.33 L5017.27 1587.09 L5025.54 1581.69 L5033.81 1576.46 L5041.91 1571.23 L5050.18 1566.00 L5058.45 1560.77 L5066.72 1555.37 L5074.99 1550.14" stroke-linejoin="round" style="fill:none;stroke:#00BF7F;stroke-width:9.72"/>
	<path d=" M5083.26 1634.68 L5091.52 1647.00 L5099.79 1652.40 L5108.06 1646.33 L5116.16 1638.23 L5124.43 1626.75 L5132.70 1613.42 L5140.97 1600.09 L5149.24 1587.09 L5157.51 1575.28" stroke-linejoin="round" style="fill:none;stroke:#FFD400;stroke-width:9.72"/>
	<line x1="689.01" y1="2006.61" x2="689.01" y2="309.82" style="stroke:#000000;stroke-width:6.48"/>
	<line x1="689.01" y1="1935.39" x2="643.95" y2="1935.39" style="stroke:#000000;stroke-width:6.48"/>
	<text x="621.51" y="1974.83" style="font-family:'Helvetica';font-size:112.56px;fill:#000000" text-anchor="end">0.00</text>
	<line x1="689.01" y1="1546.76" x2="643.95" y2="1546.76" style="stroke:#000000;stroke-width:6.48"/>
	<text x="621.51" y="1586.20" style="font-family:'Helvetica';font-size:112.56px;fill:#000000" text-anchor="end">10.00</text>
	<line x1="689.01" y1="1158.30" x2="643.95" y2="1158.30" style="stroke:#000000;stroke-width:6.48"/>
	<text x="621.51" y="1197.74" style="font-family:'Helvetica';font-size:112.56px;fill:#000000" text-anchor="end">20.00</text>
	<line x1="689.01" y1="769.67" x2="643.95" y2="769.67" style="stroke:#000000;stroke-width:6.48"/>
	<text x="621.51" y="809.11" style="font-family:'Helvetica';font-size:112.56px;fill:#000000" text-anchor="end">30.00</text>
	<line x1="689.01" y1="381.04" x2="643.95" y2="381.04" style="stroke:#000000;stroke-width:6.48"/>
	<text x="621.51" y="420.47" style="font-family:'Helvetica';font-size:112.56px;fill:#000000" text-anchor="end">40.00</text>
	<text x="214.55" y="1158.30" style="font-family:'Helvetica';font-size:112.56px;fill:#000000" transform="rotate(-90 214.55,1158.30)" text-anchor="middle">Crecimiento porcentual</text>
	<line x1="689.01" y1="2006.61" x2="5286.60" y2="2006.61" style="stroke:#000000;stroke-width:6.48"/>
	<line x1="760.22" y1="2006.61" x2="760.22" y2="2051.66" style="stroke:#000000;stroke-width:6.48"/>
	<text x="760.22" y="2152.81" style="font-family:'Helvetica';font-size:112.56px;fill:#000000" text-anchor="middle">1980m1</text>
	<line x1="1255.33" y1="2006.61" x2="1255.33" y2="2051.66" style="stroke:#000000;stroke-width:6.48"/>
	<text x="1255.33" y="2152.81" style="font-family:'Helvetica';font-size:112.56px;fill:#000000" text-anchor="middle">1985m1</text>
	<line x1="1750.28" y1="2006.61" x2="1750.28" y2="2051.66" style="stroke:#000000;stroke-width:6.48"/>
	<text x="1750.28" y="2152.81" style="font-family:'Helvetica';font-size:112.56px;fill:#000000" text-anchor="middle">1990m1</text>
	<line x1="2245.22" y1="2006.61" x2="2245.22" y2="2051.66" style="stroke:#000000;stroke-width:6.48"/>
	<text x="2245.22" y="2152.81" style="font-family:'Helvetica';font-size:112.56px;fill:#000000" text-anchor="middle">1995m1</text>
	<line x1="2740.33" y1="2006.61" x2="2740.33" y2="2051.66" style="stroke:#000000;stroke-width:6.48"/>
	<text x="2740.33" y="2152.81" style="font-family:'Helvetica';font-size:112.56px;fill:#000000" text-anchor="middle">2000m1</text>
	<line x1="3235.28" y1="2006.61" x2="3235.28" y2="2051.66" style="stroke:#000000;stroke-width:6.48"/>
	<text x="3235.28" y="2152.81" style="font-family:'Helvetica';font-size:112.56px;fill:#000000" text-anchor="middle">2005m1</text>
	<line x1="3730.39" y1="2006.61" x2="3730.39" y2="2051.66" style="stroke:#000000;stroke-width:6.48"/>
	<text x="3730.39" y="2152.81" style="font-family:'Helvetica';font-size:112.56px;fill:#000000" text-anchor="middle">2010m1</text>
	<line x1="4225.33" y1="2006.61" x2="4225.33" y2="2051.66" style="stroke:#000000;stroke-width:6.48"/>
	<text x="4225.33" y="2152.81" style="font-family:'Helvetica';font-size:112.56px;fill:#000000" text-anchor="middle">2015m1</text>
	<line x1="4720.27" y1="2006.61" x2="4720.27" y2="2051.66" style="stroke:#000000;stroke-width:6.48"/>
	<text x="4720.27" y="2152.81" style="font-family:'Helvetica';font-size:112.56px;fill:#000000" text-anchor="middle">2020m1</text>
	<line x1="5215.39" y1="2006.61" x2="5215.39" y2="2051.66" style="stroke:#000000;stroke-width:6.48"/>
	<text x="5215.39" y="2152.81" style="font-family:'Helvetica';font-size:112.56px;fill:#000000" text-anchor="middle">2025m1</text>
	<text x="2987.89" y="2310.25" style="font-family:'Helvetica';font-size:112.56px;fill:#000000" text-anchor="middle">Mes</text>
	<rect x="2081.87" y="2405.53" width="1811.87" height="682.26" style="fill:#FFFFFF"/>
	<rect x="2085.11" y="2408.77" width="1805.39" height="675.78" style="fill:none;stroke:#FFFFFF;stroke-width:6.48"/>
	<line x1="2130.47" y1="2510.32" x2="2389.67" y2="2510.32" style="stroke:#0080FF;stroke-width:9.72"/>
	<line x1="2130.47" y1="2667.94" x2="2389.67" y2="2667.94" style="stroke:#D41159;stroke-width:9.72"/>
	<line x1="2130.47" y1="2825.38" x2="2389.67" y2="2825.38" style="stroke:#00BF7F;stroke-width:9.72"/>
	<line x1="2130.47" y1="2982.83" x2="2389.67" y2="2982.83" style="stroke:#FFD400;stroke-width:9.72"/>
	<text x="2457.17" y="2549.76" style="font-family:'Helvetica';font-size:112.56px;fill:#000000">Índice de Remuneraciones</text>
	<text x="2457.17" y="2707.37" style="font-family:'Helvetica';font-size:112.56px;fill:#000000">Media Incondicional</text>
	<text x="2457.17" y="2864.82" style="font-family:'Helvetica';font-size:112.56px;fill:#000000">Tendencia de Filtro HP</text>
	<text x="2457.17" y="3022.26" style="font-family:'Helvetica';font-size:112.56px;fill:#000000">Proyección del ciclo</text>
	<text x="2987.89" y="243.10" style="font-family:'Helvetica';font-size:157.44px;fill:#000000" text-anchor="middle">Evolución del Crecimiento (%) del Índice de remuneraciones</text>
</svg>
