<?xml version="1.0" encoding="UTF-8" standalone="no"?>
<!-- This is a Stata 18.0 generated SVG file (http://www.stata.com) -->

<svg version="1.1" width="6.000in" height="4.000in" viewBox="0 0 4320 2880" xmlns="http://www.w3.org/2000/svg" xmlns:xlink="http://www.w3.org/1999/xlink">
	<desc>Stata Graph - Graph</desc>
	<rect x="0" y="0" width="4320" height="2880" style="fill:#FFFFFF;stroke:none"/>
	<rect x="0.00" y="0.00" width="4320.00" height="2880.00" style="fill:#FFFFFF"/>
	<rect x="2.88" y="2.88" width="4314.24" height="2874.24" style="fill:none;stroke:#FFFFFF;stroke-width:5.76"/>
	<rect x="441.99" y="275.40" width="3777.17" height="2183.79" style="fill:#FFFFFF"/>
	<rect x="444.87" y="278.28" width="3771.41" height="2178.03" style="fill:none;stroke:#000000;stroke-width:5.76"/>
	<path d=" M672.84 571.33 L679.86 566.74 L686.88 693.91 L693.77 885.48 L700.79 1049.37 L707.81 1392.55 L714.69 1602.75 L721.71 2395.07 L728.73 2382.11 L735.62 2395.88 L742.64 2297.06 L749.66 2158.95 L756.68 1997.90 L763.56 2018.96 L770.58 2047.17 L777.60 1984.26 L784.49 1735.32 L791.51 1497.58 L798.53 1152.51 L805.41 1050.18 L812.43 1076.51 L819.45 977.28 L826.47 1039.38 L833.36 1196.39 L840.38 807.72 L847.40 735.36 L854.28 826.89 L861.30 792.06 L868.32 994.43 L875.21 1070.84 L882.23 1340.44 L889.25 1350.16 L896.27 1444.12 L903.15 1469.77 L910.17 1361.23 L917.19 1420.63 L924.08 1171.82 L931.10 1114.17 L938.12 1087.31 L945.00 998.75 L952.02 919.50 L959.04 968.37 L966.06 785.58 L972.95 806.37 L979.97 582.80 L986.99 636.26 L993.87 751.96 L1000.89 565.93 L1007.91 1092.30 L1014.80 1182.48 L1021.82 1151.84 L1028.84 1253.76 L1035.86 1180.05 L1042.74 1194.23 L1049.76 1282.79 L1056.78 1334.63 L1063.67 1461.26 L1070.69 1483.13 L1077.71 1378.10 L1084.72 1552.93 L1091.61 1672.27 L1098.63 1627.32 L1105.65 1702.65 L1112.54 1754.89 L1119.56 1858.84 L1126.58 1697.11 L1133.46 1690.63 L1140.48 1667.14 L1147.50 1431.97 L1154.52 1355.42 L1161.41 1508.65 L1168.43 1397.14 L1175.45 1316.41 L1182.33 1309.52 L1189.35 1223.93 L1196.37 1270.64 L1203.26 1261.19 L1210.28 1175.87 L1217.30 1222.85 L1224.32 1221.36 L1231.20 1531.33 L1238.22 1726.27 L1245.24 1716.55 L1252.13 1909.87 L1259.15 1928.37 L1266.17 1905.28 L1273.05 1928.64 L1280.07 1830.22 L1287.09 1810.92 L1294.11 1962.53 L1300.99 1892.59 L1308.02 1875.58 L1315.04 1773.93 L1321.92 1646.62 L1328.94 1523.36 L1335.96 1198.41 L1342.85 1073.81 L1349.87 1201.11 L1356.89 1148.87 L1363.91 1104.18 L1370.79 1061.79 L1377.81 1035.47 L1384.83 933.81 L1391.72 881.29 L1398.74 888.85 L1405.76 607.78 L1412.64 608.18 L1419.66 353.57 L1426.68 416.08 L1433.70 420.80 L1440.59 523.54 L1447.61 669.88 L1454.63 753.99 L1461.51 783.69 L1468.53 1041.54 L1475.55 1210.02 L1482.44 965.40 L1489.46 1083.80 L1496.48 1154.27 L1503.50 1411.04 L1510.38 1471.79 L1517.40 1375.81 L1524.42 1356.50 L1531.31 1274.96 L1538.33 1340.57 L1545.35 1390.52 L1552.23 1266.32 L1559.25 1195.44 L1566.27 1438.04 L1573.29 1575.47 L1580.18 1649.86 L1587.20 1678.62 L1594.22 1614.36 L1601.10 1677.00 L1608.12 1723.30 L1615.14 1788.37 L1622.03 1748.41 L1629.05 1596.80 L1636.07 1679.97 L1643.09 1646.76 L1649.97 1500.28 L1656.99 1393.76 L1664.01 1372.30 L1670.90 1170.33 L1677.92 1242.69 L1684.94 1103.24 L1691.96 1023.18 L1698.84 980.52 L1705.86 1122.41 L1712.88 1111.20 L1719.77 1071.65 L1726.79 1057.61 L1733.81 1091.09 L1740.69 1255.92 L1747.71 1289.00 L1754.73 1435.48 L1761.75 1523.90 L1768.64 1544.69 L1775.66 1475.03 L1782.68 1500.55 L1789.56 1375.00 L1796.58 1384.31 L1803.60 1394.17 L1810.49 1399.16 L1817.51 1384.99 L1824.53 1378.64 L1831.55 1296.56 L1838.43 1269.15 L1845.45 1295.21 L1852.47 1299.94 L1859.36 1366.63 L1866.38 1352.99 L1873.40 1307.63 L1880.28 1327.48 L1887.30 1300.07 L1894.32 1249.98 L1901.34 1331.39 L1908.23 1309.25 L1915.25 1337.60 L1922.27 1448.98 L1929.15 1386.88 L1936.17 1365.95 L1943.19 1346.78 L1950.08 1389.98 L1957.10 1415.36 L1964.12 1474.09 L1971.14 1439.26 L1978.02 1458.29 L1985.04 1431.70 L1992.06 1415.90 L1998.95 1409.96 L2005.97 1451.68 L2012.99 1387.55 L2019.87 1392.14 L2026.89 1373.65 L2033.91 1328.56 L2040.93 1299.40 L2047.82 1263.35 L2054.84 1282.66 L2061.86 1291.97 L2068.74 1289.54 L2075.76 1268.61 L2082.78 1295.62 L2089.67 1259.97 L2096.69 1328.69 L2103.71 1345.43 L2110.73 1366.49 L2117.61 1366.76 L2124.63 1375.67 L2131.65 1353.26 L2138.54 1364.06 L2145.55 1379.05 L2152.57 1376.62 L2159.46 1394.30 L2166.48 1403.75 L2173.50 1431.29 L2180.52 1429.40 L2187.41 1395.25 L2194.43 1346.78 L2201.45 1350.29 L2208.33 1355.42 L2215.35 1382.29 L2222.37 1348.81 L2229.26 1288.46 L2236.28 1290.49 L2243.30 1247.55 L2250.32 1223.25 L2257.20 1295.21 L2264.22 1260.24 L2271.24 1268.48 L2278.13 1274.28 L2285.15 1278.47 L2292.17 1257.95 L2299.19 1235.54 L2306.07 1235.67 L2313.09 1258.22 L2320.11 1266.86 L2327.00 1300.48 L2334.02 1300.07 L2341.04 1241.21 L2347.92 1245.66 L2354.94 1242.15 L2361.96 1246.74 L2368.98 1268.88 L2375.86 1273.61 L2382.89 1303.99 L2389.91 1330.31 L2396.79 1335.71 L2403.81 1321.27 L2410.83 1304.80 L2417.72 1306.42 L2424.74 1333.42 L2431.76 1337.60 L2438.78 1331.80 L2445.66 1336.39 L2452.68 1343.27 L2459.70 1366.90 L2466.59 1375.27 L2473.61 1357.99 L2480.63 1349.21 L2487.51 1370.14 L2494.53 1371.62 L2501.55 1370.68 L2508.57 1405.10 L2515.46 1414.42 L2522.48 1435.61 L2529.50 1460.72 L2536.38 1451.27 L2543.40 1456.27 L2550.42 1450.73 L2557.30 1466.39 L2564.32 1495.28 L2571.34 1474.76 L2578.36 1492.04 L2585.25 1503.92 L2592.27 1509.59 L2599.29 1488.53 L2606.18 1440.07 L2613.20 1385.39 L2620.22 1360.82 L2627.10 1334.63 L2634.12 1326.53 L2641.14 1280.36 L2648.16 1254.84 L2655.05 1257.81 L2662.07 1228.25 L2669.09 1228.65 L2675.97 1215.69 L2682.99 1249.44 L2690.01 1286.03 L2696.90 1337.87 L2703.92 1327.75 L2710.94 1324.51 L2717.96 1333.42 L2724.84 1362.44 L2731.86 1362.31 L2738.88 1366.09 L2745.77 1380.94 L2752.79 1383.10 L2759.81 1340.44 L2766.69 1335.58 L2773.71 1305.07 L2780.73 1267.13 L2787.75 1266.86 L2794.64 1272.12 L2801.66 1268.07 L2808.68 1133.07 L2815.56 1143.06 L2822.58 1127.40 L2829.60 1118.90 L2836.49 1104.72 L2843.51 1122.41 L2850.53 1076.51 L2857.55 1090.82 L2864.43 1101.89 L2871.45 1096.89 L2878.47 1077.86 L2885.36 1102.02 L2892.38 1159.67 L2899.40 1145.36 L2906.42 1141.98 L2913.30 1138.34 L2920.32 1139.55 L2927.34 1114.44 L2934.23 1170.06 L2941.25 1204.22 L2948.27 1231.89 L2955.15 1260.11 L2962.17 1282.12 L2969.19 1284.14 L2976.21 1356.91 L2983.10 1358.39 L2990.12 1376.35 L2997.14 1392.01 L3004.02 1400.38 L3011.04 1443.17 L3018.06 1709.13 L3024.95 1671.73 L3031.97 1697.25 L3038.99 1610.58 L3046.01 1580.06 L3052.89 1554.68 L3059.91 1538.62 L3066.93 1553.74 L3073.82 1507.70 L3080.84 1456.00 L3087.86 1473.41 L3094.74 1449.92 L3101.76 1356.37 L3108.78 1343.27 L3115.80 1293.59 L3122.69 1329.37 L3129.71 1393.09 L3136.73 1345.97 L3143.61 1329.77 L3150.63 1316.68 L3157.65 1323.83 L3164.54 1335.71 L3171.56 1311.55 L3178.58 1288.73 L3185.60 1257.41 L3192.48 1290.62 L3199.50 1263.62 L3206.52 1314.38 L3213.41 1277.39 L3220.43 1320.19 L3227.45 1289.27 L3234.33 1271.99 L3241.35 1301.02 L3248.37 1294.13 L3255.39 1274.69 L3262.28 1292.65 L3269.30 1322.75 L3276.32 1335.71 L3283.20 1331.66 L3290.22 1304.93 L3297.24 1319.78 L3304.13 1345.43 L3311.15 1406.05 L3318.17 1349.75 L3325.19 1336.52 L3332.07 1361.50 L3339.09 1379.99 L3346.11 1365.14 L3353.00 1333.28 L3360.02 1314.25 L3367.04 1296.56 L3373.92 1285.09 L3380.94 1266.99 L3387.96 1252.01 L3394.98 1183.16 L3401.87 1270.50 L3408.89 1257.00 L3415.91 1222.44 L3422.79 1206.51 L3429.81 1188.02 L3436.83 1189.23 L3443.72 1195.04 L3450.74 1194.09 L3457.76 1257.81 L3464.78 1273.88 L3471.66 1260.11 L3478.68 1274.01 L3485.70 1303.72 L3492.59 1292.78 L3499.61 1311.14 L3506.63 1323.43 L3513.65 1355.56 L3520.53 1291.03 L3527.55 1329.37 L3534.57 1327.21 L3541.46 1333.28 L3548.48 1333.15 L3555.50 1311.55 L3562.38 1366.90 L3569.40 1302.77 L3576.42 1344.76 L3583.44 1333.55 L3590.33 1352.32 L3597.35 1368.25 L3604.37 1330.31 L3611.25 1291.57 L3618.27 1374.59 L3625.29 1290.08 L3632.18 1303.04 L3639.20 1249.58 L3646.22 1200.98 L3653.24 1151.84 L3660.12 1237.02 L3667.14 1204.62 L3674.16 1175.46 L3681.05 1236.62 L3688.07 1268.61 L3695.09 1279.95 L3701.97 1288.87 L3708.99 1336.79 L3716.01 1306.15 L3723.03 1354.48 L3729.92 1402.94 L3736.94 1441.82 L3743.96 1362.71 L3750.84 1392.14 L3757.86 1402.27 L3764.88 1422.38 L3771.77 1423.06 L3778.79 1374.86 L3785.81 1336.79 L3792.83 1298.99 L3799.71 1291.03 L3806.73 1322.75 L3813.75 1315.33 L3820.64 1298.45 L3827.66 1380.40 L3834.68 1374.05 L3841.56 1407.40 L3848.58 1372.30 L3855.60 1367.03 L3862.62 1401.59 L3869.51 1377.29 L3876.53 1579.93 L3883.55 1595.86 L3890.43 1582.76 L3897.45 1589.65 L3904.47 1596.94 L3911.36 1515.94 L3918.38 1494.47 L3925.40 1443.98 L3932.42 1511.75 L3939.30 1491.50 L3946.32 1510.81 L3953.34 1501.09 L3960.23 1373.38 L3967.25 1403.62 L3974.27 1375.13 L3981.15 1327.07 L3988.17 1358.26 L3995.19 1438.72 L4002.21 1421.03 L4009.10 1443.04 L4016.12 1366.63 L4023.14 1300.34 L4030.02 1313.03 L4037.04 1335.71 L4044.06 1289.54 L4050.95 1144.95 L4057.97 1118.76 L4064.99 1151.57 L4072.01 1046.67 L4078.89 1060.04 L4085.91 1092.98 L4092.93 1116.20 L4099.81 1129.56 L4106.84 1103.51 L4113.85 1116.87 L4120.88 1130.10 L4127.76 1182.89 L4134.78 1245.39 L4141.80 1268.61 L4148.69 1360.69 L4155.71 1511.89" stroke-linejoin="round" style="fill:none;stroke:#0080FF;stroke-width:8.64"/>
	<path d=" M672.84 1323.29 L679.86 1323.29 L686.88 1323.29 L693.77 1323.29 L700.79 1323.29 L707.81 1323.29 L714.69 1323.29 L721.71 1323.29 L728.73 1323.29 L735.62 1323.29 L742.64 1323.29 L749.66 1323.29 L756.68 1323.29 L763.56 1323.29 L770.58 1323.29 L777.60 1323.29 L784.49 1323.29 L791.51 1323.29 L798.53 1323.29 L805.41 1323.29 L812.43 1323.29 L819.45 1323.29 L826.47 1323.29 L833.36 1323.29 L840.38 1323.29 L847.40 1323.29 L854.28 1323.29 L861.30 1323.29 L868.32 1323.29 L875.21 1323.29 L882.23 1323.29 L889.25 1323.29 L896.27 1323.29 L903.15 1323.29 L910.17 1323.29 L917.19 1323.29 L924.08 1323.29 L931.10 1323.29 L938.12 1323.29 L945.00 1323.29 L952.02 1323.29 L959.04 1323.29 L966.06 1323.29 L972.95 1323.29 L979.97 1323.29 L986.99 1323.29 L993.87 1323.29 L1000.89 1323.29 L1007.91 1323.29 L1014.80 1323.29 L1021.82 1323.29 L1028.84 1323.29 L1035.86 1323.29 L1042.74 1323.29 L1049.76 1323.29 L1056.78 1323.29 L1063.67 1323.29 L1070.69 1323.29 L1077.71 1323.29 L1084.72 1323.29 L1091.61 1323.29 L1098.63 1323.29 L1105.65 1323.29 L1112.54 1323.29 L1119.56 1323.29 L1126.58 1323.29 L1133.46 1323.29 L1140.48 1323.29 L1147.50 1323.29 L1154.52 1323.29 L1161.41 1323.29 L1168.43 1323.29 L1175.45 1323.29 L1182.33 1323.29 L1189.35 1323.29 L1196.37 1323.29 L1203.26 1323.29 L1210.28 1323.29 L1217.30 1323.29 L1224.32 1323.29 L1231.20 1323.29 L1238.22 1323.29 L1245.24 1323.29 L1252.13 1323.29 L1259.15 1323.29 L1266.17 1323.29 L1273.05 1323.29 L1280.07 1323.29 L1287.09 1323.29 L1294.11 1323.29 L1300.99 1323.29 L1308.02 1323.29 L1315.04 1323.29 L1321.92 1323.29 L1328.94 1323.29 L1335.96 1323.29 L1342.85 1323.29 L1349.87 1323.29 L1356.89 1323.29 L1363.91 1323.29 L1370.79 1323.29 L1377.81 1323.29 L1384.83 1323.29 L1391.72 1323.29 L1398.74 1323.29 L1405.76 1323.29 L1412.64 1323.29 L1419.66 1323.29 L1426.68 1323.29 L1433.70 1323.29 L1440.59 1323.29 L1447.61 1323.29 L1454.63 1323.29 L1461.51 1323.29 L1468.53 1323.29 L1475.55 1323.29 L1482.44 1323.29 L1489.46 1323.29 L1496.48 1323.29 L1503.50 1323.29 L1510.38 1323.29 L1517.40 1323.29 L1524.42 1323.29 L1531.31 1323.29 L1538.33 1323.29 L1545.35 1323.29 L1552.23 1323.29 L1559.25 1323.29 L1566.27 1323.29 L1573.29 1323.29 L1580.18 1323.29 L1587.20 1323.29 L1594.22 1323.29 L1601.10 1323.29 L1608.12 1323.29 L1615.14 1323.29 L1622.03 1323.29 L1629.05 1323.29 L1636.07 1323.29 L1643.09 1323.29 L1649.97 1323.29 L1656.99 1323.29 L1664.01 1323.29 L1670.90 1323.29 L1677.92 1323.29 L1684.94 1323.29 L1691.96 1323.29 L1698.84 1323.29 L1705.86 1323.29 L1712.88 1323.29 L1719.77 1323.29 L1726.79 1323.29 L1733.81 1323.29 L1740.69 1323.29 L1747.71 1323.29 L1754.73 1323.29 L1761.75 1323.29 L1768.64 1323.29 L1775.66 1323.29 L1782.68 1323.29 L1789.56 1323.29 L1796.58 1323.29 L1803.60 1323.29 L1810.49 1323.29 L1817.51 1323.29 L1824.53 1323.29 L1831.55 1323.29 L1838.43 1323.29 L1845.45 1323.29 L1852.47 1323.29 L1859.36 1323.29 L1866.38 1323.29 L1873.40 1323.29 L1880.28 1323.29 L1887.30 1323.29 L1894.32 1323.29 L1901.34 1323.29 L1908.23 1323.29 L1915.25 1323.29 L1922.27 1323.29 L1929.15 1323.29 L1936.17 1323.29 L1943.19 1323.29 L1950.08 1323.29 L1957.10 1323.29 L1964.12 1323.29 L1971.14 1323.29 L1978.02 1323.29 L1985.04 1323.29 L1992.06 1323.29 L1998.95 1323.29 L2005.97 1323.29 L2012.99 1323.29 L2019.87 1323.29 L2026.89 1323.29 L2033.91 1323.29 L2040.93 1323.29 L2047.82 1323.29 L2054.84 1323.29 L2061.86 1323.29 L2068.74 1323.29 L2075.76 1323.29 L2082.78 1323.29 L2089.67 1323.29 L2096.69 1323.29 L2103.71 1323.29 L2110.73 1323.29 L2117.61 1323.29 L2124.63 1323.29 L2131.65 1323.29 L2138.54 1323.29 L2145.55 1323.29 L2152.57 1323.29 L2159.46 1323.29 L2166.48 1323.29 L2173.50 1323.29 L2180.52 1323.29 L2187.41 1323.29 L2194.43 1323.29 L2201.45 1323.29 L2208.33 1323.29 L2215.35 1323.29 L2222.37 1323.29 L2229.26 1323.29 L2236.28 1323.29 L2243.30 1323.29 L2250.32 1323.29 L2257.20 1323.29 L2264.22 1323.29 L2271.24 1323.29 L2278.13 1323.29 L2285.15 1323.29 L2292.17 1323.29 L2299.19 1323.29 L2306.07 1323.29 L2313.09 1323.29 L2320.11 1323.29 L2327.00 1323.29 L2334.02 1323.29 L2341.04 1323.29 L2347.92 1323.29 L2354.94 1323.29 L2361.96 1323.29 L2368.98 1323.29 L2375.86 1323.29 L2382.89 1323.29 L2389.91 1323.29 L2396.79 1323.29 L2403.81 1323.29 L2410.83 1323.29 L2417.72 1323.29 L2424.74 1323.29 L2431.76 1323.29 L2438.78 1323.29 L2445.66 1323.29 L2452.68 1323.29 L2459.70 1323.29 L2466.59 1323.29 L2473.61 1323.29 L2480.63 1323.29 L2487.51 1323.29 L2494.53 1323.29 L2501.55 1323.29 L2508.57 1323.29 L2515.46 1323.29 L2522.48 1323.29 L2529.50 1323.29 L2536.38 1323.29 L2543.40 1323.29 L2550.42 1323.29 L2557.30 1323.29 L2564.32 1323.29 L2571.34 1323.29 L2578.36 1323.29 L2585.25 1323.29 L2592.27 1323.29 L2599.29 1323.29 L2606.18 1323.29 L2613.20 1323.29 L2620.22 1323.29 L2627.10 1323.29 L2634.12 1323.29 L2641.14 1323.29 L2648.16 1323.29 L2655.05 1323.29 L2662.07 1323.29 L2669.09 1323.29 L2675.97 1323.29 L2682.99 1323.29 L2690.01 1323.29 L2696.90 1323.29 L2703.92 1323.29 L2710.94 1323.29 L2717.96 1323.29 L2724.84 1323.29 L2731.86 1323.29 L2738.88 1323.29 L2745.77 1323.29 L2752.79 1323.29 L2759.81 1323.29 L2766.69 1323.29 L2773.71 1323.29 L2780.73 1323.29 L2787.75 1323.29 L2794.64 1323.29 L2801.66 1323.29 L2808.68 1323.29 L2815.56 1323.29 L2822.58 1323.29 L2829.60 1323.29 L2836.49 1323.29 L2843.51 1323.29 L2850.53 1323.29 L2857.55 1323.29 L2864.43 1323.29 L2871.45 1323.29 L2878.47 1323.29 L2885.36 1323.29 L2892.38 1323.29 L2899.40 1323.29 L2906.42 1323.29 L2913.30 1323.29 L2920.32 1323.29 L2927.34 1323.29 L2934.23 1323.29 L2941.25 1323.29 L2948.27 1323.29 L2955.15 1323.29 L2962.17 1323.29 L2969.19 1323.29 L2976.21 1323.29 L2983.10 1323.29 L2990.12 1323.29 L2997.14 1323.29 L3004.02 1323.29 L3011.04 1323.29 L3018.06 1323.29 L3024.95 1323.29 L3031.97 1323.29 L3038.99 1323.29 L3046.01 1323.29 L3052.89 1323.29 L3059.91 1323.29 L3066.93 1323.29 L3073.82 1323.29 L3080.84 1323.29 L3087.86 1323.29 L3094.74 1323.29 L3101.76 1323.29 L3108.78 1323.29 L3115.80 1323.29 L3122.69 1323.29 L3129.71 1323.29 L3136.73 1323.29 L3143.61 1323.29 L3150.63 1323.29 L3157.65 1323.29 L3164.54 1323.29 L3171.56 1323.29 L3178.58 1323.29 L3185.60 1323.29 L3192.48 1323.29 L3199.50 1323.29 L3206.52 1323.29 L3213.41 1323.29 L3220.43 1323.29 L3227.45 1323.29 L3234.33 1323.29 L3241.35 1323.29 L3248.37 1323.29 L3255.39 1323.29 L3262.28 1323.29 L3269.30 1323.29 L3276.32 1323.29 L3283.20 1323.29 L3290.22 1323.29 L3297.24 1323.29 L3304.13 1323.29 L3311.15 1323.29 L3318.17 1323.29 L3325.19 1323.29 L3332.07 1323.29 L3339.09 1323.29 L3346.11 1323.29 L3353.00 1323.29 L3360.02 1323.29 L3367.04 1323.29 L3373.92 1323.29 L3380.94 1323.29 L3387.96 1323.29 L3394.98 1323.29 L3401.87 1323.29 L3408.89 1323.29 L3415.91 1323.29 L3422.79 1323.29 L3429.81 1323.29 L3436.83 1323.29 L3443.72 1323.29 L3450.74 1323.29 L3457.76 1323.29 L3464.78 1323.29 L3471.66 1323.29 L3478.68 1323.29 L3485.70 1323.29 L3492.59 1323.29 L3499.61 1323.29 L3506.63 1323.29 L3513.65 1323.29 L3520.53 1323.29 L3527.55 1323.29 L3534.57 1323.29 L3541.46 1323.29 L3548.48 1323.29 L3555.50 1323.29 L3562.38 1323.29 L3569.40 1323.29 L3576.42 1323.29 L3583.44 1323.29 L3590.33 1323.29 L3597.35 1323.29 L3604.37 1323.29 L3611.25 1323.29 L3618.27 1323.29 L3625.29 1323.29 L3632.18 1323.29 L3639.20 1323.29 L3646.22 1323.29 L3653.24 1323.29 L3660.12 1323.29 L3667.14 1323.29 L3674.16 1323.29 L3681.05 1323.29 L3688.07 1323.29 L3695.09 1323.29 L3701.97 1323.29 L3708.99 1323.29 L3716.01 1323.29 L3723.03 1323.29 L3729.92 1323.29 L3736.94 1323.29 L3743.96 1323.29 L3750.84 1323.29 L3757.86 1323.29 L3764.88 1323.29 L3771.77 1323.29 L3778.79 1323.29 L3785.81 1323.29 L3792.83 1323.29 L3799.71 1323.29 L3806.73 1323.29 L3813.75 1323.29 L3820.64 1323.29 L3827.66 1323.29 L3834.68 1323.29 L3841.56 1323.29 L3848.58 1323.29 L3855.60 1323.29 L3862.62 1323.29 L3869.51 1323.29 L3876.53 1323.29 L3883.55 1323.29 L3890.43 1323.29 L3897.45 1323.29 L3904.47 1323.29 L3911.36 1323.29 L3918.38 1323.29 L3925.40 1323.29 L3932.42 1323.29 L3939.30 1323.29 L3946.32 1323.29 L3953.34 1323.29 L3960.23 1323.29 L3967.25 1323.29 L3974.27 1323.29 L3981.15 1323.29 L3988.17 1323.29 L3995.19 1323.29 L4002.21 1323.29 L4009.10 1323.29 L4016.12 1323.29 L4023.14 1323.29 L4030.02 1323.29 L4037.04 1323.29 L4044.06 1323.29 L4050.95 1323.29 L4057.97 1323.29 L4064.99 1323.29 L4072.01 1323.29 L4078.89 1323.29 L4085.91 1323.29 L4092.93 1323.29 L4099.81 1323.29 L4106.84 1323.29 L4113.85 1323.29 L4120.88 1323.29 L4127.76 1323.29 L4134.78 1323.29 L4141.80 1323.29 L4148.69 1323.29 L4155.71 1323.29" stroke-linejoin="round" style="fill:none;stroke:#D41159;stroke-width:8.64"/>
	<line x1="441.99" y1="2459.20" x2="441.99" y2="275.40" style="stroke:#000000;stroke-width:5.76"/>
	<line x1="441.99" y1="2307.73" x2="402.03" y2="2307.73" style="stroke:#000000;stroke-width:5.76"/>
	<text x="382.05" y="2342.77" style="font-family:'Helvetica';font-size:100.04px;fill:#000000" text-anchor="end">-10</text>
	<line x1="441.99" y1="1815.51" x2="402.03" y2="1815.51" style="stroke:#000000;stroke-width:5.76"/>
	<text x="382.05" y="1850.55" style="font-family:'Helvetica';font-size:100.04px;fill:#000000" text-anchor="end">-5</text>
	<line x1="441.99" y1="1323.16" x2="402.03" y2="1323.16" style="stroke:#000000;stroke-width:5.76"/>
	<text x="382.05" y="1358.20" style="font-family:'Helvetica';font-size:100.04px;fill:#000000" text-anchor="end">0</text>
	<line x1="441.99" y1="830.94" x2="402.03" y2="830.94" style="stroke:#000000;stroke-width:5.76"/>
	<text x="382.05" y="865.98" style="font-family:'Helvetica';font-size:100.04px;fill:#000000" text-anchor="end">5</text>
	<line x1="441.99" y1="338.72" x2="402.03" y2="338.72" style="stroke:#000000;stroke-width:5.76"/>
	<text x="382.05" y="373.77" style="font-family:'Helvetica';font-size:100.04px;fill:#000000" text-anchor="end">10</text>
	<text x="190.78" y="1367.30" style="font-family:'Helvetica';font-size:100.04px;fill:#000000" transform="rotate(-90 190.78,1367.30)" text-anchor="middle">Variación cíclica</text>
	<line x1="441.99" y1="2459.20" x2="4219.16" y2="2459.20" style="stroke:#000000;stroke-width:5.76"/>
	<line x1="505.44" y1="2459.20" x2="505.44" y2="2499.16" style="stroke:#000000;stroke-width:5.76"/>
	<text x="505.44" y="2589.10" style="font-family:'Helvetica';font-size:100.04px;fill:#000000" text-anchor="middle">1980m1</text>
	<line x1="1342.98" y1="2459.20" x2="1342.98" y2="2499.16" style="stroke:#000000;stroke-width:5.76"/>
	<text x="1342.98" y="2589.10" style="font-family:'Helvetica';font-size:100.04px;fill:#000000" text-anchor="middle">1990m1</text>
	<line x1="2180.52" y1="2459.20" x2="2180.52" y2="2499.16" style="stroke:#000000;stroke-width:5.76"/>
	<text x="2180.52" y="2589.10" style="font-family:'Helvetica';font-size:100.04px;fill:#000000" text-anchor="middle">2000m1</text>
	<line x1="3018.06" y1="2459.20" x2="3018.06" y2="2499.16" style="stroke:#000000;stroke-width:5.76"/>
	<text x="3018.06" y="2589.10" style="font-family:'Helvetica';font-size:100.04px;fill:#000000" text-anchor="middle">2010m1</text>
	<line x1="3855.60" y1="2459.20" x2="3855.60" y2="2499.16" style="stroke:#000000;stroke-width:5.76"/>
	<text x="3855.60" y="2589.10" style="font-family:'Helvetica';font-size:100.04px;fill:#000000" text-anchor="middle">2020m1</text>
	<text x="2330.64" y="2729.09" style="font-family:'Helvetica';font-size:100.04px;fill:#000000" text-anchor="middle">Mes</text>
	<text x="2330.64" y="216.06" style="font-family:'Helvetica';font-size:140.00px;fill:#000000" text-anchor="middle">Evolución del del Componente cíclico del Índice de Remuneraciones</text>
</svg>
