<?xml version="1.0" encoding="UTF-8" standalone="no"?>
<!-- This is a Stata 18.0 generated SVG file (http://www.stata.com) -->

<svg version="1.1" width="7.500in" height="4.500in" viewBox="0 0 5400 3240" xmlns="http://www.w3.org/2000/svg" xmlns:xlink="http://www.w3.org/1999/xlink">
	<desc>Stata Graph - forecast</desc>
	<rect x="0" y="0" width="5400" height="3240" style="fill:#FFFFFF;stroke:none"/>
	<rect x="0.00" y="0.00" width="5400.00" height="3240.00" style="fill:#FFFFFF"/>
	<rect x="3.24" y="3.24" width="5393.52" height="3233.52" style="fill:none;stroke:#FFFFFF;stroke-width:6.48"/>
	<rect x="564.30" y="309.82" width="4722.30" height="2456.83" style="fill:#FFFFFF"/>
	<rect x="567.54" y="313.06" width="4715.82" height="2450.35" style="fill:none;stroke:#000000;stroke-width:6.48"/>
	<defs>
		<path id="path_elQzvuIa" d="M5040.90 1597.39 L5040.90 1597.39 L5051.70 1548.79 L5062.67 1488.21 L5073.64 1396.74 L5084.44 1318.61 L5095.41 1243.86 L5106.21 1174.84 L5117.18 1116.45 L5128.14 1066.33 L5138.94 1024.99 L5138.94 2201.34 L5128.14 2230.37 L5117.18 2257.37 L5106.21 2278.13 L5095.41 2288.93 L5084.44 2282.18 L5073.64 2252.31 L5062.67 2196.79 L5051.70 2104.31 L5040.90 1982.81 L5040.90 1597.39 Z" stroke-linejoin="round"/>
	</defs>
	<defs>
		<clipPath id="clipPath_ZTyAWozu">
			<use xlink:href="#path_elQzvuIa"/>
		</clipPath>
	</defs>
	<use xlink:href="#path_elQzvuIa" style="stroke:none;fill:#CDCDCD"/>
	<use xlink:href="#path_elQzvuIa" style="fill:none;stroke:#C0C0C0;stroke-width:19.44" clip-path="url(#clipPath_ZTyAWozu)"/>
	<defs>
		<path id="path_YqHHqYkn" d="M5040.90 1624.89 L5040.90 1624.89 L5051.70 1588.44 L5062.67 1538.83 L5073.64 1457.83 L5084.44 1387.46 L5095.41 1318.61 L5106.21 1253.64 L5117.18 1197.96 L5128.14 1149.53 L5138.94 1109.03 L5138.94 2117.31 L5128.14 2147.18 L5117.18 2175.86 L5106.21 2199.32 L5095.41 2214.34 L5084.44 2213.32 L5073.64 2191.22 L5062.67 2146.16 L5051.70 2064.66 L5040.90 1955.31 L5040.90 1624.89 Z" stroke-linejoin="round"/>
	</defs>
	<defs>
		<clipPath id="clipPath_htaStfnw">
			<use xlink:href="#path_YqHHqYkn"/>
		</clipPath>
	</defs>
	<use xlink:href="#path_YqHHqYkn" style="stroke:none;fill:#E6E6E6"/>
	<use xlink:href="#path_YqHHqYkn" style="fill:none;stroke:#E0E0E0;stroke-width:19.44" clip-path="url(#clipPath_htaStfnw)"/>
	<path d=" M635.51 1538.33 L646.48 1538.33 L657.28 1538.33 L668.25 1538.33 L679.22 1538.33 L690.02 1538.33 L700.99 1538.33 L711.79 1538.33 L722.76 1538.33 L733.73 1538.33 L744.53 1538.33 L755.49 1538.33 L766.29 1538.33 L777.26 1538.33 L788.23 1538.33 L799.03 1538.33 L810.00 1538.33 L820.97 1538.33 L831.77 1538.33 L842.74 1538.33 L853.54 1538.33 L864.51 1538.33 L875.48 1538.33 L886.28 1538.33 L897.24 1538.33 L908.04 1538.33 L919.01 1538.33 L929.98 1538.33 L940.78 1538.33 L951.75 1538.33 L962.72 1538.33 L973.52 1538.33 L984.49 1538.33 L995.29 1538.33 L1006.26 1538.33 L1017.23 1538.33 L1028.03 1538.33 L1038.99 1538.33 L1049.79 1538.33 L1060.76 1538.33 L1071.73 1538.33 L1082.53 1538.33 L1093.50 1538.33 L1104.47 1538.33 L1115.27 1538.33 L1126.24 1538.33 L1137.04 1538.33 L1148.01 1538.33 L1158.97 1538.33 L1169.78 1538.33 L1180.74 1538.33 L1191.71 1538.33 L1202.51 1538.33 L1213.48 1538.33 L1224.28 1538.33 L1235.25 1538.33 L1246.22 1538.33 L1257.02 1538.33 L1267.99 1538.33 L1278.79 1538.33 L1289.76 1538.33 L1300.72 1538.33 L1311.53 1538.33 L1322.49 1538.33 L1333.46 1538.33 L1344.26 1538.33 L1355.23 1538.33 L1366.03 1538.33 L1377.00 1538.33 L1387.97 1538.33 L1398.77 1538.33 L1409.74 1538.33 L1420.54 1538.33 L1431.51 1538.33 L1442.48 1538.33 L1453.28 1538.33 L1464.24 1538.33 L1475.21 1538.33 L1486.01 1538.33 L1496.98 1538.33 L1507.78 1538.33 L1518.75 1538.33 L1529.72 1538.33 L1540.52 1538.33 L1551.49 1538.33 L1562.29 1538.33 L1573.26 1538.33 L1584.23 1538.33 L1595.03 1538.33 L1605.99 1538.33 L1616.96 1538.33 L1627.76 1538.33 L1638.73 1538.33 L1649.53 1538.33 L1660.50 1538.33 L1671.47 1538.33 L1682.27 1538.33 L1693.24 1538.33 L1704.21 1538.33 L1715.01 1538.33 L1725.98 1538.33 L1736.78 1538.33 L1747.74 1538.33 L1758.71 1538.33 L1769.51 1538.33 L1780.48 1538.33 L1791.28 1538.33 L1802.25 1538.33 L1813.22 1538.33 L1824.02 1538.33 L1834.99 1538.33 L1845.96 1538.33 L1856.76 1538.33 L1867.73 1538.33 L1878.53 1538.33 L1889.49 1538.33 L1900.46 1538.33 L1911.26 1538.33 L1922.23 1538.33 L1933.03 1538.33 L1944.00 1538.33 L1954.97 1538.33 L1965.77 1538.33 L1976.74 1538.33 L1987.71 1538.33 L1998.51 1538.33 L2009.48 1538.33 L2020.28 1538.33 L2031.24 1538.33 L2042.21 1538.33 L2053.01 1538.33 L2063.98 1538.33 L2074.78 1538.33 L2085.75 1538.33 L2096.72 1538.33 L2107.52 1538.33 L2118.49 1538.33 L2129.46 1538.33 L2140.26 1538.33 L2151.23 1538.33 L2162.03 1538.33 L2172.99 1538.33 L2183.96 1538.33 L2194.76 1538.33 L2205.73 1538.33 L2216.53 1538.33 L2227.50 1538.33 L2238.47 1538.33 L2249.27 1538.33 L2260.24 1538.33 L2271.21 1538.33 L2282.01 1538.33 L2292.98 1538.33 L2303.78 1538.33 L2314.74 1538.33 L2325.71 1538.33 L2336.51 1538.33 L2347.48 1538.33 L2358.45 1538.33 L2369.25 1538.33 L2380.22 1538.33 L2391.02 1538.33 L2401.99 1538.33 L2412.96 1538.33 L2423.76 1538.33 L2434.73 1538.33 L2445.53 1538.33 L2456.49 1538.33 L2467.46 1538.33 L2478.26 1538.33 L2489.23 1538.33 L2500.20 1538.33 L2511.00 1538.33 L2521.97 1538.33 L2532.77 1538.33 L2543.74 1538.33 L2554.71 1538.33 L2565.51 1538.33 L2576.48 1538.33 L2587.28 1538.33 L2598.24 1538.33 L2609.21 1538.33 L2620.01 1538.33 L2630.98 1538.33 L2641.95 1538.33 L2652.75 1538.33 L2663.72 1538.33 L2674.52 1538.33 L2685.49 1538.33 L2696.46 1538.33 L2707.26 1538.33 L2718.23 1538.33 L2729.03 1538.33 L2739.99 1538.33 L2750.96 1538.33 L2761.76 1538.33 L2772.73 1538.33 L2783.70 1538.33 L2794.50 1538.33 L2805.47 1538.33 L2816.27 1538.33 L2827.24 1538.33 L2838.21 1538.33 L2849.01 1538.33 L2859.98 1538.33 L2870.78 1538.33 L2881.74 1538.33 L2892.71 1538.33 L2903.51 1538.33 L2914.48 1538.33 L2925.45 1538.33 L2936.25 1538.33 L2947.22 1538.33 L2958.02 1538.33 L2968.99 1538.33 L2979.96 1538.33 L2990.76 1538.33 L3001.73 1538.33 L3012.69 1538.33 L3023.49 1538.33 L3034.46 1538.33 L3045.26 1538.33 L3056.23 1538.33 L3067.20 1538.33 L3078.00 1538.33 L3088.97 1538.33 L3099.77 1538.33 L3110.74 1538.33 L3121.71 1538.33 L3132.51 1538.33 L3143.48 1538.33 L3154.44 1538.33 L3165.24 1538.33 L3176.21 1538.33 L3187.01 1538.33 L3197.98 1538.33 L3208.95 1538.33 L3219.75 1538.33 L3230.72 1538.33 L3241.52 1538.33 L3252.49 1538.33 L3263.46 1538.33 L3274.26 1538.33 L3285.23 1538.33 L3296.19 1538.33 L3306.99 1538.33 L3317.96 1538.33 L3328.76 1538.33 L3339.73 1538.33 L3350.70 1538.33 L3361.50 1538.33 L3372.47 1538.33 L3383.27 1538.33 L3394.24 1538.33 L3405.21 1538.33 L3416.01 1538.33 L3426.98 1538.33 L3437.94 1538.33 L3448.74 1538.33 L3459.71 1538.33 L3470.51 1538.33 L3481.48 1538.33 L3492.45 1538.33 L3503.25 1538.33 L3514.22 1538.33 L3525.19 1538.33 L3535.99 1538.33 L3546.96 1538.33 L3557.76 1538.33 L3568.73 1538.33 L3579.69 1538.33 L3590.49 1538.33 L3601.46 1538.33 L3612.26 1538.33 L3623.23 1538.33 L3634.20 1538.33 L3645.00 1538.33 L3655.97 1538.33 L3666.94 1538.33 L3677.74 1538.33 L3688.71 1538.33 L3699.51 1538.33 L3710.48 1538.33 L3721.44 1538.33 L3732.24 1538.33 L3743.21 1538.33 L3754.01 1538.33 L3764.98 1538.33 L3775.95 1538.33 L3786.75 1538.33 L3797.72 1538.33 L3808.69 1538.33 L3819.49 1538.33 L3830.46 1538.33 L3841.26 1538.33 L3852.23 1538.33 L3863.19 1538.33 L3873.99 1538.33 L3884.96 1538.33 L3895.76 1538.33 L3906.73 1538.33 L3917.70 1538.33 L3928.50 1538.33 L3939.47 1538.33 L3950.44 1538.33 L3961.24 1538.33 L3972.21 1538.33 L3983.01 1538.33 L3993.98 1538.33 L4004.94 1538.33 L4015.74 1538.33 L4026.71 1538.33 L4037.51 1538.33 L4048.48 1538.33 L4059.45 1538.33 L4070.25 1538.33 L4081.22 1538.33 L4092.19 1538.33 L4102.99 1538.33 L4113.96 1538.33 L4124.76 1538.33 L4135.73 1538.33 L4146.69 1538.33 L4157.49 1538.33 L4168.46 1538.33 L4179.43 1538.33 L4190.23 1538.33 L4201.20 1538.33 L4212.00 1538.33 L4222.97 1538.33 L4233.94 1538.33 L4244.74 1538.33 L4255.71 1538.33 L4266.51 1538.33 L4277.48 1538.33 L4288.44 1538.33 L4299.24 1538.33 L4310.21 1538.33 L4321.18 1538.33 L4331.98 1538.33 L4342.95 1538.33 L4353.75 1538.33 L4364.72 1538.33 L4375.69 1538.33 L4386.49 1538.33 L4397.46 1538.33 L4408.26 1538.33 L4419.23 1538.33 L4430.19 1538.33 L4440.99 1538.33 L4451.96 1538.33 L4462.93 1538.33 L4473.73 1538.33 L4484.70 1538.33 L4495.50 1538.33 L4506.47 1538.33 L4517.44 1538.33 L4528.24 1538.33 L4539.21 1538.33 L4550.01 1538.33 L4560.98 1538.33 L4571.94 1538.33 L4582.74 1538.33 L4593.71 1538.33 L4604.68 1538.33 L4615.48 1538.33 L4626.45 1538.33 L4637.25 1538.33 L4648.22 1538.33 L4659.19 1538.33 L4669.99 1538.33 L4680.96 1538.33 L4691.93 1538.33 L4702.73 1538.33 L4713.69 1538.33 L4724.49 1538.33 L4735.46 1538.33 L4746.43 1538.33 L4757.23 1538.33 L4768.20 1538.33 L4779.00 1538.33 L4789.97 1538.33 L4800.94 1538.33 L4811.74 1538.33 L4822.71 1538.33 L4833.68 1538.33 L4844.48 1538.33 L4855.44 1538.33 L4866.24 1538.33 L4877.21 1538.33 L4888.18 1538.33 L4898.98 1538.33 L4909.95 1538.33 L4920.75 1538.33 L4931.72 1538.33 L4942.69 1538.33 L4953.49 1538.33 L4964.46 1538.33 L4975.43 1538.33 L4986.23 1538.33 L4997.19 1538.33 L5007.99 1538.33 L5018.96 1538.33 L5029.93 1538.33 L5040.73 1538.33 L5051.70 1538.33 L5062.50 1538.33 L5073.47 1538.33 L5084.44 1538.33 L5095.24 1538.33 L5106.21 1538.33 L5117.18 1538.33 L5127.98 1538.33 L5138.94 1538.33" stroke-linejoin="round" style="fill:none;stroke:#0080FF;stroke-width:9.72"/>
	<path d=" M5040.73 1790.10 L5051.70 1826.55 L5062.50 1842.58 L5073.47 1824.53 L5084.44 1800.39 L5095.24 1766.48 L5106.21 1726.65 L5117.18 1686.99 L5127.98 1648.52 L5138.94 1613.25" stroke-linejoin="round" style="fill:none;stroke:#1E5AA0;stroke-width:9.72"/>
	<path d=" M635.51 1245.04 L646.48 1394.72 L657.28 1333.29 L668.25 1280.64 L679.22 1230.86 L690.02 1199.98 L700.99 1080.51 L711.79 1018.74 L722.76 1027.69 L733.73 697.28 L744.53 697.78 L755.49 398.59 L766.29 471.99 L777.26 477.56 L788.23 598.39 L799.03 770.18 L810.00 869.23 L820.97 904.16 L831.77 1207.07 L842.74 1405.18 L853.54 1117.63 L864.51 1256.85 L875.48 1339.54 L886.28 1641.43 L897.24 1712.81 L908.04 1600.09 L919.01 1577.31 L929.98 1481.46 L940.78 1558.58 L951.75 1617.30 L962.72 1471.33 L973.52 1387.97 L984.49 1673.16 L995.29 1834.82 L1006.26 1922.06 L1017.23 1955.98 L1028.03 1880.38 L1038.99 1953.96 L1049.79 2008.46 L1060.76 2084.91 L1071.73 2037.99 L1082.53 1859.79 L1093.50 1957.50 L1104.47 1918.52 L1115.27 1746.39 L1126.24 1621.18 L1137.04 1595.87 L1148.01 1358.44 L1158.97 1443.66 L1169.78 1279.63 L1180.74 1185.64 L1191.71 1135.35 L1202.51 1302.24 L1213.48 1288.91 L1224.28 1242.51 L1235.25 1226.14 L1246.22 1265.29 L1257.02 1459.18 L1267.99 1497.99 L1278.79 1670.12 L1289.76 1774.07 L1300.72 1798.37 L1311.53 1716.69 L1322.49 1746.56 L1333.46 1599.08 L1344.26 1610.04 L1355.23 1621.52 L1366.03 1627.43 L1377.00 1610.89 L1387.97 1603.29 L1398.77 1506.94 L1409.74 1474.71 L1420.54 1505.42 L1431.51 1510.82 L1442.48 1589.29 L1453.28 1573.09 L1464.24 1519.93 L1475.21 1543.22 L1486.01 1510.99 L1496.98 1452.09 L1507.78 1547.78 L1518.75 1521.79 L1529.72 1555.03 L1540.52 1685.98 L1551.49 1613.08 L1562.29 1588.44 L1573.26 1565.83 L1584.23 1616.79 L1595.03 1646.49 L1605.99 1715.51 L1616.96 1674.68 L1627.76 1696.95 L1638.73 1665.73 L1649.53 1647.17 L1660.50 1640.25 L1671.47 1689.19 L1682.27 1613.76 L1693.24 1619.33 L1704.21 1597.39 L1715.01 1544.57 L1725.98 1510.14 L1736.78 1467.79 L1747.74 1490.57 L1758.71 1501.54 L1769.51 1498.67 L1780.48 1474.03 L1791.28 1505.76 L1802.25 1463.74 L1813.22 1544.57 L1824.02 1564.31 L1834.99 1589.12 L1845.96 1589.46 L1856.76 1599.75 L1867.73 1573.43 L1878.53 1586.25 L1889.49 1603.80 L1900.46 1600.93 L1911.26 1621.69 L1922.23 1632.99 L1933.03 1665.23 L1944.00 1663.03 L1954.97 1622.87 L1965.77 1565.83 L1976.74 1570.05 L1987.71 1576.13 L1998.51 1607.68 L2009.48 1568.36 L2020.28 1497.49 L2031.24 1499.68 L2042.21 1449.23 L2053.01 1420.71 L2063.98 1505.25 L2074.78 1464.24 L2085.75 1473.86 L2096.72 1480.78 L2107.52 1485.68 L2118.49 1461.38 L2129.46 1435.05 L2140.26 1435.39 L2151.23 1461.71 L2162.03 1472.01 L2172.99 1511.33 L2183.96 1510.99 L2194.76 1441.80 L2205.73 1447.20 L2216.53 1442.81 L2227.50 1448.38 L2238.47 1474.37 L2249.27 1479.94 L2260.24 1515.54 L2271.21 1546.59 L2282.01 1552.84 L2292.98 1535.96 L2303.78 1516.56 L2314.74 1518.41 L2325.71 1550.14 L2336.51 1555.20 L2347.48 1548.28 L2358.45 1553.68 L2369.25 1561.78 L2380.22 1589.63 L2391.02 1599.41 L2401.99 1578.99 L2412.96 1568.70 L2423.76 1593.34 L2434.73 1595.03 L2445.53 1594.01 L2456.49 1634.34 L2467.46 1645.48 L2478.26 1670.29 L2489.23 1699.82 L2500.20 1688.68 L2511.00 1694.59 L2521.97 1688.18 L2532.77 1706.40 L2543.74 1740.32 L2554.71 1716.19 L2565.51 1736.61 L2576.48 1750.61 L2587.28 1757.19 L2598.24 1732.56 L2609.21 1675.52 L2620.01 1611.23 L2630.98 1582.37 L2641.95 1551.66 L2652.75 1542.04 L2663.72 1487.70 L2674.52 1457.83 L2685.49 1461.21 L2696.46 1426.61 L2707.26 1426.95 L2718.23 1411.93 L2729.03 1451.59 L2739.99 1494.45 L2750.96 1555.37 L2761.76 1543.56 L2772.73 1539.68 L2783.70 1550.14 L2794.50 1584.23 L2805.47 1584.06 L2816.27 1588.61 L2827.24 1605.99 L2838.21 1608.69 L2849.01 1558.41 L2859.98 1552.84 L2870.78 1516.89 L2881.74 1472.18 L2892.71 1472.01 L2903.51 1478.25 L2914.48 1473.53 L2925.45 1314.73 L2936.25 1326.54 L2947.22 1307.98 L2958.02 1298.03 L2968.99 1281.32 L2979.96 1302.24 L2990.76 1248.08 L3001.73 1265.12 L3012.69 1277.94 L3023.49 1272.21 L3034.46 1249.93 L3045.26 1278.11 L3056.23 1345.95 L3067.20 1329.08 L3078.00 1325.19 L3088.97 1320.98 L3099.77 1322.33 L3110.74 1292.79 L3121.71 1358.27 L3132.51 1398.26 L3143.48 1430.83 L3154.44 1464.08 L3165.24 1489.89 L3176.21 1492.26 L3187.01 1577.64 L3197.98 1579.67 L3208.95 1600.59 L3219.75 1618.99 L3230.72 1628.94 L3241.52 1679.06 L3252.49 1991.76 L3263.46 1947.71 L3274.26 1977.75 L3285.23 1875.83 L3296.19 1840.05 L3306.99 1810.18 L3317.96 1791.45 L3328.76 1809.00 L3339.73 1755.00 L3350.70 1694.25 L3361.50 1714.67 L3372.47 1687.16 L3383.27 1577.14 L3394.24 1561.61 L3405.21 1503.39 L3416.01 1545.41 L3426.98 1620.34 L3437.94 1564.99 L3448.74 1545.92 L3459.71 1530.56 L3470.51 1538.83 L3481.48 1552.84 L3492.45 1524.49 L3503.25 1497.66 L3514.22 1460.87 L3525.19 1499.85 L3535.99 1468.29 L3546.96 1527.86 L3557.76 1484.33 L3568.73 1534.61 L3579.69 1498.33 L3590.49 1477.91 L3601.46 1512.00 L3612.26 1503.90 L3623.23 1481.12 L3634.20 1502.21 L3645.00 1537.65 L3655.97 1552.84 L3666.94 1548.28 L3677.74 1516.73 L3688.71 1534.11 L3699.51 1564.31 L3710.48 1635.69 L3721.44 1569.38 L3732.24 1553.85 L3743.21 1583.21 L3754.01 1604.98 L3764.98 1587.60 L3775.95 1550.14 L3786.75 1527.53 L3797.72 1506.94 L3808.69 1493.44 L3819.49 1472.01 L3830.46 1454.46 L3841.26 1373.46 L3852.23 1476.23 L3863.19 1460.36 L3873.99 1419.86 L3884.96 1401.13 L3895.76 1379.36 L3906.73 1380.71 L3917.70 1387.63 L3928.50 1386.45 L3939.47 1461.38 L3950.44 1480.11 L3961.24 1463.91 L3972.21 1480.44 L3983.01 1515.21 L3993.98 1502.38 L4004.94 1523.98 L4015.74 1538.49 L4026.71 1576.13 L4037.51 1500.36 L4048.48 1545.41 L4059.45 1542.88 L4070.25 1550.14 L4081.22 1549.80 L4092.19 1524.49 L4102.99 1589.63 L4113.96 1514.19 L4124.76 1563.64 L4135.73 1550.31 L4146.69 1572.41 L4157.49 1591.14 L4168.46 1546.59 L4179.43 1501.03 L4190.23 1598.57 L4201.20 1499.18 L4212.00 1514.53 L4222.97 1451.76 L4233.94 1394.55 L4244.74 1336.67 L4255.71 1436.91 L4266.51 1398.94 L4277.48 1364.51 L4288.44 1436.40 L4299.24 1474.03 L4310.21 1487.36 L4321.18 1497.83 L4331.98 1554.19 L4342.95 1518.08 L4353.75 1574.94 L4364.72 1631.81 L4375.69 1677.54 L4386.49 1584.56 L4397.46 1619.33 L4408.26 1631.14 L4419.23 1654.76 L4430.19 1655.61 L4440.99 1598.91 L4451.96 1554.19 L4462.93 1509.64 L4473.73 1500.36 L4484.70 1537.65 L4495.50 1528.88 L4506.47 1509.13 L4517.44 1605.49 L4528.24 1597.89 L4539.21 1637.21 L4550.01 1595.87 L4560.98 1589.63 L4571.94 1630.29 L4582.74 1601.78 L4593.71 1839.88 L4604.68 1858.78 L4615.48 1843.26 L4626.45 1851.36 L4637.25 1859.96 L4648.22 1764.79 L4659.19 1739.64 L4669.99 1680.08 L4680.96 1759.89 L4691.93 1735.93 L4702.73 1758.71 L4713.69 1747.24 L4724.49 1597.22 L4735.46 1632.66 L4746.43 1599.24 L4757.23 1542.88 L4768.20 1579.33 L4779.00 1674.00 L4789.97 1653.24 L4800.94 1679.06 L4811.74 1589.29 L4822.71 1511.33 L4833.68 1526.18 L4844.48 1552.84 L4855.44 1498.50 L4866.24 1328.74 L4877.21 1297.86 L4888.18 1336.50 L4898.98 1213.14 L4909.95 1228.84 L4920.75 1267.65 L4931.72 1294.82 L4942.69 1310.51 L4953.49 1279.97 L4964.46 1295.66 L4975.43 1311.36 L4986.23 1373.29 L4997.19 1446.86 L5007.99 1474.03 L5018.96 1582.20 L5029.93 1759.89" stroke-linejoin="round" style="fill:none;stroke:#B45064;stroke-width:9.72"/>
	<line x1="564.30" y1="2766.66" x2="564.30" y2="309.82" style="stroke:#000000;stroke-width:6.48"/>
	<line x1="564.30" y1="2695.28" x2="519.41" y2="2695.28" style="stroke:#000000;stroke-width:6.48"/>
	<text x="496.80" y="2734.71" style="font-family:'Helvetica';font-size:112.56px;fill:#000000" text-anchor="end">-10</text>
	<line x1="564.30" y1="2116.80" x2="519.41" y2="2116.80" style="stroke:#000000;stroke-width:6.48"/>
	<text x="496.80" y="2156.24" style="font-family:'Helvetica';font-size:112.56px;fill:#000000" text-anchor="end">-5</text>
	<line x1="564.30" y1="1538.16" x2="519.41" y2="1538.16" style="stroke:#000000;stroke-width:6.48"/>
	<text x="496.80" y="1577.59" style="font-family:'Helvetica';font-size:112.56px;fill:#000000" text-anchor="end">0</text>
	<line x1="564.30" y1="959.68" x2="519.41" y2="959.68" style="stroke:#000000;stroke-width:6.48"/>
	<text x="496.80" y="999.12" style="font-family:'Helvetica';font-size:112.56px;fill:#000000" text-anchor="end">5</text>
	<line x1="564.30" y1="381.04" x2="519.41" y2="381.04" style="stroke:#000000;stroke-width:6.48"/>
	<text x="496.80" y="420.47" style="font-family:'Helvetica';font-size:112.56px;fill:#000000" text-anchor="end">10</text>
	<text x="214.55" y="1538.16" style="font-family:'Helvetica';font-size:112.56px;fill:#000000" transform="rotate(-90 214.55,1538.16)" text-anchor="middle">Variación Porcentual</text>
	<line x1="564.30" y1="2766.66" x2="5286.60" y2="2766.66" style="stroke:#000000;stroke-width:6.48"/>
	<line x1="635.68" y1="2766.66" x2="635.68" y2="2811.54" style="stroke:#000000;stroke-width:6.48"/>
	<text x="635.68" y="2912.86" style="font-family:'Helvetica';font-size:112.56px;fill:#000000" text-anchor="middle">1990m1</text>
	<line x1="1289.93" y1="2766.66" x2="1289.93" y2="2811.54" style="stroke:#000000;stroke-width:6.48"/>
	<text x="1289.93" y="2912.86" style="font-family:'Helvetica';font-size:112.56px;fill:#000000" text-anchor="middle">1995m1</text>
	<line x1="1944.17" y1="2766.66" x2="1944.17" y2="2811.54" style="stroke:#000000;stroke-width:6.48"/>
	<text x="1944.17" y="2912.86" style="font-family:'Helvetica';font-size:112.56px;fill:#000000" text-anchor="middle">2000m1</text>
	<line x1="2598.41" y1="2766.66" x2="2598.41" y2="2811.54" style="stroke:#000000;stroke-width:6.48"/>
	<text x="2598.41" y="2912.86" style="font-family:'Helvetica';font-size:112.56px;fill:#000000" text-anchor="middle">2005m1</text>
	<line x1="3252.66" y1="2766.66" x2="3252.66" y2="2811.54" style="stroke:#000000;stroke-width:6.48"/>
	<text x="3252.66" y="2912.86" style="font-family:'Helvetica';font-size:112.56px;fill:#000000" text-anchor="middle">2010m1</text>
	<line x1="3906.90" y1="2766.66" x2="3906.90" y2="2811.54" style="stroke:#000000;stroke-width:6.48"/>
	<text x="3906.90" y="2912.86" style="font-family:'Helvetica';font-size:112.56px;fill:#000000" text-anchor="middle">2015m1</text>
	<line x1="4561.14" y1="2766.66" x2="4561.14" y2="2811.54" style="stroke:#000000;stroke-width:6.48"/>
	<text x="4561.14" y="2912.86" style="font-family:'Helvetica';font-size:112.56px;fill:#000000" text-anchor="middle">2020m1</text>
	<line x1="5215.39" y1="2766.66" x2="5215.39" y2="2811.54" style="stroke:#000000;stroke-width:6.48"/>
	<text x="5215.39" y="2912.86" style="font-family:'Helvetica';font-size:112.56px;fill:#000000" text-anchor="middle">2025m1</text>
	<text x="2925.45" y="3070.31" style="font-family:'Helvetica';font-size:112.56px;fill:#000000" text-anchor="middle">Meses</text>
	<text x="2925.45" y="243.10" style="font-family:'Helvetica';font-size:157.44px;fill:#000000" text-anchor="middle">Evolución y Proyección del Ciclo de Remuneraciones</text>
</svg>
