<?xml version="1.0" encoding="UTF-8" standalone="no"?>
<!-- This is a Stata 18.0 generated SVG file (http://www.stata.com) -->

<svg version="1.1" width="7.500in" height="4.500in" viewBox="0 0 5400 3240" xmlns="http://www.w3.org/2000/svg" xmlns:xlink="http://www.w3.org/1999/xlink">
	<desc>Stata Graph - Graph</desc>
	<rect x="0" y="0" width="5400" height="3240" style="fill:#FFFFFF;stroke:none"/>
	<rect x="0.00" y="0.00" width="5400.00" height="3240.00" style="fill:#FFFFFF"/>
	<rect x="3.24" y="3.24" width="5393.52" height="3233.52" style="fill:none;stroke:#FFFFFF;stroke-width:6.48"/>
	<rect x="71.21" y="71.21" width="2628.79" height="3097.58" style="fill:#FFFFFF"/>
	<rect x="73.64" y="73.64" width="2623.93" height="3092.71" style="fill:none;stroke:#FFFFFF;stroke-width:4.86"/>
	<rect x="568.35" y="303.58" width="2046.60" height="2510.16" style="fill:#FFFFFF"/>
	<rect x="570.78" y="306.01" width="2041.74" height="2505.30" style="fill:none;stroke:#000000;stroke-width:4.86"/>
	<line x1="568.35" y1="2159.49" x2="633.15" y2="2159.49" style="stroke:#F0F0F0;stroke-width:7.29"/>
	<line x1="665.55" y1="2159.49" x2="730.35" y2="2159.49" style="stroke:#F0F0F0;stroke-width:7.29"/>
	<line x1="762.75" y1="2159.49" x2="827.55" y2="2159.49" style="stroke:#F0F0F0;stroke-width:7.29"/>
	<line x1="859.95" y1="2159.49" x2="924.75" y2="2159.49" style="stroke:#F0F0F0;stroke-width:7.29"/>
	<line x1="957.15" y1="2159.49" x2="1021.95" y2="2159.49" style="stroke:#F0F0F0;stroke-width:7.29"/>
	<line x1="1054.35" y1="2159.49" x2="1119.15" y2="2159.49" style="stroke:#F0F0F0;stroke-width:7.29"/>
	<line x1="1151.55" y1="2159.49" x2="1216.35" y2="2159.49" style="stroke:#F0F0F0;stroke-width:7.29"/>
	<line x1="1248.75" y1="2159.49" x2="1313.55" y2="2159.49" style="stroke:#F0F0F0;stroke-width:7.29"/>
	<line x1="1345.95" y1="2159.49" x2="1410.75" y2="2159.49" style="stroke:#F0F0F0;stroke-width:7.29"/>
	<line x1="1443.15" y1="2159.49" x2="1507.95" y2="2159.49" style="stroke:#F0F0F0;stroke-width:7.29"/>
	<line x1="1540.35" y1="2159.49" x2="1605.15" y2="2159.49" style="stroke:#F0F0F0;stroke-width:7.29"/>
	<line x1="1637.55" y1="2159.49" x2="1702.35" y2="2159.49" style="stroke:#F0F0F0;stroke-width:7.29"/>
	<line x1="1734.75" y1="2159.49" x2="1799.55" y2="2159.49" style="stroke:#F0F0F0;stroke-width:7.29"/>
	<line x1="1831.95" y1="2159.49" x2="1896.75" y2="2159.49" style="stroke:#F0F0F0;stroke-width:7.29"/>
	<line x1="1929.15" y1="2159.49" x2="1993.95" y2="2159.49" style="stroke:#F0F0F0;stroke-width:7.29"/>
	<line x1="2026.35" y1="2159.49" x2="2091.15" y2="2159.49" style="stroke:#F0F0F0;stroke-width:7.29"/>
	<line x1="2123.55" y1="2159.49" x2="2188.35" y2="2159.49" style="stroke:#F0F0F0;stroke-width:7.29"/>
	<line x1="2220.75" y1="2159.49" x2="2285.55" y2="2159.49" style="stroke:#F0F0F0;stroke-width:7.29"/>
	<line x1="2317.95" y1="2159.49" x2="2382.75" y2="2159.49" style="stroke:#F0F0F0;stroke-width:7.29"/>
	<line x1="2415.15" y1="2159.49" x2="2479.95" y2="2159.49" style="stroke:#F0F0F0;stroke-width:7.29"/>
	<line x1="2512.35" y1="2159.49" x2="2577.15" y2="2159.49" style="stroke:#F0F0F0;stroke-width:7.29"/>
	<line x1="2609.55" y1="2159.49" x2="2614.95" y2="2159.49" style="stroke:#F0F0F0;stroke-width:7.29"/>
	<defs>
		<path id="path_AFYmldKh" d="M686.48 2242.86 L686.48 2242.86 L751.11 2248.59 L815.74 2263.78 L880.37 2267.83 L945.17 2274.75 L1009.80 2281.33 L1074.43 2287.74 L1139.06 2292.30 L1203.69 2296.01 L1268.33 2300.06 L1332.96 2303.44 L1397.76 2307.99 L1462.39 2311.20 L1527.02 2312.89 L1591.65 2313.90 L1656.28 2315.59 L1720.91 2317.61 L1785.54 2319.98 L1850.34 2321.49 L1914.98 2322.34 L1979.61 2323.86 L2044.24 2325.21 L2108.87 2326.05 L2173.50 2327.74 L2238.13 2328.07 L2302.93 2329.09 L2367.56 2329.59 L2432.19 2331.28 L2496.82 2332.80 L2561.46 2333.64 L2561.46 1985.34 L2496.82 1986.02 L2432.19 1987.54 L2367.56 1989.23 L2302.93 1989.90 L2238.13 1990.74 L2173.50 1991.25 L2108.87 1992.77 L2044.24 1993.61 L1979.61 1994.96 L1914.98 1996.65 L1850.34 1997.33 L1785.54 1998.84 L1720.91 2001.38 L1656.28 2003.23 L1591.65 2005.09 L1527.02 2006.10 L1462.39 2007.62 L1397.76 2010.83 L1332.96 2015.38 L1268.33 2018.76 L1203.69 2022.81 L1139.06 2026.52 L1074.43 2031.24 L1009.80 2037.66 L945.17 2044.07 L880.37 2050.99 L815.74 2055.04 L751.11 2070.23 L686.48 2076.13 L686.48 2242.86 Z" stroke-linejoin="round"/>
	</defs>
	<defs>
		<clipPath id="clipPath_GwjfQbdq">
			<use xlink:href="#path_AFYmldKh"/>
		</clipPath>
	</defs>
	<use xlink:href="#path_AFYmldKh" style="stroke:none;fill:#E0E0E0"/>
	<use xlink:href="#path_AFYmldKh" style="fill:none;stroke:#E0E0E0;stroke-width:14.58" clip-path="url(#clipPath_GwjfQbdq)"/>
	<line x1="686.48" y1="2159.49" x2="686.48" y2="1348.65" style="stroke:#FF0000;stroke-width:7.29"/>
	<line x1="751.11" y1="2159.49" x2="751.11" y2="781.31" style="stroke:#FF0000;stroke-width:7.29"/>
	<line x1="815.74" y1="2159.49" x2="815.74" y2="1406.03" style="stroke:#FF0000;stroke-width:7.29"/>
	<line x1="880.37" y1="2159.49" x2="880.37" y2="1159.99" style="stroke:#FF0000;stroke-width:7.29"/>
	<line x1="945.17" y1="2159.49" x2="945.17" y2="1158.64" style="stroke:#FF0000;stroke-width:7.29"/>
	<line x1="1009.80" y1="2159.49" x2="1009.80" y2="1136.87" style="stroke:#FF0000;stroke-width:7.29"/>
	<line x1="1074.43" y1="2159.49" x2="1074.43" y2="1275.58" style="stroke:#FF0000;stroke-width:7.29"/>
	<line x1="1139.06" y1="2159.49" x2="1139.06" y2="1347.81" style="stroke:#FF0000;stroke-width:7.29"/>
	<line x1="1203.69" y1="2159.49" x2="1203.69" y2="1316.08" style="stroke:#FF0000;stroke-width:7.29"/>
	<line x1="1268.33" y1="2159.49" x2="1268.33" y2="1361.48" style="stroke:#FF0000;stroke-width:7.29"/>
	<line x1="1332.96" y1="2159.49" x2="1332.96" y2="1224.28" style="stroke:#FF0000;stroke-width:7.29"/>
	<line x1="1397.76" y1="2159.49" x2="1397.76" y2="1380.88" style="stroke:#FF0000;stroke-width:7.29"/>
	<line x1="1462.39" y1="2159.49" x2="1462.39" y2="1585.74" style="stroke:#FF0000;stroke-width:7.29"/>
	<line x1="1527.02" y1="2159.49" x2="1527.02" y2="1713.15" style="stroke:#FF0000;stroke-width:7.29"/>
	<line x1="1591.65" y1="2159.49" x2="1591.65" y2="1560.77" style="stroke:#FF0000;stroke-width:7.29"/>
	<line x1="1656.28" y1="2159.49" x2="1656.28" y2="1529.38" style="stroke:#FF0000;stroke-width:7.29"/>
	<line x1="1720.91" y1="2159.49" x2="1720.91" y2="1453.61" style="stroke:#FF0000;stroke-width:7.29"/>
	<line x1="1785.54" y1="2159.49" x2="1785.54" y2="1589.79" style="stroke:#FF0000;stroke-width:7.29"/>
	<line x1="1850.34" y1="2159.49" x2="1850.34" y2="1764.79" style="stroke:#FF0000;stroke-width:7.29"/>
	<line x1="1914.98" y1="2159.49" x2="1914.98" y2="1582.71" style="stroke:#FF0000;stroke-width:7.29"/>
	<line x1="1979.61" y1="2159.49" x2="1979.61" y2="1613.08" style="stroke:#FF0000;stroke-width:7.29"/>
	<line x1="2044.24" y1="2159.49" x2="2044.24" y2="1726.48" style="stroke:#FF0000;stroke-width:7.29"/>
	<line x1="2108.87" y1="2159.49" x2="2108.87" y2="1571.91" style="stroke:#FF0000;stroke-width:7.29"/>
	<line x1="2173.50" y1="2159.49" x2="2173.50" y2="1844.61" style="stroke:#FF0000;stroke-width:7.29"/>
	<line x1="2238.13" y1="2159.49" x2="2238.13" y2="1713.49" style="stroke:#FF0000;stroke-width:7.29"/>
	<line x1="2302.93" y1="2159.49" x2="2302.93" y2="1787.23" style="stroke:#FF0000;stroke-width:7.29"/>
	<line x1="2367.56" y1="2159.49" x2="2367.56" y2="1564.65" style="stroke:#FF0000;stroke-width:7.29"/>
	<line x1="2432.19" y1="2159.49" x2="2432.19" y2="1569.21" style="stroke:#FF0000;stroke-width:7.29"/>
	<line x1="2496.82" y1="2159.49" x2="2496.82" y2="1737.79" style="stroke:#FF0000;stroke-width:7.29"/>
	<line x1="2561.46" y1="2159.49" x2="2561.46" y2="1788.41" style="stroke:#FF0000;stroke-width:7.29"/>
	<circle cx="686.31" cy="1348.65" r="16.30" style="fill:#FF0000"/>
	<circle cx="686.31" cy="1348.65" r="12.66" style="fill:none;stroke:#FF0000;stroke-width:7.29"/>
	<circle cx="751.11" cy="781.48" r="16.30" style="fill:#FF0000"/>
	<circle cx="751.11" cy="781.48" r="12.66" style="fill:none;stroke:#FF0000;stroke-width:7.29"/>
	<circle cx="815.74" cy="1406.19" r="16.30" style="fill:#FF0000"/>
	<circle cx="815.74" cy="1406.19" r="12.66" style="fill:none;stroke:#FF0000;stroke-width:7.29"/>
	<circle cx="880.37" cy="1159.99" r="16.30" style="fill:#FF0000"/>
	<circle cx="880.37" cy="1159.99" r="12.66" style="fill:none;stroke:#FF0000;stroke-width:7.29"/>
	<circle cx="945.00" cy="1158.64" r="16.30" style="fill:#FF0000"/>
	<circle cx="945.00" cy="1158.64" r="12.66" style="fill:none;stroke:#FF0000;stroke-width:7.29"/>
	<circle cx="1009.63" cy="1137.04" r="16.30" style="fill:#FF0000"/>
	<circle cx="1009.63" cy="1137.04" r="12.66" style="fill:none;stroke:#FF0000;stroke-width:7.29"/>
	<circle cx="1074.26" cy="1275.58" r="16.30" style="fill:#FF0000"/>
	<circle cx="1074.26" cy="1275.58" r="12.66" style="fill:none;stroke:#FF0000;stroke-width:7.29"/>
	<circle cx="1138.89" cy="1347.81" r="16.30" style="fill:#FF0000"/>
	<circle cx="1138.89" cy="1347.81" r="12.66" style="fill:none;stroke:#FF0000;stroke-width:7.29"/>
	<circle cx="1203.69" cy="1316.08" r="16.30" style="fill:#FF0000"/>
	<circle cx="1203.69" cy="1316.08" r="12.66" style="fill:none;stroke:#FF0000;stroke-width:7.29"/>
	<circle cx="1268.33" cy="1361.48" r="16.30" style="fill:#FF0000"/>
	<circle cx="1268.33" cy="1361.48" r="12.66" style="fill:none;stroke:#FF0000;stroke-width:7.29"/>
	<circle cx="1332.96" cy="1224.28" r="16.30" style="fill:#FF0000"/>
	<circle cx="1332.96" cy="1224.28" r="12.66" style="fill:none;stroke:#FF0000;stroke-width:7.29"/>
	<circle cx="1397.59" cy="1380.88" r="16.30" style="fill:#FF0000"/>
	<circle cx="1397.59" cy="1380.88" r="12.66" style="fill:none;stroke:#FF0000;stroke-width:7.29"/>
	<circle cx="1462.22" cy="1585.91" r="16.30" style="fill:#FF0000"/>
	<circle cx="1462.22" cy="1585.91" r="12.66" style="fill:none;stroke:#FF0000;stroke-width:7.29"/>
	<circle cx="1526.85" cy="1713.32" r="16.30" style="fill:#FF0000"/>
	<circle cx="1526.85" cy="1713.32" r="12.66" style="fill:none;stroke:#FF0000;stroke-width:7.29"/>
	<circle cx="1591.65" cy="1560.77" r="16.30" style="fill:#FF0000"/>
	<circle cx="1591.65" cy="1560.77" r="12.66" style="fill:none;stroke:#FF0000;stroke-width:7.29"/>
	<circle cx="1656.28" cy="1529.55" r="16.30" style="fill:#FF0000"/>
	<circle cx="1656.28" cy="1529.55" r="12.66" style="fill:none;stroke:#FF0000;stroke-width:7.29"/>
	<circle cx="1720.91" cy="1453.78" r="16.30" style="fill:#FF0000"/>
	<circle cx="1720.91" cy="1453.78" r="12.66" style="fill:none;stroke:#FF0000;stroke-width:7.29"/>
	<circle cx="1785.54" cy="1589.96" r="16.30" style="fill:#FF0000"/>
	<circle cx="1785.54" cy="1589.96" r="12.66" style="fill:none;stroke:#FF0000;stroke-width:7.29"/>
	<circle cx="1850.18" cy="1764.79" r="16.30" style="fill:#FF0000"/>
	<circle cx="1850.18" cy="1764.79" r="12.66" style="fill:none;stroke:#FF0000;stroke-width:7.29"/>
	<circle cx="1914.81" cy="1582.71" r="16.30" style="fill:#FF0000"/>
	<circle cx="1914.81" cy="1582.71" r="12.66" style="fill:none;stroke:#FF0000;stroke-width:7.29"/>
	<circle cx="1979.44" cy="1613.25" r="16.30" style="fill:#FF0000"/>
	<circle cx="1979.44" cy="1613.25" r="12.66" style="fill:none;stroke:#FF0000;stroke-width:7.29"/>
	<circle cx="2044.24" cy="1726.65" r="16.30" style="fill:#FF0000"/>
	<circle cx="2044.24" cy="1726.65" r="12.66" style="fill:none;stroke:#FF0000;stroke-width:7.29"/>
	<circle cx="2108.87" cy="1572.08" r="16.30" style="fill:#FF0000"/>
	<circle cx="2108.87" cy="1572.08" r="12.66" style="fill:none;stroke:#FF0000;stroke-width:7.29"/>
	<circle cx="2173.50" cy="1844.78" r="16.30" style="fill:#FF0000"/>
	<circle cx="2173.50" cy="1844.78" r="12.66" style="fill:none;stroke:#FF0000;stroke-width:7.29"/>
	<circle cx="2238.13" cy="1713.66" r="16.30" style="fill:#FF0000"/>
	<circle cx="2238.13" cy="1713.66" r="12.66" style="fill:none;stroke:#FF0000;stroke-width:7.29"/>
	<circle cx="2302.76" cy="1787.23" r="16.30" style="fill:#FF0000"/>
	<circle cx="2302.76" cy="1787.23" r="12.66" style="fill:none;stroke:#FF0000;stroke-width:7.29"/>
	<circle cx="2367.39" cy="1564.82" r="16.30" style="fill:#FF0000"/>
	<circle cx="2367.39" cy="1564.82" r="12.66" style="fill:none;stroke:#FF0000;stroke-width:7.29"/>
	<circle cx="2432.03" cy="1569.21" r="16.30" style="fill:#FF0000"/>
	<circle cx="2432.03" cy="1569.21" r="12.66" style="fill:none;stroke:#FF0000;stroke-width:7.29"/>
	<circle cx="2496.82" cy="1737.96" r="16.30" style="fill:#FF0000"/>
	<circle cx="2496.82" cy="1737.96" r="12.66" style="fill:none;stroke:#FF0000;stroke-width:7.29"/>
	<circle cx="2561.46" cy="1788.41" r="16.30" style="fill:#FF0000"/>
	<circle cx="2561.46" cy="1788.41" r="12.66" style="fill:none;stroke:#FF0000;stroke-width:7.29"/>
	<line x1="568.35" y1="2813.74" x2="568.35" y2="303.58" style="stroke:#000000;stroke-width:4.86"/>
	<line x1="568.35" y1="2760.24" x2="534.60" y2="2760.24" style="stroke:#000000;stroke-width:4.86"/>
	<text x="517.73" y="2789.82" style="font-family:'Helvetica';font-size:84.38px;fill:#000000" text-anchor="end">-0.20</text>
	<line x1="568.35" y1="2159.49" x2="534.60" y2="2159.49" style="stroke:#000000;stroke-width:4.86"/>
	<text x="517.73" y="2189.07" style="font-family:'Helvetica';font-size:84.38px;fill:#000000" text-anchor="end">0.00</text>
	<line x1="568.35" y1="1558.58" x2="534.60" y2="1558.58" style="stroke:#000000;stroke-width:4.86"/>
	<text x="517.73" y="1588.15" style="font-family:'Helvetica';font-size:84.38px;fill:#000000" text-anchor="end">0.20</text>
	<line x1="568.35" y1="957.82" x2="534.60" y2="957.82" style="stroke:#000000;stroke-width:4.86"/>
	<text x="517.73" y="987.40" style="font-family:'Helvetica';font-size:84.38px;fill:#000000" text-anchor="end">0.40</text>
	<line x1="568.35" y1="357.07" x2="534.60" y2="357.07" style="stroke:#000000;stroke-width:4.86"/>
	<text x="517.73" y="386.65" style="font-family:'Helvetica';font-size:84.38px;fill:#000000" text-anchor="end">0.60</text>
	<text x="232.12" y="1558.58" style="font-family:'Helvetica';font-size:84.38px;fill:#000000" transform="rotate(-90 232.12,1558.58)" text-anchor="middle">Autocorrelación</text>
	<line x1="568.35" y1="2813.74" x2="2614.95" y2="2813.74" style="stroke:#000000;stroke-width:4.86"/>
	<line x1="621.84" y1="2813.74" x2="621.84" y2="2847.49" style="stroke:#000000;stroke-width:4.86"/>
	<text x="621.84" y="2923.34" style="font-family:'Helvetica';font-size:84.38px;fill:#000000" text-anchor="middle">0</text>
	<line x1="1268.33" y1="2813.74" x2="1268.33" y2="2847.49" style="stroke:#000000;stroke-width:4.86"/>
	<text x="1268.33" y="2923.34" style="font-family:'Helvetica';font-size:84.38px;fill:#000000" text-anchor="middle">10</text>
	<line x1="1914.98" y1="2813.74" x2="1914.98" y2="2847.49" style="stroke:#000000;stroke-width:4.86"/>
	<text x="1914.98" y="2923.34" style="font-family:'Helvetica';font-size:84.38px;fill:#000000" text-anchor="middle">20</text>
	<line x1="2561.46" y1="2813.74" x2="2561.46" y2="2847.49" style="stroke:#000000;stroke-width:4.86"/>
	<text x="2561.46" y="2923.34" style="font-family:'Helvetica';font-size:84.38px;fill:#000000" text-anchor="middle">30</text>
	<text x="1591.65" y="3041.47" style="font-family:'Helvetica';font-size:84.38px;fill:#000000" text-anchor="middle">Rezago</text>
	<text x="1591.65" y="253.55" style="font-family:'Helvetica';font-size:118.13px;fill:#000000" text-anchor="middle">AC: Residuo2</text>
	<rect x="2700.00" y="71.21" width="2628.79" height="3097.58" style="fill:#FFFFFF"/>
	<rect x="2702.43" y="73.64" width="2623.93" height="3092.71" style="fill:none;stroke:#FFFFFF;stroke-width:4.86"/>
	<rect x="3197.14" y="303.58" width="2046.60" height="2510.16" style="fill:#FFFFFF"/>
	<rect x="3199.57" y="306.01" width="2041.74" height="2505.30" style="fill:none;stroke:#000000;stroke-width:4.86"/>
	<line x1="3197.14" y1="2279.81" x2="3261.94" y2="2279.81" style="stroke:#F0F0F0;stroke-width:7.29"/>
	<line x1="3294.34" y1="2279.81" x2="3359.14" y2="2279.81" style="stroke:#F0F0F0;stroke-width:7.29"/>
	<line x1="3391.54" y1="2279.81" x2="3456.34" y2="2279.81" style="stroke:#F0F0F0;stroke-width:7.29"/>
	<line x1="3488.74" y1="2279.81" x2="3553.54" y2="2279.81" style="stroke:#F0F0F0;stroke-width:7.29"/>
	<line x1="3585.94" y1="2279.81" x2="3650.74" y2="2279.81" style="stroke:#F0F0F0;stroke-width:7.29"/>
	<line x1="3683.14" y1="2279.81" x2="3747.94" y2="2279.81" style="stroke:#F0F0F0;stroke-width:7.29"/>
	<line x1="3780.34" y1="2279.81" x2="3845.14" y2="2279.81" style="stroke:#F0F0F0;stroke-width:7.29"/>
	<line x1="3877.54" y1="2279.81" x2="3942.34" y2="2279.81" style="stroke:#F0F0F0;stroke-width:7.29"/>
	<line x1="3974.74" y1="2279.81" x2="4039.54" y2="2279.81" style="stroke:#F0F0F0;stroke-width:7.29"/>
	<line x1="4071.94" y1="2279.81" x2="4136.74" y2="2279.81" style="stroke:#F0F0F0;stroke-width:7.29"/>
	<line x1="4169.14" y1="2279.81" x2="4233.94" y2="2279.81" style="stroke:#F0F0F0;stroke-width:7.29"/>
	<line x1="4266.34" y1="2279.81" x2="4331.14" y2="2279.81" style="stroke:#F0F0F0;stroke-width:7.29"/>
	<line x1="4363.54" y1="2279.81" x2="4428.34" y2="2279.81" style="stroke:#F0F0F0;stroke-width:7.29"/>
	<line x1="4460.74" y1="2279.81" x2="4525.54" y2="2279.81" style="stroke:#F0F0F0;stroke-width:7.29"/>
	<line x1="4557.94" y1="2279.81" x2="4622.74" y2="2279.81" style="stroke:#F0F0F0;stroke-width:7.29"/>
	<line x1="4655.14" y1="2279.81" x2="4719.94" y2="2279.81" style="stroke:#F0F0F0;stroke-width:7.29"/>
	<line x1="4752.34" y1="2279.81" x2="4817.14" y2="2279.81" style="stroke:#F0F0F0;stroke-width:7.29"/>
	<line x1="4849.54" y1="2279.81" x2="4914.34" y2="2279.81" style="stroke:#F0F0F0;stroke-width:7.29"/>
	<line x1="4946.74" y1="2279.81" x2="5011.54" y2="2279.81" style="stroke:#F0F0F0;stroke-width:7.29"/>
	<line x1="5043.94" y1="2279.81" x2="5108.74" y2="2279.81" style="stroke:#F0F0F0;stroke-width:7.29"/>
	<line x1="5141.14" y1="2279.81" x2="5205.94" y2="2279.81" style="stroke:#F0F0F0;stroke-width:7.29"/>
	<line x1="5238.34" y1="2279.81" x2="5243.74" y2="2279.81" style="stroke:#F0F0F0;stroke-width:7.29"/>
	<defs>
		<path id="path_myOFJyCY" d="M3315.26 2407.89 L3315.26 2407.89 L3379.89 2407.89 L3444.53 2407.89 L3509.16 2407.89 L3573.79 2407.89 L3638.42 2407.89 L3703.05 2407.89 L3767.85 2407.89 L3832.48 2407.89 L3897.11 2407.89 L3961.74 2407.89 L4026.38 2407.89 L4091.01 2407.89 L4155.64 2407.89 L4220.44 2407.89 L4285.07 2407.89 L4349.70 2407.89 L4414.33 2407.89 L4478.96 2407.89 L4543.59 2407.89 L4608.23 2407.89 L4673.02 2407.89 L4737.66 2407.89 L4802.29 2407.89 L4866.92 2407.89 L4931.55 2407.89 L4996.18 2407.89 L5060.98 2407.89 L5125.61 2407.89 L5190.24 2407.89 L5190.24 2151.56 L5125.61 2151.56 L5060.98 2151.56 L4996.18 2151.56 L4931.55 2151.56 L4866.92 2151.56 L4802.29 2151.56 L4737.66 2151.56 L4673.02 2151.56 L4608.23 2151.56 L4543.59 2151.56 L4478.96 2151.56 L4414.33 2151.56 L4349.70 2151.56 L4285.07 2151.56 L4220.44 2151.56 L4155.64 2151.56 L4091.01 2151.56 L4026.38 2151.56 L3961.74 2151.56 L3897.11 2151.56 L3832.48 2151.56 L3767.85 2151.56 L3703.05 2151.56 L3638.42 2151.56 L3573.79 2151.56 L3509.16 2151.56 L3444.53 2151.56 L3379.89 2151.56 L3315.26 2151.56 L3315.26 2407.89 Z" stroke-linejoin="round"/>
	</defs>
	<defs>
		<clipPath id="clipPath_vnzlZJZj">
			<use xlink:href="#path_myOFJyCY"/>
		</clipPath>
	</defs>
	<use xlink:href="#path_myOFJyCY" style="stroke:none;fill:#E0E0E0"/>
	<use xlink:href="#path_myOFJyCY" style="fill:none;stroke:#E0E0E0;stroke-width:14.58" clip-path="url(#clipPath_vnzlZJZj)"/>
	<line x1="3315.26" y1="2279.81" x2="3315.26" y2="1032.92" style="stroke:#FF0000;stroke-width:7.29"/>
	<line x1="3379.89" y1="2279.81" x2="3379.89" y2="357.07" style="stroke:#FF0000;stroke-width:7.29"/>
	<line x1="3444.53" y1="2279.81" x2="3444.53" y2="1881.06" style="stroke:#FF0000;stroke-width:7.29"/>
	<line x1="3509.16" y1="2279.81" x2="3509.16" y2="1707.75" style="stroke:#FF0000;stroke-width:7.29"/>
	<line x1="3573.79" y1="2279.81" x2="3573.79" y2="1406.19" style="stroke:#FF0000;stroke-width:7.29"/>
	<line x1="3638.42" y1="2279.81" x2="3638.42" y2="1646.83" style="stroke:#FF0000;stroke-width:7.29"/>
	<line x1="3703.05" y1="2279.81" x2="3703.05" y2="2076.13" style="stroke:#FF0000;stroke-width:7.29"/>
	<line x1="3767.85" y1="2279.81" x2="3767.85" y2="2199.32" style="stroke:#FF0000;stroke-width:7.29"/>
	<line x1="3832.48" y1="2279.81" x2="3832.48" y2="1989.73" style="stroke:#FF0000;stroke-width:7.29"/>
	<line x1="3897.11" y1="2279.81" x2="3897.11" y2="2092.84" style="stroke:#FF0000;stroke-width:7.29"/>
	<line x1="3961.74" y1="2279.81" x2="3961.74" y2="1885.61" style="stroke:#FF0000;stroke-width:7.29"/>
	<line x1="4026.38" y1="2279.81" x2="4026.38" y2="2151.23" style="stroke:#FF0000;stroke-width:7.29"/>
	<line x1="4091.01" y1="2279.81" x2="4091.01" y2="2707.43" style="stroke:#FF0000;stroke-width:7.29"/>
	<line x1="4155.64" y1="2279.81" x2="4155.64" y2="2760.24" style="stroke:#FF0000;stroke-width:7.29"/>
	<line x1="4220.44" y1="2279.81" x2="4220.44" y2="2147.68" style="stroke:#FF0000;stroke-width:7.29"/>
	<line x1="4285.07" y1="2279.81" x2="4285.07" y2="2031.24" style="stroke:#FF0000;stroke-width:7.29"/>
	<line x1="4349.70" y1="2279.81" x2="4349.70" y2="2066.01" style="stroke:#FF0000;stroke-width:7.29"/>
	<line x1="4414.33" y1="2279.81" x2="4414.33" y2="2239.31" style="stroke:#FF0000;stroke-width:7.29"/>
	<line x1="4478.96" y1="2279.81" x2="4478.96" y2="2555.04" style="stroke:#FF0000;stroke-width:7.29"/>
	<line x1="4543.59" y1="2279.81" x2="4543.59" y2="2030.23" style="stroke:#FF0000;stroke-width:7.29"/>
	<line x1="4608.23" y1="2279.81" x2="4608.23" y2="2000.87" style="stroke:#FF0000;stroke-width:7.29"/>
	<line x1="4673.02" y1="2279.81" x2="4673.02" y2="2583.73" style="stroke:#FF0000;stroke-width:7.29"/>
	<line x1="4737.66" y1="2279.81" x2="4737.66" y2="2082.04" style="stroke:#FF0000;stroke-width:7.29"/>
	<line x1="4802.29" y1="2279.81" x2="4802.29" y2="2339.89" style="stroke:#FF0000;stroke-width:7.29"/>
	<line x1="4866.92" y1="2279.81" x2="4866.92" y2="2252.14" style="stroke:#FF0000;stroke-width:7.29"/>
	<line x1="4931.55" y1="2279.81" x2="4931.55" y2="2264.79" style="stroke:#FF0000;stroke-width:7.29"/>
	<line x1="4996.18" y1="2279.81" x2="4996.18" y2="1973.70" style="stroke:#FF0000;stroke-width:7.29"/>
	<line x1="5060.98" y1="2279.81" x2="5060.98" y2="1922.23" style="stroke:#FF0000;stroke-width:7.29"/>
	<line x1="5125.61" y1="2279.81" x2="5125.61" y2="2453.29" style="stroke:#FF0000;stroke-width:7.29"/>
	<line x1="5190.24" y1="2279.81" x2="5190.24" y2="2385.28" style="stroke:#FF0000;stroke-width:7.29"/>
	<circle cx="3315.09" cy="1032.92" r="16.30" style="fill:#FF0000"/>
	<circle cx="3315.09" cy="1032.92" r="12.66" style="fill:none;stroke:#FF0000;stroke-width:7.29"/>
	<circle cx="3379.73" cy="357.07" r="16.30" style="fill:#FF0000"/>
	<circle cx="3379.73" cy="357.07" r="12.66" style="fill:none;stroke:#FF0000;stroke-width:7.29"/>
	<circle cx="3444.36" cy="1881.06" r="16.30" style="fill:#FF0000"/>
	<circle cx="3444.36" cy="1881.06" r="12.66" style="fill:none;stroke:#FF0000;stroke-width:7.29"/>
	<circle cx="3509.16" cy="1707.75" r="16.30" style="fill:#FF0000"/>
	<circle cx="3509.16" cy="1707.75" r="12.66" style="fill:none;stroke:#FF0000;stroke-width:7.29"/>
	<circle cx="3573.79" cy="1406.19" r="16.30" style="fill:#FF0000"/>
	<circle cx="3573.79" cy="1406.19" r="12.66" style="fill:none;stroke:#FF0000;stroke-width:7.29"/>
	<circle cx="3638.42" cy="1646.83" r="16.30" style="fill:#FF0000"/>
	<circle cx="3638.42" cy="1646.83" r="12.66" style="fill:none;stroke:#FF0000;stroke-width:7.29"/>
	<circle cx="3703.05" cy="2076.13" r="16.30" style="fill:#FF0000"/>
	<circle cx="3703.05" cy="2076.13" r="12.66" style="fill:none;stroke:#FF0000;stroke-width:7.29"/>
	<circle cx="3767.68" cy="2199.32" r="16.30" style="fill:#FF0000"/>
	<circle cx="3767.68" cy="2199.32" r="12.66" style="fill:none;stroke:#FF0000;stroke-width:7.29"/>
	<circle cx="3832.31" cy="1989.73" r="16.30" style="fill:#FF0000"/>
	<circle cx="3832.31" cy="1989.73" r="12.66" style="fill:none;stroke:#FF0000;stroke-width:7.29"/>
	<circle cx="3896.94" cy="2093.01" r="16.30" style="fill:#FF0000"/>
	<circle cx="3896.94" cy="2093.01" r="12.66" style="fill:none;stroke:#FF0000;stroke-width:7.29"/>
	<circle cx="3961.74" cy="1885.61" r="16.30" style="fill:#FF0000"/>
	<circle cx="3961.74" cy="1885.61" r="12.66" style="fill:none;stroke:#FF0000;stroke-width:7.29"/>
	<circle cx="4026.38" cy="2151.23" r="16.30" style="fill:#FF0000"/>
	<circle cx="4026.38" cy="2151.23" r="12.66" style="fill:none;stroke:#FF0000;stroke-width:7.29"/>
	<circle cx="4091.01" cy="2707.59" r="16.30" style="fill:#FF0000"/>
	<circle cx="4091.01" cy="2707.59" r="12.66" style="fill:none;stroke:#FF0000;stroke-width:7.29"/>
	<circle cx="4155.64" cy="2760.24" r="16.30" style="fill:#FF0000"/>
	<circle cx="4155.64" cy="2760.24" r="12.66" style="fill:none;stroke:#FF0000;stroke-width:7.29"/>
	<circle cx="4220.27" cy="2147.85" r="16.30" style="fill:#FF0000"/>
	<circle cx="4220.27" cy="2147.85" r="12.66" style="fill:none;stroke:#FF0000;stroke-width:7.29"/>
	<circle cx="4284.90" cy="2031.24" r="16.30" style="fill:#FF0000"/>
	<circle cx="4284.90" cy="2031.24" r="12.66" style="fill:none;stroke:#FF0000;stroke-width:7.29"/>
	<circle cx="4349.53" cy="2066.18" r="16.30" style="fill:#FF0000"/>
	<circle cx="4349.53" cy="2066.18" r="12.66" style="fill:none;stroke:#FF0000;stroke-width:7.29"/>
	<circle cx="4414.33" cy="2239.31" r="16.30" style="fill:#FF0000"/>
	<circle cx="4414.33" cy="2239.31" r="12.66" style="fill:none;stroke:#FF0000;stroke-width:7.29"/>
	<circle cx="4478.96" cy="2555.21" r="16.30" style="fill:#FF0000"/>
	<circle cx="4478.96" cy="2555.21" r="12.66" style="fill:none;stroke:#FF0000;stroke-width:7.29"/>
	<circle cx="4543.59" cy="2030.23" r="16.30" style="fill:#FF0000"/>
	<circle cx="4543.59" cy="2030.23" r="12.66" style="fill:none;stroke:#FF0000;stroke-width:7.29"/>
	<circle cx="4608.23" cy="2001.04" r="16.30" style="fill:#FF0000"/>
	<circle cx="4608.23" cy="2001.04" r="12.66" style="fill:none;stroke:#FF0000;stroke-width:7.29"/>
	<circle cx="4672.86" cy="2583.73" r="16.30" style="fill:#FF0000"/>
	<circle cx="4672.86" cy="2583.73" r="12.66" style="fill:none;stroke:#FF0000;stroke-width:7.29"/>
	<circle cx="4737.49" cy="2082.21" r="16.30" style="fill:#FF0000"/>
	<circle cx="4737.49" cy="2082.21" r="12.66" style="fill:none;stroke:#FF0000;stroke-width:7.29"/>
	<circle cx="4802.12" cy="2339.89" r="16.30" style="fill:#FF0000"/>
	<circle cx="4802.12" cy="2339.89" r="12.66" style="fill:none;stroke:#FF0000;stroke-width:7.29"/>
	<circle cx="4866.92" cy="2252.14" r="16.30" style="fill:#FF0000"/>
	<circle cx="4866.92" cy="2252.14" r="12.66" style="fill:none;stroke:#FF0000;stroke-width:7.29"/>
	<circle cx="4931.55" cy="2264.96" r="16.30" style="fill:#FF0000"/>
	<circle cx="4931.55" cy="2264.96" r="12.66" style="fill:none;stroke:#FF0000;stroke-width:7.29"/>
	<circle cx="4996.18" cy="1973.87" r="16.30" style="fill:#FF0000"/>
	<circle cx="4996.18" cy="1973.87" r="12.66" style="fill:none;stroke:#FF0000;stroke-width:7.29"/>
	<circle cx="5060.81" cy="1922.23" r="16.30" style="fill:#FF0000"/>
	<circle cx="5060.81" cy="1922.23" r="12.66" style="fill:none;stroke:#FF0000;stroke-width:7.29"/>
	<circle cx="5125.44" cy="2453.46" r="16.30" style="fill:#FF0000"/>
	<circle cx="5125.44" cy="2453.46" r="12.66" style="fill:none;stroke:#FF0000;stroke-width:7.29"/>
	<circle cx="5190.08" cy="2385.28" r="16.30" style="fill:#FF0000"/>
	<circle cx="5190.08" cy="2385.28" r="12.66" style="fill:none;stroke:#FF0000;stroke-width:7.29"/>
	<line x1="3197.14" y1="2813.74" x2="3197.14" y2="303.58" style="stroke:#000000;stroke-width:4.86"/>
	<line x1="3197.14" y1="2741.68" x2="3163.39" y2="2741.68" style="stroke:#000000;stroke-width:4.86"/>
	<text x="3146.51" y="2771.25" style="font-family:'Helvetica';font-size:84.38px;fill:#000000" text-anchor="end">-0.10</text>
	<line x1="3197.14" y1="2279.81" x2="3163.39" y2="2279.81" style="stroke:#000000;stroke-width:4.86"/>
	<text x="3146.51" y="2309.39" style="font-family:'Helvetica';font-size:84.38px;fill:#000000" text-anchor="end">0.00</text>
	<line x1="3197.14" y1="1817.78" x2="3163.39" y2="1817.78" style="stroke:#000000;stroke-width:4.86"/>
	<text x="3146.51" y="1847.35" style="font-family:'Helvetica';font-size:84.38px;fill:#000000" text-anchor="end">0.10</text>
	<line x1="3197.14" y1="1355.91" x2="3163.39" y2="1355.91" style="stroke:#000000;stroke-width:4.86"/>
	<text x="3146.51" y="1385.48" style="font-family:'Helvetica';font-size:84.38px;fill:#000000" text-anchor="end">0.20</text>
	<line x1="3197.14" y1="894.04" x2="3163.39" y2="894.04" style="stroke:#000000;stroke-width:4.86"/>
	<text x="3146.51" y="923.61" style="font-family:'Helvetica';font-size:84.38px;fill:#000000" text-anchor="end">0.30</text>
	<line x1="3197.14" y1="432.00" x2="3163.39" y2="432.00" style="stroke:#000000;stroke-width:4.86"/>
	<text x="3146.51" y="461.57" style="font-family:'Helvetica';font-size:84.38px;fill:#000000" text-anchor="end">0.40</text>
	<text x="2860.90" y="1558.58" style="font-family:'Helvetica';font-size:84.38px;fill:#000000" transform="rotate(-90 2860.90,1558.58)" text-anchor="middle">Autocorrelación Parcial</text>
	<line x1="3197.14" y1="2813.74" x2="5243.74" y2="2813.74" style="stroke:#000000;stroke-width:4.86"/>
	<line x1="3250.46" y1="2813.74" x2="3250.46" y2="2847.49" style="stroke:#000000;stroke-width:4.86"/>
	<text x="3250.46" y="2923.34" style="font-family:'Helvetica';font-size:84.38px;fill:#000000" text-anchor="middle">0</text>
	<line x1="3897.11" y1="2813.74" x2="3897.11" y2="2847.49" style="stroke:#000000;stroke-width:4.86"/>
	<text x="3897.11" y="2923.34" style="font-family:'Helvetica';font-size:84.38px;fill:#000000" text-anchor="middle">10</text>
	<line x1="4543.59" y1="2813.74" x2="4543.59" y2="2847.49" style="stroke:#000000;stroke-width:4.86"/>
	<text x="4543.59" y="2923.34" style="font-family:'Helvetica';font-size:84.38px;fill:#000000" text-anchor="middle">20</text>
	<line x1="5190.24" y1="2813.74" x2="5190.24" y2="2847.49" style="stroke:#000000;stroke-width:4.86"/>
	<text x="5190.24" y="2923.34" style="font-family:'Helvetica';font-size:84.38px;fill:#000000" text-anchor="middle">30</text>
	<text x="4220.44" y="3041.47" style="font-family:'Helvetica';font-size:84.38px;fill:#000000" text-anchor="middle">Rezago</text>
	<text x="4220.44" y="253.55" style="font-family:'Helvetica';font-size:118.13px;fill:#000000" text-anchor="middle">PAC: Residuo2</text>
</svg>
