<?xml version="1.0" encoding="UTF-8" standalone="no"?>
<!-- This is a Stata 18.0 generated SVG file (http://www.stata.com) -->

<svg version="1.1" width="7.500in" height="4.500in" viewBox="0 0 5400 3240" xmlns="http://www.w3.org/2000/svg" xmlns:xlink="http://www.w3.org/1999/xlink">
	<desc>Stata Graph - forecast</desc>
	<rect x="0" y="0" width="5400" height="3240" style="fill:#FFFFFF;stroke:none"/>
	<rect x="0.00" y="0.00" width="5400.00" height="3240.00" style="fill:#FFFFFF"/>
	<rect x="3.24" y="3.24" width="5393.52" height="3233.52" style="fill:none;stroke:#FFFFFF;stroke-width:6.48"/>
	<rect x="498.66" y="309.82" width="4787.94" height="2456.83" style="fill:#FFFFFF"/>
	<rect x="501.90" y="313.06" width="4781.46" height="2450.35" style="fill:none;stroke:#000000;stroke-width:6.48"/>
	<defs>
		<path id="path_iMeKqqij" d="M4693.44 1106.83 L4693.44 1106.83 L4745.59 1428.98 L4797.73 1340.04 L4849.88 1229.18 L4902.19 1061.78 L4954.33 918.68 L5006.48 781.99 L5058.79 655.59 L5110.93 548.44 L5163.08 456.97 L5215.39 381.04 L5215.39 2534.96 L5163.08 2587.95 L5110.93 2637.56 L5058.79 2675.70 L5006.48 2695.28 L4954.33 2682.79 L4902.19 2628.28 L4849.88 2526.69 L4797.73 2357.27 L4745.59 2134.86 L4693.44 1812.71 L4693.44 1106.83 Z" stroke-linejoin="round"/>
	</defs>
	<defs>
		<clipPath id="clipPath_NguwQUqL">
			<use xlink:href="#path_iMeKqqij"/>
		</clipPath>
	</defs>
	<use xlink:href="#path_iMeKqqij" style="stroke:none;fill:#CDCDCD"/>
	<use xlink:href="#path_iMeKqqij" style="fill:none;stroke:#C0C0C0;stroke-width:19.44" clip-path="url(#clipPath_NguwQUqL)"/>
	<defs>
		<path id="path_toLIsQtr" d="M4693.44 1157.29 L4693.44 1157.29 L4745.59 1479.43 L4797.73 1412.78 L4849.88 1321.82 L4902.19 1173.66 L4954.33 1044.73 L5006.48 918.68 L5058.79 799.88 L5110.93 697.61 L5163.08 609.19 L5215.39 534.94 L5215.39 2381.23 L5163.08 2435.74 L5110.93 2488.22 L5058.79 2531.42 L5006.48 2558.59 L4954.33 2556.73 L4902.19 2516.40 L4849.88 2434.05 L4797.73 2284.54 L4745.59 2084.57 L4693.44 1762.43 L4693.44 1157.29 Z" stroke-linejoin="round"/>
	</defs>
	<defs>
		<clipPath id="clipPath_hEGSkQer">
			<use xlink:href="#path_toLIsQtr"/>
		</clipPath>
	</defs>
	<use xlink:href="#path_toLIsQtr" style="stroke:none;fill:#E6E6E6"/>
	<use xlink:href="#path_toLIsQtr" style="fill:none;stroke:#E0E0E0;stroke-width:19.44" clip-path="url(#clipPath_hEGSkQer)"/>
	<path d=" M4745.42 1782.00 L4797.73 1848.83 L4849.88 1878.02 L4902.02 1845.11 L4954.33 1800.73 L5006.48 1738.80 L5058.62 1665.73 L5110.93 1593.00 L5163.08 1522.63 L5215.22 1458.17" stroke-linejoin="round" style="fill:none;stroke:#1E5AA0;stroke-width:9.72"/>
	<path d=" M569.87 1335.99 L622.01 1252.63 L674.33 1431.34 L726.47 1249.26 L778.61 1277.27 L830.93 1162.35 L883.07 1057.72 L935.21 951.75 L987.53 1135.18 L1039.67 1065.66 L1091.81 1002.71 L1144.13 1134.34 L1196.27 1203.36 L1248.41 1227.66 L1300.56 1246.72 L1352.87 1350.00 L1405.01 1284.02 L1457.16 1387.80 L1509.47 1492.26 L1561.61 1575.79 L1613.76 1405.69 L1666.07 1469.14 L1718.21 1490.74 L1770.36 1534.11 L1822.50 1535.63 L1874.81 1431.84 L1926.96 1349.83 L1979.10 1268.49 L2031.41 1251.28 L2083.56 1319.46 L2135.70 1303.76 L2188.01 1267.48 L2240.16 1443.83 L2292.30 1430.16 L2344.44 1502.04 L2396.76 1426.28 L2448.90 1414.97 L2501.04 1489.22 L2553.36 1437.08 L2605.50 1873.13 L2657.64 1907.55 L2709.96 1879.20 L2762.10 1894.05 L2814.24 1909.74 L2866.39 1735.59 L2918.70 1689.36 L2970.84 1580.34 L3022.99 1726.48 L3075.30 1682.78 L3127.44 1724.46 L3179.59 1703.36 L3231.90 1428.81 L3284.04 1493.78 L3336.19 1432.35 L3388.50 1329.08 L3440.64 1395.90 L3492.79 1569.21 L3544.93 1531.24 L3597.24 1578.49 L3649.39 1414.29 L3701.53 1271.53 L3753.84 1298.70 L3805.99 1347.47 L3858.13 1248.08 L3910.44 937.24 L3962.59 880.71 L4014.73 951.41 L4066.88 725.63 L4119.19 754.14 L4171.33 825.19 L4223.48 875.14 L4275.79 903.82 L4327.93 847.80 L4380.08 876.49 L4432.39 905.18 L4484.53 1018.74 L4536.68 1153.24 L4588.82 1203.19 L4641.13 1401.30 L4693.27 1726.65" stroke-linejoin="round" style="fill:none;stroke:#B45064;stroke-width:9.72"/>
	<line x1="498.66" y1="2766.66" x2="498.66" y2="309.82" style="stroke:#000000;stroke-width:6.48"/>
	<line x1="498.66" y1="2591.83" x2="453.77" y2="2591.83" style="stroke:#000000;stroke-width:6.48"/>
	<text x="431.16" y="2631.27" style="font-family:'Helvetica';font-size:112.56px;fill:#000000" text-anchor="end">-6</text>
	<line x1="498.66" y1="2168.27" x2="453.77" y2="2168.27" style="stroke:#000000;stroke-width:6.48"/>
	<text x="431.16" y="2207.71" style="font-family:'Helvetica';font-size:112.56px;fill:#000000" text-anchor="end">-4</text>
	<line x1="498.66" y1="1744.54" x2="453.77" y2="1744.54" style="stroke:#000000;stroke-width:6.48"/>
	<text x="431.16" y="1783.97" style="font-family:'Helvetica';font-size:112.56px;fill:#000000" text-anchor="end">-2</text>
	<line x1="498.66" y1="1320.81" x2="453.77" y2="1320.81" style="stroke:#000000;stroke-width:6.48"/>
	<text x="431.16" y="1360.24" style="font-family:'Helvetica';font-size:112.56px;fill:#000000" text-anchor="end">0</text>
	<line x1="498.66" y1="897.07" x2="453.77" y2="897.07" style="stroke:#000000;stroke-width:6.48"/>
	<text x="431.16" y="936.51" style="font-family:'Helvetica';font-size:112.56px;fill:#000000" text-anchor="end">2</text>
	<line x1="498.66" y1="473.34" x2="453.77" y2="473.34" style="stroke:#000000;stroke-width:6.48"/>
	<text x="431.16" y="512.78" style="font-family:'Helvetica';font-size:112.56px;fill:#000000" text-anchor="end">4</text>
	<text x="214.55" y="1538.16" style="font-family:'Helvetica';font-size:112.56px;fill:#000000" transform="rotate(-90 214.55,1538.16)" text-anchor="middle">Variación Porcentual</text>
	<line x1="498.66" y1="2766.66" x2="5286.60" y2="2766.66" style="stroke:#000000;stroke-width:6.48"/>
	<line x1="570.04" y1="2766.66" x2="570.04" y2="2811.54" style="stroke:#000000;stroke-width:6.48"/>
	<text x="570.04" y="2912.86" style="font-family:'Helvetica';font-size:112.56px;fill:#000000" text-anchor="middle">2017m1</text>
	<line x1="1196.27" y1="2766.66" x2="1196.27" y2="2811.54" style="stroke:#000000;stroke-width:6.48"/>
	<text x="1196.27" y="2912.86" style="font-family:'Helvetica';font-size:112.56px;fill:#000000" text-anchor="middle">2018m1</text>
	<line x1="1822.67" y1="2766.66" x2="1822.67" y2="2811.54" style="stroke:#000000;stroke-width:6.48"/>
	<text x="1822.67" y="2912.86" style="font-family:'Helvetica';font-size:112.56px;fill:#000000" text-anchor="middle">2019m1</text>
	<line x1="2449.07" y1="2766.66" x2="2449.07" y2="2811.54" style="stroke:#000000;stroke-width:6.48"/>
	<text x="2449.07" y="2912.86" style="font-family:'Helvetica';font-size:112.56px;fill:#000000" text-anchor="middle">2020m1</text>
	<line x1="3075.30" y1="2766.66" x2="3075.30" y2="2811.54" style="stroke:#000000;stroke-width:6.48"/>
	<text x="3075.30" y="2912.86" style="font-family:'Helvetica';font-size:112.56px;fill:#000000" text-anchor="middle">2021m1</text>
	<line x1="3701.70" y1="2766.66" x2="3701.70" y2="2811.54" style="stroke:#000000;stroke-width:6.48"/>
	<text x="3701.70" y="2912.86" style="font-family:'Helvetica';font-size:112.56px;fill:#000000" text-anchor="middle">2022m1</text>
	<line x1="4327.93" y1="2766.66" x2="4327.93" y2="2811.54" style="stroke:#000000;stroke-width:6.48"/>
	<text x="4327.93" y="2912.86" style="font-family:'Helvetica';font-size:112.56px;fill:#000000" text-anchor="middle">2023m1</text>
	<line x1="4954.33" y1="2766.66" x2="4954.33" y2="2811.54" style="stroke:#000000;stroke-width:6.48"/>
	<text x="4954.33" y="2912.86" style="font-family:'Helvetica';font-size:112.56px;fill:#000000" text-anchor="middle">2024m1</text>
	<text x="2892.71" y="3070.31" style="font-family:'Helvetica';font-size:112.56px;fill:#000000" text-anchor="middle">Meses</text>
	<text x="2892.71" y="243.10" style="font-family:'Helvetica';font-size:157.44px;fill:#000000" text-anchor="middle">Evolución y Proyección del Ciclo de Remuneraciones</text>
</svg>
