<?xml version="1.0" encoding="UTF-8" standalone="no"?>
<!-- This is a Stata 18.0 generated SVG file (http://www.stata.com) -->

<svg version="1.1" width="7.500in" height="4.500in" viewBox="0 0 5400 3240" xmlns="http://www.w3.org/2000/svg" xmlns:xlink="http://www.w3.org/1999/xlink">
	<desc>Stata Graph - Graph</desc>
	<rect x="0" y="0" width="5400" height="3240" style="fill:#FFFFFF;stroke:none"/>
	<rect x="0.00" y="0.00" width="5400.00" height="3240.00" style="fill:#FFFFFF"/>
	<rect x="3.24" y="3.24" width="5393.52" height="3233.52" style="fill:none;stroke:#FFFFFF;stroke-width:6.48"/>
	<rect x="71.21" y="71.21" width="2628.79" height="3097.58" style="fill:#FFFFFF"/>
	<rect x="73.64" y="73.64" width="2623.93" height="3092.71" style="fill:none;stroke:#FFFFFF;stroke-width:4.86"/>
	<rect x="360.96" y="303.58" width="2253.99" height="2510.16" style="fill:#FFFFFF"/>
	<rect x="363.39" y="306.01" width="2249.13" height="2505.30" style="fill:none;stroke:#000000;stroke-width:4.86"/>
	<path d=" M414.28 1596.38 L422.38 1578.66 L430.65 1592.66 L438.75 1613.59 L446.85 1685.14 L454.95 1710.45 L463.05 1658.14 L471.32 1631.31 L479.42 1695.09 L487.52 1699.31 L495.62 1696.78 L503.72 1801.07 L511.99 1829.59 L520.09 1893.71 L528.19 1970.16 L536.29 1941.30 L544.39 1956.66 L552.49 1939.95 L560.76 1987.20 L568.86 2074.95 L576.96 2012.51 L585.06 2065.16 L593.16 2101.44 L601.42 2118.32 L609.53 2054.36 L617.63 1907.21 L625.73 1741.33 L633.83 1666.58 L642.09 1587.43 L650.19 1562.63 L658.29 1422.23 L666.39 1345.11 L674.49 1353.88 L682.76 1264.44 L690.86 1265.46 L698.96 1226.31 L707.06 1328.74 L715.16 1439.44 L723.43 1596.88 L731.53 1566.51 L739.63 1556.38 L747.73 1583.55 L755.83 1671.64 L764.10 1671.13 L772.20 1682.61 L780.30 1727.83 L788.40 1734.41 L796.50 1604.98 L804.77 1590.13 L812.87 1497.32 L820.97 1382.23 L829.07 1381.56 L837.17 1397.59 L845.44 1385.27 L853.54 975.21 L861.64 1005.75 L869.74 958.16 L877.84 932.34 L885.94 889.14 L894.21 942.97 L902.31 803.42 L910.41 846.96 L918.51 880.54 L926.61 865.35 L934.88 807.81 L942.98 880.88 L951.08 1055.87 L959.18 1012.50 L967.28 1002.38 L975.54 991.41 L983.64 994.78 L991.74 918.68 L999.84 1087.76 L1007.94 1191.21 L1016.21 1275.24 L1024.31 1360.97 L1032.41 1427.96 L1040.51 1433.70 L1048.61 1654.59 L1056.88 1659.49 L1064.98 1713.66 L1073.08 1761.41 L1081.18 1787.06 L1089.28 1916.66 L1097.55 2724.30 L1105.65 2610.56 L1113.75 2688.02 L1121.85 2424.94 L1129.95 2332.29 L1138.22 2255.34 L1146.32 2206.57 L1154.42 2252.31 L1162.52 2112.75 L1170.62 1955.64 L1178.89 2008.63 L1186.99 1937.08 L1195.09 1653.24 L1203.19 1613.25 L1211.29 1462.56 L1219.39 1571.40 L1227.66 1764.79 L1235.76 1621.69 L1243.86 1572.24 L1251.96 1532.93 L1260.06 1554.19 L1268.33 1590.47 L1276.43 1517.23 L1284.53 1448.04 L1292.63 1352.70 L1300.72 1453.78 L1308.99 1371.77 L1317.09 1525.84 L1325.19 1413.45 L1333.29 1543.22 L1341.39 1449.56 L1349.66 1396.91 L1357.76 1485.00 L1365.86 1464.08 L1373.96 1405.18 L1382.06 1459.69 L1390.33 1550.98 L1398.43 1590.47 L1406.53 1578.49 L1414.63 1497.15 L1422.73 1542.04 L1431.00 1620.00 L1439.10 1804.28 L1447.20 1633.16 L1455.30 1592.83 L1463.40 1668.77 L1471.67 1724.96 L1479.77 1679.91 L1487.87 1583.21 L1495.97 1525.16 L1504.07 1471.67 L1512.34 1436.91 L1520.44 1381.73 L1528.54 1336.33 L1536.64 1127.08 L1544.74 1392.36 L1552.84 1351.69 L1561.11 1246.72 L1569.21 1198.29 L1577.31 1142.27 L1585.41 1145.64 L1593.51 1163.53 L1601.78 1160.49 L1609.88 1353.88 L1617.98 1402.65 L1626.08 1360.80 L1634.18 1403.16 L1642.44 1493.27 L1650.54 1460.03 L1658.64 1516.05 L1666.74 1553.34 L1674.84 1650.54 L1683.11 1454.79 L1691.21 1571.06 L1699.31 1564.82 L1707.41 1583.38 L1715.51 1582.54 L1723.78 1517.06 L1731.88 1685.31 L1739.98 1490.57 L1748.08 1618.14 L1756.18 1583.89 L1764.45 1641.09 L1772.55 1689.19 L1780.65 1574.27 L1788.75 1456.65 L1796.85 1708.76 L1805.12 1451.93 L1813.22 1491.24 L1821.32 1329.08 L1829.42 1181.59 L1837.52 1032.07 L1845.79 1290.77 L1853.89 1192.72 L1861.99 1103.96 L1870.09 1289.76 L1878.19 1386.96 L1886.29 1421.38 L1894.56 1448.38 L1902.66 1593.84 L1910.76 1500.69 L1918.86 1647.34 L1926.96 1794.66 L1935.23 1912.61 L1943.33 1672.48 L1951.43 1762.09 L1959.53 1792.46 L1967.63 1853.55 L1975.89 1855.74 L1983.99 1709.27 L1992.09 1593.68 L2000.19 1478.93 L2008.29 1454.63 L2016.56 1550.98 L2024.66 1528.71 L2032.76 1477.41 L2040.86 1726.14 L2048.96 1706.91 L2057.23 1808.33 L2065.33 1701.51 L2073.43 1685.64 L2081.53 1790.27 L2089.63 1716.86 L2097.90 2331.96 L2106.00 2380.56 L2114.10 2340.39 L2122.20 2361.49 L2130.30 2383.59 L2138.57 2137.89 L2146.67 2072.76 L2154.77 1919.03 L2162.87 2125.24 L2170.97 2063.48 L2179.24 2122.20 L2187.34 2092.50 L2195.44 1705.05 L2203.54 1796.68 L2211.64 1710.11 L2219.91 1564.48 L2228.01 1658.81 L2236.11 1903.33 L2244.21 1849.67 L2252.31 1916.33 L2260.41 1684.63 L2268.68 1483.31 L2276.78 1521.62 L2284.88 1590.30 L2292.98 1450.24 L2301.07 1011.49 L2309.34 931.67 L2317.44 1031.57 L2325.54 712.97 L2333.64 753.30 L2341.74 853.54 L2350.01 923.91 L2358.11 964.41 L2366.21 885.43 L2374.31 925.93 L2382.41 966.43 L2390.68 1126.57 L2398.78 1316.42 L2406.88 1386.79 L2414.98 1666.41 L2423.08 2125.41" stroke-linejoin="round" style="fill:none;stroke:#0080FF;stroke-width:7.29"/>
	<path d=" M414.28 1614.60 L422.38 1596.21 L430.65 1591.65 L438.75 1611.23 L446.85 1690.03 L454.95 1717.37 L463.05 1658.81 L471.32 1612.41 L479.42 1661.68 L487.52 1678.22 L495.62 1684.63 L503.72 1779.47 L511.99 1810.69 L520.09 1886.96 L528.19 1941.81 L536.29 1911.77 L544.39 1915.82 L552.49 1883.59 L560.76 1941.81 L568.86 2029.05 L576.96 1985.01 L585.06 2029.22 L593.16 2039.85 L601.42 2080.35 L609.53 2011.16 L617.63 1855.41 L625.73 1675.52 L633.83 1589.96 L642.09 1529.55 L650.19 1530.06 L658.29 1403.49 L666.39 1331.78 L674.49 1326.21 L682.76 1265.46 L690.86 1279.97 L698.96 1231.20 L707.06 1349.83 L715.16 1463.40 L723.43 1645.82 L731.53 1612.91 L739.63 1592.16 L747.73 1578.15 L755.83 1671.64 L764.10 1682.78 L772.20 1697.63 L780.30 1724.12 L788.40 1732.89 L796.50 1608.86 L804.77 1582.88 L812.87 1466.94 L820.97 1374.47 L829.07 1372.95 L837.17 1396.07 L845.44 1406.03 L853.54 969.81 L861.64 1022.12 L869.74 926.94 L877.84 984.99 L885.94 929.31 L894.21 996.13 L902.31 841.56 L910.41 907.54 L918.51 920.53 L926.61 930.49 L934.88 864.34 L942.98 938.08 L951.08 1118.98 L959.18 1079.49 L967.28 1071.90 L975.54 1024.48 L983.64 1034.61 L991.74 952.76 L999.84 1139.91 L1007.94 1246.22 L1016.21 1345.78 L1024.31 1413.28 L1032.41 1469.64 L1040.51 1462.73 L1048.61 1691.89 L1056.88 1681.76 L1064.98 1738.80 L1073.08 1756.35 L1081.18 1780.14 L1089.28 1911.26 L1097.55 2760.24 L1105.65 2618.16 L1113.75 2684.14 L1121.85 2311.37 L1129.95 2226.49 L1138.22 2147.18 L1146.32 2112.92 L1154.42 2176.54 L1162.52 2037.15 L1170.62 1875.66 L1178.89 1938.77 L1186.99 1884.94 L1195.09 1609.54 L1203.19 1572.75 L1211.29 1422.73 L1219.39 1555.37 L1227.66 1776.09 L1235.76 1634.51 L1243.86 1557.06 L1251.96 1515.21 L1260.06 1548.62 L1268.33 1592.49 L1276.43 1522.13 L1284.53 1447.03 L1292.63 1364.68 L1300.72 1474.37 L1308.99 1390.67 L1317.09 1559.42 L1325.19 1426.44 L1333.29 1571.74 L1341.39 1461.21 L1349.66 1415.31 L1357.76 1499.68 L1365.86 1489.39 L1373.96 1416.66 L1382.06 1477.74 L1390.33 1566.00 L1398.43 1602.79 L1406.53 1588.61 L1414.63 1499.68 L1422.73 1545.75 L1431.00 1625.23 L1439.10 1817.78 L1447.20 1635.53 L1455.30 1584.90 L1463.40 1657.80 L1471.67 1725.13 L1479.77 1682.10 L1487.87 1573.59 L1495.97 1506.26 L1504.07 1459.18 L1512.34 1433.03 L1520.44 1386.45 L1528.54 1345.28 L1536.64 1146.99 L1544.74 1390.16 L1552.84 1403.83 L1561.11 1279.29 L1569.21 1207.91 L1577.31 1162.52 L1585.41 1172.64 L1593.51 1198.29 L1601.78 1198.63 L1609.88 1388.31 L1617.98 1447.88 L1626.08 1390.67 L1634.18 1418.18 L1642.44 1515.38 L1650.54 1487.03 L1658.64 1526.01 L1666.74 1564.31 L1674.84 1658.14 L1683.11 1466.10 L1691.21 1549.97 L1699.31 1571.91 L1707.41 1583.72 L1715.51 1581.19 L1723.78 1519.26 L1731.88 1673.16 L1739.98 1506.26 L1748.08 1599.92 L1756.18 1588.28 L1764.45 1635.02 L1772.55 1684.97 L1780.65 1582.20 L1788.75 1454.29 L1796.85 1679.57 L1805.12 1482.47 L1813.22 1481.46 L1821.32 1341.39 L1829.42 1194.24 L1837.52 1046.25 L1845.79 1277.44 L1853.89 1248.75 L1861.99 1132.14 L1870.09 1288.91 L1878.19 1412.10 L1886.29 1443.15 L1894.56 1460.53 L1902.66 1591.99 L1910.76 1524.66 L1918.86 1629.28 L1926.96 1784.87 L1935.23 1909.74 L1943.33 1687.16 L1951.43 1719.23 L1959.53 1772.38 L1967.63 1836.51 L1975.89 1840.05 L1983.99 1701.51 L1992.09 1573.26 L2000.19 1463.91 L2008.29 1442.98 L2016.56 1542.71 L2024.66 1540.35 L2032.76 1483.14 L2040.86 1703.70 L2048.96 1721.25 L2057.23 1796.01 L2065.33 1703.36 L2073.43 1666.74 L2081.53 1766.31 L2089.63 1716.19 L2097.90 2262.09 L2106.00 2397.09 L2114.10 2318.29 L2122.20 2305.80 L2130.30 2330.10 L2138.57 2108.19 L2146.67 2010.49 L2154.77 1874.31 L2162.87 2059.76 L2170.97 2047.78 L2179.24 2082.21 L2187.34 2063.14 L2195.44 1704.88 L2203.54 1732.39 L2211.64 1695.09 L2219.91 1562.79 L2228.01 1626.75 L2236.11 1872.28 L2244.21 1863.68 L2252.31 1899.45 L2260.41 1690.03 L2268.68 1473.36 L2276.78 1494.28 L2284.88 1584.56 L2292.98 1470.49 L2301.07 1050.13 L2309.34 932.68 L2317.44 1049.12 L2325.54 779.96 L2333.64 785.70 L2341.74 883.74 L2350.01 978.24 L2358.11 1018.24 L2366.21 941.79 L2374.31 963.90 L2382.41 1004.40 L2390.68 1160.49 L2398.78 1349.16 L2406.88 1427.12 L2414.98 1678.73 L2423.08 2121.86" stroke-linejoin="round" style="fill:none;stroke:#D41159;stroke-width:7.29"/>
	<line x1="360.96" y1="2813.74" x2="360.96" y2="303.58" style="stroke:#000000;stroke-width:4.86"/>
	<line x1="360.96" y1="2748.26" x2="327.21" y2="2748.26" style="stroke:#000000;stroke-width:4.86"/>
	<text x="310.33" y="2777.84" style="font-family:'Helvetica';font-size:84.38px;fill:#000000" text-anchor="end">-4</text>
	<line x1="360.96" y1="2150.55" x2="327.21" y2="2150.55" style="stroke:#000000;stroke-width:4.86"/>
	<text x="310.33" y="2180.12" style="font-family:'Helvetica';font-size:84.38px;fill:#000000" text-anchor="end">-2</text>
	<line x1="360.96" y1="1552.67" x2="327.21" y2="1552.67" style="stroke:#000000;stroke-width:4.86"/>
	<text x="310.33" y="1582.24" style="font-family:'Helvetica';font-size:84.38px;fill:#000000" text-anchor="end">0</text>
	<line x1="360.96" y1="954.96" x2="327.21" y2="954.96" style="stroke:#000000;stroke-width:4.86"/>
	<text x="310.33" y="984.53" style="font-family:'Helvetica';font-size:84.38px;fill:#000000" text-anchor="end">2</text>
	<line x1="360.96" y1="357.07" x2="327.21" y2="357.07" style="stroke:#000000;stroke-width:4.86"/>
	<text x="310.33" y="386.65" style="font-family:'Helvetica';font-size:84.38px;fill:#000000" text-anchor="end">4</text>
	<line x1="360.96" y1="2813.74" x2="2614.95" y2="2813.74" style="stroke:#000000;stroke-width:4.86"/>
	<line x1="609.53" y1="2813.74" x2="609.53" y2="2847.49" style="stroke:#000000;stroke-width:4.86"/>
	<text x="609.53" y="2923.34" style="font-family:'Helvetica';font-size:84.38px;fill:#000000" text-anchor="middle">2005m1</text>
	<line x1="1097.55" y1="2813.74" x2="1097.55" y2="2847.49" style="stroke:#000000;stroke-width:4.86"/>
	<text x="1097.55" y="2923.34" style="font-family:'Helvetica';font-size:84.38px;fill:#000000" text-anchor="middle">2010m1</text>
	<line x1="1585.58" y1="2813.74" x2="1585.58" y2="2847.49" style="stroke:#000000;stroke-width:4.86"/>
	<text x="1585.58" y="2923.34" style="font-family:'Helvetica';font-size:84.38px;fill:#000000" text-anchor="middle">2015m1</text>
	<line x1="2073.43" y1="2813.74" x2="2073.43" y2="2847.49" style="stroke:#000000;stroke-width:4.86"/>
	<text x="2073.43" y="2923.34" style="font-family:'Helvetica';font-size:84.38px;fill:#000000" text-anchor="middle">2020m1</text>
	<line x1="2561.46" y1="2813.74" x2="2561.46" y2="2847.49" style="stroke:#000000;stroke-width:4.86"/>
	<text x="2561.46" y="2923.34" style="font-family:'Helvetica';font-size:84.38px;fill:#000000" text-anchor="middle">2025m1</text>
	<text x="1487.87" y="3041.47" style="font-family:'Helvetica';font-size:84.38px;fill:#000000" text-anchor="middle">Periodo</text>
	<text x="1487.87" y="253.55" style="font-family:'Helvetica';font-size:118.13px;fill:#000000" text-anchor="middle">Forecast 1 periodo hacia adelante</text>
	<rect x="2700.00" y="71.21" width="2628.79" height="3097.58" style="fill:#FFFFFF"/>
	<rect x="2702.43" y="73.64" width="2623.93" height="3092.71" style="fill:none;stroke:#FFFFFF;stroke-width:4.86"/>
	<rect x="2989.58" y="303.58" width="2254.16" height="2510.16" style="fill:#FFFFFF"/>
	<rect x="2992.00" y="306.01" width="2249.30" height="2505.30" style="fill:none;stroke:#000000;stroke-width:4.86"/>
	<path d=" M3043.07 1589.79 L3051.17 1572.08 L3059.27 1586.08 L3067.37 1606.84 L3075.64 1678.05 L3083.74 1703.19 L3091.84 1651.05 L3099.94 1624.56 L3108.04 1688.01 L3116.31 1692.06 L3124.41 1689.69 L3132.51 1793.31 L3140.61 1821.66 L3148.71 1885.44 L3156.81 1961.55 L3165.08 1932.86 L3173.18 1948.05 L3181.28 1931.34 L3189.38 1978.43 L3197.48 2065.67 L3205.74 2003.57 L3213.84 2056.05 L3221.94 2091.99 L3230.04 2108.87 L3238.14 2045.25 L3246.41 1898.78 L3254.51 1733.91 L3262.61 1659.49 L3270.71 1580.68 L3278.81 1556.04 L3287.08 1416.66 L3295.18 1339.88 L3303.28 1348.48 L3311.38 1259.55 L3319.48 1260.56 L3327.75 1221.58 L3335.85 1323.51 L3343.95 1433.70 L3352.05 1590.30 L3360.15 1560.09 L3368.42 1549.97 L3376.52 1576.97 L3384.62 1664.55 L3392.72 1664.04 L3400.82 1675.52 L3409.09 1720.41 L3417.19 1727.16 L3425.29 1598.23 L3433.39 1583.55 L3441.49 1491.24 L3449.76 1376.66 L3457.86 1375.99 L3465.96 1392.02 L3474.06 1379.70 L3482.16 971.83 L3490.26 1002.38 L3498.53 954.96 L3506.63 929.31 L3514.73 886.28 L3522.83 939.94 L3530.93 800.89 L3539.19 844.43 L3547.29 877.67 L3555.39 862.48 L3563.49 805.44 L3571.59 878.01 L3579.86 1052.16 L3587.96 1008.96 L3596.06 999.00 L3604.16 988.03 L3612.26 991.41 L3620.53 915.81 L3628.63 1083.88 L3636.73 1186.82 L3644.83 1270.35 L3652.93 1355.57 L3661.20 1422.23 L3669.30 1427.96 L3677.40 1647.68 L3685.50 1652.57 L3693.60 1706.40 L3701.87 1753.82 L3709.97 1779.30 L3718.07 1908.23 L3726.17 2711.64 L3734.27 2598.41 L3742.54 2675.53 L3750.64 2413.80 L3758.74 2321.66 L3766.84 2245.05 L3774.94 2196.62 L3783.21 2242.01 L3791.31 2103.30 L3799.41 1947.04 L3807.51 1999.69 L3815.61 1928.64 L3823.88 1646.16 L3831.98 1606.50 L3840.08 1456.48 L3848.18 1564.82 L3856.28 1757.19 L3864.38 1614.94 L3872.64 1565.83 L3880.74 1526.51 L3888.84 1547.78 L3896.94 1583.89 L3905.04 1510.99 L3913.31 1442.14 L3921.41 1347.30 L3929.51 1447.88 L3937.61 1366.37 L3945.71 1519.59 L3953.98 1407.71 L3962.08 1536.81 L3970.18 1443.83 L3978.28 1391.34 L3986.38 1478.93 L3994.65 1458.17 L4002.75 1399.44 L4010.85 1453.78 L4018.95 1544.57 L4027.05 1583.89 L4035.32 1571.91 L4043.42 1491.08 L4051.52 1535.79 L4059.62 1613.08 L4067.72 1796.51 L4075.99 1626.41 L4084.09 1586.25 L4092.19 1661.85 L4100.29 1717.54 L4108.39 1672.82 L4116.66 1576.63 L4124.76 1518.92 L4132.86 1465.59 L4140.96 1431.17 L4149.06 1376.33 L4157.33 1330.93 L4165.43 1123.03 L4173.52 1386.79 L4181.63 1346.29 L4189.73 1242.00 L4197.83 1193.74 L4206.09 1138.05 L4214.19 1141.43 L4222.29 1159.14 L4230.39 1156.28 L4238.49 1348.65 L4246.76 1396.91 L4254.86 1355.40 L4262.96 1397.59 L4271.06 1487.19 L4279.16 1454.12 L4287.43 1509.81 L4295.53 1546.93 L4303.63 1643.63 L4311.73 1448.89 L4319.83 1564.65 L4328.10 1558.24 L4336.20 1576.80 L4344.30 1575.96 L4352.40 1510.82 L4360.50 1678.22 L4368.77 1484.49 L4376.87 1611.39 L4384.97 1577.31 L4393.07 1634.18 L4401.17 1682.10 L4409.44 1567.69 L4417.54 1450.74 L4425.64 1701.51 L4433.74 1446.02 L4441.84 1485.17 L4450.11 1323.84 L4458.21 1177.20 L4466.31 1028.53 L4474.41 1285.88 L4482.51 1188.17 L4490.77 1099.91 L4498.88 1284.69 L4506.98 1381.39 L4515.08 1415.64 L4523.18 1442.48 L4531.27 1587.26 L4539.54 1494.62 L4547.64 1640.42 L4555.74 1786.89 L4563.84 1904.18 L4571.94 1665.39 L4580.21 1754.49 L4588.31 1784.70 L4596.41 1845.62 L4604.51 1847.81 L4612.61 1702.01 L4620.88 1587.09 L4628.98 1472.85 L4637.08 1448.72 L4645.18 1544.57 L4653.28 1522.46 L4661.55 1471.50 L4669.65 1718.89 L4677.75 1699.65 L4685.85 1800.56 L4693.95 1694.42 L4702.22 1678.56 L4710.32 1782.68 L4718.42 1709.61 L4726.52 2321.49 L4734.62 2369.59 L4742.89 2329.76 L4750.99 2350.69 L4759.09 2372.63 L4767.19 2128.28 L4775.29 2063.48 L4783.56 1910.59 L4791.66 2115.62 L4799.76 2054.19 L4807.86 2112.75 L4815.96 2083.22 L4824.23 1697.79 L4832.33 1789.09 L4840.43 1702.86 L4848.52 1557.90 L4856.63 1651.73 L4864.73 1895.06 L4872.99 1841.74 L4881.09 1907.89 L4889.19 1677.38 L4897.29 1477.24 L4905.39 1515.38 L4913.66 1583.72 L4921.76 1444.33 L4929.86 1007.94 L4937.96 928.63 L4946.06 1027.86 L4954.33 711.11 L4962.43 751.28 L4970.53 850.84 L4978.63 920.87 L4986.73 961.20 L4995.00 882.56 L5003.10 922.89 L5011.20 963.22 L5019.30 1122.36 L5027.40 1311.36 L5035.67 1381.22 L5043.77 1659.32 L5051.87 2115.79" stroke-linejoin="round" style="fill:none;stroke:#0080FF;stroke-width:7.29"/>
	<path d=" M3043.07 1626.24 L3051.17 1588.78 L3059.27 1582.20 L3067.37 1607.34 L3075.64 1689.53 L3083.74 1714.50 L3091.84 1634.51 L3099.94 1579.16 L3108.04 1633.16 L3116.31 1658.81 L3124.41 1653.75 L3132.51 1752.30 L3140.61 1795.16 L3148.71 1853.55 L3156.81 1906.71 L3165.08 1864.52 L3173.18 1846.29 L3181.28 1827.56 L3189.38 1886.63 L3197.48 1991.25 L3205.74 1945.52 L3213.84 1960.88 L3221.94 1995.64 L3230.04 2026.86 L3238.14 1948.89 L3246.41 1778.79 L3254.51 1594.18 L3262.61 1526.18 L3270.71 1493.27 L3278.81 1501.71 L3287.08 1383.24 L3295.18 1300.05 L3303.28 1320.81 L3311.38 1274.91 L3319.48 1277.44 L3327.75 1250.44 L3335.85 1367.89 L3343.95 1507.78 L3352.05 1682.94 L3360.15 1641.26 L3368.42 1579.33 L3376.52 1573.93 L3384.62 1674.51 L3392.72 1690.54 L3400.82 1685.31 L3409.09 1715.68 L3417.19 1728.00 L3425.29 1594.01 L3433.39 1553.51 L3441.49 1458.84 L3449.76 1360.97 L3457.86 1364.68 L3465.96 1410.08 L3474.06 1425.09 L3482.16 984.49 L3490.26 993.26 L3498.53 977.74 L3506.63 1027.69 L3514.73 978.24 L3522.83 1046.76 L3530.93 902.64 L3539.19 945.51 L3547.29 987.02 L3555.39 992.08 L3563.49 917.49 L3571.59 990.22 L3579.86 1188.68 L3587.96 1151.04 L3596.06 1107.84 L3604.16 1063.13 L3612.26 1074.09 L3620.53 989.89 L3628.63 1183.28 L3636.73 1308.83 L3644.83 1391.34 L3652.93 1448.04 L3661.20 1495.46 L3669.30 1476.90 L3677.40 1709.27 L3685.50 1696.95 L3693.60 1728.34 L3701.87 1742.18 L3709.97 1758.38 L3718.07 1890.68 L3726.17 2760.24 L3734.27 2598.75 L3742.54 2575.46 L3750.64 2196.28 L3758.74 2109.21 L3766.84 2051.32 L3774.94 2017.58 L3783.21 2095.88 L3791.31 1951.43 L3799.41 1787.23 L3807.51 1875.49 L3815.61 1833.98 L3823.88 1559.76 L3831.98 1538.33 L3840.08 1394.55 L3848.18 1548.79 L3856.28 1785.88 L3864.38 1614.09 L3872.64 1532.08 L3880.74 1501.71 L3888.84 1543.22 L3896.94 1589.96 L3905.04 1515.54 L3913.31 1443.66 L3921.41 1380.21 L3929.51 1486.86 L3937.61 1420.03 L3945.71 1563.81 L3953.98 1451.08 L3962.08 1572.75 L3970.18 1481.63 L3978.28 1428.81 L3986.38 1505.76 L3994.65 1502.89 L4002.75 1429.48 L4010.85 1494.96 L4018.95 1572.08 L4027.05 1603.13 L4035.32 1585.74 L4043.42 1494.96 L4051.52 1544.06 L4059.62 1627.76 L4067.72 1814.74 L4075.99 1620.68 L4084.09 1564.31 L4092.19 1653.58 L4100.29 1719.56 L4108.39 1662.53 L4116.66 1547.44 L4124.76 1486.86 L4132.86 1449.39 L4140.96 1429.48 L4149.06 1387.46 L4157.33 1350.84 L4165.43 1144.80 L4173.52 1430.83 L4181.63 1437.24 L4189.73 1280.81 L4197.83 1220.57 L4206.09 1182.94 L4214.19 1203.69 L4222.29 1231.03 L4230.39 1230.86 L4238.49 1428.47 L4246.76 1465.59 L4254.86 1399.28 L4262.96 1431.84 L4271.06 1533.26 L4279.16 1491.92 L4287.43 1533.94 L4295.53 1568.03 L4303.63 1661.51 L4311.73 1450.24 L4319.83 1552.33 L4328.10 1562.96 L4336.20 1575.96 L4344.30 1571.74 L4352.40 1509.81 L4360.50 1669.78 L4368.77 1490.23 L4376.87 1594.52 L4384.97 1579.67 L4393.07 1626.75 L4401.17 1676.19 L4409.44 1564.48 L4417.54 1439.27 L4425.64 1686.99 L4433.74 1467.96 L4441.84 1470.49 L4450.11 1335.32 L4458.21 1189.86 L4466.31 1052.32 L4474.41 1319.12 L4482.51 1258.71 L4490.77 1142.27 L4498.88 1317.94 L4506.98 1428.64 L4515.08 1448.89 L4523.18 1463.91 L4531.27 1600.43 L4539.54 1512.34 L4547.64 1630.80 L4555.74 1783.69 L4563.84 1896.75 L4571.94 1643.12 L4580.21 1698.64 L4588.31 1755.00 L4596.41 1815.08 L4604.51 1812.04 L4612.61 1665.56 L4620.88 1544.57 L4628.98 1445.34 L4637.08 1437.41 L4645.18 1546.59 L4653.28 1534.61 L4661.55 1475.21 L4669.65 1710.62 L4677.75 1708.59 L4685.85 1780.99 L4693.95 1676.36 L4702.22 1646.49 L4710.32 1753.65 L4718.42 1692.56 L4726.52 2262.26 L4734.62 2357.10 L4742.89 2256.02 L4750.99 2247.75 L4759.09 2273.40 L4767.19 2039.51 L4775.29 1950.92 L4783.56 1823.51 L4791.66 2030.23 L4799.76 2005.43 L4807.86 2042.21 L4815.96 2020.28 L4824.23 1644.81 L4832.33 1708.09 L4840.43 1673.33 L4848.52 1535.29 L4856.63 1617.64 L4864.73 1878.02 L4872.99 1844.10 L4881.09 1873.13 L4889.19 1656.28 L4897.29 1443.83 L4905.39 1490.74 L4913.66 1586.59 L4921.76 1461.04 L4929.86 1035.96 L4937.96 953.10 L4946.06 1089.79 L4954.33 812.19 L4962.43 819.11 L4970.53 937.74 L4978.63 1026.68 L4986.73 1059.75 L4995.00 977.91 L5003.10 998.83 L5011.20 1043.55 L5019.30 1198.29 L5027.40 1383.92 L5035.67 1449.39 L5043.77 1692.56 L5051.87 2137.73" stroke-linejoin="round" style="fill:none;stroke:#D41159;stroke-width:7.29"/>
	<line x1="2989.58" y1="2813.74" x2="2989.58" y2="303.58" style="stroke:#000000;stroke-width:4.86"/>
	<line x1="2989.58" y1="2735.44" x2="2955.83" y2="2735.44" style="stroke:#000000;stroke-width:4.86"/>
	<text x="2938.95" y="2765.01" style="font-family:'Helvetica';font-size:84.38px;fill:#000000" text-anchor="end">-4</text>
	<line x1="2989.58" y1="2140.93" x2="2955.83" y2="2140.93" style="stroke:#000000;stroke-width:4.86"/>
	<text x="2938.95" y="2170.50" style="font-family:'Helvetica';font-size:84.38px;fill:#000000" text-anchor="end">-2</text>
	<line x1="2989.58" y1="1546.26" x2="2955.83" y2="1546.26" style="stroke:#000000;stroke-width:4.86"/>
	<text x="2938.95" y="1575.83" style="font-family:'Helvetica';font-size:84.38px;fill:#000000" text-anchor="end">0</text>
	<line x1="2989.58" y1="951.75" x2="2955.83" y2="951.75" style="stroke:#000000;stroke-width:4.86"/>
	<text x="2938.95" y="981.32" style="font-family:'Helvetica';font-size:84.38px;fill:#000000" text-anchor="end">2</text>
	<line x1="2989.58" y1="357.07" x2="2955.83" y2="357.07" style="stroke:#000000;stroke-width:4.86"/>
	<text x="2938.95" y="386.65" style="font-family:'Helvetica';font-size:84.38px;fill:#000000" text-anchor="end">4</text>
	<line x1="2989.58" y1="2813.74" x2="5243.74" y2="2813.74" style="stroke:#000000;stroke-width:4.86"/>
	<line x1="3238.31" y1="2813.74" x2="3238.31" y2="2847.49" style="stroke:#000000;stroke-width:4.86"/>
	<text x="3238.31" y="2923.34" style="font-family:'Helvetica';font-size:84.38px;fill:#000000" text-anchor="middle">2005m1</text>
	<line x1="3726.34" y1="2813.74" x2="3726.34" y2="2847.49" style="stroke:#000000;stroke-width:4.86"/>
	<text x="3726.34" y="2923.34" style="font-family:'Helvetica';font-size:84.38px;fill:#000000" text-anchor="middle">2010m1</text>
	<line x1="4214.19" y1="2813.74" x2="4214.19" y2="2847.49" style="stroke:#000000;stroke-width:4.86"/>
	<text x="4214.19" y="2923.34" style="font-family:'Helvetica';font-size:84.38px;fill:#000000" text-anchor="middle">2015m1</text>
	<line x1="4702.22" y1="2813.74" x2="4702.22" y2="2847.49" style="stroke:#000000;stroke-width:4.86"/>
	<text x="4702.22" y="2923.34" style="font-family:'Helvetica';font-size:84.38px;fill:#000000" text-anchor="middle">2020m1</text>
	<line x1="5190.24" y1="2813.74" x2="5190.24" y2="2847.49" style="stroke:#000000;stroke-width:4.86"/>
	<text x="5190.24" y="2923.34" style="font-family:'Helvetica';font-size:84.38px;fill:#000000" text-anchor="middle">2025m1</text>
	<text x="4116.66" y="3041.47" style="font-family:'Helvetica';font-size:84.38px;fill:#000000" text-anchor="middle">Periodo</text>
	<text x="4116.66" y="253.55" style="font-family:'Helvetica';font-size:118.13px;fill:#000000" text-anchor="middle">Forecast 2 periodos hacia adelante</text>
</svg>
