<?xml version="1.0" encoding="UTF-8" standalone="no"?>
<!-- This is a Stata 18.0 generated SVG file (http://www.stata.com) -->

<svg version="1.1" width="6.000in" height="4.000in" viewBox="0 0 4320 2880" xmlns="http://www.w3.org/2000/svg" xmlns:xlink="http://www.w3.org/1999/xlink">
	<desc>Stata Graph - B_res_ac</desc>
	<rect x="0" y="0" width="4320" height="2880" style="fill:#FFFFFF;stroke:none"/>
	<rect x="0.00" y="0.00" width="4320.00" height="2880.00" style="fill:#FFFFFF"/>
	<rect x="2.88" y="2.88" width="4314.24" height="2874.24" style="fill:none;stroke:#FFFFFF;stroke-width:5.76"/>
	<rect x="489.11" y="275.40" width="3730.05" height="2183.79" style="fill:#FFFFFF"/>
	<rect x="491.98" y="278.28" width="3724.29" height="2178.03" style="fill:none;stroke:#000000;stroke-width:5.76"/>
	<line x1="489.11" y1="1367.30" x2="546.75" y2="1367.30" style="stroke:#F0F0F0;stroke-width:8.64"/>
	<line x1="575.51" y1="1367.30" x2="633.15" y2="1367.30" style="stroke:#F0F0F0;stroke-width:8.64"/>
	<line x1="661.91" y1="1367.30" x2="719.55" y2="1367.30" style="stroke:#F0F0F0;stroke-width:8.64"/>
	<line x1="748.31" y1="1367.30" x2="805.95" y2="1367.30" style="stroke:#F0F0F0;stroke-width:8.64"/>
	<line x1="834.71" y1="1367.30" x2="892.35" y2="1367.30" style="stroke:#F0F0F0;stroke-width:8.64"/>
	<line x1="921.11" y1="1367.30" x2="978.75" y2="1367.30" style="stroke:#F0F0F0;stroke-width:8.64"/>
	<line x1="1007.51" y1="1367.30" x2="1065.15" y2="1367.30" style="stroke:#F0F0F0;stroke-width:8.64"/>
	<line x1="1093.91" y1="1367.30" x2="1151.55" y2="1367.30" style="stroke:#F0F0F0;stroke-width:8.64"/>
	<line x1="1180.31" y1="1367.30" x2="1237.95" y2="1367.30" style="stroke:#F0F0F0;stroke-width:8.64"/>
	<line x1="1266.71" y1="1367.30" x2="1324.35" y2="1367.30" style="stroke:#F0F0F0;stroke-width:8.64"/>
	<line x1="1353.11" y1="1367.30" x2="1410.75" y2="1367.30" style="stroke:#F0F0F0;stroke-width:8.64"/>
	<line x1="1439.51" y1="1367.30" x2="1497.15" y2="1367.30" style="stroke:#F0F0F0;stroke-width:8.64"/>
	<line x1="1525.91" y1="1367.30" x2="1583.55" y2="1367.30" style="stroke:#F0F0F0;stroke-width:8.64"/>
	<line x1="1612.31" y1="1367.30" x2="1669.95" y2="1367.30" style="stroke:#F0F0F0;stroke-width:8.64"/>
	<line x1="1698.71" y1="1367.30" x2="1756.35" y2="1367.30" style="stroke:#F0F0F0;stroke-width:8.64"/>
	<line x1="1785.11" y1="1367.30" x2="1842.75" y2="1367.30" style="stroke:#F0F0F0;stroke-width:8.64"/>
	<line x1="1871.51" y1="1367.30" x2="1929.15" y2="1367.30" style="stroke:#F0F0F0;stroke-width:8.64"/>
	<line x1="1957.91" y1="1367.30" x2="2015.55" y2="1367.30" style="stroke:#F0F0F0;stroke-width:8.64"/>
	<line x1="2044.31" y1="1367.30" x2="2101.95" y2="1367.30" style="stroke:#F0F0F0;stroke-width:8.64"/>
	<line x1="2130.71" y1="1367.30" x2="2188.35" y2="1367.30" style="stroke:#F0F0F0;stroke-width:8.64"/>
	<line x1="2217.11" y1="1367.30" x2="2274.75" y2="1367.30" style="stroke:#F0F0F0;stroke-width:8.64"/>
	<line x1="2303.51" y1="1367.30" x2="2361.15" y2="1367.30" style="stroke:#F0F0F0;stroke-width:8.64"/>
	<line x1="2389.91" y1="1367.30" x2="2447.55" y2="1367.30" style="stroke:#F0F0F0;stroke-width:8.64"/>
	<line x1="2476.30" y1="1367.30" x2="2533.95" y2="1367.30" style="stroke:#F0F0F0;stroke-width:8.64"/>
	<line x1="2562.71" y1="1367.30" x2="2620.35" y2="1367.30" style="stroke:#F0F0F0;stroke-width:8.64"/>
	<line x1="2649.11" y1="1367.30" x2="2706.75" y2="1367.30" style="stroke:#F0F0F0;stroke-width:8.64"/>
	<line x1="2735.51" y1="1367.30" x2="2793.15" y2="1367.30" style="stroke:#F0F0F0;stroke-width:8.64"/>
	<line x1="2821.91" y1="1367.30" x2="2879.55" y2="1367.30" style="stroke:#F0F0F0;stroke-width:8.64"/>
	<line x1="2908.31" y1="1367.30" x2="2965.95" y2="1367.30" style="stroke:#F0F0F0;stroke-width:8.64"/>
	<line x1="2994.71" y1="1367.30" x2="3052.35" y2="1367.30" style="stroke:#F0F0F0;stroke-width:8.64"/>
	<line x1="3081.11" y1="1367.30" x2="3138.75" y2="1367.30" style="stroke:#F0F0F0;stroke-width:8.64"/>
	<line x1="3167.51" y1="1367.30" x2="3225.15" y2="1367.30" style="stroke:#F0F0F0;stroke-width:8.64"/>
	<line x1="3253.91" y1="1367.30" x2="3311.55" y2="1367.30" style="stroke:#F0F0F0;stroke-width:8.64"/>
	<line x1="3340.31" y1="1367.30" x2="3397.95" y2="1367.30" style="stroke:#F0F0F0;stroke-width:8.64"/>
	<line x1="3426.71" y1="1367.30" x2="3484.35" y2="1367.30" style="stroke:#F0F0F0;stroke-width:8.64"/>
	<line x1="3513.11" y1="1367.30" x2="3570.75" y2="1367.30" style="stroke:#F0F0F0;stroke-width:8.64"/>
	<line x1="3599.51" y1="1367.30" x2="3657.15" y2="1367.30" style="stroke:#F0F0F0;stroke-width:8.64"/>
	<line x1="3685.91" y1="1367.30" x2="3743.55" y2="1367.30" style="stroke:#F0F0F0;stroke-width:8.64"/>
	<line x1="3772.31" y1="1367.30" x2="3829.95" y2="1367.30" style="stroke:#F0F0F0;stroke-width:8.64"/>
	<line x1="3858.71" y1="1367.30" x2="3916.35" y2="1367.30" style="stroke:#F0F0F0;stroke-width:8.64"/>
	<line x1="3945.11" y1="1367.30" x2="4002.75" y2="1367.30" style="stroke:#F0F0F0;stroke-width:8.64"/>
	<line x1="4031.51" y1="1367.30" x2="4089.15" y2="1367.30" style="stroke:#F0F0F0;stroke-width:8.64"/>
	<line x1="4117.91" y1="1367.30" x2="4175.55" y2="1367.30" style="stroke:#F0F0F0;stroke-width:8.64"/>
	<line x1="4204.31" y1="1367.30" x2="4219.16" y2="1367.30" style="stroke:#F0F0F0;stroke-width:8.64"/>
	<defs>
		<path id="path_JhZrdCIG" d="M642.60 2316.91 L642.60 2316.91 L732.65 2317.04 L822.69 2317.04 L912.87 2317.04 L1002.92 2317.31 L1092.96 2317.31 L1183.01 2317.58 L1273.19 2317.72 L1363.23 2318.39 L1453.28 2318.93 L1543.32 2320.55 L1633.50 2322.58 L1723.55 2329.33 L1813.59 2329.87 L1903.77 2334.46 L1993.82 2340.13 L2083.86 2342.15 L2173.91 2342.96 L2264.09 2343.23 L2354.13 2356.33 L2444.18 2358.49 L2534.36 2362.81 L2624.40 2370.77 L2714.45 2373.47 L2804.49 2376.71 L2894.67 2378.60 L2984.72 2381.30 L3074.76 2382.65 L3164.81 2383.73 L3254.99 2384.41 L3345.03 2385.35 L3435.08 2386.03 L3525.26 2386.03 L3615.30 2389.94 L3705.35 2391.02 L3795.39 2393.05 L3885.57 2393.05 L3975.62 2395.75 L4065.66 2395.88 L4155.84 2395.88 L4155.84 338.72 L4065.66 338.72 L3975.62 338.72 L3885.57 341.56 L3795.39 341.56 L3705.35 343.58 L3615.30 344.66 L3525.26 348.44 L3435.08 348.58 L3345.03 349.25 L3254.99 350.20 L3164.81 350.74 L3074.76 351.95 L2984.72 353.17 L2894.67 355.87 L2804.49 357.76 L2714.45 361.13 L2624.40 363.83 L2534.36 371.80 L2444.18 376.12 L2354.13 378.28 L2264.09 391.37 L2173.91 391.64 L2083.86 392.32 L1993.82 394.34 L1903.77 400.15 L1813.59 404.74 L1723.55 405.28 L1633.50 412.03 L1543.32 414.05 L1453.28 415.67 L1363.23 416.21 L1273.19 416.89 L1183.01 417.02 L1092.96 417.29 L1002.92 417.29 L912.87 417.43 L822.69 417.43 L732.65 417.43 L642.60 417.70 L642.60 2316.91 Z" stroke-linejoin="round"/>
	</defs>
	<defs>
		<clipPath id="clipPath_FiJjZuKO">
			<use xlink:href="#path_JhZrdCIG"/>
		</clipPath>
	</defs>
	<use xlink:href="#path_JhZrdCIG" style="stroke:none;fill:#E0E0E0"/>
	<use xlink:href="#path_JhZrdCIG" style="fill:none;stroke:#E0E0E0;stroke-width:17.28" clip-path="url(#clipPath_FiJjZuKO)"/>
	<line x1="642.60" y1="1367.30" x2="642.60" y2="1473.55" style="stroke:#FF0000;stroke-width:8.64"/>
	<line x1="732.65" y1="1367.30" x2="732.65" y2="1383.23" style="stroke:#FF0000;stroke-width:8.64"/>
	<line x1="822.69" y1="1367.30" x2="822.69" y2="1392.68" style="stroke:#FF0000;stroke-width:8.64"/>
	<line x1="912.87" y1="1367.30" x2="912.87" y2="1249.98" style="stroke:#FF0000;stroke-width:8.64"/>
	<line x1="1002.92" y1="1367.30" x2="1002.92" y2="1416.98" style="stroke:#FF0000;stroke-width:8.64"/>
	<line x1="1092.96" y1="1367.30" x2="1092.96" y2="1236.75" style="stroke:#FF0000;stroke-width:8.64"/>
	<line x1="1183.01" y1="1367.30" x2="1183.01" y2="1478.54" style="stroke:#FF0000;stroke-width:8.64"/>
	<line x1="1273.19" y1="1367.30" x2="1273.19" y2="1582.76" style="stroke:#FF0000;stroke-width:8.64"/>
	<line x1="1363.23" y1="1367.30" x2="1363.23" y2="1579.79" style="stroke:#FF0000;stroke-width:8.64"/>
	<line x1="1453.28" y1="1367.30" x2="1453.28" y2="1716.28" style="stroke:#FF0000;stroke-width:8.64"/>
	<line x1="1543.32" y1="1367.30" x2="1543.32" y2="1748.68" style="stroke:#FF0000;stroke-width:8.64"/>
	<line x1="1633.50" y1="1367.30" x2="1633.50" y2="2077.41" style="stroke:#FF0000;stroke-width:8.64"/>
	<line x1="1723.55" y1="1367.30" x2="1723.55" y2="1157.37" style="stroke:#FF0000;stroke-width:8.64"/>
	<line x1="1813.59" y1="1367.30" x2="1813.59" y2="1955.91" style="stroke:#FF0000;stroke-width:8.64"/>
	<line x1="1903.77" y1="1367.30" x2="1903.77" y2="2025.84" style="stroke:#FF0000;stroke-width:8.64"/>
	<line x1="1993.82" y1="1367.30" x2="1993.82" y2="974.99" style="stroke:#FF0000;stroke-width:8.64"/>
	<line x1="2083.86" y1="1367.30" x2="2083.86" y2="1131.59" style="stroke:#FF0000;stroke-width:8.64"/>
	<line x1="2173.91" y1="1367.30" x2="2173.91" y2="1224.60" style="stroke:#FF0000;stroke-width:8.64"/>
	<line x1="2264.09" y1="1367.30" x2="2264.09" y2="2369.56" style="stroke:#FF0000;stroke-width:8.64"/>
	<line x1="2354.13" y1="1367.30" x2="2354.13" y2="951.76" style="stroke:#FF0000;stroke-width:8.64"/>
	<line x1="2444.18" y1="1367.30" x2="2444.18" y2="1939.44" style="stroke:#FF0000;stroke-width:8.64"/>
	<line x1="2534.36" y1="1367.30" x2="2534.36" y2="575.11" style="stroke:#FF0000;stroke-width:8.64"/>
	<line x1="2624.40" y1="1367.30" x2="2624.40" y2="912.75" style="stroke:#FF0000;stroke-width:8.64"/>
	<line x1="2714.45" y1="1367.30" x2="2714.45" y2="1882.06" style="stroke:#FF0000;stroke-width:8.64"/>
	<line x1="2804.49" y1="1367.30" x2="2804.49" y2="1753.27" style="stroke:#FF0000;stroke-width:8.64"/>
	<line x1="2894.67" y1="1367.30" x2="2894.67" y2="906.00" style="stroke:#FF0000;stroke-width:8.64"/>
	<line x1="2984.72" y1="1367.30" x2="2984.72" y2="1679.56" style="stroke:#FF0000;stroke-width:8.64"/>
	<line x1="3074.76" y1="1367.30" x2="3074.76" y2="1675.38" style="stroke:#FF0000;stroke-width:8.64"/>
	<line x1="3164.81" y1="1367.30" x2="3164.81" y2="1151.57" style="stroke:#FF0000;stroke-width:8.64"/>
	<line x1="3254.99" y1="1367.30" x2="3254.99" y2="1092.17" style="stroke:#FF0000;stroke-width:8.64"/>
	<line x1="3345.03" y1="1367.30" x2="3345.03" y2="1130.10" style="stroke:#FF0000;stroke-width:8.64"/>
	<line x1="3435.08" y1="1367.30" x2="3435.08" y2="1430.08" style="stroke:#FF0000;stroke-width:8.64"/>
	<line x1="3525.26" y1="1367.30" x2="3525.26" y2="813.79" style="stroke:#FF0000;stroke-width:8.64"/>
	<line x1="3615.30" y1="1367.30" x2="3615.30" y2="1664.58" style="stroke:#FF0000;stroke-width:8.64"/>
	<line x1="3705.35" y1="1367.30" x2="3705.35" y2="968.78" style="stroke:#FF0000;stroke-width:8.64"/>
	<line x1="3795.39" y1="1367.30" x2="3795.39" y2="1408.34" style="stroke:#FF0000;stroke-width:8.64"/>
	<line x1="3885.57" y1="1367.30" x2="3885.57" y2="897.22" style="stroke:#FF0000;stroke-width:8.64"/>
	<line x1="3975.62" y1="1367.30" x2="3975.62" y2="1433.86" style="stroke:#FF0000;stroke-width:8.64"/>
	<line x1="4065.66" y1="1367.30" x2="4065.66" y2="1389.85" style="stroke:#FF0000;stroke-width:8.64"/>
	<line x1="4155.84" y1="1367.30" x2="4155.84" y2="1312.63" style="stroke:#FF0000;stroke-width:8.64"/>
	<circle cx="642.47" cy="1473.68" r="19.30" style="fill:#FF0000"/>
	<circle cx="642.47" cy="1473.68" r="14.99" style="fill:none;stroke:#FF0000;stroke-width:8.64"/>
	<circle cx="732.51" cy="1383.23" r="19.30" style="fill:#FF0000"/>
	<circle cx="732.51" cy="1383.23" r="14.99" style="fill:none;stroke:#FF0000;stroke-width:8.64"/>
	<circle cx="822.69" cy="1392.82" r="19.30" style="fill:#FF0000"/>
	<circle cx="822.69" cy="1392.82" r="14.99" style="fill:none;stroke:#FF0000;stroke-width:8.64"/>
	<circle cx="912.74" cy="1250.12" r="19.30" style="fill:#FF0000"/>
	<circle cx="912.74" cy="1250.12" r="14.99" style="fill:none;stroke:#FF0000;stroke-width:8.64"/>
	<circle cx="1002.78" cy="1416.98" r="19.30" style="fill:#FF0000"/>
	<circle cx="1002.78" cy="1416.98" r="14.99" style="fill:none;stroke:#FF0000;stroke-width:8.64"/>
	<circle cx="1092.96" cy="1236.89" r="19.30" style="fill:#FF0000"/>
	<circle cx="1092.96" cy="1236.89" r="14.99" style="fill:none;stroke:#FF0000;stroke-width:8.64"/>
	<circle cx="1183.01" cy="1478.54" r="19.30" style="fill:#FF0000"/>
	<circle cx="1183.01" cy="1478.54" r="14.99" style="fill:none;stroke:#FF0000;stroke-width:8.64"/>
	<circle cx="1273.05" cy="1582.76" r="19.30" style="fill:#FF0000"/>
	<circle cx="1273.05" cy="1582.76" r="14.99" style="fill:none;stroke:#FF0000;stroke-width:8.64"/>
	<circle cx="1363.10" cy="1579.79" r="19.30" style="fill:#FF0000"/>
	<circle cx="1363.10" cy="1579.79" r="14.99" style="fill:none;stroke:#FF0000;stroke-width:8.64"/>
	<circle cx="1453.28" cy="1716.42" r="19.30" style="fill:#FF0000"/>
	<circle cx="1453.28" cy="1716.42" r="14.99" style="fill:none;stroke:#FF0000;stroke-width:8.64"/>
	<circle cx="1543.32" cy="1748.82" r="19.30" style="fill:#FF0000"/>
	<circle cx="1543.32" cy="1748.82" r="14.99" style="fill:none;stroke:#FF0000;stroke-width:8.64"/>
	<circle cx="1633.37" cy="2077.55" r="19.30" style="fill:#FF0000"/>
	<circle cx="1633.37" cy="2077.55" r="14.99" style="fill:none;stroke:#FF0000;stroke-width:8.64"/>
	<circle cx="1723.55" cy="1157.51" r="19.30" style="fill:#FF0000"/>
	<circle cx="1723.55" cy="1157.51" r="14.99" style="fill:none;stroke:#FF0000;stroke-width:8.64"/>
	<circle cx="1813.59" cy="1956.05" r="19.30" style="fill:#FF0000"/>
	<circle cx="1813.59" cy="1956.05" r="14.99" style="fill:none;stroke:#FF0000;stroke-width:8.64"/>
	<circle cx="1903.64" cy="2025.84" r="19.30" style="fill:#FF0000"/>
	<circle cx="1903.64" cy="2025.84" r="14.99" style="fill:none;stroke:#FF0000;stroke-width:8.64"/>
	<circle cx="1993.68" cy="975.12" r="19.30" style="fill:#FF0000"/>
	<circle cx="1993.68" cy="975.12" r="14.99" style="fill:none;stroke:#FF0000;stroke-width:8.64"/>
	<circle cx="2083.86" cy="1131.59" r="19.30" style="fill:#FF0000"/>
	<circle cx="2083.86" cy="1131.59" r="14.99" style="fill:none;stroke:#FF0000;stroke-width:8.64"/>
	<circle cx="2173.91" cy="1224.74" r="19.30" style="fill:#FF0000"/>
	<circle cx="2173.91" cy="1224.74" r="14.99" style="fill:none;stroke:#FF0000;stroke-width:8.64"/>
	<circle cx="2263.95" cy="2369.69" r="19.30" style="fill:#FF0000"/>
	<circle cx="2263.95" cy="2369.69" r="14.99" style="fill:none;stroke:#FF0000;stroke-width:8.64"/>
	<circle cx="2354.00" cy="951.76" r="19.30" style="fill:#FF0000"/>
	<circle cx="2354.00" cy="951.76" r="14.99" style="fill:none;stroke:#FF0000;stroke-width:8.64"/>
	<circle cx="2444.18" cy="1939.44" r="19.30" style="fill:#FF0000"/>
	<circle cx="2444.18" cy="1939.44" r="14.99" style="fill:none;stroke:#FF0000;stroke-width:8.64"/>
	<circle cx="2534.22" cy="575.24" r="19.30" style="fill:#FF0000"/>
	<circle cx="2534.22" cy="575.24" r="14.99" style="fill:none;stroke:#FF0000;stroke-width:8.64"/>
	<circle cx="2624.27" cy="912.88" r="19.30" style="fill:#FF0000"/>
	<circle cx="2624.27" cy="912.88" r="14.99" style="fill:none;stroke:#FF0000;stroke-width:8.64"/>
	<circle cx="2714.45" cy="1882.20" r="19.30" style="fill:#FF0000"/>
	<circle cx="2714.45" cy="1882.20" r="14.99" style="fill:none;stroke:#FF0000;stroke-width:8.64"/>
	<circle cx="2804.49" cy="1753.41" r="19.30" style="fill:#FF0000"/>
	<circle cx="2804.49" cy="1753.41" r="14.99" style="fill:none;stroke:#FF0000;stroke-width:8.64"/>
	<circle cx="2894.54" cy="906.13" r="19.30" style="fill:#FF0000"/>
	<circle cx="2894.54" cy="906.13" r="14.99" style="fill:none;stroke:#FF0000;stroke-width:8.64"/>
	<circle cx="2984.58" cy="1679.56" r="19.30" style="fill:#FF0000"/>
	<circle cx="2984.58" cy="1679.56" r="14.99" style="fill:none;stroke:#FF0000;stroke-width:8.64"/>
	<circle cx="3074.76" cy="1675.38" r="19.30" style="fill:#FF0000"/>
	<circle cx="3074.76" cy="1675.38" r="14.99" style="fill:none;stroke:#FF0000;stroke-width:8.64"/>
	<circle cx="3164.81" cy="1151.57" r="19.30" style="fill:#FF0000"/>
	<circle cx="3164.81" cy="1151.57" r="14.99" style="fill:none;stroke:#FF0000;stroke-width:8.64"/>
	<circle cx="3254.85" cy="1092.17" r="19.30" style="fill:#FF0000"/>
	<circle cx="3254.85" cy="1092.17" r="14.99" style="fill:none;stroke:#FF0000;stroke-width:8.64"/>
	<circle cx="3345.03" cy="1130.10" r="19.30" style="fill:#FF0000"/>
	<circle cx="3345.03" cy="1130.10" r="14.99" style="fill:none;stroke:#FF0000;stroke-width:8.64"/>
	<circle cx="3435.08" cy="1430.08" r="19.30" style="fill:#FF0000"/>
	<circle cx="3435.08" cy="1430.08" r="14.99" style="fill:none;stroke:#FF0000;stroke-width:8.64"/>
	<circle cx="3525.12" cy="813.93" r="19.30" style="fill:#FF0000"/>
	<circle cx="3525.12" cy="813.93" r="14.99" style="fill:none;stroke:#FF0000;stroke-width:8.64"/>
	<circle cx="3615.17" cy="1664.58" r="19.30" style="fill:#FF0000"/>
	<circle cx="3615.17" cy="1664.58" r="14.99" style="fill:none;stroke:#FF0000;stroke-width:8.64"/>
	<circle cx="3705.35" cy="968.91" r="19.30" style="fill:#FF0000"/>
	<circle cx="3705.35" cy="968.91" r="14.99" style="fill:none;stroke:#FF0000;stroke-width:8.64"/>
	<circle cx="3795.39" cy="1408.34" r="19.30" style="fill:#FF0000"/>
	<circle cx="3795.39" cy="1408.34" r="14.99" style="fill:none;stroke:#FF0000;stroke-width:8.64"/>
	<circle cx="3885.44" cy="897.36" r="19.30" style="fill:#FF0000"/>
	<circle cx="3885.44" cy="897.36" r="14.99" style="fill:none;stroke:#FF0000;stroke-width:8.64"/>
	<circle cx="3975.48" cy="1433.86" r="19.30" style="fill:#FF0000"/>
	<circle cx="3975.48" cy="1433.86" r="14.99" style="fill:none;stroke:#FF0000;stroke-width:8.64"/>
	<circle cx="4065.66" cy="1389.98" r="19.30" style="fill:#FF0000"/>
	<circle cx="4065.66" cy="1389.98" r="14.99" style="fill:none;stroke:#FF0000;stroke-width:8.64"/>
	<circle cx="4155.71" cy="1312.76" r="19.30" style="fill:#FF0000"/>
	<circle cx="4155.71" cy="1312.76" r="14.99" style="fill:none;stroke:#FF0000;stroke-width:8.64"/>
	<line x1="489.11" y1="2459.20" x2="489.11" y2="275.40" style="stroke:#000000;stroke-width:5.76"/>
	<line x1="489.11" y1="2206.47" x2="449.15" y2="2206.47" style="stroke:#000000;stroke-width:5.76"/>
	<text x="429.17" y="2241.52" style="font-family:'Helvetica';font-size:100.04px;fill:#000000" text-anchor="end">-0.10</text>
	<line x1="489.11" y1="1367.30" x2="449.15" y2="1367.30" style="stroke:#000000;stroke-width:5.76"/>
	<text x="429.17" y="1402.35" style="font-family:'Helvetica';font-size:100.04px;fill:#000000" text-anchor="end">0.00</text>
	<line x1="489.11" y1="528.13" x2="449.15" y2="528.13" style="stroke:#000000;stroke-width:5.76"/>
	<text x="429.17" y="563.17" style="font-family:'Helvetica';font-size:100.04px;fill:#000000" text-anchor="end">0.10</text>
	<line x1="489.11" y1="2459.20" x2="4219.16" y2="2459.20" style="stroke:#000000;stroke-width:5.76"/>
	<line x1="552.42" y1="2459.20" x2="552.42" y2="2499.16" style="stroke:#000000;stroke-width:5.76"/>
	<text x="552.42" y="2589.10" style="font-family:'Helvetica';font-size:100.04px;fill:#000000" text-anchor="middle">0</text>
	<line x1="1453.28" y1="2459.20" x2="1453.28" y2="2499.16" style="stroke:#000000;stroke-width:5.76"/>
	<text x="1453.28" y="2589.10" style="font-family:'Helvetica';font-size:100.04px;fill:#000000" text-anchor="middle">10</text>
	<line x1="2354.13" y1="2459.20" x2="2354.13" y2="2499.16" style="stroke:#000000;stroke-width:5.76"/>
	<text x="2354.13" y="2589.10" style="font-family:'Helvetica';font-size:100.04px;fill:#000000" text-anchor="middle">20</text>
	<line x1="3254.99" y1="2459.20" x2="3254.99" y2="2499.16" style="stroke:#000000;stroke-width:5.76"/>
	<text x="3254.99" y="2589.10" style="font-family:'Helvetica';font-size:100.04px;fill:#000000" text-anchor="middle">30</text>
	<line x1="4155.84" y1="2459.20" x2="4155.84" y2="2499.16" style="stroke:#000000;stroke-width:5.76"/>
	<text x="4155.84" y="2589.10" style="font-family:'Helvetica';font-size:100.04px;fill:#000000" text-anchor="middle">40</text>
	<text x="2354.13" y="2729.09" style="font-family:'Helvetica';font-size:100.04px;fill:#000000" text-anchor="middle">Rezago</text>
	<text x="2354.13" y="216.06" style="font-family:'Helvetica';font-size:140.00px;fill:#000000" text-anchor="middle">Autocorrelación de los resudios estimados de la serie B</text>
</svg>
