<?xml version="1.0" encoding="UTF-8" standalone="no"?>
<!-- This is a Stata 18.0 generated SVG file (http://www.stata.com) -->

<svg version="1.1" width="6.000in" height="4.000in" viewBox="0 0 4320 2880" xmlns="http://www.w3.org/2000/svg" xmlns:xlink="http://www.w3.org/1999/xlink">
	<desc>Stata Graph - arima_plot</desc>
	<rect x="0" y="0" width="4320" height="2880" style="fill:#FFFFFF;stroke:none"/>
	<rect x="0.00" y="0.00" width="4320.00" height="2880.00" style="fill:#FFFFFF"/>
	<rect x="2.88" y="2.88" width="4314.24" height="2874.24" style="fill:none;stroke:#FFFFFF;stroke-width:5.76"/>
	<rect x="401.63" y="275.40" width="3817.53" height="1928.24" style="fill:#FFFFFF"/>
	<rect x="404.50" y="278.28" width="3811.77" height="1922.48" style="fill:none;stroke:#000000;stroke-width:5.76"/>
	<path d=" M477.23 999.56 L489.51 1086.77 L501.80 1034.39 L514.08 1044.38 L526.37 1015.22 L538.79 980.79 L551.07 920.58 L563.36 933.67 L575.64 962.70 L587.92 892.63 L600.21 863.47 L612.50 915.45 L624.78 957.30 L637.20 845.79 L649.49 833.64 L661.77 793.00 L674.06 861.99 L686.34 780.72 L698.63 844.30 L710.91 757.36 L723.33 795.03 L735.62 795.43 L747.90 763.98 L760.19 708.49 L772.47 792.60 L784.76 798.81 L797.04 784.23 L809.33 643.42 L821.75 783.42 L834.03 802.05 L846.32 833.77 L858.60 634.51 L870.89 796.51 L883.17 788.14 L895.46 821.76 L907.74 620.87 L920.16 768.30 L932.45 705.79 L944.73 792.73 L957.02 667.32 L969.30 668.53 L981.59 733.06 L993.87 838.77 L1006.29 642.88 L1018.58 678.12 L1030.86 710.11 L1043.15 865.36 L1055.43 778.56 L1067.71 643.29 L1080.00 716.19 L1092.29 804.88 L1104.71 723.75 L1116.99 641.13 L1129.28 740.62 L1141.56 795.16 L1153.85 722.94 L1166.13 606.29 L1178.42 752.23 L1190.70 662.73 L1203.12 723.88 L1215.41 588.74 L1227.69 728.20 L1239.97 652.74 L1252.26 732.79 L1264.55 604.94 L1276.83 750.34 L1289.25 687.03 L1301.54 629.24 L1313.82 639.77 L1326.11 683.79 L1338.39 679.74 L1350.68 624.11 L1362.96 692.97 L1375.25 648.01 L1387.67 703.36 L1399.95 659.08 L1412.24 675.42 L1424.52 646.66 L1436.81 668.13 L1449.09 603.19 L1461.38 642.21 L1473.80 635.86 L1486.08 582.53 L1498.37 593.87 L1510.65 658.27 L1522.94 585.91 L1535.22 547.16 L1547.51 532.85 L1559.79 655.03 L1572.21 645.45 L1584.50 547.97 L1596.78 515.44 L1609.07 758.44 L1621.35 765.60 L1633.64 535.69 L1645.92 525.43 L1658.21 789.09 L1670.63 711.46 L1682.91 523.13 L1695.20 540.95 L1707.48 671.37 L1719.77 716.46 L1732.05 609.40 L1744.34 616.01 L1756.76 602.38 L1769.04 728.61 L1781.33 612.23 L1793.61 548.38 L1805.90 668.40 L1818.18 685.68 L1830.47 558.50 L1842.75 567.41 L1855.17 601.03 L1867.46 652.06 L1879.74 573.76 L1892.03 602.24 L1904.31 609.53 L1916.60 711.73 L1928.88 614.66 L1941.17 595.90 L1953.59 638.83 L1965.87 719.29 L1978.16 591.31 L1990.44 508.28 L2002.73 627.35 L2015.01 767.08 L2027.30 610.88 L2039.72 599.68 L2052.00 655.17 L2064.29 783.01 L2076.57 632.08 L2088.86 619.66 L2101.14 604.40 L2113.43 785.31 L2125.71 622.09 L2138.13 636.26 L2150.42 582.13 L2162.70 789.76 L2174.99 643.29 L2187.27 638.02 L2199.55 551.62 L2211.84 827.97 L2224.13 513.01 L2236.55 670.02 L2248.83 588.61 L2261.11 978.77 L2273.40 707.95 L2285.69 1124.84 L2297.97 1145.49 L2310.26 1200.98 L2322.68 1301.83 L2334.96 1465.45 L2347.25 1527.95 L2359.53 1418.47 L2371.82 1560.62 L2384.10 1571.02 L2396.39 1703.73 L2408.67 1618.41 L2421.09 1684.96 L2433.38 1649.86 L2445.66 1856.55 L2457.95 1807.14 L2470.23 1888.95 L2482.52 1783.65 L2494.80 1817.94 L2507.09 1861.41 L2519.51 1884.09 L2531.79 1657.15 L2544.07 1769.61 L2556.36 1745.58 L2568.65 1699.27 L2580.93 1630.96 L2593.22 1800.39 L2605.64 1695.76 L2617.92 1872.61 L2630.21 1742.20 L2642.49 1898.53 L2654.78 1780.68 L2667.06 1959.83 L2679.35 1992.09 L2691.63 1806.60 L2704.05 1836.30 L2716.34 1846.56 L2728.62 1783.38 L2740.91 1780.81 L2753.19 1851.96 L2765.48 1943.63 L2777.76 1851.42 L2790.05 1864.92 L2802.47 1789.99 L2814.75 1752.60 L2827.04 1839.40 L2839.32 1774.06 L2851.61 1625.16 L2863.89 1556.71 L2876.18 1712.50 L2888.60 1610.04 L2900.88 1429.81 L2913.17 1441.55 L2925.45 1508.38 L2937.74 1576.15 L2950.02 1364.60 L2962.31 1521.88 L2974.59 1424.68 L2987.01 1622.59 L2999.30 1579.25 L3011.58 1659.31 L3023.87 1539.29 L3036.15 1800.39 L3048.44 1748.95 L3060.72 1773.52 L3073.14 1575.74 L3085.43 1645.54 L3097.71 1681.59 L3110.00 1689.69 L3122.28 1571.42 L3134.57 1582.63 L3146.85 1661.07 L3159.14 1731.54 L3171.56 1600.59 L3183.84 1588.43 L3196.13 1694.28 L3208.41 1774.20 L3220.70 1864.11 L3232.98 1637.44 L3245.27 1675.11 L3257.55 1689.15 L3269.97 1891.51 L3282.26 1729.11 L3294.54 1881.12 L3306.83 1802.14 L3319.11 1890.84 L3331.40 1808.35 L3343.68 1875.31 L3356.10 1848.04 L3368.39 1966.31 L3380.67 1875.45 L3392.96 1861.00 L3405.24 1932.15 L3417.53 1771.23 L3429.81 1986.96 L3442.10 1901.37 L3454.52 1771.23 L3466.80 1743.69 L3479.09 1789.99 L3491.37 1640.41 L3503.66 1766.50 L3515.94 1539.97 L3528.23 1719.12 L3540.51 1605.18 L3552.93 1601.13 L3565.22 1449.38 L3577.50 1566.70 L3589.79 1568.18 L3602.07 1594.91 L3614.36 1584.52 L3626.64 1586.27 L3639.06 1613.55 L3651.35 1675.65 L3663.63 1644.33 L3675.92 1731.67 L3688.20 1741.12 L3700.49 1781.49 L3712.77 1873.15 L3725.06 1755.43 L3737.48 1862.89 L3749.76 1771.50 L3762.05 1886.25 L3774.33 1824.96 L3786.62 1770.01 L3798.90 1927.70 L3811.19 1966.04 L3823.47 1861.00 L3835.89 1963.47 L3848.18 2025.03 L3860.46 2028.95 L3872.75 1825.63 L3885.03 1989.66 L3897.32 1825.90 L3909.60 1954.43 L3922.02 1772.71 L3934.31 1978.19 L3946.59 1893.00 L3958.88 2060.54 L3971.16 1967.39 L3983.45 2047.85 L3995.73 1834.14 L4008.02 1951.19 L4020.44 1785.81 L4032.72 1877.34 L4045.01 1572.23 L4057.29 1834.27 L4069.58 1615.17 L4081.86 1782.97 L4094.15 1567.51 L4106.43 1836.97 L4118.85 1659.04 L4131.14 1852.63 L4143.42 1736.94 L4155.71 1888.14" stroke-linejoin="round" style="fill:none;stroke:#1A85FF;stroke-width:8.64"/>
	<path d=" M477.23 842.41 L489.51 962.70 L501.80 1016.57 L514.08 1032.77 L526.37 1006.98 L538.79 1075.97 L551.07 965.94 L563.36 963.38 L575.64 937.72 L587.92 941.10 L600.21 873.46 L612.50 892.36 L624.78 936.37 L637.20 892.77 L649.49 846.33 L661.77 885.48 L674.06 867.66 L686.34 790.84 L698.63 798.81 L710.91 802.32 L723.33 835.66 L735.62 746.56 L747.90 842.41 L760.19 723.21 L772.47 764.65 L784.76 786.12 L797.04 772.08 L809.33 738.06 L821.75 752.91 L834.03 778.29 L846.32 786.79 L858.60 704.44 L870.89 779.50 L883.17 792.73 L895.46 817.57 L907.74 663.40 L920.16 785.31 L932.45 757.09 L944.73 765.19 L957.02 633.56 L969.30 792.87 L981.59 653.55 L993.87 790.71 L1006.29 713.76 L1018.58 680.41 L1030.86 730.50 L1043.15 800.70 L1055.43 683.52 L1067.71 781.12 L1080.00 701.20 L1092.29 835.12 L1104.71 743.05 L1116.99 645.18 L1129.28 716.73 L1141.56 797.05 L1153.85 727.80 L1166.13 670.83 L1178.42 717.13 L1190.70 779.91 L1203.12 656.92 L1215.41 630.86 L1227.69 733.33 L1239.97 652.87 L1252.26 718.21 L1264.55 620.20 L1276.83 733.33 L1289.25 671.91 L1301.54 752.77 L1313.82 572.54 L1326.11 752.50 L1338.39 652.06 L1350.68 641.80 L1362.96 649.90 L1375.25 711.46 L1387.67 665.56 L1399.95 652.06 L1412.24 716.86 L1424.52 649.09 L1436.81 700.80 L1449.09 646.93 L1461.38 649.09 L1473.80 631.94 L1486.08 663.27 L1498.37 570.25 L1510.65 637.61 L1522.94 648.15 L1535.22 573.62 L1547.51 582.13 L1559.79 616.15 L1572.21 591.58 L1584.50 604.94 L1596.78 558.50 L1609.07 635.99 L1621.35 698.37 L1633.64 653.95 L1645.92 550.27 L1658.21 732.93 L1670.63 758.58 L1682.91 553.78 L1695.20 552.29 L1707.48 759.12 L1719.77 633.29 L1732.05 563.09 L1744.34 620.06 L1756.76 709.30 L1769.04 667.45 L1781.33 629.65 L1793.61 637.07 L1805.90 577.00 L1818.18 744.00 L1830.47 606.97 L1842.75 547.16 L1855.17 669.88 L1867.46 638.29 L1879.74 560.66 L1892.03 594.95 L1904.31 627.62 L1916.60 655.17 L1928.88 625.73 L1941.17 644.37 L1953.59 617.36 L1965.87 714.70 L1978.16 634.51 L1990.44 605.75 L2002.73 591.31 L2015.01 689.73 L2027.30 637.61 L2039.72 564.04 L2052.00 682.71 L2064.29 759.25 L2076.57 640.99 L2088.86 640.86 L2101.14 671.10 L2113.43 730.36 L2125.71 645.99 L2138.13 639.64 L2150.42 628.84 L2162.70 747.51 L2174.99 637.21 L2187.27 670.42 L2199.55 605.62 L2211.84 745.48 L2224.13 670.69 L2236.55 589.55 L2248.83 586.04 L2261.11 814.87 L2273.40 638.02 L2285.69 810.42 L2297.97 881.43 L2310.26 1283.74 L2322.68 1714.39 L2334.96 1435.21 L2347.25 1394.17 L2359.53 1535.24 L2371.82 1432.37 L2384.10 1554.14 L2396.39 1627.32 L2408.67 1606.66 L2421.09 1649.32 L2433.38 1645.95 L2445.66 1737.34 L2457.95 1730.86 L2470.23 1804.17 L2482.52 1784.73 L2494.80 1898.26 L2507.09 1810.92 L2519.51 1840.75 L2531.79 1779.33 L2544.07 1766.77 L2556.36 1761.78 L2568.65 1810.65 L2580.93 1638.25 L2593.22 1651.89 L2605.64 1720.60 L2617.92 1791.61 L2630.21 1753.54 L2642.49 1821.45 L2654.78 1758.54 L2667.06 1882.87 L2679.35 1822.66 L2691.63 1988.72 L2704.05 1840.08 L2716.34 1858.03 L2728.62 1847.50 L2740.91 1758.00 L2753.19 1754.08 L2765.48 1822.12 L2777.76 1896.91 L2790.05 1880.71 L2802.47 1845.88 L2814.75 1837.65 L2827.04 1748.14 L2839.32 1779.19 L2851.61 1782.97 L2863.89 1712.77 L2876.18 1653.24 L2888.60 1626.37 L2900.88 1605.31 L2913.17 1509.59 L2925.45 1557.79 L2937.74 1523.23 L2950.02 1477.19 L2962.31 1440.47 L2974.59 1514.45 L2987.01 1597.34 L2999.30 1480.03 L3011.58 1577.36 L3023.87 1571.56 L3036.15 1721.55 L3048.44 1696.84 L3060.72 1763.26 L3073.14 1643.65 L3085.43 1751.38 L3097.71 1672.00 L3110.00 1703.86 L3122.28 1568.86 L3134.57 1617.73 L3146.85 1648.78 L3159.14 1709.40 L3171.56 1643.92 L3183.84 1603.29 L3196.13 1617.19 L3208.41 1731.13 L3220.70 1725.06 L3232.98 1743.42 L3245.27 1744.23 L3257.55 1720.20 L3269.97 1757.46 L3282.26 1679.83 L3294.54 1750.03 L3306.83 1799.44 L3319.11 1976.30 L3331.40 1804.30 L3343.68 1807.81 L3356.10 1736.53 L3368.39 1911.09 L3380.67 1919.46 L3392.96 1942.82 L3405.24 1790.67 L3417.53 1875.72 L3429.81 1831.84 L3442.10 1888.41 L3454.52 1949.70 L3466.80 1777.17 L3479.09 1789.99 L3491.37 1755.97 L3503.66 1698.46 L3515.94 1679.02 L3528.23 1700.22 L3540.51 1615.30 L3552.93 1704.81 L3565.22 1543.21 L3577.50 1598.96 L3589.79 1515.13 L3602.07 1595.59 L3614.36 1527.95 L3626.64 1632.99 L3639.06 1626.91 L3651.35 1636.63 L3663.63 1614.76 L3675.92 1635.55 L3688.20 1699.54 L3700.49 1783.38 L3712.77 1756.24 L3725.06 1800.12 L3737.48 1786.21 L3749.76 1811.46 L3762.05 1860.33 L3774.33 1780.81 L3786.62 1844.53 L3798.90 1754.62 L3811.19 1883.95 L3823.47 1918.51 L3835.89 1876.12 L3848.18 1903.80 L3860.46 1990.74 L3872.75 1965.77 L3885.03 1928.10 L3897.32 1901.91 L3909.60 1914.06 L3922.02 1790.67 L3934.31 1891.38 L3946.59 1831.84 L3958.88 1983.05 L3971.16 1875.58 L3983.45 2027.19 L3995.73 1945.79 L4008.02 2001.41 L4020.44 1837.78 L4032.72 1871.53 L4045.01 1731.94 L4057.29 1795.39 L4069.58 1684.56 L4081.86 1783.78 L4094.15 1575.07 L4106.43 1751.52 L4118.85 1658.77 L4131.14 1838.19 L4143.42 1657.15 L4155.71 1848.04" stroke-linejoin="round" style="fill:none;stroke:#D41159;stroke-width:8.64"/>
	<line x1="401.63" y1="2203.64" x2="401.63" y2="275.40" style="stroke:#000000;stroke-width:5.76"/>
	<line x1="401.63" y1="2140.32" x2="361.67" y2="2140.32" style="stroke:#000000;stroke-width:5.76"/>
	<text x="341.69" y="2175.37" style="font-family:'Helvetica';font-size:100.04px;fill:#000000" text-anchor="end">-20</text>
	<line x1="401.63" y1="1689.96" x2="361.67" y2="1689.96" style="stroke:#000000;stroke-width:5.76"/>
	<text x="341.69" y="1725.00" style="font-family:'Helvetica';font-size:100.04px;fill:#000000" text-anchor="end">-10</text>
	<line x1="401.63" y1="1239.59" x2="361.67" y2="1239.59" style="stroke:#000000;stroke-width:5.76"/>
	<text x="341.69" y="1274.64" style="font-family:'Helvetica';font-size:100.04px;fill:#000000" text-anchor="end">0</text>
	<line x1="401.63" y1="789.09" x2="361.67" y2="789.09" style="stroke:#000000;stroke-width:5.76"/>
	<text x="341.69" y="824.13" style="font-family:'Helvetica';font-size:100.04px;fill:#000000" text-anchor="end">10</text>
	<line x1="401.63" y1="338.72" x2="361.67" y2="338.72" style="stroke:#000000;stroke-width:5.76"/>
	<text x="341.69" y="373.77" style="font-family:'Helvetica';font-size:100.04px;fill:#000000" text-anchor="end">20</text>
	<line x1="401.63" y1="2203.64" x2="4219.16" y2="2203.64" style="stroke:#000000;stroke-width:5.76"/>
	<line x1="464.94" y1="2203.64" x2="464.94" y2="2243.74" style="stroke:#000000;stroke-width:5.76"/>
	<text x="464.94" y="2333.67" style="font-family:'Helvetica';font-size:100.04px;fill:#000000" text-anchor="middle">0</text>
	<line x1="1695.20" y1="2203.64" x2="1695.20" y2="2243.74" style="stroke:#000000;stroke-width:5.76"/>
	<text x="1695.20" y="2333.67" style="font-family:'Helvetica';font-size:100.04px;fill:#000000" text-anchor="middle">100</text>
	<line x1="2925.45" y1="2203.64" x2="2925.45" y2="2243.74" style="stroke:#000000;stroke-width:5.76"/>
	<text x="2925.45" y="2333.67" style="font-family:'Helvetica';font-size:100.04px;fill:#000000" text-anchor="middle">200</text>
	<line x1="4155.84" y1="2203.64" x2="4155.84" y2="2243.74" style="stroke:#000000;stroke-width:5.76"/>
	<text x="4155.84" y="2333.67" style="font-family:'Helvetica';font-size:100.04px;fill:#000000" text-anchor="middle">300</text>
	<text x="2310.39" y="2473.67" style="font-family:'Helvetica';font-size:100.04px;fill:#000000" text-anchor="middle">Número de periodos</text>
	<rect x="1631.21" y="2558.29" width="1358.37" height="186.30" style="fill:#FFFFFF"/>
	<rect x="1634.08" y="2561.17" width="1352.61" height="180.54" style="fill:none;stroke:#FFFFFF;stroke-width:5.76"/>
	<line x1="1674.41" y1="2651.44" x2="1904.72" y2="2651.44" style="stroke:#1A85FF;stroke-width:8.64"/>
	<line x1="2174.72" y1="2651.44" x2="2405.16" y2="2651.44" style="stroke:#D41159;stroke-width:8.64"/>
	<text x="1964.79" y="2686.49" style="font-family:'Helvetica';font-size:100.04px;fill:#000000">E</text>
	<text x="2465.10" y="2686.49" style="font-family:'Helvetica';font-size:100.04px;fill:#000000">Predicción</text>
	<text x="2310.39" y="216.06" style="font-family:'Helvetica';font-size:140.00px;fill:#000000" text-anchor="middle">Validación de estimación de la Serie de Tiempo E</text>
</svg>
