<?xml version="1.0" encoding="UTF-8" standalone="no"?>
<!-- This is a Stata 18.0 generated SVG file (http://www.stata.com) -->

<svg version="1.1" width="6.000in" height="4.000in" viewBox="0 0 4320 2880" xmlns="http://www.w3.org/2000/svg" xmlns:xlink="http://www.w3.org/1999/xlink">
	<desc>Stata Graph - Graph</desc>
	<rect x="0" y="0" width="4320" height="2880" style="fill:#FFFFFF;stroke:none"/>
	<rect x="0.00" y="0.00" width="4320.00" height="2880.00" style="fill:#FFFFFF"/>
	<rect x="2.88" y="2.88" width="4314.24" height="2874.24" style="fill:none;stroke:#FFFFFF;stroke-width:5.76"/>
	<rect x="343.31" y="275.40" width="3875.85" height="2183.79" style="fill:#FFFFFF"/>
	<rect x="346.18" y="278.28" width="3870.09" height="2178.03" style="fill:none;stroke:#000000;stroke-width:5.76"/>
	<path d=" M419.04 1858.03 L431.60 1177.35 L444.02 1764.21 L456.57 1548.88 L469.13 1973.73 L481.55 1248.09 L494.10 931.92 L506.52 1517.69 L519.08 1212.59 L531.50 1815.24 L544.05 823.11 L556.61 1284.82 L569.03 1801.74 L581.58 1176.41 L594.00 1684.29 L606.55 1697.38 L618.98 1487.45 L631.53 1356.64 L644.09 1403.08 L656.51 1671.19 L669.06 1153.59 L681.48 1534.97 L694.04 1252.28 L706.46 1038.98 L719.01 1527.28 L731.57 1853.58 L743.99 1244.85 L756.54 1274.82 L768.96 1173.03 L781.52 1385.39 L793.94 1651.89 L806.49 1161.02 L819.05 1063.82 L831.47 1597.88 L844.02 1453.84 L856.44 1925.27 L869.00 1538.75 L881.42 1723.44 L893.97 1429.94 L906.53 1667.01 L918.95 1632.85 L931.50 1275.50 L943.92 1222.98 L956.48 1222.71 L968.90 1836.70 L981.45 1307.50 L994.01 1004.15 L1006.43 1884.09 L1018.98 1390.25 L1031.40 1452.62 L1043.96 1643.11 L1056.38 902.22 L1068.93 1621.78 L1081.48 473.45 L1093.91 1484.89 L1106.46 848.35 L1118.88 1491.37 L1131.44 924.90 L1143.86 1814.43 L1156.41 1107.69 L1168.96 1395.38 L1181.39 1151.70 L1193.94 1161.15 L1206.36 1028.72 L1218.92 864.01 L1231.34 984.30 L1243.89 2383.06 L1256.45 1393.90 L1268.87 1533.22 L1281.42 1645.00 L1293.84 1509.46 L1306.40 1483.67 L1318.82 1551.71 L1331.37 1018.86 L1343.93 1461.26 L1356.35 1615.44 L1368.90 1465.04 L1381.32 1459.51 L1393.88 1491.50 L1406.30 1209.48 L1418.85 1541.45 L1431.41 1942.01 L1443.83 975.39 L1456.38 1539.29 L1468.80 1430.48 L1481.36 1984.53 L1493.78 1250.66 L1506.33 1544.83 L1518.89 1693.60 L1531.31 1310.47 L1543.86 1111.61 L1556.28 1995.06 L1568.84 893.71 L1581.26 1597.07 L1593.81 1103.37 L1606.37 1347.19 L1618.79 1570.34 L1631.34 584.15 L1643.76 1664.44 L1656.32 1090.55 L1668.74 1350.43 L1681.29 1330.18 L1693.85 1956.86 L1706.27 1751.92 L1718.82 1448.84 L1731.24 1550.77 L1743.80 1463.15 L1756.22 1739.91 L1768.77 1085.42 L1781.33 2383.46 L1793.75 1027.91 L1806.30 1428.46 L1818.72 1214.21 L1831.28 693.64 L1843.70 1829.01 L1856.25 1487.99 L1868.81 1760.29 L1881.23 774.10 L1893.78 1629.48 L1906.20 761.82 L1918.76 1800.39 L1931.18 1259.03 L1943.73 1243.50 L1956.29 1490.15 L1968.71 1569.53 L1981.26 1279.01 L1993.68 1021.29 L2006.24 1026.96 L2018.66 1910.01 L2031.21 1051.80 L2043.77 1555.49 L2056.19 847.95 L2068.74 1704.94 L2081.16 1728.03 L2093.72 1933.64 L2106.14 739.27 L2118.69 2170.29 L2131.25 880.75 L2143.67 2135.87 L2156.22 964.19 L2168.64 1873.69 L2181.20 800.70 L2193.61 1819.56 L2206.17 1194.77 L2218.73 1231.76 L2231.15 1930.94 L2243.70 1359.20 L2256.12 1180.86 L2268.68 1803.49 L2281.09 743.46 L2293.65 1613.41 L2306.07 1161.96 L2318.63 1825.50 L2331.18 1643.52 L2343.60 1631.23 L2356.16 1305.20 L2368.57 1437.77 L2381.13 1304.39 L2393.55 1279.01 L2406.11 1156.97 L2418.66 2218.49 L2431.08 1244.18 L2443.64 1653.78 L2456.05 986.46 L2468.61 1370.81 L2481.03 1380.67 L2493.59 1596.40 L2506.14 834.72 L2518.56 1571.15 L2531.11 943.39 L2543.54 984.03 L2556.09 1375.40 L2568.51 1783.11 L2581.07 1611.52 L2593.62 1442.50 L2606.04 1690.09 L2618.59 862.26 L2631.02 1955.51 L2643.57 1126.59 L2655.99 1335.98 L2668.55 1113.63 L2681.10 1620.03 L2693.52 1073.27 L2706.08 1510.40 L2718.50 1562.51 L2731.05 1125.11 L2743.47 894.93 L2756.03 1662.55 L2768.58 728.07 L2781.00 1409.69 L2793.56 856.05 L2805.98 1724.38 L2818.53 1379.05 L2830.95 1498.52 L2843.51 1554.41 L2856.06 1795.26 L2868.48 1101.21 L2881.04 1670.52 L2893.46 1900.56 L2906.01 1406.32 L2918.43 1937.69 L2930.99 666.91 L2943.54 1426.57 L2955.96 1650.40 L2968.52 1431.02 L2980.94 1414.82 L2993.49 1409.02 L3005.91 1672.00 L3018.47 1148.87 L3031.02 1338.28 L3043.44 1374.46 L3056.00 1461.80 L3068.42 1242.56 L3080.97 919.50 L3093.39 1195.85 L3105.95 1475.03 L3118.50 1396.33 L3130.92 1365.55 L3143.48 1054.37 L3155.90 1577.36 L3168.45 1637.98 L3180.87 973.91 L3193.43 1330.99 L3205.98 1078.13 L3218.40 1313.57 L3230.96 1134.56 L3243.38 1628.53 L3255.93 1696.03 L3268.35 1519.99 L3280.91 1186.67 L3293.46 1470.71 L3305.88 906.67 L3318.44 1976.03 L3330.86 1514.72 L3343.41 1368.11 L3355.83 1915.68 L3368.39 1114.58 L3380.94 1583.30 L3393.36 1261.32 L3405.92 1667.14 L3418.34 1233.51 L3430.89 1279.01 L3443.31 1529.98 L3455.87 1797.28 L3468.42 1299.26 L3480.84 1447.36 L3493.40 1513.37 L3505.82 1494.74 L3518.37 953.79 L3530.79 1492.58 L3543.35 1809.57 L3555.90 1221.09 L3568.32 1798.36 L3580.88 1310.47 L3593.30 1425.89 L3605.85 1764.34 L3618.27 939.88 L3630.83 1471.79 L3643.38 1564.40 L3655.80 1282.52 L3668.36 1682.13 L3680.78 1144.14 L3693.33 1994.52 L3705.75 1214.61 L3718.31 971.48 L3730.86 837.55 L3743.28 1404.70 L3755.84 825.27 L3768.26 1363.79 L3780.81 1350.83 L3793.23 1253.09 L3805.79 982.68 L3818.34 1302.50 L3830.76 1349.21 L3843.32 1931.21 L3855.74 1726.81 L3868.29 1511.89 L3880.71 1517.02 L3893.27 781.53 L3905.82 1410.91 L3918.24 1248.09 L3930.80 1522.69 L3943.22 733.74 L3955.77 1446.41 L3968.19 1090.55 L3980.75 1895.97 L3993.30 1094.19 L4005.72 1395.65 L4018.28 1453.70 L4030.70 1052.48 L4043.25 1466.93 L4055.67 1295.75 L4068.23 1340.57 L4080.78 1226.63 L4093.20 1256.73 L4105.76 1300.88 L4118.18 1430.75 L4130.73 1231.49 L4143.15 1212.05 L4155.71 1589.92" stroke-linejoin="round" style="fill:none;stroke:#0080FF;stroke-width:8.64"/>
	<path d=" M419.04 1394.44 L431.60 1394.44 L444.02 1394.44 L456.57 1394.44 L469.13 1394.44 L481.55 1394.44 L494.10 1394.44 L506.52 1394.44 L519.08 1394.44 L531.50 1394.44 L544.05 1394.44 L556.61 1394.44 L569.03 1394.44 L581.58 1394.44 L594.00 1394.44 L606.55 1394.44 L618.98 1394.44 L631.53 1394.44 L644.09 1394.44 L656.51 1394.44 L669.06 1394.44 L681.48 1394.44 L694.04 1394.44 L706.46 1394.44 L719.01 1394.44 L731.57 1394.44 L743.99 1394.44 L756.54 1394.44 L768.96 1394.44 L781.52 1394.44 L793.94 1394.44 L806.49 1394.44 L819.05 1394.44 L831.47 1394.44 L844.02 1394.44 L856.44 1394.44 L869.00 1394.44 L881.42 1394.44 L893.97 1394.44 L906.53 1394.44 L918.95 1394.44 L931.50 1394.44 L943.92 1394.44 L956.48 1394.44 L968.90 1394.44 L981.45 1394.44 L994.01 1394.44 L1006.43 1394.44 L1018.98 1394.44 L1031.40 1394.44 L1043.96 1394.44 L1056.38 1394.44 L1068.93 1394.44 L1081.48 1394.44 L1093.91 1394.44 L1106.46 1394.44 L1118.88 1394.44 L1131.44 1394.44 L1143.86 1394.44 L1156.41 1394.44 L1168.96 1394.44 L1181.39 1394.44 L1193.94 1394.44 L1206.36 1394.44 L1218.92 1394.44 L1231.34 1394.44 L1243.89 1394.44 L1256.45 1394.44 L1268.87 1394.44 L1281.42 1394.44 L1293.84 1394.44 L1306.40 1394.44 L1318.82 1394.44 L1331.37 1394.44 L1343.93 1394.44 L1356.35 1394.44 L1368.90 1394.44 L1381.32 1394.44 L1393.88 1394.44 L1406.30 1394.44 L1418.85 1394.44 L1431.41 1394.44 L1443.83 1394.44 L1456.38 1394.44 L1468.80 1394.44 L1481.36 1394.44 L1493.78 1394.44 L1506.33 1394.44 L1518.89 1394.44 L1531.31 1394.44 L1543.86 1394.44 L1556.28 1394.44 L1568.84 1394.44 L1581.26 1394.44 L1593.81 1394.44 L1606.37 1394.44 L1618.79 1394.44 L1631.34 1394.44 L1643.76 1394.44 L1656.32 1394.44 L1668.74 1394.44 L1681.29 1394.44 L1693.85 1394.44 L1706.27 1394.44 L1718.82 1394.44 L1731.24 1394.44 L1743.80 1394.44 L1756.22 1394.44 L1768.77 1394.44 L1781.33 1394.44 L1793.75 1394.44 L1806.30 1394.44 L1818.72 1394.44 L1831.28 1394.44 L1843.70 1394.44 L1856.25 1394.44 L1868.81 1394.44 L1881.23 1394.44 L1893.78 1394.44 L1906.20 1394.44 L1918.76 1394.44 L1931.18 1394.44 L1943.73 1394.44 L1956.29 1394.44 L1968.71 1394.44 L1981.26 1394.44 L1993.68 1394.44 L2006.24 1394.44 L2018.66 1394.44 L2031.21 1394.44 L2043.77 1394.44 L2056.19 1394.44 L2068.74 1394.44 L2081.16 1394.44 L2093.72 1394.44 L2106.14 1394.44 L2118.69 1394.44 L2131.25 1394.44 L2143.67 1394.44 L2156.22 1394.44 L2168.64 1394.44 L2181.20 1394.44 L2193.61 1394.44 L2206.17 1394.44 L2218.73 1394.44 L2231.15 1394.44 L2243.70 1394.44 L2256.12 1394.44 L2268.68 1394.44 L2281.09 1394.44 L2293.65 1394.44 L2306.07 1394.44 L2318.63 1394.44 L2331.18 1394.44 L2343.60 1394.44 L2356.16 1394.44 L2368.57 1394.44 L2381.13 1394.44 L2393.55 1394.44 L2406.11 1394.44 L2418.66 1394.44 L2431.08 1394.44 L2443.64 1394.44 L2456.05 1394.44 L2468.61 1394.44 L2481.03 1394.44 L2493.59 1394.44 L2506.14 1394.44 L2518.56 1394.44 L2531.11 1394.44 L2543.54 1394.44 L2556.09 1394.44 L2568.51 1394.44 L2581.07 1394.44 L2593.62 1394.44 L2606.04 1394.44 L2618.59 1394.44 L2631.02 1394.44 L2643.57 1394.44 L2655.99 1394.44 L2668.55 1394.44 L2681.10 1394.44 L2693.52 1394.44 L2706.08 1394.44 L2718.50 1394.44 L2731.05 1394.44 L2743.47 1394.44 L2756.03 1394.44 L2768.58 1394.44 L2781.00 1394.44 L2793.56 1394.44 L2805.98 1394.44 L2818.53 1394.44 L2830.95 1394.44 L2843.51 1394.44 L2856.06 1394.44 L2868.48 1394.44 L2881.04 1394.44 L2893.46 1394.44 L2906.01 1394.44 L2918.43 1394.44 L2930.99 1394.44 L2943.54 1394.44 L2955.96 1394.44 L2968.52 1394.44 L2980.94 1394.44 L2993.49 1394.44 L3005.91 1394.44 L3018.47 1394.44 L3031.02 1394.44 L3043.44 1394.44 L3056.00 1394.44 L3068.42 1394.44 L3080.97 1394.44 L3093.39 1394.44 L3105.95 1394.44 L3118.50 1394.44 L3130.92 1394.44 L3143.48 1394.44 L3155.90 1394.44 L3168.45 1394.44 L3180.87 1394.44 L3193.43 1394.44 L3205.98 1394.44 L3218.40 1394.44 L3230.96 1394.44 L3243.38 1394.44 L3255.93 1394.44 L3268.35 1394.44 L3280.91 1394.44 L3293.46 1394.44 L3305.88 1394.44 L3318.44 1394.44 L3330.86 1394.44 L3343.41 1394.44 L3355.83 1394.44 L3368.39 1394.44 L3380.94 1394.44 L3393.36 1394.44 L3405.92 1394.44 L3418.34 1394.44 L3430.89 1394.44 L3443.31 1394.44 L3455.87 1394.44 L3468.42 1394.44 L3480.84 1394.44 L3493.40 1394.44 L3505.82 1394.44 L3518.37 1394.44 L3530.79 1394.44 L3543.35 1394.44 L3555.90 1394.44 L3568.32 1394.44 L3580.88 1394.44 L3593.30 1394.44 L3605.85 1394.44 L3618.27 1394.44 L3630.83 1394.44 L3643.38 1394.44 L3655.80 1394.44 L3668.36 1394.44 L3680.78 1394.44 L3693.33 1394.44 L3705.75 1394.44 L3718.31 1394.44 L3730.86 1394.44 L3743.28 1394.44 L3755.84 1394.44 L3768.26 1394.44 L3780.81 1394.44 L3793.23 1394.44 L3805.79 1394.44 L3818.34 1394.44 L3830.76 1394.44 L3843.32 1394.44 L3855.74 1394.44 L3868.29 1394.44 L3880.71 1394.44 L3893.27 1394.44 L3905.82 1394.44 L3918.24 1394.44 L3930.80 1394.44 L3943.22 1394.44 L3955.77 1394.44 L3968.19 1394.44 L3980.75 1394.44 L3993.30 1394.44 L4005.72 1394.44 L4018.28 1394.44 L4030.70 1394.44 L4043.25 1394.44 L4055.67 1394.44 L4068.23 1394.44 L4080.78 1394.44 L4093.20 1394.44 L4105.76 1394.44 L4118.18 1394.44 L4130.73 1394.44 L4143.15 1394.44 L4155.71 1394.44" stroke-linejoin="round" style="fill:none;stroke:#D41159;stroke-width:8.64"/>
	<line x1="343.31" y1="2459.20" x2="343.31" y2="275.40" style="stroke:#000000;stroke-width:5.76"/>
	<line x1="343.31" y1="2395.88" x2="303.35" y2="2395.88" style="stroke:#000000;stroke-width:5.76"/>
	<text x="283.23" y="2430.93" style="font-family:'Helvetica';font-size:100.04px;fill:#000000" text-anchor="end">-4</text>
	<line x1="343.31" y1="1881.52" x2="303.35" y2="1881.52" style="stroke:#000000;stroke-width:5.76"/>
	<text x="283.23" y="1916.57" style="font-family:'Helvetica';font-size:100.04px;fill:#000000" text-anchor="end">-2</text>
	<line x1="343.31" y1="1367.30" x2="303.35" y2="1367.30" style="stroke:#000000;stroke-width:5.76"/>
	<text x="283.23" y="1402.35" style="font-family:'Helvetica';font-size:100.04px;fill:#000000" text-anchor="end">0</text>
	<line x1="343.31" y1="852.94" x2="303.35" y2="852.94" style="stroke:#000000;stroke-width:5.76"/>
	<text x="283.23" y="887.99" style="font-family:'Helvetica';font-size:100.04px;fill:#000000" text-anchor="end">2</text>
	<line x1="343.31" y1="338.72" x2="303.35" y2="338.72" style="stroke:#000000;stroke-width:5.76"/>
	<text x="283.23" y="373.77" style="font-family:'Helvetica';font-size:100.04px;fill:#000000" text-anchor="end">4</text>
	<line x1="343.31" y1="2459.20" x2="4219.16" y2="2459.20" style="stroke:#000000;stroke-width:5.76"/>
	<line x1="406.62" y1="2459.20" x2="406.62" y2="2499.16" style="stroke:#000000;stroke-width:5.76"/>
	<text x="406.62" y="2589.10" style="font-family:'Helvetica';font-size:100.04px;fill:#000000" text-anchor="middle">0</text>
	<line x1="1031.54" y1="2459.20" x2="1031.54" y2="2499.16" style="stroke:#000000;stroke-width:5.76"/>
	<text x="1031.54" y="2589.10" style="font-family:'Helvetica';font-size:100.04px;fill:#000000" text-anchor="middle">50</text>
	<line x1="1656.32" y1="2459.20" x2="1656.32" y2="2499.16" style="stroke:#000000;stroke-width:5.76"/>
	<text x="1656.32" y="2589.10" style="font-family:'Helvetica';font-size:100.04px;fill:#000000" text-anchor="middle">100</text>
	<line x1="2281.23" y1="2459.20" x2="2281.23" y2="2499.16" style="stroke:#000000;stroke-width:5.76"/>
	<text x="2281.23" y="2589.10" style="font-family:'Helvetica';font-size:100.04px;fill:#000000" text-anchor="middle">150</text>
	<line x1="2906.01" y1="2459.20" x2="2906.01" y2="2499.16" style="stroke:#000000;stroke-width:5.76"/>
	<text x="2906.01" y="2589.10" style="font-family:'Helvetica';font-size:100.04px;fill:#000000" text-anchor="middle">200</text>
	<line x1="3530.93" y1="2459.20" x2="3530.93" y2="2499.16" style="stroke:#000000;stroke-width:5.76"/>
	<text x="3530.93" y="2589.10" style="font-family:'Helvetica';font-size:100.04px;fill:#000000" text-anchor="middle">250</text>
	<line x1="4155.84" y1="2459.20" x2="4155.84" y2="2499.16" style="stroke:#000000;stroke-width:5.76"/>
	<text x="4155.84" y="2589.10" style="font-family:'Helvetica';font-size:100.04px;fill:#000000" text-anchor="middle">300</text>
	<text x="2281.23" y="2729.09" style="font-family:'Helvetica';font-size:100.04px;fill:#000000" text-anchor="middle">Número de periodos</text>
	<text x="2281.23" y="216.06" style="font-family:'Helvetica';font-size:140.00px;fill:#000000" text-anchor="middle">Serie de Tiempo C</text>
</svg>
