<?xml version="1.0" encoding="UTF-8" standalone="no"?>
<!-- This is a Stata 18.0 generated SVG file (http://www.stata.com) -->

<svg version="1.1" width="6.000in" height="4.000in" viewBox="0 0 4320 2880" xmlns="http://www.w3.org/2000/svg" xmlns:xlink="http://www.w3.org/1999/xlink">
	<desc>Stata Graph - Graph</desc>
	<rect x="0" y="0" width="4320" height="2880" style="fill:#FFFFFF;stroke:none"/>
	<rect x="0.00" y="0.00" width="4320.00" height="2880.00" style="fill:#FFFFFF"/>
	<rect x="2.88" y="2.88" width="4314.24" height="2874.24" style="fill:none;stroke:#FFFFFF;stroke-width:5.76"/>
	<rect x="401.63" y="275.40" width="3817.53" height="2183.79" style="fill:#FFFFFF"/>
	<rect x="404.50" y="278.28" width="3811.77" height="2178.03" style="fill:none;stroke:#000000;stroke-width:5.76"/>
	<path d=" M477.23 1377.43 L489.51 1517.42 L501.80 1244.04 L514.08 1354.34 L526.37 1400.65 L538.79 1686.18 L551.07 1222.98 L563.36 1611.79 L575.64 1087.31 L587.92 1410.23 L600.21 1141.85 L612.50 1535.51 L624.78 998.88 L637.20 1529.44 L649.49 1131.59 L661.77 1423.73 L674.06 1069.76 L686.34 1473.14 L698.63 1227.44 L710.91 1595.72 L723.33 1195.58 L735.62 1761.24 L747.90 1088.52 L760.19 1681.59 L772.47 1150.49 L784.76 1635.96 L797.04 1126.73 L809.33 2010.45 L821.75 1436.83 L834.03 1357.31 L846.32 1166.01 L858.60 1615.03 L870.89 1265.91 L883.17 1444.66 L895.46 1141.58 L907.74 1456.67 L920.16 1326.26 L932.45 1522.96 L944.73 1389.58 L957.02 1409.69 L969.30 1233.65 L981.59 1438.72 L993.87 1272.80 L1006.29 1455.19 L1018.58 1291.70 L1030.86 1470.71 L1043.15 1305.61 L1055.43 1548.61 L1067.71 1166.28 L1080.00 1304.66 L1092.29 1304.26 L1104.71 1440.34 L1116.99 1188.56 L1129.28 1433.45 L1141.56 1490.69 L1153.85 1357.58 L1166.13 1360.28 L1178.42 1302.64 L1190.70 1381.88 L1203.12 1310.47 L1215.41 1229.33 L1227.69 1337.33 L1239.97 1229.19 L1252.26 1506.89 L1264.55 1210.02 L1276.83 1468.55 L1289.25 1230.81 L1301.54 1430.35 L1313.82 1339.36 L1326.11 1534.43 L1338.39 1209.62 L1350.68 1549.55 L1362.96 1264.70 L1375.25 1503.92 L1387.67 1039.38 L1399.95 1587.35 L1412.24 1075.16 L1424.52 1657.15 L1436.81 1172.09 L1449.09 1399.03 L1461.38 1284.41 L1473.80 1492.31 L1486.08 1319.51 L1498.37 1415.36 L1510.65 1142.39 L1522.94 1560.89 L1535.22 1309.39 L1547.51 1486.91 L1559.79 1206.92 L1572.21 1508.65 L1584.50 1311.14 L1596.78 1493.93 L1609.07 1268.75 L1621.35 1738.15 L1633.64 1147.52 L1645.92 1654.45 L1658.21 1147.52 L1670.63 1477.60 L1682.91 1301.42 L1695.20 1569.53 L1707.48 964.19 L1719.77 1492.45 L1732.05 1285.76 L1744.34 1547.12 L1756.76 1120.65 L1769.04 1525.25 L1781.33 1006.31 L1793.61 1695.22 L1805.90 948.39 L1818.18 1736.40 L1830.47 1175.87 L1842.75 1636.63 L1855.17 1032.23 L1867.46 1625.43 L1879.74 1266.45 L1892.03 1594.51 L1904.31 1127.67 L1916.60 1596.67 L1928.88 1114.17 L1941.17 1594.10 L1953.59 1093.11 L1965.87 1674.30 L1978.16 1209.48 L1990.44 1637.58 L2002.73 1158.99 L2015.01 1385.66 L2027.30 1051.80 L2039.72 1535.38 L2052.00 1240.40 L2064.29 1348.00 L2076.57 1294.67 L2088.86 1485.56 L2101.14 1236.35 L2113.43 1518.23 L2125.71 1290.08 L2138.13 1823.61 L2150.42 1143.06 L2162.70 1552.12 L2174.99 1102.29 L2187.27 1815.64 L2199.55 1050.05 L2211.84 1535.11 L2224.13 768.84 L2236.55 1754.35 L2248.83 1246.74 L2261.11 1654.32 L2273.40 1001.18 L2285.69 1550.50 L2297.97 1293.73 L2310.26 1582.76 L2322.68 1128.89 L2334.96 1657.29 L2347.25 898.17 L2359.53 1680.24 L2371.82 1070.97 L2384.10 1723.98 L2396.39 1080.42 L2408.67 1603.29 L2421.09 945.42 L2433.38 1712.37 L2445.66 888.99 L2457.95 1862.62 L2470.23 850.38 L2482.52 1712.50 L2494.80 1151.57 L2507.09 1717.63 L2519.51 1237.56 L2531.79 1507.97 L2544.07 952.17 L2556.36 1709.80 L2568.65 1003.34 L2580.93 1632.72 L2593.22 1096.22 L2605.64 1821.58 L2617.92 1070.97 L2630.21 1440.74 L2642.49 1213.80 L2654.78 1608.82 L2667.06 1109.18 L2679.35 1772.17 L2691.63 1065.98 L2704.05 1585.19 L2716.34 1017.24 L2728.62 1795.66 L2740.91 1106.21 L2753.19 1696.98 L2765.48 1019.00 L2777.76 1712.50 L2790.05 944.20 L2802.47 1668.63 L2814.75 940.29 L2827.04 1410.50 L2839.32 1156.97 L2851.61 1555.49 L2863.89 978.36 L2876.18 1832.65 L2888.60 1236.75 L2900.88 1270.77 L2913.17 982.28 L2925.45 1689.69 L2937.74 1125.38 L2950.02 1902.04 L2962.31 1253.09 L2974.59 1668.22 L2987.01 938.94 L2999.30 1631.10 L3011.58 1022.24 L3023.87 1645.68 L3036.15 988.89 L3048.44 1906.50 L3060.72 1046.94 L3073.14 1558.60 L3085.43 1062.60 L3097.71 1666.60 L3110.00 1336.52 L3122.28 1737.61 L3134.57 1059.09 L3146.85 1535.51 L3159.14 1064.36 L3171.56 1600.45 L3183.84 932.19 L3196.13 1829.28 L3208.41 795.84 L3220.70 1989.12 L3232.98 749.80 L3245.27 1847.91 L3257.55 802.59 L3269.97 1723.44 L3282.26 758.85 L3294.54 1683.75 L3306.83 797.19 L3319.11 1885.98 L3331.40 1080.15 L3343.68 2022.20 L3356.10 1050.99 L3368.39 1756.92 L3380.67 975.53 L3392.96 1849.93 L3405.24 962.16 L3417.53 1796.34 L3429.81 846.33 L3442.10 1935.39 L3454.52 793.54 L3466.80 1978.46 L3479.09 751.96 L3491.37 1927.43 L3503.66 947.04 L3515.94 2089.83 L3528.23 910.18 L3540.51 2147.75 L3552.93 641.40 L3565.22 2168.54 L3577.50 523.40 L3589.79 2055.68 L3602.07 890.07 L3614.36 1996.68 L3626.64 744.00 L3639.06 1964.42 L3651.35 888.31 L3663.63 1861.95 L3675.92 642.34 L3688.20 1829.95 L3700.49 871.71 L3712.77 2002.35 L3725.06 760.06 L3737.48 1969.68 L3749.76 709.44 L3762.05 1995.47 L3774.33 715.11 L3786.62 2202.69 L3798.90 692.56 L3811.19 2150.45 L3823.47 535.55 L3835.89 2025.44 L3848.18 875.22 L3860.46 2300.98 L3872.75 757.90 L3885.03 1815.24 L3897.32 742.78 L3909.60 2014.50 L3922.02 906.67 L3934.31 2102.79 L3946.59 662.19 L3958.88 1994.79 L3971.16 860.10 L3983.45 1784.73 L3995.73 898.57 L4008.02 1924.86 L4020.44 625.46 L4032.72 2048.25 L4045.01 793.27 L4057.29 2086.05 L4069.58 860.10 L4081.86 1852.90 L4094.15 699.45 L4106.43 1756.38 L4118.85 747.64 L4131.14 2142.48 L4143.42 950.68 L4155.71 1885.98" stroke-linejoin="round" style="fill:none;stroke:#0080FF;stroke-width:8.64"/>
	<path d=" M477.23 1370.14 L489.51 1370.14 L501.80 1370.14 L514.08 1370.14 L526.37 1370.14 L538.79 1370.14 L551.07 1370.14 L563.36 1370.14 L575.64 1370.14 L587.92 1370.14 L600.21 1370.14 L612.50 1370.14 L624.78 1370.14 L637.20 1370.14 L649.49 1370.14 L661.77 1370.14 L674.06 1370.14 L686.34 1370.14 L698.63 1370.14 L710.91 1370.14 L723.33 1370.14 L735.62 1370.14 L747.90 1370.14 L760.19 1370.14 L772.47 1370.14 L784.76 1370.14 L797.04 1370.14 L809.33 1370.14 L821.75 1370.14 L834.03 1370.14 L846.32 1370.14 L858.60 1370.14 L870.89 1370.14 L883.17 1370.14 L895.46 1370.14 L907.74 1370.14 L920.16 1370.14 L932.45 1370.14 L944.73 1370.14 L957.02 1370.14 L969.30 1370.14 L981.59 1370.14 L993.87 1370.14 L1006.29 1370.14 L1018.58 1370.14 L1030.86 1370.14 L1043.15 1370.14 L1055.43 1370.14 L1067.71 1370.14 L1080.00 1370.14 L1092.29 1370.14 L1104.71 1370.14 L1116.99 1370.14 L1129.28 1370.14 L1141.56 1370.14 L1153.85 1370.14 L1166.13 1370.14 L1178.42 1370.14 L1190.70 1370.14 L1203.12 1370.14 L1215.41 1370.14 L1227.69 1370.14 L1239.97 1370.14 L1252.26 1370.14 L1264.55 1370.14 L1276.83 1370.14 L1289.25 1370.14 L1301.54 1370.14 L1313.82 1370.14 L1326.11 1370.14 L1338.39 1370.14 L1350.68 1370.14 L1362.96 1370.14 L1375.25 1370.14 L1387.67 1370.14 L1399.95 1370.14 L1412.24 1370.14 L1424.52 1370.14 L1436.81 1370.14 L1449.09 1370.14 L1461.38 1370.14 L1473.80 1370.14 L1486.08 1370.14 L1498.37 1370.14 L1510.65 1370.14 L1522.94 1370.14 L1535.22 1370.14 L1547.51 1370.14 L1559.79 1370.14 L1572.21 1370.14 L1584.50 1370.14 L1596.78 1370.14 L1609.07 1370.14 L1621.35 1370.14 L1633.64 1370.14 L1645.92 1370.14 L1658.21 1370.14 L1670.63 1370.14 L1682.91 1370.14 L1695.20 1370.14 L1707.48 1370.14 L1719.77 1370.14 L1732.05 1370.14 L1744.34 1370.14 L1756.76 1370.14 L1769.04 1370.14 L1781.33 1370.14 L1793.61 1370.14 L1805.90 1370.14 L1818.18 1370.14 L1830.47 1370.14 L1842.75 1370.14 L1855.17 1370.14 L1867.46 1370.14 L1879.74 1370.14 L1892.03 1370.14 L1904.31 1370.14 L1916.60 1370.14 L1928.88 1370.14 L1941.17 1370.14 L1953.59 1370.14 L1965.87 1370.14 L1978.16 1370.14 L1990.44 1370.14 L2002.73 1370.14 L2015.01 1370.14 L2027.30 1370.14 L2039.72 1370.14 L2052.00 1370.14 L2064.29 1370.14 L2076.57 1370.14 L2088.86 1370.14 L2101.14 1370.14 L2113.43 1370.14 L2125.71 1370.14 L2138.13 1370.14 L2150.42 1370.14 L2162.70 1370.14 L2174.99 1370.14 L2187.27 1370.14 L2199.55 1370.14 L2211.84 1370.14 L2224.13 1370.14 L2236.55 1370.14 L2248.83 1370.14 L2261.11 1370.14 L2273.40 1370.14 L2285.69 1370.14 L2297.97 1370.14 L2310.26 1370.14 L2322.68 1370.14 L2334.96 1370.14 L2347.25 1370.14 L2359.53 1370.14 L2371.82 1370.14 L2384.10 1370.14 L2396.39 1370.14 L2408.67 1370.14 L2421.09 1370.14 L2433.38 1370.14 L2445.66 1370.14 L2457.95 1370.14 L2470.23 1370.14 L2482.52 1370.14 L2494.80 1370.14 L2507.09 1370.14 L2519.51 1370.14 L2531.79 1370.14 L2544.07 1370.14 L2556.36 1370.14 L2568.65 1370.14 L2580.93 1370.14 L2593.22 1370.14 L2605.64 1370.14 L2617.92 1370.14 L2630.21 1370.14 L2642.49 1370.14 L2654.78 1370.14 L2667.06 1370.14 L2679.35 1370.14 L2691.63 1370.14 L2704.05 1370.14 L2716.34 1370.14 L2728.62 1370.14 L2740.91 1370.14 L2753.19 1370.14 L2765.48 1370.14 L2777.76 1370.14 L2790.05 1370.14 L2802.47 1370.14 L2814.75 1370.14 L2827.04 1370.14 L2839.32 1370.14 L2851.61 1370.14 L2863.89 1370.14 L2876.18 1370.14 L2888.60 1370.14 L2900.88 1370.14 L2913.17 1370.14 L2925.45 1370.14 L2937.74 1370.14 L2950.02 1370.14 L2962.31 1370.14 L2974.59 1370.14 L2987.01 1370.14 L2999.30 1370.14 L3011.58 1370.14 L3023.87 1370.14 L3036.15 1370.14 L3048.44 1370.14 L3060.72 1370.14 L3073.14 1370.14 L3085.43 1370.14 L3097.71 1370.14 L3110.00 1370.14 L3122.28 1370.14 L3134.57 1370.14 L3146.85 1370.14 L3159.14 1370.14 L3171.56 1370.14 L3183.84 1370.14 L3196.13 1370.14 L3208.41 1370.14 L3220.70 1370.14 L3232.98 1370.14 L3245.27 1370.14 L3257.55 1370.14 L3269.97 1370.14 L3282.26 1370.14 L3294.54 1370.14 L3306.83 1370.14 L3319.11 1370.14 L3331.40 1370.14 L3343.68 1370.14 L3356.10 1370.14 L3368.39 1370.14 L3380.67 1370.14 L3392.96 1370.14 L3405.24 1370.14 L3417.53 1370.14 L3429.81 1370.14 L3442.10 1370.14 L3454.52 1370.14 L3466.80 1370.14 L3479.09 1370.14 L3491.37 1370.14 L3503.66 1370.14 L3515.94 1370.14 L3528.23 1370.14 L3540.51 1370.14 L3552.93 1370.14 L3565.22 1370.14 L3577.50 1370.14 L3589.79 1370.14 L3602.07 1370.14 L3614.36 1370.14 L3626.64 1370.14 L3639.06 1370.14 L3651.35 1370.14 L3663.63 1370.14 L3675.92 1370.14 L3688.20 1370.14 L3700.49 1370.14 L3712.77 1370.14 L3725.06 1370.14 L3737.48 1370.14 L3749.76 1370.14 L3762.05 1370.14 L3774.33 1370.14 L3786.62 1370.14 L3798.90 1370.14 L3811.19 1370.14 L3823.47 1370.14 L3835.89 1370.14 L3848.18 1370.14 L3860.46 1370.14 L3872.75 1370.14 L3885.03 1370.14 L3897.32 1370.14 L3909.60 1370.14 L3922.02 1370.14 L3934.31 1370.14 L3946.59 1370.14 L3958.88 1370.14 L3971.16 1370.14 L3983.45 1370.14 L3995.73 1370.14 L4008.02 1370.14 L4020.44 1370.14 L4032.72 1370.14 L4045.01 1370.14 L4057.29 1370.14 L4069.58 1370.14 L4081.86 1370.14 L4094.15 1370.14 L4106.43 1370.14 L4118.85 1370.14 L4131.14 1370.14 L4143.42 1370.14 L4155.71 1370.14" stroke-linejoin="round" style="fill:none;stroke:#D41159;stroke-width:8.64"/>
	<line x1="401.63" y1="2459.20" x2="401.63" y2="275.40" style="stroke:#000000;stroke-width:5.76"/>
	<line x1="401.63" y1="2395.88" x2="361.67" y2="2395.88" style="stroke:#000000;stroke-width:5.76"/>
	<text x="341.69" y="2430.93" style="font-family:'Helvetica';font-size:100.04px;fill:#000000" text-anchor="end">-10</text>
	<line x1="401.63" y1="1881.52" x2="361.67" y2="1881.52" style="stroke:#000000;stroke-width:5.76"/>
	<text x="341.69" y="1916.57" style="font-family:'Helvetica';font-size:100.04px;fill:#000000" text-anchor="end">-5</text>
	<line x1="401.63" y1="1367.30" x2="361.67" y2="1367.30" style="stroke:#000000;stroke-width:5.76"/>
	<text x="341.69" y="1402.35" style="font-family:'Helvetica';font-size:100.04px;fill:#000000" text-anchor="end">0</text>
	<line x1="401.63" y1="852.94" x2="361.67" y2="852.94" style="stroke:#000000;stroke-width:5.76"/>
	<text x="341.69" y="887.99" style="font-family:'Helvetica';font-size:100.04px;fill:#000000" text-anchor="end">5</text>
	<line x1="401.63" y1="338.72" x2="361.67" y2="338.72" style="stroke:#000000;stroke-width:5.76"/>
	<text x="341.69" y="373.77" style="font-family:'Helvetica';font-size:100.04px;fill:#000000" text-anchor="end">10</text>
	<line x1="401.63" y1="2459.20" x2="4219.16" y2="2459.20" style="stroke:#000000;stroke-width:5.76"/>
	<line x1="464.94" y1="2459.20" x2="464.94" y2="2499.16" style="stroke:#000000;stroke-width:5.76"/>
	<text x="464.94" y="2589.10" style="font-family:'Helvetica';font-size:100.04px;fill:#000000" text-anchor="middle">0</text>
	<line x1="1080.14" y1="2459.20" x2="1080.14" y2="2499.16" style="stroke:#000000;stroke-width:5.76"/>
	<text x="1080.14" y="2589.10" style="font-family:'Helvetica';font-size:100.04px;fill:#000000" text-anchor="middle">50</text>
	<line x1="1695.20" y1="2459.20" x2="1695.20" y2="2499.16" style="stroke:#000000;stroke-width:5.76"/>
	<text x="1695.20" y="2589.10" style="font-family:'Helvetica';font-size:100.04px;fill:#000000" text-anchor="middle">100</text>
	<line x1="2310.39" y1="2459.20" x2="2310.39" y2="2499.16" style="stroke:#000000;stroke-width:5.76"/>
	<text x="2310.39" y="2589.10" style="font-family:'Helvetica';font-size:100.04px;fill:#000000" text-anchor="middle">150</text>
	<line x1="2925.45" y1="2459.20" x2="2925.45" y2="2499.16" style="stroke:#000000;stroke-width:5.76"/>
	<text x="2925.45" y="2589.10" style="font-family:'Helvetica';font-size:100.04px;fill:#000000" text-anchor="middle">200</text>
	<line x1="3540.65" y1="2459.20" x2="3540.65" y2="2499.16" style="stroke:#000000;stroke-width:5.76"/>
	<text x="3540.65" y="2589.10" style="font-family:'Helvetica';font-size:100.04px;fill:#000000" text-anchor="middle">250</text>
	<line x1="4155.84" y1="2459.20" x2="4155.84" y2="2499.16" style="stroke:#000000;stroke-width:5.76"/>
	<text x="4155.84" y="2589.10" style="font-family:'Helvetica';font-size:100.04px;fill:#000000" text-anchor="middle">300</text>
	<text x="2310.39" y="2729.09" style="font-family:'Helvetica';font-size:100.04px;fill:#000000" text-anchor="middle">Número de periodos</text>
	<text x="2310.39" y="216.06" style="font-family:'Helvetica';font-size:140.00px;fill:#000000" text-anchor="middle">Serie de Tiempo B</text>
</svg>
