<?xml version="1.0" encoding="UTF-8" standalone="no"?>
<!-- This is a Stata 18.0 generated SVG file (http://www.stata.com) -->

<svg version="1.1" width="7.500in" height="4.500in" viewBox="0 0 5400 3240" xmlns="http://www.w3.org/2000/svg" xmlns:xlink="http://www.w3.org/1999/xlink">
	<desc>Stata Graph - Graph</desc>
	<rect x="0" y="0" width="5400" height="3240" style="fill:#FFFFFF;stroke:none"/>
	<rect x="0.00" y="0.00" width="5400.00" height="3240.00" style="fill:#FFFFFF"/>
	<rect x="3.24" y="3.24" width="5393.52" height="3233.52" style="fill:none;stroke:#FFFFFF;stroke-width:6.48"/>
	<rect x="451.74" y="309.82" width="4834.86" height="2456.83" style="fill:#FFFFFF"/>
	<rect x="454.98" y="313.06" width="4828.38" height="2450.35" style="fill:none;stroke:#000000;stroke-width:6.48"/>
	<line x1="2869.26" y1="2766.66" x2="2869.26" y2="2701.86" style="stroke:#000000;stroke-width:9.72"/>
	<line x1="2869.26" y1="2669.46" x2="2869.26" y2="2604.66" style="stroke:#000000;stroke-width:9.72"/>
	<line x1="2869.26" y1="2572.26" x2="2869.26" y2="2507.46" style="stroke:#000000;stroke-width:9.72"/>
	<line x1="2869.26" y1="2475.06" x2="2869.26" y2="2410.26" style="stroke:#000000;stroke-width:9.72"/>
	<line x1="2869.26" y1="2377.86" x2="2869.26" y2="2313.06" style="stroke:#000000;stroke-width:9.72"/>
	<line x1="2869.26" y1="2280.66" x2="2869.26" y2="2215.86" style="stroke:#000000;stroke-width:9.72"/>
	<line x1="2869.26" y1="2183.46" x2="2869.26" y2="2118.66" style="stroke:#000000;stroke-width:9.72"/>
	<line x1="2869.26" y1="2086.26" x2="2869.26" y2="2021.46" style="stroke:#000000;stroke-width:9.72"/>
	<line x1="2869.26" y1="1989.06" x2="2869.26" y2="1924.26" style="stroke:#000000;stroke-width:9.72"/>
	<line x1="2869.26" y1="1891.86" x2="2869.26" y2="1827.06" style="stroke:#000000;stroke-width:9.72"/>
	<line x1="2869.26" y1="1794.66" x2="2869.26" y2="1729.86" style="stroke:#000000;stroke-width:9.72"/>
	<line x1="2869.26" y1="1697.46" x2="2869.26" y2="1632.66" style="stroke:#000000;stroke-width:9.72"/>
	<line x1="2869.26" y1="1600.26" x2="2869.26" y2="1535.46" style="stroke:#000000;stroke-width:9.72"/>
	<line x1="2869.26" y1="1503.06" x2="2869.26" y2="1438.26" style="stroke:#000000;stroke-width:9.72"/>
	<line x1="2869.26" y1="1405.86" x2="2869.26" y2="1341.06" style="stroke:#000000;stroke-width:9.72"/>
	<line x1="2869.26" y1="1308.66" x2="2869.26" y2="1243.86" style="stroke:#000000;stroke-width:9.72"/>
	<line x1="2869.26" y1="1211.46" x2="2869.26" y2="1146.66" style="stroke:#000000;stroke-width:9.72"/>
	<line x1="2869.26" y1="1114.26" x2="2869.26" y2="1049.46" style="stroke:#000000;stroke-width:9.72"/>
	<line x1="2869.26" y1="1017.06" x2="2869.26" y2="952.26" style="stroke:#000000;stroke-width:9.72"/>
	<line x1="2869.26" y1="919.86" x2="2869.26" y2="855.06" style="stroke:#000000;stroke-width:9.72"/>
	<line x1="2869.26" y1="822.66" x2="2869.26" y2="757.86" style="stroke:#000000;stroke-width:9.72"/>
	<line x1="2869.26" y1="725.46" x2="2869.26" y2="660.66" style="stroke:#000000;stroke-width:9.72"/>
	<line x1="2869.26" y1="628.26" x2="2869.26" y2="563.46" style="stroke:#000000;stroke-width:9.72"/>
	<line x1="2869.26" y1="531.06" x2="2869.26" y2="466.26" style="stroke:#000000;stroke-width:9.72"/>
	<line x1="2869.26" y1="433.86" x2="2869.26" y2="369.06" style="stroke:#000000;stroke-width:9.72"/>
	<line x1="2869.26" y1="336.66" x2="2869.26" y2="309.82" style="stroke:#000000;stroke-width:9.72"/>
	<path d=" M538.65 1229.85 L554.34 1341.90 L569.87 1274.57 L585.56 1287.39 L601.26 1250.10 L616.95 1205.89 L632.48 1128.43 L648.17 1145.31 L663.86 1182.60 L679.39 1092.66 L695.08 1055.19 L710.78 1121.85 L726.30 1175.68 L741.99 1032.41 L757.69 1016.72 L773.21 964.57 L788.91 1053.34 L804.60 948.88 L820.13 1030.56 L835.82 918.84 L851.51 967.11 L867.04 967.78 L882.73 927.28 L898.43 856.07 L914.12 964.07 L929.64 972.00 L945.34 953.27 L961.03 772.37 L976.56 952.26 L992.25 976.39 L1007.94 1017.06 L1023.47 761.06 L1039.16 969.13 L1054.86 958.33 L1070.38 1001.53 L1086.08 743.51 L1101.77 932.85 L1117.29 852.69 L1132.99 964.24 L1148.68 803.08 L1164.38 804.77 L1179.90 887.63 L1195.59 1023.47 L1211.29 771.86 L1226.81 816.92 L1242.51 858.09 L1258.20 1057.56 L1273.72 946.01 L1289.42 772.37 L1305.11 865.86 L1320.64 979.76 L1336.33 875.64 L1352.03 769.50 L1367.55 897.24 L1383.24 967.28 L1398.94 874.63 L1414.46 724.78 L1430.16 912.26 L1445.85 797.34 L1461.54 875.81 L1477.07 702.34 L1492.76 881.38 L1508.46 784.35 L1523.98 887.29 L1539.68 722.93 L1555.37 909.73 L1570.89 828.56 L1586.59 754.31 L1602.28 767.81 L1617.81 824.34 L1633.50 819.11 L1649.19 747.73 L1664.72 835.99 L1680.41 778.28 L1696.11 849.49 L1711.80 792.62 L1727.33 813.71 L1743.02 776.59 L1758.71 804.09 L1774.24 720.73 L1789.93 770.85 L1805.63 762.75 L1821.15 694.24 L1836.84 708.75 L1852.54 791.61 L1868.06 698.63 L1883.76 648.84 L1899.45 630.45 L1914.98 787.39 L1930.67 775.07 L1946.36 649.86 L1961.89 608.01 L1977.58 920.36 L1993.28 929.31 L2008.97 633.99 L2024.49 621.00 L2040.19 959.68 L2055.88 859.78 L2071.41 617.96 L2087.10 640.91 L2102.79 808.31 L2118.32 866.36 L2134.01 728.66 L2149.71 737.27 L2165.23 719.72 L2180.93 881.89 L2196.62 732.38 L2212.14 650.36 L2227.84 804.60 L2243.53 826.71 L2259.23 663.36 L2274.75 674.83 L2290.44 718.03 L2306.14 783.51 L2321.66 682.93 L2337.36 719.55 L2353.05 729.00 L2368.57 860.12 L2384.27 735.41 L2399.96 711.28 L2415.49 766.63 L2431.18 869.91 L2446.88 705.54 L2462.40 598.72 L2478.09 751.78 L2493.79 931.33 L2509.31 730.52 L2525.01 716.34 L2540.70 787.56 L2556.39 951.75 L2571.92 757.86 L2587.61 741.99 L2603.31 722.42 L2618.83 954.79 L2634.53 745.03 L2650.22 763.26 L2665.74 693.73 L2681.44 960.53 L2697.13 772.20 L2712.66 765.45 L2728.35 654.58 L2744.04 1009.46 L2759.57 604.80 L2775.26 806.63 L2790.96 702.00 L2806.65 1203.19 L2822.18 855.39 L2837.87 1390.84 L2853.56 1417.33 L2869.09 1488.71 L2884.78 1618.14 L2900.48 1828.41 L2916.00 1908.73 L2931.69 1767.99 L2947.39 1950.58 L2962.91 1964.08 L2978.61 2134.35 L2994.30 2024.83 L3009.83 2110.39 L3025.52 2065.33 L3041.21 2330.78 L3056.74 2267.32 L3072.43 2372.46 L3088.13 2237.29 L3103.82 2281.16 L3119.34 2337.19 L3135.04 2366.04 L3150.73 2074.61 L3166.26 2219.06 L3181.95 2188.18 L3197.64 2128.78 L3213.17 2040.86 L3228.86 2258.72 L3244.56 2124.23 L3260.08 2351.36 L3275.78 2183.96 L3291.47 2384.78 L3306.99 2233.24 L3322.69 2463.58 L3338.38 2504.93 L3354.08 2266.65 L3369.60 2304.79 L3385.29 2317.95 L3400.99 2236.78 L3416.51 2233.57 L3432.21 2324.87 L3447.90 2442.66 L3463.43 2324.36 L3479.12 2341.57 L3494.81 2245.22 L3510.34 2197.29 L3526.03 2308.67 L3541.73 2224.80 L3557.25 2033.61 L3572.94 1945.69 L3588.64 2145.82 L3604.16 2014.20 L3619.86 1782.51 L3635.55 1797.69 L3651.24 1883.59 L3666.77 1970.66 L3682.46 1698.81 L3698.16 1900.97 L3713.68 1776.09 L3729.38 2030.23 L3745.07 1974.71 L3760.59 2077.48 L3776.29 1923.24 L3791.98 2258.55 L3807.51 2192.57 L3823.20 2224.13 L3838.89 1970.16 L3854.42 2059.76 L3870.11 2106.00 L3885.81 2116.46 L3901.50 1964.42 L3917.03 1978.93 L3932.72 2079.68 L3948.41 2170.29 L3963.94 2001.88 L3979.63 1986.36 L3995.33 2122.37 L4010.85 2224.97 L4026.54 2340.39 L4042.24 2049.47 L4057.76 2097.56 L4073.46 2115.79 L4089.15 2375.66 L4104.68 2167.09 L4120.37 2362.33 L4136.06 2260.91 L4151.59 2374.82 L4167.28 2268.84 L4182.98 2354.91 L4198.67 2319.81 L4214.19 2471.85 L4229.89 2355.07 L4245.58 2336.51 L4261.11 2427.81 L4276.80 2221.26 L4292.49 2498.34 L4308.02 2388.32 L4323.71 2221.26 L4339.41 2185.82 L4354.93 2245.22 L4370.63 2053.18 L4386.32 2215.01 L4401.84 1924.09 L4417.54 2154.26 L4433.23 2007.96 L4448.93 2002.73 L4464.45 1807.65 L4480.14 1958.51 L4495.84 1960.37 L4511.36 1994.63 L4527.06 1981.29 L4542.75 1983.66 L4558.27 2018.76 L4573.97 2098.41 L4589.66 2058.24 L4605.19 2170.29 L4620.88 2182.61 L4636.58 2234.25 L4652.10 2352.04 L4667.79 2201.01 L4683.49 2338.88 L4699.01 2221.43 L4714.71 2368.91 L4730.40 2290.28 L4746.09 2219.57 L4761.62 2422.07 L4777.31 2471.51 L4793.01 2336.51 L4808.53 2468.14 L4824.23 2547.28 L4839.92 2552.18 L4855.44 2291.12 L4871.14 2501.72 L4886.83 2291.46 L4902.36 2456.49 L4918.05 2223.11 L4933.74 2487.04 L4949.27 2377.52 L4964.96 2592.84 L4980.66 2473.20 L4996.35 2576.48 L5011.88 2301.92 L5027.57 2452.28 L5043.26 2239.99 L5058.79 2357.61 L5074.48 1965.60 L5090.18 2302.09 L5105.70 2020.78 L5121.39 2236.28 L5137.09 1959.53 L5152.61 2305.63 L5168.31 2077.14 L5184.00 2325.71 L5199.52 2177.04 L5215.22 2371.44" stroke-linejoin="round" style="fill:none;stroke:#1A85FF;stroke-width:9.72"/>
	<path d=" M538.65 1527.02 L554.34 1527.02 L569.87 1527.02 L585.56 1527.02 L601.26 1527.02 L616.95 1527.02 L632.48 1527.02 L648.17 1527.02 L663.86 1527.02 L679.39 1527.02 L695.08 1527.02 L710.78 1527.02 L726.30 1527.02 L741.99 1527.02 L757.69 1527.02 L773.21 1527.02 L788.91 1527.02 L804.60 1527.02 L820.13 1527.02 L835.82 1527.02 L851.51 1527.02 L867.04 1527.02 L882.73 1527.02 L898.43 1527.02 L914.12 1527.02 L929.64 1527.02 L945.34 1527.02 L961.03 1527.02 L976.56 1527.02 L992.25 1527.02 L1007.94 1527.02 L1023.47 1527.02 L1039.16 1527.02 L1054.86 1527.02 L1070.38 1527.02 L1086.08 1527.02 L1101.77 1527.02 L1117.29 1527.02 L1132.99 1527.02 L1148.68 1527.02 L1164.38 1527.02 L1179.90 1527.02 L1195.59 1527.02 L1211.29 1527.02 L1226.81 1527.02 L1242.51 1527.02 L1258.20 1527.02 L1273.72 1527.02 L1289.42 1527.02 L1305.11 1527.02 L1320.64 1527.02 L1336.33 1527.02 L1352.03 1527.02 L1367.55 1527.02 L1383.24 1527.02 L1398.94 1527.02 L1414.46 1527.02 L1430.16 1527.02 L1445.85 1527.02 L1461.54 1527.02 L1477.07 1527.02 L1492.76 1527.02 L1508.46 1527.02 L1523.98 1527.02 L1539.68 1527.02 L1555.37 1527.02 L1570.89 1527.02 L1586.59 1527.02 L1602.28 1527.02 L1617.81 1527.02 L1633.50 1527.02 L1649.19 1527.02 L1664.72 1527.02 L1680.41 1527.02 L1696.11 1527.02 L1711.80 1527.02 L1727.33 1527.02 L1743.02 1527.02 L1758.71 1527.02 L1774.24 1527.02 L1789.93 1527.02 L1805.63 1527.02 L1821.15 1527.02 L1836.84 1527.02 L1852.54 1527.02 L1868.06 1527.02 L1883.76 1527.02 L1899.45 1527.02 L1914.98 1527.02 L1930.67 1527.02 L1946.36 1527.02 L1961.89 1527.02 L1977.58 1527.02 L1993.28 1527.02 L2008.97 1527.02 L2024.49 1527.02 L2040.19 1527.02 L2055.88 1527.02 L2071.41 1527.02 L2087.10 1527.02 L2102.79 1527.02 L2118.32 1527.02 L2134.01 1527.02 L2149.71 1527.02 L2165.23 1527.02 L2180.93 1527.02 L2196.62 1527.02 L2212.14 1527.02 L2227.84 1527.02 L2243.53 1527.02 L2259.23 1527.02 L2274.75 1527.02 L2290.44 1527.02 L2306.14 1527.02 L2321.66 1527.02 L2337.36 1527.02 L2353.05 1527.02 L2368.57 1527.02 L2384.27 1527.02 L2399.96 1527.02 L2415.49 1527.02 L2431.18 1527.02 L2446.88 1527.02 L2462.40 1527.02 L2478.09 1527.02 L2493.79 1527.02 L2509.31 1527.02 L2525.01 1527.02 L2540.70 1527.02 L2556.39 1527.02 L2571.92 1527.02 L2587.61 1527.02 L2603.31 1527.02 L2618.83 1527.02 L2634.53 1527.02 L2650.22 1527.02 L2665.74 1527.02 L2681.44 1527.02 L2697.13 1527.02 L2712.66 1527.02 L2728.35 1527.02 L2744.04 1527.02 L2759.57 1527.02 L2775.26 1527.02 L2790.96 1527.02 L2806.65 1527.02 L2822.18 1527.02 L2837.87 1527.02 L2853.56 1527.02 L2869.09 1527.02 L2884.78 1527.02 L2900.48 1527.02 L2916.00 1527.02 L2931.69 1527.02 L2947.39 1527.02 L2962.91 1527.02 L2978.61 1527.02 L2994.30 1527.02 L3009.83 1527.02 L3025.52 1527.02 L3041.21 1527.02 L3056.74 1527.02 L3072.43 1527.02 L3088.13 1527.02 L3103.82 1527.02 L3119.34 1527.02 L3135.04 1527.02 L3150.73 1527.02 L3166.26 1527.02 L3181.95 1527.02 L3197.64 1527.02 L3213.17 1527.02 L3228.86 1527.02 L3244.56 1527.02 L3260.08 1527.02 L3275.78 1527.02 L3291.47 1527.02 L3306.99 1527.02 L3322.69 1527.02 L3338.38 1527.02 L3354.08 1527.02 L3369.60 1527.02 L3385.29 1527.02 L3400.99 1527.02 L3416.51 1527.02 L3432.21 1527.02 L3447.90 1527.02 L3463.43 1527.02 L3479.12 1527.02 L3494.81 1527.02 L3510.34 1527.02 L3526.03 1527.02 L3541.73 1527.02 L3557.25 1527.02 L3572.94 1527.02 L3588.64 1527.02 L3604.16 1527.02 L3619.86 1527.02 L3635.55 1527.02 L3651.24 1527.02 L3666.77 1527.02 L3682.46 1527.02 L3698.16 1527.02 L3713.68 1527.02 L3729.38 1527.02 L3745.07 1527.02 L3760.59 1527.02 L3776.29 1527.02 L3791.98 1527.02 L3807.51 1527.02 L3823.20 1527.02 L3838.89 1527.02 L3854.42 1527.02 L3870.11 1527.02 L3885.81 1527.02 L3901.50 1527.02 L3917.03 1527.02 L3932.72 1527.02 L3948.41 1527.02 L3963.94 1527.02 L3979.63 1527.02 L3995.33 1527.02 L4010.85 1527.02 L4026.54 1527.02 L4042.24 1527.02 L4057.76 1527.02 L4073.46 1527.02 L4089.15 1527.02 L4104.68 1527.02 L4120.37 1527.02 L4136.06 1527.02 L4151.59 1527.02 L4167.28 1527.02 L4182.98 1527.02 L4198.67 1527.02 L4214.19 1527.02 L4229.89 1527.02 L4245.58 1527.02 L4261.11 1527.02 L4276.80 1527.02 L4292.49 1527.02 L4308.02 1527.02 L4323.71 1527.02 L4339.41 1527.02 L4354.93 1527.02 L4370.63 1527.02 L4386.32 1527.02 L4401.84 1527.02 L4417.54 1527.02 L4433.23 1527.02 L4448.93 1527.02 L4464.45 1527.02 L4480.14 1527.02 L4495.84 1527.02 L4511.36 1527.02 L4527.06 1527.02 L4542.75 1527.02 L4558.27 1527.02 L4573.97 1527.02 L4589.66 1527.02 L4605.19 1527.02 L4620.88 1527.02 L4636.58 1527.02 L4652.10 1527.02 L4667.79 1527.02 L4683.49 1527.02 L4699.01 1527.02 L4714.71 1527.02 L4730.40 1527.02 L4746.09 1527.02 L4761.62 1527.02 L4777.31 1527.02 L4793.01 1527.02 L4808.53 1527.02 L4824.23 1527.02 L4839.92 1527.02 L4855.44 1527.02 L4871.14 1527.02 L4886.83 1527.02 L4902.36 1527.02 L4918.05 1527.02 L4933.74 1527.02 L4949.27 1527.02 L4964.96 1527.02 L4980.66 1527.02 L4996.35 1527.02 L5011.88 1527.02 L5027.57 1527.02 L5043.26 1527.02 L5058.79 1527.02 L5074.48 1527.02 L5090.18 1527.02 L5105.70 1527.02 L5121.39 1527.02 L5137.09 1527.02 L5152.61 1527.02 L5168.31 1527.02 L5184.00 1527.02 L5199.52 1527.02 L5215.22 1527.02" stroke-linejoin="round" style="fill:none;stroke:#D41159;stroke-width:9.72"/>
	<line x1="451.74" y1="2766.66" x2="451.74" y2="309.82" style="stroke:#000000;stroke-width:6.48"/>
	<line x1="451.74" y1="2695.28" x2="406.86" y2="2695.28" style="stroke:#000000;stroke-width:6.48"/>
	<text x="384.41" y="2734.71" style="font-family:'Helvetica';font-size:112.56px;fill:#000000" text-anchor="end">-20</text>
	<line x1="451.74" y1="2116.80" x2="406.86" y2="2116.80" style="stroke:#000000;stroke-width:6.48"/>
	<text x="384.41" y="2156.24" style="font-family:'Helvetica';font-size:112.56px;fill:#000000" text-anchor="end">-10</text>
	<line x1="451.74" y1="1538.16" x2="406.86" y2="1538.16" style="stroke:#000000;stroke-width:6.48"/>
	<text x="384.41" y="1577.59" style="font-family:'Helvetica';font-size:112.56px;fill:#000000" text-anchor="end">0</text>
	<line x1="451.74" y1="959.68" x2="406.86" y2="959.68" style="stroke:#000000;stroke-width:6.48"/>
	<text x="384.41" y="999.12" style="font-family:'Helvetica';font-size:112.56px;fill:#000000" text-anchor="end">10</text>
	<line x1="451.74" y1="381.04" x2="406.86" y2="381.04" style="stroke:#000000;stroke-width:6.48"/>
	<text x="384.41" y="420.47" style="font-family:'Helvetica';font-size:112.56px;fill:#000000" text-anchor="end">20</text>
	<line x1="451.74" y1="2766.66" x2="5286.60" y2="2766.66" style="stroke:#000000;stroke-width:6.48"/>
	<line x1="523.13" y1="2766.66" x2="523.13" y2="2811.54" style="stroke:#000000;stroke-width:6.48"/>
	<text x="523.13" y="2912.86" style="font-family:'Helvetica';font-size:112.56px;fill:#000000" text-anchor="middle">0</text>
	<line x1="1305.11" y1="2766.66" x2="1305.11" y2="2811.54" style="stroke:#000000;stroke-width:6.48"/>
	<text x="1305.11" y="2912.86" style="font-family:'Helvetica';font-size:112.56px;fill:#000000" text-anchor="middle">50</text>
	<line x1="2087.10" y1="2766.66" x2="2087.10" y2="2811.54" style="stroke:#000000;stroke-width:6.48"/>
	<text x="2087.10" y="2912.86" style="font-family:'Helvetica';font-size:112.56px;fill:#000000" text-anchor="middle">100</text>
	<line x1="2869.26" y1="2766.66" x2="2869.26" y2="2811.54" style="stroke:#000000;stroke-width:6.48"/>
	<text x="2869.26" y="2912.86" style="font-family:'Helvetica';font-size:112.56px;fill:#000000" text-anchor="middle">150</text>
	<line x1="3651.24" y1="2766.66" x2="3651.24" y2="2811.54" style="stroke:#000000;stroke-width:6.48"/>
	<text x="3651.24" y="2912.86" style="font-family:'Helvetica';font-size:112.56px;fill:#000000" text-anchor="middle">200</text>
	<line x1="4433.23" y1="2766.66" x2="4433.23" y2="2811.54" style="stroke:#000000;stroke-width:6.48"/>
	<text x="4433.23" y="2912.86" style="font-family:'Helvetica';font-size:112.56px;fill:#000000" text-anchor="middle">250</text>
	<line x1="5215.39" y1="2766.66" x2="5215.39" y2="2811.54" style="stroke:#000000;stroke-width:6.48"/>
	<text x="5215.39" y="2912.86" style="font-family:'Helvetica';font-size:112.56px;fill:#000000" text-anchor="middle">300</text>
	<text x="2869.26" y="3070.31" style="font-family:'Helvetica';font-size:112.56px;fill:#000000" text-anchor="middle">Número de periodos</text>
	<text x="2869.26" y="243.10" style="font-family:'Helvetica';font-size:157.44px;fill:#000000" text-anchor="middle">Serie de Tiempo E</text>
</svg>
