<?xml version="1.0" encoding="UTF-8" standalone="no"?>
<!-- This is a Stata 18.0 generated SVG file (http://www.stata.com) -->

<svg version="1.1" width="6.000in" height="4.000in" viewBox="0 0 4320 2880" xmlns="http://www.w3.org/2000/svg" xmlns:xlink="http://www.w3.org/1999/xlink">
	<desc>Stata Graph - pac_C</desc>
	<rect x="0" y="0" width="4320" height="2880" style="fill:#FFFFFF;stroke:none"/>
	<rect x="0.00" y="0.00" width="4320.00" height="2880.00" style="fill:#FFFFFF"/>
	<rect x="2.88" y="2.88" width="4314.24" height="2874.24" style="fill:none;stroke:#FFFFFF;stroke-width:5.76"/>
	<rect x="489.11" y="275.40" width="3730.05" height="2183.79" style="fill:#FFFFFF"/>
	<rect x="491.98" y="278.28" width="3724.29" height="2178.03" style="fill:none;stroke:#000000;stroke-width:5.76"/>
	<line x1="489.11" y1="1598.29" x2="546.75" y2="1598.29" style="stroke:#F0F0F0;stroke-width:8.64"/>
	<line x1="575.51" y1="1598.29" x2="633.15" y2="1598.29" style="stroke:#F0F0F0;stroke-width:8.64"/>
	<line x1="661.91" y1="1598.29" x2="719.55" y2="1598.29" style="stroke:#F0F0F0;stroke-width:8.64"/>
	<line x1="748.31" y1="1598.29" x2="805.95" y2="1598.29" style="stroke:#F0F0F0;stroke-width:8.64"/>
	<line x1="834.71" y1="1598.29" x2="892.35" y2="1598.29" style="stroke:#F0F0F0;stroke-width:8.64"/>
	<line x1="921.11" y1="1598.29" x2="978.75" y2="1598.29" style="stroke:#F0F0F0;stroke-width:8.64"/>
	<line x1="1007.51" y1="1598.29" x2="1065.15" y2="1598.29" style="stroke:#F0F0F0;stroke-width:8.64"/>
	<line x1="1093.91" y1="1598.29" x2="1151.55" y2="1598.29" style="stroke:#F0F0F0;stroke-width:8.64"/>
	<line x1="1180.31" y1="1598.29" x2="1237.95" y2="1598.29" style="stroke:#F0F0F0;stroke-width:8.64"/>
	<line x1="1266.71" y1="1598.29" x2="1324.35" y2="1598.29" style="stroke:#F0F0F0;stroke-width:8.64"/>
	<line x1="1353.11" y1="1598.29" x2="1410.75" y2="1598.29" style="stroke:#F0F0F0;stroke-width:8.64"/>
	<line x1="1439.51" y1="1598.29" x2="1497.15" y2="1598.29" style="stroke:#F0F0F0;stroke-width:8.64"/>
	<line x1="1525.91" y1="1598.29" x2="1583.55" y2="1598.29" style="stroke:#F0F0F0;stroke-width:8.64"/>
	<line x1="1612.31" y1="1598.29" x2="1669.95" y2="1598.29" style="stroke:#F0F0F0;stroke-width:8.64"/>
	<line x1="1698.71" y1="1598.29" x2="1756.35" y2="1598.29" style="stroke:#F0F0F0;stroke-width:8.64"/>
	<line x1="1785.11" y1="1598.29" x2="1842.75" y2="1598.29" style="stroke:#F0F0F0;stroke-width:8.64"/>
	<line x1="1871.51" y1="1598.29" x2="1929.15" y2="1598.29" style="stroke:#F0F0F0;stroke-width:8.64"/>
	<line x1="1957.91" y1="1598.29" x2="2015.55" y2="1598.29" style="stroke:#F0F0F0;stroke-width:8.64"/>
	<line x1="2044.31" y1="1598.29" x2="2101.95" y2="1598.29" style="stroke:#F0F0F0;stroke-width:8.64"/>
	<line x1="2130.71" y1="1598.29" x2="2188.35" y2="1598.29" style="stroke:#F0F0F0;stroke-width:8.64"/>
	<line x1="2217.11" y1="1598.29" x2="2274.75" y2="1598.29" style="stroke:#F0F0F0;stroke-width:8.64"/>
	<line x1="2303.51" y1="1598.29" x2="2361.15" y2="1598.29" style="stroke:#F0F0F0;stroke-width:8.64"/>
	<line x1="2389.91" y1="1598.29" x2="2447.55" y2="1598.29" style="stroke:#F0F0F0;stroke-width:8.64"/>
	<line x1="2476.30" y1="1598.29" x2="2533.95" y2="1598.29" style="stroke:#F0F0F0;stroke-width:8.64"/>
	<line x1="2562.71" y1="1598.29" x2="2620.35" y2="1598.29" style="stroke:#F0F0F0;stroke-width:8.64"/>
	<line x1="2649.11" y1="1598.29" x2="2706.75" y2="1598.29" style="stroke:#F0F0F0;stroke-width:8.64"/>
	<line x1="2735.51" y1="1598.29" x2="2793.15" y2="1598.29" style="stroke:#F0F0F0;stroke-width:8.64"/>
	<line x1="2821.91" y1="1598.29" x2="2879.55" y2="1598.29" style="stroke:#F0F0F0;stroke-width:8.64"/>
	<line x1="2908.31" y1="1598.29" x2="2965.95" y2="1598.29" style="stroke:#F0F0F0;stroke-width:8.64"/>
	<line x1="2994.71" y1="1598.29" x2="3052.35" y2="1598.29" style="stroke:#F0F0F0;stroke-width:8.64"/>
	<line x1="3081.11" y1="1598.29" x2="3138.75" y2="1598.29" style="stroke:#F0F0F0;stroke-width:8.64"/>
	<line x1="3167.51" y1="1598.29" x2="3225.15" y2="1598.29" style="stroke:#F0F0F0;stroke-width:8.64"/>
	<line x1="3253.91" y1="1598.29" x2="3311.55" y2="1598.29" style="stroke:#F0F0F0;stroke-width:8.64"/>
	<line x1="3340.31" y1="1598.29" x2="3397.95" y2="1598.29" style="stroke:#F0F0F0;stroke-width:8.64"/>
	<line x1="3426.71" y1="1598.29" x2="3484.35" y2="1598.29" style="stroke:#F0F0F0;stroke-width:8.64"/>
	<line x1="3513.11" y1="1598.29" x2="3570.75" y2="1598.29" style="stroke:#F0F0F0;stroke-width:8.64"/>
	<line x1="3599.51" y1="1598.29" x2="3657.15" y2="1598.29" style="stroke:#F0F0F0;stroke-width:8.64"/>
	<line x1="3685.91" y1="1598.29" x2="3743.55" y2="1598.29" style="stroke:#F0F0F0;stroke-width:8.64"/>
	<line x1="3772.31" y1="1598.29" x2="3829.95" y2="1598.29" style="stroke:#F0F0F0;stroke-width:8.64"/>
	<line x1="3858.71" y1="1598.29" x2="3916.35" y2="1598.29" style="stroke:#F0F0F0;stroke-width:8.64"/>
	<line x1="3945.11" y1="1598.29" x2="4002.75" y2="1598.29" style="stroke:#F0F0F0;stroke-width:8.64"/>
	<line x1="4031.51" y1="1598.29" x2="4089.15" y2="1598.29" style="stroke:#F0F0F0;stroke-width:8.64"/>
	<line x1="4117.91" y1="1598.29" x2="4175.55" y2="1598.29" style="stroke:#F0F0F0;stroke-width:8.64"/>
	<line x1="4204.31" y1="1598.29" x2="4219.16" y2="1598.29" style="stroke:#F0F0F0;stroke-width:8.64"/>
	<defs>
		<path id="path_tKPwqywf" d="M672.57 1914.06 L672.57 1914.06 L792.72 2014.77 L912.87 2075.93 L1032.89 2113.19 L1153.04 2186.90 L1273.19 2204.45 L1393.20 2218.62 L1513.35 2231.58 L1633.50 2267.36 L1753.52 2280.05 L1873.67 2288.96 L1993.82 2297.33 L2113.97 2318.53 L2233.98 2326.76 L2354.13 2331.08 L2474.28 2335.94 L2594.30 2348.77 L2714.45 2354.98 L2834.60 2358.22 L2954.61 2362.00 L3074.76 2370.50 L3194.91 2375.23 L3315.06 2376.85 L3435.08 2379.28 L3555.23 2384.41 L3675.38 2387.11 L3795.39 2387.78 L3915.54 2389.27 L4035.69 2393.32 L4155.84 2395.88 L4155.84 800.70 L4035.69 803.26 L3915.54 807.31 L3795.39 808.80 L3675.38 809.47 L3555.23 812.17 L3435.08 817.30 L3315.06 819.73 L3194.91 821.35 L3074.76 826.21 L2954.61 834.72 L2834.60 838.36 L2714.45 841.60 L2594.30 847.81 L2474.28 860.77 L2354.13 865.50 L2233.98 869.82 L2113.97 878.05 L1993.82 899.25 L1873.67 907.62 L1753.52 916.53 L1633.50 929.22 L1513.35 965.00 L1393.20 977.96 L1273.19 992.13 L1153.04 1009.68 L1032.89 1083.39 L912.87 1120.65 L792.72 1181.81 L672.57 1282.52 L672.57 1914.06 Z" stroke-linejoin="round"/>
	</defs>
	<defs>
		<clipPath id="clipPath_OdXPOIQu">
			<use xlink:href="#path_tKPwqywf"/>
		</clipPath>
	</defs>
	<use xlink:href="#path_tKPwqywf" style="stroke:none;fill:#E0E0E0"/>
	<use xlink:href="#path_tKPwqywf" style="fill:none;stroke:#E0E0E0;stroke-width:17.28" clip-path="url(#clipPath_OdXPOIQu)"/>
	<line x1="672.57" y1="1598.29" x2="672.57" y2="398.53" style="stroke:#FF0000;stroke-width:8.64"/>
	<line x1="792.72" y1="1598.29" x2="792.72" y2="564.58" style="stroke:#FF0000;stroke-width:8.64"/>
	<line x1="912.87" y1="1598.29" x2="912.87" y2="748.45" style="stroke:#FF0000;stroke-width:8.64"/>
	<line x1="1032.89" y1="1598.29" x2="1032.89" y2="338.72" style="stroke:#FF0000;stroke-width:8.64"/>
	<line x1="1153.04" y1="1598.29" x2="1153.04" y2="958.51" style="stroke:#FF0000;stroke-width:8.64"/>
	<line x1="1273.19" y1="1598.29" x2="1273.19" y2="1013.46" style="stroke:#FF0000;stroke-width:8.64"/>
	<line x1="1393.20" y1="1598.29" x2="1393.20" y2="1035.33" style="stroke:#FF0000;stroke-width:8.64"/>
	<line x1="1513.35" y1="1598.29" x2="1513.35" y2="644.50" style="stroke:#FF0000;stroke-width:8.64"/>
	<line x1="1633.50" y1="1598.29" x2="1633.50" y2="1020.21" style="stroke:#FF0000;stroke-width:8.64"/>
	<line x1="1753.52" y1="1598.29" x2="1753.52" y2="1110.80" style="stroke:#FF0000;stroke-width:8.64"/>
	<line x1="1873.67" y1="1598.29" x2="1873.67" y2="1122.68" style="stroke:#FF0000;stroke-width:8.64"/>
	<line x1="1993.82" y1="1598.29" x2="1993.82" y2="831.75" style="stroke:#FF0000;stroke-width:8.64"/>
	<line x1="2113.97" y1="1598.29" x2="2113.97" y2="1113.23" style="stroke:#FF0000;stroke-width:8.64"/>
	<line x1="2233.98" y1="1598.29" x2="2233.98" y2="1247.28" style="stroke:#FF0000;stroke-width:8.64"/>
	<line x1="2354.13" y1="1598.29" x2="2354.13" y2="1228.92" style="stroke:#FF0000;stroke-width:8.64"/>
	<line x1="2474.28" y1="1598.29" x2="2474.28" y2="985.79" style="stroke:#FF0000;stroke-width:8.64"/>
	<line x1="2594.30" y1="1598.29" x2="2594.30" y2="1173.03" style="stroke:#FF0000;stroke-width:8.64"/>
	<line x1="2714.45" y1="1598.29" x2="2714.45" y2="1287.79" style="stroke:#FF0000;stroke-width:8.64"/>
	<line x1="2834.60" y1="1598.29" x2="2834.60" y2="1264.83" style="stroke:#FF0000;stroke-width:8.64"/>
	<line x1="2954.61" y1="1598.29" x2="2954.61" y2="1093.52" style="stroke:#FF0000;stroke-width:8.64"/>
	<line x1="3074.76" y1="1598.29" x2="3074.76" y2="1217.31" style="stroke:#FF0000;stroke-width:8.64"/>
	<line x1="3194.91" y1="1598.29" x2="3194.91" y2="1375.27" style="stroke:#FF0000;stroke-width:8.64"/>
	<line x1="3315.06" y1="1598.29" x2="3315.06" y2="1329.10" style="stroke:#FF0000;stroke-width:8.64"/>
	<line x1="3435.08" y1="1598.29" x2="3435.08" y2="1199.76" style="stroke:#FF0000;stroke-width:8.64"/>
	<line x1="3555.23" y1="1598.29" x2="3555.23" y2="1310.20" style="stroke:#FF0000;stroke-width:8.64"/>
	<line x1="3675.38" y1="1598.29" x2="3675.38" y2="1461.53" style="stroke:#FF0000;stroke-width:8.64"/>
	<line x1="3795.39" y1="1598.29" x2="3795.39" y2="1377.56" style="stroke:#FF0000;stroke-width:8.64"/>
	<line x1="3915.54" y1="1598.29" x2="3915.54" y2="1245.53" style="stroke:#FF0000;stroke-width:8.64"/>
	<line x1="4035.69" y1="1598.29" x2="4035.69" y2="1319.38" style="stroke:#FF0000;stroke-width:8.64"/>
	<line x1="4155.84" y1="1598.29" x2="4155.84" y2="1458.97" style="stroke:#FF0000;stroke-width:8.64"/>
	<circle cx="672.57" cy="398.66" r="19.30" style="fill:#FF0000"/>
	<circle cx="672.57" cy="398.66" r="14.99" style="fill:none;stroke:#FF0000;stroke-width:8.64"/>
	<circle cx="792.59" cy="564.71" r="19.30" style="fill:#FF0000"/>
	<circle cx="792.59" cy="564.71" r="14.99" style="fill:none;stroke:#FF0000;stroke-width:8.64"/>
	<circle cx="912.74" cy="748.45" r="19.30" style="fill:#FF0000"/>
	<circle cx="912.74" cy="748.45" r="14.99" style="fill:none;stroke:#FF0000;stroke-width:8.64"/>
	<circle cx="1032.89" cy="338.72" r="19.30" style="fill:#FF0000"/>
	<circle cx="1032.89" cy="338.72" r="14.99" style="fill:none;stroke:#FF0000;stroke-width:8.64"/>
	<circle cx="1152.90" cy="958.65" r="19.30" style="fill:#FF0000"/>
	<circle cx="1152.90" cy="958.65" r="14.99" style="fill:none;stroke:#FF0000;stroke-width:8.64"/>
	<circle cx="1273.05" cy="1013.46" r="19.30" style="fill:#FF0000"/>
	<circle cx="1273.05" cy="1013.46" r="14.99" style="fill:none;stroke:#FF0000;stroke-width:8.64"/>
	<circle cx="1393.20" cy="1035.47" r="19.30" style="fill:#FF0000"/>
	<circle cx="1393.20" cy="1035.47" r="14.99" style="fill:none;stroke:#FF0000;stroke-width:8.64"/>
	<circle cx="1513.35" cy="644.64" r="19.30" style="fill:#FF0000"/>
	<circle cx="1513.35" cy="644.64" r="14.99" style="fill:none;stroke:#FF0000;stroke-width:8.64"/>
	<circle cx="1633.37" cy="1020.35" r="19.30" style="fill:#FF0000"/>
	<circle cx="1633.37" cy="1020.35" r="14.99" style="fill:none;stroke:#FF0000;stroke-width:8.64"/>
	<circle cx="1753.52" cy="1110.93" r="19.30" style="fill:#FF0000"/>
	<circle cx="1753.52" cy="1110.93" r="14.99" style="fill:none;stroke:#FF0000;stroke-width:8.64"/>
	<circle cx="1873.67" cy="1122.81" r="19.30" style="fill:#FF0000"/>
	<circle cx="1873.67" cy="1122.81" r="14.99" style="fill:none;stroke:#FF0000;stroke-width:8.64"/>
	<circle cx="1993.68" cy="831.75" r="19.30" style="fill:#FF0000"/>
	<circle cx="1993.68" cy="831.75" r="14.99" style="fill:none;stroke:#FF0000;stroke-width:8.64"/>
	<circle cx="2113.83" cy="1113.36" r="19.30" style="fill:#FF0000"/>
	<circle cx="2113.83" cy="1113.36" r="14.99" style="fill:none;stroke:#FF0000;stroke-width:8.64"/>
	<circle cx="2233.98" cy="1247.28" r="19.30" style="fill:#FF0000"/>
	<circle cx="2233.98" cy="1247.28" r="14.99" style="fill:none;stroke:#FF0000;stroke-width:8.64"/>
	<circle cx="2354.00" cy="1229.06" r="19.30" style="fill:#FF0000"/>
	<circle cx="2354.00" cy="1229.06" r="14.99" style="fill:none;stroke:#FF0000;stroke-width:8.64"/>
	<circle cx="2474.15" cy="985.79" r="19.30" style="fill:#FF0000"/>
	<circle cx="2474.15" cy="985.79" r="14.99" style="fill:none;stroke:#FF0000;stroke-width:8.64"/>
	<circle cx="2594.30" cy="1173.17" r="19.30" style="fill:#FF0000"/>
	<circle cx="2594.30" cy="1173.17" r="14.99" style="fill:none;stroke:#FF0000;stroke-width:8.64"/>
	<circle cx="2714.45" cy="1287.92" r="19.30" style="fill:#FF0000"/>
	<circle cx="2714.45" cy="1287.92" r="14.99" style="fill:none;stroke:#FF0000;stroke-width:8.64"/>
	<circle cx="2834.46" cy="1264.83" r="19.30" style="fill:#FF0000"/>
	<circle cx="2834.46" cy="1264.83" r="14.99" style="fill:none;stroke:#FF0000;stroke-width:8.64"/>
	<circle cx="2954.61" cy="1093.65" r="19.30" style="fill:#FF0000"/>
	<circle cx="2954.61" cy="1093.65" r="14.99" style="fill:none;stroke:#FF0000;stroke-width:8.64"/>
	<circle cx="3074.76" cy="1217.45" r="19.30" style="fill:#FF0000"/>
	<circle cx="3074.76" cy="1217.45" r="14.99" style="fill:none;stroke:#FF0000;stroke-width:8.64"/>
	<circle cx="3194.78" cy="1375.40" r="19.30" style="fill:#FF0000"/>
	<circle cx="3194.78" cy="1375.40" r="14.99" style="fill:none;stroke:#FF0000;stroke-width:8.64"/>
	<circle cx="3314.93" cy="1329.23" r="19.30" style="fill:#FF0000"/>
	<circle cx="3314.93" cy="1329.23" r="14.99" style="fill:none;stroke:#FF0000;stroke-width:8.64"/>
	<circle cx="3435.08" cy="1199.76" r="19.30" style="fill:#FF0000"/>
	<circle cx="3435.08" cy="1199.76" r="14.99" style="fill:none;stroke:#FF0000;stroke-width:8.64"/>
	<circle cx="3555.09" cy="1310.20" r="19.30" style="fill:#FF0000"/>
	<circle cx="3555.09" cy="1310.20" r="14.99" style="fill:none;stroke:#FF0000;stroke-width:8.64"/>
	<circle cx="3675.24" cy="1461.67" r="19.30" style="fill:#FF0000"/>
	<circle cx="3675.24" cy="1461.67" r="14.99" style="fill:none;stroke:#FF0000;stroke-width:8.64"/>
	<circle cx="3795.39" cy="1377.56" r="19.30" style="fill:#FF0000"/>
	<circle cx="3795.39" cy="1377.56" r="14.99" style="fill:none;stroke:#FF0000;stroke-width:8.64"/>
	<circle cx="3915.54" cy="1245.53" r="19.30" style="fill:#FF0000"/>
	<circle cx="3915.54" cy="1245.53" r="14.99" style="fill:none;stroke:#FF0000;stroke-width:8.64"/>
	<circle cx="4035.56" cy="1319.51" r="19.30" style="fill:#FF0000"/>
	<circle cx="4035.56" cy="1319.51" r="14.99" style="fill:none;stroke:#FF0000;stroke-width:8.64"/>
	<circle cx="4155.71" cy="1459.10" r="19.30" style="fill:#FF0000"/>
	<circle cx="4155.71" cy="1459.10" r="14.99" style="fill:none;stroke:#FF0000;stroke-width:8.64"/>
	<line x1="489.11" y1="2459.20" x2="489.11" y2="275.40" style="stroke:#000000;stroke-width:5.76"/>
	<line x1="489.11" y1="2387.51" x2="449.15" y2="2387.51" style="stroke:#000000;stroke-width:5.76"/>
	<text x="429.17" y="2422.56" style="font-family:'Helvetica';font-size:100.04px;fill:#000000" text-anchor="end">-0.40</text>
	<line x1="489.11" y1="1992.90" x2="449.15" y2="1992.90" style="stroke:#000000;stroke-width:5.76"/>
	<text x="429.17" y="2027.95" style="font-family:'Helvetica';font-size:100.04px;fill:#000000" text-anchor="end">-0.20</text>
	<line x1="489.11" y1="1598.29" x2="449.15" y2="1598.29" style="stroke:#000000;stroke-width:5.76"/>
	<text x="429.17" y="1633.34" style="font-family:'Helvetica';font-size:100.04px;fill:#000000" text-anchor="end">0.00</text>
	<line x1="489.11" y1="1203.68" x2="449.15" y2="1203.68" style="stroke:#000000;stroke-width:5.76"/>
	<text x="429.17" y="1238.73" style="font-family:'Helvetica';font-size:100.04px;fill:#000000" text-anchor="end">0.20</text>
	<line x1="489.11" y1="809.07" x2="449.15" y2="809.07" style="stroke:#000000;stroke-width:5.76"/>
	<text x="429.17" y="844.11" style="font-family:'Helvetica';font-size:100.04px;fill:#000000" text-anchor="end">0.40</text>
	<line x1="489.11" y1="414.46" x2="449.15" y2="414.46" style="stroke:#000000;stroke-width:5.76"/>
	<text x="429.17" y="449.50" style="font-family:'Helvetica';font-size:100.04px;fill:#000000" text-anchor="end">0.60</text>
	<line x1="489.11" y1="2459.20" x2="4219.16" y2="2459.20" style="stroke:#000000;stroke-width:5.76"/>
	<line x1="552.42" y1="2459.20" x2="552.42" y2="2499.16" style="stroke:#000000;stroke-width:5.76"/>
	<text x="552.42" y="2589.10" style="font-family:'Helvetica';font-size:100.04px;fill:#000000" text-anchor="middle">0</text>
	<line x1="1753.52" y1="2459.20" x2="1753.52" y2="2499.16" style="stroke:#000000;stroke-width:5.76"/>
	<text x="1753.52" y="2589.10" style="font-family:'Helvetica';font-size:100.04px;fill:#000000" text-anchor="middle">10</text>
	<line x1="2954.61" y1="2459.20" x2="2954.61" y2="2499.16" style="stroke:#000000;stroke-width:5.76"/>
	<text x="2954.61" y="2589.10" style="font-family:'Helvetica';font-size:100.04px;fill:#000000" text-anchor="middle">20</text>
	<line x1="4155.84" y1="2459.20" x2="4155.84" y2="2499.16" style="stroke:#000000;stroke-width:5.76"/>
	<text x="4155.84" y="2589.10" style="font-family:'Helvetica';font-size:100.04px;fill:#000000" text-anchor="middle">30</text>
	<text x="2354.13" y="2729.09" style="font-family:'Helvetica';font-size:100.04px;fill:#000000" text-anchor="middle">Rezago</text>
	<text x="2354.13" y="216.06" style="font-family:'Helvetica';font-size:140.00px;fill:#000000" text-anchor="middle">Autocorrelación del tramo 1 de la serie E</text>
</svg>
