<?xml version="1.0" encoding="UTF-8" standalone="no"?>
<!-- This is a Stata 18.0 generated SVG file (http://www.stata.com) -->

<svg version="1.1" width="6.000in" height="4.000in" viewBox="0 0 4320 2880" xmlns="http://www.w3.org/2000/svg" xmlns:xlink="http://www.w3.org/1999/xlink">
	<desc>Stata Graph - Graph</desc>
	<rect x="0" y="0" width="4320" height="2880" style="fill:#FFFFFF;stroke:none"/>
	<rect x="0.00" y="0.00" width="4320.00" height="2880.00" style="fill:#FFFFFF"/>
	<rect x="2.88" y="2.88" width="4314.24" height="2874.24" style="fill:none;stroke:#FFFFFF;stroke-width:5.76"/>
	<rect x="366.66" y="275.40" width="3852.50" height="2183.79" style="fill:#FFFFFF"/>
	<rect x="369.54" y="278.28" width="3846.74" height="2178.03" style="fill:none;stroke:#000000;stroke-width:5.76"/>
	<path d=" M454.82 1720.74 L479.66 1965.90 L504.36 1818.61 L529.20 1846.69 L554.04 1764.88 L578.88 1668.09 L603.72 1498.66 L628.56 1535.51 L653.40 1617.19 L678.24 1420.09 L703.08 1338.14 L727.92 1484.08 L752.76 1601.94 L777.60 1288.19 L802.44 1254.03 L827.28 1139.55 L852.12 1333.96 L876.96 1105.40 L901.80 1284.01 L926.64 1039.65 L951.48 1145.36 L976.32 1146.71 L1001.16 1058.15 L1026.00 902.08 L1050.84 1138.47 L1075.68 1156.02 L1100.52 1115.12 L1125.36 719.02 L1150.20 1112.96 L1175.04 1165.47 L1199.88 1254.44 L1224.72 693.91 L1249.56 1149.54 L1274.40 1126.05 L1299.24 1220.82 L1324.08 655.71 L1348.92 1070.16 L1373.76 894.66 L1398.60 1139.01 L1423.44 786.12 L1448.28 789.76 L1473.12 971.07 L1497.96 1268.48 L1522.80 717.67 L1547.64 816.49 L1572.48 906.54 L1597.32 1343.41 L1622.16 1099.19 L1647.00 718.75 L1671.84 923.68 L1696.68 1173.03 L1721.52 944.88 L1746.36 712.41 L1771.20 992.27 L1796.04 1145.76 L1820.88 942.58 L1845.72 614.80 L1870.56 1025.21 L1895.40 773.43 L1920.24 945.55 L1945.08 565.39 L1969.92 957.57 L1994.76 745.21 L2019.60 970.53 L2044.44 610.61 L2069.28 1019.67 L2094.12 841.87 L2118.96 679.20 L2143.80 708.90 L2168.64 832.83 L2193.48 821.35 L2218.32 664.89 L2243.16 858.21 L2268.00 731.85 L2292.84 887.50 L2317.68 763.17 L2342.52 809.20 L2367.36 728.20 L2392.20 788.41 L2417.04 605.89 L2441.88 715.65 L2466.72 697.96 L2491.56 547.57 L2516.40 579.70 L2541.24 760.87 L2566.08 557.29 L2590.92 448.21 L2615.76 407.98 L2640.60 751.83 L2665.44 724.83 L2690.28 450.64 L2715.12 358.97 L2739.96 1042.76 L2764.80 1062.60 L2789.64 415.94 L2814.48 387.32 L2839.32 1128.89 L2864.16 910.32 L2889.00 380.71 L2913.84 430.93 L2938.68 797.46 L2963.52 924.49 L2988.23 623.17 L3013.07 641.94 L3037.91 603.59 L3062.75 958.65 L3087.59 631.27 L3112.43 451.58 L3137.27 789.36 L3162.11 837.96 L3186.95 480.20 L3211.79 505.31 L3236.63 599.81 L3261.47 743.32 L3286.31 523.00 L3311.15 603.05 L3335.99 623.98 L3360.83 910.99 L3385.67 638.02 L3410.51 585.23 L3435.35 706.33 L3460.19 932.32 L3485.03 572.68 L3509.87 338.72 L3534.71 673.66 L3559.55 1066.92 L3584.39 627.35 L3609.23 596.03 L3634.07 752.23 L3658.91 1111.47 L3683.75 687.16 L3708.59 652.47 L3733.43 609.40 L3758.27 1118.22 L3783.11 658.95 L3807.95 698.91 L3832.79 546.62 L3857.63 1130.78 L3882.47 718.48 L3907.31 703.77 L3932.15 460.90 L3956.99 1238.10 L3981.83 352.09 L4006.67 793.81 L4031.51 564.71 L4056.35 1662.15 L4081.19 900.73 L4106.02 2073.09 L4130.87 2131.14 L4155.71 2287.34" stroke-linejoin="round" style="fill:none;stroke:#0080FF;stroke-width:8.64"/>
	<path d=" M454.82 922.60 L479.66 922.60 L504.36 922.60 L529.20 922.60 L554.04 922.60 L578.88 922.60 L603.72 922.60 L628.56 922.60 L653.40 922.60 L678.24 922.60 L703.08 922.60 L727.92 922.60 L752.76 922.60 L777.60 922.60 L802.44 922.60 L827.28 922.60 L852.12 922.60 L876.96 922.60 L901.80 922.60 L926.64 922.60 L951.48 922.60 L976.32 922.60 L1001.16 922.60 L1026.00 922.60 L1050.84 922.60 L1075.68 922.60 L1100.52 922.60 L1125.36 922.60 L1150.20 922.60 L1175.04 922.60 L1199.88 922.60 L1224.72 922.60 L1249.56 922.60 L1274.40 922.60 L1299.24 922.60 L1324.08 922.60 L1348.92 922.60 L1373.76 922.60 L1398.60 922.60 L1423.44 922.60 L1448.28 922.60 L1473.12 922.60 L1497.96 922.60 L1522.80 922.60 L1547.64 922.60 L1572.48 922.60 L1597.32 922.60 L1622.16 922.60 L1647.00 922.60 L1671.84 922.60 L1696.68 922.60 L1721.52 922.60 L1746.36 922.60 L1771.20 922.60 L1796.04 922.60 L1820.88 922.60 L1845.72 922.60 L1870.56 922.60 L1895.40 922.60 L1920.24 922.60 L1945.08 922.60 L1969.92 922.60 L1994.76 922.60 L2019.60 922.60 L2044.44 922.60 L2069.28 922.60 L2094.12 922.60 L2118.96 922.60 L2143.80 922.60 L2168.64 922.60 L2193.48 922.60 L2218.32 922.60 L2243.16 922.60 L2268.00 922.60 L2292.84 922.60 L2317.68 922.60 L2342.52 922.60 L2367.36 922.60 L2392.20 922.60 L2417.04 922.60 L2441.88 922.60 L2466.72 922.60 L2491.56 922.60 L2516.40 922.60 L2541.24 922.60 L2566.08 922.60 L2590.92 922.60 L2615.76 922.60 L2640.60 922.60 L2665.44 922.60 L2690.28 922.60 L2715.12 922.60 L2739.96 922.60 L2764.80 922.60 L2789.64 922.60 L2814.48 922.60 L2839.32 922.60 L2864.16 922.60 L2889.00 922.60 L2913.84 922.60 L2938.68 922.60 L2963.52 922.60 L2988.23 922.60 L3013.07 922.60 L3037.91 922.60 L3062.75 922.60 L3087.59 922.60 L3112.43 922.60 L3137.27 922.60 L3162.11 922.60 L3186.95 922.60 L3211.79 922.60 L3236.63 922.60 L3261.47 922.60 L3286.31 922.60 L3311.15 922.60 L3335.99 922.60 L3360.83 922.60 L3385.67 922.60 L3410.51 922.60 L3435.35 922.60 L3460.19 922.60 L3485.03 922.60 L3509.87 922.60 L3534.71 922.60 L3559.55 922.60 L3584.39 922.60 L3609.23 922.60 L3634.07 922.60 L3658.91 922.60 L3683.75 922.60 L3708.59 922.60 L3733.43 922.60 L3758.27 922.60 L3783.11 922.60 L3807.95 922.60 L3832.79 922.60 L3857.63 922.60 L3882.47 922.60 L3907.31 922.60 L3932.15 922.60 L3956.99 922.60 L3981.83 922.60 L4006.67 922.60 L4031.51 922.60 L4056.35 922.60 L4081.19 922.60 L4106.02 922.60 L4130.87 922.60 L4155.71 922.60" stroke-linejoin="round" style="fill:none;stroke:#D41159;stroke-width:8.64"/>
	<line x1="366.66" y1="2459.20" x2="366.66" y2="275.40" style="stroke:#000000;stroke-width:5.76"/>
	<line x1="366.66" y1="2395.88" x2="326.57" y2="2395.88" style="stroke:#000000;stroke-width:5.76"/>
	<text x="306.58" y="2430.93" style="font-family:'Helvetica';font-size:100.04px;fill:#000000" text-anchor="end">0</text>
	<line x1="366.66" y1="1762.45" x2="326.57" y2="1762.45" style="stroke:#000000;stroke-width:5.76"/>
	<text x="306.58" y="1797.50" style="font-family:'Helvetica';font-size:100.04px;fill:#000000" text-anchor="end">5</text>
	<line x1="366.66" y1="1129.02" x2="326.57" y2="1129.02" style="stroke:#000000;stroke-width:5.76"/>
	<text x="306.58" y="1164.07" style="font-family:'Helvetica';font-size:100.04px;fill:#000000" text-anchor="end">10</text>
	<line x1="366.66" y1="495.59" x2="326.57" y2="495.59" style="stroke:#000000;stroke-width:5.76"/>
	<text x="306.58" y="530.64" style="font-family:'Helvetica';font-size:100.04px;fill:#000000" text-anchor="end">15</text>
	<line x1="366.66" y1="2459.20" x2="4219.16" y2="2459.20" style="stroke:#000000;stroke-width:5.76"/>
	<line x1="429.98" y1="2459.20" x2="429.98" y2="2499.16" style="stroke:#000000;stroke-width:5.76"/>
	<text x="429.98" y="2589.10" style="font-family:'Helvetica';font-size:100.04px;fill:#000000" text-anchor="middle">0</text>
	<line x1="1671.98" y1="2459.20" x2="1671.98" y2="2499.16" style="stroke:#000000;stroke-width:5.76"/>
	<text x="1671.98" y="2589.10" style="font-family:'Helvetica';font-size:100.04px;fill:#000000" text-anchor="middle">50</text>
	<line x1="2913.84" y1="2459.20" x2="2913.84" y2="2499.16" style="stroke:#000000;stroke-width:5.76"/>
	<text x="2913.84" y="2589.10" style="font-family:'Helvetica';font-size:100.04px;fill:#000000" text-anchor="middle">100</text>
	<line x1="4155.84" y1="2459.20" x2="4155.84" y2="2499.16" style="stroke:#000000;stroke-width:5.76"/>
	<text x="4155.84" y="2589.10" style="font-family:'Helvetica';font-size:100.04px;fill:#000000" text-anchor="middle">150</text>
	<text x="2292.84" y="2729.09" style="font-family:'Helvetica';font-size:100.04px;fill:#000000" text-anchor="middle">Número de periodos</text>
	<text x="2292.84" y="216.06" style="font-family:'Helvetica';font-size:140.00px;fill:#000000" text-anchor="middle">Tramo 1 de la Serie de Tiempo E</text>
</svg>
