<?xml version="1.0" encoding="UTF-8" standalone="no"?>
<!-- This is a Stata 18.0 generated SVG file (http://www.stata.com) -->

<svg version="1.1" width="6.000in" height="4.000in" viewBox="0 0 4320 2880" xmlns="http://www.w3.org/2000/svg" xmlns:xlink="http://www.w3.org/1999/xlink">
	<desc>Stata Graph - Graph</desc>
	<rect x="0" y="0" width="4320" height="2880" style="fill:#FFFFFF;stroke:none"/>
	<rect x="0.00" y="0.00" width="4320.00" height="2880.00" style="fill:#FFFFFF"/>
	<rect x="2.88" y="2.88" width="4314.24" height="2874.24" style="fill:none;stroke:#FFFFFF;stroke-width:5.76"/>
	<rect x="489.11" y="275.40" width="3730.05" height="2183.79" style="fill:#FFFFFF"/>
	<rect x="491.98" y="278.28" width="3724.29" height="2178.03" style="fill:none;stroke:#000000;stroke-width:5.76"/>
	<line x1="489.11" y1="1606.26" x2="546.75" y2="1606.26" style="stroke:#F0F0F0;stroke-width:8.64"/>
	<line x1="575.51" y1="1606.26" x2="633.15" y2="1606.26" style="stroke:#F0F0F0;stroke-width:8.64"/>
	<line x1="661.91" y1="1606.26" x2="719.55" y2="1606.26" style="stroke:#F0F0F0;stroke-width:8.64"/>
	<line x1="748.31" y1="1606.26" x2="805.95" y2="1606.26" style="stroke:#F0F0F0;stroke-width:8.64"/>
	<line x1="834.71" y1="1606.26" x2="892.35" y2="1606.26" style="stroke:#F0F0F0;stroke-width:8.64"/>
	<line x1="921.11" y1="1606.26" x2="978.75" y2="1606.26" style="stroke:#F0F0F0;stroke-width:8.64"/>
	<line x1="1007.51" y1="1606.26" x2="1065.15" y2="1606.26" style="stroke:#F0F0F0;stroke-width:8.64"/>
	<line x1="1093.91" y1="1606.26" x2="1151.55" y2="1606.26" style="stroke:#F0F0F0;stroke-width:8.64"/>
	<line x1="1180.31" y1="1606.26" x2="1237.95" y2="1606.26" style="stroke:#F0F0F0;stroke-width:8.64"/>
	<line x1="1266.71" y1="1606.26" x2="1324.35" y2="1606.26" style="stroke:#F0F0F0;stroke-width:8.64"/>
	<line x1="1353.11" y1="1606.26" x2="1410.75" y2="1606.26" style="stroke:#F0F0F0;stroke-width:8.64"/>
	<line x1="1439.51" y1="1606.26" x2="1497.15" y2="1606.26" style="stroke:#F0F0F0;stroke-width:8.64"/>
	<line x1="1525.91" y1="1606.26" x2="1583.55" y2="1606.26" style="stroke:#F0F0F0;stroke-width:8.64"/>
	<line x1="1612.31" y1="1606.26" x2="1669.95" y2="1606.26" style="stroke:#F0F0F0;stroke-width:8.64"/>
	<line x1="1698.71" y1="1606.26" x2="1756.35" y2="1606.26" style="stroke:#F0F0F0;stroke-width:8.64"/>
	<line x1="1785.11" y1="1606.26" x2="1842.75" y2="1606.26" style="stroke:#F0F0F0;stroke-width:8.64"/>
	<line x1="1871.51" y1="1606.26" x2="1929.15" y2="1606.26" style="stroke:#F0F0F0;stroke-width:8.64"/>
	<line x1="1957.91" y1="1606.26" x2="2015.55" y2="1606.26" style="stroke:#F0F0F0;stroke-width:8.64"/>
	<line x1="2044.31" y1="1606.26" x2="2101.95" y2="1606.26" style="stroke:#F0F0F0;stroke-width:8.64"/>
	<line x1="2130.71" y1="1606.26" x2="2188.35" y2="1606.26" style="stroke:#F0F0F0;stroke-width:8.64"/>
	<line x1="2217.11" y1="1606.26" x2="2274.75" y2="1606.26" style="stroke:#F0F0F0;stroke-width:8.64"/>
	<line x1="2303.51" y1="1606.26" x2="2361.15" y2="1606.26" style="stroke:#F0F0F0;stroke-width:8.64"/>
	<line x1="2389.91" y1="1606.26" x2="2447.55" y2="1606.26" style="stroke:#F0F0F0;stroke-width:8.64"/>
	<line x1="2476.30" y1="1606.26" x2="2533.95" y2="1606.26" style="stroke:#F0F0F0;stroke-width:8.64"/>
	<line x1="2562.71" y1="1606.26" x2="2620.35" y2="1606.26" style="stroke:#F0F0F0;stroke-width:8.64"/>
	<line x1="2649.11" y1="1606.26" x2="2706.75" y2="1606.26" style="stroke:#F0F0F0;stroke-width:8.64"/>
	<line x1="2735.51" y1="1606.26" x2="2793.15" y2="1606.26" style="stroke:#F0F0F0;stroke-width:8.64"/>
	<line x1="2821.91" y1="1606.26" x2="2879.55" y2="1606.26" style="stroke:#F0F0F0;stroke-width:8.64"/>
	<line x1="2908.31" y1="1606.26" x2="2965.95" y2="1606.26" style="stroke:#F0F0F0;stroke-width:8.64"/>
	<line x1="2994.71" y1="1606.26" x2="3052.35" y2="1606.26" style="stroke:#F0F0F0;stroke-width:8.64"/>
	<line x1="3081.11" y1="1606.26" x2="3138.75" y2="1606.26" style="stroke:#F0F0F0;stroke-width:8.64"/>
	<line x1="3167.51" y1="1606.26" x2="3225.15" y2="1606.26" style="stroke:#F0F0F0;stroke-width:8.64"/>
	<line x1="3253.91" y1="1606.26" x2="3311.55" y2="1606.26" style="stroke:#F0F0F0;stroke-width:8.64"/>
	<line x1="3340.31" y1="1606.26" x2="3397.95" y2="1606.26" style="stroke:#F0F0F0;stroke-width:8.64"/>
	<line x1="3426.71" y1="1606.26" x2="3484.35" y2="1606.26" style="stroke:#F0F0F0;stroke-width:8.64"/>
	<line x1="3513.11" y1="1606.26" x2="3570.75" y2="1606.26" style="stroke:#F0F0F0;stroke-width:8.64"/>
	<line x1="3599.51" y1="1606.26" x2="3657.15" y2="1606.26" style="stroke:#F0F0F0;stroke-width:8.64"/>
	<line x1="3685.91" y1="1606.26" x2="3743.55" y2="1606.26" style="stroke:#F0F0F0;stroke-width:8.64"/>
	<line x1="3772.31" y1="1606.26" x2="3829.95" y2="1606.26" style="stroke:#F0F0F0;stroke-width:8.64"/>
	<line x1="3858.71" y1="1606.26" x2="3916.35" y2="1606.26" style="stroke:#F0F0F0;stroke-width:8.64"/>
	<line x1="3945.11" y1="1606.26" x2="4002.75" y2="1606.26" style="stroke:#F0F0F0;stroke-width:8.64"/>
	<line x1="4031.51" y1="1606.26" x2="4089.15" y2="1606.26" style="stroke:#F0F0F0;stroke-width:8.64"/>
	<line x1="4117.91" y1="1606.26" x2="4175.55" y2="1606.26" style="stroke:#F0F0F0;stroke-width:8.64"/>
	<line x1="4204.31" y1="1606.26" x2="4219.16" y2="1606.26" style="stroke:#F0F0F0;stroke-width:8.64"/>
	<defs>
		<path id="path_HrZlmWyF" d="M672.57 1922.16 L672.57 1922.16 L792.72 1922.16 L912.87 1922.16 L1032.89 1922.16 L1153.04 1922.16 L1273.19 1922.16 L1393.20 1922.16 L1513.35 1922.16 L1633.50 1922.16 L1753.52 1922.16 L1873.67 1922.16 L1993.82 1922.16 L2113.97 1922.16 L2233.98 1922.16 L2354.13 1922.16 L2474.28 1922.16 L2594.30 1922.16 L2714.45 1922.16 L2834.60 1922.16 L2954.61 1922.16 L3074.76 1922.16 L3194.91 1922.16 L3315.06 1922.16 L3435.08 1922.16 L3555.23 1922.16 L3675.38 1922.16 L3795.39 1922.16 L3915.54 1922.16 L4035.69 1922.16 L4155.84 1922.16 L4155.84 1290.49 L4035.69 1290.49 L3915.54 1290.49 L3795.39 1290.49 L3675.38 1290.49 L3555.23 1290.49 L3435.08 1290.49 L3315.06 1290.49 L3194.91 1290.49 L3074.76 1290.49 L2954.61 1290.49 L2834.60 1290.49 L2714.45 1290.49 L2594.30 1290.49 L2474.28 1290.49 L2354.13 1290.49 L2233.98 1290.49 L2113.97 1290.49 L1993.82 1290.49 L1873.67 1290.49 L1753.52 1290.49 L1633.50 1290.49 L1513.35 1290.49 L1393.20 1290.49 L1273.19 1290.49 L1153.04 1290.49 L1032.89 1290.49 L912.87 1290.49 L792.72 1290.49 L672.57 1290.49 L672.57 1922.16 Z" stroke-linejoin="round"/>
	</defs>
	<defs>
		<clipPath id="clipPath_acaRXDhA">
			<use xlink:href="#path_HrZlmWyF"/>
		</clipPath>
	</defs>
	<use xlink:href="#path_HrZlmWyF" style="stroke:none;fill:#E0E0E0"/>
	<use xlink:href="#path_HrZlmWyF" style="fill:none;stroke:#E0E0E0;stroke-width:17.28" clip-path="url(#clipPath_acaRXDhA)"/>
	<line x1="672.57" y1="1606.26" x2="672.57" y2="338.72" style="stroke:#FF0000;stroke-width:8.64"/>
	<line x1="792.72" y1="1606.26" x2="792.72" y2="517.33" style="stroke:#FF0000;stroke-width:8.64"/>
	<line x1="912.87" y1="1606.26" x2="912.87" y2="1764.34" style="stroke:#FF0000;stroke-width:8.64"/>
	<line x1="1032.89" y1="1606.26" x2="1032.89" y2="1037.76" style="stroke:#FF0000;stroke-width:8.64"/>
	<line x1="1153.04" y1="1606.26" x2="1153.04" y2="2183.93" style="stroke:#FF0000;stroke-width:8.64"/>
	<line x1="1273.19" y1="1606.26" x2="1273.19" y2="1985.48" style="stroke:#FF0000;stroke-width:8.64"/>
	<line x1="1393.20" y1="1606.26" x2="1393.20" y2="1956.45" style="stroke:#FF0000;stroke-width:8.64"/>
	<line x1="1513.35" y1="1606.26" x2="1513.35" y2="1485.70" style="stroke:#FF0000;stroke-width:8.64"/>
	<line x1="1633.50" y1="1606.26" x2="1633.50" y2="1397.41" style="stroke:#FF0000;stroke-width:8.64"/>
	<line x1="1753.52" y1="1606.26" x2="1753.52" y2="1570.21" style="stroke:#FF0000;stroke-width:8.64"/>
	<line x1="1873.67" y1="1606.26" x2="1873.67" y2="1915.68" style="stroke:#FF0000;stroke-width:8.64"/>
	<line x1="1993.82" y1="1606.26" x2="1993.82" y2="1717.63" style="stroke:#FF0000;stroke-width:8.64"/>
	<line x1="2113.97" y1="1606.26" x2="2113.97" y2="1320.19" style="stroke:#FF0000;stroke-width:8.64"/>
	<line x1="2233.98" y1="1606.26" x2="2233.98" y2="1592.08" style="stroke:#FF0000;stroke-width:8.64"/>
	<line x1="2354.13" y1="1606.26" x2="2354.13" y2="2088.48" style="stroke:#FF0000;stroke-width:8.64"/>
	<line x1="2474.28" y1="1606.26" x2="2474.28" y2="1987.10" style="stroke:#FF0000;stroke-width:8.64"/>
	<line x1="2594.30" y1="1606.26" x2="2594.30" y2="1128.89" style="stroke:#FF0000;stroke-width:8.64"/>
	<line x1="2714.45" y1="1606.26" x2="2714.45" y2="1543.48" style="stroke:#FF0000;stroke-width:8.64"/>
	<line x1="2834.60" y1="1606.26" x2="2834.60" y2="1567.10" style="stroke:#FF0000;stroke-width:8.64"/>
	<line x1="2954.61" y1="1606.26" x2="2954.61" y2="1713.99" style="stroke:#FF0000;stroke-width:8.64"/>
	<line x1="3074.76" y1="1606.26" x2="3074.76" y2="1717.90" style="stroke:#FF0000;stroke-width:8.64"/>
	<line x1="3194.91" y1="1606.26" x2="3194.91" y2="1649.46" style="stroke:#FF0000;stroke-width:8.64"/>
	<line x1="3315.06" y1="1606.26" x2="3315.06" y2="1665.12" style="stroke:#FF0000;stroke-width:8.64"/>
	<line x1="3435.08" y1="1606.26" x2="3435.08" y2="1697.52" style="stroke:#FF0000;stroke-width:8.64"/>
	<line x1="3555.23" y1="1606.26" x2="3555.23" y2="1697.79" style="stroke:#FF0000;stroke-width:8.64"/>
	<line x1="3675.38" y1="1606.26" x2="3675.38" y2="1599.64" style="stroke:#FF0000;stroke-width:8.64"/>
	<line x1="3795.39" y1="1606.26" x2="3795.39" y2="1812.94" style="stroke:#FF0000;stroke-width:8.64"/>
	<line x1="3915.54" y1="1606.26" x2="3915.54" y2="1620.84" style="stroke:#FF0000;stroke-width:8.64"/>
	<line x1="4035.69" y1="1606.26" x2="4035.69" y2="1739.37" style="stroke:#FF0000;stroke-width:8.64"/>
	<line x1="4155.84" y1="1606.26" x2="4155.84" y2="1230.54" style="stroke:#FF0000;stroke-width:8.64"/>
	<circle cx="672.57" cy="338.72" r="19.30" style="fill:#FF0000"/>
	<circle cx="672.57" cy="338.72" r="14.99" style="fill:none;stroke:#FF0000;stroke-width:8.64"/>
	<circle cx="792.59" cy="517.46" r="19.30" style="fill:#FF0000"/>
	<circle cx="792.59" cy="517.46" r="14.99" style="fill:none;stroke:#FF0000;stroke-width:8.64"/>
	<circle cx="912.74" cy="1764.34" r="19.30" style="fill:#FF0000"/>
	<circle cx="912.74" cy="1764.34" r="14.99" style="fill:none;stroke:#FF0000;stroke-width:8.64"/>
	<circle cx="1032.89" cy="1037.76" r="19.30" style="fill:#FF0000"/>
	<circle cx="1032.89" cy="1037.76" r="14.99" style="fill:none;stroke:#FF0000;stroke-width:8.64"/>
	<circle cx="1152.90" cy="2183.93" r="19.30" style="fill:#FF0000"/>
	<circle cx="1152.90" cy="2183.93" r="14.99" style="fill:none;stroke:#FF0000;stroke-width:8.64"/>
	<circle cx="1273.05" cy="1985.48" r="19.30" style="fill:#FF0000"/>
	<circle cx="1273.05" cy="1985.48" r="14.99" style="fill:none;stroke:#FF0000;stroke-width:8.64"/>
	<circle cx="1393.20" cy="1956.45" r="19.30" style="fill:#FF0000"/>
	<circle cx="1393.20" cy="1956.45" r="14.99" style="fill:none;stroke:#FF0000;stroke-width:8.64"/>
	<circle cx="1513.35" cy="1485.83" r="19.30" style="fill:#FF0000"/>
	<circle cx="1513.35" cy="1485.83" r="14.99" style="fill:none;stroke:#FF0000;stroke-width:8.64"/>
	<circle cx="1633.37" cy="1397.54" r="19.30" style="fill:#FF0000"/>
	<circle cx="1633.37" cy="1397.54" r="14.99" style="fill:none;stroke:#FF0000;stroke-width:8.64"/>
	<circle cx="1753.52" cy="1570.34" r="19.30" style="fill:#FF0000"/>
	<circle cx="1753.52" cy="1570.34" r="14.99" style="fill:none;stroke:#FF0000;stroke-width:8.64"/>
	<circle cx="1873.67" cy="1915.81" r="19.30" style="fill:#FF0000"/>
	<circle cx="1873.67" cy="1915.81" r="14.99" style="fill:none;stroke:#FF0000;stroke-width:8.64"/>
	<circle cx="1993.68" cy="1717.63" r="19.30" style="fill:#FF0000"/>
	<circle cx="1993.68" cy="1717.63" r="14.99" style="fill:none;stroke:#FF0000;stroke-width:8.64"/>
	<circle cx="2113.83" cy="1320.32" r="19.30" style="fill:#FF0000"/>
	<circle cx="2113.83" cy="1320.32" r="14.99" style="fill:none;stroke:#FF0000;stroke-width:8.64"/>
	<circle cx="2233.98" cy="1592.08" r="19.30" style="fill:#FF0000"/>
	<circle cx="2233.98" cy="1592.08" r="14.99" style="fill:none;stroke:#FF0000;stroke-width:8.64"/>
	<circle cx="2354.00" cy="2088.62" r="19.30" style="fill:#FF0000"/>
	<circle cx="2354.00" cy="2088.62" r="14.99" style="fill:none;stroke:#FF0000;stroke-width:8.64"/>
	<circle cx="2474.15" cy="1987.23" r="19.30" style="fill:#FF0000"/>
	<circle cx="2474.15" cy="1987.23" r="14.99" style="fill:none;stroke:#FF0000;stroke-width:8.64"/>
	<circle cx="2594.30" cy="1129.02" r="19.30" style="fill:#FF0000"/>
	<circle cx="2594.30" cy="1129.02" r="14.99" style="fill:none;stroke:#FF0000;stroke-width:8.64"/>
	<circle cx="2714.45" cy="1543.48" r="19.30" style="fill:#FF0000"/>
	<circle cx="2714.45" cy="1543.48" r="14.99" style="fill:none;stroke:#FF0000;stroke-width:8.64"/>
	<circle cx="2834.46" cy="1567.10" r="19.30" style="fill:#FF0000"/>
	<circle cx="2834.46" cy="1567.10" r="14.99" style="fill:none;stroke:#FF0000;stroke-width:8.64"/>
	<circle cx="2954.61" cy="1714.12" r="19.30" style="fill:#FF0000"/>
	<circle cx="2954.61" cy="1714.12" r="14.99" style="fill:none;stroke:#FF0000;stroke-width:8.64"/>
	<circle cx="3074.76" cy="1718.04" r="19.30" style="fill:#FF0000"/>
	<circle cx="3074.76" cy="1718.04" r="14.99" style="fill:none;stroke:#FF0000;stroke-width:8.64"/>
	<circle cx="3194.78" cy="1649.46" r="19.30" style="fill:#FF0000"/>
	<circle cx="3194.78" cy="1649.46" r="14.99" style="fill:none;stroke:#FF0000;stroke-width:8.64"/>
	<circle cx="3314.93" cy="1665.12" r="19.30" style="fill:#FF0000"/>
	<circle cx="3314.93" cy="1665.12" r="14.99" style="fill:none;stroke:#FF0000;stroke-width:8.64"/>
	<circle cx="3435.08" cy="1697.52" r="19.30" style="fill:#FF0000"/>
	<circle cx="3435.08" cy="1697.52" r="14.99" style="fill:none;stroke:#FF0000;stroke-width:8.64"/>
	<circle cx="3555.09" cy="1697.92" r="19.30" style="fill:#FF0000"/>
	<circle cx="3555.09" cy="1697.92" r="14.99" style="fill:none;stroke:#FF0000;stroke-width:8.64"/>
	<circle cx="3675.24" cy="1599.64" r="19.30" style="fill:#FF0000"/>
	<circle cx="3675.24" cy="1599.64" r="14.99" style="fill:none;stroke:#FF0000;stroke-width:8.64"/>
	<circle cx="3795.39" cy="1812.94" r="19.30" style="fill:#FF0000"/>
	<circle cx="3795.39" cy="1812.94" r="14.99" style="fill:none;stroke:#FF0000;stroke-width:8.64"/>
	<circle cx="3915.54" cy="1620.97" r="19.30" style="fill:#FF0000"/>
	<circle cx="3915.54" cy="1620.97" r="14.99" style="fill:none;stroke:#FF0000;stroke-width:8.64"/>
	<circle cx="4035.56" cy="1739.50" r="19.30" style="fill:#FF0000"/>
	<circle cx="4035.56" cy="1739.50" r="14.99" style="fill:none;stroke:#FF0000;stroke-width:8.64"/>
	<circle cx="4155.71" cy="1230.68" r="19.30" style="fill:#FF0000"/>
	<circle cx="4155.71" cy="1230.68" r="14.99" style="fill:none;stroke:#FF0000;stroke-width:8.64"/>
	<line x1="489.11" y1="2459.20" x2="489.11" y2="275.40" style="stroke:#000000;stroke-width:5.76"/>
	<line x1="489.11" y1="2395.88" x2="449.15" y2="2395.88" style="stroke:#000000;stroke-width:5.76"/>
	<text x="429.17" y="2430.93" style="font-family:'Helvetica';font-size:100.04px;fill:#000000" text-anchor="end">-0.40</text>
	<line x1="489.11" y1="2001.14" x2="449.15" y2="2001.14" style="stroke:#000000;stroke-width:5.76"/>
	<text x="429.17" y="2036.18" style="font-family:'Helvetica';font-size:100.04px;fill:#000000" text-anchor="end">-0.20</text>
	<line x1="489.11" y1="1606.26" x2="449.15" y2="1606.26" style="stroke:#000000;stroke-width:5.76"/>
	<text x="429.17" y="1641.30" style="font-family:'Helvetica';font-size:100.04px;fill:#000000" text-anchor="end">0.00</text>
	<line x1="489.11" y1="1211.51" x2="449.15" y2="1211.51" style="stroke:#000000;stroke-width:5.76"/>
	<text x="429.17" y="1246.56" style="font-family:'Helvetica';font-size:100.04px;fill:#000000" text-anchor="end">0.20</text>
	<line x1="489.11" y1="816.76" x2="449.15" y2="816.76" style="stroke:#000000;stroke-width:5.76"/>
	<text x="429.17" y="851.81" style="font-family:'Helvetica';font-size:100.04px;fill:#000000" text-anchor="end">0.40</text>
	<line x1="489.11" y1="422.02" x2="449.15" y2="422.02" style="stroke:#000000;stroke-width:5.76"/>
	<text x="429.17" y="457.06" style="font-family:'Helvetica';font-size:100.04px;fill:#000000" text-anchor="end">0.60</text>
	<line x1="489.11" y1="2459.20" x2="4219.16" y2="2459.20" style="stroke:#000000;stroke-width:5.76"/>
	<line x1="552.42" y1="2459.20" x2="552.42" y2="2499.16" style="stroke:#000000;stroke-width:5.76"/>
	<text x="552.42" y="2589.10" style="font-family:'Helvetica';font-size:100.04px;fill:#000000" text-anchor="middle">0</text>
	<line x1="1753.52" y1="2459.20" x2="1753.52" y2="2499.16" style="stroke:#000000;stroke-width:5.76"/>
	<text x="1753.52" y="2589.10" style="font-family:'Helvetica';font-size:100.04px;fill:#000000" text-anchor="middle">10</text>
	<line x1="2954.61" y1="2459.20" x2="2954.61" y2="2499.16" style="stroke:#000000;stroke-width:5.76"/>
	<text x="2954.61" y="2589.10" style="font-family:'Helvetica';font-size:100.04px;fill:#000000" text-anchor="middle">20</text>
	<line x1="4155.84" y1="2459.20" x2="4155.84" y2="2499.16" style="stroke:#000000;stroke-width:5.76"/>
	<text x="4155.84" y="2589.10" style="font-family:'Helvetica';font-size:100.04px;fill:#000000" text-anchor="middle">30</text>
	<text x="2354.13" y="2729.09" style="font-family:'Helvetica';font-size:100.04px;fill:#000000" text-anchor="middle">Rezago</text>
	<text x="2354.13" y="216.06" style="font-family:'Helvetica';font-size:140.00px;fill:#000000" text-anchor="middle">Autocorrelación parcial del tramo 2 de la serie E</text>
</svg>
