<?xml version="1.0" encoding="UTF-8" standalone="no"?>
<!-- This is a Stata 18.0 generated SVG file (http://www.stata.com) -->

<svg version="1.1" width="6.000in" height="4.000in" viewBox="0 0 4320 2880" xmlns="http://www.w3.org/2000/svg" xmlns:xlink="http://www.w3.org/1999/xlink">
	<desc>Stata Graph - Graph</desc>
	<rect x="0" y="0" width="4320" height="2880" style="fill:#FFFFFF;stroke:none"/>
	<rect x="0.00" y="0.00" width="4320.00" height="2880.00" style="fill:#FFFFFF"/>
	<rect x="2.88" y="2.88" width="4314.24" height="2874.24" style="fill:none;stroke:#FFFFFF;stroke-width:5.76"/>
	<rect x="401.63" y="275.40" width="3817.53" height="2183.79" style="fill:#FFFFFF"/>
	<rect x="404.50" y="278.28" width="3811.77" height="2178.03" style="fill:none;stroke:#000000;stroke-width:5.76"/>
	<path d=" M489.51 480.74 L514.08 854.43 L538.79 997.40 L563.36 747.10 L587.92 1071.78 L612.50 1095.68 L637.20 1398.62 L661.77 1203.81 L686.34 1355.69 L710.91 1275.77 L735.62 1747.74 L760.19 1635.01 L784.76 1821.72 L809.33 1581.28 L834.03 1659.58 L858.60 1758.94 L883.17 1810.51 L907.74 1292.24 L932.45 1549.15 L957.02 1494.20 L981.59 1388.63 L1006.29 1232.43 L1030.86 1619.49 L1055.43 1380.53 L1080.00 1784.46 L1104.71 1486.51 L1129.28 1843.72 L1153.85 1574.39 L1178.42 1983.72 L1203.12 2057.43 L1227.69 1633.66 L1252.26 1701.57 L1276.83 1724.79 L1301.54 1580.74 L1326.11 1574.80 L1350.68 1737.34 L1375.25 1946.46 L1399.95 1736.13 L1424.52 1766.91 L1449.09 1595.59 L1473.80 1510.27 L1498.37 1708.45 L1522.94 1559.41 L1547.51 1219.34 L1572.21 1063.01 L1596.78 1418.74 L1621.35 1184.91 L1645.92 773.02 L1670.63 799.89 L1695.20 952.71 L1719.77 1107.42 L1744.34 624.11 L1769.04 983.49 L1793.61 761.55 L1818.18 1213.40 L1842.75 1114.58 L1867.46 1297.37 L1892.03 1023.18 L1916.60 1619.35 L1941.17 1502.17 L1965.87 1557.92 L1990.44 1106.48 L2015.01 1265.91 L2039.72 1348.13 L2064.29 1366.63 L2088.86 1096.49 L2113.43 1122.14 L2138.13 1301.15 L2162.70 1462.21 L2187.27 1163.04 L2211.84 1135.37 L2236.55 1377.16 L2261.11 1559.54 L2285.69 1764.88 L2310.26 1247.42 L2334.96 1333.28 L2359.53 1365.41 L2384.10 1827.52 L2408.67 1456.81 L2433.38 1803.76 L2457.95 1623.54 L2482.52 1826.04 L2507.09 1637.71 L2531.79 1790.40 L2556.36 1728.16 L2580.93 1998.44 L2605.64 1790.80 L2630.21 1757.73 L2654.78 1920.27 L2679.35 1552.79 L2704.05 2045.42 L2728.62 1850.07 L2753.19 1552.93 L2777.76 1489.88 L2802.47 1595.72 L2827.04 1254.17 L2851.61 1541.99 L2876.18 1024.80 L2900.88 1433.86 L2925.45 1173.71 L2950.02 1164.39 L2974.59 817.84 L2999.30 1085.82 L3023.87 1089.06 L3048.44 1150.22 L3073.14 1126.32 L3097.71 1130.64 L3122.28 1192.88 L3146.85 1334.63 L3171.56 1263.21 L3196.13 1462.48 L3220.70 1484.21 L3245.27 1576.15 L3269.97 1785.54 L3294.54 1516.88 L3319.11 1762.05 L3343.68 1553.47 L3368.39 1815.51 L3392.96 1675.65 L3417.53 1550.09 L3442.10 1910.01 L3466.80 1997.90 L3491.37 1757.73 L3515.94 1991.96 L3540.51 2132.49 L3565.22 2141.40 L3589.79 1677.13 L3614.36 2051.63 L3639.06 1677.81 L3663.63 1971.17 L3688.20 1556.30 L3712.77 2025.57 L3737.48 1830.90 L3762.05 2213.49 L3786.62 2000.73 L3811.19 2184.47 L3835.89 1696.44 L3860.46 1963.88 L3885.03 1586.27 L3909.60 1795.26 L3934.31 1098.51 L3958.88 1696.71 L3983.45 1196.52 L4008.02 1579.66 L4032.72 1087.71 L4057.29 1703.05 L4081.86 1296.70 L4106.43 1738.69 L4131.14 1474.49 L4155.71 1819.96" stroke-linejoin="round" style="fill:none;stroke:#0080FF;stroke-width:8.64"/>
	<path d=" M489.51 1495.01 L514.08 1495.01 L538.79 1495.01 L563.36 1495.01 L587.92 1495.01 L612.50 1495.01 L637.20 1495.01 L661.77 1495.01 L686.34 1495.01 L710.91 1495.01 L735.62 1495.01 L760.19 1495.01 L784.76 1495.01 L809.33 1495.01 L834.03 1495.01 L858.60 1495.01 L883.17 1495.01 L907.74 1495.01 L932.45 1495.01 L957.02 1495.01 L981.59 1495.01 L1006.29 1495.01 L1030.86 1495.01 L1055.43 1495.01 L1080.00 1495.01 L1104.71 1495.01 L1129.28 1495.01 L1153.85 1495.01 L1178.42 1495.01 L1203.12 1495.01 L1227.69 1495.01 L1252.26 1495.01 L1276.83 1495.01 L1301.54 1495.01 L1326.11 1495.01 L1350.68 1495.01 L1375.25 1495.01 L1399.95 1495.01 L1424.52 1495.01 L1449.09 1495.01 L1473.80 1495.01 L1498.37 1495.01 L1522.94 1495.01 L1547.51 1495.01 L1572.21 1495.01 L1596.78 1495.01 L1621.35 1495.01 L1645.92 1495.01 L1670.63 1495.01 L1695.20 1495.01 L1719.77 1495.01 L1744.34 1495.01 L1769.04 1495.01 L1793.61 1495.01 L1818.18 1495.01 L1842.75 1495.01 L1867.46 1495.01 L1892.03 1495.01 L1916.60 1495.01 L1941.17 1495.01 L1965.87 1495.01 L1990.44 1495.01 L2015.01 1495.01 L2039.72 1495.01 L2064.29 1495.01 L2088.86 1495.01 L2113.43 1495.01 L2138.13 1495.01 L2162.70 1495.01 L2187.27 1495.01 L2211.84 1495.01 L2236.55 1495.01 L2261.11 1495.01 L2285.69 1495.01 L2310.26 1495.01 L2334.96 1495.01 L2359.53 1495.01 L2384.10 1495.01 L2408.67 1495.01 L2433.38 1495.01 L2457.95 1495.01 L2482.52 1495.01 L2507.09 1495.01 L2531.79 1495.01 L2556.36 1495.01 L2580.93 1495.01 L2605.64 1495.01 L2630.21 1495.01 L2654.78 1495.01 L2679.35 1495.01 L2704.05 1495.01 L2728.62 1495.01 L2753.19 1495.01 L2777.76 1495.01 L2802.47 1495.01 L2827.04 1495.01 L2851.61 1495.01 L2876.18 1495.01 L2900.88 1495.01 L2925.45 1495.01 L2950.02 1495.01 L2974.59 1495.01 L2999.30 1495.01 L3023.87 1495.01 L3048.44 1495.01 L3073.14 1495.01 L3097.71 1495.01 L3122.28 1495.01 L3146.85 1495.01 L3171.56 1495.01 L3196.13 1495.01 L3220.70 1495.01 L3245.27 1495.01 L3269.97 1495.01 L3294.54 1495.01 L3319.11 1495.01 L3343.68 1495.01 L3368.39 1495.01 L3392.96 1495.01 L3417.53 1495.01 L3442.10 1495.01 L3466.80 1495.01 L3491.37 1495.01 L3515.94 1495.01 L3540.51 1495.01 L3565.22 1495.01 L3589.79 1495.01 L3614.36 1495.01 L3639.06 1495.01 L3663.63 1495.01 L3688.20 1495.01 L3712.77 1495.01 L3737.48 1495.01 L3762.05 1495.01 L3786.62 1495.01 L3811.19 1495.01 L3835.89 1495.01 L3860.46 1495.01 L3885.03 1495.01 L3909.60 1495.01 L3934.31 1495.01 L3958.88 1495.01 L3983.45 1495.01 L4008.02 1495.01 L4032.72 1495.01 L4057.29 1495.01 L4081.86 1495.01 L4106.43 1495.01 L4131.14 1495.01 L4155.71 1495.01" stroke-linejoin="round" style="fill:none;stroke:#D41159;stroke-width:8.64"/>
	<line x1="401.63" y1="2459.20" x2="401.63" y2="275.40" style="stroke:#000000;stroke-width:5.76"/>
	<line x1="401.63" y1="2395.88" x2="361.67" y2="2395.88" style="stroke:#000000;stroke-width:5.76"/>
	<text x="341.69" y="2430.93" style="font-family:'Helvetica';font-size:100.04px;fill:#000000" text-anchor="end">-20</text>
	<line x1="401.63" y1="1881.52" x2="361.67" y2="1881.52" style="stroke:#000000;stroke-width:5.76"/>
	<text x="341.69" y="1916.57" style="font-family:'Helvetica';font-size:100.04px;fill:#000000" text-anchor="end">-15</text>
	<line x1="401.63" y1="1367.30" x2="361.67" y2="1367.30" style="stroke:#000000;stroke-width:5.76"/>
	<text x="341.69" y="1402.35" style="font-family:'Helvetica';font-size:100.04px;fill:#000000" text-anchor="end">-10</text>
	<line x1="401.63" y1="852.94" x2="361.67" y2="852.94" style="stroke:#000000;stroke-width:5.76"/>
	<text x="341.69" y="887.99" style="font-family:'Helvetica';font-size:100.04px;fill:#000000" text-anchor="end">-5</text>
	<line x1="401.63" y1="338.72" x2="361.67" y2="338.72" style="stroke:#000000;stroke-width:5.76"/>
	<text x="341.69" y="373.77" style="font-family:'Helvetica';font-size:100.04px;fill:#000000" text-anchor="end">0</text>
	<line x1="401.63" y1="2459.20" x2="4219.16" y2="2459.20" style="stroke:#000000;stroke-width:5.76"/>
	<line x1="464.94" y1="2459.20" x2="464.94" y2="2499.16" style="stroke:#000000;stroke-width:5.76"/>
	<text x="464.94" y="2589.10" style="font-family:'Helvetica';font-size:100.04px;fill:#000000" text-anchor="middle">150</text>
	<line x1="1695.20" y1="2459.20" x2="1695.20" y2="2499.16" style="stroke:#000000;stroke-width:5.76"/>
	<text x="1695.20" y="2589.10" style="font-family:'Helvetica';font-size:100.04px;fill:#000000" text-anchor="middle">200</text>
	<line x1="2925.45" y1="2459.20" x2="2925.45" y2="2499.16" style="stroke:#000000;stroke-width:5.76"/>
	<text x="2925.45" y="2589.10" style="font-family:'Helvetica';font-size:100.04px;fill:#000000" text-anchor="middle">250</text>
	<line x1="4155.84" y1="2459.20" x2="4155.84" y2="2499.16" style="stroke:#000000;stroke-width:5.76"/>
	<text x="4155.84" y="2589.10" style="font-family:'Helvetica';font-size:100.04px;fill:#000000" text-anchor="middle">300</text>
	<text x="2310.39" y="2729.09" style="font-family:'Helvetica';font-size:100.04px;fill:#000000" text-anchor="middle">Número de periodos</text>
	<text x="2310.39" y="216.06" style="font-family:'Helvetica';font-size:140.00px;fill:#000000" text-anchor="middle">Tramo 2 de la Serie de Tiempo E</text>
</svg>
