<?xml version="1.0" encoding="UTF-8" standalone="no"?>
<!-- This is a Stata 18.0 generated SVG file (http://www.stata.com) -->

<svg version="1.1" width="6.000in" height="4.000in" viewBox="0 0 4320 2880" xmlns="http://www.w3.org/2000/svg" xmlns:xlink="http://www.w3.org/1999/xlink">
	<desc>Stata Graph - Graph</desc>
	<rect x="0" y="0" width="4320" height="2880" style="fill:#FFFFFF;stroke:none"/>
	<rect x="0.00" y="0.00" width="4320.00" height="2880.00" style="fill:#FFFFFF"/>
	<rect x="2.88" y="2.88" width="4314.24" height="2874.24" style="fill:none;stroke:#FFFFFF;stroke-width:5.76"/>
	<rect x="395.82" y="275.40" width="3823.33" height="2183.79" style="fill:#FFFFFF"/>
	<rect x="398.70" y="278.28" width="3817.58" height="2178.03" style="fill:none;stroke:#000000;stroke-width:5.76"/>
	<path d=" M459.14 2169.21 L471.42 2168.00 L483.71 2167.59 L495.99 2162.60 L508.41 2153.15 L520.70 2175.83 L532.98 2140.05 L545.27 2127.50 L557.68 2127.90 L569.97 2119.53 L582.26 2107.11 L594.67 2097.53 L606.96 2109.00 L619.25 2092.67 L631.53 2079.71 L643.95 2085.92 L656.24 2074.58 L668.52 2061.21 L680.94 2082.81 L693.23 2073.77 L705.51 2079.71 L717.80 2069.04 L730.22 2059.19 L742.50 2069.45 L754.79 2041.37 L767.07 2053.79 L779.49 2051.49 L791.78 2026.65 L804.06 2041.77 L816.48 2027.87 L828.77 2020.58 L841.05 2011.67 L853.34 1997.22 L865.76 1988.58 L878.04 1979.54 L890.33 1972.38 L902.61 1955.64 L915.03 1945.92 L927.32 1951.86 L939.60 1936.07 L952.02 1931.21 L964.31 1920.95 L976.59 1916.22 L988.88 1920.95 L1001.30 1910.41 L1013.58 1905.28 L1025.87 1906.36 L1038.15 1902.45 L1050.57 1877.61 L1062.86 1865.19 L1075.14 1842.78 L1087.56 1830.90 L1099.85 1822.26 L1112.13 1815.24 L1124.42 1776.36 L1136.84 1770.69 L1149.12 1761.78 L1161.41 1739.64 L1173.83 1736.26 L1186.11 1733.29 L1198.40 1736.94 L1210.68 1742.34 L1223.10 1722.90 L1235.39 1700.49 L1247.67 1710.34 L1259.96 1689.69 L1272.38 1676.32 L1284.66 1630.56 L1296.95 1645.81 L1309.37 1653.51 L1321.65 1621.38 L1333.94 1604.10 L1346.22 1620.43 L1358.64 1597.21 L1370.93 1605.85 L1383.21 1583.71 L1395.50 1558.46 L1407.92 1554.28 L1420.20 1552.66 L1432.49 1541.72 L1444.91 1518.77 L1457.19 1496.90 L1469.48 1500.28 L1481.76 1485.43 L1494.18 1491.37 L1506.47 1486.24 L1518.75 1442.36 L1531.04 1453.16 L1543.46 1451.41 L1555.74 1452.49 L1568.03 1476.25 L1580.45 1446.41 L1592.73 1417.66 L1605.02 1427.38 L1617.30 1411.04 L1629.72 1387.01 L1642.01 1381.34 L1654.29 1357.04 L1666.58 1358.12 L1679.00 1367.84 L1691.28 1369.06 L1703.57 1353.40 L1715.99 1348.67 L1728.27 1411.99 L1740.56 1380.80 L1752.84 1377.70 L1765.26 1419.68 L1777.55 1393.49 L1789.83 1405.10 L1802.25 1408.21 L1814.54 1407.67 L1826.82 1415.09 L1839.11 1421.71 L1851.53 1420.22 L1863.81 1409.69 L1876.10 1395.79 L1888.38 1377.97 L1900.80 1375.67 L1913.09 1374.32 L1925.37 1357.85 L1937.79 1350.43 L1950.08 1328.69 L1962.36 1409.96 L1974.65 1293.59 L1987.07 1304.39 L1999.35 1284.14 L2011.64 1252.55 L2023.92 1247.28 L2036.34 1239.18 L2048.63 1237.02 L2060.91 1208.67 L2073.33 1220.28 L2085.61 1205.30 L2097.90 1205.84 L2110.19 1183.56 L2122.61 1168.04 L2134.89 1168.98 L2147.18 1169.52 L2159.46 1166.01 L2171.88 1153.05 L2184.17 1147.79 L2196.45 1129.29 L2208.87 1122.41 L2221.16 1082.58 L2233.44 1086.23 L2245.73 1070.30 L2258.15 1052.48 L2270.43 1035.74 L2282.72 1034.39 L2295.14 1025.07 L2307.42 1014.54 L2319.71 1011.17 L2331.99 1022.10 L2344.41 1013.06 L2356.70 1000.50 L2368.98 997.40 L2381.27 981.60 L2393.69 997.13 L2405.97 982.55 L2418.26 978.63 L2430.68 973.50 L2442.96 957.16 L2455.25 954.06 L2467.53 953.38 L2479.95 960.68 L2492.24 949.20 L2504.52 942.58 L2516.80 958.78 L2529.23 955.81 L2541.51 938.80 L2553.80 938.13 L2566.22 925.44 L2578.50 923.28 L2590.79 934.21 L2603.07 941.23 L2615.49 932.46 L2627.78 934.75 L2640.06 912.48 L2652.35 922.60 L2664.77 907.48 L2677.05 893.58 L2689.34 900.87 L2701.76 908.83 L2714.04 880.89 L2726.33 886.15 L2738.61 879.00 L2751.03 886.02 L2763.32 904.38 L2775.60 875.62 L2788.02 874.54 L2800.31 879.54 L2812.59 872.79 L2824.88 854.02 L2837.30 844.71 L2849.58 857.26 L2861.87 865.77 L2874.15 863.74 L2886.57 855.24 L2898.86 850.51 L2911.14 851.19 L2923.56 841.47 L2935.85 857.53 L2948.13 850.24 L2960.42 846.19 L2972.84 853.08 L2985.12 867.25 L2997.41 873.06 L3009.69 849.84 L3022.11 835.53 L3034.40 826.75 L3046.68 808.12 L3059.10 799.08 L3071.39 786.66 L3083.67 791.92 L3095.96 779.23 L3108.38 781.39 L3120.66 769.65 L3132.95 770.19 L3145.23 753.85 L3157.65 740.62 L3169.94 729.69 L3182.22 734.01 L3194.64 737.11 L3206.93 747.78 L3219.21 741.16 L3231.50 719.56 L3243.92 703.50 L3256.20 728.74 L3268.49 722.13 L3280.77 742.92 L3293.19 716.46 L3305.48 695.67 L3317.76 691.62 L3330.18 711.60 L3342.47 706.47 L3354.75 680.01 L3367.04 703.63 L3379.46 800.29 L3391.74 803.94 L3404.03 740.76 L3416.45 690.54 L3428.73 689.73 L3441.02 810.28 L3453.30 982.28 L3465.72 1028.18 L3478.01 1041.95 L3490.29 988.62 L3502.58 926.11 L3515.00 855.78 L3527.28 828.24 L3539.57 798.40 L3551.99 744.54 L3564.27 718.08 L3576.56 687.84 L3588.84 707.28 L3601.26 723.34 L3613.55 672.18 L3625.83 642.34 L3638.12 610.21 L3650.54 596.71 L3662.82 574.57 L3675.11 557.83 L3687.53 534.20 L3699.81 546.76 L3712.10 571.73 L3724.38 568.90 L3736.80 550.27 L3749.09 578.08 L3761.37 559.72 L3773.66 572.68 L3786.08 618.31 L3798.36 577.40 L3810.65 584.69 L3823.07 574.03 L3835.35 594.68 L3847.64 599.68 L3859.92 574.43 L3872.34 580.10 L3884.63 585.10 L3896.91 582.80 L3909.33 593.06 L3921.62 585.10 L3933.90 578.21 L3946.19 586.85 L3958.61 574.43 L3970.89 575.78" stroke-linejoin="round" style="fill:none;stroke:#0080FF;stroke-width:8.64"/>
	<line x1="395.82" y1="2459.20" x2="395.82" y2="275.40" style="stroke:#000000;stroke-width:5.76"/>
	<line x1="395.82" y1="2395.88" x2="355.73" y2="2395.88" style="stroke:#000000;stroke-width:5.76"/>
	<text x="335.75" y="2430.93" style="font-family:'Helvetica';font-size:100.04px;fill:#000000" text-anchor="end">3.8</text>
	<line x1="395.82" y1="1984.40" x2="355.73" y2="1984.40" style="stroke:#000000;stroke-width:5.76"/>
	<text x="335.75" y="2019.44" style="font-family:'Helvetica';font-size:100.04px;fill:#000000" text-anchor="end">4</text>
	<line x1="395.82" y1="1573.04" x2="355.73" y2="1573.04" style="stroke:#000000;stroke-width:5.76"/>
	<text x="335.75" y="1608.09" style="font-family:'Helvetica';font-size:100.04px;fill:#000000" text-anchor="end">4.2</text>
	<line x1="395.82" y1="1161.56" x2="355.73" y2="1161.56" style="stroke:#000000;stroke-width:5.76"/>
	<text x="335.75" y="1196.60" style="font-family:'Helvetica';font-size:100.04px;fill:#000000" text-anchor="end">4.4</text>
	<line x1="395.82" y1="750.21" x2="355.73" y2="750.21" style="stroke:#000000;stroke-width:5.76"/>
	<text x="335.75" y="785.25" style="font-family:'Helvetica';font-size:100.04px;fill:#000000" text-anchor="end">4.6</text>
	<line x1="395.82" y1="338.72" x2="355.73" y2="338.72" style="stroke:#000000;stroke-width:5.76"/>
	<text x="335.75" y="373.77" style="font-family:'Helvetica';font-size:100.04px;fill:#000000" text-anchor="end">4.8</text>
	<line x1="395.82" y1="2459.20" x2="4219.16" y2="2459.20" style="stroke:#000000;stroke-width:5.76"/>
	<line x1="459.14" y1="2459.20" x2="459.14" y2="2499.16" style="stroke:#000000;stroke-width:5.76"/>
	<text x="459.14" y="2589.10" style="font-family:'Helvetica';font-size:100.04px;fill:#000000" text-anchor="middle">2000m1</text>
	<line x1="1198.53" y1="2459.20" x2="1198.53" y2="2499.16" style="stroke:#000000;stroke-width:5.76"/>
	<text x="1198.53" y="2589.10" style="font-family:'Helvetica';font-size:100.04px;fill:#000000" text-anchor="middle">2005m1</text>
	<line x1="1937.79" y1="2459.20" x2="1937.79" y2="2499.16" style="stroke:#000000;stroke-width:5.76"/>
	<text x="1937.79" y="2589.10" style="font-family:'Helvetica';font-size:100.04px;fill:#000000" text-anchor="middle">2010m1</text>
	<line x1="2677.19" y1="2459.20" x2="2677.19" y2="2499.16" style="stroke:#000000;stroke-width:5.76"/>
	<text x="2677.19" y="2589.10" style="font-family:'Helvetica';font-size:100.04px;fill:#000000" text-anchor="middle">2015m1</text>
	<line x1="3416.45" y1="2459.20" x2="3416.45" y2="2499.16" style="stroke:#000000;stroke-width:5.76"/>
	<text x="3416.45" y="2589.10" style="font-family:'Helvetica';font-size:100.04px;fill:#000000" text-anchor="middle">2020m1</text>
	<line x1="4155.84" y1="2459.20" x2="4155.84" y2="2499.16" style="stroke:#000000;stroke-width:5.76"/>
	<text x="4155.84" y="2589.10" style="font-family:'Helvetica';font-size:100.04px;fill:#000000" text-anchor="middle">2025m1</text>
	<text x="2307.42" y="2729.09" style="font-family:'Helvetica';font-size:100.04px;fill:#000000" text-anchor="middle">Fecha</text>
	<text x="2307.42" y="216.06" style="font-family:'Helvetica';font-size:140.00px;fill:#000000" text-anchor="middle">ln(Imacec)</text>
</svg>
