<?xml version="1.0" encoding="UTF-8" standalone="no"?>
<!-- This is a Stata 18.0 generated SVG file (http://www.stata.com) -->

<svg version="1.1" width="6.000in" height="4.000in" viewBox="0 0 4320 2880" xmlns="http://www.w3.org/2000/svg" xmlns:xlink="http://www.w3.org/1999/xlink">
	<desc>Stata Graph - Graph</desc>
	<rect x="0" y="0" width="4320" height="2880" style="fill:#FFFFFF;stroke:none"/>
	<rect x="0.00" y="0.00" width="4320.00" height="2880.00" style="fill:#FFFFFF"/>
	<rect x="2.88" y="2.88" width="4314.24" height="2874.24" style="fill:none;stroke:#FFFFFF;stroke-width:5.76"/>
	<rect x="366.66" y="275.40" width="3852.50" height="2183.79" style="fill:#FFFFFF"/>
	<rect x="369.54" y="278.28" width="3846.74" height="2178.03" style="fill:none;stroke:#000000;stroke-width:5.76"/>
	<path d=" M429.98 1590.59 L442.40 1539.16 L454.82 1528.90 L467.24 1518.50 L479.66 1507.30 L491.94 1497.98 L504.36 1490.83 L516.78 1484.62 L529.20 1443.44 L541.62 1416.71 L554.04 1400.24 L566.46 1416.71 L578.88 1399.30 L591.30 1491.77 L603.72 1518.50 L616.14 1519.58 L628.56 1495.96 L640.98 1515.40 L653.40 1551.44 L665.82 1493.80 L678.24 1480.43 L690.66 1530.92 L703.08 1566.83 L715.50 1611.12 L727.92 1654.32 L740.34 1621.38 L752.76 1616.25 L765.18 1626.51 L777.60 1662.55 L790.02 1681.05 L802.44 1614.22 L814.86 1657.42 L827.28 1646.08 L839.70 1566.83 L852.12 1575.07 L864.54 1589.51 L876.96 1571.02 L889.38 1487.72 L901.80 1419.82 L914.22 1470.17 L926.64 1520.66 L939.06 1507.30 L951.48 1563.86 L963.90 1586.41 L976.32 1655.40 L988.74 1763.40 L1001.16 1787.02 L1013.58 1774.60 L1026.00 1802.41 L1038.42 1882.60 L1050.84 1958.75 L1063.26 1912.44 L1075.68 1817.80 L1088.10 1772.58 L1100.52 1739.64 L1112.94 1717.09 L1125.36 1731.40 L1137.78 1685.23 L1150.20 1626.51 L1162.62 1632.72 L1175.04 1646.08 L1187.46 1657.42 L1199.88 1634.74 L1212.30 1578.17 L1224.72 1605.99 L1237.14 1608.01 L1249.56 1567.91 L1261.98 1577.23 L1274.40 1474.36 L1286.82 1454.78 L1299.24 1506.22 L1311.66 1504.19 L1324.08 1461.94 L1336.50 1461.94 L1348.92 1467.07 L1361.34 1493.80 L1373.76 1496.90 L1386.18 1477.46 L1398.60 1485.70 L1411.02 1489.75 L1423.44 1595.72 L1435.86 1673.89 L1448.28 1666.60 L1460.70 1618.27 L1473.12 1594.64 L1485.54 1603.96 L1497.96 1620.43 L1510.38 1627.59 L1522.80 1587.49 L1535.22 1551.44 L1547.64 1490.83 L1560.06 1403.35 L1572.48 1285.09 L1584.90 1223.39 L1597.32 1121.46 L1609.74 1081.37 L1622.16 1118.49 L1634.58 1055.72 L1647.00 1011.44 L1659.42 1035.06 L1671.84 976.47 L1684.26 915.85 L1696.68 913.69 L1709.10 929.22 L1721.52 935.29 L1733.94 870.49 L1746.36 969.32 L1758.78 1152.38 L1771.20 1232.57 L1783.62 1315.87 L1796.04 1362.17 L1808.46 1417.79 L1820.88 1566.83 L1833.30 1686.18 L1845.72 1848.72 L1858.14 1981.43 L1870.56 1989.66 L1882.98 2079.17 L1895.40 2111.97 L1907.82 2023.55 L1920.24 2017.47 L1932.66 1854.93 L1945.08 1850.74 L1957.50 1787.02 L1969.92 1727.35 L1982.34 1762.32 L1994.76 1650.27 L2007.18 1612.20 L2019.60 1688.20 L2032.02 1677.94 L2044.44 1628.67 L2056.86 1576.15 L2069.28 1601.80 L2081.70 1607.07 L2094.12 1534.97 L2106.54 1550.50 L2118.96 1546.31 L2131.38 1528.90 L2143.80 1583.30 L2156.22 1555.63 L2168.64 1545.23 L2181.06 1504.19 L2193.48 1477.46 L2205.90 1424.95 L2218.32 1444.52 L2230.74 1428.05 L2243.16 1491.77 L2255.58 1520.66 L2268.00 1559.68 L2280.42 1609.09 L2292.84 1623.40 L2305.26 1617.33 L2317.68 1589.51 L2330.10 1581.28 L2342.52 1662.55 L2354.94 1728.43 L2367.36 1719.12 L2379.78 1747.87 L2392.20 1724.25 L2404.62 1780.81 L2417.04 1785.00 L2429.46 1687.26 L2441.88 1658.50 L2454.30 1656.34 L2466.72 1680.10 L2479.14 1724.25 L2491.56 1637.85 L2503.98 1572.10 L2516.40 1589.51 L2528.82 1550.50 L2541.24 1521.61 L2553.66 1436.29 L2566.08 1394.03 L2578.50 1438.31 L2590.92 1418.74 L2603.34 1414.69 L2615.76 1376.62 L2628.18 1297.37 L2640.60 1321.13 L2653.02 1403.35 L2665.44 1414.69 L2677.86 1429.13 L2690.28 1451.68 L2702.70 1455.86 L2715.12 1473.28 L2727.54 1426.97 L2739.96 1406.45 L2752.38 1369.46 L2764.80 1404.43 L2777.22 1471.25 L2789.64 1476.38 L2802.06 1431.16 L2814.48 1388.90 L2826.90 1397.14 L2839.32 1423.87 L2851.74 1450.73 L2864.16 1445.47 L2876.58 1448.57 L2889.00 1468.15 L2901.42 1534.97 L2913.84 1562.78 L2926.26 1588.43 L2938.68 1580.20 L2951.10 1602.88 L2963.52 1595.72 L2975.81 1599.77 L2988.23 1599.77 L3000.65 1609.09 L3013.07 1619.35 L3025.49 1706.83 L3037.91 1706.83 L3050.33 1691.31 L3062.75 1732.48 L3075.17 1688.20 L3087.59 1685.23 L3100.01 1648.11 L3112.43 1656.34 L3124.85 1677.00 L3137.27 1695.49 L3149.69 1687.26 L3162.11 1671.87 L3174.53 1619.35 L3186.95 1608.01 L3199.37 1611.12 L3211.79 1558.60 L3224.21 1582.36 L3236.63 1591.54 L3249.05 1618.27 L3261.47 1697.52 L3273.89 1703.73 L3286.31 1675.92 L3298.73 1675.92 L3311.15 1639.87 L3323.57 1644.06 L3335.99 1655.40 L3348.41 1644.06 L3360.83 1664.58 L3373.25 1620.43 L3385.67 1602.88 L3398.09 1573.04 L3410.51 1524.71 L3422.93 1482.59 L3435.35 1496.90 L3447.77 1529.84 L3460.19 1598.83 L3472.61 1611.12 L3485.03 1624.48 L3497.45 1629.61 L3509.87 1564.81 L3522.29 1577.23 L3534.71 1600.86 L3547.13 1576.15 L3559.55 1561.70 L3571.97 1589.51 L3584.39 1584.38 L3596.81 1540.10 L3609.23 1506.22 L3621.65 1490.83 L3634.07 1414.69 L3646.49 1389.98 L3658.91 1332.34 L3671.33 1261.46 L3683.75 1192.47 L3696.17 1144.14 L3708.59 1089.60 L3721.01 1077.32 L3733.43 914.77 L3745.85 799.62 L3758.27 694.72 L3770.69 596.98 L3783.11 532.18 L3795.53 433.36 L3807.95 469.40 L3820.37 564.04 L3832.79 509.50 L3845.21 567.14 L3857.63 612.37 L3870.05 653.55 L3882.47 739.95 L3894.89 862.39 L3907.31 983.76 L3919.73 1104.05 L3932.15 1216.10 L3944.57 1334.50 L3956.99 1355.02 L3969.41 1363.25" stroke-linejoin="round" style="fill:none;stroke:#0080FF;stroke-width:8.64"/>
	<line x1="366.66" y1="2459.20" x2="366.66" y2="275.40" style="stroke:#000000;stroke-width:5.76"/>
	<line x1="366.66" y1="2395.88" x2="326.57" y2="2395.88" style="stroke:#000000;stroke-width:5.76"/>
	<text x="306.58" y="2430.93" style="font-family:'Helvetica';font-size:100.04px;fill:#000000" text-anchor="end">-5</text>
	<line x1="366.66" y1="1881.52" x2="326.57" y2="1881.52" style="stroke:#000000;stroke-width:5.76"/>
	<text x="306.58" y="1916.57" style="font-family:'Helvetica';font-size:100.04px;fill:#000000" text-anchor="end">0</text>
	<line x1="366.66" y1="1367.30" x2="326.57" y2="1367.30" style="stroke:#000000;stroke-width:5.76"/>
	<text x="306.58" y="1402.35" style="font-family:'Helvetica';font-size:100.04px;fill:#000000" text-anchor="end">5</text>
	<line x1="366.66" y1="852.94" x2="326.57" y2="852.94" style="stroke:#000000;stroke-width:5.76"/>
	<text x="306.58" y="887.99" style="font-family:'Helvetica';font-size:100.04px;fill:#000000" text-anchor="end">10</text>
	<line x1="366.66" y1="338.72" x2="326.57" y2="338.72" style="stroke:#000000;stroke-width:5.76"/>
	<text x="306.58" y="373.77" style="font-family:'Helvetica';font-size:100.04px;fill:#000000" text-anchor="end">15</text>
	<line x1="366.66" y1="2459.20" x2="4219.16" y2="2459.20" style="stroke:#000000;stroke-width:5.76"/>
	<line x1="429.98" y1="2459.20" x2="429.98" y2="2499.16" style="stroke:#000000;stroke-width:5.76"/>
	<text x="429.98" y="2589.10" style="font-family:'Helvetica';font-size:100.04px;fill:#000000" text-anchor="middle">2000m1</text>
	<line x1="1175.18" y1="2459.20" x2="1175.18" y2="2499.16" style="stroke:#000000;stroke-width:5.76"/>
	<text x="1175.18" y="2589.10" style="font-family:'Helvetica';font-size:100.04px;fill:#000000" text-anchor="middle">2005m1</text>
	<line x1="1920.24" y1="2459.20" x2="1920.24" y2="2499.16" style="stroke:#000000;stroke-width:5.76"/>
	<text x="1920.24" y="2589.10" style="font-family:'Helvetica';font-size:100.04px;fill:#000000" text-anchor="middle">2010m1</text>
	<line x1="2665.44" y1="2459.20" x2="2665.44" y2="2499.16" style="stroke:#000000;stroke-width:5.76"/>
	<text x="2665.44" y="2589.10" style="font-family:'Helvetica';font-size:100.04px;fill:#000000" text-anchor="middle">2015m1</text>
	<line x1="3410.64" y1="2459.20" x2="3410.64" y2="2499.16" style="stroke:#000000;stroke-width:5.76"/>
	<text x="3410.64" y="2589.10" style="font-family:'Helvetica';font-size:100.04px;fill:#000000" text-anchor="middle">2020m1</text>
	<line x1="4155.84" y1="2459.20" x2="4155.84" y2="2499.16" style="stroke:#000000;stroke-width:5.76"/>
	<text x="4155.84" y="2589.10" style="font-family:'Helvetica';font-size:100.04px;fill:#000000" text-anchor="middle">2025m1</text>
	<text x="2292.84" y="2729.09" style="font-family:'Helvetica';font-size:100.04px;fill:#000000" text-anchor="middle">Fecha</text>
	<text x="2292.84" y="216.06" style="font-family:'Helvetica';font-size:140.00px;fill:#000000" text-anchor="middle">Inflación</text>
</svg>
