<?xml version="1.0" encoding="UTF-8" standalone="no"?>
<!-- This is a Stata 18.0 generated SVG file (http://www.stata.com) -->

<svg version="1.1" width="6.000in" height="4.000in" viewBox="0 0 4320 2880" xmlns="http://www.w3.org/2000/svg" xmlns:xlink="http://www.w3.org/1999/xlink">
	<desc>Stata Graph - irfr2</desc>
	<rect x="0" y="0" width="4320" height="2880" style="fill:#FFFFFF;stroke:none"/>
	<rect x="0.00" y="0.00" width="4320.00" height="2880.00" style="fill:#FFFFFF"/>
	<rect x="2.88" y="2.88" width="4314.24" height="2874.24" style="fill:none;stroke:#FFFFFF;stroke-width:5.76"/>
	<rect x="337.50" y="245.30" width="3881.66" height="1958.34" style="fill:#FFFFFF"/>
	<rect x="340.38" y="248.18" width="3875.90" height="1952.58" style="fill:none;stroke:#FFFFFF;stroke-width:5.76"/>
	<line x1="337.50" y1="2140.32" x2="395.15" y2="2140.32" style="stroke:#F0F0F0;stroke-width:8.64"/>
	<line x1="423.90" y1="2140.32" x2="481.55" y2="2140.32" style="stroke:#F0F0F0;stroke-width:8.64"/>
	<line x1="510.30" y1="2140.32" x2="567.95" y2="2140.32" style="stroke:#F0F0F0;stroke-width:8.64"/>
	<line x1="596.70" y1="2140.32" x2="654.35" y2="2140.32" style="stroke:#F0F0F0;stroke-width:8.64"/>
	<line x1="683.10" y1="2140.32" x2="740.75" y2="2140.32" style="stroke:#F0F0F0;stroke-width:8.64"/>
	<line x1="769.50" y1="2140.32" x2="827.15" y2="2140.32" style="stroke:#F0F0F0;stroke-width:8.64"/>
	<line x1="855.90" y1="2140.32" x2="913.55" y2="2140.32" style="stroke:#F0F0F0;stroke-width:8.64"/>
	<line x1="942.30" y1="2140.32" x2="999.95" y2="2140.32" style="stroke:#F0F0F0;stroke-width:8.64"/>
	<line x1="1028.70" y1="2140.32" x2="1086.35" y2="2140.32" style="stroke:#F0F0F0;stroke-width:8.64"/>
	<line x1="1115.10" y1="2140.32" x2="1172.74" y2="2140.32" style="stroke:#F0F0F0;stroke-width:8.64"/>
	<line x1="1201.50" y1="2140.32" x2="1259.15" y2="2140.32" style="stroke:#F0F0F0;stroke-width:8.64"/>
	<line x1="1287.90" y1="2140.32" x2="1345.55" y2="2140.32" style="stroke:#F0F0F0;stroke-width:8.64"/>
	<line x1="1374.30" y1="2140.32" x2="1431.95" y2="2140.32" style="stroke:#F0F0F0;stroke-width:8.64"/>
	<line x1="1460.70" y1="2140.32" x2="1518.35" y2="2140.32" style="stroke:#F0F0F0;stroke-width:8.64"/>
	<line x1="1547.10" y1="2140.32" x2="1604.75" y2="2140.32" style="stroke:#F0F0F0;stroke-width:8.64"/>
	<line x1="1633.50" y1="2140.32" x2="1691.15" y2="2140.32" style="stroke:#F0F0F0;stroke-width:8.64"/>
	<line x1="1719.90" y1="2140.32" x2="1777.55" y2="2140.32" style="stroke:#F0F0F0;stroke-width:8.64"/>
	<line x1="1806.30" y1="2140.32" x2="1863.95" y2="2140.32" style="stroke:#F0F0F0;stroke-width:8.64"/>
	<line x1="1892.70" y1="2140.32" x2="1950.35" y2="2140.32" style="stroke:#F0F0F0;stroke-width:8.64"/>
	<line x1="1979.10" y1="2140.32" x2="2036.75" y2="2140.32" style="stroke:#F0F0F0;stroke-width:8.64"/>
	<line x1="2065.50" y1="2140.32" x2="2123.15" y2="2140.32" style="stroke:#F0F0F0;stroke-width:8.64"/>
	<line x1="2151.90" y1="2140.32" x2="2209.55" y2="2140.32" style="stroke:#F0F0F0;stroke-width:8.64"/>
	<line x1="2238.30" y1="2140.32" x2="2295.95" y2="2140.32" style="stroke:#F0F0F0;stroke-width:8.64"/>
	<line x1="2324.70" y1="2140.32" x2="2382.34" y2="2140.32" style="stroke:#F0F0F0;stroke-width:8.64"/>
	<line x1="2411.10" y1="2140.32" x2="2468.75" y2="2140.32" style="stroke:#F0F0F0;stroke-width:8.64"/>
	<line x1="2497.50" y1="2140.32" x2="2555.15" y2="2140.32" style="stroke:#F0F0F0;stroke-width:8.64"/>
	<line x1="2583.90" y1="2140.32" x2="2641.55" y2="2140.32" style="stroke:#F0F0F0;stroke-width:8.64"/>
	<line x1="2670.30" y1="2140.32" x2="2727.95" y2="2140.32" style="stroke:#F0F0F0;stroke-width:8.64"/>
	<line x1="2756.70" y1="2140.32" x2="2814.35" y2="2140.32" style="stroke:#F0F0F0;stroke-width:8.64"/>
	<line x1="2843.10" y1="2140.32" x2="2900.75" y2="2140.32" style="stroke:#F0F0F0;stroke-width:8.64"/>
	<line x1="2929.50" y1="2140.32" x2="2987.15" y2="2140.32" style="stroke:#F0F0F0;stroke-width:8.64"/>
	<line x1="3015.90" y1="2140.32" x2="3073.55" y2="2140.32" style="stroke:#F0F0F0;stroke-width:8.64"/>
	<line x1="3102.30" y1="2140.32" x2="3159.95" y2="2140.32" style="stroke:#F0F0F0;stroke-width:8.64"/>
	<line x1="3188.70" y1="2140.32" x2="3246.35" y2="2140.32" style="stroke:#F0F0F0;stroke-width:8.64"/>
	<line x1="3275.10" y1="2140.32" x2="3332.75" y2="2140.32" style="stroke:#F0F0F0;stroke-width:8.64"/>
	<line x1="3361.50" y1="2140.32" x2="3419.15" y2="2140.32" style="stroke:#F0F0F0;stroke-width:8.64"/>
	<line x1="3447.90" y1="2140.32" x2="3505.55" y2="2140.32" style="stroke:#F0F0F0;stroke-width:8.64"/>
	<line x1="3534.30" y1="2140.32" x2="3591.95" y2="2140.32" style="stroke:#F0F0F0;stroke-width:8.64"/>
	<line x1="3620.70" y1="2140.32" x2="3678.35" y2="2140.32" style="stroke:#F0F0F0;stroke-width:8.64"/>
	<line x1="3707.10" y1="2140.32" x2="3764.75" y2="2140.32" style="stroke:#F0F0F0;stroke-width:8.64"/>
	<line x1="3793.50" y1="2140.32" x2="3851.15" y2="2140.32" style="stroke:#F0F0F0;stroke-width:8.64"/>
	<line x1="3879.90" y1="2140.32" x2="3937.55" y2="2140.32" style="stroke:#F0F0F0;stroke-width:8.64"/>
	<line x1="3966.30" y1="2140.32" x2="4023.95" y2="2140.32" style="stroke:#F0F0F0;stroke-width:8.64"/>
	<line x1="4052.70" y1="2140.32" x2="4110.35" y2="2140.32" style="stroke:#F0F0F0;stroke-width:8.64"/>
	<line x1="4139.10" y1="2140.32" x2="4196.75" y2="2140.32" style="stroke:#F0F0F0;stroke-width:8.64"/>
	<line x1="337.50" y1="1529.84" x2="395.15" y2="1529.84" style="stroke:#F0F0F0;stroke-width:8.64"/>
	<line x1="423.90" y1="1529.84" x2="481.55" y2="1529.84" style="stroke:#F0F0F0;stroke-width:8.64"/>
	<line x1="510.30" y1="1529.84" x2="567.95" y2="1529.84" style="stroke:#F0F0F0;stroke-width:8.64"/>
	<line x1="596.70" y1="1529.84" x2="654.35" y2="1529.84" style="stroke:#F0F0F0;stroke-width:8.64"/>
	<line x1="683.10" y1="1529.84" x2="740.75" y2="1529.84" style="stroke:#F0F0F0;stroke-width:8.64"/>
	<line x1="769.50" y1="1529.84" x2="827.15" y2="1529.84" style="stroke:#F0F0F0;stroke-width:8.64"/>
	<line x1="855.90" y1="1529.84" x2="913.55" y2="1529.84" style="stroke:#F0F0F0;stroke-width:8.64"/>
	<line x1="942.30" y1="1529.84" x2="999.95" y2="1529.84" style="stroke:#F0F0F0;stroke-width:8.64"/>
	<line x1="1028.70" y1="1529.84" x2="1086.35" y2="1529.84" style="stroke:#F0F0F0;stroke-width:8.64"/>
	<line x1="1115.10" y1="1529.84" x2="1172.74" y2="1529.84" style="stroke:#F0F0F0;stroke-width:8.64"/>
	<line x1="1201.50" y1="1529.84" x2="1259.15" y2="1529.84" style="stroke:#F0F0F0;stroke-width:8.64"/>
	<line x1="1287.90" y1="1529.84" x2="1345.55" y2="1529.84" style="stroke:#F0F0F0;stroke-width:8.64"/>
	<line x1="1374.30" y1="1529.84" x2="1431.95" y2="1529.84" style="stroke:#F0F0F0;stroke-width:8.64"/>
	<line x1="1460.70" y1="1529.84" x2="1518.35" y2="1529.84" style="stroke:#F0F0F0;stroke-width:8.64"/>
	<line x1="1547.10" y1="1529.84" x2="1604.75" y2="1529.84" style="stroke:#F0F0F0;stroke-width:8.64"/>
	<line x1="1633.50" y1="1529.84" x2="1691.15" y2="1529.84" style="stroke:#F0F0F0;stroke-width:8.64"/>
	<line x1="1719.90" y1="1529.84" x2="1777.55" y2="1529.84" style="stroke:#F0F0F0;stroke-width:8.64"/>
	<line x1="1806.30" y1="1529.84" x2="1863.95" y2="1529.84" style="stroke:#F0F0F0;stroke-width:8.64"/>
	<line x1="1892.70" y1="1529.84" x2="1950.35" y2="1529.84" style="stroke:#F0F0F0;stroke-width:8.64"/>
	<line x1="1979.10" y1="1529.84" x2="2036.75" y2="1529.84" style="stroke:#F0F0F0;stroke-width:8.64"/>
	<line x1="2065.50" y1="1529.84" x2="2123.15" y2="1529.84" style="stroke:#F0F0F0;stroke-width:8.64"/>
	<line x1="2151.90" y1="1529.84" x2="2209.55" y2="1529.84" style="stroke:#F0F0F0;stroke-width:8.64"/>
	<line x1="2238.30" y1="1529.84" x2="2295.95" y2="1529.84" style="stroke:#F0F0F0;stroke-width:8.64"/>
	<line x1="2324.70" y1="1529.84" x2="2382.34" y2="1529.84" style="stroke:#F0F0F0;stroke-width:8.64"/>
	<line x1="2411.10" y1="1529.84" x2="2468.75" y2="1529.84" style="stroke:#F0F0F0;stroke-width:8.64"/>
	<line x1="2497.50" y1="1529.84" x2="2555.15" y2="1529.84" style="stroke:#F0F0F0;stroke-width:8.64"/>
	<line x1="2583.90" y1="1529.84" x2="2641.55" y2="1529.84" style="stroke:#F0F0F0;stroke-width:8.64"/>
	<line x1="2670.30" y1="1529.84" x2="2727.95" y2="1529.84" style="stroke:#F0F0F0;stroke-width:8.64"/>
	<line x1="2756.70" y1="1529.84" x2="2814.35" y2="1529.84" style="stroke:#F0F0F0;stroke-width:8.64"/>
	<line x1="2843.10" y1="1529.84" x2="2900.75" y2="1529.84" style="stroke:#F0F0F0;stroke-width:8.64"/>
	<line x1="2929.50" y1="1529.84" x2="2987.15" y2="1529.84" style="stroke:#F0F0F0;stroke-width:8.64"/>
	<line x1="3015.90" y1="1529.84" x2="3073.55" y2="1529.84" style="stroke:#F0F0F0;stroke-width:8.64"/>
	<line x1="3102.30" y1="1529.84" x2="3159.95" y2="1529.84" style="stroke:#F0F0F0;stroke-width:8.64"/>
	<line x1="3188.70" y1="1529.84" x2="3246.35" y2="1529.84" style="stroke:#F0F0F0;stroke-width:8.64"/>
	<line x1="3275.10" y1="1529.84" x2="3332.75" y2="1529.84" style="stroke:#F0F0F0;stroke-width:8.64"/>
	<line x1="3361.50" y1="1529.84" x2="3419.15" y2="1529.84" style="stroke:#F0F0F0;stroke-width:8.64"/>
	<line x1="3447.90" y1="1529.84" x2="3505.55" y2="1529.84" style="stroke:#F0F0F0;stroke-width:8.64"/>
	<line x1="3534.30" y1="1529.84" x2="3591.95" y2="1529.84" style="stroke:#F0F0F0;stroke-width:8.64"/>
	<line x1="3620.70" y1="1529.84" x2="3678.35" y2="1529.84" style="stroke:#F0F0F0;stroke-width:8.64"/>
	<line x1="3707.10" y1="1529.84" x2="3764.75" y2="1529.84" style="stroke:#F0F0F0;stroke-width:8.64"/>
	<line x1="3793.50" y1="1529.84" x2="3851.15" y2="1529.84" style="stroke:#F0F0F0;stroke-width:8.64"/>
	<line x1="3879.90" y1="1529.84" x2="3937.55" y2="1529.84" style="stroke:#F0F0F0;stroke-width:8.64"/>
	<line x1="3966.30" y1="1529.84" x2="4023.95" y2="1529.84" style="stroke:#F0F0F0;stroke-width:8.64"/>
	<line x1="4052.70" y1="1529.84" x2="4110.35" y2="1529.84" style="stroke:#F0F0F0;stroke-width:8.64"/>
	<line x1="4139.10" y1="1529.84" x2="4196.75" y2="1529.84" style="stroke:#F0F0F0;stroke-width:8.64"/>
	<line x1="337.50" y1="919.23" x2="395.15" y2="919.23" style="stroke:#F0F0F0;stroke-width:8.64"/>
	<line x1="423.90" y1="919.23" x2="481.55" y2="919.23" style="stroke:#F0F0F0;stroke-width:8.64"/>
	<line x1="510.30" y1="919.23" x2="567.95" y2="919.23" style="stroke:#F0F0F0;stroke-width:8.64"/>
	<line x1="596.70" y1="919.23" x2="654.35" y2="919.23" style="stroke:#F0F0F0;stroke-width:8.64"/>
	<line x1="683.10" y1="919.23" x2="740.75" y2="919.23" style="stroke:#F0F0F0;stroke-width:8.64"/>
	<line x1="769.50" y1="919.23" x2="827.15" y2="919.23" style="stroke:#F0F0F0;stroke-width:8.64"/>
	<line x1="855.90" y1="919.23" x2="913.55" y2="919.23" style="stroke:#F0F0F0;stroke-width:8.64"/>
	<line x1="942.30" y1="919.23" x2="999.95" y2="919.23" style="stroke:#F0F0F0;stroke-width:8.64"/>
	<line x1="1028.70" y1="919.23" x2="1086.35" y2="919.23" style="stroke:#F0F0F0;stroke-width:8.64"/>
	<line x1="1115.10" y1="919.23" x2="1172.74" y2="919.23" style="stroke:#F0F0F0;stroke-width:8.64"/>
	<line x1="1201.50" y1="919.23" x2="1259.15" y2="919.23" style="stroke:#F0F0F0;stroke-width:8.64"/>
	<line x1="1287.90" y1="919.23" x2="1345.55" y2="919.23" style="stroke:#F0F0F0;stroke-width:8.64"/>
	<line x1="1374.30" y1="919.23" x2="1431.95" y2="919.23" style="stroke:#F0F0F0;stroke-width:8.64"/>
	<line x1="1460.70" y1="919.23" x2="1518.35" y2="919.23" style="stroke:#F0F0F0;stroke-width:8.64"/>
	<line x1="1547.10" y1="919.23" x2="1604.75" y2="919.23" style="stroke:#F0F0F0;stroke-width:8.64"/>
	<line x1="1633.50" y1="919.23" x2="1691.15" y2="919.23" style="stroke:#F0F0F0;stroke-width:8.64"/>
	<line x1="1719.90" y1="919.23" x2="1777.55" y2="919.23" style="stroke:#F0F0F0;stroke-width:8.64"/>
	<line x1="1806.30" y1="919.23" x2="1863.95" y2="919.23" style="stroke:#F0F0F0;stroke-width:8.64"/>
	<line x1="1892.70" y1="919.23" x2="1950.35" y2="919.23" style="stroke:#F0F0F0;stroke-width:8.64"/>
	<line x1="1979.10" y1="919.23" x2="2036.75" y2="919.23" style="stroke:#F0F0F0;stroke-width:8.64"/>
	<line x1="2065.50" y1="919.23" x2="2123.15" y2="919.23" style="stroke:#F0F0F0;stroke-width:8.64"/>
	<line x1="2151.90" y1="919.23" x2="2209.55" y2="919.23" style="stroke:#F0F0F0;stroke-width:8.64"/>
	<line x1="2238.30" y1="919.23" x2="2295.95" y2="919.23" style="stroke:#F0F0F0;stroke-width:8.64"/>
	<line x1="2324.70" y1="919.23" x2="2382.34" y2="919.23" style="stroke:#F0F0F0;stroke-width:8.64"/>
	<line x1="2411.10" y1="919.23" x2="2468.75" y2="919.23" style="stroke:#F0F0F0;stroke-width:8.64"/>
	<line x1="2497.50" y1="919.23" x2="2555.15" y2="919.23" style="stroke:#F0F0F0;stroke-width:8.64"/>
	<line x1="2583.90" y1="919.23" x2="2641.55" y2="919.23" style="stroke:#F0F0F0;stroke-width:8.64"/>
	<line x1="2670.30" y1="919.23" x2="2727.95" y2="919.23" style="stroke:#F0F0F0;stroke-width:8.64"/>
	<line x1="2756.70" y1="919.23" x2="2814.35" y2="919.23" style="stroke:#F0F0F0;stroke-width:8.64"/>
	<line x1="2843.10" y1="919.23" x2="2900.75" y2="919.23" style="stroke:#F0F0F0;stroke-width:8.64"/>
	<line x1="2929.50" y1="919.23" x2="2987.15" y2="919.23" style="stroke:#F0F0F0;stroke-width:8.64"/>
	<line x1="3015.90" y1="919.23" x2="3073.55" y2="919.23" style="stroke:#F0F0F0;stroke-width:8.64"/>
	<line x1="3102.30" y1="919.23" x2="3159.95" y2="919.23" style="stroke:#F0F0F0;stroke-width:8.64"/>
	<line x1="3188.70" y1="919.23" x2="3246.35" y2="919.23" style="stroke:#F0F0F0;stroke-width:8.64"/>
	<line x1="3275.10" y1="919.23" x2="3332.75" y2="919.23" style="stroke:#F0F0F0;stroke-width:8.64"/>
	<line x1="3361.50" y1="919.23" x2="3419.15" y2="919.23" style="stroke:#F0F0F0;stroke-width:8.64"/>
	<line x1="3447.90" y1="919.23" x2="3505.55" y2="919.23" style="stroke:#F0F0F0;stroke-width:8.64"/>
	<line x1="3534.30" y1="919.23" x2="3591.95" y2="919.23" style="stroke:#F0F0F0;stroke-width:8.64"/>
	<line x1="3620.70" y1="919.23" x2="3678.35" y2="919.23" style="stroke:#F0F0F0;stroke-width:8.64"/>
	<line x1="3707.10" y1="919.23" x2="3764.75" y2="919.23" style="stroke:#F0F0F0;stroke-width:8.64"/>
	<line x1="3793.50" y1="919.23" x2="3851.15" y2="919.23" style="stroke:#F0F0F0;stroke-width:8.64"/>
	<line x1="3879.90" y1="919.23" x2="3937.55" y2="919.23" style="stroke:#F0F0F0;stroke-width:8.64"/>
	<line x1="3966.30" y1="919.23" x2="4023.95" y2="919.23" style="stroke:#F0F0F0;stroke-width:8.64"/>
	<line x1="4052.70" y1="919.23" x2="4110.35" y2="919.23" style="stroke:#F0F0F0;stroke-width:8.64"/>
	<line x1="4139.10" y1="919.23" x2="4196.75" y2="919.23" style="stroke:#F0F0F0;stroke-width:8.64"/>
	<line x1="337.50" y1="308.75" x2="395.15" y2="308.75" style="stroke:#F0F0F0;stroke-width:8.64"/>
	<line x1="423.90" y1="308.75" x2="481.55" y2="308.75" style="stroke:#F0F0F0;stroke-width:8.64"/>
	<line x1="510.30" y1="308.75" x2="567.95" y2="308.75" style="stroke:#F0F0F0;stroke-width:8.64"/>
	<line x1="596.70" y1="308.75" x2="654.35" y2="308.75" style="stroke:#F0F0F0;stroke-width:8.64"/>
	<line x1="683.10" y1="308.75" x2="740.75" y2="308.75" style="stroke:#F0F0F0;stroke-width:8.64"/>
	<line x1="769.50" y1="308.75" x2="827.15" y2="308.75" style="stroke:#F0F0F0;stroke-width:8.64"/>
	<line x1="855.90" y1="308.75" x2="913.55" y2="308.75" style="stroke:#F0F0F0;stroke-width:8.64"/>
	<line x1="942.30" y1="308.75" x2="999.95" y2="308.75" style="stroke:#F0F0F0;stroke-width:8.64"/>
	<line x1="1028.70" y1="308.75" x2="1086.35" y2="308.75" style="stroke:#F0F0F0;stroke-width:8.64"/>
	<line x1="1115.10" y1="308.75" x2="1172.74" y2="308.75" style="stroke:#F0F0F0;stroke-width:8.64"/>
	<line x1="1201.50" y1="308.75" x2="1259.15" y2="308.75" style="stroke:#F0F0F0;stroke-width:8.64"/>
	<line x1="1287.90" y1="308.75" x2="1345.55" y2="308.75" style="stroke:#F0F0F0;stroke-width:8.64"/>
	<line x1="1374.30" y1="308.75" x2="1431.95" y2="308.75" style="stroke:#F0F0F0;stroke-width:8.64"/>
	<line x1="1460.70" y1="308.75" x2="1518.35" y2="308.75" style="stroke:#F0F0F0;stroke-width:8.64"/>
	<line x1="1547.10" y1="308.75" x2="1604.75" y2="308.75" style="stroke:#F0F0F0;stroke-width:8.64"/>
	<line x1="1633.50" y1="308.75" x2="1691.15" y2="308.75" style="stroke:#F0F0F0;stroke-width:8.64"/>
	<line x1="1719.90" y1="308.75" x2="1777.55" y2="308.75" style="stroke:#F0F0F0;stroke-width:8.64"/>
	<line x1="1806.30" y1="308.75" x2="1863.95" y2="308.75" style="stroke:#F0F0F0;stroke-width:8.64"/>
	<line x1="1892.70" y1="308.75" x2="1950.35" y2="308.75" style="stroke:#F0F0F0;stroke-width:8.64"/>
	<line x1="1979.10" y1="308.75" x2="2036.75" y2="308.75" style="stroke:#F0F0F0;stroke-width:8.64"/>
	<line x1="2065.50" y1="308.75" x2="2123.15" y2="308.75" style="stroke:#F0F0F0;stroke-width:8.64"/>
	<line x1="2151.90" y1="308.75" x2="2209.55" y2="308.75" style="stroke:#F0F0F0;stroke-width:8.64"/>
	<line x1="2238.30" y1="308.75" x2="2295.95" y2="308.75" style="stroke:#F0F0F0;stroke-width:8.64"/>
	<line x1="2324.70" y1="308.75" x2="2382.34" y2="308.75" style="stroke:#F0F0F0;stroke-width:8.64"/>
	<line x1="2411.10" y1="308.75" x2="2468.75" y2="308.75" style="stroke:#F0F0F0;stroke-width:8.64"/>
	<line x1="2497.50" y1="308.75" x2="2555.15" y2="308.75" style="stroke:#F0F0F0;stroke-width:8.64"/>
	<line x1="2583.90" y1="308.75" x2="2641.55" y2="308.75" style="stroke:#F0F0F0;stroke-width:8.64"/>
	<line x1="2670.30" y1="308.75" x2="2727.95" y2="308.75" style="stroke:#F0F0F0;stroke-width:8.64"/>
	<line x1="2756.70" y1="308.75" x2="2814.35" y2="308.75" style="stroke:#F0F0F0;stroke-width:8.64"/>
	<line x1="2843.10" y1="308.75" x2="2900.75" y2="308.75" style="stroke:#F0F0F0;stroke-width:8.64"/>
	<line x1="2929.50" y1="308.75" x2="2987.15" y2="308.75" style="stroke:#F0F0F0;stroke-width:8.64"/>
	<line x1="3015.90" y1="308.75" x2="3073.55" y2="308.75" style="stroke:#F0F0F0;stroke-width:8.64"/>
	<line x1="3102.30" y1="308.75" x2="3159.95" y2="308.75" style="stroke:#F0F0F0;stroke-width:8.64"/>
	<line x1="3188.70" y1="308.75" x2="3246.35" y2="308.75" style="stroke:#F0F0F0;stroke-width:8.64"/>
	<line x1="3275.10" y1="308.75" x2="3332.75" y2="308.75" style="stroke:#F0F0F0;stroke-width:8.64"/>
	<line x1="3361.50" y1="308.75" x2="3419.15" y2="308.75" style="stroke:#F0F0F0;stroke-width:8.64"/>
	<line x1="3447.90" y1="308.75" x2="3505.55" y2="308.75" style="stroke:#F0F0F0;stroke-width:8.64"/>
	<line x1="3534.30" y1="308.75" x2="3591.95" y2="308.75" style="stroke:#F0F0F0;stroke-width:8.64"/>
	<line x1="3620.70" y1="308.75" x2="3678.35" y2="308.75" style="stroke:#F0F0F0;stroke-width:8.64"/>
	<line x1="3707.10" y1="308.75" x2="3764.75" y2="308.75" style="stroke:#F0F0F0;stroke-width:8.64"/>
	<line x1="3793.50" y1="308.75" x2="3851.15" y2="308.75" style="stroke:#F0F0F0;stroke-width:8.64"/>
	<line x1="3879.90" y1="308.75" x2="3937.55" y2="308.75" style="stroke:#F0F0F0;stroke-width:8.64"/>
	<line x1="3966.30" y1="308.75" x2="4023.95" y2="308.75" style="stroke:#F0F0F0;stroke-width:8.64"/>
	<line x1="4052.70" y1="308.75" x2="4110.35" y2="308.75" style="stroke:#F0F0F0;stroke-width:8.64"/>
	<line x1="4139.10" y1="308.75" x2="4196.75" y2="308.75" style="stroke:#F0F0F0;stroke-width:8.64"/>
	<line x1="400.82" y1="2203.64" x2="400.82" y2="2145.99" style="stroke:#F0F0F0;stroke-width:8.64"/>
	<line x1="400.82" y1="2117.24" x2="400.82" y2="2059.59" style="stroke:#F0F0F0;stroke-width:8.64"/>
	<line x1="400.82" y1="2030.84" x2="400.82" y2="1973.19" style="stroke:#F0F0F0;stroke-width:8.64"/>
	<line x1="400.82" y1="1944.44" x2="400.82" y2="1886.79" style="stroke:#F0F0F0;stroke-width:8.64"/>
	<line x1="400.82" y1="1858.03" x2="400.82" y2="1800.39" style="stroke:#F0F0F0;stroke-width:8.64"/>
	<line x1="400.82" y1="1771.63" x2="400.82" y2="1713.99" style="stroke:#F0F0F0;stroke-width:8.64"/>
	<line x1="400.82" y1="1685.23" x2="400.82" y2="1627.59" style="stroke:#F0F0F0;stroke-width:8.64"/>
	<line x1="400.82" y1="1598.83" x2="400.82" y2="1541.18" style="stroke:#F0F0F0;stroke-width:8.64"/>
	<line x1="400.82" y1="1512.43" x2="400.82" y2="1454.78" style="stroke:#F0F0F0;stroke-width:8.64"/>
	<line x1="400.82" y1="1426.03" x2="400.82" y2="1368.38" style="stroke:#F0F0F0;stroke-width:8.64"/>
	<line x1="400.82" y1="1339.63" x2="400.82" y2="1281.98" style="stroke:#F0F0F0;stroke-width:8.64"/>
	<line x1="400.82" y1="1253.22" x2="400.82" y2="1195.58" style="stroke:#F0F0F0;stroke-width:8.64"/>
	<line x1="400.82" y1="1166.82" x2="400.82" y2="1109.18" style="stroke:#F0F0F0;stroke-width:8.64"/>
	<line x1="400.82" y1="1080.42" x2="400.82" y2="1022.78" style="stroke:#F0F0F0;stroke-width:8.64"/>
	<line x1="400.82" y1="994.02" x2="400.82" y2="936.37" style="stroke:#F0F0F0;stroke-width:8.64"/>
	<line x1="400.82" y1="907.62" x2="400.82" y2="849.97" style="stroke:#F0F0F0;stroke-width:8.64"/>
	<line x1="400.82" y1="821.22" x2="400.82" y2="763.57" style="stroke:#F0F0F0;stroke-width:8.64"/>
	<line x1="400.82" y1="734.82" x2="400.82" y2="677.17" style="stroke:#F0F0F0;stroke-width:8.64"/>
	<line x1="400.82" y1="648.42" x2="400.82" y2="590.77" style="stroke:#F0F0F0;stroke-width:8.64"/>
	<line x1="400.82" y1="562.01" x2="400.82" y2="504.37" style="stroke:#F0F0F0;stroke-width:8.64"/>
	<line x1="400.82" y1="475.61" x2="400.82" y2="417.97" style="stroke:#F0F0F0;stroke-width:8.64"/>
	<line x1="400.82" y1="389.21" x2="400.82" y2="331.57" style="stroke:#F0F0F0;stroke-width:8.64"/>
	<line x1="400.82" y1="302.81" x2="400.82" y2="245.30" style="stroke:#F0F0F0;stroke-width:8.64"/>
	<line x1="1652.40" y1="2203.64" x2="1652.40" y2="2145.99" style="stroke:#F0F0F0;stroke-width:8.64"/>
	<line x1="1652.40" y1="2117.24" x2="1652.40" y2="2059.59" style="stroke:#F0F0F0;stroke-width:8.64"/>
	<line x1="1652.40" y1="2030.84" x2="1652.40" y2="1973.19" style="stroke:#F0F0F0;stroke-width:8.64"/>
	<line x1="1652.40" y1="1944.44" x2="1652.40" y2="1886.79" style="stroke:#F0F0F0;stroke-width:8.64"/>
	<line x1="1652.40" y1="1858.03" x2="1652.40" y2="1800.39" style="stroke:#F0F0F0;stroke-width:8.64"/>
	<line x1="1652.40" y1="1771.63" x2="1652.40" y2="1713.99" style="stroke:#F0F0F0;stroke-width:8.64"/>
	<line x1="1652.40" y1="1685.23" x2="1652.40" y2="1627.59" style="stroke:#F0F0F0;stroke-width:8.64"/>
	<line x1="1652.40" y1="1598.83" x2="1652.40" y2="1541.18" style="stroke:#F0F0F0;stroke-width:8.64"/>
	<line x1="1652.40" y1="1512.43" x2="1652.40" y2="1454.78" style="stroke:#F0F0F0;stroke-width:8.64"/>
	<line x1="1652.40" y1="1426.03" x2="1652.40" y2="1368.38" style="stroke:#F0F0F0;stroke-width:8.64"/>
	<line x1="1652.40" y1="1339.63" x2="1652.40" y2="1281.98" style="stroke:#F0F0F0;stroke-width:8.64"/>
	<line x1="1652.40" y1="1253.22" x2="1652.40" y2="1195.58" style="stroke:#F0F0F0;stroke-width:8.64"/>
	<line x1="1652.40" y1="1166.82" x2="1652.40" y2="1109.18" style="stroke:#F0F0F0;stroke-width:8.64"/>
	<line x1="1652.40" y1="1080.42" x2="1652.40" y2="1022.78" style="stroke:#F0F0F0;stroke-width:8.64"/>
	<line x1="1652.40" y1="994.02" x2="1652.40" y2="936.37" style="stroke:#F0F0F0;stroke-width:8.64"/>
	<line x1="1652.40" y1="907.62" x2="1652.40" y2="849.97" style="stroke:#F0F0F0;stroke-width:8.64"/>
	<line x1="1652.40" y1="821.22" x2="1652.40" y2="763.57" style="stroke:#F0F0F0;stroke-width:8.64"/>
	<line x1="1652.40" y1="734.82" x2="1652.40" y2="677.17" style="stroke:#F0F0F0;stroke-width:8.64"/>
	<line x1="1652.40" y1="648.42" x2="1652.40" y2="590.77" style="stroke:#F0F0F0;stroke-width:8.64"/>
	<line x1="1652.40" y1="562.01" x2="1652.40" y2="504.37" style="stroke:#F0F0F0;stroke-width:8.64"/>
	<line x1="1652.40" y1="475.61" x2="1652.40" y2="417.97" style="stroke:#F0F0F0;stroke-width:8.64"/>
	<line x1="1652.40" y1="389.21" x2="1652.40" y2="331.57" style="stroke:#F0F0F0;stroke-width:8.64"/>
	<line x1="1652.40" y1="302.81" x2="1652.40" y2="245.30" style="stroke:#F0F0F0;stroke-width:8.64"/>
	<line x1="2904.12" y1="2203.64" x2="2904.12" y2="2145.99" style="stroke:#F0F0F0;stroke-width:8.64"/>
	<line x1="2904.12" y1="2117.24" x2="2904.12" y2="2059.59" style="stroke:#F0F0F0;stroke-width:8.64"/>
	<line x1="2904.12" y1="2030.84" x2="2904.12" y2="1973.19" style="stroke:#F0F0F0;stroke-width:8.64"/>
	<line x1="2904.12" y1="1944.44" x2="2904.12" y2="1886.79" style="stroke:#F0F0F0;stroke-width:8.64"/>
	<line x1="2904.12" y1="1858.03" x2="2904.12" y2="1800.39" style="stroke:#F0F0F0;stroke-width:8.64"/>
	<line x1="2904.12" y1="1771.63" x2="2904.12" y2="1713.99" style="stroke:#F0F0F0;stroke-width:8.64"/>
	<line x1="2904.12" y1="1685.23" x2="2904.12" y2="1627.59" style="stroke:#F0F0F0;stroke-width:8.64"/>
	<line x1="2904.12" y1="1598.83" x2="2904.12" y2="1541.18" style="stroke:#F0F0F0;stroke-width:8.64"/>
	<line x1="2904.12" y1="1512.43" x2="2904.12" y2="1454.78" style="stroke:#F0F0F0;stroke-width:8.64"/>
	<line x1="2904.12" y1="1426.03" x2="2904.12" y2="1368.38" style="stroke:#F0F0F0;stroke-width:8.64"/>
	<line x1="2904.12" y1="1339.63" x2="2904.12" y2="1281.98" style="stroke:#F0F0F0;stroke-width:8.64"/>
	<line x1="2904.12" y1="1253.22" x2="2904.12" y2="1195.58" style="stroke:#F0F0F0;stroke-width:8.64"/>
	<line x1="2904.12" y1="1166.82" x2="2904.12" y2="1109.18" style="stroke:#F0F0F0;stroke-width:8.64"/>
	<line x1="2904.12" y1="1080.42" x2="2904.12" y2="1022.78" style="stroke:#F0F0F0;stroke-width:8.64"/>
	<line x1="2904.12" y1="994.02" x2="2904.12" y2="936.37" style="stroke:#F0F0F0;stroke-width:8.64"/>
	<line x1="2904.12" y1="907.62" x2="2904.12" y2="849.97" style="stroke:#F0F0F0;stroke-width:8.64"/>
	<line x1="2904.12" y1="821.22" x2="2904.12" y2="763.57" style="stroke:#F0F0F0;stroke-width:8.64"/>
	<line x1="2904.12" y1="734.82" x2="2904.12" y2="677.17" style="stroke:#F0F0F0;stroke-width:8.64"/>
	<line x1="2904.12" y1="648.42" x2="2904.12" y2="590.77" style="stroke:#F0F0F0;stroke-width:8.64"/>
	<line x1="2904.12" y1="562.01" x2="2904.12" y2="504.37" style="stroke:#F0F0F0;stroke-width:8.64"/>
	<line x1="2904.12" y1="475.61" x2="2904.12" y2="417.97" style="stroke:#F0F0F0;stroke-width:8.64"/>
	<line x1="2904.12" y1="389.21" x2="2904.12" y2="331.57" style="stroke:#F0F0F0;stroke-width:8.64"/>
	<line x1="2904.12" y1="302.81" x2="2904.12" y2="245.30" style="stroke:#F0F0F0;stroke-width:8.64"/>
	<line x1="4155.84" y1="2203.64" x2="4155.84" y2="2145.99" style="stroke:#F0F0F0;stroke-width:8.64"/>
	<line x1="4155.84" y1="2117.24" x2="4155.84" y2="2059.59" style="stroke:#F0F0F0;stroke-width:8.64"/>
	<line x1="4155.84" y1="2030.84" x2="4155.84" y2="1973.19" style="stroke:#F0F0F0;stroke-width:8.64"/>
	<line x1="4155.84" y1="1944.44" x2="4155.84" y2="1886.79" style="stroke:#F0F0F0;stroke-width:8.64"/>
	<line x1="4155.84" y1="1858.03" x2="4155.84" y2="1800.39" style="stroke:#F0F0F0;stroke-width:8.64"/>
	<line x1="4155.84" y1="1771.63" x2="4155.84" y2="1713.99" style="stroke:#F0F0F0;stroke-width:8.64"/>
	<line x1="4155.84" y1="1685.23" x2="4155.84" y2="1627.59" style="stroke:#F0F0F0;stroke-width:8.64"/>
	<line x1="4155.84" y1="1598.83" x2="4155.84" y2="1541.18" style="stroke:#F0F0F0;stroke-width:8.64"/>
	<line x1="4155.84" y1="1512.43" x2="4155.84" y2="1454.78" style="stroke:#F0F0F0;stroke-width:8.64"/>
	<line x1="4155.84" y1="1426.03" x2="4155.84" y2="1368.38" style="stroke:#F0F0F0;stroke-width:8.64"/>
	<line x1="4155.84" y1="1339.63" x2="4155.84" y2="1281.98" style="stroke:#F0F0F0;stroke-width:8.64"/>
	<line x1="4155.84" y1="1253.22" x2="4155.84" y2="1195.58" style="stroke:#F0F0F0;stroke-width:8.64"/>
	<line x1="4155.84" y1="1166.82" x2="4155.84" y2="1109.18" style="stroke:#F0F0F0;stroke-width:8.64"/>
	<line x1="4155.84" y1="1080.42" x2="4155.84" y2="1022.78" style="stroke:#F0F0F0;stroke-width:8.64"/>
	<line x1="4155.84" y1="994.02" x2="4155.84" y2="936.37" style="stroke:#F0F0F0;stroke-width:8.64"/>
	<line x1="4155.84" y1="907.62" x2="4155.84" y2="849.97" style="stroke:#F0F0F0;stroke-width:8.64"/>
	<line x1="4155.84" y1="821.22" x2="4155.84" y2="763.57" style="stroke:#F0F0F0;stroke-width:8.64"/>
	<line x1="4155.84" y1="734.82" x2="4155.84" y2="677.17" style="stroke:#F0F0F0;stroke-width:8.64"/>
	<line x1="4155.84" y1="648.42" x2="4155.84" y2="590.77" style="stroke:#F0F0F0;stroke-width:8.64"/>
	<line x1="4155.84" y1="562.01" x2="4155.84" y2="504.37" style="stroke:#F0F0F0;stroke-width:8.64"/>
	<line x1="4155.84" y1="475.61" x2="4155.84" y2="417.97" style="stroke:#F0F0F0;stroke-width:8.64"/>
	<line x1="4155.84" y1="389.21" x2="4155.84" y2="331.57" style="stroke:#F0F0F0;stroke-width:8.64"/>
	<line x1="4155.84" y1="302.81" x2="4155.84" y2="245.30" style="stroke:#F0F0F0;stroke-width:8.64"/>
	<defs>
		<path id="path_klQUPbPP" d="M400.82 1054.91 L400.82 1054.91 L525.96 876.70 L651.11 909.91 L776.25 971.61 L901.53 1037.09 L1026.68 1103.64 L1151.82 1170.20 L1276.96 1235.40 L1402.11 1298.18 L1527.26 1358.26 L1652.40 1415.36 L1777.68 1469.09 L1902.83 1519.58 L2027.97 1566.97 L2153.11 1611.39 L2278.26 1652.83 L2403.41 1691.44 L2528.69 1727.49 L2653.83 1761.10 L2778.98 1792.29 L2904.12 1821.45 L3029.27 1848.45 L3154.41 1873.69 L3279.56 1897.05 L3404.84 1918.78 L3404.84 1194.36 L3279.56 1167.50 L3154.41 1139.82 L3029.27 1111.74 L2904.12 1082.85 L2778.98 1053.42 L2653.83 1023.45 L2528.69 992.94 L2403.41 961.76 L2278.26 930.03 L2153.11 897.63 L2027.97 864.82 L1902.83 831.48 L1777.68 797.46 L1652.40 762.90 L1527.26 727.66 L1402.11 691.75 L1276.96 654.76 L1151.82 616.82 L1026.68 577.13 L901.53 536.23 L776.25 496.81 L651.11 474.26 L525.96 522.46 L400.82 812.31 L400.82 1054.91 Z" stroke-linejoin="round"/>
	</defs>
	<defs>
		<clipPath id="clipPath_nfZuWmld">
			<use xlink:href="#path_klQUPbPP"/>
		</clipPath>
	</defs>
	<use xlink:href="#path_klQUPbPP" style="stroke:none;fill:#E0E0E0"/>
	<use xlink:href="#path_klQUPbPP" style="fill:none;stroke:#E0E0E0;stroke-width:17.28" clip-path="url(#clipPath_nfZuWmld)"/>
	<path d=" M400.68 933.67 L525.96 699.72 L651.11 692.16 L776.25 734.28 L901.40 786.66 L1026.54 840.52 L1151.69 893.58 L1276.96 945.15 L1402.11 995.10 L1527.26 1043.03 L1652.40 1089.20 L1777.55 1133.34 L1902.69 1175.60 L2027.84 1215.96 L2153.11 1254.57 L2278.26 1291.43 L2403.41 1326.67 L2528.55 1360.28 L2653.70 1392.28 L2778.84 1422.92 L2904.12 1452.22 L3029.27 1480.16 L3154.41 1506.89 L3279.56 1532.27 L3404.70 1556.71" stroke-linejoin="round" style="fill:none;stroke:#1A85FF;stroke-width:8.64"/>
	<line x1="337.50" y1="2203.64" x2="337.50" y2="245.30" style="stroke:#000000;stroke-width:5.76"/>
	<line x1="337.50" y1="2140.32" x2="297.40" y2="2140.32" style="stroke:#000000;stroke-width:5.76"/>
	<text x="277.43" y="2175.37" style="font-family:'Helvetica';font-size:100.04px;fill:#000000" text-anchor="end">0</text>
	<line x1="337.50" y1="1529.84" x2="297.40" y2="1529.84" style="stroke:#000000;stroke-width:5.76"/>
	<text x="277.43" y="1564.89" style="font-family:'Helvetica';font-size:100.04px;fill:#000000" text-anchor="end">.1</text>
	<line x1="337.50" y1="919.23" x2="297.40" y2="919.23" style="stroke:#000000;stroke-width:5.76"/>
	<text x="277.43" y="954.28" style="font-family:'Helvetica';font-size:100.04px;fill:#000000" text-anchor="end">.2</text>
	<line x1="337.50" y1="308.75" x2="297.40" y2="308.75" style="stroke:#000000;stroke-width:5.76"/>
	<text x="277.43" y="343.80" style="font-family:'Helvetica';font-size:100.04px;fill:#000000" text-anchor="end">.3</text>
	<line x1="337.50" y1="2203.64" x2="4219.16" y2="2203.64" style="stroke:#000000;stroke-width:5.76"/>
	<line x1="400.82" y1="2203.64" x2="400.82" y2="2243.74" style="stroke:#000000;stroke-width:5.76"/>
	<text x="400.82" y="2333.67" style="font-family:'Helvetica';font-size:100.04px;fill:#000000" text-anchor="middle">0</text>
	<line x1="1652.40" y1="2203.64" x2="1652.40" y2="2243.74" style="stroke:#000000;stroke-width:5.76"/>
	<text x="1652.40" y="2333.67" style="font-family:'Helvetica';font-size:100.04px;fill:#000000" text-anchor="middle">10</text>
	<line x1="2904.12" y1="2203.64" x2="2904.12" y2="2243.74" style="stroke:#000000;stroke-width:5.76"/>
	<text x="2904.12" y="2333.67" style="font-family:'Helvetica';font-size:100.04px;fill:#000000" text-anchor="middle">20</text>
	<line x1="4155.84" y1="2203.64" x2="4155.84" y2="2243.74" style="stroke:#000000;stroke-width:5.76"/>
	<text x="4155.84" y="2333.67" style="font-family:'Helvetica';font-size:100.04px;fill:#000000" text-anchor="middle">30</text>
	<text x="2278.26" y="2473.67" style="font-family:'Helvetica';font-size:100.04px;fill:#000000" text-anchor="middle">Step</text>
	<rect x="1257.80" y="2558.29" width="2040.93" height="186.30" style="fill:#FFFFFF"/>
	<rect x="1260.67" y="2561.17" width="2035.17" height="180.54" style="fill:none;stroke:#FFFFFF;stroke-width:5.76"/>
	<rect x="1300.99" y="2601.49" width="230.45" height="99.90" style="fill:#E0E0E0"/>
	<rect x="1305.31" y="2605.81" width="221.81" height="91.26" style="fill:none;stroke:#E0E0E0;stroke-width:8.64"/>
	<line x1="2072.66" y1="2651.44" x2="2303.10" y2="2651.44" style="stroke:#1A85FF;stroke-width:8.64"/>
	<text x="1591.38" y="2686.49" style="font-family:'Helvetica';font-size:100.04px;fill:#000000">90% CI</text>
	<text x="2363.04" y="2686.49" style="font-family:'Helvetica';font-size:100.04px;fill:#000000">Orthogonalized IRF</text>
	<rect x="337.50" y="100.85" width="3881.66" height="144.45" style="fill:#F0F0F0;stroke:#000000;stroke-width:5.76"/>
	<text x="2278.26" y="211.62" style="font-family:'Helvetica';font-size:110.03px;fill:#000000" text-anchor="middle">irf_P7: DGS102 -&gt; DGS102</text>
</svg>
