<?xml version="1.0" encoding="UTF-8" standalone="no"?>
<!-- This is a Stata 18.0 generated SVG file (http://www.stata.com) -->

<svg version="1.1" width="6.000in" height="4.000in" viewBox="0 0 4320 2880" xmlns="http://www.w3.org/2000/svg" xmlns:xlink="http://www.w3.org/1999/xlink">
	<desc>Stata Graph - irfr1</desc>
	<rect x="0" y="0" width="4320" height="2880" style="fill:#FFFFFF;stroke:none"/>
	<rect x="0.00" y="0.00" width="4320.00" height="2880.00" style="fill:#FFFFFF"/>
	<rect x="2.88" y="2.88" width="4314.24" height="2874.24" style="fill:none;stroke:#FFFFFF;stroke-width:5.76"/>
	<rect x="337.50" y="245.30" width="3881.66" height="1958.34" style="fill:#FFFFFF"/>
	<rect x="340.38" y="248.18" width="3875.90" height="1952.58" style="fill:none;stroke:#FFFFFF;stroke-width:5.76"/>
	<line x1="337.50" y1="2140.32" x2="395.15" y2="2140.32" style="stroke:#F0F0F0;stroke-width:8.64"/>
	<line x1="423.90" y1="2140.32" x2="481.55" y2="2140.32" style="stroke:#F0F0F0;stroke-width:8.64"/>
	<line x1="510.30" y1="2140.32" x2="567.95" y2="2140.32" style="stroke:#F0F0F0;stroke-width:8.64"/>
	<line x1="596.70" y1="2140.32" x2="654.35" y2="2140.32" style="stroke:#F0F0F0;stroke-width:8.64"/>
	<line x1="683.10" y1="2140.32" x2="740.75" y2="2140.32" style="stroke:#F0F0F0;stroke-width:8.64"/>
	<line x1="769.50" y1="2140.32" x2="827.15" y2="2140.32" style="stroke:#F0F0F0;stroke-width:8.64"/>
	<line x1="855.90" y1="2140.32" x2="913.55" y2="2140.32" style="stroke:#F0F0F0;stroke-width:8.64"/>
	<line x1="942.30" y1="2140.32" x2="999.95" y2="2140.32" style="stroke:#F0F0F0;stroke-width:8.64"/>
	<line x1="1028.70" y1="2140.32" x2="1086.35" y2="2140.32" style="stroke:#F0F0F0;stroke-width:8.64"/>
	<line x1="1115.10" y1="2140.32" x2="1172.74" y2="2140.32" style="stroke:#F0F0F0;stroke-width:8.64"/>
	<line x1="1201.50" y1="2140.32" x2="1259.15" y2="2140.32" style="stroke:#F0F0F0;stroke-width:8.64"/>
	<line x1="1287.90" y1="2140.32" x2="1345.55" y2="2140.32" style="stroke:#F0F0F0;stroke-width:8.64"/>
	<line x1="1374.30" y1="2140.32" x2="1431.95" y2="2140.32" style="stroke:#F0F0F0;stroke-width:8.64"/>
	<line x1="1460.70" y1="2140.32" x2="1518.35" y2="2140.32" style="stroke:#F0F0F0;stroke-width:8.64"/>
	<line x1="1547.10" y1="2140.32" x2="1604.75" y2="2140.32" style="stroke:#F0F0F0;stroke-width:8.64"/>
	<line x1="1633.50" y1="2140.32" x2="1691.15" y2="2140.32" style="stroke:#F0F0F0;stroke-width:8.64"/>
	<line x1="1719.90" y1="2140.32" x2="1777.55" y2="2140.32" style="stroke:#F0F0F0;stroke-width:8.64"/>
	<line x1="1806.30" y1="2140.32" x2="1863.95" y2="2140.32" style="stroke:#F0F0F0;stroke-width:8.64"/>
	<line x1="1892.70" y1="2140.32" x2="1950.35" y2="2140.32" style="stroke:#F0F0F0;stroke-width:8.64"/>
	<line x1="1979.10" y1="2140.32" x2="2036.75" y2="2140.32" style="stroke:#F0F0F0;stroke-width:8.64"/>
	<line x1="2065.50" y1="2140.32" x2="2123.15" y2="2140.32" style="stroke:#F0F0F0;stroke-width:8.64"/>
	<line x1="2151.90" y1="2140.32" x2="2209.55" y2="2140.32" style="stroke:#F0F0F0;stroke-width:8.64"/>
	<line x1="2238.30" y1="2140.32" x2="2295.95" y2="2140.32" style="stroke:#F0F0F0;stroke-width:8.64"/>
	<line x1="2324.70" y1="2140.32" x2="2382.34" y2="2140.32" style="stroke:#F0F0F0;stroke-width:8.64"/>
	<line x1="2411.10" y1="2140.32" x2="2468.75" y2="2140.32" style="stroke:#F0F0F0;stroke-width:8.64"/>
	<line x1="2497.50" y1="2140.32" x2="2555.15" y2="2140.32" style="stroke:#F0F0F0;stroke-width:8.64"/>
	<line x1="2583.90" y1="2140.32" x2="2641.55" y2="2140.32" style="stroke:#F0F0F0;stroke-width:8.64"/>
	<line x1="2670.30" y1="2140.32" x2="2727.95" y2="2140.32" style="stroke:#F0F0F0;stroke-width:8.64"/>
	<line x1="2756.70" y1="2140.32" x2="2814.35" y2="2140.32" style="stroke:#F0F0F0;stroke-width:8.64"/>
	<line x1="2843.10" y1="2140.32" x2="2900.75" y2="2140.32" style="stroke:#F0F0F0;stroke-width:8.64"/>
	<line x1="2929.50" y1="2140.32" x2="2987.15" y2="2140.32" style="stroke:#F0F0F0;stroke-width:8.64"/>
	<line x1="3015.90" y1="2140.32" x2="3073.55" y2="2140.32" style="stroke:#F0F0F0;stroke-width:8.64"/>
	<line x1="3102.30" y1="2140.32" x2="3159.95" y2="2140.32" style="stroke:#F0F0F0;stroke-width:8.64"/>
	<line x1="3188.70" y1="2140.32" x2="3246.35" y2="2140.32" style="stroke:#F0F0F0;stroke-width:8.64"/>
	<line x1="3275.10" y1="2140.32" x2="3332.75" y2="2140.32" style="stroke:#F0F0F0;stroke-width:8.64"/>
	<line x1="3361.50" y1="2140.32" x2="3419.15" y2="2140.32" style="stroke:#F0F0F0;stroke-width:8.64"/>
	<line x1="3447.90" y1="2140.32" x2="3505.55" y2="2140.32" style="stroke:#F0F0F0;stroke-width:8.64"/>
	<line x1="3534.30" y1="2140.32" x2="3591.95" y2="2140.32" style="stroke:#F0F0F0;stroke-width:8.64"/>
	<line x1="3620.70" y1="2140.32" x2="3678.35" y2="2140.32" style="stroke:#F0F0F0;stroke-width:8.64"/>
	<line x1="3707.10" y1="2140.32" x2="3764.75" y2="2140.32" style="stroke:#F0F0F0;stroke-width:8.64"/>
	<line x1="3793.50" y1="2140.32" x2="3851.15" y2="2140.32" style="stroke:#F0F0F0;stroke-width:8.64"/>
	<line x1="3879.90" y1="2140.32" x2="3937.55" y2="2140.32" style="stroke:#F0F0F0;stroke-width:8.64"/>
	<line x1="3966.30" y1="2140.32" x2="4023.95" y2="2140.32" style="stroke:#F0F0F0;stroke-width:8.64"/>
	<line x1="4052.70" y1="2140.32" x2="4110.35" y2="2140.32" style="stroke:#F0F0F0;stroke-width:8.64"/>
	<line x1="4139.10" y1="2140.32" x2="4196.75" y2="2140.32" style="stroke:#F0F0F0;stroke-width:8.64"/>
	<line x1="337.50" y1="1529.84" x2="395.15" y2="1529.84" style="stroke:#F0F0F0;stroke-width:8.64"/>
	<line x1="423.90" y1="1529.84" x2="481.55" y2="1529.84" style="stroke:#F0F0F0;stroke-width:8.64"/>
	<line x1="510.30" y1="1529.84" x2="567.95" y2="1529.84" style="stroke:#F0F0F0;stroke-width:8.64"/>
	<line x1="596.70" y1="1529.84" x2="654.35" y2="1529.84" style="stroke:#F0F0F0;stroke-width:8.64"/>
	<line x1="683.10" y1="1529.84" x2="740.75" y2="1529.84" style="stroke:#F0F0F0;stroke-width:8.64"/>
	<line x1="769.50" y1="1529.84" x2="827.15" y2="1529.84" style="stroke:#F0F0F0;stroke-width:8.64"/>
	<line x1="855.90" y1="1529.84" x2="913.55" y2="1529.84" style="stroke:#F0F0F0;stroke-width:8.64"/>
	<line x1="942.30" y1="1529.84" x2="999.95" y2="1529.84" style="stroke:#F0F0F0;stroke-width:8.64"/>
	<line x1="1028.70" y1="1529.84" x2="1086.35" y2="1529.84" style="stroke:#F0F0F0;stroke-width:8.64"/>
	<line x1="1115.10" y1="1529.84" x2="1172.74" y2="1529.84" style="stroke:#F0F0F0;stroke-width:8.64"/>
	<line x1="1201.50" y1="1529.84" x2="1259.15" y2="1529.84" style="stroke:#F0F0F0;stroke-width:8.64"/>
	<line x1="1287.90" y1="1529.84" x2="1345.55" y2="1529.84" style="stroke:#F0F0F0;stroke-width:8.64"/>
	<line x1="1374.30" y1="1529.84" x2="1431.95" y2="1529.84" style="stroke:#F0F0F0;stroke-width:8.64"/>
	<line x1="1460.70" y1="1529.84" x2="1518.35" y2="1529.84" style="stroke:#F0F0F0;stroke-width:8.64"/>
	<line x1="1547.10" y1="1529.84" x2="1604.75" y2="1529.84" style="stroke:#F0F0F0;stroke-width:8.64"/>
	<line x1="1633.50" y1="1529.84" x2="1691.15" y2="1529.84" style="stroke:#F0F0F0;stroke-width:8.64"/>
	<line x1="1719.90" y1="1529.84" x2="1777.55" y2="1529.84" style="stroke:#F0F0F0;stroke-width:8.64"/>
	<line x1="1806.30" y1="1529.84" x2="1863.95" y2="1529.84" style="stroke:#F0F0F0;stroke-width:8.64"/>
	<line x1="1892.70" y1="1529.84" x2="1950.35" y2="1529.84" style="stroke:#F0F0F0;stroke-width:8.64"/>
	<line x1="1979.10" y1="1529.84" x2="2036.75" y2="1529.84" style="stroke:#F0F0F0;stroke-width:8.64"/>
	<line x1="2065.50" y1="1529.84" x2="2123.15" y2="1529.84" style="stroke:#F0F0F0;stroke-width:8.64"/>
	<line x1="2151.90" y1="1529.84" x2="2209.55" y2="1529.84" style="stroke:#F0F0F0;stroke-width:8.64"/>
	<line x1="2238.30" y1="1529.84" x2="2295.95" y2="1529.84" style="stroke:#F0F0F0;stroke-width:8.64"/>
	<line x1="2324.70" y1="1529.84" x2="2382.34" y2="1529.84" style="stroke:#F0F0F0;stroke-width:8.64"/>
	<line x1="2411.10" y1="1529.84" x2="2468.75" y2="1529.84" style="stroke:#F0F0F0;stroke-width:8.64"/>
	<line x1="2497.50" y1="1529.84" x2="2555.15" y2="1529.84" style="stroke:#F0F0F0;stroke-width:8.64"/>
	<line x1="2583.90" y1="1529.84" x2="2641.55" y2="1529.84" style="stroke:#F0F0F0;stroke-width:8.64"/>
	<line x1="2670.30" y1="1529.84" x2="2727.95" y2="1529.84" style="stroke:#F0F0F0;stroke-width:8.64"/>
	<line x1="2756.70" y1="1529.84" x2="2814.35" y2="1529.84" style="stroke:#F0F0F0;stroke-width:8.64"/>
	<line x1="2843.10" y1="1529.84" x2="2900.75" y2="1529.84" style="stroke:#F0F0F0;stroke-width:8.64"/>
	<line x1="2929.50" y1="1529.84" x2="2987.15" y2="1529.84" style="stroke:#F0F0F0;stroke-width:8.64"/>
	<line x1="3015.90" y1="1529.84" x2="3073.55" y2="1529.84" style="stroke:#F0F0F0;stroke-width:8.64"/>
	<line x1="3102.30" y1="1529.84" x2="3159.95" y2="1529.84" style="stroke:#F0F0F0;stroke-width:8.64"/>
	<line x1="3188.70" y1="1529.84" x2="3246.35" y2="1529.84" style="stroke:#F0F0F0;stroke-width:8.64"/>
	<line x1="3275.10" y1="1529.84" x2="3332.75" y2="1529.84" style="stroke:#F0F0F0;stroke-width:8.64"/>
	<line x1="3361.50" y1="1529.84" x2="3419.15" y2="1529.84" style="stroke:#F0F0F0;stroke-width:8.64"/>
	<line x1="3447.90" y1="1529.84" x2="3505.55" y2="1529.84" style="stroke:#F0F0F0;stroke-width:8.64"/>
	<line x1="3534.30" y1="1529.84" x2="3591.95" y2="1529.84" style="stroke:#F0F0F0;stroke-width:8.64"/>
	<line x1="3620.70" y1="1529.84" x2="3678.35" y2="1529.84" style="stroke:#F0F0F0;stroke-width:8.64"/>
	<line x1="3707.10" y1="1529.84" x2="3764.75" y2="1529.84" style="stroke:#F0F0F0;stroke-width:8.64"/>
	<line x1="3793.50" y1="1529.84" x2="3851.15" y2="1529.84" style="stroke:#F0F0F0;stroke-width:8.64"/>
	<line x1="3879.90" y1="1529.84" x2="3937.55" y2="1529.84" style="stroke:#F0F0F0;stroke-width:8.64"/>
	<line x1="3966.30" y1="1529.84" x2="4023.95" y2="1529.84" style="stroke:#F0F0F0;stroke-width:8.64"/>
	<line x1="4052.70" y1="1529.84" x2="4110.35" y2="1529.84" style="stroke:#F0F0F0;stroke-width:8.64"/>
	<line x1="4139.10" y1="1529.84" x2="4196.75" y2="1529.84" style="stroke:#F0F0F0;stroke-width:8.64"/>
	<line x1="337.50" y1="919.23" x2="395.15" y2="919.23" style="stroke:#F0F0F0;stroke-width:8.64"/>
	<line x1="423.90" y1="919.23" x2="481.55" y2="919.23" style="stroke:#F0F0F0;stroke-width:8.64"/>
	<line x1="510.30" y1="919.23" x2="567.95" y2="919.23" style="stroke:#F0F0F0;stroke-width:8.64"/>
	<line x1="596.70" y1="919.23" x2="654.35" y2="919.23" style="stroke:#F0F0F0;stroke-width:8.64"/>
	<line x1="683.10" y1="919.23" x2="740.75" y2="919.23" style="stroke:#F0F0F0;stroke-width:8.64"/>
	<line x1="769.50" y1="919.23" x2="827.15" y2="919.23" style="stroke:#F0F0F0;stroke-width:8.64"/>
	<line x1="855.90" y1="919.23" x2="913.55" y2="919.23" style="stroke:#F0F0F0;stroke-width:8.64"/>
	<line x1="942.30" y1="919.23" x2="999.95" y2="919.23" style="stroke:#F0F0F0;stroke-width:8.64"/>
	<line x1="1028.70" y1="919.23" x2="1086.35" y2="919.23" style="stroke:#F0F0F0;stroke-width:8.64"/>
	<line x1="1115.10" y1="919.23" x2="1172.74" y2="919.23" style="stroke:#F0F0F0;stroke-width:8.64"/>
	<line x1="1201.50" y1="919.23" x2="1259.15" y2="919.23" style="stroke:#F0F0F0;stroke-width:8.64"/>
	<line x1="1287.90" y1="919.23" x2="1345.55" y2="919.23" style="stroke:#F0F0F0;stroke-width:8.64"/>
	<line x1="1374.30" y1="919.23" x2="1431.95" y2="919.23" style="stroke:#F0F0F0;stroke-width:8.64"/>
	<line x1="1460.70" y1="919.23" x2="1518.35" y2="919.23" style="stroke:#F0F0F0;stroke-width:8.64"/>
	<line x1="1547.10" y1="919.23" x2="1604.75" y2="919.23" style="stroke:#F0F0F0;stroke-width:8.64"/>
	<line x1="1633.50" y1="919.23" x2="1691.15" y2="919.23" style="stroke:#F0F0F0;stroke-width:8.64"/>
	<line x1="1719.90" y1="919.23" x2="1777.55" y2="919.23" style="stroke:#F0F0F0;stroke-width:8.64"/>
	<line x1="1806.30" y1="919.23" x2="1863.95" y2="919.23" style="stroke:#F0F0F0;stroke-width:8.64"/>
	<line x1="1892.70" y1="919.23" x2="1950.35" y2="919.23" style="stroke:#F0F0F0;stroke-width:8.64"/>
	<line x1="1979.10" y1="919.23" x2="2036.75" y2="919.23" style="stroke:#F0F0F0;stroke-width:8.64"/>
	<line x1="2065.50" y1="919.23" x2="2123.15" y2="919.23" style="stroke:#F0F0F0;stroke-width:8.64"/>
	<line x1="2151.90" y1="919.23" x2="2209.55" y2="919.23" style="stroke:#F0F0F0;stroke-width:8.64"/>
	<line x1="2238.30" y1="919.23" x2="2295.95" y2="919.23" style="stroke:#F0F0F0;stroke-width:8.64"/>
	<line x1="2324.70" y1="919.23" x2="2382.34" y2="919.23" style="stroke:#F0F0F0;stroke-width:8.64"/>
	<line x1="2411.10" y1="919.23" x2="2468.75" y2="919.23" style="stroke:#F0F0F0;stroke-width:8.64"/>
	<line x1="2497.50" y1="919.23" x2="2555.15" y2="919.23" style="stroke:#F0F0F0;stroke-width:8.64"/>
	<line x1="2583.90" y1="919.23" x2="2641.55" y2="919.23" style="stroke:#F0F0F0;stroke-width:8.64"/>
	<line x1="2670.30" y1="919.23" x2="2727.95" y2="919.23" style="stroke:#F0F0F0;stroke-width:8.64"/>
	<line x1="2756.70" y1="919.23" x2="2814.35" y2="919.23" style="stroke:#F0F0F0;stroke-width:8.64"/>
	<line x1="2843.10" y1="919.23" x2="2900.75" y2="919.23" style="stroke:#F0F0F0;stroke-width:8.64"/>
	<line x1="2929.50" y1="919.23" x2="2987.15" y2="919.23" style="stroke:#F0F0F0;stroke-width:8.64"/>
	<line x1="3015.90" y1="919.23" x2="3073.55" y2="919.23" style="stroke:#F0F0F0;stroke-width:8.64"/>
	<line x1="3102.30" y1="919.23" x2="3159.95" y2="919.23" style="stroke:#F0F0F0;stroke-width:8.64"/>
	<line x1="3188.70" y1="919.23" x2="3246.35" y2="919.23" style="stroke:#F0F0F0;stroke-width:8.64"/>
	<line x1="3275.10" y1="919.23" x2="3332.75" y2="919.23" style="stroke:#F0F0F0;stroke-width:8.64"/>
	<line x1="3361.50" y1="919.23" x2="3419.15" y2="919.23" style="stroke:#F0F0F0;stroke-width:8.64"/>
	<line x1="3447.90" y1="919.23" x2="3505.55" y2="919.23" style="stroke:#F0F0F0;stroke-width:8.64"/>
	<line x1="3534.30" y1="919.23" x2="3591.95" y2="919.23" style="stroke:#F0F0F0;stroke-width:8.64"/>
	<line x1="3620.70" y1="919.23" x2="3678.35" y2="919.23" style="stroke:#F0F0F0;stroke-width:8.64"/>
	<line x1="3707.10" y1="919.23" x2="3764.75" y2="919.23" style="stroke:#F0F0F0;stroke-width:8.64"/>
	<line x1="3793.50" y1="919.23" x2="3851.15" y2="919.23" style="stroke:#F0F0F0;stroke-width:8.64"/>
	<line x1="3879.90" y1="919.23" x2="3937.55" y2="919.23" style="stroke:#F0F0F0;stroke-width:8.64"/>
	<line x1="3966.30" y1="919.23" x2="4023.95" y2="919.23" style="stroke:#F0F0F0;stroke-width:8.64"/>
	<line x1="4052.70" y1="919.23" x2="4110.35" y2="919.23" style="stroke:#F0F0F0;stroke-width:8.64"/>
	<line x1="4139.10" y1="919.23" x2="4196.75" y2="919.23" style="stroke:#F0F0F0;stroke-width:8.64"/>
	<line x1="337.50" y1="308.75" x2="395.15" y2="308.75" style="stroke:#F0F0F0;stroke-width:8.64"/>
	<line x1="423.90" y1="308.75" x2="481.55" y2="308.75" style="stroke:#F0F0F0;stroke-width:8.64"/>
	<line x1="510.30" y1="308.75" x2="567.95" y2="308.75" style="stroke:#F0F0F0;stroke-width:8.64"/>
	<line x1="596.70" y1="308.75" x2="654.35" y2="308.75" style="stroke:#F0F0F0;stroke-width:8.64"/>
	<line x1="683.10" y1="308.75" x2="740.75" y2="308.75" style="stroke:#F0F0F0;stroke-width:8.64"/>
	<line x1="769.50" y1="308.75" x2="827.15" y2="308.75" style="stroke:#F0F0F0;stroke-width:8.64"/>
	<line x1="855.90" y1="308.75" x2="913.55" y2="308.75" style="stroke:#F0F0F0;stroke-width:8.64"/>
	<line x1="942.30" y1="308.75" x2="999.95" y2="308.75" style="stroke:#F0F0F0;stroke-width:8.64"/>
	<line x1="1028.70" y1="308.75" x2="1086.35" y2="308.75" style="stroke:#F0F0F0;stroke-width:8.64"/>
	<line x1="1115.10" y1="308.75" x2="1172.74" y2="308.75" style="stroke:#F0F0F0;stroke-width:8.64"/>
	<line x1="1201.50" y1="308.75" x2="1259.15" y2="308.75" style="stroke:#F0F0F0;stroke-width:8.64"/>
	<line x1="1287.90" y1="308.75" x2="1345.55" y2="308.75" style="stroke:#F0F0F0;stroke-width:8.64"/>
	<line x1="1374.30" y1="308.75" x2="1431.95" y2="308.75" style="stroke:#F0F0F0;stroke-width:8.64"/>
	<line x1="1460.70" y1="308.75" x2="1518.35" y2="308.75" style="stroke:#F0F0F0;stroke-width:8.64"/>
	<line x1="1547.10" y1="308.75" x2="1604.75" y2="308.75" style="stroke:#F0F0F0;stroke-width:8.64"/>
	<line x1="1633.50" y1="308.75" x2="1691.15" y2="308.75" style="stroke:#F0F0F0;stroke-width:8.64"/>
	<line x1="1719.90" y1="308.75" x2="1777.55" y2="308.75" style="stroke:#F0F0F0;stroke-width:8.64"/>
	<line x1="1806.30" y1="308.75" x2="1863.95" y2="308.75" style="stroke:#F0F0F0;stroke-width:8.64"/>
	<line x1="1892.70" y1="308.75" x2="1950.35" y2="308.75" style="stroke:#F0F0F0;stroke-width:8.64"/>
	<line x1="1979.10" y1="308.75" x2="2036.75" y2="308.75" style="stroke:#F0F0F0;stroke-width:8.64"/>
	<line x1="2065.50" y1="308.75" x2="2123.15" y2="308.75" style="stroke:#F0F0F0;stroke-width:8.64"/>
	<line x1="2151.90" y1="308.75" x2="2209.55" y2="308.75" style="stroke:#F0F0F0;stroke-width:8.64"/>
	<line x1="2238.30" y1="308.75" x2="2295.95" y2="308.75" style="stroke:#F0F0F0;stroke-width:8.64"/>
	<line x1="2324.70" y1="308.75" x2="2382.34" y2="308.75" style="stroke:#F0F0F0;stroke-width:8.64"/>
	<line x1="2411.10" y1="308.75" x2="2468.75" y2="308.75" style="stroke:#F0F0F0;stroke-width:8.64"/>
	<line x1="2497.50" y1="308.75" x2="2555.15" y2="308.75" style="stroke:#F0F0F0;stroke-width:8.64"/>
	<line x1="2583.90" y1="308.75" x2="2641.55" y2="308.75" style="stroke:#F0F0F0;stroke-width:8.64"/>
	<line x1="2670.30" y1="308.75" x2="2727.95" y2="308.75" style="stroke:#F0F0F0;stroke-width:8.64"/>
	<line x1="2756.70" y1="308.75" x2="2814.35" y2="308.75" style="stroke:#F0F0F0;stroke-width:8.64"/>
	<line x1="2843.10" y1="308.75" x2="2900.75" y2="308.75" style="stroke:#F0F0F0;stroke-width:8.64"/>
	<line x1="2929.50" y1="308.75" x2="2987.15" y2="308.75" style="stroke:#F0F0F0;stroke-width:8.64"/>
	<line x1="3015.90" y1="308.75" x2="3073.55" y2="308.75" style="stroke:#F0F0F0;stroke-width:8.64"/>
	<line x1="3102.30" y1="308.75" x2="3159.95" y2="308.75" style="stroke:#F0F0F0;stroke-width:8.64"/>
	<line x1="3188.70" y1="308.75" x2="3246.35" y2="308.75" style="stroke:#F0F0F0;stroke-width:8.64"/>
	<line x1="3275.10" y1="308.75" x2="3332.75" y2="308.75" style="stroke:#F0F0F0;stroke-width:8.64"/>
	<line x1="3361.50" y1="308.75" x2="3419.15" y2="308.75" style="stroke:#F0F0F0;stroke-width:8.64"/>
	<line x1="3447.90" y1="308.75" x2="3505.55" y2="308.75" style="stroke:#F0F0F0;stroke-width:8.64"/>
	<line x1="3534.30" y1="308.75" x2="3591.95" y2="308.75" style="stroke:#F0F0F0;stroke-width:8.64"/>
	<line x1="3620.70" y1="308.75" x2="3678.35" y2="308.75" style="stroke:#F0F0F0;stroke-width:8.64"/>
	<line x1="3707.10" y1="308.75" x2="3764.75" y2="308.75" style="stroke:#F0F0F0;stroke-width:8.64"/>
	<line x1="3793.50" y1="308.75" x2="3851.15" y2="308.75" style="stroke:#F0F0F0;stroke-width:8.64"/>
	<line x1="3879.90" y1="308.75" x2="3937.55" y2="308.75" style="stroke:#F0F0F0;stroke-width:8.64"/>
	<line x1="3966.30" y1="308.75" x2="4023.95" y2="308.75" style="stroke:#F0F0F0;stroke-width:8.64"/>
	<line x1="4052.70" y1="308.75" x2="4110.35" y2="308.75" style="stroke:#F0F0F0;stroke-width:8.64"/>
	<line x1="4139.10" y1="308.75" x2="4196.75" y2="308.75" style="stroke:#F0F0F0;stroke-width:8.64"/>
	<line x1="400.82" y1="2203.64" x2="400.82" y2="2145.99" style="stroke:#F0F0F0;stroke-width:8.64"/>
	<line x1="400.82" y1="2117.24" x2="400.82" y2="2059.59" style="stroke:#F0F0F0;stroke-width:8.64"/>
	<line x1="400.82" y1="2030.84" x2="400.82" y2="1973.19" style="stroke:#F0F0F0;stroke-width:8.64"/>
	<line x1="400.82" y1="1944.44" x2="400.82" y2="1886.79" style="stroke:#F0F0F0;stroke-width:8.64"/>
	<line x1="400.82" y1="1858.03" x2="400.82" y2="1800.39" style="stroke:#F0F0F0;stroke-width:8.64"/>
	<line x1="400.82" y1="1771.63" x2="400.82" y2="1713.99" style="stroke:#F0F0F0;stroke-width:8.64"/>
	<line x1="400.82" y1="1685.23" x2="400.82" y2="1627.59" style="stroke:#F0F0F0;stroke-width:8.64"/>
	<line x1="400.82" y1="1598.83" x2="400.82" y2="1541.18" style="stroke:#F0F0F0;stroke-width:8.64"/>
	<line x1="400.82" y1="1512.43" x2="400.82" y2="1454.78" style="stroke:#F0F0F0;stroke-width:8.64"/>
	<line x1="400.82" y1="1426.03" x2="400.82" y2="1368.38" style="stroke:#F0F0F0;stroke-width:8.64"/>
	<line x1="400.82" y1="1339.63" x2="400.82" y2="1281.98" style="stroke:#F0F0F0;stroke-width:8.64"/>
	<line x1="400.82" y1="1253.22" x2="400.82" y2="1195.58" style="stroke:#F0F0F0;stroke-width:8.64"/>
	<line x1="400.82" y1="1166.82" x2="400.82" y2="1109.18" style="stroke:#F0F0F0;stroke-width:8.64"/>
	<line x1="400.82" y1="1080.42" x2="400.82" y2="1022.78" style="stroke:#F0F0F0;stroke-width:8.64"/>
	<line x1="400.82" y1="994.02" x2="400.82" y2="936.37" style="stroke:#F0F0F0;stroke-width:8.64"/>
	<line x1="400.82" y1="907.62" x2="400.82" y2="849.97" style="stroke:#F0F0F0;stroke-width:8.64"/>
	<line x1="400.82" y1="821.22" x2="400.82" y2="763.57" style="stroke:#F0F0F0;stroke-width:8.64"/>
	<line x1="400.82" y1="734.82" x2="400.82" y2="677.17" style="stroke:#F0F0F0;stroke-width:8.64"/>
	<line x1="400.82" y1="648.42" x2="400.82" y2="590.77" style="stroke:#F0F0F0;stroke-width:8.64"/>
	<line x1="400.82" y1="562.01" x2="400.82" y2="504.37" style="stroke:#F0F0F0;stroke-width:8.64"/>
	<line x1="400.82" y1="475.61" x2="400.82" y2="417.97" style="stroke:#F0F0F0;stroke-width:8.64"/>
	<line x1="400.82" y1="389.21" x2="400.82" y2="331.57" style="stroke:#F0F0F0;stroke-width:8.64"/>
	<line x1="400.82" y1="302.81" x2="400.82" y2="245.30" style="stroke:#F0F0F0;stroke-width:8.64"/>
	<line x1="1652.40" y1="2203.64" x2="1652.40" y2="2145.99" style="stroke:#F0F0F0;stroke-width:8.64"/>
	<line x1="1652.40" y1="2117.24" x2="1652.40" y2="2059.59" style="stroke:#F0F0F0;stroke-width:8.64"/>
	<line x1="1652.40" y1="2030.84" x2="1652.40" y2="1973.19" style="stroke:#F0F0F0;stroke-width:8.64"/>
	<line x1="1652.40" y1="1944.44" x2="1652.40" y2="1886.79" style="stroke:#F0F0F0;stroke-width:8.64"/>
	<line x1="1652.40" y1="1858.03" x2="1652.40" y2="1800.39" style="stroke:#F0F0F0;stroke-width:8.64"/>
	<line x1="1652.40" y1="1771.63" x2="1652.40" y2="1713.99" style="stroke:#F0F0F0;stroke-width:8.64"/>
	<line x1="1652.40" y1="1685.23" x2="1652.40" y2="1627.59" style="stroke:#F0F0F0;stroke-width:8.64"/>
	<line x1="1652.40" y1="1598.83" x2="1652.40" y2="1541.18" style="stroke:#F0F0F0;stroke-width:8.64"/>
	<line x1="1652.40" y1="1512.43" x2="1652.40" y2="1454.78" style="stroke:#F0F0F0;stroke-width:8.64"/>
	<line x1="1652.40" y1="1426.03" x2="1652.40" y2="1368.38" style="stroke:#F0F0F0;stroke-width:8.64"/>
	<line x1="1652.40" y1="1339.63" x2="1652.40" y2="1281.98" style="stroke:#F0F0F0;stroke-width:8.64"/>
	<line x1="1652.40" y1="1253.22" x2="1652.40" y2="1195.58" style="stroke:#F0F0F0;stroke-width:8.64"/>
	<line x1="1652.40" y1="1166.82" x2="1652.40" y2="1109.18" style="stroke:#F0F0F0;stroke-width:8.64"/>
	<line x1="1652.40" y1="1080.42" x2="1652.40" y2="1022.78" style="stroke:#F0F0F0;stroke-width:8.64"/>
	<line x1="1652.40" y1="994.02" x2="1652.40" y2="936.37" style="stroke:#F0F0F0;stroke-width:8.64"/>
	<line x1="1652.40" y1="907.62" x2="1652.40" y2="849.97" style="stroke:#F0F0F0;stroke-width:8.64"/>
	<line x1="1652.40" y1="821.22" x2="1652.40" y2="763.57" style="stroke:#F0F0F0;stroke-width:8.64"/>
	<line x1="1652.40" y1="734.82" x2="1652.40" y2="677.17" style="stroke:#F0F0F0;stroke-width:8.64"/>
	<line x1="1652.40" y1="648.42" x2="1652.40" y2="590.77" style="stroke:#F0F0F0;stroke-width:8.64"/>
	<line x1="1652.40" y1="562.01" x2="1652.40" y2="504.37" style="stroke:#F0F0F0;stroke-width:8.64"/>
	<line x1="1652.40" y1="475.61" x2="1652.40" y2="417.97" style="stroke:#F0F0F0;stroke-width:8.64"/>
	<line x1="1652.40" y1="389.21" x2="1652.40" y2="331.57" style="stroke:#F0F0F0;stroke-width:8.64"/>
	<line x1="1652.40" y1="302.81" x2="1652.40" y2="245.30" style="stroke:#F0F0F0;stroke-width:8.64"/>
	<line x1="2904.12" y1="2203.64" x2="2904.12" y2="2145.99" style="stroke:#F0F0F0;stroke-width:8.64"/>
	<line x1="2904.12" y1="2117.24" x2="2904.12" y2="2059.59" style="stroke:#F0F0F0;stroke-width:8.64"/>
	<line x1="2904.12" y1="2030.84" x2="2904.12" y2="1973.19" style="stroke:#F0F0F0;stroke-width:8.64"/>
	<line x1="2904.12" y1="1944.44" x2="2904.12" y2="1886.79" style="stroke:#F0F0F0;stroke-width:8.64"/>
	<line x1="2904.12" y1="1858.03" x2="2904.12" y2="1800.39" style="stroke:#F0F0F0;stroke-width:8.64"/>
	<line x1="2904.12" y1="1771.63" x2="2904.12" y2="1713.99" style="stroke:#F0F0F0;stroke-width:8.64"/>
	<line x1="2904.12" y1="1685.23" x2="2904.12" y2="1627.59" style="stroke:#F0F0F0;stroke-width:8.64"/>
	<line x1="2904.12" y1="1598.83" x2="2904.12" y2="1541.18" style="stroke:#F0F0F0;stroke-width:8.64"/>
	<line x1="2904.12" y1="1512.43" x2="2904.12" y2="1454.78" style="stroke:#F0F0F0;stroke-width:8.64"/>
	<line x1="2904.12" y1="1426.03" x2="2904.12" y2="1368.38" style="stroke:#F0F0F0;stroke-width:8.64"/>
	<line x1="2904.12" y1="1339.63" x2="2904.12" y2="1281.98" style="stroke:#F0F0F0;stroke-width:8.64"/>
	<line x1="2904.12" y1="1253.22" x2="2904.12" y2="1195.58" style="stroke:#F0F0F0;stroke-width:8.64"/>
	<line x1="2904.12" y1="1166.82" x2="2904.12" y2="1109.18" style="stroke:#F0F0F0;stroke-width:8.64"/>
	<line x1="2904.12" y1="1080.42" x2="2904.12" y2="1022.78" style="stroke:#F0F0F0;stroke-width:8.64"/>
	<line x1="2904.12" y1="994.02" x2="2904.12" y2="936.37" style="stroke:#F0F0F0;stroke-width:8.64"/>
	<line x1="2904.12" y1="907.62" x2="2904.12" y2="849.97" style="stroke:#F0F0F0;stroke-width:8.64"/>
	<line x1="2904.12" y1="821.22" x2="2904.12" y2="763.57" style="stroke:#F0F0F0;stroke-width:8.64"/>
	<line x1="2904.12" y1="734.82" x2="2904.12" y2="677.17" style="stroke:#F0F0F0;stroke-width:8.64"/>
	<line x1="2904.12" y1="648.42" x2="2904.12" y2="590.77" style="stroke:#F0F0F0;stroke-width:8.64"/>
	<line x1="2904.12" y1="562.01" x2="2904.12" y2="504.37" style="stroke:#F0F0F0;stroke-width:8.64"/>
	<line x1="2904.12" y1="475.61" x2="2904.12" y2="417.97" style="stroke:#F0F0F0;stroke-width:8.64"/>
	<line x1="2904.12" y1="389.21" x2="2904.12" y2="331.57" style="stroke:#F0F0F0;stroke-width:8.64"/>
	<line x1="2904.12" y1="302.81" x2="2904.12" y2="245.30" style="stroke:#F0F0F0;stroke-width:8.64"/>
	<line x1="4155.84" y1="2203.64" x2="4155.84" y2="2145.99" style="stroke:#F0F0F0;stroke-width:8.64"/>
	<line x1="4155.84" y1="2117.24" x2="4155.84" y2="2059.59" style="stroke:#F0F0F0;stroke-width:8.64"/>
	<line x1="4155.84" y1="2030.84" x2="4155.84" y2="1973.19" style="stroke:#F0F0F0;stroke-width:8.64"/>
	<line x1="4155.84" y1="1944.44" x2="4155.84" y2="1886.79" style="stroke:#F0F0F0;stroke-width:8.64"/>
	<line x1="4155.84" y1="1858.03" x2="4155.84" y2="1800.39" style="stroke:#F0F0F0;stroke-width:8.64"/>
	<line x1="4155.84" y1="1771.63" x2="4155.84" y2="1713.99" style="stroke:#F0F0F0;stroke-width:8.64"/>
	<line x1="4155.84" y1="1685.23" x2="4155.84" y2="1627.59" style="stroke:#F0F0F0;stroke-width:8.64"/>
	<line x1="4155.84" y1="1598.83" x2="4155.84" y2="1541.18" style="stroke:#F0F0F0;stroke-width:8.64"/>
	<line x1="4155.84" y1="1512.43" x2="4155.84" y2="1454.78" style="stroke:#F0F0F0;stroke-width:8.64"/>
	<line x1="4155.84" y1="1426.03" x2="4155.84" y2="1368.38" style="stroke:#F0F0F0;stroke-width:8.64"/>
	<line x1="4155.84" y1="1339.63" x2="4155.84" y2="1281.98" style="stroke:#F0F0F0;stroke-width:8.64"/>
	<line x1="4155.84" y1="1253.22" x2="4155.84" y2="1195.58" style="stroke:#F0F0F0;stroke-width:8.64"/>
	<line x1="4155.84" y1="1166.82" x2="4155.84" y2="1109.18" style="stroke:#F0F0F0;stroke-width:8.64"/>
	<line x1="4155.84" y1="1080.42" x2="4155.84" y2="1022.78" style="stroke:#F0F0F0;stroke-width:8.64"/>
	<line x1="4155.84" y1="994.02" x2="4155.84" y2="936.37" style="stroke:#F0F0F0;stroke-width:8.64"/>
	<line x1="4155.84" y1="907.62" x2="4155.84" y2="849.97" style="stroke:#F0F0F0;stroke-width:8.64"/>
	<line x1="4155.84" y1="821.22" x2="4155.84" y2="763.57" style="stroke:#F0F0F0;stroke-width:8.64"/>
	<line x1="4155.84" y1="734.82" x2="4155.84" y2="677.17" style="stroke:#F0F0F0;stroke-width:8.64"/>
	<line x1="4155.84" y1="648.42" x2="4155.84" y2="590.77" style="stroke:#F0F0F0;stroke-width:8.64"/>
	<line x1="4155.84" y1="562.01" x2="4155.84" y2="504.37" style="stroke:#F0F0F0;stroke-width:8.64"/>
	<line x1="4155.84" y1="475.61" x2="4155.84" y2="417.97" style="stroke:#F0F0F0;stroke-width:8.64"/>
	<line x1="4155.84" y1="389.21" x2="4155.84" y2="331.57" style="stroke:#F0F0F0;stroke-width:8.64"/>
	<line x1="4155.84" y1="302.81" x2="4155.84" y2="245.30" style="stroke:#F0F0F0;stroke-width:8.64"/>
	<defs>
		<path id="path_xVTMgBWl" d="M400.82 1002.39 L400.82 1002.39 L525.96 815.68 L651.11 822.16 L776.25 871.57 L901.53 940.42 L1026.68 1017.24 L1151.82 1095.14 L1276.96 1170.60 L1402.11 1242.42 L1527.26 1310.06 L1652.40 1373.65 L1777.68 1433.32 L1902.83 1489.07 L2027.97 1541.32 L2153.11 1590.19 L2278.26 1635.96 L2403.41 1678.75 L2528.69 1718.85 L2653.83 1756.38 L2778.98 1791.48 L2904.12 1824.42 L3029.27 1855.20 L3154.41 1884.09 L3279.56 1911.09 L3404.84 1936.34 L3404.84 1035.60 L3279.56 1006.58 L3154.41 976.88 L3029.27 946.50 L2904.12 915.45 L2778.98 883.59 L2653.83 851.05 L2528.69 817.98 L2403.41 784.23 L2278.26 749.94 L2153.11 715.24 L2027.97 680.14 L1902.83 644.91 L1777.68 609.67 L1652.40 574.70 L1527.26 540.28 L1402.11 506.66 L1276.96 474.40 L1151.82 443.75 L1026.68 414.32 L901.53 385.57 L776.25 357.35 L651.11 342.23 L525.96 407.30 L400.82 765.73 L400.82 1002.39 Z" stroke-linejoin="round"/>
	</defs>
	<defs>
		<clipPath id="clipPath_OhgiBAVu">
			<use xlink:href="#path_xVTMgBWl"/>
		</clipPath>
	</defs>
	<use xlink:href="#path_xVTMgBWl" style="stroke:none;fill:#E0E0E0"/>
	<use xlink:href="#path_xVTMgBWl" style="fill:none;stroke:#E0E0E0;stroke-width:17.28" clip-path="url(#clipPath_OhgiBAVu)"/>
	<path d=" M400.68 884.13 L525.96 611.56 L651.11 582.26 L776.25 614.53 L901.40 663.00 L1026.54 715.92 L1151.69 769.51 L1276.96 822.57 L1402.11 874.68 L1527.26 925.30 L1652.40 974.31 L1777.55 1021.56 L1902.69 1067.06 L2027.84 1110.80 L2153.11 1152.78 L2278.26 1193.01 L2403.41 1231.49 L2528.55 1268.48 L2653.70 1303.85 L2778.84 1337.60 L2904.12 1370.00 L3029.27 1400.92 L3154.41 1430.48 L3279.56 1458.83 L3404.70 1485.97" stroke-linejoin="round" style="fill:none;stroke:#1A85FF;stroke-width:8.64"/>
	<line x1="337.50" y1="2203.64" x2="337.50" y2="245.30" style="stroke:#000000;stroke-width:5.76"/>
	<line x1="337.50" y1="2140.32" x2="297.40" y2="2140.32" style="stroke:#000000;stroke-width:5.76"/>
	<text x="277.43" y="2175.37" style="font-family:'Helvetica';font-size:100.04px;fill:#000000" text-anchor="end">0</text>
	<line x1="337.50" y1="1529.84" x2="297.40" y2="1529.84" style="stroke:#000000;stroke-width:5.76"/>
	<text x="277.43" y="1564.89" style="font-family:'Helvetica';font-size:100.04px;fill:#000000" text-anchor="end">.1</text>
	<line x1="337.50" y1="919.23" x2="297.40" y2="919.23" style="stroke:#000000;stroke-width:5.76"/>
	<text x="277.43" y="954.28" style="font-family:'Helvetica';font-size:100.04px;fill:#000000" text-anchor="end">.2</text>
	<line x1="337.50" y1="308.75" x2="297.40" y2="308.75" style="stroke:#000000;stroke-width:5.76"/>
	<text x="277.43" y="343.80" style="font-family:'Helvetica';font-size:100.04px;fill:#000000" text-anchor="end">.3</text>
	<line x1="337.50" y1="2203.64" x2="4219.16" y2="2203.64" style="stroke:#000000;stroke-width:5.76"/>
	<line x1="400.82" y1="2203.64" x2="400.82" y2="2243.74" style="stroke:#000000;stroke-width:5.76"/>
	<text x="400.82" y="2333.67" style="font-family:'Helvetica';font-size:100.04px;fill:#000000" text-anchor="middle">0</text>
	<line x1="1652.40" y1="2203.64" x2="1652.40" y2="2243.74" style="stroke:#000000;stroke-width:5.76"/>
	<text x="1652.40" y="2333.67" style="font-family:'Helvetica';font-size:100.04px;fill:#000000" text-anchor="middle">10</text>
	<line x1="2904.12" y1="2203.64" x2="2904.12" y2="2243.74" style="stroke:#000000;stroke-width:5.76"/>
	<text x="2904.12" y="2333.67" style="font-family:'Helvetica';font-size:100.04px;fill:#000000" text-anchor="middle">20</text>
	<line x1="4155.84" y1="2203.64" x2="4155.84" y2="2243.74" style="stroke:#000000;stroke-width:5.76"/>
	<text x="4155.84" y="2333.67" style="font-family:'Helvetica';font-size:100.04px;fill:#000000" text-anchor="middle">30</text>
	<text x="2278.26" y="2473.67" style="font-family:'Helvetica';font-size:100.04px;fill:#000000" text-anchor="middle">Step</text>
	<rect x="1257.80" y="2558.29" width="2040.93" height="186.30" style="fill:#FFFFFF"/>
	<rect x="1260.67" y="2561.17" width="2035.17" height="180.54" style="fill:none;stroke:#FFFFFF;stroke-width:5.76"/>
	<rect x="1300.99" y="2601.49" width="230.45" height="99.90" style="fill:#E0E0E0"/>
	<rect x="1305.31" y="2605.81" width="221.81" height="91.26" style="fill:none;stroke:#E0E0E0;stroke-width:8.64"/>
	<line x1="2072.66" y1="2651.44" x2="2303.10" y2="2651.44" style="stroke:#1A85FF;stroke-width:8.64"/>
	<text x="1591.38" y="2686.49" style="font-family:'Helvetica';font-size:100.04px;fill:#000000">90% CI</text>
	<text x="2363.04" y="2686.49" style="font-family:'Helvetica';font-size:100.04px;fill:#000000">Orthogonalized IRF</text>
	<rect x="337.50" y="100.85" width="3881.66" height="144.45" style="fill:#F0F0F0;stroke:#000000;stroke-width:5.76"/>
	<text x="2278.26" y="211.62" style="font-family:'Helvetica';font-size:110.03px;fill:#000000" text-anchor="middle">irf_P4: DGS102 -&gt; DGS102</text>
</svg>
