<?xml version="1.0" encoding="UTF-8" standalone="no"?>
<!-- This is a Stata 18.0 generated SVG file (http://www.stata.com) -->

<svg version="1.1" width="6.000in" height="4.000in" viewBox="0 0 4320 2880" xmlns="http://www.w3.org/2000/svg" xmlns:xlink="http://www.w3.org/1999/xlink">
	<desc>Stata Graph - irfr3</desc>
	<rect x="0" y="0" width="4320" height="2880" style="fill:#FFFFFF;stroke:none"/>
	<rect x="0.00" y="0.00" width="4320.00" height="2880.00" style="fill:#FFFFFF"/>
	<rect x="2.88" y="2.88" width="4314.24" height="2874.24" style="fill:none;stroke:#FFFFFF;stroke-width:5.76"/>
	<rect x="430.79" y="245.30" width="3788.37" height="1958.34" style="fill:#FFFFFF"/>
	<rect x="433.66" y="248.18" width="3782.61" height="1952.58" style="fill:none;stroke:#FFFFFF;stroke-width:5.76"/>
	<line x1="430.79" y1="2140.32" x2="488.43" y2="2140.32" style="stroke:#F0F0F0;stroke-width:8.64"/>
	<line x1="517.18" y1="2140.32" x2="574.83" y2="2140.32" style="stroke:#F0F0F0;stroke-width:8.64"/>
	<line x1="603.59" y1="2140.32" x2="661.23" y2="2140.32" style="stroke:#F0F0F0;stroke-width:8.64"/>
	<line x1="689.99" y1="2140.32" x2="747.63" y2="2140.32" style="stroke:#F0F0F0;stroke-width:8.64"/>
	<line x1="776.39" y1="2140.32" x2="834.03" y2="2140.32" style="stroke:#F0F0F0;stroke-width:8.64"/>
	<line x1="862.79" y1="2140.32" x2="920.43" y2="2140.32" style="stroke:#F0F0F0;stroke-width:8.64"/>
	<line x1="949.19" y1="2140.32" x2="1006.83" y2="2140.32" style="stroke:#F0F0F0;stroke-width:8.64"/>
	<line x1="1035.59" y1="2140.32" x2="1093.23" y2="2140.32" style="stroke:#F0F0F0;stroke-width:8.64"/>
	<line x1="1121.98" y1="2140.32" x2="1179.63" y2="2140.32" style="stroke:#F0F0F0;stroke-width:8.64"/>
	<line x1="1208.39" y1="2140.32" x2="1266.03" y2="2140.32" style="stroke:#F0F0F0;stroke-width:8.64"/>
	<line x1="1294.79" y1="2140.32" x2="1352.43" y2="2140.32" style="stroke:#F0F0F0;stroke-width:8.64"/>
	<line x1="1381.19" y1="2140.32" x2="1438.83" y2="2140.32" style="stroke:#F0F0F0;stroke-width:8.64"/>
	<line x1="1467.59" y1="2140.32" x2="1525.23" y2="2140.32" style="stroke:#F0F0F0;stroke-width:8.64"/>
	<line x1="1553.99" y1="2140.32" x2="1611.63" y2="2140.32" style="stroke:#F0F0F0;stroke-width:8.64"/>
	<line x1="1640.39" y1="2140.32" x2="1698.03" y2="2140.32" style="stroke:#F0F0F0;stroke-width:8.64"/>
	<line x1="1726.79" y1="2140.32" x2="1784.43" y2="2140.32" style="stroke:#F0F0F0;stroke-width:8.64"/>
	<line x1="1813.19" y1="2140.32" x2="1870.83" y2="2140.32" style="stroke:#F0F0F0;stroke-width:8.64"/>
	<line x1="1899.59" y1="2140.32" x2="1957.23" y2="2140.32" style="stroke:#F0F0F0;stroke-width:8.64"/>
	<line x1="1985.99" y1="2140.32" x2="2043.63" y2="2140.32" style="stroke:#F0F0F0;stroke-width:8.64"/>
	<line x1="2072.39" y1="2140.32" x2="2130.03" y2="2140.32" style="stroke:#F0F0F0;stroke-width:8.64"/>
	<line x1="2158.79" y1="2140.32" x2="2216.43" y2="2140.32" style="stroke:#F0F0F0;stroke-width:8.64"/>
	<line x1="2245.19" y1="2140.32" x2="2302.83" y2="2140.32" style="stroke:#F0F0F0;stroke-width:8.64"/>
	<line x1="2331.59" y1="2140.32" x2="2389.23" y2="2140.32" style="stroke:#F0F0F0;stroke-width:8.64"/>
	<line x1="2417.99" y1="2140.32" x2="2475.63" y2="2140.32" style="stroke:#F0F0F0;stroke-width:8.64"/>
	<line x1="2504.39" y1="2140.32" x2="2562.03" y2="2140.32" style="stroke:#F0F0F0;stroke-width:8.64"/>
	<line x1="2590.79" y1="2140.32" x2="2648.43" y2="2140.32" style="stroke:#F0F0F0;stroke-width:8.64"/>
	<line x1="2677.19" y1="2140.32" x2="2734.83" y2="2140.32" style="stroke:#F0F0F0;stroke-width:8.64"/>
	<line x1="2763.59" y1="2140.32" x2="2821.23" y2="2140.32" style="stroke:#F0F0F0;stroke-width:8.64"/>
	<line x1="2849.99" y1="2140.32" x2="2907.63" y2="2140.32" style="stroke:#F0F0F0;stroke-width:8.64"/>
	<line x1="2936.39" y1="2140.32" x2="2994.03" y2="2140.32" style="stroke:#F0F0F0;stroke-width:8.64"/>
	<line x1="3022.79" y1="2140.32" x2="3080.43" y2="2140.32" style="stroke:#F0F0F0;stroke-width:8.64"/>
	<line x1="3109.19" y1="2140.32" x2="3166.83" y2="2140.32" style="stroke:#F0F0F0;stroke-width:8.64"/>
	<line x1="3195.59" y1="2140.32" x2="3253.23" y2="2140.32" style="stroke:#F0F0F0;stroke-width:8.64"/>
	<line x1="3281.99" y1="2140.32" x2="3339.63" y2="2140.32" style="stroke:#F0F0F0;stroke-width:8.64"/>
	<line x1="3368.39" y1="2140.32" x2="3426.03" y2="2140.32" style="stroke:#F0F0F0;stroke-width:8.64"/>
	<line x1="3454.79" y1="2140.32" x2="3512.43" y2="2140.32" style="stroke:#F0F0F0;stroke-width:8.64"/>
	<line x1="3541.19" y1="2140.32" x2="3598.83" y2="2140.32" style="stroke:#F0F0F0;stroke-width:8.64"/>
	<line x1="3627.59" y1="2140.32" x2="3685.23" y2="2140.32" style="stroke:#F0F0F0;stroke-width:8.64"/>
	<line x1="3713.99" y1="2140.32" x2="3771.63" y2="2140.32" style="stroke:#F0F0F0;stroke-width:8.64"/>
	<line x1="3800.39" y1="2140.32" x2="3858.03" y2="2140.32" style="stroke:#F0F0F0;stroke-width:8.64"/>
	<line x1="3886.79" y1="2140.32" x2="3944.43" y2="2140.32" style="stroke:#F0F0F0;stroke-width:8.64"/>
	<line x1="3973.19" y1="2140.32" x2="4030.83" y2="2140.32" style="stroke:#F0F0F0;stroke-width:8.64"/>
	<line x1="4059.59" y1="2140.32" x2="4117.23" y2="2140.32" style="stroke:#F0F0F0;stroke-width:8.64"/>
	<line x1="4145.98" y1="2140.32" x2="4203.63" y2="2140.32" style="stroke:#F0F0F0;stroke-width:8.64"/>
	<line x1="430.79" y1="1727.76" x2="488.43" y2="1727.76" style="stroke:#F0F0F0;stroke-width:8.64"/>
	<line x1="517.18" y1="1727.76" x2="574.83" y2="1727.76" style="stroke:#F0F0F0;stroke-width:8.64"/>
	<line x1="603.59" y1="1727.76" x2="661.23" y2="1727.76" style="stroke:#F0F0F0;stroke-width:8.64"/>
	<line x1="689.99" y1="1727.76" x2="747.63" y2="1727.76" style="stroke:#F0F0F0;stroke-width:8.64"/>
	<line x1="776.39" y1="1727.76" x2="834.03" y2="1727.76" style="stroke:#F0F0F0;stroke-width:8.64"/>
	<line x1="862.79" y1="1727.76" x2="920.43" y2="1727.76" style="stroke:#F0F0F0;stroke-width:8.64"/>
	<line x1="949.19" y1="1727.76" x2="1006.83" y2="1727.76" style="stroke:#F0F0F0;stroke-width:8.64"/>
	<line x1="1035.59" y1="1727.76" x2="1093.23" y2="1727.76" style="stroke:#F0F0F0;stroke-width:8.64"/>
	<line x1="1121.98" y1="1727.76" x2="1179.63" y2="1727.76" style="stroke:#F0F0F0;stroke-width:8.64"/>
	<line x1="1208.39" y1="1727.76" x2="1266.03" y2="1727.76" style="stroke:#F0F0F0;stroke-width:8.64"/>
	<line x1="1294.79" y1="1727.76" x2="1352.43" y2="1727.76" style="stroke:#F0F0F0;stroke-width:8.64"/>
	<line x1="1381.19" y1="1727.76" x2="1438.83" y2="1727.76" style="stroke:#F0F0F0;stroke-width:8.64"/>
	<line x1="1467.59" y1="1727.76" x2="1525.23" y2="1727.76" style="stroke:#F0F0F0;stroke-width:8.64"/>
	<line x1="1553.99" y1="1727.76" x2="1611.63" y2="1727.76" style="stroke:#F0F0F0;stroke-width:8.64"/>
	<line x1="1640.39" y1="1727.76" x2="1698.03" y2="1727.76" style="stroke:#F0F0F0;stroke-width:8.64"/>
	<line x1="1726.79" y1="1727.76" x2="1784.43" y2="1727.76" style="stroke:#F0F0F0;stroke-width:8.64"/>
	<line x1="1813.19" y1="1727.76" x2="1870.83" y2="1727.76" style="stroke:#F0F0F0;stroke-width:8.64"/>
	<line x1="1899.59" y1="1727.76" x2="1957.23" y2="1727.76" style="stroke:#F0F0F0;stroke-width:8.64"/>
	<line x1="1985.99" y1="1727.76" x2="2043.63" y2="1727.76" style="stroke:#F0F0F0;stroke-width:8.64"/>
	<line x1="2072.39" y1="1727.76" x2="2130.03" y2="1727.76" style="stroke:#F0F0F0;stroke-width:8.64"/>
	<line x1="2158.79" y1="1727.76" x2="2216.43" y2="1727.76" style="stroke:#F0F0F0;stroke-width:8.64"/>
	<line x1="2245.19" y1="1727.76" x2="2302.83" y2="1727.76" style="stroke:#F0F0F0;stroke-width:8.64"/>
	<line x1="2331.59" y1="1727.76" x2="2389.23" y2="1727.76" style="stroke:#F0F0F0;stroke-width:8.64"/>
	<line x1="2417.99" y1="1727.76" x2="2475.63" y2="1727.76" style="stroke:#F0F0F0;stroke-width:8.64"/>
	<line x1="2504.39" y1="1727.76" x2="2562.03" y2="1727.76" style="stroke:#F0F0F0;stroke-width:8.64"/>
	<line x1="2590.79" y1="1727.76" x2="2648.43" y2="1727.76" style="stroke:#F0F0F0;stroke-width:8.64"/>
	<line x1="2677.19" y1="1727.76" x2="2734.83" y2="1727.76" style="stroke:#F0F0F0;stroke-width:8.64"/>
	<line x1="2763.59" y1="1727.76" x2="2821.23" y2="1727.76" style="stroke:#F0F0F0;stroke-width:8.64"/>
	<line x1="2849.99" y1="1727.76" x2="2907.63" y2="1727.76" style="stroke:#F0F0F0;stroke-width:8.64"/>
	<line x1="2936.39" y1="1727.76" x2="2994.03" y2="1727.76" style="stroke:#F0F0F0;stroke-width:8.64"/>
	<line x1="3022.79" y1="1727.76" x2="3080.43" y2="1727.76" style="stroke:#F0F0F0;stroke-width:8.64"/>
	<line x1="3109.19" y1="1727.76" x2="3166.83" y2="1727.76" style="stroke:#F0F0F0;stroke-width:8.64"/>
	<line x1="3195.59" y1="1727.76" x2="3253.23" y2="1727.76" style="stroke:#F0F0F0;stroke-width:8.64"/>
	<line x1="3281.99" y1="1727.76" x2="3339.63" y2="1727.76" style="stroke:#F0F0F0;stroke-width:8.64"/>
	<line x1="3368.39" y1="1727.76" x2="3426.03" y2="1727.76" style="stroke:#F0F0F0;stroke-width:8.64"/>
	<line x1="3454.79" y1="1727.76" x2="3512.43" y2="1727.76" style="stroke:#F0F0F0;stroke-width:8.64"/>
	<line x1="3541.19" y1="1727.76" x2="3598.83" y2="1727.76" style="stroke:#F0F0F0;stroke-width:8.64"/>
	<line x1="3627.59" y1="1727.76" x2="3685.23" y2="1727.76" style="stroke:#F0F0F0;stroke-width:8.64"/>
	<line x1="3713.99" y1="1727.76" x2="3771.63" y2="1727.76" style="stroke:#F0F0F0;stroke-width:8.64"/>
	<line x1="3800.39" y1="1727.76" x2="3858.03" y2="1727.76" style="stroke:#F0F0F0;stroke-width:8.64"/>
	<line x1="3886.79" y1="1727.76" x2="3944.43" y2="1727.76" style="stroke:#F0F0F0;stroke-width:8.64"/>
	<line x1="3973.19" y1="1727.76" x2="4030.83" y2="1727.76" style="stroke:#F0F0F0;stroke-width:8.64"/>
	<line x1="4059.59" y1="1727.76" x2="4117.23" y2="1727.76" style="stroke:#F0F0F0;stroke-width:8.64"/>
	<line x1="4145.98" y1="1727.76" x2="4203.63" y2="1727.76" style="stroke:#F0F0F0;stroke-width:8.64"/>
	<line x1="430.79" y1="1315.19" x2="488.43" y2="1315.19" style="stroke:#F0F0F0;stroke-width:8.64"/>
	<line x1="517.18" y1="1315.19" x2="574.83" y2="1315.19" style="stroke:#F0F0F0;stroke-width:8.64"/>
	<line x1="603.59" y1="1315.19" x2="661.23" y2="1315.19" style="stroke:#F0F0F0;stroke-width:8.64"/>
	<line x1="689.99" y1="1315.19" x2="747.63" y2="1315.19" style="stroke:#F0F0F0;stroke-width:8.64"/>
	<line x1="776.39" y1="1315.19" x2="834.03" y2="1315.19" style="stroke:#F0F0F0;stroke-width:8.64"/>
	<line x1="862.79" y1="1315.19" x2="920.43" y2="1315.19" style="stroke:#F0F0F0;stroke-width:8.64"/>
	<line x1="949.19" y1="1315.19" x2="1006.83" y2="1315.19" style="stroke:#F0F0F0;stroke-width:8.64"/>
	<line x1="1035.59" y1="1315.19" x2="1093.23" y2="1315.19" style="stroke:#F0F0F0;stroke-width:8.64"/>
	<line x1="1121.98" y1="1315.19" x2="1179.63" y2="1315.19" style="stroke:#F0F0F0;stroke-width:8.64"/>
	<line x1="1208.39" y1="1315.19" x2="1266.03" y2="1315.19" style="stroke:#F0F0F0;stroke-width:8.64"/>
	<line x1="1294.79" y1="1315.19" x2="1352.43" y2="1315.19" style="stroke:#F0F0F0;stroke-width:8.64"/>
	<line x1="1381.19" y1="1315.19" x2="1438.83" y2="1315.19" style="stroke:#F0F0F0;stroke-width:8.64"/>
	<line x1="1467.59" y1="1315.19" x2="1525.23" y2="1315.19" style="stroke:#F0F0F0;stroke-width:8.64"/>
	<line x1="1553.99" y1="1315.19" x2="1611.63" y2="1315.19" style="stroke:#F0F0F0;stroke-width:8.64"/>
	<line x1="1640.39" y1="1315.19" x2="1698.03" y2="1315.19" style="stroke:#F0F0F0;stroke-width:8.64"/>
	<line x1="1726.79" y1="1315.19" x2="1784.43" y2="1315.19" style="stroke:#F0F0F0;stroke-width:8.64"/>
	<line x1="1813.19" y1="1315.19" x2="1870.83" y2="1315.19" style="stroke:#F0F0F0;stroke-width:8.64"/>
	<line x1="1899.59" y1="1315.19" x2="1957.23" y2="1315.19" style="stroke:#F0F0F0;stroke-width:8.64"/>
	<line x1="1985.99" y1="1315.19" x2="2043.63" y2="1315.19" style="stroke:#F0F0F0;stroke-width:8.64"/>
	<line x1="2072.39" y1="1315.19" x2="2130.03" y2="1315.19" style="stroke:#F0F0F0;stroke-width:8.64"/>
	<line x1="2158.79" y1="1315.19" x2="2216.43" y2="1315.19" style="stroke:#F0F0F0;stroke-width:8.64"/>
	<line x1="2245.19" y1="1315.19" x2="2302.83" y2="1315.19" style="stroke:#F0F0F0;stroke-width:8.64"/>
	<line x1="2331.59" y1="1315.19" x2="2389.23" y2="1315.19" style="stroke:#F0F0F0;stroke-width:8.64"/>
	<line x1="2417.99" y1="1315.19" x2="2475.63" y2="1315.19" style="stroke:#F0F0F0;stroke-width:8.64"/>
	<line x1="2504.39" y1="1315.19" x2="2562.03" y2="1315.19" style="stroke:#F0F0F0;stroke-width:8.64"/>
	<line x1="2590.79" y1="1315.19" x2="2648.43" y2="1315.19" style="stroke:#F0F0F0;stroke-width:8.64"/>
	<line x1="2677.19" y1="1315.19" x2="2734.83" y2="1315.19" style="stroke:#F0F0F0;stroke-width:8.64"/>
	<line x1="2763.59" y1="1315.19" x2="2821.23" y2="1315.19" style="stroke:#F0F0F0;stroke-width:8.64"/>
	<line x1="2849.99" y1="1315.19" x2="2907.63" y2="1315.19" style="stroke:#F0F0F0;stroke-width:8.64"/>
	<line x1="2936.39" y1="1315.19" x2="2994.03" y2="1315.19" style="stroke:#F0F0F0;stroke-width:8.64"/>
	<line x1="3022.79" y1="1315.19" x2="3080.43" y2="1315.19" style="stroke:#F0F0F0;stroke-width:8.64"/>
	<line x1="3109.19" y1="1315.19" x2="3166.83" y2="1315.19" style="stroke:#F0F0F0;stroke-width:8.64"/>
	<line x1="3195.59" y1="1315.19" x2="3253.23" y2="1315.19" style="stroke:#F0F0F0;stroke-width:8.64"/>
	<line x1="3281.99" y1="1315.19" x2="3339.63" y2="1315.19" style="stroke:#F0F0F0;stroke-width:8.64"/>
	<line x1="3368.39" y1="1315.19" x2="3426.03" y2="1315.19" style="stroke:#F0F0F0;stroke-width:8.64"/>
	<line x1="3454.79" y1="1315.19" x2="3512.43" y2="1315.19" style="stroke:#F0F0F0;stroke-width:8.64"/>
	<line x1="3541.19" y1="1315.19" x2="3598.83" y2="1315.19" style="stroke:#F0F0F0;stroke-width:8.64"/>
	<line x1="3627.59" y1="1315.19" x2="3685.23" y2="1315.19" style="stroke:#F0F0F0;stroke-width:8.64"/>
	<line x1="3713.99" y1="1315.19" x2="3771.63" y2="1315.19" style="stroke:#F0F0F0;stroke-width:8.64"/>
	<line x1="3800.39" y1="1315.19" x2="3858.03" y2="1315.19" style="stroke:#F0F0F0;stroke-width:8.64"/>
	<line x1="3886.79" y1="1315.19" x2="3944.43" y2="1315.19" style="stroke:#F0F0F0;stroke-width:8.64"/>
	<line x1="3973.19" y1="1315.19" x2="4030.83" y2="1315.19" style="stroke:#F0F0F0;stroke-width:8.64"/>
	<line x1="4059.59" y1="1315.19" x2="4117.23" y2="1315.19" style="stroke:#F0F0F0;stroke-width:8.64"/>
	<line x1="4145.98" y1="1315.19" x2="4203.63" y2="1315.19" style="stroke:#F0F0F0;stroke-width:8.64"/>
	<line x1="430.79" y1="902.76" x2="488.43" y2="902.76" style="stroke:#F0F0F0;stroke-width:8.64"/>
	<line x1="517.18" y1="902.76" x2="574.83" y2="902.76" style="stroke:#F0F0F0;stroke-width:8.64"/>
	<line x1="603.59" y1="902.76" x2="661.23" y2="902.76" style="stroke:#F0F0F0;stroke-width:8.64"/>
	<line x1="689.99" y1="902.76" x2="747.63" y2="902.76" style="stroke:#F0F0F0;stroke-width:8.64"/>
	<line x1="776.39" y1="902.76" x2="834.03" y2="902.76" style="stroke:#F0F0F0;stroke-width:8.64"/>
	<line x1="862.79" y1="902.76" x2="920.43" y2="902.76" style="stroke:#F0F0F0;stroke-width:8.64"/>
	<line x1="949.19" y1="902.76" x2="1006.83" y2="902.76" style="stroke:#F0F0F0;stroke-width:8.64"/>
	<line x1="1035.59" y1="902.76" x2="1093.23" y2="902.76" style="stroke:#F0F0F0;stroke-width:8.64"/>
	<line x1="1121.98" y1="902.76" x2="1179.63" y2="902.76" style="stroke:#F0F0F0;stroke-width:8.64"/>
	<line x1="1208.39" y1="902.76" x2="1266.03" y2="902.76" style="stroke:#F0F0F0;stroke-width:8.64"/>
	<line x1="1294.79" y1="902.76" x2="1352.43" y2="902.76" style="stroke:#F0F0F0;stroke-width:8.64"/>
	<line x1="1381.19" y1="902.76" x2="1438.83" y2="902.76" style="stroke:#F0F0F0;stroke-width:8.64"/>
	<line x1="1467.59" y1="902.76" x2="1525.23" y2="902.76" style="stroke:#F0F0F0;stroke-width:8.64"/>
	<line x1="1553.99" y1="902.76" x2="1611.63" y2="902.76" style="stroke:#F0F0F0;stroke-width:8.64"/>
	<line x1="1640.39" y1="902.76" x2="1698.03" y2="902.76" style="stroke:#F0F0F0;stroke-width:8.64"/>
	<line x1="1726.79" y1="902.76" x2="1784.43" y2="902.76" style="stroke:#F0F0F0;stroke-width:8.64"/>
	<line x1="1813.19" y1="902.76" x2="1870.83" y2="902.76" style="stroke:#F0F0F0;stroke-width:8.64"/>
	<line x1="1899.59" y1="902.76" x2="1957.23" y2="902.76" style="stroke:#F0F0F0;stroke-width:8.64"/>
	<line x1="1985.99" y1="902.76" x2="2043.63" y2="902.76" style="stroke:#F0F0F0;stroke-width:8.64"/>
	<line x1="2072.39" y1="902.76" x2="2130.03" y2="902.76" style="stroke:#F0F0F0;stroke-width:8.64"/>
	<line x1="2158.79" y1="902.76" x2="2216.43" y2="902.76" style="stroke:#F0F0F0;stroke-width:8.64"/>
	<line x1="2245.19" y1="902.76" x2="2302.83" y2="902.76" style="stroke:#F0F0F0;stroke-width:8.64"/>
	<line x1="2331.59" y1="902.76" x2="2389.23" y2="902.76" style="stroke:#F0F0F0;stroke-width:8.64"/>
	<line x1="2417.99" y1="902.76" x2="2475.63" y2="902.76" style="stroke:#F0F0F0;stroke-width:8.64"/>
	<line x1="2504.39" y1="902.76" x2="2562.03" y2="902.76" style="stroke:#F0F0F0;stroke-width:8.64"/>
	<line x1="2590.79" y1="902.76" x2="2648.43" y2="902.76" style="stroke:#F0F0F0;stroke-width:8.64"/>
	<line x1="2677.19" y1="902.76" x2="2734.83" y2="902.76" style="stroke:#F0F0F0;stroke-width:8.64"/>
	<line x1="2763.59" y1="902.76" x2="2821.23" y2="902.76" style="stroke:#F0F0F0;stroke-width:8.64"/>
	<line x1="2849.99" y1="902.76" x2="2907.63" y2="902.76" style="stroke:#F0F0F0;stroke-width:8.64"/>
	<line x1="2936.39" y1="902.76" x2="2994.03" y2="902.76" style="stroke:#F0F0F0;stroke-width:8.64"/>
	<line x1="3022.79" y1="902.76" x2="3080.43" y2="902.76" style="stroke:#F0F0F0;stroke-width:8.64"/>
	<line x1="3109.19" y1="902.76" x2="3166.83" y2="902.76" style="stroke:#F0F0F0;stroke-width:8.64"/>
	<line x1="3195.59" y1="902.76" x2="3253.23" y2="902.76" style="stroke:#F0F0F0;stroke-width:8.64"/>
	<line x1="3281.99" y1="902.76" x2="3339.63" y2="902.76" style="stroke:#F0F0F0;stroke-width:8.64"/>
	<line x1="3368.39" y1="902.76" x2="3426.03" y2="902.76" style="stroke:#F0F0F0;stroke-width:8.64"/>
	<line x1="3454.79" y1="902.76" x2="3512.43" y2="902.76" style="stroke:#F0F0F0;stroke-width:8.64"/>
	<line x1="3541.19" y1="902.76" x2="3598.83" y2="902.76" style="stroke:#F0F0F0;stroke-width:8.64"/>
	<line x1="3627.59" y1="902.76" x2="3685.23" y2="902.76" style="stroke:#F0F0F0;stroke-width:8.64"/>
	<line x1="3713.99" y1="902.76" x2="3771.63" y2="902.76" style="stroke:#F0F0F0;stroke-width:8.64"/>
	<line x1="3800.39" y1="902.76" x2="3858.03" y2="902.76" style="stroke:#F0F0F0;stroke-width:8.64"/>
	<line x1="3886.79" y1="902.76" x2="3944.43" y2="902.76" style="stroke:#F0F0F0;stroke-width:8.64"/>
	<line x1="3973.19" y1="902.76" x2="4030.83" y2="902.76" style="stroke:#F0F0F0;stroke-width:8.64"/>
	<line x1="4059.59" y1="902.76" x2="4117.23" y2="902.76" style="stroke:#F0F0F0;stroke-width:8.64"/>
	<line x1="4145.98" y1="902.76" x2="4203.63" y2="902.76" style="stroke:#F0F0F0;stroke-width:8.64"/>
	<line x1="430.79" y1="490.19" x2="488.43" y2="490.19" style="stroke:#F0F0F0;stroke-width:8.64"/>
	<line x1="517.18" y1="490.19" x2="574.83" y2="490.19" style="stroke:#F0F0F0;stroke-width:8.64"/>
	<line x1="603.59" y1="490.19" x2="661.23" y2="490.19" style="stroke:#F0F0F0;stroke-width:8.64"/>
	<line x1="689.99" y1="490.19" x2="747.63" y2="490.19" style="stroke:#F0F0F0;stroke-width:8.64"/>
	<line x1="776.39" y1="490.19" x2="834.03" y2="490.19" style="stroke:#F0F0F0;stroke-width:8.64"/>
	<line x1="862.79" y1="490.19" x2="920.43" y2="490.19" style="stroke:#F0F0F0;stroke-width:8.64"/>
	<line x1="949.19" y1="490.19" x2="1006.83" y2="490.19" style="stroke:#F0F0F0;stroke-width:8.64"/>
	<line x1="1035.59" y1="490.19" x2="1093.23" y2="490.19" style="stroke:#F0F0F0;stroke-width:8.64"/>
	<line x1="1121.98" y1="490.19" x2="1179.63" y2="490.19" style="stroke:#F0F0F0;stroke-width:8.64"/>
	<line x1="1208.39" y1="490.19" x2="1266.03" y2="490.19" style="stroke:#F0F0F0;stroke-width:8.64"/>
	<line x1="1294.79" y1="490.19" x2="1352.43" y2="490.19" style="stroke:#F0F0F0;stroke-width:8.64"/>
	<line x1="1381.19" y1="490.19" x2="1438.83" y2="490.19" style="stroke:#F0F0F0;stroke-width:8.64"/>
	<line x1="1467.59" y1="490.19" x2="1525.23" y2="490.19" style="stroke:#F0F0F0;stroke-width:8.64"/>
	<line x1="1553.99" y1="490.19" x2="1611.63" y2="490.19" style="stroke:#F0F0F0;stroke-width:8.64"/>
	<line x1="1640.39" y1="490.19" x2="1698.03" y2="490.19" style="stroke:#F0F0F0;stroke-width:8.64"/>
	<line x1="1726.79" y1="490.19" x2="1784.43" y2="490.19" style="stroke:#F0F0F0;stroke-width:8.64"/>
	<line x1="1813.19" y1="490.19" x2="1870.83" y2="490.19" style="stroke:#F0F0F0;stroke-width:8.64"/>
	<line x1="1899.59" y1="490.19" x2="1957.23" y2="490.19" style="stroke:#F0F0F0;stroke-width:8.64"/>
	<line x1="1985.99" y1="490.19" x2="2043.63" y2="490.19" style="stroke:#F0F0F0;stroke-width:8.64"/>
	<line x1="2072.39" y1="490.19" x2="2130.03" y2="490.19" style="stroke:#F0F0F0;stroke-width:8.64"/>
	<line x1="2158.79" y1="490.19" x2="2216.43" y2="490.19" style="stroke:#F0F0F0;stroke-width:8.64"/>
	<line x1="2245.19" y1="490.19" x2="2302.83" y2="490.19" style="stroke:#F0F0F0;stroke-width:8.64"/>
	<line x1="2331.59" y1="490.19" x2="2389.23" y2="490.19" style="stroke:#F0F0F0;stroke-width:8.64"/>
	<line x1="2417.99" y1="490.19" x2="2475.63" y2="490.19" style="stroke:#F0F0F0;stroke-width:8.64"/>
	<line x1="2504.39" y1="490.19" x2="2562.03" y2="490.19" style="stroke:#F0F0F0;stroke-width:8.64"/>
	<line x1="2590.79" y1="490.19" x2="2648.43" y2="490.19" style="stroke:#F0F0F0;stroke-width:8.64"/>
	<line x1="2677.19" y1="490.19" x2="2734.83" y2="490.19" style="stroke:#F0F0F0;stroke-width:8.64"/>
	<line x1="2763.59" y1="490.19" x2="2821.23" y2="490.19" style="stroke:#F0F0F0;stroke-width:8.64"/>
	<line x1="2849.99" y1="490.19" x2="2907.63" y2="490.19" style="stroke:#F0F0F0;stroke-width:8.64"/>
	<line x1="2936.39" y1="490.19" x2="2994.03" y2="490.19" style="stroke:#F0F0F0;stroke-width:8.64"/>
	<line x1="3022.79" y1="490.19" x2="3080.43" y2="490.19" style="stroke:#F0F0F0;stroke-width:8.64"/>
	<line x1="3109.19" y1="490.19" x2="3166.83" y2="490.19" style="stroke:#F0F0F0;stroke-width:8.64"/>
	<line x1="3195.59" y1="490.19" x2="3253.23" y2="490.19" style="stroke:#F0F0F0;stroke-width:8.64"/>
	<line x1="3281.99" y1="490.19" x2="3339.63" y2="490.19" style="stroke:#F0F0F0;stroke-width:8.64"/>
	<line x1="3368.39" y1="490.19" x2="3426.03" y2="490.19" style="stroke:#F0F0F0;stroke-width:8.64"/>
	<line x1="3454.79" y1="490.19" x2="3512.43" y2="490.19" style="stroke:#F0F0F0;stroke-width:8.64"/>
	<line x1="3541.19" y1="490.19" x2="3598.83" y2="490.19" style="stroke:#F0F0F0;stroke-width:8.64"/>
	<line x1="3627.59" y1="490.19" x2="3685.23" y2="490.19" style="stroke:#F0F0F0;stroke-width:8.64"/>
	<line x1="3713.99" y1="490.19" x2="3771.63" y2="490.19" style="stroke:#F0F0F0;stroke-width:8.64"/>
	<line x1="3800.39" y1="490.19" x2="3858.03" y2="490.19" style="stroke:#F0F0F0;stroke-width:8.64"/>
	<line x1="3886.79" y1="490.19" x2="3944.43" y2="490.19" style="stroke:#F0F0F0;stroke-width:8.64"/>
	<line x1="3973.19" y1="490.19" x2="4030.83" y2="490.19" style="stroke:#F0F0F0;stroke-width:8.64"/>
	<line x1="4059.59" y1="490.19" x2="4117.23" y2="490.19" style="stroke:#F0F0F0;stroke-width:8.64"/>
	<line x1="4145.98" y1="490.19" x2="4203.63" y2="490.19" style="stroke:#F0F0F0;stroke-width:8.64"/>
	<line x1="494.10" y1="2203.64" x2="494.10" y2="2145.99" style="stroke:#F0F0F0;stroke-width:8.64"/>
	<line x1="494.10" y1="2117.24" x2="494.10" y2="2059.59" style="stroke:#F0F0F0;stroke-width:8.64"/>
	<line x1="494.10" y1="2030.84" x2="494.10" y2="1973.19" style="stroke:#F0F0F0;stroke-width:8.64"/>
	<line x1="494.10" y1="1944.44" x2="494.10" y2="1886.79" style="stroke:#F0F0F0;stroke-width:8.64"/>
	<line x1="494.10" y1="1858.03" x2="494.10" y2="1800.39" style="stroke:#F0F0F0;stroke-width:8.64"/>
	<line x1="494.10" y1="1771.63" x2="494.10" y2="1713.99" style="stroke:#F0F0F0;stroke-width:8.64"/>
	<line x1="494.10" y1="1685.23" x2="494.10" y2="1627.59" style="stroke:#F0F0F0;stroke-width:8.64"/>
	<line x1="494.10" y1="1598.83" x2="494.10" y2="1541.18" style="stroke:#F0F0F0;stroke-width:8.64"/>
	<line x1="494.10" y1="1512.43" x2="494.10" y2="1454.78" style="stroke:#F0F0F0;stroke-width:8.64"/>
	<line x1="494.10" y1="1426.03" x2="494.10" y2="1368.38" style="stroke:#F0F0F0;stroke-width:8.64"/>
	<line x1="494.10" y1="1339.63" x2="494.10" y2="1281.98" style="stroke:#F0F0F0;stroke-width:8.64"/>
	<line x1="494.10" y1="1253.22" x2="494.10" y2="1195.58" style="stroke:#F0F0F0;stroke-width:8.64"/>
	<line x1="494.10" y1="1166.82" x2="494.10" y2="1109.18" style="stroke:#F0F0F0;stroke-width:8.64"/>
	<line x1="494.10" y1="1080.42" x2="494.10" y2="1022.78" style="stroke:#F0F0F0;stroke-width:8.64"/>
	<line x1="494.10" y1="994.02" x2="494.10" y2="936.37" style="stroke:#F0F0F0;stroke-width:8.64"/>
	<line x1="494.10" y1="907.62" x2="494.10" y2="849.97" style="stroke:#F0F0F0;stroke-width:8.64"/>
	<line x1="494.10" y1="821.22" x2="494.10" y2="763.57" style="stroke:#F0F0F0;stroke-width:8.64"/>
	<line x1="494.10" y1="734.82" x2="494.10" y2="677.17" style="stroke:#F0F0F0;stroke-width:8.64"/>
	<line x1="494.10" y1="648.42" x2="494.10" y2="590.77" style="stroke:#F0F0F0;stroke-width:8.64"/>
	<line x1="494.10" y1="562.01" x2="494.10" y2="504.37" style="stroke:#F0F0F0;stroke-width:8.64"/>
	<line x1="494.10" y1="475.61" x2="494.10" y2="417.97" style="stroke:#F0F0F0;stroke-width:8.64"/>
	<line x1="494.10" y1="389.21" x2="494.10" y2="331.57" style="stroke:#F0F0F0;stroke-width:8.64"/>
	<line x1="494.10" y1="302.81" x2="494.10" y2="245.30" style="stroke:#F0F0F0;stroke-width:8.64"/>
	<line x1="1714.64" y1="2203.64" x2="1714.64" y2="2145.99" style="stroke:#F0F0F0;stroke-width:8.64"/>
	<line x1="1714.64" y1="2117.24" x2="1714.64" y2="2059.59" style="stroke:#F0F0F0;stroke-width:8.64"/>
	<line x1="1714.64" y1="2030.84" x2="1714.64" y2="1973.19" style="stroke:#F0F0F0;stroke-width:8.64"/>
	<line x1="1714.64" y1="1944.44" x2="1714.64" y2="1886.79" style="stroke:#F0F0F0;stroke-width:8.64"/>
	<line x1="1714.64" y1="1858.03" x2="1714.64" y2="1800.39" style="stroke:#F0F0F0;stroke-width:8.64"/>
	<line x1="1714.64" y1="1771.63" x2="1714.64" y2="1713.99" style="stroke:#F0F0F0;stroke-width:8.64"/>
	<line x1="1714.64" y1="1685.23" x2="1714.64" y2="1627.59" style="stroke:#F0F0F0;stroke-width:8.64"/>
	<line x1="1714.64" y1="1598.83" x2="1714.64" y2="1541.18" style="stroke:#F0F0F0;stroke-width:8.64"/>
	<line x1="1714.64" y1="1512.43" x2="1714.64" y2="1454.78" style="stroke:#F0F0F0;stroke-width:8.64"/>
	<line x1="1714.64" y1="1426.03" x2="1714.64" y2="1368.38" style="stroke:#F0F0F0;stroke-width:8.64"/>
	<line x1="1714.64" y1="1339.63" x2="1714.64" y2="1281.98" style="stroke:#F0F0F0;stroke-width:8.64"/>
	<line x1="1714.64" y1="1253.22" x2="1714.64" y2="1195.58" style="stroke:#F0F0F0;stroke-width:8.64"/>
	<line x1="1714.64" y1="1166.82" x2="1714.64" y2="1109.18" style="stroke:#F0F0F0;stroke-width:8.64"/>
	<line x1="1714.64" y1="1080.42" x2="1714.64" y2="1022.78" style="stroke:#F0F0F0;stroke-width:8.64"/>
	<line x1="1714.64" y1="994.02" x2="1714.64" y2="936.37" style="stroke:#F0F0F0;stroke-width:8.64"/>
	<line x1="1714.64" y1="907.62" x2="1714.64" y2="849.97" style="stroke:#F0F0F0;stroke-width:8.64"/>
	<line x1="1714.64" y1="821.22" x2="1714.64" y2="763.57" style="stroke:#F0F0F0;stroke-width:8.64"/>
	<line x1="1714.64" y1="734.82" x2="1714.64" y2="677.17" style="stroke:#F0F0F0;stroke-width:8.64"/>
	<line x1="1714.64" y1="648.42" x2="1714.64" y2="590.77" style="stroke:#F0F0F0;stroke-width:8.64"/>
	<line x1="1714.64" y1="562.01" x2="1714.64" y2="504.37" style="stroke:#F0F0F0;stroke-width:8.64"/>
	<line x1="1714.64" y1="475.61" x2="1714.64" y2="417.97" style="stroke:#F0F0F0;stroke-width:8.64"/>
	<line x1="1714.64" y1="389.21" x2="1714.64" y2="331.57" style="stroke:#F0F0F0;stroke-width:8.64"/>
	<line x1="1714.64" y1="302.81" x2="1714.64" y2="245.30" style="stroke:#F0F0F0;stroke-width:8.64"/>
	<line x1="2935.17" y1="2203.64" x2="2935.17" y2="2145.99" style="stroke:#F0F0F0;stroke-width:8.64"/>
	<line x1="2935.17" y1="2117.24" x2="2935.17" y2="2059.59" style="stroke:#F0F0F0;stroke-width:8.64"/>
	<line x1="2935.17" y1="2030.84" x2="2935.17" y2="1973.19" style="stroke:#F0F0F0;stroke-width:8.64"/>
	<line x1="2935.17" y1="1944.44" x2="2935.17" y2="1886.79" style="stroke:#F0F0F0;stroke-width:8.64"/>
	<line x1="2935.17" y1="1858.03" x2="2935.17" y2="1800.39" style="stroke:#F0F0F0;stroke-width:8.64"/>
	<line x1="2935.17" y1="1771.63" x2="2935.17" y2="1713.99" style="stroke:#F0F0F0;stroke-width:8.64"/>
	<line x1="2935.17" y1="1685.23" x2="2935.17" y2="1627.59" style="stroke:#F0F0F0;stroke-width:8.64"/>
	<line x1="2935.17" y1="1598.83" x2="2935.17" y2="1541.18" style="stroke:#F0F0F0;stroke-width:8.64"/>
	<line x1="2935.17" y1="1512.43" x2="2935.17" y2="1454.78" style="stroke:#F0F0F0;stroke-width:8.64"/>
	<line x1="2935.17" y1="1426.03" x2="2935.17" y2="1368.38" style="stroke:#F0F0F0;stroke-width:8.64"/>
	<line x1="2935.17" y1="1339.63" x2="2935.17" y2="1281.98" style="stroke:#F0F0F0;stroke-width:8.64"/>
	<line x1="2935.17" y1="1253.22" x2="2935.17" y2="1195.58" style="stroke:#F0F0F0;stroke-width:8.64"/>
	<line x1="2935.17" y1="1166.82" x2="2935.17" y2="1109.18" style="stroke:#F0F0F0;stroke-width:8.64"/>
	<line x1="2935.17" y1="1080.42" x2="2935.17" y2="1022.78" style="stroke:#F0F0F0;stroke-width:8.64"/>
	<line x1="2935.17" y1="994.02" x2="2935.17" y2="936.37" style="stroke:#F0F0F0;stroke-width:8.64"/>
	<line x1="2935.17" y1="907.62" x2="2935.17" y2="849.97" style="stroke:#F0F0F0;stroke-width:8.64"/>
	<line x1="2935.17" y1="821.22" x2="2935.17" y2="763.57" style="stroke:#F0F0F0;stroke-width:8.64"/>
	<line x1="2935.17" y1="734.82" x2="2935.17" y2="677.17" style="stroke:#F0F0F0;stroke-width:8.64"/>
	<line x1="2935.17" y1="648.42" x2="2935.17" y2="590.77" style="stroke:#F0F0F0;stroke-width:8.64"/>
	<line x1="2935.17" y1="562.01" x2="2935.17" y2="504.37" style="stroke:#F0F0F0;stroke-width:8.64"/>
	<line x1="2935.17" y1="475.61" x2="2935.17" y2="417.97" style="stroke:#F0F0F0;stroke-width:8.64"/>
	<line x1="2935.17" y1="389.21" x2="2935.17" y2="331.57" style="stroke:#F0F0F0;stroke-width:8.64"/>
	<line x1="2935.17" y1="302.81" x2="2935.17" y2="245.30" style="stroke:#F0F0F0;stroke-width:8.64"/>
	<line x1="4155.84" y1="2203.64" x2="4155.84" y2="2145.99" style="stroke:#F0F0F0;stroke-width:8.64"/>
	<line x1="4155.84" y1="2117.24" x2="4155.84" y2="2059.59" style="stroke:#F0F0F0;stroke-width:8.64"/>
	<line x1="4155.84" y1="2030.84" x2="4155.84" y2="1973.19" style="stroke:#F0F0F0;stroke-width:8.64"/>
	<line x1="4155.84" y1="1944.44" x2="4155.84" y2="1886.79" style="stroke:#F0F0F0;stroke-width:8.64"/>
	<line x1="4155.84" y1="1858.03" x2="4155.84" y2="1800.39" style="stroke:#F0F0F0;stroke-width:8.64"/>
	<line x1="4155.84" y1="1771.63" x2="4155.84" y2="1713.99" style="stroke:#F0F0F0;stroke-width:8.64"/>
	<line x1="4155.84" y1="1685.23" x2="4155.84" y2="1627.59" style="stroke:#F0F0F0;stroke-width:8.64"/>
	<line x1="4155.84" y1="1598.83" x2="4155.84" y2="1541.18" style="stroke:#F0F0F0;stroke-width:8.64"/>
	<line x1="4155.84" y1="1512.43" x2="4155.84" y2="1454.78" style="stroke:#F0F0F0;stroke-width:8.64"/>
	<line x1="4155.84" y1="1426.03" x2="4155.84" y2="1368.38" style="stroke:#F0F0F0;stroke-width:8.64"/>
	<line x1="4155.84" y1="1339.63" x2="4155.84" y2="1281.98" style="stroke:#F0F0F0;stroke-width:8.64"/>
	<line x1="4155.84" y1="1253.22" x2="4155.84" y2="1195.58" style="stroke:#F0F0F0;stroke-width:8.64"/>
	<line x1="4155.84" y1="1166.82" x2="4155.84" y2="1109.18" style="stroke:#F0F0F0;stroke-width:8.64"/>
	<line x1="4155.84" y1="1080.42" x2="4155.84" y2="1022.78" style="stroke:#F0F0F0;stroke-width:8.64"/>
	<line x1="4155.84" y1="994.02" x2="4155.84" y2="936.37" style="stroke:#F0F0F0;stroke-width:8.64"/>
	<line x1="4155.84" y1="907.62" x2="4155.84" y2="849.97" style="stroke:#F0F0F0;stroke-width:8.64"/>
	<line x1="4155.84" y1="821.22" x2="4155.84" y2="763.57" style="stroke:#F0F0F0;stroke-width:8.64"/>
	<line x1="4155.84" y1="734.82" x2="4155.84" y2="677.17" style="stroke:#F0F0F0;stroke-width:8.64"/>
	<line x1="4155.84" y1="648.42" x2="4155.84" y2="590.77" style="stroke:#F0F0F0;stroke-width:8.64"/>
	<line x1="4155.84" y1="562.01" x2="4155.84" y2="504.37" style="stroke:#F0F0F0;stroke-width:8.64"/>
	<line x1="4155.84" y1="475.61" x2="4155.84" y2="417.97" style="stroke:#F0F0F0;stroke-width:8.64"/>
	<line x1="4155.84" y1="389.21" x2="4155.84" y2="331.57" style="stroke:#F0F0F0;stroke-width:8.64"/>
	<line x1="4155.84" y1="302.81" x2="4155.84" y2="245.30" style="stroke:#F0F0F0;stroke-width:8.64"/>
	<defs>
		<path id="path_VbiqxMqJ" d="M494.10 1872.07 L494.10 1872.07 L616.14 1782.57 L738.32 1708.05 L860.36 1657.56 L982.40 1624.48 L1104.44 1606.53 L1226.47 1602.61 L1348.52 1610.85 L1470.56 1629.34 L1592.60 1655.26 L1714.64 1685.91 L1836.68 1719.25 L1958.85 1753.41 L2080.89 1786.89 L2202.93 1818.75 L2324.97 1848.58 L2447.01 1875.85 L2569.05 1900.42 L2691.09 1922.30 L2813.13 1941.60 L2935.17 1958.61 L3057.35 1973.19 L3179.39 1985.61 L3301.43 1996.28 L3423.47 2005.19 L3423.47 362.89 L3301.43 348.98 L3179.39 336.56 L3057.35 326.17 L2935.17 317.93 L2813.13 311.99 L2691.09 308.88 L2569.05 308.75 L2447.01 311.85 L2324.97 318.60 L2202.93 329.27 L2080.89 343.99 L1958.85 362.89 L1836.68 386.38 L1714.64 414.32 L1592.60 447.40 L1470.56 486.01 L1348.52 532.04 L1226.47 588.61 L1104.44 661.65 L982.40 761.01 L860.36 901.00 L738.32 1097.57 L616.14 1356.37 L494.10 1632.45 L494.10 1872.07 Z" stroke-linejoin="round"/>
	</defs>
	<defs>
		<clipPath id="clipPath_jyZtQhBy">
			<use xlink:href="#path_VbiqxMqJ"/>
		</clipPath>
	</defs>
	<use xlink:href="#path_VbiqxMqJ" style="stroke:none;fill:#E0E0E0"/>
	<use xlink:href="#path_VbiqxMqJ" style="fill:none;stroke:#E0E0E0;stroke-width:17.28" clip-path="url(#clipPath_jyZtQhBy)"/>
	<path d=" M494.10 1752.33 L616.14 1569.53 L738.18 1402.81 L860.22 1279.28 L982.26 1192.88 L1104.30 1134.15 L1226.34 1095.68 L1348.52 1071.51 L1470.56 1057.74 L1592.60 1051.40 L1714.64 1050.18 L1836.68 1052.88 L1958.72 1058.28 L2080.76 1065.44 L2202.80 1074.08 L2324.84 1083.66 L2447.01 1093.92 L2569.05 1104.59 L2691.09 1115.66 L2813.13 1126.86 L2935.17 1138.34 L3057.21 1149.68 L3179.25 1161.15 L3301.29 1172.63 L3423.33 1184.10" stroke-linejoin="round" style="fill:none;stroke:#1A85FF;stroke-width:8.64"/>
	<line x1="430.79" y1="2203.64" x2="430.79" y2="245.30" style="stroke:#000000;stroke-width:5.76"/>
	<line x1="430.79" y1="2140.32" x2="390.83" y2="2140.32" style="stroke:#000000;stroke-width:5.76"/>
	<text x="370.85" y="2175.37" style="font-family:'Helvetica';font-size:100.04px;fill:#000000" text-anchor="end">-.05</text>
	<line x1="430.79" y1="1727.76" x2="390.83" y2="1727.76" style="stroke:#000000;stroke-width:5.76"/>
	<text x="370.85" y="1762.80" style="font-family:'Helvetica';font-size:100.04px;fill:#000000" text-anchor="end">0</text>
	<line x1="430.79" y1="1315.19" x2="390.83" y2="1315.19" style="stroke:#000000;stroke-width:5.76"/>
	<text x="370.85" y="1350.24" style="font-family:'Helvetica';font-size:100.04px;fill:#000000" text-anchor="end">.05</text>
	<line x1="430.79" y1="902.76" x2="390.83" y2="902.76" style="stroke:#000000;stroke-width:5.76"/>
	<text x="370.85" y="937.81" style="font-family:'Helvetica';font-size:100.04px;fill:#000000" text-anchor="end">.1</text>
	<line x1="430.79" y1="490.19" x2="390.83" y2="490.19" style="stroke:#000000;stroke-width:5.76"/>
	<text x="370.85" y="525.24" style="font-family:'Helvetica';font-size:100.04px;fill:#000000" text-anchor="end">.15</text>
	<line x1="430.79" y1="2203.64" x2="4219.16" y2="2203.64" style="stroke:#000000;stroke-width:5.76"/>
	<line x1="494.10" y1="2203.64" x2="494.10" y2="2243.74" style="stroke:#000000;stroke-width:5.76"/>
	<text x="494.10" y="2333.67" style="font-family:'Helvetica';font-size:100.04px;fill:#000000" text-anchor="middle">0</text>
	<line x1="1714.64" y1="2203.64" x2="1714.64" y2="2243.74" style="stroke:#000000;stroke-width:5.76"/>
	<text x="1714.64" y="2333.67" style="font-family:'Helvetica';font-size:100.04px;fill:#000000" text-anchor="middle">10</text>
	<line x1="2935.17" y1="2203.64" x2="2935.17" y2="2243.74" style="stroke:#000000;stroke-width:5.76"/>
	<text x="2935.17" y="2333.67" style="font-family:'Helvetica';font-size:100.04px;fill:#000000" text-anchor="middle">20</text>
	<line x1="4155.84" y1="2203.64" x2="4155.84" y2="2243.74" style="stroke:#000000;stroke-width:5.76"/>
	<text x="4155.84" y="2333.67" style="font-family:'Helvetica';font-size:100.04px;fill:#000000" text-anchor="middle">30</text>
	<text x="2324.97" y="2473.67" style="font-family:'Helvetica';font-size:100.04px;fill:#000000" text-anchor="middle">Step</text>
	<rect x="1304.51" y="2558.29" width="2040.93" height="186.30" style="fill:#FFFFFF"/>
	<rect x="1307.38" y="2561.17" width="2035.17" height="180.54" style="fill:none;stroke:#FFFFFF;stroke-width:5.76"/>
	<rect x="1347.71" y="2601.49" width="230.45" height="99.90" style="fill:#E0E0E0"/>
	<rect x="1352.02" y="2605.81" width="221.81" height="91.26" style="fill:none;stroke:#E0E0E0;stroke-width:8.64"/>
	<line x1="2119.36" y1="2651.44" x2="2349.68" y2="2651.44" style="stroke:#1A85FF;stroke-width:8.64"/>
	<text x="1638.09" y="2686.49" style="font-family:'Helvetica';font-size:100.04px;fill:#000000">90% CI</text>
	<text x="2409.75" y="2686.49" style="font-family:'Helvetica';font-size:100.04px;fill:#000000">Orthogonalized IRF</text>
	<rect x="430.79" y="100.85" width="3788.37" height="144.45" style="fill:#F0F0F0;stroke:#000000;stroke-width:5.76"/>
	<text x="2324.97" y="211.62" style="font-family:'Helvetica';font-size:110.03px;fill:#000000" text-anchor="middle">irf_P7: DGS102 -&gt; FEDF</text>
</svg>
