<?xml version="1.0" encoding="UTF-8" standalone="no"?>
<!-- This is a Stata 18.0 generated SVG file (http://www.stata.com) -->

<svg version="1.1" width="6.000in" height="4.000in" viewBox="0 0 4320 2880" xmlns="http://www.w3.org/2000/svg" xmlns:xlink="http://www.w3.org/1999/xlink">
	<desc>Stata Graph - irfr6</desc>
	<rect x="0" y="0" width="4320" height="2880" style="fill:#FFFFFF;stroke:none"/>
	<rect x="0.00" y="0.00" width="4320.00" height="2880.00" style="fill:#FFFFFF"/>
	<rect x="2.88" y="2.88" width="4314.24" height="2874.24" style="fill:none;stroke:#FFFFFF;stroke-width:5.76"/>
	<rect x="395.82" y="245.30" width="3823.33" height="1958.34" style="fill:#FFFFFF"/>
	<rect x="398.70" y="248.18" width="3817.58" height="1952.58" style="fill:none;stroke:#FFFFFF;stroke-width:5.76"/>
	<line x1="395.82" y1="2133.03" x2="453.47" y2="2133.03" style="stroke:#F0F0F0;stroke-width:8.64"/>
	<line x1="482.22" y1="2133.03" x2="539.87" y2="2133.03" style="stroke:#F0F0F0;stroke-width:8.64"/>
	<line x1="568.62" y1="2133.03" x2="626.27" y2="2133.03" style="stroke:#F0F0F0;stroke-width:8.64"/>
	<line x1="655.02" y1="2133.03" x2="712.67" y2="2133.03" style="stroke:#F0F0F0;stroke-width:8.64"/>
	<line x1="741.42" y1="2133.03" x2="799.07" y2="2133.03" style="stroke:#F0F0F0;stroke-width:8.64"/>
	<line x1="827.82" y1="2133.03" x2="885.47" y2="2133.03" style="stroke:#F0F0F0;stroke-width:8.64"/>
	<line x1="914.22" y1="2133.03" x2="971.87" y2="2133.03" style="stroke:#F0F0F0;stroke-width:8.64"/>
	<line x1="1000.62" y1="2133.03" x2="1058.27" y2="2133.03" style="stroke:#F0F0F0;stroke-width:8.64"/>
	<line x1="1087.02" y1="2133.03" x2="1144.67" y2="2133.03" style="stroke:#F0F0F0;stroke-width:8.64"/>
	<line x1="1173.42" y1="2133.03" x2="1231.07" y2="2133.03" style="stroke:#F0F0F0;stroke-width:8.64"/>
	<line x1="1259.82" y1="2133.03" x2="1317.47" y2="2133.03" style="stroke:#F0F0F0;stroke-width:8.64"/>
	<line x1="1346.22" y1="2133.03" x2="1403.87" y2="2133.03" style="stroke:#F0F0F0;stroke-width:8.64"/>
	<line x1="1432.62" y1="2133.03" x2="1490.27" y2="2133.03" style="stroke:#F0F0F0;stroke-width:8.64"/>
	<line x1="1519.02" y1="2133.03" x2="1576.67" y2="2133.03" style="stroke:#F0F0F0;stroke-width:8.64"/>
	<line x1="1605.42" y1="2133.03" x2="1663.07" y2="2133.03" style="stroke:#F0F0F0;stroke-width:8.64"/>
	<line x1="1691.82" y1="2133.03" x2="1749.47" y2="2133.03" style="stroke:#F0F0F0;stroke-width:8.64"/>
	<line x1="1778.22" y1="2133.03" x2="1835.87" y2="2133.03" style="stroke:#F0F0F0;stroke-width:8.64"/>
	<line x1="1864.62" y1="2133.03" x2="1922.27" y2="2133.03" style="stroke:#F0F0F0;stroke-width:8.64"/>
	<line x1="1951.02" y1="2133.03" x2="2008.67" y2="2133.03" style="stroke:#F0F0F0;stroke-width:8.64"/>
	<line x1="2037.42" y1="2133.03" x2="2095.07" y2="2133.03" style="stroke:#F0F0F0;stroke-width:8.64"/>
	<line x1="2123.82" y1="2133.03" x2="2181.47" y2="2133.03" style="stroke:#F0F0F0;stroke-width:8.64"/>
	<line x1="2210.22" y1="2133.03" x2="2267.86" y2="2133.03" style="stroke:#F0F0F0;stroke-width:8.64"/>
	<line x1="2296.62" y1="2133.03" x2="2354.27" y2="2133.03" style="stroke:#F0F0F0;stroke-width:8.64"/>
	<line x1="2383.02" y1="2133.03" x2="2440.67" y2="2133.03" style="stroke:#F0F0F0;stroke-width:8.64"/>
	<line x1="2469.42" y1="2133.03" x2="2527.07" y2="2133.03" style="stroke:#F0F0F0;stroke-width:8.64"/>
	<line x1="2555.82" y1="2133.03" x2="2613.47" y2="2133.03" style="stroke:#F0F0F0;stroke-width:8.64"/>
	<line x1="2642.22" y1="2133.03" x2="2699.87" y2="2133.03" style="stroke:#F0F0F0;stroke-width:8.64"/>
	<line x1="2728.62" y1="2133.03" x2="2786.27" y2="2133.03" style="stroke:#F0F0F0;stroke-width:8.64"/>
	<line x1="2815.02" y1="2133.03" x2="2872.67" y2="2133.03" style="stroke:#F0F0F0;stroke-width:8.64"/>
	<line x1="2901.42" y1="2133.03" x2="2959.07" y2="2133.03" style="stroke:#F0F0F0;stroke-width:8.64"/>
	<line x1="2987.82" y1="2133.03" x2="3045.47" y2="2133.03" style="stroke:#F0F0F0;stroke-width:8.64"/>
	<line x1="3074.22" y1="2133.03" x2="3131.87" y2="2133.03" style="stroke:#F0F0F0;stroke-width:8.64"/>
	<line x1="3160.62" y1="2133.03" x2="3218.27" y2="2133.03" style="stroke:#F0F0F0;stroke-width:8.64"/>
	<line x1="3247.02" y1="2133.03" x2="3304.67" y2="2133.03" style="stroke:#F0F0F0;stroke-width:8.64"/>
	<line x1="3333.42" y1="2133.03" x2="3391.07" y2="2133.03" style="stroke:#F0F0F0;stroke-width:8.64"/>
	<line x1="3419.82" y1="2133.03" x2="3477.47" y2="2133.03" style="stroke:#F0F0F0;stroke-width:8.64"/>
	<line x1="3506.22" y1="2133.03" x2="3563.87" y2="2133.03" style="stroke:#F0F0F0;stroke-width:8.64"/>
	<line x1="3592.62" y1="2133.03" x2="3650.27" y2="2133.03" style="stroke:#F0F0F0;stroke-width:8.64"/>
	<line x1="3679.02" y1="2133.03" x2="3736.67" y2="2133.03" style="stroke:#F0F0F0;stroke-width:8.64"/>
	<line x1="3765.42" y1="2133.03" x2="3823.07" y2="2133.03" style="stroke:#F0F0F0;stroke-width:8.64"/>
	<line x1="3851.82" y1="2133.03" x2="3909.47" y2="2133.03" style="stroke:#F0F0F0;stroke-width:8.64"/>
	<line x1="3938.22" y1="2133.03" x2="3995.87" y2="2133.03" style="stroke:#F0F0F0;stroke-width:8.64"/>
	<line x1="4024.62" y1="2133.03" x2="4082.27" y2="2133.03" style="stroke:#F0F0F0;stroke-width:8.64"/>
	<line x1="4111.02" y1="2133.03" x2="4168.67" y2="2133.03" style="stroke:#F0F0F0;stroke-width:8.64"/>
	<line x1="4197.42" y1="2133.03" x2="4219.16" y2="2133.03" style="stroke:#F0F0F0;stroke-width:8.64"/>
	<line x1="395.82" y1="1524.98" x2="453.47" y2="1524.98" style="stroke:#F0F0F0;stroke-width:8.64"/>
	<line x1="482.22" y1="1524.98" x2="539.87" y2="1524.98" style="stroke:#F0F0F0;stroke-width:8.64"/>
	<line x1="568.62" y1="1524.98" x2="626.27" y2="1524.98" style="stroke:#F0F0F0;stroke-width:8.64"/>
	<line x1="655.02" y1="1524.98" x2="712.67" y2="1524.98" style="stroke:#F0F0F0;stroke-width:8.64"/>
	<line x1="741.42" y1="1524.98" x2="799.07" y2="1524.98" style="stroke:#F0F0F0;stroke-width:8.64"/>
	<line x1="827.82" y1="1524.98" x2="885.47" y2="1524.98" style="stroke:#F0F0F0;stroke-width:8.64"/>
	<line x1="914.22" y1="1524.98" x2="971.87" y2="1524.98" style="stroke:#F0F0F0;stroke-width:8.64"/>
	<line x1="1000.62" y1="1524.98" x2="1058.27" y2="1524.98" style="stroke:#F0F0F0;stroke-width:8.64"/>
	<line x1="1087.02" y1="1524.98" x2="1144.67" y2="1524.98" style="stroke:#F0F0F0;stroke-width:8.64"/>
	<line x1="1173.42" y1="1524.98" x2="1231.07" y2="1524.98" style="stroke:#F0F0F0;stroke-width:8.64"/>
	<line x1="1259.82" y1="1524.98" x2="1317.47" y2="1524.98" style="stroke:#F0F0F0;stroke-width:8.64"/>
	<line x1="1346.22" y1="1524.98" x2="1403.87" y2="1524.98" style="stroke:#F0F0F0;stroke-width:8.64"/>
	<line x1="1432.62" y1="1524.98" x2="1490.27" y2="1524.98" style="stroke:#F0F0F0;stroke-width:8.64"/>
	<line x1="1519.02" y1="1524.98" x2="1576.67" y2="1524.98" style="stroke:#F0F0F0;stroke-width:8.64"/>
	<line x1="1605.42" y1="1524.98" x2="1663.07" y2="1524.98" style="stroke:#F0F0F0;stroke-width:8.64"/>
	<line x1="1691.82" y1="1524.98" x2="1749.47" y2="1524.98" style="stroke:#F0F0F0;stroke-width:8.64"/>
	<line x1="1778.22" y1="1524.98" x2="1835.87" y2="1524.98" style="stroke:#F0F0F0;stroke-width:8.64"/>
	<line x1="1864.62" y1="1524.98" x2="1922.27" y2="1524.98" style="stroke:#F0F0F0;stroke-width:8.64"/>
	<line x1="1951.02" y1="1524.98" x2="2008.67" y2="1524.98" style="stroke:#F0F0F0;stroke-width:8.64"/>
	<line x1="2037.42" y1="1524.98" x2="2095.07" y2="1524.98" style="stroke:#F0F0F0;stroke-width:8.64"/>
	<line x1="2123.82" y1="1524.98" x2="2181.47" y2="1524.98" style="stroke:#F0F0F0;stroke-width:8.64"/>
	<line x1="2210.22" y1="1524.98" x2="2267.86" y2="1524.98" style="stroke:#F0F0F0;stroke-width:8.64"/>
	<line x1="2296.62" y1="1524.98" x2="2354.27" y2="1524.98" style="stroke:#F0F0F0;stroke-width:8.64"/>
	<line x1="2383.02" y1="1524.98" x2="2440.67" y2="1524.98" style="stroke:#F0F0F0;stroke-width:8.64"/>
	<line x1="2469.42" y1="1524.98" x2="2527.07" y2="1524.98" style="stroke:#F0F0F0;stroke-width:8.64"/>
	<line x1="2555.82" y1="1524.98" x2="2613.47" y2="1524.98" style="stroke:#F0F0F0;stroke-width:8.64"/>
	<line x1="2642.22" y1="1524.98" x2="2699.87" y2="1524.98" style="stroke:#F0F0F0;stroke-width:8.64"/>
	<line x1="2728.62" y1="1524.98" x2="2786.27" y2="1524.98" style="stroke:#F0F0F0;stroke-width:8.64"/>
	<line x1="2815.02" y1="1524.98" x2="2872.67" y2="1524.98" style="stroke:#F0F0F0;stroke-width:8.64"/>
	<line x1="2901.42" y1="1524.98" x2="2959.07" y2="1524.98" style="stroke:#F0F0F0;stroke-width:8.64"/>
	<line x1="2987.82" y1="1524.98" x2="3045.47" y2="1524.98" style="stroke:#F0F0F0;stroke-width:8.64"/>
	<line x1="3074.22" y1="1524.98" x2="3131.87" y2="1524.98" style="stroke:#F0F0F0;stroke-width:8.64"/>
	<line x1="3160.62" y1="1524.98" x2="3218.27" y2="1524.98" style="stroke:#F0F0F0;stroke-width:8.64"/>
	<line x1="3247.02" y1="1524.98" x2="3304.67" y2="1524.98" style="stroke:#F0F0F0;stroke-width:8.64"/>
	<line x1="3333.42" y1="1524.98" x2="3391.07" y2="1524.98" style="stroke:#F0F0F0;stroke-width:8.64"/>
	<line x1="3419.82" y1="1524.98" x2="3477.47" y2="1524.98" style="stroke:#F0F0F0;stroke-width:8.64"/>
	<line x1="3506.22" y1="1524.98" x2="3563.87" y2="1524.98" style="stroke:#F0F0F0;stroke-width:8.64"/>
	<line x1="3592.62" y1="1524.98" x2="3650.27" y2="1524.98" style="stroke:#F0F0F0;stroke-width:8.64"/>
	<line x1="3679.02" y1="1524.98" x2="3736.67" y2="1524.98" style="stroke:#F0F0F0;stroke-width:8.64"/>
	<line x1="3765.42" y1="1524.98" x2="3823.07" y2="1524.98" style="stroke:#F0F0F0;stroke-width:8.64"/>
	<line x1="3851.82" y1="1524.98" x2="3909.47" y2="1524.98" style="stroke:#F0F0F0;stroke-width:8.64"/>
	<line x1="3938.22" y1="1524.98" x2="3995.87" y2="1524.98" style="stroke:#F0F0F0;stroke-width:8.64"/>
	<line x1="4024.62" y1="1524.98" x2="4082.27" y2="1524.98" style="stroke:#F0F0F0;stroke-width:8.64"/>
	<line x1="4111.02" y1="1524.98" x2="4168.67" y2="1524.98" style="stroke:#F0F0F0;stroke-width:8.64"/>
	<line x1="4197.42" y1="1524.98" x2="4219.16" y2="1524.98" style="stroke:#F0F0F0;stroke-width:8.64"/>
	<line x1="395.82" y1="916.80" x2="453.47" y2="916.80" style="stroke:#F0F0F0;stroke-width:8.64"/>
	<line x1="482.22" y1="916.80" x2="539.87" y2="916.80" style="stroke:#F0F0F0;stroke-width:8.64"/>
	<line x1="568.62" y1="916.80" x2="626.27" y2="916.80" style="stroke:#F0F0F0;stroke-width:8.64"/>
	<line x1="655.02" y1="916.80" x2="712.67" y2="916.80" style="stroke:#F0F0F0;stroke-width:8.64"/>
	<line x1="741.42" y1="916.80" x2="799.07" y2="916.80" style="stroke:#F0F0F0;stroke-width:8.64"/>
	<line x1="827.82" y1="916.80" x2="885.47" y2="916.80" style="stroke:#F0F0F0;stroke-width:8.64"/>
	<line x1="914.22" y1="916.80" x2="971.87" y2="916.80" style="stroke:#F0F0F0;stroke-width:8.64"/>
	<line x1="1000.62" y1="916.80" x2="1058.27" y2="916.80" style="stroke:#F0F0F0;stroke-width:8.64"/>
	<line x1="1087.02" y1="916.80" x2="1144.67" y2="916.80" style="stroke:#F0F0F0;stroke-width:8.64"/>
	<line x1="1173.42" y1="916.80" x2="1231.07" y2="916.80" style="stroke:#F0F0F0;stroke-width:8.64"/>
	<line x1="1259.82" y1="916.80" x2="1317.47" y2="916.80" style="stroke:#F0F0F0;stroke-width:8.64"/>
	<line x1="1346.22" y1="916.80" x2="1403.87" y2="916.80" style="stroke:#F0F0F0;stroke-width:8.64"/>
	<line x1="1432.62" y1="916.80" x2="1490.27" y2="916.80" style="stroke:#F0F0F0;stroke-width:8.64"/>
	<line x1="1519.02" y1="916.80" x2="1576.67" y2="916.80" style="stroke:#F0F0F0;stroke-width:8.64"/>
	<line x1="1605.42" y1="916.80" x2="1663.07" y2="916.80" style="stroke:#F0F0F0;stroke-width:8.64"/>
	<line x1="1691.82" y1="916.80" x2="1749.47" y2="916.80" style="stroke:#F0F0F0;stroke-width:8.64"/>
	<line x1="1778.22" y1="916.80" x2="1835.87" y2="916.80" style="stroke:#F0F0F0;stroke-width:8.64"/>
	<line x1="1864.62" y1="916.80" x2="1922.27" y2="916.80" style="stroke:#F0F0F0;stroke-width:8.64"/>
	<line x1="1951.02" y1="916.80" x2="2008.67" y2="916.80" style="stroke:#F0F0F0;stroke-width:8.64"/>
	<line x1="2037.42" y1="916.80" x2="2095.07" y2="916.80" style="stroke:#F0F0F0;stroke-width:8.64"/>
	<line x1="2123.82" y1="916.80" x2="2181.47" y2="916.80" style="stroke:#F0F0F0;stroke-width:8.64"/>
	<line x1="2210.22" y1="916.80" x2="2267.86" y2="916.80" style="stroke:#F0F0F0;stroke-width:8.64"/>
	<line x1="2296.62" y1="916.80" x2="2354.27" y2="916.80" style="stroke:#F0F0F0;stroke-width:8.64"/>
	<line x1="2383.02" y1="916.80" x2="2440.67" y2="916.80" style="stroke:#F0F0F0;stroke-width:8.64"/>
	<line x1="2469.42" y1="916.80" x2="2527.07" y2="916.80" style="stroke:#F0F0F0;stroke-width:8.64"/>
	<line x1="2555.82" y1="916.80" x2="2613.47" y2="916.80" style="stroke:#F0F0F0;stroke-width:8.64"/>
	<line x1="2642.22" y1="916.80" x2="2699.87" y2="916.80" style="stroke:#F0F0F0;stroke-width:8.64"/>
	<line x1="2728.62" y1="916.80" x2="2786.27" y2="916.80" style="stroke:#F0F0F0;stroke-width:8.64"/>
	<line x1="2815.02" y1="916.80" x2="2872.67" y2="916.80" style="stroke:#F0F0F0;stroke-width:8.64"/>
	<line x1="2901.42" y1="916.80" x2="2959.07" y2="916.80" style="stroke:#F0F0F0;stroke-width:8.64"/>
	<line x1="2987.82" y1="916.80" x2="3045.47" y2="916.80" style="stroke:#F0F0F0;stroke-width:8.64"/>
	<line x1="3074.22" y1="916.80" x2="3131.87" y2="916.80" style="stroke:#F0F0F0;stroke-width:8.64"/>
	<line x1="3160.62" y1="916.80" x2="3218.27" y2="916.80" style="stroke:#F0F0F0;stroke-width:8.64"/>
	<line x1="3247.02" y1="916.80" x2="3304.67" y2="916.80" style="stroke:#F0F0F0;stroke-width:8.64"/>
	<line x1="3333.42" y1="916.80" x2="3391.07" y2="916.80" style="stroke:#F0F0F0;stroke-width:8.64"/>
	<line x1="3419.82" y1="916.80" x2="3477.47" y2="916.80" style="stroke:#F0F0F0;stroke-width:8.64"/>
	<line x1="3506.22" y1="916.80" x2="3563.87" y2="916.80" style="stroke:#F0F0F0;stroke-width:8.64"/>
	<line x1="3592.62" y1="916.80" x2="3650.27" y2="916.80" style="stroke:#F0F0F0;stroke-width:8.64"/>
	<line x1="3679.02" y1="916.80" x2="3736.67" y2="916.80" style="stroke:#F0F0F0;stroke-width:8.64"/>
	<line x1="3765.42" y1="916.80" x2="3823.07" y2="916.80" style="stroke:#F0F0F0;stroke-width:8.64"/>
	<line x1="3851.82" y1="916.80" x2="3909.47" y2="916.80" style="stroke:#F0F0F0;stroke-width:8.64"/>
	<line x1="3938.22" y1="916.80" x2="3995.87" y2="916.80" style="stroke:#F0F0F0;stroke-width:8.64"/>
	<line x1="4024.62" y1="916.80" x2="4082.27" y2="916.80" style="stroke:#F0F0F0;stroke-width:8.64"/>
	<line x1="4111.02" y1="916.80" x2="4168.67" y2="916.80" style="stroke:#F0F0F0;stroke-width:8.64"/>
	<line x1="4197.42" y1="916.80" x2="4219.16" y2="916.80" style="stroke:#F0F0F0;stroke-width:8.64"/>
	<line x1="395.82" y1="308.75" x2="453.47" y2="308.75" style="stroke:#F0F0F0;stroke-width:8.64"/>
	<line x1="482.22" y1="308.75" x2="539.87" y2="308.75" style="stroke:#F0F0F0;stroke-width:8.64"/>
	<line x1="568.62" y1="308.75" x2="626.27" y2="308.75" style="stroke:#F0F0F0;stroke-width:8.64"/>
	<line x1="655.02" y1="308.75" x2="712.67" y2="308.75" style="stroke:#F0F0F0;stroke-width:8.64"/>
	<line x1="741.42" y1="308.75" x2="799.07" y2="308.75" style="stroke:#F0F0F0;stroke-width:8.64"/>
	<line x1="827.82" y1="308.75" x2="885.47" y2="308.75" style="stroke:#F0F0F0;stroke-width:8.64"/>
	<line x1="914.22" y1="308.75" x2="971.87" y2="308.75" style="stroke:#F0F0F0;stroke-width:8.64"/>
	<line x1="1000.62" y1="308.75" x2="1058.27" y2="308.75" style="stroke:#F0F0F0;stroke-width:8.64"/>
	<line x1="1087.02" y1="308.75" x2="1144.67" y2="308.75" style="stroke:#F0F0F0;stroke-width:8.64"/>
	<line x1="1173.42" y1="308.75" x2="1231.07" y2="308.75" style="stroke:#F0F0F0;stroke-width:8.64"/>
	<line x1="1259.82" y1="308.75" x2="1317.47" y2="308.75" style="stroke:#F0F0F0;stroke-width:8.64"/>
	<line x1="1346.22" y1="308.75" x2="1403.87" y2="308.75" style="stroke:#F0F0F0;stroke-width:8.64"/>
	<line x1="1432.62" y1="308.75" x2="1490.27" y2="308.75" style="stroke:#F0F0F0;stroke-width:8.64"/>
	<line x1="1519.02" y1="308.75" x2="1576.67" y2="308.75" style="stroke:#F0F0F0;stroke-width:8.64"/>
	<line x1="1605.42" y1="308.75" x2="1663.07" y2="308.75" style="stroke:#F0F0F0;stroke-width:8.64"/>
	<line x1="1691.82" y1="308.75" x2="1749.47" y2="308.75" style="stroke:#F0F0F0;stroke-width:8.64"/>
	<line x1="1778.22" y1="308.75" x2="1835.87" y2="308.75" style="stroke:#F0F0F0;stroke-width:8.64"/>
	<line x1="1864.62" y1="308.75" x2="1922.27" y2="308.75" style="stroke:#F0F0F0;stroke-width:8.64"/>
	<line x1="1951.02" y1="308.75" x2="2008.67" y2="308.75" style="stroke:#F0F0F0;stroke-width:8.64"/>
	<line x1="2037.42" y1="308.75" x2="2095.07" y2="308.75" style="stroke:#F0F0F0;stroke-width:8.64"/>
	<line x1="2123.82" y1="308.75" x2="2181.47" y2="308.75" style="stroke:#F0F0F0;stroke-width:8.64"/>
	<line x1="2210.22" y1="308.75" x2="2267.86" y2="308.75" style="stroke:#F0F0F0;stroke-width:8.64"/>
	<line x1="2296.62" y1="308.75" x2="2354.27" y2="308.75" style="stroke:#F0F0F0;stroke-width:8.64"/>
	<line x1="2383.02" y1="308.75" x2="2440.67" y2="308.75" style="stroke:#F0F0F0;stroke-width:8.64"/>
	<line x1="2469.42" y1="308.75" x2="2527.07" y2="308.75" style="stroke:#F0F0F0;stroke-width:8.64"/>
	<line x1="2555.82" y1="308.75" x2="2613.47" y2="308.75" style="stroke:#F0F0F0;stroke-width:8.64"/>
	<line x1="2642.22" y1="308.75" x2="2699.87" y2="308.75" style="stroke:#F0F0F0;stroke-width:8.64"/>
	<line x1="2728.62" y1="308.75" x2="2786.27" y2="308.75" style="stroke:#F0F0F0;stroke-width:8.64"/>
	<line x1="2815.02" y1="308.75" x2="2872.67" y2="308.75" style="stroke:#F0F0F0;stroke-width:8.64"/>
	<line x1="2901.42" y1="308.75" x2="2959.07" y2="308.75" style="stroke:#F0F0F0;stroke-width:8.64"/>
	<line x1="2987.82" y1="308.75" x2="3045.47" y2="308.75" style="stroke:#F0F0F0;stroke-width:8.64"/>
	<line x1="3074.22" y1="308.75" x2="3131.87" y2="308.75" style="stroke:#F0F0F0;stroke-width:8.64"/>
	<line x1="3160.62" y1="308.75" x2="3218.27" y2="308.75" style="stroke:#F0F0F0;stroke-width:8.64"/>
	<line x1="3247.02" y1="308.75" x2="3304.67" y2="308.75" style="stroke:#F0F0F0;stroke-width:8.64"/>
	<line x1="3333.42" y1="308.75" x2="3391.07" y2="308.75" style="stroke:#F0F0F0;stroke-width:8.64"/>
	<line x1="3419.82" y1="308.75" x2="3477.47" y2="308.75" style="stroke:#F0F0F0;stroke-width:8.64"/>
	<line x1="3506.22" y1="308.75" x2="3563.87" y2="308.75" style="stroke:#F0F0F0;stroke-width:8.64"/>
	<line x1="3592.62" y1="308.75" x2="3650.27" y2="308.75" style="stroke:#F0F0F0;stroke-width:8.64"/>
	<line x1="3679.02" y1="308.75" x2="3736.67" y2="308.75" style="stroke:#F0F0F0;stroke-width:8.64"/>
	<line x1="3765.42" y1="308.75" x2="3823.07" y2="308.75" style="stroke:#F0F0F0;stroke-width:8.64"/>
	<line x1="3851.82" y1="308.75" x2="3909.47" y2="308.75" style="stroke:#F0F0F0;stroke-width:8.64"/>
	<line x1="3938.22" y1="308.75" x2="3995.87" y2="308.75" style="stroke:#F0F0F0;stroke-width:8.64"/>
	<line x1="4024.62" y1="308.75" x2="4082.27" y2="308.75" style="stroke:#F0F0F0;stroke-width:8.64"/>
	<line x1="4111.02" y1="308.75" x2="4168.67" y2="308.75" style="stroke:#F0F0F0;stroke-width:8.64"/>
	<line x1="4197.42" y1="308.75" x2="4219.16" y2="308.75" style="stroke:#F0F0F0;stroke-width:8.64"/>
	<line x1="459.14" y1="2203.64" x2="459.14" y2="2145.99" style="stroke:#F0F0F0;stroke-width:8.64"/>
	<line x1="459.14" y1="2117.24" x2="459.14" y2="2059.59" style="stroke:#F0F0F0;stroke-width:8.64"/>
	<line x1="459.14" y1="2030.84" x2="459.14" y2="1973.19" style="stroke:#F0F0F0;stroke-width:8.64"/>
	<line x1="459.14" y1="1944.44" x2="459.14" y2="1886.79" style="stroke:#F0F0F0;stroke-width:8.64"/>
	<line x1="459.14" y1="1858.03" x2="459.14" y2="1800.39" style="stroke:#F0F0F0;stroke-width:8.64"/>
	<line x1="459.14" y1="1771.63" x2="459.14" y2="1713.99" style="stroke:#F0F0F0;stroke-width:8.64"/>
	<line x1="459.14" y1="1685.23" x2="459.14" y2="1627.59" style="stroke:#F0F0F0;stroke-width:8.64"/>
	<line x1="459.14" y1="1598.83" x2="459.14" y2="1541.18" style="stroke:#F0F0F0;stroke-width:8.64"/>
	<line x1="459.14" y1="1512.43" x2="459.14" y2="1454.78" style="stroke:#F0F0F0;stroke-width:8.64"/>
	<line x1="459.14" y1="1426.03" x2="459.14" y2="1368.38" style="stroke:#F0F0F0;stroke-width:8.64"/>
	<line x1="459.14" y1="1339.63" x2="459.14" y2="1281.98" style="stroke:#F0F0F0;stroke-width:8.64"/>
	<line x1="459.14" y1="1253.22" x2="459.14" y2="1195.58" style="stroke:#F0F0F0;stroke-width:8.64"/>
	<line x1="459.14" y1="1166.82" x2="459.14" y2="1109.18" style="stroke:#F0F0F0;stroke-width:8.64"/>
	<line x1="459.14" y1="1080.42" x2="459.14" y2="1022.78" style="stroke:#F0F0F0;stroke-width:8.64"/>
	<line x1="459.14" y1="994.02" x2="459.14" y2="936.37" style="stroke:#F0F0F0;stroke-width:8.64"/>
	<line x1="459.14" y1="907.62" x2="459.14" y2="849.97" style="stroke:#F0F0F0;stroke-width:8.64"/>
	<line x1="459.14" y1="821.22" x2="459.14" y2="763.57" style="stroke:#F0F0F0;stroke-width:8.64"/>
	<line x1="459.14" y1="734.82" x2="459.14" y2="677.17" style="stroke:#F0F0F0;stroke-width:8.64"/>
	<line x1="459.14" y1="648.42" x2="459.14" y2="590.77" style="stroke:#F0F0F0;stroke-width:8.64"/>
	<line x1="459.14" y1="562.01" x2="459.14" y2="504.37" style="stroke:#F0F0F0;stroke-width:8.64"/>
	<line x1="459.14" y1="475.61" x2="459.14" y2="417.97" style="stroke:#F0F0F0;stroke-width:8.64"/>
	<line x1="459.14" y1="389.21" x2="459.14" y2="331.57" style="stroke:#F0F0F0;stroke-width:8.64"/>
	<line x1="459.14" y1="302.81" x2="459.14" y2="245.30" style="stroke:#F0F0F0;stroke-width:8.64"/>
	<line x1="1691.42" y1="2203.64" x2="1691.42" y2="2145.99" style="stroke:#F0F0F0;stroke-width:8.64"/>
	<line x1="1691.42" y1="2117.24" x2="1691.42" y2="2059.59" style="stroke:#F0F0F0;stroke-width:8.64"/>
	<line x1="1691.42" y1="2030.84" x2="1691.42" y2="1973.19" style="stroke:#F0F0F0;stroke-width:8.64"/>
	<line x1="1691.42" y1="1944.44" x2="1691.42" y2="1886.79" style="stroke:#F0F0F0;stroke-width:8.64"/>
	<line x1="1691.42" y1="1858.03" x2="1691.42" y2="1800.39" style="stroke:#F0F0F0;stroke-width:8.64"/>
	<line x1="1691.42" y1="1771.63" x2="1691.42" y2="1713.99" style="stroke:#F0F0F0;stroke-width:8.64"/>
	<line x1="1691.42" y1="1685.23" x2="1691.42" y2="1627.59" style="stroke:#F0F0F0;stroke-width:8.64"/>
	<line x1="1691.42" y1="1598.83" x2="1691.42" y2="1541.18" style="stroke:#F0F0F0;stroke-width:8.64"/>
	<line x1="1691.42" y1="1512.43" x2="1691.42" y2="1454.78" style="stroke:#F0F0F0;stroke-width:8.64"/>
	<line x1="1691.42" y1="1426.03" x2="1691.42" y2="1368.38" style="stroke:#F0F0F0;stroke-width:8.64"/>
	<line x1="1691.42" y1="1339.63" x2="1691.42" y2="1281.98" style="stroke:#F0F0F0;stroke-width:8.64"/>
	<line x1="1691.42" y1="1253.22" x2="1691.42" y2="1195.58" style="stroke:#F0F0F0;stroke-width:8.64"/>
	<line x1="1691.42" y1="1166.82" x2="1691.42" y2="1109.18" style="stroke:#F0F0F0;stroke-width:8.64"/>
	<line x1="1691.42" y1="1080.42" x2="1691.42" y2="1022.78" style="stroke:#F0F0F0;stroke-width:8.64"/>
	<line x1="1691.42" y1="994.02" x2="1691.42" y2="936.37" style="stroke:#F0F0F0;stroke-width:8.64"/>
	<line x1="1691.42" y1="907.62" x2="1691.42" y2="849.97" style="stroke:#F0F0F0;stroke-width:8.64"/>
	<line x1="1691.42" y1="821.22" x2="1691.42" y2="763.57" style="stroke:#F0F0F0;stroke-width:8.64"/>
	<line x1="1691.42" y1="734.82" x2="1691.42" y2="677.17" style="stroke:#F0F0F0;stroke-width:8.64"/>
	<line x1="1691.42" y1="648.42" x2="1691.42" y2="590.77" style="stroke:#F0F0F0;stroke-width:8.64"/>
	<line x1="1691.42" y1="562.01" x2="1691.42" y2="504.37" style="stroke:#F0F0F0;stroke-width:8.64"/>
	<line x1="1691.42" y1="475.61" x2="1691.42" y2="417.97" style="stroke:#F0F0F0;stroke-width:8.64"/>
	<line x1="1691.42" y1="389.21" x2="1691.42" y2="331.57" style="stroke:#F0F0F0;stroke-width:8.64"/>
	<line x1="1691.42" y1="302.81" x2="1691.42" y2="245.30" style="stroke:#F0F0F0;stroke-width:8.64"/>
	<line x1="2923.56" y1="2203.64" x2="2923.56" y2="2145.99" style="stroke:#F0F0F0;stroke-width:8.64"/>
	<line x1="2923.56" y1="2117.24" x2="2923.56" y2="2059.59" style="stroke:#F0F0F0;stroke-width:8.64"/>
	<line x1="2923.56" y1="2030.84" x2="2923.56" y2="1973.19" style="stroke:#F0F0F0;stroke-width:8.64"/>
	<line x1="2923.56" y1="1944.44" x2="2923.56" y2="1886.79" style="stroke:#F0F0F0;stroke-width:8.64"/>
	<line x1="2923.56" y1="1858.03" x2="2923.56" y2="1800.39" style="stroke:#F0F0F0;stroke-width:8.64"/>
	<line x1="2923.56" y1="1771.63" x2="2923.56" y2="1713.99" style="stroke:#F0F0F0;stroke-width:8.64"/>
	<line x1="2923.56" y1="1685.23" x2="2923.56" y2="1627.59" style="stroke:#F0F0F0;stroke-width:8.64"/>
	<line x1="2923.56" y1="1598.83" x2="2923.56" y2="1541.18" style="stroke:#F0F0F0;stroke-width:8.64"/>
	<line x1="2923.56" y1="1512.43" x2="2923.56" y2="1454.78" style="stroke:#F0F0F0;stroke-width:8.64"/>
	<line x1="2923.56" y1="1426.03" x2="2923.56" y2="1368.38" style="stroke:#F0F0F0;stroke-width:8.64"/>
	<line x1="2923.56" y1="1339.63" x2="2923.56" y2="1281.98" style="stroke:#F0F0F0;stroke-width:8.64"/>
	<line x1="2923.56" y1="1253.22" x2="2923.56" y2="1195.58" style="stroke:#F0F0F0;stroke-width:8.64"/>
	<line x1="2923.56" y1="1166.82" x2="2923.56" y2="1109.18" style="stroke:#F0F0F0;stroke-width:8.64"/>
	<line x1="2923.56" y1="1080.42" x2="2923.56" y2="1022.78" style="stroke:#F0F0F0;stroke-width:8.64"/>
	<line x1="2923.56" y1="994.02" x2="2923.56" y2="936.37" style="stroke:#F0F0F0;stroke-width:8.64"/>
	<line x1="2923.56" y1="907.62" x2="2923.56" y2="849.97" style="stroke:#F0F0F0;stroke-width:8.64"/>
	<line x1="2923.56" y1="821.22" x2="2923.56" y2="763.57" style="stroke:#F0F0F0;stroke-width:8.64"/>
	<line x1="2923.56" y1="734.82" x2="2923.56" y2="677.17" style="stroke:#F0F0F0;stroke-width:8.64"/>
	<line x1="2923.56" y1="648.42" x2="2923.56" y2="590.77" style="stroke:#F0F0F0;stroke-width:8.64"/>
	<line x1="2923.56" y1="562.01" x2="2923.56" y2="504.37" style="stroke:#F0F0F0;stroke-width:8.64"/>
	<line x1="2923.56" y1="475.61" x2="2923.56" y2="417.97" style="stroke:#F0F0F0;stroke-width:8.64"/>
	<line x1="2923.56" y1="389.21" x2="2923.56" y2="331.57" style="stroke:#F0F0F0;stroke-width:8.64"/>
	<line x1="2923.56" y1="302.81" x2="2923.56" y2="245.30" style="stroke:#F0F0F0;stroke-width:8.64"/>
	<line x1="4155.84" y1="2203.64" x2="4155.84" y2="2145.99" style="stroke:#F0F0F0;stroke-width:8.64"/>
	<line x1="4155.84" y1="2117.24" x2="4155.84" y2="2059.59" style="stroke:#F0F0F0;stroke-width:8.64"/>
	<line x1="4155.84" y1="2030.84" x2="4155.84" y2="1973.19" style="stroke:#F0F0F0;stroke-width:8.64"/>
	<line x1="4155.84" y1="1944.44" x2="4155.84" y2="1886.79" style="stroke:#F0F0F0;stroke-width:8.64"/>
	<line x1="4155.84" y1="1858.03" x2="4155.84" y2="1800.39" style="stroke:#F0F0F0;stroke-width:8.64"/>
	<line x1="4155.84" y1="1771.63" x2="4155.84" y2="1713.99" style="stroke:#F0F0F0;stroke-width:8.64"/>
	<line x1="4155.84" y1="1685.23" x2="4155.84" y2="1627.59" style="stroke:#F0F0F0;stroke-width:8.64"/>
	<line x1="4155.84" y1="1598.83" x2="4155.84" y2="1541.18" style="stroke:#F0F0F0;stroke-width:8.64"/>
	<line x1="4155.84" y1="1512.43" x2="4155.84" y2="1454.78" style="stroke:#F0F0F0;stroke-width:8.64"/>
	<line x1="4155.84" y1="1426.03" x2="4155.84" y2="1368.38" style="stroke:#F0F0F0;stroke-width:8.64"/>
	<line x1="4155.84" y1="1339.63" x2="4155.84" y2="1281.98" style="stroke:#F0F0F0;stroke-width:8.64"/>
	<line x1="4155.84" y1="1253.22" x2="4155.84" y2="1195.58" style="stroke:#F0F0F0;stroke-width:8.64"/>
	<line x1="4155.84" y1="1166.82" x2="4155.84" y2="1109.18" style="stroke:#F0F0F0;stroke-width:8.64"/>
	<line x1="4155.84" y1="1080.42" x2="4155.84" y2="1022.78" style="stroke:#F0F0F0;stroke-width:8.64"/>
	<line x1="4155.84" y1="994.02" x2="4155.84" y2="936.37" style="stroke:#F0F0F0;stroke-width:8.64"/>
	<line x1="4155.84" y1="907.62" x2="4155.84" y2="849.97" style="stroke:#F0F0F0;stroke-width:8.64"/>
	<line x1="4155.84" y1="821.22" x2="4155.84" y2="763.57" style="stroke:#F0F0F0;stroke-width:8.64"/>
	<line x1="4155.84" y1="734.82" x2="4155.84" y2="677.17" style="stroke:#F0F0F0;stroke-width:8.64"/>
	<line x1="4155.84" y1="648.42" x2="4155.84" y2="590.77" style="stroke:#F0F0F0;stroke-width:8.64"/>
	<line x1="4155.84" y1="562.01" x2="4155.84" y2="504.37" style="stroke:#F0F0F0;stroke-width:8.64"/>
	<line x1="4155.84" y1="475.61" x2="4155.84" y2="417.97" style="stroke:#F0F0F0;stroke-width:8.64"/>
	<line x1="4155.84" y1="389.21" x2="4155.84" y2="331.57" style="stroke:#F0F0F0;stroke-width:8.64"/>
	<line x1="4155.84" y1="302.81" x2="4155.84" y2="245.30" style="stroke:#F0F0F0;stroke-width:8.64"/>
	<defs>
		<path id="path_eqbulPhD" d="M459.14 2140.32 L459.14 2140.32 L582.39 2097.93 L705.65 2055.81 L828.77 2022.60 L952.02 1998.84 L1075.28 1981.83 L1198.53 1969.55 L1321.65 1960.77 L1444.91 1954.97 L1568.16 1952.13 L1691.42 1951.73 L1814.54 1953.62 L1937.79 1957.67 L2061.05 1963.74 L2184.30 1971.57 L2307.42 1981.02 L2430.68 1991.96 L2553.93 2004.38 L2677.19 2017.88 L2800.31 2032.32 L2923.56 2047.85 L3046.82 2064.18 L3170.07 2081.06 L3293.19 2098.61 L3416.45 2116.56 L3416.45 338.72 L3293.19 351.14 L3170.07 366.40 L3046.82 384.62 L2923.56 406.09 L2800.31 430.93 L2677.19 459.14 L2553.93 491.00 L2430.68 526.51 L2307.42 566.06 L2184.30 609.53 L2061.05 657.33 L1937.79 709.44 L1814.54 765.73 L1691.42 826.48 L1568.16 891.42 L1444.91 960.00 L1321.65 1031.96 L1198.53 1106.07 L1075.28 1181.27 L952.02 1256.60 L828.77 1333.82 L705.65 1426.16 L582.39 1573.85 L459.14 1819.83 L459.14 2140.32 Z" stroke-linejoin="round"/>
	</defs>
	<defs>
		<clipPath id="clipPath_XSxoNmET">
			<use xlink:href="#path_eqbulPhD"/>
		</clipPath>
	</defs>
	<use xlink:href="#path_eqbulPhD" style="stroke:none;fill:#E0E0E0"/>
	<use xlink:href="#path_eqbulPhD" style="fill:none;stroke:#E0E0E0;stroke-width:17.28" clip-path="url(#clipPath_XSxoNmET)"/>
	<path d=" M459.14 1980.21 L582.26 1835.89 L705.51 1741.12 L828.77 1678.21 L952.02 1627.72 L1075.14 1581.68 L1198.40 1537.94 L1321.65 1496.36 L1444.91 1457.62 L1568.03 1421.84 L1691.28 1389.17 L1814.54 1359.74 L1937.79 1333.55 L2060.91 1310.60 L2184.17 1290.62 L2307.42 1273.61 L2430.68 1259.30 L2553.80 1247.69 L2677.05 1238.51 L2800.31 1231.76 L2923.56 1227.03 L3046.68 1224.47 L3169.94 1223.79 L3293.19 1224.87 L3416.45 1227.71" stroke-linejoin="round" style="fill:none;stroke:#1A85FF;stroke-width:8.64"/>
	<line x1="395.82" y1="2203.64" x2="395.82" y2="245.30" style="stroke:#000000;stroke-width:5.76"/>
	<line x1="395.82" y1="2133.03" x2="355.73" y2="2133.03" style="stroke:#000000;stroke-width:5.76"/>
	<text x="335.75" y="2168.08" style="font-family:'Helvetica';font-size:100.04px;fill:#000000" text-anchor="end">0</text>
	<line x1="395.82" y1="1524.98" x2="355.73" y2="1524.98" style="stroke:#000000;stroke-width:5.76"/>
	<text x="335.75" y="1560.03" style="font-family:'Helvetica';font-size:100.04px;fill:#000000" text-anchor="end">.01</text>
	<line x1="395.82" y1="916.80" x2="355.73" y2="916.80" style="stroke:#000000;stroke-width:5.76"/>
	<text x="335.75" y="951.85" style="font-family:'Helvetica';font-size:100.04px;fill:#000000" text-anchor="end">.02</text>
	<line x1="395.82" y1="308.75" x2="355.73" y2="308.75" style="stroke:#000000;stroke-width:5.76"/>
	<text x="335.75" y="343.80" style="font-family:'Helvetica';font-size:100.04px;fill:#000000" text-anchor="end">.03</text>
	<line x1="395.82" y1="2203.64" x2="4219.16" y2="2203.64" style="stroke:#000000;stroke-width:5.76"/>
	<line x1="459.14" y1="2203.64" x2="459.14" y2="2243.74" style="stroke:#000000;stroke-width:5.76"/>
	<text x="459.14" y="2333.67" style="font-family:'Helvetica';font-size:100.04px;fill:#000000" text-anchor="middle">0</text>
	<line x1="1691.42" y1="2203.64" x2="1691.42" y2="2243.74" style="stroke:#000000;stroke-width:5.76"/>
	<text x="1691.42" y="2333.67" style="font-family:'Helvetica';font-size:100.04px;fill:#000000" text-anchor="middle">10</text>
	<line x1="2923.56" y1="2203.64" x2="2923.56" y2="2243.74" style="stroke:#000000;stroke-width:5.76"/>
	<text x="2923.56" y="2333.67" style="font-family:'Helvetica';font-size:100.04px;fill:#000000" text-anchor="middle">20</text>
	<line x1="4155.84" y1="2203.64" x2="4155.84" y2="2243.74" style="stroke:#000000;stroke-width:5.76"/>
	<text x="4155.84" y="2333.67" style="font-family:'Helvetica';font-size:100.04px;fill:#000000" text-anchor="middle">30</text>
	<text x="2307.42" y="2473.67" style="font-family:'Helvetica';font-size:100.04px;fill:#000000" text-anchor="middle">Step</text>
	<rect x="1286.96" y="2558.29" width="2040.93" height="186.30" style="fill:#FFFFFF"/>
	<rect x="1289.83" y="2561.17" width="2035.17" height="180.54" style="fill:none;stroke:#FFFFFF;stroke-width:5.76"/>
	<rect x="1330.16" y="2601.49" width="230.44" height="99.90" style="fill:#E0E0E0"/>
	<rect x="1334.47" y="2605.81" width="221.81" height="91.26" style="fill:none;stroke:#E0E0E0;stroke-width:8.64"/>
	<line x1="2101.82" y1="2651.44" x2="2332.26" y2="2651.44" style="stroke:#1A85FF;stroke-width:8.64"/>
	<text x="1620.54" y="2686.49" style="font-family:'Helvetica';font-size:100.04px;fill:#000000">90% CI</text>
	<text x="2392.20" y="2686.49" style="font-family:'Helvetica';font-size:100.04px;fill:#000000">Orthogonalized IRF</text>
	<rect x="395.82" y="100.85" width="3823.33" height="144.45" style="fill:#F0F0F0;stroke:#000000;stroke-width:5.76"/>
	<text x="2307.42" y="211.62" style="font-family:'Helvetica';font-size:110.03px;fill:#000000" text-anchor="middle">irf_P7: DGS102 -&gt; TCO2</text>
</svg>
