<?xml version="1.0" encoding="UTF-8" standalone="no"?>
<!-- This is a Stata 18.0 generated SVG file (http://www.stata.com) -->

<svg version="1.1" width="6.000in" height="4.000in" viewBox="0 0 4320 2880" xmlns="http://www.w3.org/2000/svg" xmlns:xlink="http://www.w3.org/1999/xlink">
	<desc>Stata Graph - irfr4</desc>
	<rect x="0" y="0" width="4320" height="2880" style="fill:#FFFFFF;stroke:none"/>
	<rect x="0.00" y="0.00" width="4320.00" height="2880.00" style="fill:#FFFFFF"/>
	<rect x="2.88" y="2.88" width="4314.24" height="2874.24" style="fill:none;stroke:#FFFFFF;stroke-width:5.76"/>
	<rect x="489.11" y="245.30" width="3730.05" height="1958.34" style="fill:#FFFFFF"/>
	<rect x="491.98" y="248.18" width="3724.29" height="1952.58" style="fill:none;stroke:#FFFFFF;stroke-width:5.76"/>
	<line x1="489.11" y1="2097.93" x2="546.75" y2="2097.93" style="stroke:#F0F0F0;stroke-width:8.64"/>
	<line x1="575.51" y1="2097.93" x2="633.15" y2="2097.93" style="stroke:#F0F0F0;stroke-width:8.64"/>
	<line x1="661.91" y1="2097.93" x2="719.55" y2="2097.93" style="stroke:#F0F0F0;stroke-width:8.64"/>
	<line x1="748.31" y1="2097.93" x2="805.95" y2="2097.93" style="stroke:#F0F0F0;stroke-width:8.64"/>
	<line x1="834.71" y1="2097.93" x2="892.35" y2="2097.93" style="stroke:#F0F0F0;stroke-width:8.64"/>
	<line x1="921.11" y1="2097.93" x2="978.75" y2="2097.93" style="stroke:#F0F0F0;stroke-width:8.64"/>
	<line x1="1007.51" y1="2097.93" x2="1065.15" y2="2097.93" style="stroke:#F0F0F0;stroke-width:8.64"/>
	<line x1="1093.91" y1="2097.93" x2="1151.55" y2="2097.93" style="stroke:#F0F0F0;stroke-width:8.64"/>
	<line x1="1180.31" y1="2097.93" x2="1237.95" y2="2097.93" style="stroke:#F0F0F0;stroke-width:8.64"/>
	<line x1="1266.71" y1="2097.93" x2="1324.35" y2="2097.93" style="stroke:#F0F0F0;stroke-width:8.64"/>
	<line x1="1353.11" y1="2097.93" x2="1410.75" y2="2097.93" style="stroke:#F0F0F0;stroke-width:8.64"/>
	<line x1="1439.51" y1="2097.93" x2="1497.15" y2="2097.93" style="stroke:#F0F0F0;stroke-width:8.64"/>
	<line x1="1525.91" y1="2097.93" x2="1583.55" y2="2097.93" style="stroke:#F0F0F0;stroke-width:8.64"/>
	<line x1="1612.31" y1="2097.93" x2="1669.95" y2="2097.93" style="stroke:#F0F0F0;stroke-width:8.64"/>
	<line x1="1698.71" y1="2097.93" x2="1756.35" y2="2097.93" style="stroke:#F0F0F0;stroke-width:8.64"/>
	<line x1="1785.11" y1="2097.93" x2="1842.75" y2="2097.93" style="stroke:#F0F0F0;stroke-width:8.64"/>
	<line x1="1871.51" y1="2097.93" x2="1929.15" y2="2097.93" style="stroke:#F0F0F0;stroke-width:8.64"/>
	<line x1="1957.91" y1="2097.93" x2="2015.55" y2="2097.93" style="stroke:#F0F0F0;stroke-width:8.64"/>
	<line x1="2044.31" y1="2097.93" x2="2101.95" y2="2097.93" style="stroke:#F0F0F0;stroke-width:8.64"/>
	<line x1="2130.71" y1="2097.93" x2="2188.35" y2="2097.93" style="stroke:#F0F0F0;stroke-width:8.64"/>
	<line x1="2217.11" y1="2097.93" x2="2274.75" y2="2097.93" style="stroke:#F0F0F0;stroke-width:8.64"/>
	<line x1="2303.51" y1="2097.93" x2="2361.15" y2="2097.93" style="stroke:#F0F0F0;stroke-width:8.64"/>
	<line x1="2389.91" y1="2097.93" x2="2447.55" y2="2097.93" style="stroke:#F0F0F0;stroke-width:8.64"/>
	<line x1="2476.30" y1="2097.93" x2="2533.95" y2="2097.93" style="stroke:#F0F0F0;stroke-width:8.64"/>
	<line x1="2562.71" y1="2097.93" x2="2620.35" y2="2097.93" style="stroke:#F0F0F0;stroke-width:8.64"/>
	<line x1="2649.11" y1="2097.93" x2="2706.75" y2="2097.93" style="stroke:#F0F0F0;stroke-width:8.64"/>
	<line x1="2735.51" y1="2097.93" x2="2793.15" y2="2097.93" style="stroke:#F0F0F0;stroke-width:8.64"/>
	<line x1="2821.91" y1="2097.93" x2="2879.55" y2="2097.93" style="stroke:#F0F0F0;stroke-width:8.64"/>
	<line x1="2908.31" y1="2097.93" x2="2965.95" y2="2097.93" style="stroke:#F0F0F0;stroke-width:8.64"/>
	<line x1="2994.71" y1="2097.93" x2="3052.35" y2="2097.93" style="stroke:#F0F0F0;stroke-width:8.64"/>
	<line x1="3081.11" y1="2097.93" x2="3138.75" y2="2097.93" style="stroke:#F0F0F0;stroke-width:8.64"/>
	<line x1="3167.51" y1="2097.93" x2="3225.15" y2="2097.93" style="stroke:#F0F0F0;stroke-width:8.64"/>
	<line x1="3253.91" y1="2097.93" x2="3311.55" y2="2097.93" style="stroke:#F0F0F0;stroke-width:8.64"/>
	<line x1="3340.31" y1="2097.93" x2="3397.95" y2="2097.93" style="stroke:#F0F0F0;stroke-width:8.64"/>
	<line x1="3426.71" y1="2097.93" x2="3484.35" y2="2097.93" style="stroke:#F0F0F0;stroke-width:8.64"/>
	<line x1="3513.11" y1="2097.93" x2="3570.75" y2="2097.93" style="stroke:#F0F0F0;stroke-width:8.64"/>
	<line x1="3599.51" y1="2097.93" x2="3657.15" y2="2097.93" style="stroke:#F0F0F0;stroke-width:8.64"/>
	<line x1="3685.91" y1="2097.93" x2="3743.55" y2="2097.93" style="stroke:#F0F0F0;stroke-width:8.64"/>
	<line x1="3772.31" y1="2097.93" x2="3829.95" y2="2097.93" style="stroke:#F0F0F0;stroke-width:8.64"/>
	<line x1="3858.71" y1="2097.93" x2="3916.35" y2="2097.93" style="stroke:#F0F0F0;stroke-width:8.64"/>
	<line x1="3945.11" y1="2097.93" x2="4002.75" y2="2097.93" style="stroke:#F0F0F0;stroke-width:8.64"/>
	<line x1="4031.51" y1="2097.93" x2="4089.15" y2="2097.93" style="stroke:#F0F0F0;stroke-width:8.64"/>
	<line x1="4117.91" y1="2097.93" x2="4175.55" y2="2097.93" style="stroke:#F0F0F0;stroke-width:8.64"/>
	<line x1="4204.31" y1="2097.93" x2="4219.16" y2="2097.93" style="stroke:#F0F0F0;stroke-width:8.64"/>
	<line x1="489.11" y1="1557.25" x2="546.75" y2="1557.25" style="stroke:#F0F0F0;stroke-width:8.64"/>
	<line x1="575.51" y1="1557.25" x2="633.15" y2="1557.25" style="stroke:#F0F0F0;stroke-width:8.64"/>
	<line x1="661.91" y1="1557.25" x2="719.55" y2="1557.25" style="stroke:#F0F0F0;stroke-width:8.64"/>
	<line x1="748.31" y1="1557.25" x2="805.95" y2="1557.25" style="stroke:#F0F0F0;stroke-width:8.64"/>
	<line x1="834.71" y1="1557.25" x2="892.35" y2="1557.25" style="stroke:#F0F0F0;stroke-width:8.64"/>
	<line x1="921.11" y1="1557.25" x2="978.75" y2="1557.25" style="stroke:#F0F0F0;stroke-width:8.64"/>
	<line x1="1007.51" y1="1557.25" x2="1065.15" y2="1557.25" style="stroke:#F0F0F0;stroke-width:8.64"/>
	<line x1="1093.91" y1="1557.25" x2="1151.55" y2="1557.25" style="stroke:#F0F0F0;stroke-width:8.64"/>
	<line x1="1180.31" y1="1557.25" x2="1237.95" y2="1557.25" style="stroke:#F0F0F0;stroke-width:8.64"/>
	<line x1="1266.71" y1="1557.25" x2="1324.35" y2="1557.25" style="stroke:#F0F0F0;stroke-width:8.64"/>
	<line x1="1353.11" y1="1557.25" x2="1410.75" y2="1557.25" style="stroke:#F0F0F0;stroke-width:8.64"/>
	<line x1="1439.51" y1="1557.25" x2="1497.15" y2="1557.25" style="stroke:#F0F0F0;stroke-width:8.64"/>
	<line x1="1525.91" y1="1557.25" x2="1583.55" y2="1557.25" style="stroke:#F0F0F0;stroke-width:8.64"/>
	<line x1="1612.31" y1="1557.25" x2="1669.95" y2="1557.25" style="stroke:#F0F0F0;stroke-width:8.64"/>
	<line x1="1698.71" y1="1557.25" x2="1756.35" y2="1557.25" style="stroke:#F0F0F0;stroke-width:8.64"/>
	<line x1="1785.11" y1="1557.25" x2="1842.75" y2="1557.25" style="stroke:#F0F0F0;stroke-width:8.64"/>
	<line x1="1871.51" y1="1557.25" x2="1929.15" y2="1557.25" style="stroke:#F0F0F0;stroke-width:8.64"/>
	<line x1="1957.91" y1="1557.25" x2="2015.55" y2="1557.25" style="stroke:#F0F0F0;stroke-width:8.64"/>
	<line x1="2044.31" y1="1557.25" x2="2101.95" y2="1557.25" style="stroke:#F0F0F0;stroke-width:8.64"/>
	<line x1="2130.71" y1="1557.25" x2="2188.35" y2="1557.25" style="stroke:#F0F0F0;stroke-width:8.64"/>
	<line x1="2217.11" y1="1557.25" x2="2274.75" y2="1557.25" style="stroke:#F0F0F0;stroke-width:8.64"/>
	<line x1="2303.51" y1="1557.25" x2="2361.15" y2="1557.25" style="stroke:#F0F0F0;stroke-width:8.64"/>
	<line x1="2389.91" y1="1557.25" x2="2447.55" y2="1557.25" style="stroke:#F0F0F0;stroke-width:8.64"/>
	<line x1="2476.30" y1="1557.25" x2="2533.95" y2="1557.25" style="stroke:#F0F0F0;stroke-width:8.64"/>
	<line x1="2562.71" y1="1557.25" x2="2620.35" y2="1557.25" style="stroke:#F0F0F0;stroke-width:8.64"/>
	<line x1="2649.11" y1="1557.25" x2="2706.75" y2="1557.25" style="stroke:#F0F0F0;stroke-width:8.64"/>
	<line x1="2735.51" y1="1557.25" x2="2793.15" y2="1557.25" style="stroke:#F0F0F0;stroke-width:8.64"/>
	<line x1="2821.91" y1="1557.25" x2="2879.55" y2="1557.25" style="stroke:#F0F0F0;stroke-width:8.64"/>
	<line x1="2908.31" y1="1557.25" x2="2965.95" y2="1557.25" style="stroke:#F0F0F0;stroke-width:8.64"/>
	<line x1="2994.71" y1="1557.25" x2="3052.35" y2="1557.25" style="stroke:#F0F0F0;stroke-width:8.64"/>
	<line x1="3081.11" y1="1557.25" x2="3138.75" y2="1557.25" style="stroke:#F0F0F0;stroke-width:8.64"/>
	<line x1="3167.51" y1="1557.25" x2="3225.15" y2="1557.25" style="stroke:#F0F0F0;stroke-width:8.64"/>
	<line x1="3253.91" y1="1557.25" x2="3311.55" y2="1557.25" style="stroke:#F0F0F0;stroke-width:8.64"/>
	<line x1="3340.31" y1="1557.25" x2="3397.95" y2="1557.25" style="stroke:#F0F0F0;stroke-width:8.64"/>
	<line x1="3426.71" y1="1557.25" x2="3484.35" y2="1557.25" style="stroke:#F0F0F0;stroke-width:8.64"/>
	<line x1="3513.11" y1="1557.25" x2="3570.75" y2="1557.25" style="stroke:#F0F0F0;stroke-width:8.64"/>
	<line x1="3599.51" y1="1557.25" x2="3657.15" y2="1557.25" style="stroke:#F0F0F0;stroke-width:8.64"/>
	<line x1="3685.91" y1="1557.25" x2="3743.55" y2="1557.25" style="stroke:#F0F0F0;stroke-width:8.64"/>
	<line x1="3772.31" y1="1557.25" x2="3829.95" y2="1557.25" style="stroke:#F0F0F0;stroke-width:8.64"/>
	<line x1="3858.71" y1="1557.25" x2="3916.35" y2="1557.25" style="stroke:#F0F0F0;stroke-width:8.64"/>
	<line x1="3945.11" y1="1557.25" x2="4002.75" y2="1557.25" style="stroke:#F0F0F0;stroke-width:8.64"/>
	<line x1="4031.51" y1="1557.25" x2="4089.15" y2="1557.25" style="stroke:#F0F0F0;stroke-width:8.64"/>
	<line x1="4117.91" y1="1557.25" x2="4175.55" y2="1557.25" style="stroke:#F0F0F0;stroke-width:8.64"/>
	<line x1="4204.31" y1="1557.25" x2="4219.16" y2="1557.25" style="stroke:#F0F0F0;stroke-width:8.64"/>
	<line x1="489.11" y1="1016.70" x2="546.75" y2="1016.70" style="stroke:#F0F0F0;stroke-width:8.64"/>
	<line x1="575.51" y1="1016.70" x2="633.15" y2="1016.70" style="stroke:#F0F0F0;stroke-width:8.64"/>
	<line x1="661.91" y1="1016.70" x2="719.55" y2="1016.70" style="stroke:#F0F0F0;stroke-width:8.64"/>
	<line x1="748.31" y1="1016.70" x2="805.95" y2="1016.70" style="stroke:#F0F0F0;stroke-width:8.64"/>
	<line x1="834.71" y1="1016.70" x2="892.35" y2="1016.70" style="stroke:#F0F0F0;stroke-width:8.64"/>
	<line x1="921.11" y1="1016.70" x2="978.75" y2="1016.70" style="stroke:#F0F0F0;stroke-width:8.64"/>
	<line x1="1007.51" y1="1016.70" x2="1065.15" y2="1016.70" style="stroke:#F0F0F0;stroke-width:8.64"/>
	<line x1="1093.91" y1="1016.70" x2="1151.55" y2="1016.70" style="stroke:#F0F0F0;stroke-width:8.64"/>
	<line x1="1180.31" y1="1016.70" x2="1237.95" y2="1016.70" style="stroke:#F0F0F0;stroke-width:8.64"/>
	<line x1="1266.71" y1="1016.70" x2="1324.35" y2="1016.70" style="stroke:#F0F0F0;stroke-width:8.64"/>
	<line x1="1353.11" y1="1016.70" x2="1410.75" y2="1016.70" style="stroke:#F0F0F0;stroke-width:8.64"/>
	<line x1="1439.51" y1="1016.70" x2="1497.15" y2="1016.70" style="stroke:#F0F0F0;stroke-width:8.64"/>
	<line x1="1525.91" y1="1016.70" x2="1583.55" y2="1016.70" style="stroke:#F0F0F0;stroke-width:8.64"/>
	<line x1="1612.31" y1="1016.70" x2="1669.95" y2="1016.70" style="stroke:#F0F0F0;stroke-width:8.64"/>
	<line x1="1698.71" y1="1016.70" x2="1756.35" y2="1016.70" style="stroke:#F0F0F0;stroke-width:8.64"/>
	<line x1="1785.11" y1="1016.70" x2="1842.75" y2="1016.70" style="stroke:#F0F0F0;stroke-width:8.64"/>
	<line x1="1871.51" y1="1016.70" x2="1929.15" y2="1016.70" style="stroke:#F0F0F0;stroke-width:8.64"/>
	<line x1="1957.91" y1="1016.70" x2="2015.55" y2="1016.70" style="stroke:#F0F0F0;stroke-width:8.64"/>
	<line x1="2044.31" y1="1016.70" x2="2101.95" y2="1016.70" style="stroke:#F0F0F0;stroke-width:8.64"/>
	<line x1="2130.71" y1="1016.70" x2="2188.35" y2="1016.70" style="stroke:#F0F0F0;stroke-width:8.64"/>
	<line x1="2217.11" y1="1016.70" x2="2274.75" y2="1016.70" style="stroke:#F0F0F0;stroke-width:8.64"/>
	<line x1="2303.51" y1="1016.70" x2="2361.15" y2="1016.70" style="stroke:#F0F0F0;stroke-width:8.64"/>
	<line x1="2389.91" y1="1016.70" x2="2447.55" y2="1016.70" style="stroke:#F0F0F0;stroke-width:8.64"/>
	<line x1="2476.30" y1="1016.70" x2="2533.95" y2="1016.70" style="stroke:#F0F0F0;stroke-width:8.64"/>
	<line x1="2562.71" y1="1016.70" x2="2620.35" y2="1016.70" style="stroke:#F0F0F0;stroke-width:8.64"/>
	<line x1="2649.11" y1="1016.70" x2="2706.75" y2="1016.70" style="stroke:#F0F0F0;stroke-width:8.64"/>
	<line x1="2735.51" y1="1016.70" x2="2793.15" y2="1016.70" style="stroke:#F0F0F0;stroke-width:8.64"/>
	<line x1="2821.91" y1="1016.70" x2="2879.55" y2="1016.70" style="stroke:#F0F0F0;stroke-width:8.64"/>
	<line x1="2908.31" y1="1016.70" x2="2965.95" y2="1016.70" style="stroke:#F0F0F0;stroke-width:8.64"/>
	<line x1="2994.71" y1="1016.70" x2="3052.35" y2="1016.70" style="stroke:#F0F0F0;stroke-width:8.64"/>
	<line x1="3081.11" y1="1016.70" x2="3138.75" y2="1016.70" style="stroke:#F0F0F0;stroke-width:8.64"/>
	<line x1="3167.51" y1="1016.70" x2="3225.15" y2="1016.70" style="stroke:#F0F0F0;stroke-width:8.64"/>
	<line x1="3253.91" y1="1016.70" x2="3311.55" y2="1016.70" style="stroke:#F0F0F0;stroke-width:8.64"/>
	<line x1="3340.31" y1="1016.70" x2="3397.95" y2="1016.70" style="stroke:#F0F0F0;stroke-width:8.64"/>
	<line x1="3426.71" y1="1016.70" x2="3484.35" y2="1016.70" style="stroke:#F0F0F0;stroke-width:8.64"/>
	<line x1="3513.11" y1="1016.70" x2="3570.75" y2="1016.70" style="stroke:#F0F0F0;stroke-width:8.64"/>
	<line x1="3599.51" y1="1016.70" x2="3657.15" y2="1016.70" style="stroke:#F0F0F0;stroke-width:8.64"/>
	<line x1="3685.91" y1="1016.70" x2="3743.55" y2="1016.70" style="stroke:#F0F0F0;stroke-width:8.64"/>
	<line x1="3772.31" y1="1016.70" x2="3829.95" y2="1016.70" style="stroke:#F0F0F0;stroke-width:8.64"/>
	<line x1="3858.71" y1="1016.70" x2="3916.35" y2="1016.70" style="stroke:#F0F0F0;stroke-width:8.64"/>
	<line x1="3945.11" y1="1016.70" x2="4002.75" y2="1016.70" style="stroke:#F0F0F0;stroke-width:8.64"/>
	<line x1="4031.51" y1="1016.70" x2="4089.15" y2="1016.70" style="stroke:#F0F0F0;stroke-width:8.64"/>
	<line x1="4117.91" y1="1016.70" x2="4175.55" y2="1016.70" style="stroke:#F0F0F0;stroke-width:8.64"/>
	<line x1="4204.31" y1="1016.70" x2="4219.16" y2="1016.70" style="stroke:#F0F0F0;stroke-width:8.64"/>
	<line x1="489.11" y1="476.02" x2="546.75" y2="476.02" style="stroke:#F0F0F0;stroke-width:8.64"/>
	<line x1="575.51" y1="476.02" x2="633.15" y2="476.02" style="stroke:#F0F0F0;stroke-width:8.64"/>
	<line x1="661.91" y1="476.02" x2="719.55" y2="476.02" style="stroke:#F0F0F0;stroke-width:8.64"/>
	<line x1="748.31" y1="476.02" x2="805.95" y2="476.02" style="stroke:#F0F0F0;stroke-width:8.64"/>
	<line x1="834.71" y1="476.02" x2="892.35" y2="476.02" style="stroke:#F0F0F0;stroke-width:8.64"/>
	<line x1="921.11" y1="476.02" x2="978.75" y2="476.02" style="stroke:#F0F0F0;stroke-width:8.64"/>
	<line x1="1007.51" y1="476.02" x2="1065.15" y2="476.02" style="stroke:#F0F0F0;stroke-width:8.64"/>
	<line x1="1093.91" y1="476.02" x2="1151.55" y2="476.02" style="stroke:#F0F0F0;stroke-width:8.64"/>
	<line x1="1180.31" y1="476.02" x2="1237.95" y2="476.02" style="stroke:#F0F0F0;stroke-width:8.64"/>
	<line x1="1266.71" y1="476.02" x2="1324.35" y2="476.02" style="stroke:#F0F0F0;stroke-width:8.64"/>
	<line x1="1353.11" y1="476.02" x2="1410.75" y2="476.02" style="stroke:#F0F0F0;stroke-width:8.64"/>
	<line x1="1439.51" y1="476.02" x2="1497.15" y2="476.02" style="stroke:#F0F0F0;stroke-width:8.64"/>
	<line x1="1525.91" y1="476.02" x2="1583.55" y2="476.02" style="stroke:#F0F0F0;stroke-width:8.64"/>
	<line x1="1612.31" y1="476.02" x2="1669.95" y2="476.02" style="stroke:#F0F0F0;stroke-width:8.64"/>
	<line x1="1698.71" y1="476.02" x2="1756.35" y2="476.02" style="stroke:#F0F0F0;stroke-width:8.64"/>
	<line x1="1785.11" y1="476.02" x2="1842.75" y2="476.02" style="stroke:#F0F0F0;stroke-width:8.64"/>
	<line x1="1871.51" y1="476.02" x2="1929.15" y2="476.02" style="stroke:#F0F0F0;stroke-width:8.64"/>
	<line x1="1957.91" y1="476.02" x2="2015.55" y2="476.02" style="stroke:#F0F0F0;stroke-width:8.64"/>
	<line x1="2044.31" y1="476.02" x2="2101.95" y2="476.02" style="stroke:#F0F0F0;stroke-width:8.64"/>
	<line x1="2130.71" y1="476.02" x2="2188.35" y2="476.02" style="stroke:#F0F0F0;stroke-width:8.64"/>
	<line x1="2217.11" y1="476.02" x2="2274.75" y2="476.02" style="stroke:#F0F0F0;stroke-width:8.64"/>
	<line x1="2303.51" y1="476.02" x2="2361.15" y2="476.02" style="stroke:#F0F0F0;stroke-width:8.64"/>
	<line x1="2389.91" y1="476.02" x2="2447.55" y2="476.02" style="stroke:#F0F0F0;stroke-width:8.64"/>
	<line x1="2476.30" y1="476.02" x2="2533.95" y2="476.02" style="stroke:#F0F0F0;stroke-width:8.64"/>
	<line x1="2562.71" y1="476.02" x2="2620.35" y2="476.02" style="stroke:#F0F0F0;stroke-width:8.64"/>
	<line x1="2649.11" y1="476.02" x2="2706.75" y2="476.02" style="stroke:#F0F0F0;stroke-width:8.64"/>
	<line x1="2735.51" y1="476.02" x2="2793.15" y2="476.02" style="stroke:#F0F0F0;stroke-width:8.64"/>
	<line x1="2821.91" y1="476.02" x2="2879.55" y2="476.02" style="stroke:#F0F0F0;stroke-width:8.64"/>
	<line x1="2908.31" y1="476.02" x2="2965.95" y2="476.02" style="stroke:#F0F0F0;stroke-width:8.64"/>
	<line x1="2994.71" y1="476.02" x2="3052.35" y2="476.02" style="stroke:#F0F0F0;stroke-width:8.64"/>
	<line x1="3081.11" y1="476.02" x2="3138.75" y2="476.02" style="stroke:#F0F0F0;stroke-width:8.64"/>
	<line x1="3167.51" y1="476.02" x2="3225.15" y2="476.02" style="stroke:#F0F0F0;stroke-width:8.64"/>
	<line x1="3253.91" y1="476.02" x2="3311.55" y2="476.02" style="stroke:#F0F0F0;stroke-width:8.64"/>
	<line x1="3340.31" y1="476.02" x2="3397.95" y2="476.02" style="stroke:#F0F0F0;stroke-width:8.64"/>
	<line x1="3426.71" y1="476.02" x2="3484.35" y2="476.02" style="stroke:#F0F0F0;stroke-width:8.64"/>
	<line x1="3513.11" y1="476.02" x2="3570.75" y2="476.02" style="stroke:#F0F0F0;stroke-width:8.64"/>
	<line x1="3599.51" y1="476.02" x2="3657.15" y2="476.02" style="stroke:#F0F0F0;stroke-width:8.64"/>
	<line x1="3685.91" y1="476.02" x2="3743.55" y2="476.02" style="stroke:#F0F0F0;stroke-width:8.64"/>
	<line x1="3772.31" y1="476.02" x2="3829.95" y2="476.02" style="stroke:#F0F0F0;stroke-width:8.64"/>
	<line x1="3858.71" y1="476.02" x2="3916.35" y2="476.02" style="stroke:#F0F0F0;stroke-width:8.64"/>
	<line x1="3945.11" y1="476.02" x2="4002.75" y2="476.02" style="stroke:#F0F0F0;stroke-width:8.64"/>
	<line x1="4031.51" y1="476.02" x2="4089.15" y2="476.02" style="stroke:#F0F0F0;stroke-width:8.64"/>
	<line x1="4117.91" y1="476.02" x2="4175.55" y2="476.02" style="stroke:#F0F0F0;stroke-width:8.64"/>
	<line x1="4204.31" y1="476.02" x2="4219.16" y2="476.02" style="stroke:#F0F0F0;stroke-width:8.64"/>
	<line x1="552.42" y1="2203.64" x2="552.42" y2="2145.99" style="stroke:#F0F0F0;stroke-width:8.64"/>
	<line x1="552.42" y1="2117.24" x2="552.42" y2="2059.59" style="stroke:#F0F0F0;stroke-width:8.64"/>
	<line x1="552.42" y1="2030.84" x2="552.42" y2="1973.19" style="stroke:#F0F0F0;stroke-width:8.64"/>
	<line x1="552.42" y1="1944.44" x2="552.42" y2="1886.79" style="stroke:#F0F0F0;stroke-width:8.64"/>
	<line x1="552.42" y1="1858.03" x2="552.42" y2="1800.39" style="stroke:#F0F0F0;stroke-width:8.64"/>
	<line x1="552.42" y1="1771.63" x2="552.42" y2="1713.99" style="stroke:#F0F0F0;stroke-width:8.64"/>
	<line x1="552.42" y1="1685.23" x2="552.42" y2="1627.59" style="stroke:#F0F0F0;stroke-width:8.64"/>
	<line x1="552.42" y1="1598.83" x2="552.42" y2="1541.18" style="stroke:#F0F0F0;stroke-width:8.64"/>
	<line x1="552.42" y1="1512.43" x2="552.42" y2="1454.78" style="stroke:#F0F0F0;stroke-width:8.64"/>
	<line x1="552.42" y1="1426.03" x2="552.42" y2="1368.38" style="stroke:#F0F0F0;stroke-width:8.64"/>
	<line x1="552.42" y1="1339.63" x2="552.42" y2="1281.98" style="stroke:#F0F0F0;stroke-width:8.64"/>
	<line x1="552.42" y1="1253.22" x2="552.42" y2="1195.58" style="stroke:#F0F0F0;stroke-width:8.64"/>
	<line x1="552.42" y1="1166.82" x2="552.42" y2="1109.18" style="stroke:#F0F0F0;stroke-width:8.64"/>
	<line x1="552.42" y1="1080.42" x2="552.42" y2="1022.78" style="stroke:#F0F0F0;stroke-width:8.64"/>
	<line x1="552.42" y1="994.02" x2="552.42" y2="936.37" style="stroke:#F0F0F0;stroke-width:8.64"/>
	<line x1="552.42" y1="907.62" x2="552.42" y2="849.97" style="stroke:#F0F0F0;stroke-width:8.64"/>
	<line x1="552.42" y1="821.22" x2="552.42" y2="763.57" style="stroke:#F0F0F0;stroke-width:8.64"/>
	<line x1="552.42" y1="734.82" x2="552.42" y2="677.17" style="stroke:#F0F0F0;stroke-width:8.64"/>
	<line x1="552.42" y1="648.42" x2="552.42" y2="590.77" style="stroke:#F0F0F0;stroke-width:8.64"/>
	<line x1="552.42" y1="562.01" x2="552.42" y2="504.37" style="stroke:#F0F0F0;stroke-width:8.64"/>
	<line x1="552.42" y1="475.61" x2="552.42" y2="417.97" style="stroke:#F0F0F0;stroke-width:8.64"/>
	<line x1="552.42" y1="389.21" x2="552.42" y2="331.57" style="stroke:#F0F0F0;stroke-width:8.64"/>
	<line x1="552.42" y1="302.81" x2="552.42" y2="245.30" style="stroke:#F0F0F0;stroke-width:8.64"/>
	<line x1="1753.52" y1="2203.64" x2="1753.52" y2="2145.99" style="stroke:#F0F0F0;stroke-width:8.64"/>
	<line x1="1753.52" y1="2117.24" x2="1753.52" y2="2059.59" style="stroke:#F0F0F0;stroke-width:8.64"/>
	<line x1="1753.52" y1="2030.84" x2="1753.52" y2="1973.19" style="stroke:#F0F0F0;stroke-width:8.64"/>
	<line x1="1753.52" y1="1944.44" x2="1753.52" y2="1886.79" style="stroke:#F0F0F0;stroke-width:8.64"/>
	<line x1="1753.52" y1="1858.03" x2="1753.52" y2="1800.39" style="stroke:#F0F0F0;stroke-width:8.64"/>
	<line x1="1753.52" y1="1771.63" x2="1753.52" y2="1713.99" style="stroke:#F0F0F0;stroke-width:8.64"/>
	<line x1="1753.52" y1="1685.23" x2="1753.52" y2="1627.59" style="stroke:#F0F0F0;stroke-width:8.64"/>
	<line x1="1753.52" y1="1598.83" x2="1753.52" y2="1541.18" style="stroke:#F0F0F0;stroke-width:8.64"/>
	<line x1="1753.52" y1="1512.43" x2="1753.52" y2="1454.78" style="stroke:#F0F0F0;stroke-width:8.64"/>
	<line x1="1753.52" y1="1426.03" x2="1753.52" y2="1368.38" style="stroke:#F0F0F0;stroke-width:8.64"/>
	<line x1="1753.52" y1="1339.63" x2="1753.52" y2="1281.98" style="stroke:#F0F0F0;stroke-width:8.64"/>
	<line x1="1753.52" y1="1253.22" x2="1753.52" y2="1195.58" style="stroke:#F0F0F0;stroke-width:8.64"/>
	<line x1="1753.52" y1="1166.82" x2="1753.52" y2="1109.18" style="stroke:#F0F0F0;stroke-width:8.64"/>
	<line x1="1753.52" y1="1080.42" x2="1753.52" y2="1022.78" style="stroke:#F0F0F0;stroke-width:8.64"/>
	<line x1="1753.52" y1="994.02" x2="1753.52" y2="936.37" style="stroke:#F0F0F0;stroke-width:8.64"/>
	<line x1="1753.52" y1="907.62" x2="1753.52" y2="849.97" style="stroke:#F0F0F0;stroke-width:8.64"/>
	<line x1="1753.52" y1="821.22" x2="1753.52" y2="763.57" style="stroke:#F0F0F0;stroke-width:8.64"/>
	<line x1="1753.52" y1="734.82" x2="1753.52" y2="677.17" style="stroke:#F0F0F0;stroke-width:8.64"/>
	<line x1="1753.52" y1="648.42" x2="1753.52" y2="590.77" style="stroke:#F0F0F0;stroke-width:8.64"/>
	<line x1="1753.52" y1="562.01" x2="1753.52" y2="504.37" style="stroke:#F0F0F0;stroke-width:8.64"/>
	<line x1="1753.52" y1="475.61" x2="1753.52" y2="417.97" style="stroke:#F0F0F0;stroke-width:8.64"/>
	<line x1="1753.52" y1="389.21" x2="1753.52" y2="331.57" style="stroke:#F0F0F0;stroke-width:8.64"/>
	<line x1="1753.52" y1="302.81" x2="1753.52" y2="245.30" style="stroke:#F0F0F0;stroke-width:8.64"/>
	<line x1="2954.61" y1="2203.64" x2="2954.61" y2="2145.99" style="stroke:#F0F0F0;stroke-width:8.64"/>
	<line x1="2954.61" y1="2117.24" x2="2954.61" y2="2059.59" style="stroke:#F0F0F0;stroke-width:8.64"/>
	<line x1="2954.61" y1="2030.84" x2="2954.61" y2="1973.19" style="stroke:#F0F0F0;stroke-width:8.64"/>
	<line x1="2954.61" y1="1944.44" x2="2954.61" y2="1886.79" style="stroke:#F0F0F0;stroke-width:8.64"/>
	<line x1="2954.61" y1="1858.03" x2="2954.61" y2="1800.39" style="stroke:#F0F0F0;stroke-width:8.64"/>
	<line x1="2954.61" y1="1771.63" x2="2954.61" y2="1713.99" style="stroke:#F0F0F0;stroke-width:8.64"/>
	<line x1="2954.61" y1="1685.23" x2="2954.61" y2="1627.59" style="stroke:#F0F0F0;stroke-width:8.64"/>
	<line x1="2954.61" y1="1598.83" x2="2954.61" y2="1541.18" style="stroke:#F0F0F0;stroke-width:8.64"/>
	<line x1="2954.61" y1="1512.43" x2="2954.61" y2="1454.78" style="stroke:#F0F0F0;stroke-width:8.64"/>
	<line x1="2954.61" y1="1426.03" x2="2954.61" y2="1368.38" style="stroke:#F0F0F0;stroke-width:8.64"/>
	<line x1="2954.61" y1="1339.63" x2="2954.61" y2="1281.98" style="stroke:#F0F0F0;stroke-width:8.64"/>
	<line x1="2954.61" y1="1253.22" x2="2954.61" y2="1195.58" style="stroke:#F0F0F0;stroke-width:8.64"/>
	<line x1="2954.61" y1="1166.82" x2="2954.61" y2="1109.18" style="stroke:#F0F0F0;stroke-width:8.64"/>
	<line x1="2954.61" y1="1080.42" x2="2954.61" y2="1022.78" style="stroke:#F0F0F0;stroke-width:8.64"/>
	<line x1="2954.61" y1="994.02" x2="2954.61" y2="936.37" style="stroke:#F0F0F0;stroke-width:8.64"/>
	<line x1="2954.61" y1="907.62" x2="2954.61" y2="849.97" style="stroke:#F0F0F0;stroke-width:8.64"/>
	<line x1="2954.61" y1="821.22" x2="2954.61" y2="763.57" style="stroke:#F0F0F0;stroke-width:8.64"/>
	<line x1="2954.61" y1="734.82" x2="2954.61" y2="677.17" style="stroke:#F0F0F0;stroke-width:8.64"/>
	<line x1="2954.61" y1="648.42" x2="2954.61" y2="590.77" style="stroke:#F0F0F0;stroke-width:8.64"/>
	<line x1="2954.61" y1="562.01" x2="2954.61" y2="504.37" style="stroke:#F0F0F0;stroke-width:8.64"/>
	<line x1="2954.61" y1="475.61" x2="2954.61" y2="417.97" style="stroke:#F0F0F0;stroke-width:8.64"/>
	<line x1="2954.61" y1="389.21" x2="2954.61" y2="331.57" style="stroke:#F0F0F0;stroke-width:8.64"/>
	<line x1="2954.61" y1="302.81" x2="2954.61" y2="245.30" style="stroke:#F0F0F0;stroke-width:8.64"/>
	<line x1="4155.84" y1="2203.64" x2="4155.84" y2="2145.99" style="stroke:#F0F0F0;stroke-width:8.64"/>
	<line x1="4155.84" y1="2117.24" x2="4155.84" y2="2059.59" style="stroke:#F0F0F0;stroke-width:8.64"/>
	<line x1="4155.84" y1="2030.84" x2="4155.84" y2="1973.19" style="stroke:#F0F0F0;stroke-width:8.64"/>
	<line x1="4155.84" y1="1944.44" x2="4155.84" y2="1886.79" style="stroke:#F0F0F0;stroke-width:8.64"/>
	<line x1="4155.84" y1="1858.03" x2="4155.84" y2="1800.39" style="stroke:#F0F0F0;stroke-width:8.64"/>
	<line x1="4155.84" y1="1771.63" x2="4155.84" y2="1713.99" style="stroke:#F0F0F0;stroke-width:8.64"/>
	<line x1="4155.84" y1="1685.23" x2="4155.84" y2="1627.59" style="stroke:#F0F0F0;stroke-width:8.64"/>
	<line x1="4155.84" y1="1598.83" x2="4155.84" y2="1541.18" style="stroke:#F0F0F0;stroke-width:8.64"/>
	<line x1="4155.84" y1="1512.43" x2="4155.84" y2="1454.78" style="stroke:#F0F0F0;stroke-width:8.64"/>
	<line x1="4155.84" y1="1426.03" x2="4155.84" y2="1368.38" style="stroke:#F0F0F0;stroke-width:8.64"/>
	<line x1="4155.84" y1="1339.63" x2="4155.84" y2="1281.98" style="stroke:#F0F0F0;stroke-width:8.64"/>
	<line x1="4155.84" y1="1253.22" x2="4155.84" y2="1195.58" style="stroke:#F0F0F0;stroke-width:8.64"/>
	<line x1="4155.84" y1="1166.82" x2="4155.84" y2="1109.18" style="stroke:#F0F0F0;stroke-width:8.64"/>
	<line x1="4155.84" y1="1080.42" x2="4155.84" y2="1022.78" style="stroke:#F0F0F0;stroke-width:8.64"/>
	<line x1="4155.84" y1="994.02" x2="4155.84" y2="936.37" style="stroke:#F0F0F0;stroke-width:8.64"/>
	<line x1="4155.84" y1="907.62" x2="4155.84" y2="849.97" style="stroke:#F0F0F0;stroke-width:8.64"/>
	<line x1="4155.84" y1="821.22" x2="4155.84" y2="763.57" style="stroke:#F0F0F0;stroke-width:8.64"/>
	<line x1="4155.84" y1="734.82" x2="4155.84" y2="677.17" style="stroke:#F0F0F0;stroke-width:8.64"/>
	<line x1="4155.84" y1="648.42" x2="4155.84" y2="590.77" style="stroke:#F0F0F0;stroke-width:8.64"/>
	<line x1="4155.84" y1="562.01" x2="4155.84" y2="504.37" style="stroke:#F0F0F0;stroke-width:8.64"/>
	<line x1="4155.84" y1="475.61" x2="4155.84" y2="417.97" style="stroke:#F0F0F0;stroke-width:8.64"/>
	<line x1="4155.84" y1="389.21" x2="4155.84" y2="331.57" style="stroke:#F0F0F0;stroke-width:8.64"/>
	<line x1="4155.84" y1="302.81" x2="4155.84" y2="245.30" style="stroke:#F0F0F0;stroke-width:8.64"/>
	<defs>
		<path id="path_UfEAVmiP" d="M552.42 666.10 L552.42 666.10 L672.57 734.14 L792.72 829.72 L912.87 919.50 L1032.89 1006.04 L1153.04 1091.63 L1273.19 1176.14 L1393.20 1258.49 L1513.35 1338.14 L1633.50 1414.28 L1753.52 1486.91 L1873.67 1555.76 L1993.82 1620.57 L2113.97 1681.72 L2233.98 1738.96 L2354.13 1792.69 L2474.28 1842.91 L2594.30 1889.76 L2714.45 1933.50 L2834.60 1974.41 L2954.61 2012.48 L3074.76 2047.85 L3194.91 2080.92 L3315.06 2111.70 L3435.08 2140.32 L3435.08 944.88 L3315.06 929.62 L3194.91 912.61 L3074.76 894.25 L2954.61 874.14 L2834.60 852.40 L2714.45 829.05 L2594.30 804.07 L2474.28 777.48 L2354.13 749.26 L2233.98 719.43 L2113.97 688.11 L1993.82 655.30 L1873.67 621.01 L1753.52 585.23 L1633.50 548.38 L1513.35 510.58 L1393.20 472.10 L1273.19 433.49 L1153.04 395.56 L1032.89 359.51 L912.87 328.06 L792.72 308.75 L672.57 323.47 L552.42 415.94 L552.42 666.10 Z" stroke-linejoin="round"/>
	</defs>
	<defs>
		<clipPath id="clipPath_oTcloCtG">
			<use xlink:href="#path_UfEAVmiP"/>
		</clipPath>
	</defs>
	<use xlink:href="#path_UfEAVmiP" style="stroke:none;fill:#E0E0E0"/>
	<use xlink:href="#path_UfEAVmiP" style="fill:none;stroke:#E0E0E0;stroke-width:17.28" clip-path="url(#clipPath_oTcloCtG)"/>
	<path d=" M552.42 541.09 L672.57 528.80 L792.59 569.30 L912.74 623.84 L1032.89 682.84 L1152.90 743.73 L1273.05 804.88 L1393.20 865.36 L1513.35 924.36 L1633.37 981.47 L1753.52 1036.14 L1873.67 1088.39 L1993.68 1137.93 L2113.83 1184.91 L2233.98 1229.33 L2354.00 1271.04 L2474.15 1310.20 L2594.30 1347.05 L2714.45 1381.34 L2834.46 1413.47 L2954.61 1443.31 L3074.76 1471.12 L3194.78 1496.90 L3314.93 1520.66 L3435.08 1542.67" stroke-linejoin="round" style="fill:none;stroke:#1A85FF;stroke-width:8.64"/>
	<line x1="489.11" y1="2203.64" x2="489.11" y2="245.30" style="stroke:#000000;stroke-width:5.76"/>
	<line x1="489.11" y1="2097.93" x2="449.15" y2="2097.93" style="stroke:#000000;stroke-width:5.76"/>
	<text x="429.17" y="2132.98" style="font-family:'Helvetica';font-size:100.04px;fill:#000000" text-anchor="end">-.015</text>
	<line x1="489.11" y1="1557.25" x2="449.15" y2="1557.25" style="stroke:#000000;stroke-width:5.76"/>
	<text x="429.17" y="1592.30" style="font-family:'Helvetica';font-size:100.04px;fill:#000000" text-anchor="end">-.01</text>
	<line x1="489.11" y1="1016.70" x2="449.15" y2="1016.70" style="stroke:#000000;stroke-width:5.76"/>
	<text x="429.17" y="1051.75" style="font-family:'Helvetica';font-size:100.04px;fill:#000000" text-anchor="end">-.005</text>
	<line x1="489.11" y1="476.02" x2="449.15" y2="476.02" style="stroke:#000000;stroke-width:5.76"/>
	<text x="429.17" y="511.06" style="font-family:'Helvetica';font-size:100.04px;fill:#000000" text-anchor="end">0</text>
	<line x1="489.11" y1="2203.64" x2="4219.16" y2="2203.64" style="stroke:#000000;stroke-width:5.76"/>
	<line x1="552.42" y1="2203.64" x2="552.42" y2="2243.74" style="stroke:#000000;stroke-width:5.76"/>
	<text x="552.42" y="2333.67" style="font-family:'Helvetica';font-size:100.04px;fill:#000000" text-anchor="middle">0</text>
	<line x1="1753.52" y1="2203.64" x2="1753.52" y2="2243.74" style="stroke:#000000;stroke-width:5.76"/>
	<text x="1753.52" y="2333.67" style="font-family:'Helvetica';font-size:100.04px;fill:#000000" text-anchor="middle">10</text>
	<line x1="2954.61" y1="2203.64" x2="2954.61" y2="2243.74" style="stroke:#000000;stroke-width:5.76"/>
	<text x="2954.61" y="2333.67" style="font-family:'Helvetica';font-size:100.04px;fill:#000000" text-anchor="middle">20</text>
	<line x1="4155.84" y1="2203.64" x2="4155.84" y2="2243.74" style="stroke:#000000;stroke-width:5.76"/>
	<text x="4155.84" y="2333.67" style="font-family:'Helvetica';font-size:100.04px;fill:#000000" text-anchor="middle">30</text>
	<text x="2354.13" y="2473.67" style="font-family:'Helvetica';font-size:100.04px;fill:#000000" text-anchor="middle">Step</text>
	<rect x="1333.67" y="2558.29" width="2040.93" height="186.30" style="fill:#FFFFFF"/>
	<rect x="1336.54" y="2561.17" width="2035.17" height="180.54" style="fill:none;stroke:#FFFFFF;stroke-width:5.76"/>
	<rect x="1376.87" y="2601.49" width="230.44" height="99.90" style="fill:#E0E0E0"/>
	<rect x="1381.18" y="2605.81" width="221.81" height="91.26" style="fill:none;stroke:#E0E0E0;stroke-width:8.64"/>
	<line x1="2148.53" y1="2651.44" x2="2378.84" y2="2651.44" style="stroke:#1A85FF;stroke-width:8.64"/>
	<text x="1667.25" y="2686.49" style="font-family:'Helvetica';font-size:100.04px;fill:#000000">90% CI</text>
	<text x="2438.91" y="2686.49" style="font-family:'Helvetica';font-size:100.04px;fill:#000000">Orthogonalized IRF</text>
	<rect x="489.11" y="100.85" width="3730.05" height="144.45" style="fill:#F0F0F0;stroke:#000000;stroke-width:5.76"/>
	<text x="2354.13" y="211.62" style="font-family:'Helvetica';font-size:110.03px;fill:#000000" text-anchor="middle">irf_P7: DGS102 -&gt; Imacec2</text>
</svg>
