<?xml version="1.0" encoding="UTF-8" standalone="no"?>
<!-- This is a Stata 18.0 generated SVG file (http://www.stata.com) -->

<svg version="1.1" width="6.000in" height="4.000in" viewBox="0 0 4320 2880" xmlns="http://www.w3.org/2000/svg" xmlns:xlink="http://www.w3.org/1999/xlink">
	<desc>Stata Graph - irfr4</desc>
	<rect x="0" y="0" width="4320" height="2880" style="fill:#FFFFFF;stroke:none"/>
	<rect x="0.00" y="0.00" width="4320.00" height="2880.00" style="fill:#FFFFFF"/>
	<rect x="2.88" y="2.88" width="4314.24" height="2874.24" style="fill:none;stroke:#FFFFFF;stroke-width:5.76"/>
	<rect x="372.47" y="245.30" width="3846.69" height="1958.34" style="fill:#FFFFFF"/>
	<rect x="375.34" y="248.18" width="3840.93" height="1952.58" style="fill:none;stroke:#FFFFFF;stroke-width:5.76"/>
	<line x1="372.47" y1="2140.32" x2="430.11" y2="2140.32" style="stroke:#F0F0F0;stroke-width:8.64"/>
	<line x1="458.87" y1="2140.32" x2="516.51" y2="2140.32" style="stroke:#F0F0F0;stroke-width:8.64"/>
	<line x1="545.27" y1="2140.32" x2="602.91" y2="2140.32" style="stroke:#F0F0F0;stroke-width:8.64"/>
	<line x1="631.67" y1="2140.32" x2="689.31" y2="2140.32" style="stroke:#F0F0F0;stroke-width:8.64"/>
	<line x1="718.07" y1="2140.32" x2="775.71" y2="2140.32" style="stroke:#F0F0F0;stroke-width:8.64"/>
	<line x1="804.47" y1="2140.32" x2="862.11" y2="2140.32" style="stroke:#F0F0F0;stroke-width:8.64"/>
	<line x1="890.87" y1="2140.32" x2="948.51" y2="2140.32" style="stroke:#F0F0F0;stroke-width:8.64"/>
	<line x1="977.27" y1="2140.32" x2="1034.91" y2="2140.32" style="stroke:#F0F0F0;stroke-width:8.64"/>
	<line x1="1063.67" y1="2140.32" x2="1121.31" y2="2140.32" style="stroke:#F0F0F0;stroke-width:8.64"/>
	<line x1="1150.07" y1="2140.32" x2="1207.71" y2="2140.32" style="stroke:#F0F0F0;stroke-width:8.64"/>
	<line x1="1236.46" y1="2140.32" x2="1294.11" y2="2140.32" style="stroke:#F0F0F0;stroke-width:8.64"/>
	<line x1="1322.87" y1="2140.32" x2="1380.51" y2="2140.32" style="stroke:#F0F0F0;stroke-width:8.64"/>
	<line x1="1409.27" y1="2140.32" x2="1466.91" y2="2140.32" style="stroke:#F0F0F0;stroke-width:8.64"/>
	<line x1="1495.67" y1="2140.32" x2="1553.31" y2="2140.32" style="stroke:#F0F0F0;stroke-width:8.64"/>
	<line x1="1582.07" y1="2140.32" x2="1639.71" y2="2140.32" style="stroke:#F0F0F0;stroke-width:8.64"/>
	<line x1="1668.47" y1="2140.32" x2="1726.11" y2="2140.32" style="stroke:#F0F0F0;stroke-width:8.64"/>
	<line x1="1754.87" y1="2140.32" x2="1812.51" y2="2140.32" style="stroke:#F0F0F0;stroke-width:8.64"/>
	<line x1="1841.27" y1="2140.32" x2="1898.91" y2="2140.32" style="stroke:#F0F0F0;stroke-width:8.64"/>
	<line x1="1927.67" y1="2140.32" x2="1985.31" y2="2140.32" style="stroke:#F0F0F0;stroke-width:8.64"/>
	<line x1="2014.07" y1="2140.32" x2="2071.71" y2="2140.32" style="stroke:#F0F0F0;stroke-width:8.64"/>
	<line x1="2100.47" y1="2140.32" x2="2158.11" y2="2140.32" style="stroke:#F0F0F0;stroke-width:8.64"/>
	<line x1="2186.86" y1="2140.32" x2="2244.51" y2="2140.32" style="stroke:#F0F0F0;stroke-width:8.64"/>
	<line x1="2273.27" y1="2140.32" x2="2330.91" y2="2140.32" style="stroke:#F0F0F0;stroke-width:8.64"/>
	<line x1="2359.67" y1="2140.32" x2="2417.31" y2="2140.32" style="stroke:#F0F0F0;stroke-width:8.64"/>
	<line x1="2446.07" y1="2140.32" x2="2503.71" y2="2140.32" style="stroke:#F0F0F0;stroke-width:8.64"/>
	<line x1="2532.47" y1="2140.32" x2="2590.11" y2="2140.32" style="stroke:#F0F0F0;stroke-width:8.64"/>
	<line x1="2618.86" y1="2140.32" x2="2676.51" y2="2140.32" style="stroke:#F0F0F0;stroke-width:8.64"/>
	<line x1="2705.27" y1="2140.32" x2="2762.91" y2="2140.32" style="stroke:#F0F0F0;stroke-width:8.64"/>
	<line x1="2791.67" y1="2140.32" x2="2849.31" y2="2140.32" style="stroke:#F0F0F0;stroke-width:8.64"/>
	<line x1="2878.07" y1="2140.32" x2="2935.71" y2="2140.32" style="stroke:#F0F0F0;stroke-width:8.64"/>
	<line x1="2964.47" y1="2140.32" x2="3022.11" y2="2140.32" style="stroke:#F0F0F0;stroke-width:8.64"/>
	<line x1="3050.87" y1="2140.32" x2="3108.51" y2="2140.32" style="stroke:#F0F0F0;stroke-width:8.64"/>
	<line x1="3137.27" y1="2140.32" x2="3194.91" y2="2140.32" style="stroke:#F0F0F0;stroke-width:8.64"/>
	<line x1="3223.67" y1="2140.32" x2="3281.31" y2="2140.32" style="stroke:#F0F0F0;stroke-width:8.64"/>
	<line x1="3310.07" y1="2140.32" x2="3367.71" y2="2140.32" style="stroke:#F0F0F0;stroke-width:8.64"/>
	<line x1="3396.47" y1="2140.32" x2="3454.11" y2="2140.32" style="stroke:#F0F0F0;stroke-width:8.64"/>
	<line x1="3482.87" y1="2140.32" x2="3540.51" y2="2140.32" style="stroke:#F0F0F0;stroke-width:8.64"/>
	<line x1="3569.27" y1="2140.32" x2="3626.91" y2="2140.32" style="stroke:#F0F0F0;stroke-width:8.64"/>
	<line x1="3655.67" y1="2140.32" x2="3713.31" y2="2140.32" style="stroke:#F0F0F0;stroke-width:8.64"/>
	<line x1="3742.07" y1="2140.32" x2="3799.71" y2="2140.32" style="stroke:#F0F0F0;stroke-width:8.64"/>
	<line x1="3828.47" y1="2140.32" x2="3886.11" y2="2140.32" style="stroke:#F0F0F0;stroke-width:8.64"/>
	<line x1="3914.87" y1="2140.32" x2="3972.51" y2="2140.32" style="stroke:#F0F0F0;stroke-width:8.64"/>
	<line x1="4001.27" y1="2140.32" x2="4058.91" y2="2140.32" style="stroke:#F0F0F0;stroke-width:8.64"/>
	<line x1="4087.67" y1="2140.32" x2="4145.31" y2="2140.32" style="stroke:#F0F0F0;stroke-width:8.64"/>
	<line x1="4174.06" y1="2140.32" x2="4219.16" y2="2140.32" style="stroke:#F0F0F0;stroke-width:8.64"/>
	<line x1="372.47" y1="1529.84" x2="430.11" y2="1529.84" style="stroke:#F0F0F0;stroke-width:8.64"/>
	<line x1="458.87" y1="1529.84" x2="516.51" y2="1529.84" style="stroke:#F0F0F0;stroke-width:8.64"/>
	<line x1="545.27" y1="1529.84" x2="602.91" y2="1529.84" style="stroke:#F0F0F0;stroke-width:8.64"/>
	<line x1="631.67" y1="1529.84" x2="689.31" y2="1529.84" style="stroke:#F0F0F0;stroke-width:8.64"/>
	<line x1="718.07" y1="1529.84" x2="775.71" y2="1529.84" style="stroke:#F0F0F0;stroke-width:8.64"/>
	<line x1="804.47" y1="1529.84" x2="862.11" y2="1529.84" style="stroke:#F0F0F0;stroke-width:8.64"/>
	<line x1="890.87" y1="1529.84" x2="948.51" y2="1529.84" style="stroke:#F0F0F0;stroke-width:8.64"/>
	<line x1="977.27" y1="1529.84" x2="1034.91" y2="1529.84" style="stroke:#F0F0F0;stroke-width:8.64"/>
	<line x1="1063.67" y1="1529.84" x2="1121.31" y2="1529.84" style="stroke:#F0F0F0;stroke-width:8.64"/>
	<line x1="1150.07" y1="1529.84" x2="1207.71" y2="1529.84" style="stroke:#F0F0F0;stroke-width:8.64"/>
	<line x1="1236.46" y1="1529.84" x2="1294.11" y2="1529.84" style="stroke:#F0F0F0;stroke-width:8.64"/>
	<line x1="1322.87" y1="1529.84" x2="1380.51" y2="1529.84" style="stroke:#F0F0F0;stroke-width:8.64"/>
	<line x1="1409.27" y1="1529.84" x2="1466.91" y2="1529.84" style="stroke:#F0F0F0;stroke-width:8.64"/>
	<line x1="1495.67" y1="1529.84" x2="1553.31" y2="1529.84" style="stroke:#F0F0F0;stroke-width:8.64"/>
	<line x1="1582.07" y1="1529.84" x2="1639.71" y2="1529.84" style="stroke:#F0F0F0;stroke-width:8.64"/>
	<line x1="1668.47" y1="1529.84" x2="1726.11" y2="1529.84" style="stroke:#F0F0F0;stroke-width:8.64"/>
	<line x1="1754.87" y1="1529.84" x2="1812.51" y2="1529.84" style="stroke:#F0F0F0;stroke-width:8.64"/>
	<line x1="1841.27" y1="1529.84" x2="1898.91" y2="1529.84" style="stroke:#F0F0F0;stroke-width:8.64"/>
	<line x1="1927.67" y1="1529.84" x2="1985.31" y2="1529.84" style="stroke:#F0F0F0;stroke-width:8.64"/>
	<line x1="2014.07" y1="1529.84" x2="2071.71" y2="1529.84" style="stroke:#F0F0F0;stroke-width:8.64"/>
	<line x1="2100.47" y1="1529.84" x2="2158.11" y2="1529.84" style="stroke:#F0F0F0;stroke-width:8.64"/>
	<line x1="2186.86" y1="1529.84" x2="2244.51" y2="1529.84" style="stroke:#F0F0F0;stroke-width:8.64"/>
	<line x1="2273.27" y1="1529.84" x2="2330.91" y2="1529.84" style="stroke:#F0F0F0;stroke-width:8.64"/>
	<line x1="2359.67" y1="1529.84" x2="2417.31" y2="1529.84" style="stroke:#F0F0F0;stroke-width:8.64"/>
	<line x1="2446.07" y1="1529.84" x2="2503.71" y2="1529.84" style="stroke:#F0F0F0;stroke-width:8.64"/>
	<line x1="2532.47" y1="1529.84" x2="2590.11" y2="1529.84" style="stroke:#F0F0F0;stroke-width:8.64"/>
	<line x1="2618.86" y1="1529.84" x2="2676.51" y2="1529.84" style="stroke:#F0F0F0;stroke-width:8.64"/>
	<line x1="2705.27" y1="1529.84" x2="2762.91" y2="1529.84" style="stroke:#F0F0F0;stroke-width:8.64"/>
	<line x1="2791.67" y1="1529.84" x2="2849.31" y2="1529.84" style="stroke:#F0F0F0;stroke-width:8.64"/>
	<line x1="2878.07" y1="1529.84" x2="2935.71" y2="1529.84" style="stroke:#F0F0F0;stroke-width:8.64"/>
	<line x1="2964.47" y1="1529.84" x2="3022.11" y2="1529.84" style="stroke:#F0F0F0;stroke-width:8.64"/>
	<line x1="3050.87" y1="1529.84" x2="3108.51" y2="1529.84" style="stroke:#F0F0F0;stroke-width:8.64"/>
	<line x1="3137.27" y1="1529.84" x2="3194.91" y2="1529.84" style="stroke:#F0F0F0;stroke-width:8.64"/>
	<line x1="3223.67" y1="1529.84" x2="3281.31" y2="1529.84" style="stroke:#F0F0F0;stroke-width:8.64"/>
	<line x1="3310.07" y1="1529.84" x2="3367.71" y2="1529.84" style="stroke:#F0F0F0;stroke-width:8.64"/>
	<line x1="3396.47" y1="1529.84" x2="3454.11" y2="1529.84" style="stroke:#F0F0F0;stroke-width:8.64"/>
	<line x1="3482.87" y1="1529.84" x2="3540.51" y2="1529.84" style="stroke:#F0F0F0;stroke-width:8.64"/>
	<line x1="3569.27" y1="1529.84" x2="3626.91" y2="1529.84" style="stroke:#F0F0F0;stroke-width:8.64"/>
	<line x1="3655.67" y1="1529.84" x2="3713.31" y2="1529.84" style="stroke:#F0F0F0;stroke-width:8.64"/>
	<line x1="3742.07" y1="1529.84" x2="3799.71" y2="1529.84" style="stroke:#F0F0F0;stroke-width:8.64"/>
	<line x1="3828.47" y1="1529.84" x2="3886.11" y2="1529.84" style="stroke:#F0F0F0;stroke-width:8.64"/>
	<line x1="3914.87" y1="1529.84" x2="3972.51" y2="1529.84" style="stroke:#F0F0F0;stroke-width:8.64"/>
	<line x1="4001.27" y1="1529.84" x2="4058.91" y2="1529.84" style="stroke:#F0F0F0;stroke-width:8.64"/>
	<line x1="4087.67" y1="1529.84" x2="4145.31" y2="1529.84" style="stroke:#F0F0F0;stroke-width:8.64"/>
	<line x1="4174.06" y1="1529.84" x2="4219.16" y2="1529.84" style="stroke:#F0F0F0;stroke-width:8.64"/>
	<line x1="372.47" y1="919.23" x2="430.11" y2="919.23" style="stroke:#F0F0F0;stroke-width:8.64"/>
	<line x1="458.87" y1="919.23" x2="516.51" y2="919.23" style="stroke:#F0F0F0;stroke-width:8.64"/>
	<line x1="545.27" y1="919.23" x2="602.91" y2="919.23" style="stroke:#F0F0F0;stroke-width:8.64"/>
	<line x1="631.67" y1="919.23" x2="689.31" y2="919.23" style="stroke:#F0F0F0;stroke-width:8.64"/>
	<line x1="718.07" y1="919.23" x2="775.71" y2="919.23" style="stroke:#F0F0F0;stroke-width:8.64"/>
	<line x1="804.47" y1="919.23" x2="862.11" y2="919.23" style="stroke:#F0F0F0;stroke-width:8.64"/>
	<line x1="890.87" y1="919.23" x2="948.51" y2="919.23" style="stroke:#F0F0F0;stroke-width:8.64"/>
	<line x1="977.27" y1="919.23" x2="1034.91" y2="919.23" style="stroke:#F0F0F0;stroke-width:8.64"/>
	<line x1="1063.67" y1="919.23" x2="1121.31" y2="919.23" style="stroke:#F0F0F0;stroke-width:8.64"/>
	<line x1="1150.07" y1="919.23" x2="1207.71" y2="919.23" style="stroke:#F0F0F0;stroke-width:8.64"/>
	<line x1="1236.46" y1="919.23" x2="1294.11" y2="919.23" style="stroke:#F0F0F0;stroke-width:8.64"/>
	<line x1="1322.87" y1="919.23" x2="1380.51" y2="919.23" style="stroke:#F0F0F0;stroke-width:8.64"/>
	<line x1="1409.27" y1="919.23" x2="1466.91" y2="919.23" style="stroke:#F0F0F0;stroke-width:8.64"/>
	<line x1="1495.67" y1="919.23" x2="1553.31" y2="919.23" style="stroke:#F0F0F0;stroke-width:8.64"/>
	<line x1="1582.07" y1="919.23" x2="1639.71" y2="919.23" style="stroke:#F0F0F0;stroke-width:8.64"/>
	<line x1="1668.47" y1="919.23" x2="1726.11" y2="919.23" style="stroke:#F0F0F0;stroke-width:8.64"/>
	<line x1="1754.87" y1="919.23" x2="1812.51" y2="919.23" style="stroke:#F0F0F0;stroke-width:8.64"/>
	<line x1="1841.27" y1="919.23" x2="1898.91" y2="919.23" style="stroke:#F0F0F0;stroke-width:8.64"/>
	<line x1="1927.67" y1="919.23" x2="1985.31" y2="919.23" style="stroke:#F0F0F0;stroke-width:8.64"/>
	<line x1="2014.07" y1="919.23" x2="2071.71" y2="919.23" style="stroke:#F0F0F0;stroke-width:8.64"/>
	<line x1="2100.47" y1="919.23" x2="2158.11" y2="919.23" style="stroke:#F0F0F0;stroke-width:8.64"/>
	<line x1="2186.86" y1="919.23" x2="2244.51" y2="919.23" style="stroke:#F0F0F0;stroke-width:8.64"/>
	<line x1="2273.27" y1="919.23" x2="2330.91" y2="919.23" style="stroke:#F0F0F0;stroke-width:8.64"/>
	<line x1="2359.67" y1="919.23" x2="2417.31" y2="919.23" style="stroke:#F0F0F0;stroke-width:8.64"/>
	<line x1="2446.07" y1="919.23" x2="2503.71" y2="919.23" style="stroke:#F0F0F0;stroke-width:8.64"/>
	<line x1="2532.47" y1="919.23" x2="2590.11" y2="919.23" style="stroke:#F0F0F0;stroke-width:8.64"/>
	<line x1="2618.86" y1="919.23" x2="2676.51" y2="919.23" style="stroke:#F0F0F0;stroke-width:8.64"/>
	<line x1="2705.27" y1="919.23" x2="2762.91" y2="919.23" style="stroke:#F0F0F0;stroke-width:8.64"/>
	<line x1="2791.67" y1="919.23" x2="2849.31" y2="919.23" style="stroke:#F0F0F0;stroke-width:8.64"/>
	<line x1="2878.07" y1="919.23" x2="2935.71" y2="919.23" style="stroke:#F0F0F0;stroke-width:8.64"/>
	<line x1="2964.47" y1="919.23" x2="3022.11" y2="919.23" style="stroke:#F0F0F0;stroke-width:8.64"/>
	<line x1="3050.87" y1="919.23" x2="3108.51" y2="919.23" style="stroke:#F0F0F0;stroke-width:8.64"/>
	<line x1="3137.27" y1="919.23" x2="3194.91" y2="919.23" style="stroke:#F0F0F0;stroke-width:8.64"/>
	<line x1="3223.67" y1="919.23" x2="3281.31" y2="919.23" style="stroke:#F0F0F0;stroke-width:8.64"/>
	<line x1="3310.07" y1="919.23" x2="3367.71" y2="919.23" style="stroke:#F0F0F0;stroke-width:8.64"/>
	<line x1="3396.47" y1="919.23" x2="3454.11" y2="919.23" style="stroke:#F0F0F0;stroke-width:8.64"/>
	<line x1="3482.87" y1="919.23" x2="3540.51" y2="919.23" style="stroke:#F0F0F0;stroke-width:8.64"/>
	<line x1="3569.27" y1="919.23" x2="3626.91" y2="919.23" style="stroke:#F0F0F0;stroke-width:8.64"/>
	<line x1="3655.67" y1="919.23" x2="3713.31" y2="919.23" style="stroke:#F0F0F0;stroke-width:8.64"/>
	<line x1="3742.07" y1="919.23" x2="3799.71" y2="919.23" style="stroke:#F0F0F0;stroke-width:8.64"/>
	<line x1="3828.47" y1="919.23" x2="3886.11" y2="919.23" style="stroke:#F0F0F0;stroke-width:8.64"/>
	<line x1="3914.87" y1="919.23" x2="3972.51" y2="919.23" style="stroke:#F0F0F0;stroke-width:8.64"/>
	<line x1="4001.27" y1="919.23" x2="4058.91" y2="919.23" style="stroke:#F0F0F0;stroke-width:8.64"/>
	<line x1="4087.67" y1="919.23" x2="4145.31" y2="919.23" style="stroke:#F0F0F0;stroke-width:8.64"/>
	<line x1="4174.06" y1="919.23" x2="4219.16" y2="919.23" style="stroke:#F0F0F0;stroke-width:8.64"/>
	<line x1="372.47" y1="308.75" x2="430.11" y2="308.75" style="stroke:#F0F0F0;stroke-width:8.64"/>
	<line x1="458.87" y1="308.75" x2="516.51" y2="308.75" style="stroke:#F0F0F0;stroke-width:8.64"/>
	<line x1="545.27" y1="308.75" x2="602.91" y2="308.75" style="stroke:#F0F0F0;stroke-width:8.64"/>
	<line x1="631.67" y1="308.75" x2="689.31" y2="308.75" style="stroke:#F0F0F0;stroke-width:8.64"/>
	<line x1="718.07" y1="308.75" x2="775.71" y2="308.75" style="stroke:#F0F0F0;stroke-width:8.64"/>
	<line x1="804.47" y1="308.75" x2="862.11" y2="308.75" style="stroke:#F0F0F0;stroke-width:8.64"/>
	<line x1="890.87" y1="308.75" x2="948.51" y2="308.75" style="stroke:#F0F0F0;stroke-width:8.64"/>
	<line x1="977.27" y1="308.75" x2="1034.91" y2="308.75" style="stroke:#F0F0F0;stroke-width:8.64"/>
	<line x1="1063.67" y1="308.75" x2="1121.31" y2="308.75" style="stroke:#F0F0F0;stroke-width:8.64"/>
	<line x1="1150.07" y1="308.75" x2="1207.71" y2="308.75" style="stroke:#F0F0F0;stroke-width:8.64"/>
	<line x1="1236.46" y1="308.75" x2="1294.11" y2="308.75" style="stroke:#F0F0F0;stroke-width:8.64"/>
	<line x1="1322.87" y1="308.75" x2="1380.51" y2="308.75" style="stroke:#F0F0F0;stroke-width:8.64"/>
	<line x1="1409.27" y1="308.75" x2="1466.91" y2="308.75" style="stroke:#F0F0F0;stroke-width:8.64"/>
	<line x1="1495.67" y1="308.75" x2="1553.31" y2="308.75" style="stroke:#F0F0F0;stroke-width:8.64"/>
	<line x1="1582.07" y1="308.75" x2="1639.71" y2="308.75" style="stroke:#F0F0F0;stroke-width:8.64"/>
	<line x1="1668.47" y1="308.75" x2="1726.11" y2="308.75" style="stroke:#F0F0F0;stroke-width:8.64"/>
	<line x1="1754.87" y1="308.75" x2="1812.51" y2="308.75" style="stroke:#F0F0F0;stroke-width:8.64"/>
	<line x1="1841.27" y1="308.75" x2="1898.91" y2="308.75" style="stroke:#F0F0F0;stroke-width:8.64"/>
	<line x1="1927.67" y1="308.75" x2="1985.31" y2="308.75" style="stroke:#F0F0F0;stroke-width:8.64"/>
	<line x1="2014.07" y1="308.75" x2="2071.71" y2="308.75" style="stroke:#F0F0F0;stroke-width:8.64"/>
	<line x1="2100.47" y1="308.75" x2="2158.11" y2="308.75" style="stroke:#F0F0F0;stroke-width:8.64"/>
	<line x1="2186.86" y1="308.75" x2="2244.51" y2="308.75" style="stroke:#F0F0F0;stroke-width:8.64"/>
	<line x1="2273.27" y1="308.75" x2="2330.91" y2="308.75" style="stroke:#F0F0F0;stroke-width:8.64"/>
	<line x1="2359.67" y1="308.75" x2="2417.31" y2="308.75" style="stroke:#F0F0F0;stroke-width:8.64"/>
	<line x1="2446.07" y1="308.75" x2="2503.71" y2="308.75" style="stroke:#F0F0F0;stroke-width:8.64"/>
	<line x1="2532.47" y1="308.75" x2="2590.11" y2="308.75" style="stroke:#F0F0F0;stroke-width:8.64"/>
	<line x1="2618.86" y1="308.75" x2="2676.51" y2="308.75" style="stroke:#F0F0F0;stroke-width:8.64"/>
	<line x1="2705.27" y1="308.75" x2="2762.91" y2="308.75" style="stroke:#F0F0F0;stroke-width:8.64"/>
	<line x1="2791.67" y1="308.75" x2="2849.31" y2="308.75" style="stroke:#F0F0F0;stroke-width:8.64"/>
	<line x1="2878.07" y1="308.75" x2="2935.71" y2="308.75" style="stroke:#F0F0F0;stroke-width:8.64"/>
	<line x1="2964.47" y1="308.75" x2="3022.11" y2="308.75" style="stroke:#F0F0F0;stroke-width:8.64"/>
	<line x1="3050.87" y1="308.75" x2="3108.51" y2="308.75" style="stroke:#F0F0F0;stroke-width:8.64"/>
	<line x1="3137.27" y1="308.75" x2="3194.91" y2="308.75" style="stroke:#F0F0F0;stroke-width:8.64"/>
	<line x1="3223.67" y1="308.75" x2="3281.31" y2="308.75" style="stroke:#F0F0F0;stroke-width:8.64"/>
	<line x1="3310.07" y1="308.75" x2="3367.71" y2="308.75" style="stroke:#F0F0F0;stroke-width:8.64"/>
	<line x1="3396.47" y1="308.75" x2="3454.11" y2="308.75" style="stroke:#F0F0F0;stroke-width:8.64"/>
	<line x1="3482.87" y1="308.75" x2="3540.51" y2="308.75" style="stroke:#F0F0F0;stroke-width:8.64"/>
	<line x1="3569.27" y1="308.75" x2="3626.91" y2="308.75" style="stroke:#F0F0F0;stroke-width:8.64"/>
	<line x1="3655.67" y1="308.75" x2="3713.31" y2="308.75" style="stroke:#F0F0F0;stroke-width:8.64"/>
	<line x1="3742.07" y1="308.75" x2="3799.71" y2="308.75" style="stroke:#F0F0F0;stroke-width:8.64"/>
	<line x1="3828.47" y1="308.75" x2="3886.11" y2="308.75" style="stroke:#F0F0F0;stroke-width:8.64"/>
	<line x1="3914.87" y1="308.75" x2="3972.51" y2="308.75" style="stroke:#F0F0F0;stroke-width:8.64"/>
	<line x1="4001.27" y1="308.75" x2="4058.91" y2="308.75" style="stroke:#F0F0F0;stroke-width:8.64"/>
	<line x1="4087.67" y1="308.75" x2="4145.31" y2="308.75" style="stroke:#F0F0F0;stroke-width:8.64"/>
	<line x1="4174.06" y1="308.75" x2="4219.16" y2="308.75" style="stroke:#F0F0F0;stroke-width:8.64"/>
	<line x1="435.78" y1="2203.64" x2="435.78" y2="2145.99" style="stroke:#F0F0F0;stroke-width:8.64"/>
	<line x1="435.78" y1="2117.24" x2="435.78" y2="2059.59" style="stroke:#F0F0F0;stroke-width:8.64"/>
	<line x1="435.78" y1="2030.84" x2="435.78" y2="1973.19" style="stroke:#F0F0F0;stroke-width:8.64"/>
	<line x1="435.78" y1="1944.44" x2="435.78" y2="1886.79" style="stroke:#F0F0F0;stroke-width:8.64"/>
	<line x1="435.78" y1="1858.03" x2="435.78" y2="1800.39" style="stroke:#F0F0F0;stroke-width:8.64"/>
	<line x1="435.78" y1="1771.63" x2="435.78" y2="1713.99" style="stroke:#F0F0F0;stroke-width:8.64"/>
	<line x1="435.78" y1="1685.23" x2="435.78" y2="1627.59" style="stroke:#F0F0F0;stroke-width:8.64"/>
	<line x1="435.78" y1="1598.83" x2="435.78" y2="1541.18" style="stroke:#F0F0F0;stroke-width:8.64"/>
	<line x1="435.78" y1="1512.43" x2="435.78" y2="1454.78" style="stroke:#F0F0F0;stroke-width:8.64"/>
	<line x1="435.78" y1="1426.03" x2="435.78" y2="1368.38" style="stroke:#F0F0F0;stroke-width:8.64"/>
	<line x1="435.78" y1="1339.63" x2="435.78" y2="1281.98" style="stroke:#F0F0F0;stroke-width:8.64"/>
	<line x1="435.78" y1="1253.22" x2="435.78" y2="1195.58" style="stroke:#F0F0F0;stroke-width:8.64"/>
	<line x1="435.78" y1="1166.82" x2="435.78" y2="1109.18" style="stroke:#F0F0F0;stroke-width:8.64"/>
	<line x1="435.78" y1="1080.42" x2="435.78" y2="1022.78" style="stroke:#F0F0F0;stroke-width:8.64"/>
	<line x1="435.78" y1="994.02" x2="435.78" y2="936.37" style="stroke:#F0F0F0;stroke-width:8.64"/>
	<line x1="435.78" y1="907.62" x2="435.78" y2="849.97" style="stroke:#F0F0F0;stroke-width:8.64"/>
	<line x1="435.78" y1="821.22" x2="435.78" y2="763.57" style="stroke:#F0F0F0;stroke-width:8.64"/>
	<line x1="435.78" y1="734.82" x2="435.78" y2="677.17" style="stroke:#F0F0F0;stroke-width:8.64"/>
	<line x1="435.78" y1="648.42" x2="435.78" y2="590.77" style="stroke:#F0F0F0;stroke-width:8.64"/>
	<line x1="435.78" y1="562.01" x2="435.78" y2="504.37" style="stroke:#F0F0F0;stroke-width:8.64"/>
	<line x1="435.78" y1="475.61" x2="435.78" y2="417.97" style="stroke:#F0F0F0;stroke-width:8.64"/>
	<line x1="435.78" y1="389.21" x2="435.78" y2="331.57" style="stroke:#F0F0F0;stroke-width:8.64"/>
	<line x1="435.78" y1="302.81" x2="435.78" y2="245.30" style="stroke:#F0F0F0;stroke-width:8.64"/>
	<line x1="1675.76" y1="2203.64" x2="1675.76" y2="2145.99" style="stroke:#F0F0F0;stroke-width:8.64"/>
	<line x1="1675.76" y1="2117.24" x2="1675.76" y2="2059.59" style="stroke:#F0F0F0;stroke-width:8.64"/>
	<line x1="1675.76" y1="2030.84" x2="1675.76" y2="1973.19" style="stroke:#F0F0F0;stroke-width:8.64"/>
	<line x1="1675.76" y1="1944.44" x2="1675.76" y2="1886.79" style="stroke:#F0F0F0;stroke-width:8.64"/>
	<line x1="1675.76" y1="1858.03" x2="1675.76" y2="1800.39" style="stroke:#F0F0F0;stroke-width:8.64"/>
	<line x1="1675.76" y1="1771.63" x2="1675.76" y2="1713.99" style="stroke:#F0F0F0;stroke-width:8.64"/>
	<line x1="1675.76" y1="1685.23" x2="1675.76" y2="1627.59" style="stroke:#F0F0F0;stroke-width:8.64"/>
	<line x1="1675.76" y1="1598.83" x2="1675.76" y2="1541.18" style="stroke:#F0F0F0;stroke-width:8.64"/>
	<line x1="1675.76" y1="1512.43" x2="1675.76" y2="1454.78" style="stroke:#F0F0F0;stroke-width:8.64"/>
	<line x1="1675.76" y1="1426.03" x2="1675.76" y2="1368.38" style="stroke:#F0F0F0;stroke-width:8.64"/>
	<line x1="1675.76" y1="1339.63" x2="1675.76" y2="1281.98" style="stroke:#F0F0F0;stroke-width:8.64"/>
	<line x1="1675.76" y1="1253.22" x2="1675.76" y2="1195.58" style="stroke:#F0F0F0;stroke-width:8.64"/>
	<line x1="1675.76" y1="1166.82" x2="1675.76" y2="1109.18" style="stroke:#F0F0F0;stroke-width:8.64"/>
	<line x1="1675.76" y1="1080.42" x2="1675.76" y2="1022.78" style="stroke:#F0F0F0;stroke-width:8.64"/>
	<line x1="1675.76" y1="994.02" x2="1675.76" y2="936.37" style="stroke:#F0F0F0;stroke-width:8.64"/>
	<line x1="1675.76" y1="907.62" x2="1675.76" y2="849.97" style="stroke:#F0F0F0;stroke-width:8.64"/>
	<line x1="1675.76" y1="821.22" x2="1675.76" y2="763.57" style="stroke:#F0F0F0;stroke-width:8.64"/>
	<line x1="1675.76" y1="734.82" x2="1675.76" y2="677.17" style="stroke:#F0F0F0;stroke-width:8.64"/>
	<line x1="1675.76" y1="648.42" x2="1675.76" y2="590.77" style="stroke:#F0F0F0;stroke-width:8.64"/>
	<line x1="1675.76" y1="562.01" x2="1675.76" y2="504.37" style="stroke:#F0F0F0;stroke-width:8.64"/>
	<line x1="1675.76" y1="475.61" x2="1675.76" y2="417.97" style="stroke:#F0F0F0;stroke-width:8.64"/>
	<line x1="1675.76" y1="389.21" x2="1675.76" y2="331.57" style="stroke:#F0F0F0;stroke-width:8.64"/>
	<line x1="1675.76" y1="302.81" x2="1675.76" y2="245.30" style="stroke:#F0F0F0;stroke-width:8.64"/>
	<line x1="2915.73" y1="2203.64" x2="2915.73" y2="2145.99" style="stroke:#F0F0F0;stroke-width:8.64"/>
	<line x1="2915.73" y1="2117.24" x2="2915.73" y2="2059.59" style="stroke:#F0F0F0;stroke-width:8.64"/>
	<line x1="2915.73" y1="2030.84" x2="2915.73" y2="1973.19" style="stroke:#F0F0F0;stroke-width:8.64"/>
	<line x1="2915.73" y1="1944.44" x2="2915.73" y2="1886.79" style="stroke:#F0F0F0;stroke-width:8.64"/>
	<line x1="2915.73" y1="1858.03" x2="2915.73" y2="1800.39" style="stroke:#F0F0F0;stroke-width:8.64"/>
	<line x1="2915.73" y1="1771.63" x2="2915.73" y2="1713.99" style="stroke:#F0F0F0;stroke-width:8.64"/>
	<line x1="2915.73" y1="1685.23" x2="2915.73" y2="1627.59" style="stroke:#F0F0F0;stroke-width:8.64"/>
	<line x1="2915.73" y1="1598.83" x2="2915.73" y2="1541.18" style="stroke:#F0F0F0;stroke-width:8.64"/>
	<line x1="2915.73" y1="1512.43" x2="2915.73" y2="1454.78" style="stroke:#F0F0F0;stroke-width:8.64"/>
	<line x1="2915.73" y1="1426.03" x2="2915.73" y2="1368.38" style="stroke:#F0F0F0;stroke-width:8.64"/>
	<line x1="2915.73" y1="1339.63" x2="2915.73" y2="1281.98" style="stroke:#F0F0F0;stroke-width:8.64"/>
	<line x1="2915.73" y1="1253.22" x2="2915.73" y2="1195.58" style="stroke:#F0F0F0;stroke-width:8.64"/>
	<line x1="2915.73" y1="1166.82" x2="2915.73" y2="1109.18" style="stroke:#F0F0F0;stroke-width:8.64"/>
	<line x1="2915.73" y1="1080.42" x2="2915.73" y2="1022.78" style="stroke:#F0F0F0;stroke-width:8.64"/>
	<line x1="2915.73" y1="994.02" x2="2915.73" y2="936.37" style="stroke:#F0F0F0;stroke-width:8.64"/>
	<line x1="2915.73" y1="907.62" x2="2915.73" y2="849.97" style="stroke:#F0F0F0;stroke-width:8.64"/>
	<line x1="2915.73" y1="821.22" x2="2915.73" y2="763.57" style="stroke:#F0F0F0;stroke-width:8.64"/>
	<line x1="2915.73" y1="734.82" x2="2915.73" y2="677.17" style="stroke:#F0F0F0;stroke-width:8.64"/>
	<line x1="2915.73" y1="648.42" x2="2915.73" y2="590.77" style="stroke:#F0F0F0;stroke-width:8.64"/>
	<line x1="2915.73" y1="562.01" x2="2915.73" y2="504.37" style="stroke:#F0F0F0;stroke-width:8.64"/>
	<line x1="2915.73" y1="475.61" x2="2915.73" y2="417.97" style="stroke:#F0F0F0;stroke-width:8.64"/>
	<line x1="2915.73" y1="389.21" x2="2915.73" y2="331.57" style="stroke:#F0F0F0;stroke-width:8.64"/>
	<line x1="2915.73" y1="302.81" x2="2915.73" y2="245.30" style="stroke:#F0F0F0;stroke-width:8.64"/>
	<line x1="4155.84" y1="2203.64" x2="4155.84" y2="2145.99" style="stroke:#F0F0F0;stroke-width:8.64"/>
	<line x1="4155.84" y1="2117.24" x2="4155.84" y2="2059.59" style="stroke:#F0F0F0;stroke-width:8.64"/>
	<line x1="4155.84" y1="2030.84" x2="4155.84" y2="1973.19" style="stroke:#F0F0F0;stroke-width:8.64"/>
	<line x1="4155.84" y1="1944.44" x2="4155.84" y2="1886.79" style="stroke:#F0F0F0;stroke-width:8.64"/>
	<line x1="4155.84" y1="1858.03" x2="4155.84" y2="1800.39" style="stroke:#F0F0F0;stroke-width:8.64"/>
	<line x1="4155.84" y1="1771.63" x2="4155.84" y2="1713.99" style="stroke:#F0F0F0;stroke-width:8.64"/>
	<line x1="4155.84" y1="1685.23" x2="4155.84" y2="1627.59" style="stroke:#F0F0F0;stroke-width:8.64"/>
	<line x1="4155.84" y1="1598.83" x2="4155.84" y2="1541.18" style="stroke:#F0F0F0;stroke-width:8.64"/>
	<line x1="4155.84" y1="1512.43" x2="4155.84" y2="1454.78" style="stroke:#F0F0F0;stroke-width:8.64"/>
	<line x1="4155.84" y1="1426.03" x2="4155.84" y2="1368.38" style="stroke:#F0F0F0;stroke-width:8.64"/>
	<line x1="4155.84" y1="1339.63" x2="4155.84" y2="1281.98" style="stroke:#F0F0F0;stroke-width:8.64"/>
	<line x1="4155.84" y1="1253.22" x2="4155.84" y2="1195.58" style="stroke:#F0F0F0;stroke-width:8.64"/>
	<line x1="4155.84" y1="1166.82" x2="4155.84" y2="1109.18" style="stroke:#F0F0F0;stroke-width:8.64"/>
	<line x1="4155.84" y1="1080.42" x2="4155.84" y2="1022.78" style="stroke:#F0F0F0;stroke-width:8.64"/>
	<line x1="4155.84" y1="994.02" x2="4155.84" y2="936.37" style="stroke:#F0F0F0;stroke-width:8.64"/>
	<line x1="4155.84" y1="907.62" x2="4155.84" y2="849.97" style="stroke:#F0F0F0;stroke-width:8.64"/>
	<line x1="4155.84" y1="821.22" x2="4155.84" y2="763.57" style="stroke:#F0F0F0;stroke-width:8.64"/>
	<line x1="4155.84" y1="734.82" x2="4155.84" y2="677.17" style="stroke:#F0F0F0;stroke-width:8.64"/>
	<line x1="4155.84" y1="648.42" x2="4155.84" y2="590.77" style="stroke:#F0F0F0;stroke-width:8.64"/>
	<line x1="4155.84" y1="562.01" x2="4155.84" y2="504.37" style="stroke:#F0F0F0;stroke-width:8.64"/>
	<line x1="4155.84" y1="475.61" x2="4155.84" y2="417.97" style="stroke:#F0F0F0;stroke-width:8.64"/>
	<line x1="4155.84" y1="389.21" x2="4155.84" y2="331.57" style="stroke:#F0F0F0;stroke-width:8.64"/>
	<line x1="4155.84" y1="302.81" x2="4155.84" y2="245.30" style="stroke:#F0F0F0;stroke-width:8.64"/>
	<defs>
		<path id="path_RcogJWAW" d="M435.78 1625.16 L435.78 1625.16 L559.85 1599.50 L683.78 1575.74 L807.84 1573.72 L931.77 1594.10 L1055.84 1630.15 L1179.77 1674.16 L1303.83 1720.60 L1427.76 1765.96 L1551.83 1808.49 L1675.76 1847.64 L1799.82 1883.14 L1923.75 1915.00 L2047.82 1943.63 L2171.75 1969.41 L2295.81 1992.36 L2419.74 2013.15 L2543.80 2031.78 L2667.74 2048.79 L2791.80 2064.18 L2915.73 2078.36 L3039.80 2091.45 L3163.73 2103.60 L3287.79 2114.81 L3411.72 2125.47 L3411.72 1039.25 L3287.79 1003.07 L3163.73 965.94 L3039.80 928.00 L2915.73 889.39 L2791.80 850.65 L2667.74 812.04 L2543.80 773.97 L2419.74 736.84 L2295.81 701.47 L2171.75 668.40 L2047.82 638.69 L1923.75 613.18 L1799.82 593.06 L1675.76 579.97 L1551.83 575.51 L1427.76 581.72 L1303.83 600.62 L1179.77 634.64 L1055.84 685.95 L931.77 756.69 L807.84 849.43 L683.78 968.37 L559.85 1117.41 L435.78 1284.55 L435.78 1625.16 Z" stroke-linejoin="round"/>
	</defs>
	<defs>
		<clipPath id="clipPath_DMCXVFFQ">
			<use xlink:href="#path_RcogJWAW"/>
		</clipPath>
	</defs>
	<use xlink:href="#path_RcogJWAW" style="stroke:none;fill:#E0E0E0"/>
	<use xlink:href="#path_RcogJWAW" style="fill:none;stroke:#E0E0E0;stroke-width:17.28" clip-path="url(#clipPath_DMCXVFFQ)"/>
	<path d=" M435.78 1454.92 L559.71 1358.53 L683.78 1272.12 L807.71 1211.64 L931.77 1175.46 L1055.70 1158.18 L1179.77 1154.54 L1303.70 1160.75 L1427.76 1173.84 L1551.69 1192.07 L1675.76 1213.94 L1799.69 1238.10 L1923.75 1264.16 L2047.68 1291.16 L2171.75 1318.97 L2295.68 1347.05 L2419.74 1375.13 L2543.67 1402.94 L2667.74 1430.48 L2791.67 1457.48 L2915.73 1483.94 L3039.66 1509.73 L3163.73 1534.84 L3287.66 1559.00 L3411.72 1582.49" stroke-linejoin="round" style="fill:none;stroke:#1A85FF;stroke-width:8.64"/>
	<line x1="372.47" y1="2203.64" x2="372.47" y2="245.30" style="stroke:#000000;stroke-width:5.76"/>
	<line x1="372.47" y1="2140.32" x2="332.51" y2="2140.32" style="stroke:#000000;stroke-width:5.76"/>
	<text x="312.39" y="2175.37" style="font-family:'Helvetica';font-size:100.04px;fill:#000000" text-anchor="end">-.2</text>
	<line x1="372.47" y1="1529.84" x2="332.51" y2="1529.84" style="stroke:#000000;stroke-width:5.76"/>
	<text x="312.39" y="1564.89" style="font-family:'Helvetica';font-size:100.04px;fill:#000000" text-anchor="end">0</text>
	<line x1="372.47" y1="919.23" x2="332.51" y2="919.23" style="stroke:#000000;stroke-width:5.76"/>
	<text x="312.39" y="954.28" style="font-family:'Helvetica';font-size:100.04px;fill:#000000" text-anchor="end">.2</text>
	<line x1="372.47" y1="308.75" x2="332.51" y2="308.75" style="stroke:#000000;stroke-width:5.76"/>
	<text x="312.39" y="343.80" style="font-family:'Helvetica';font-size:100.04px;fill:#000000" text-anchor="end">.4</text>
	<line x1="372.47" y1="2203.64" x2="4219.16" y2="2203.64" style="stroke:#000000;stroke-width:5.76"/>
	<line x1="435.78" y1="2203.64" x2="435.78" y2="2243.74" style="stroke:#000000;stroke-width:5.76"/>
	<text x="435.78" y="2333.67" style="font-family:'Helvetica';font-size:100.04px;fill:#000000" text-anchor="middle">0</text>
	<line x1="1675.76" y1="2203.64" x2="1675.76" y2="2243.74" style="stroke:#000000;stroke-width:5.76"/>
	<text x="1675.76" y="2333.67" style="font-family:'Helvetica';font-size:100.04px;fill:#000000" text-anchor="middle">10</text>
	<line x1="2915.73" y1="2203.64" x2="2915.73" y2="2243.74" style="stroke:#000000;stroke-width:5.76"/>
	<text x="2915.73" y="2333.67" style="font-family:'Helvetica';font-size:100.04px;fill:#000000" text-anchor="middle">20</text>
	<line x1="4155.84" y1="2203.64" x2="4155.84" y2="2243.74" style="stroke:#000000;stroke-width:5.76"/>
	<text x="4155.84" y="2333.67" style="font-family:'Helvetica';font-size:100.04px;fill:#000000" text-anchor="middle">30</text>
	<text x="2295.81" y="2473.67" style="font-family:'Helvetica';font-size:100.04px;fill:#000000" text-anchor="middle">Step</text>
	<rect x="1275.35" y="2558.29" width="2040.93" height="186.30" style="fill:#FFFFFF"/>
	<rect x="1278.22" y="2561.17" width="2035.17" height="180.54" style="fill:none;stroke:#FFFFFF;stroke-width:5.76"/>
	<rect x="1318.55" y="2601.49" width="230.44" height="99.90" style="fill:#E0E0E0"/>
	<rect x="1322.86" y="2605.81" width="221.81" height="91.26" style="fill:none;stroke:#E0E0E0;stroke-width:8.64"/>
	<line x1="2090.21" y1="2651.44" x2="2320.52" y2="2651.44" style="stroke:#1A85FF;stroke-width:8.64"/>
	<text x="1608.93" y="2686.49" style="font-family:'Helvetica';font-size:100.04px;fill:#000000">90% CI</text>
	<text x="2380.59" y="2686.49" style="font-family:'Helvetica';font-size:100.04px;fill:#000000">Orthogonalized IRF</text>
	<rect x="372.47" y="100.85" width="3846.69" height="144.45" style="fill:#F0F0F0;stroke:#000000;stroke-width:5.76"/>
	<text x="2295.81" y="211.62" style="font-family:'Helvetica';font-size:110.03px;fill:#000000" text-anchor="middle">irf_P4: DGS102 -&gt; IPC2</text>
</svg>
