<?xml version="1.0" encoding="UTF-8" standalone="no"?>
<!-- This is a Stata 18.0 generated SVG file (http://www.stata.com) -->

<svg version="1.1" width="6.000in" height="4.000in" viewBox="0 0 4320 2880" xmlns="http://www.w3.org/2000/svg" xmlns:xlink="http://www.w3.org/1999/xlink">
	<desc>Stata Graph - Graph</desc>
	<rect x="0" y="0" width="4320" height="2880" style="fill:#FFFFFF;stroke:none"/>
	<rect x="0.00" y="0.00" width="4320.00" height="2880.00" style="fill:#FFFFFF"/>
	<rect x="2.88" y="2.88" width="4314.24" height="2874.24" style="fill:none;stroke:#FFFFFF;stroke-width:5.76"/>
	<rect x="308.34" y="275.40" width="3910.81" height="2183.79" style="fill:#FFFFFF"/>
	<rect x="311.22" y="278.28" width="3905.06" height="2178.03" style="fill:none;stroke:#000000;stroke-width:5.76"/>
	<path d=" M371.52 994.56 L384.21 922.47 L396.77 891.69 L409.46 847.95 L422.01 783.69 L434.70 716.73 L447.26 714.16 L459.81 724.56 L472.50 719.29 L485.06 721.99 L497.75 721.99 L510.30 750.21 L522.99 858.21 L535.54 984.17 L548.24 1030.47 L560.79 1161.69 L573.35 1313.30 L586.04 1375.13 L598.59 1426.43 L611.28 1457.35 L623.84 1606.53 L636.53 1755.70 L649.08 1858.44 L661.64 1927.97 L674.33 1951.05 L686.88 1948.49 L699.57 1951.05 L712.13 1945.92 L724.82 1945.92 L737.37 1945.92 L749.93 1951.05 L762.62 1948.49 L775.17 1945.92 L787.86 1945.92 L800.42 2051.36 L813.11 2077.01 L825.66 2077.01 L838.35 2071.88 L850.91 2074.44 L863.46 2071.88 L876.15 2071.88 L888.71 2082.14 L901.40 2136.14 L913.95 2131.01 L926.64 2136.14 L939.20 2136.14 L951.75 2138.84 L964.44 2143.97 L977.00 2138.84 L989.69 2136.14 L1002.24 2138.84 L1014.93 2138.84 L1027.48 2138.84 L1040.18 2131.01 L1052.73 2071.88 L1065.29 2028.27 L1077.97 1981.97 L1090.53 1943.36 L1103.22 1899.61 L1115.78 1840.48 L1128.46 1809.57 L1141.02 1753.00 L1153.58 1719.66 L1166.27 1678.48 L1178.82 1624.48 L1191.51 1614.22 L1204.07 1557.65 L1216.76 1495.96 L1229.31 1465.04 L1241.87 1423.87 L1254.56 1367.30 L1267.11 1326.26 L1279.80 1292.78 L1292.36 1241.34 L1305.05 1215.69 L1317.60 1164.26 L1330.29 1125.65 L1342.85 1112.82 L1355.40 1048.56 L1368.09 1045.86 L1380.65 1045.86 L1393.34 1045.86 L1405.89 1045.86 L1418.58 1048.56 L1431.14 1045.86 L1443.69 1043.30 L1456.38 1043.30 L1468.94 1045.86 L1481.63 1045.86 L1494.18 1045.86 L1506.87 1043.30 L1519.43 1105.13 L1531.98 1125.65 L1544.67 1171.95 L1557.23 1241.34 L1569.92 1305.61 L1582.47 1382.83 L1595.16 1629.61 L1607.72 1724.79 L1620.41 1809.57 L1632.96 1886.79 L1645.52 1881.66 L1658.21 1879.09 L1670.76 1881.66 L1683.45 1930.53 L1696.01 2146.53 L1708.70 2295.58 L1721.25 2354.71 L1733.81 2357.41 L1746.50 2339.32 L1759.05 2349.58 L1771.74 2357.41 L1784.30 2349.58 L1796.99 2341.88 L1809.54 2354.71 L1822.10 2354.71 L1834.79 2357.41 L1847.34 2365.10 L1860.03 2365.10 L1872.59 2365.10 L1885.28 2367.67 L1897.83 2362.54 L1910.52 2354.71 L1923.08 2344.45 L1935.63 2344.45 L1948.32 2349.58 L1960.88 2349.58 L1973.57 2347.01 L1986.12 2347.01 L1998.81 2347.01 L2011.37 2347.01 L2023.92 2349.58 L2036.61 2352.14 L2049.17 2354.71 L2061.86 2359.97 L2074.41 2370.23 L2087.10 2372.80 L2099.66 2372.80 L2112.34 2377.93 L2124.90 2370.23 L2137.46 2375.36 L2150.15 2377.93 L2162.70 2375.36 L2175.39 2377.93 L2187.95 2375.36 L2200.64 2370.23 L2213.19 2362.54 L2225.75 2359.97 L2238.44 2354.71 L2250.99 2354.71 L2263.68 2354.71 L2276.24 2362.54 L2288.93 2359.97 L2301.48 2354.71 L2314.04 2354.71 L2326.73 2354.71 L2339.28 2359.97 L2351.97 2357.41 L2364.53 2359.97 L2377.22 2357.41 L2389.77 2367.67 L2402.46 2372.80 L2415.02 2372.80 L2427.57 2375.36 L2440.26 2375.36 L2452.82 2372.80 L2465.51 2375.36 L2478.06 2372.80 L2490.75 2377.93 L2503.30 2377.93 L2515.86 2375.36 L2528.55 2372.80 L2541.11 2372.80 L2553.80 2370.23 L2566.35 2372.80 L2579.04 2372.80 L2591.59 2372.80 L2604.15 2372.80 L2616.84 2372.80 L2629.40 2365.10 L2642.09 2367.67 L2654.64 2367.67 L2667.33 2367.67 L2679.89 2365.10 L2692.58 2365.10 L2705.13 2362.54 L2717.69 2362.54 L2730.38 2359.97 L2742.93 2359.97 L2755.62 2365.10 L2768.18 2365.10 L2780.87 2334.19 L2793.42 2308.54 L2805.98 2298.14 L2818.67 2303.41 L2831.22 2300.84 L2843.91 2300.84 L2856.47 2298.14 L2869.16 2295.58 L2881.71 2293.01 L2894.27 2293.01 L2906.96 2293.01 L2919.51 2290.45 L2932.20 2257.10 L2944.76 2228.75 L2957.45 2226.18 L2970.00 2192.84 L2982.69 2164.49 L2995.25 2161.92 L3007.80 2128.44 L3020.49 2100.23 L3033.05 2097.66 L3045.74 2100.23 L3058.29 2100.23 L3070.98 2097.66 L3083.54 2061.62 L3096.09 2033.40 L3108.78 2030.84 L3121.34 2007.62 L3134.03 1961.31 L3146.58 1958.75 L3159.27 1927.97 L3171.83 1904.74 L3184.38 1904.74 L3197.07 1894.48 L3209.63 1832.79 L3222.32 1830.22 L3234.87 1812.27 L3247.56 1778.79 L3260.12 1778.79 L3272.81 1776.22 L3285.36 1773.66 L3297.92 1781.35 L3310.61 1783.92 L3323.16 1778.79 L3335.85 1848.18 L3348.41 1871.40 L3361.10 1925.40 L3373.65 1997.36 L3386.21 1997.36 L3398.90 1997.36 L3411.45 1989.66 L3424.14 2228.75 L3436.70 2383.06 L3449.39 2383.06 L3461.94 2375.36 L3474.63 2372.80 L3487.19 2370.23 L3499.74 2372.80 L3512.43 2372.80 L3524.99 2372.80 L3537.68 2372.80 L3550.23 2372.80 L3562.92 2375.36 L3575.48 2377.93 L3588.03 2377.93 L3600.72 2380.49 L3613.28 2375.36 L3625.97 2370.23 L3638.52 2372.80 L3651.21 2375.36 L3663.77 2375.36 L3676.32 2375.36 L3689.01 2375.36 L3701.57 2375.36 L3714.26 2375.36 L3726.81 2344.45 L3739.50 2311.10 L3752.06 2197.97 L3764.75 2084.84 L3777.30 1963.88 L3789.86 1796.74 L3802.55 1737.61 L3815.10 1603.96 L3827.79 1423.87 L3840.35 1341.65 L3853.04 1282.52 L3865.59 1220.82 L3878.15 1200.17 L3890.84 1153.86 L3903.39 1094.73 L3916.08 1089.60 L3928.64 1079.34 L3941.33 1025.34 L3953.88 1025.34 L3966.44 1025.34" stroke-linejoin="round" style="fill:none;stroke:#0080FF;stroke-width:8.64"/>
	<line x1="308.34" y1="2459.20" x2="308.34" y2="275.40" style="stroke:#000000;stroke-width:5.76"/>
	<line x1="308.34" y1="2395.88" x2="268.25" y2="2395.88" style="stroke:#000000;stroke-width:5.76"/>
	<text x="248.27" y="2430.93" style="font-family:'Helvetica';font-size:100.04px;fill:#000000" text-anchor="end">0</text>
	<line x1="308.34" y1="1881.52" x2="268.25" y2="1881.52" style="stroke:#000000;stroke-width:5.76"/>
	<text x="248.27" y="1916.57" style="font-family:'Helvetica';font-size:100.04px;fill:#000000" text-anchor="end">2</text>
	<line x1="308.34" y1="1367.30" x2="268.25" y2="1367.30" style="stroke:#000000;stroke-width:5.76"/>
	<text x="248.27" y="1402.35" style="font-family:'Helvetica';font-size:100.04px;fill:#000000" text-anchor="end">4</text>
	<line x1="308.34" y1="852.94" x2="268.25" y2="852.94" style="stroke:#000000;stroke-width:5.76"/>
	<text x="248.27" y="887.99" style="font-family:'Helvetica';font-size:100.04px;fill:#000000" text-anchor="end">6</text>
	<line x1="308.34" y1="338.72" x2="268.25" y2="338.72" style="stroke:#000000;stroke-width:5.76"/>
	<text x="248.27" y="373.77" style="font-family:'Helvetica';font-size:100.04px;fill:#000000" text-anchor="end">8</text>
	<line x1="308.34" y1="2459.20" x2="4219.16" y2="2459.20" style="stroke:#000000;stroke-width:5.76"/>
	<line x1="371.66" y1="2459.20" x2="371.66" y2="2499.16" style="stroke:#000000;stroke-width:5.76"/>
	<text x="371.66" y="2589.10" style="font-family:'Helvetica';font-size:100.04px;fill:#000000" text-anchor="middle">2000m1</text>
	<line x1="1128.46" y1="2459.20" x2="1128.46" y2="2499.16" style="stroke:#000000;stroke-width:5.76"/>
	<text x="1128.46" y="2589.10" style="font-family:'Helvetica';font-size:100.04px;fill:#000000" text-anchor="middle">2005m1</text>
	<line x1="1885.28" y1="2459.20" x2="1885.28" y2="2499.16" style="stroke:#000000;stroke-width:5.76"/>
	<text x="1885.28" y="2589.10" style="font-family:'Helvetica';font-size:100.04px;fill:#000000" text-anchor="middle">2010m1</text>
	<line x1="2642.09" y1="2459.20" x2="2642.09" y2="2499.16" style="stroke:#000000;stroke-width:5.76"/>
	<text x="2642.09" y="2589.10" style="font-family:'Helvetica';font-size:100.04px;fill:#000000" text-anchor="middle">2015m1</text>
	<line x1="3398.90" y1="2459.20" x2="3398.90" y2="2499.16" style="stroke:#000000;stroke-width:5.76"/>
	<text x="3398.90" y="2589.10" style="font-family:'Helvetica';font-size:100.04px;fill:#000000" text-anchor="middle">2020m1</text>
	<line x1="4155.84" y1="2459.20" x2="4155.84" y2="2499.16" style="stroke:#000000;stroke-width:5.76"/>
	<text x="4155.84" y="2589.10" style="font-family:'Helvetica';font-size:100.04px;fill:#000000" text-anchor="middle">2025m1</text>
	<text x="2263.68" y="2729.09" style="font-family:'Helvetica';font-size:100.04px;fill:#000000" text-anchor="middle">Fecha</text>
	<text x="2263.68" y="216.06" style="font-family:'Helvetica';font-size:140.00px;fill:#000000" text-anchor="middle">Tasa de Interés de la Reserva Federal de Estados Unidos</text>
</svg>
