<?xml version="1.0" encoding="UTF-8" standalone="no"?>
<!-- This is a Stata 18.0 generated SVG file (http://www.stata.com) -->

<svg version="1.1" width="6.000in" height="4.000in" viewBox="0 0 4320 2880" xmlns="http://www.w3.org/2000/svg" xmlns:xlink="http://www.w3.org/1999/xlink">
	<desc>Stata Graph - Graph</desc>
	<rect x="0" y="0" width="4320" height="2880" style="fill:#FFFFFF;stroke:none"/>
	<rect x="0.00" y="0.00" width="4320.00" height="2880.00" style="fill:#FFFFFF"/>
	<rect x="2.88" y="2.88" width="4314.24" height="2874.24" style="fill:none;stroke:#FFFFFF;stroke-width:5.76"/>
	<rect x="454.14" y="275.40" width="3765.02" height="2183.79" style="fill:#FFFFFF"/>
	<rect x="457.02" y="278.28" width="3759.26" height="2178.03" style="fill:none;stroke:#000000;stroke-width:5.76"/>
	<path d=" M517.46 683.11 L529.47 719.43 L541.62 787.06 L553.77 855.51 L565.92 739.81 L578.07 828.10 L590.22 839.17 L602.24 897.76 L614.39 904.78 L626.54 920.31 L638.68 925.84 L650.84 1048.43 L662.99 1068.81 L675.14 1084.74 L687.15 1139.69 L699.30 1073.94 L711.45 1009.55 L723.60 1037.09 L735.75 1049.51 L747.90 1117.55 L759.92 1179.24 L772.07 1221.63 L784.22 1199.76 L796.37 1087.71 L808.52 1101.08 L820.67 1132.94 L832.68 1037.22 L844.83 1055.99 L856.98 1067.87 L869.13 1129.16 L881.28 1199.36 L893.43 1301.15 L905.45 1400.78 L917.60 1382.56 L929.75 1354.88 L941.90 1359.07 L954.05 1354.88 L966.20 1392.41 L978.21 1416.98 L990.36 1377.97 L1002.51 1478.14 L1014.66 1538.48 L1026.81 1373.65 L1038.96 1252.82 L1050.97 1296.83 L1063.13 1292.65 L1075.28 1290.22 L1087.43 1298.45 L1099.58 1328.69 L1111.72 1345.70 L1123.74 1411.99 L1135.89 1277.93 L1148.04 1183.43 L1160.19 1178.70 L1172.34 1239.32 L1184.49 1294.94 L1196.51 1335.04 L1208.66 1342.46 L1220.81 1317.49 L1232.96 1308.04 L1245.11 1310.33 L1257.26 1324.91 L1269.27 1239.32 L1281.42 1279.68 L1293.57 1330.31 L1305.72 1367.84 L1317.87 1321.67 L1330.02 1299.80 L1342.04 1316.14 L1354.19 1248.23 L1366.34 1229.73 L1378.49 1247.28 L1390.64 1260.38 L1402.79 1221.09 L1414.80 1181.27 L1426.95 1112.69 L1439.10 1081.91 L1451.25 1082.85 L1463.40 1087.71 L1475.55 1141.98 L1487.57 1182.48 L1499.72 1179.92 L1511.87 1214.34 L1524.02 1222.17 L1536.17 1172.09 L1548.32 1181.54 L1560.33 1222.17 L1572.48 1188.96 L1584.63 1175.46 L1596.78 1083.80 L1608.93 1109.04 L1621.08 1193.82 L1633.10 1233.24 L1645.25 1231.62 L1657.40 1329.23 L1669.55 1342.33 L1681.70 1433.05 L1693.85 1434.80 L1705.86 1493.39 L1718.01 1450.87 L1730.16 1398.22 L1742.31 1341.79 L1754.46 1365.41 L1766.61 1396.73 L1778.63 1448.03 L1790.78 1415.09 L1802.93 1489.07 L1815.08 1774.60 L1827.23 1748.55 L1839.38 1657.96 L1851.39 1670.92 L1863.54 1643.25 L1875.69 1549.15 L1887.84 1438.85 L1899.99 1479.89 L1912.14 1473.55 L1924.16 1521.20 L1936.31 1524.85 L1948.46 1520.93 L1960.61 1472.74 L1972.76 1436.02 L1984.91 1446.82 L1996.92 1437.50 L2009.07 1406.72 L2021.22 1516.48 L2033.37 1571.96 L2045.52 1621.51 L2057.67 1701.97 L2069.69 1715.07 L2081.84 1742.74 L2093.99 1685.50 L2106.14 1549.69 L2118.29 1523.23 L2130.44 1476.25 L2142.45 1517.96 L2154.60 1507.43 L2166.75 1581.14 L2178.90 1623.94 L2191.05 1623.67 L2203.20 1803.76 L2215.22 1888.00 L2227.36 1842.51 L2239.52 1878.15 L2251.67 1887.33 L2263.82 1890.30 L2275.97 1890.03 L2287.98 1837.24 L2300.13 1868.02 L2312.28 1932.29 L2324.43 1978.73 L2336.58 2003.30 L2348.73 1964.42 L2360.88 1952.81 L2372.90 1946.87 L2385.05 1970.63 L2397.20 1953.89 L2409.34 1903.53 L2421.50 1885.71 L2433.65 1892.59 L2445.66 1943.63 L2457.81 1900.15 L2469.96 1804.44 L2482.11 1731.94 L2494.26 1692.12 L2506.41 1673.49 L2518.43 1723.30 L2530.57 1696.84 L2542.73 1649.73 L2554.88 1660.93 L2567.03 1699.14 L2579.18 1695.63 L2591.19 1700.35 L2603.34 1737.88 L2615.49 1727.76 L2627.64 1742.20 L2639.79 1773.66 L2651.94 1744.23 L2663.96 1803.49 L2676.11 1797.96 L2688.26 1828.33 L2700.41 1912.17 L2712.56 1888.00 L2724.71 1870.59 L2736.72 1898.40 L2748.87 1830.90 L2761.02 1788.10 L2773.17 1798.23 L2785.32 1838.59 L2797.47 1837.24 L2809.49 1863.57 L2821.64 1814.02 L2833.79 1819.15 L2845.94 1859.65 L2858.09 1938.36 L2870.24 1910.14 L2882.25 1931.75 L2894.40 1931.48 L2906.55 1973.19 L2918.70 2009.24 L2930.85 1995.74 L2943.00 1976.70 L2955.02 1942.14 L2967.17 1845.07 L2979.32 1755.16 L2991.47 1770.42 L3003.62 1773.93 L3015.77 1757.73 L3027.78 1805.11 L3039.93 1803.49 L3052.08 1833.60 L3064.23 1799.85 L3076.38 1827.79 L3088.53 1829.68 L3100.55 1789.05 L3112.70 1790.80 L3124.85 1778.11 L3137.00 1731.54 L3149.15 1660.80 L3161.30 1664.98 L3173.31 1658.23 L3185.46 1630.29 L3197.61 1647.03 L3209.76 1652.97 L3221.91 1652.97 L3234.06 1623.40 L3246.08 1585.33 L3258.23 1594.37 L3270.38 1667.55 L3282.53 1698.06 L3294.68 1707.78 L3306.83 1734.78 L3318.84 1744.77 L3330.99 1780.00 L3343.14 1862.62 L3355.29 1866.40 L3367.44 1977.65 L3379.59 1958.88 L3391.61 1956.99 L3403.76 1929.99 L3415.91 1916.89 L3428.06 1943.90 L3440.21 2009.10 L3452.36 2172.18 L3464.37 2226.86 L3476.52 2222.54 L3488.67 2208.50 L3500.82 2235.50 L3512.97 2228.75 L3525.12 2221.19 L3537.14 2193.51 L3549.29 2172.18 L3561.44 2155.85 L3573.59 2117.91 L3585.74 2072.42 L3597.89 1981.70 L3609.90 1975.49 L3622.05 1979.13 L3634.20 2005.32 L3646.35 2056.89 L3658.50 2065.94 L3670.65 2042.45 L3682.67 1988.99 L3694.82 1994.93 L3706.97 2019.23 L3719.12 1942.28 L3731.27 1898.53 L3743.42 1848.72 L3755.43 1689.42 L3767.58 1650.67 L3779.73 1587.62 L3791.88 1651.21 L3804.03 1650.81 L3816.18 1490.96 L3828.20 1371.62 L3840.35 1395.38 L3852.50 1465.99 L3864.65 1487.86 L3876.80 1432.51 L3888.95 1453.97 L3900.96 1506.22 L3913.11 1476.92 L3925.26 1432.10 L3937.41 1393.22 L3949.56 1324.24 L3961.71 1269.83 L3973.86 1162.10" stroke-linejoin="round" style="fill:none;stroke:#0080FF;stroke-width:8.64"/>
	<line x1="454.14" y1="2459.20" x2="454.14" y2="275.40" style="stroke:#000000;stroke-width:5.76"/>
	<line x1="454.14" y1="2395.88" x2="414.18" y2="2395.88" style="stroke:#000000;stroke-width:5.76"/>
	<text x="394.07" y="2430.93" style="font-family:'Helvetica';font-size:100.04px;fill:#000000" text-anchor="end">0.00</text>
	<line x1="454.14" y1="1881.52" x2="414.18" y2="1881.52" style="stroke:#000000;stroke-width:5.76"/>
	<text x="394.07" y="1916.57" style="font-family:'Helvetica';font-size:100.04px;fill:#000000" text-anchor="end">2.00</text>
	<line x1="454.14" y1="1367.30" x2="414.18" y2="1367.30" style="stroke:#000000;stroke-width:5.76"/>
	<text x="394.07" y="1402.35" style="font-family:'Helvetica';font-size:100.04px;fill:#000000" text-anchor="end">4.00</text>
	<line x1="454.14" y1="852.94" x2="414.18" y2="852.94" style="stroke:#000000;stroke-width:5.76"/>
	<text x="394.07" y="887.99" style="font-family:'Helvetica';font-size:100.04px;fill:#000000" text-anchor="end">6.00</text>
	<line x1="454.14" y1="338.72" x2="414.18" y2="338.72" style="stroke:#000000;stroke-width:5.76"/>
	<text x="394.07" y="373.77" style="font-family:'Helvetica';font-size:100.04px;fill:#000000" text-anchor="end">8.00</text>
	<line x1="454.14" y1="2459.20" x2="4219.16" y2="2459.20" style="stroke:#000000;stroke-width:5.76"/>
	<line x1="517.46" y1="2459.20" x2="517.46" y2="2499.16" style="stroke:#000000;stroke-width:5.76"/>
	<text x="517.46" y="2589.10" style="font-family:'Helvetica';font-size:100.04px;fill:#000000" text-anchor="middle">2000m1</text>
	<line x1="1245.11" y1="2459.20" x2="1245.11" y2="2499.16" style="stroke:#000000;stroke-width:5.76"/>
	<text x="1245.11" y="2589.10" style="font-family:'Helvetica';font-size:100.04px;fill:#000000" text-anchor="middle">2005m1</text>
	<line x1="1972.76" y1="2459.20" x2="1972.76" y2="2499.16" style="stroke:#000000;stroke-width:5.76"/>
	<text x="1972.76" y="2589.10" style="font-family:'Helvetica';font-size:100.04px;fill:#000000" text-anchor="middle">2010m1</text>
	<line x1="2700.41" y1="2459.20" x2="2700.41" y2="2499.16" style="stroke:#000000;stroke-width:5.76"/>
	<text x="2700.41" y="2589.10" style="font-family:'Helvetica';font-size:100.04px;fill:#000000" text-anchor="middle">2015m1</text>
	<line x1="3428.06" y1="2459.20" x2="3428.06" y2="2499.16" style="stroke:#000000;stroke-width:5.76"/>
	<text x="3428.06" y="2589.10" style="font-family:'Helvetica';font-size:100.04px;fill:#000000" text-anchor="middle">2020m1</text>
	<line x1="4155.84" y1="2459.20" x2="4155.84" y2="2499.16" style="stroke:#000000;stroke-width:5.76"/>
	<text x="4155.84" y="2589.10" style="font-family:'Helvetica';font-size:100.04px;fill:#000000" text-anchor="middle">2025m1</text>
	<text x="2336.58" y="2729.09" style="font-family:'Helvetica';font-size:100.04px;fill:#000000" text-anchor="middle">Fecha</text>
	<text x="2336.58" y="216.06" style="font-family:'Helvetica';font-size:140.00px;fill:#000000" text-anchor="middle">Tasa de interés a 10 años en Estados Unidos</text>
</svg>
