<?xml version="1.0" encoding="UTF-8" standalone="no"?>
<!-- This is a Stata 18.0 generated SVG file (http://www.stata.com) -->

<svg version="1.1" width="6.000in" height="4.000in" viewBox="0 0 4320 2880" xmlns="http://www.w3.org/2000/svg" xmlns:xlink="http://www.w3.org/1999/xlink">
	<desc>Stata Graph - Graph</desc>
	<rect x="0" y="0" width="4320" height="2880" style="fill:#FFFFFF;stroke:none"/>
	<rect x="0.00" y="0.00" width="4320.00" height="2880.00" style="fill:#FFFFFF"/>
	<rect x="2.88" y="2.88" width="4314.24" height="2874.24" style="fill:none;stroke:#FFFFFF;stroke-width:5.76"/>
	<rect x="395.82" y="275.40" width="3823.33" height="2183.79" style="fill:#FFFFFF"/>
	<rect x="398.70" y="278.28" width="3817.58" height="2178.03" style="fill:none;stroke:#000000;stroke-width:5.76"/>
	<path d=" M459.14 1788.51 L471.42 1823.61 L483.71 1863.30 L495.99 1845.88 L508.41 1782.97 L520.70 1746.39 L532.98 1688.47 L545.27 1652.56 L557.68 1588.84 L569.97 1580.74 L582.26 1552.52 L594.67 1552.39 L606.96 1566.97 L619.25 1600.59 L631.53 1498.39 L643.95 1454.78 L656.24 1431.56 L668.52 1386.34 L680.94 1234.86 L693.23 1173.03 L705.51 1146.57 L717.80 1054.37 L730.22 1118.09 L742.50 1189.23 L754.79 1195.98 L767.07 1154.94 L779.49 1210.29 L791.78 1255.52 L804.06 1244.18 L816.48 1172.90 L828.77 1094.33 L841.05 1073.94 L853.34 991.59 L865.76 941.77 L878.04 1049.64 L890.33 1075.16 L902.61 1006.44 L915.03 932.46 L927.32 938.67 L939.60 1020.35 L952.02 1069.62 L964.31 1050.72 L976.59 1077.86 L988.88 1068.95 L1001.30 1166.96 L1013.58 1272.93 L1025.87 1350.29 L1038.15 1437.91 L1050.57 1556.44 L1062.86 1512.56 L1075.14 1433.86 L1087.56 1416.98 L1099.85 1311.28 L1112.13 1282.52 L1124.42 1323.97 L1136.84 1310.74 L1149.12 1384.45 L1161.41 1420.63 L1173.83 1462.48 L1186.11 1546.04 L1198.40 1554.55 L1210.68 1556.71 L1223.10 1503.65 L1235.39 1528.36 L1247.67 1537.13 L1259.96 1507.84 L1272.38 1547.66 L1284.66 1671.60 L1296.95 1715.20 L1309.37 1720.60 L1321.65 1745.71 L1333.94 1816.72 L1346.22 1770.15 L1358.64 1764.61 L1370.93 1750.71 L1383.21 1802.95 L1395.50 1787.02 L1407.92 1689.82 L1420.20 1697.92 L1432.49 1707.10 L1444.91 1706.56 L1457.19 1740.99 L1469.48 1756.78 L1481.76 1756.11 L1494.18 1698.33 L1506.47 1690.63 L1518.75 1707.24 L1531.04 1734.91 L1543.46 1781.35 L1555.74 1760.02 L1568.03 1791.48 L1580.45 1777.30 L1592.73 1804.84 L1605.02 1877.34 L1617.30 1851.28 L1629.72 1887.60 L1642.01 1976.97 L1654.29 2045.82 L1666.58 2173.13 L1679.00 2154.36 L1691.28 2031.24 L1703.57 1914.87 L1715.99 1873.42 L1728.27 1805.79 L1740.56 1744.36 L1752.84 1377.43 L1765.26 1252.95 L1777.55 1260.92 L1789.83 1359.61 L1802.25 1425.62 L1814.54 1477.60 L1826.82 1517.15 L1839.11 1589.65 L1851.53 1643.52 L1863.81 1698.73 L1876.10 1670.38 L1888.38 1660.93 L1900.80 1674.97 L1913.09 1847.37 L1925.37 1877.20 L1937.79 1880.98 L1950.08 1733.70 L1962.36 1776.22 L1974.65 1787.83 L1987.07 1730.73 L1999.35 1715.34 L2011.64 1737.48 L2023.92 1840.08 L2036.34 1913.25 L2048.63 1961.45 L2060.91 1969.95 L2073.33 2007.62 L2085.61 1934.99 L2097.90 2003.03 L2110.19 1983.18 L2122.61 2025.03 L2134.89 2043.26 L2147.18 2034.75 L2159.46 2067.83 L2171.88 2047.98 L2184.17 1963.20 L2196.45 1828.74 L2208.87 1844.26 L2221.16 1803.63 L2233.44 1877.74 L2245.73 1974.14 L2258.15 1954.83 L2270.43 1951.86 L2282.72 1898.13 L2295.14 1857.49 L2307.42 1922.97 L2319.71 1976.57 L2331.99 2006.67 L2344.41 2004.65 L2356.70 1978.73 L2368.98 1995.74 L2381.27 2018.15 L2393.69 2019.90 L2405.97 2019.09 L2418.26 2020.85 L2430.68 1983.59 L2442.96 1870.45 L2455.25 1860.60 L2467.53 1824.82 L2479.95 1862.49 L2492.24 1880.31 L2504.52 1794.04 L2516.80 1747.60 L2529.23 1713.72 L2541.51 1637.85 L2553.80 1597.61 L2566.22 1636.77 L2578.50 1633.53 L2590.79 1643.65 L2603.07 1621.51 L2615.49 1534.16 L2627.78 1475.44 L2640.06 1489.48 L2652.35 1479.49 L2664.77 1398.62 L2677.05 1367.71 L2689.34 1357.31 L2701.76 1338.68 L2714.04 1391.47 L2726.33 1419.41 L2738.61 1333.01 L2751.03 1257.95 L2763.32 1122.54 L2775.60 1110.12 L2788.02 1132.40 L2800.31 1068.14 L2812.59 1067.33 L2824.88 1008.20 L2837.30 1067.87 L2849.58 1143.60 L2861.87 1186.53 L2874.15 1144.28 L2886.57 1147.11 L2898.86 1230.81 L2911.14 1226.09 L2923.56 1191.12 L2935.85 1208.00 L2948.13 1200.03 L2960.42 1196.25 L2972.84 1217.72 L2985.12 1283.47 L2997.41 1217.72 L3009.69 1237.56 L3022.11 1180.73 L3034.40 1203.54 L3046.68 1228.65 L3059.10 1279.68 L3071.39 1350.02 L3083.67 1334.77 L3095.96 1318.84 L3108.38 1306.96 L3120.66 1427.51 L3132.95 1461.94 L3145.23 1435.75 L3157.65 1447.22 L3169.94 1347.73 L3182.22 1309.79 L3194.64 1249.71 L3206.93 1235.67 L3219.21 1147.65 L3231.50 1161.96 L3243.92 1159.26 L3256.20 1143.87 L3268.49 1161.29 L3280.77 1235.54 L3293.19 1194.50 L3305.48 1195.44 L3317.76 1109.18 L3330.18 1107.83 L3342.47 1129.70 L3354.75 1035.60 L3367.04 1019.81 L3379.46 1011.17 L3391.74 834.31 L3404.03 853.21 L3416.45 846.33 L3428.73 774.10 L3441.02 648.69 L3453.30 609.26 L3465.72 699.18 L3478.01 782.07 L3490.29 809.34 L3502.58 809.47 L3515.00 844.03 L3527.28 798.54 L3539.57 876.57 L3551.99 966.35 L3564.27 1002.80 L3576.56 1005.90 L3588.84 993.62 L3601.26 1055.18 L3613.55 1040.33 L3625.83 993.08 L3638.12 915.85 L3650.54 824.19 L3662.82 812.58 L3675.11 722.13 L3687.53 726.04 L3699.81 621.28 L3712.10 698.50 L3724.38 742.38 L3736.80 765.73 L3749.09 718.75 L3761.37 620.47 L3773.66 597.11 L3786.08 344.26 L3798.36 471.02 L3810.65 427.42 L3823.07 338.72 L3835.35 437.68 L3847.64 547.84 L3859.92 686.08 L3872.34 768.57 L3884.63 735.22 L3896.91 751.96 L3909.33 767.35 L3921.62 763.71 L3933.90 723.75 L3946.19 602.92 L3958.61 524.21 L3970.89 413.65" stroke-linejoin="round" style="fill:none;stroke:#0080FF;stroke-width:8.64"/>
	<line x1="395.82" y1="2459.20" x2="395.82" y2="275.40" style="stroke:#000000;stroke-width:5.76"/>
	<line x1="395.82" y1="2395.88" x2="355.73" y2="2395.88" style="stroke:#000000;stroke-width:5.76"/>
	<text x="335.75" y="2430.93" style="font-family:'Helvetica';font-size:100.04px;fill:#000000" text-anchor="end">6</text>
	<line x1="395.82" y1="1918.92" x2="355.73" y2="1918.92" style="stroke:#000000;stroke-width:5.76"/>
	<text x="335.75" y="1953.97" style="font-family:'Helvetica';font-size:100.04px;fill:#000000" text-anchor="end">6.2</text>
	<line x1="395.82" y1="1441.96" x2="355.73" y2="1441.96" style="stroke:#000000;stroke-width:5.76"/>
	<text x="335.75" y="1477.00" style="font-family:'Helvetica';font-size:100.04px;fill:#000000" text-anchor="end">6.4</text>
	<line x1="395.82" y1="965.00" x2="355.73" y2="965.00" style="stroke:#000000;stroke-width:5.76"/>
	<text x="335.75" y="1000.04" style="font-family:'Helvetica';font-size:100.04px;fill:#000000" text-anchor="end">6.6</text>
	<line x1="395.82" y1="488.17" x2="355.73" y2="488.17" style="stroke:#000000;stroke-width:5.76"/>
	<text x="335.75" y="523.21" style="font-family:'Helvetica';font-size:100.04px;fill:#000000" text-anchor="end">6.8</text>
	<line x1="395.82" y1="2459.20" x2="4219.16" y2="2459.20" style="stroke:#000000;stroke-width:5.76"/>
	<line x1="459.14" y1="2459.20" x2="459.14" y2="2499.16" style="stroke:#000000;stroke-width:5.76"/>
	<text x="459.14" y="2589.10" style="font-family:'Helvetica';font-size:100.04px;fill:#000000" text-anchor="middle">2000m1</text>
	<line x1="1198.53" y1="2459.20" x2="1198.53" y2="2499.16" style="stroke:#000000;stroke-width:5.76"/>
	<text x="1198.53" y="2589.10" style="font-family:'Helvetica';font-size:100.04px;fill:#000000" text-anchor="middle">2005m1</text>
	<line x1="1937.79" y1="2459.20" x2="1937.79" y2="2499.16" style="stroke:#000000;stroke-width:5.76"/>
	<text x="1937.79" y="2589.10" style="font-family:'Helvetica';font-size:100.04px;fill:#000000" text-anchor="middle">2010m1</text>
	<line x1="2677.19" y1="2459.20" x2="2677.19" y2="2499.16" style="stroke:#000000;stroke-width:5.76"/>
	<text x="2677.19" y="2589.10" style="font-family:'Helvetica';font-size:100.04px;fill:#000000" text-anchor="middle">2015m1</text>
	<line x1="3416.45" y1="2459.20" x2="3416.45" y2="2499.16" style="stroke:#000000;stroke-width:5.76"/>
	<text x="3416.45" y="2589.10" style="font-family:'Helvetica';font-size:100.04px;fill:#000000" text-anchor="middle">2020m1</text>
	<line x1="4155.84" y1="2459.20" x2="4155.84" y2="2499.16" style="stroke:#000000;stroke-width:5.76"/>
	<text x="4155.84" y="2589.10" style="font-family:'Helvetica';font-size:100.04px;fill:#000000" text-anchor="middle">2025m1</text>
	<text x="2307.42" y="2729.09" style="font-family:'Helvetica';font-size:100.04px;fill:#000000" text-anchor="middle">Fecha</text>
	<text x="2307.42" y="216.06" style="font-family:'Helvetica';font-size:140.00px;fill:#000000" text-anchor="middle">ln(Tipo de Cambio USD,CLP)</text>
</svg>
