<?xml version="1.0" encoding="UTF-8" standalone="no"?>
<!-- This is a Stata 18.0 generated SVG file (http://www.stata.com) -->

<svg version="1.1" width="6.000in" height="4.000in" viewBox="0 0 4320 2880" xmlns="http://www.w3.org/2000/svg" xmlns:xlink="http://www.w3.org/1999/xlink">
	<desc>Stata Graph - Graph</desc>
	<rect x="0" y="0" width="4320" height="2880" style="fill:#FFFFFF;stroke:none"/>
	<rect x="0.00" y="0.00" width="4320.00" height="2880.00" style="fill:#FFFFFF"/>
	<rect x="2.88" y="2.88" width="4314.24" height="2874.24" style="fill:none;stroke:#FFFFFF;stroke-width:5.76"/>
	<rect x="472.50" y="275.40" width="3746.66" height="2183.79" style="fill:#FFFFFF"/>
	<rect x="475.38" y="278.28" width="3740.90" height="2178.03" style="fill:none;stroke:#000000;stroke-width:5.76"/>
	<path d=" M535.68 2348.77 L550.13 1048.83 L564.43 1059.50 L578.88 937.45 L593.19 1021.43 L607.50 1135.64 L621.95 802.99 L636.26 1097.84 L650.70 968.91 L665.01 1065.98 L679.46 1022.51 L693.77 1005.50 L708.08 942.85 L722.52 1109.58 L736.83 1044.38 L751.28 1068.54 L765.59 911.80 L779.90 1118.90 L794.34 978.23 L808.65 1014.81 L823.10 963.51 L837.41 1119.71 L851.72 1083.39 L866.16 983.76 L880.47 1074.89 L894.92 1027.10 L909.23 1019.94 L923.54 1098.65 L937.98 986.33 L952.29 1097.70 L966.74 1108.64 L981.05 1057.20 L995.36 1043.84 L1009.80 1067.60 L1024.11 955.14 L1038.56 1023.45 L1052.87 1012.38 L1067.31 1001.45 L1081.62 1011.30 L1095.93 1080.29 L1110.38 1004.69 L1124.69 985.52 L1139.13 1087.04 L1153.44 1092.84 L1167.75 984.03 L1182.20 1031.01 L1196.51 951.90 L1210.95 1053.02 L1225.26 999.83 L1239.57 1029.80 L1254.02 1064.76 L1268.33 1099.73 L1282.77 950.95 L1297.08 1021.16 L1311.39 991.73 L1325.84 1000.91 L1340.15 1016.30 L1354.59 958.65 L1368.90 977.42 L1383.21 987.41 L1397.66 932.73 L1411.97 895.33 L1426.41 973.77 L1440.72 1105.80 L1455.17 1112.42 L1469.48 999.42 L1483.79 949.06 L1498.23 1024.80 L1512.54 996.45 L1526.99 983.36 L1541.30 1000.91 L1555.61 1070.57 L1570.05 1048.16 L1584.36 1020.08 L1598.81 969.05 L1613.12 1025.61 L1627.43 1079.88 L1641.87 890.88 L1656.18 1034.93 L1670.63 976.61 L1684.94 1029.39 L1699.25 965.81 L1713.69 986.60 L1728.00 945.01 L1742.45 1033.85 L1756.76 962.70 L1771.07 1008.87 L1785.51 713.49 L1799.82 839.71 L1814.27 1288.87 L1828.58 872.52 L1842.89 1043.70 L1857.33 1059.23 L1871.64 1017.38 L1886.09 1078.80 L1900.40 1066.11 L1914.84 1151.97 L1929.15 969.99 L1943.46 887.10 L1957.91 879.40 L1972.22 1118.09 L1986.66 1050.32 L2000.97 957.70 L2015.28 1139.42 L2029.73 977.28 L2044.04 928.81 L2058.48 1218.93 L2072.79 949.47 L2087.10 888.18 L2101.55 952.44 L2115.86 1014.27 L2130.30 998.21 L2144.61 1111.20 L2158.92 1008.06 L2173.36 1004.15 L2187.68 1164.53 L2202.12 1085.15 L2216.43 1397.95 L2230.74 1197.06 L2245.19 1129.29 L2259.50 882.91 L2273.94 1045.59 L2288.25 846.73 L2302.70 908.29 L2317.01 1082.45 L2331.32 1003.07 L2345.76 1018.05 L2360.07 839.58 L2374.52 1010.63 L2388.82 926.11 L2403.14 904.51 L2417.58 962.97 L2431.89 985.38 L2446.34 1129.56 L2460.65 910.45 L2474.96 990.92 L2489.40 1222.17 L2503.71 1034.12 L2518.16 947.31 L2532.47 952.03 L2546.78 958.51 L2561.22 972.02 L2575.53 1041.95 L2589.98 923.95 L2604.29 1011.17 L2618.59 1013.73 L2633.04 1087.17 L2647.35 953.65 L2661.80 1086.09 L2676.11 952.84 L2690.55 953.92 L2704.86 1139.42 L2719.17 1107.56 L2733.62 1120.38 L2747.93 959.86 L2762.37 1039.65 L2776.68 933.40 L2790.99 988.35 L2805.44 1023.05 L2819.75 1067.60 L2834.19 1076.37 L2848.50 1118.22 L2862.81 927.46 L2877.26 1022.24 L2891.57 880.75 L2906.01 1056.26 L2920.32 1082.18 L2934.63 974.31 L2949.08 1028.72 L2963.39 1047.08 L2977.83 1063.82 L2992.14 1065.57 L3006.45 965.67 L3020.90 1063.82 L3035.21 1030.47 L3049.65 960.00 L3063.96 1046.67 L3078.27 1007.52 L3092.72 1054.10 L3107.03 1001.85 L3121.47 1014.68 L3135.78 1039.11 L3150.23 1103.91 L3164.54 964.32 L3178.85 975.66 L3193.29 1044.92 L3207.60 966.08 L3222.05 1055.99 L3236.36 1048.43 L3250.67 1030.74 L3265.11 1027.10 L3279.42 1082.04 L3293.87 1113.77 L3308.18 983.49 L3322.49 953.65 L3336.93 1028.72 L3351.24 971.61 L3365.69 1156.02 L3380.00 1082.58 L3394.31 1068.27 L3408.75 974.85 L3423.06 1035.60 L3437.51 1106.48 L3451.82 1012.25 L3466.13 1041.41 L3480.57 995.51 L3494.88 942.72 L3509.33 1098.78 L3523.64 1057.20 L3538.08 996.32 L3552.39 963.78 L3566.70 1087.71 L3581.15 1012.25 L3595.46 998.88 L3609.90 812.17 L3624.21 1044.78 L3638.52 1025.88 L3652.97 1008.06 L3667.28 1051.67 L3681.72 1053.15 L3696.03 1005.23 L3710.34 1001.04 L3724.79 940.15 L3739.10 921.12 L3753.54 1050.18 L3767.85 1004.96 L3782.16 1047.08 L3796.61 1028.85 L3810.92 982.95 L3825.36 1031.28 L3839.67 1050.99 L3853.98 968.78 L3868.43 1034.52 L3882.74 997.53 L3897.18 1186.94 L3911.49 1013.46 L3925.94 1004.96 L3940.25 982.68 L3954.56 1049.78 L3969.00 1036.95 L3983.31 1057.47 L3997.76 912.88 L4012.07 1044.11 L4026.38 1034.66 L4040.82 1113.77 L4055.13 989.70 L4069.58 994.97 L4083.89 1075.29 L4098.20 999.29 L4112.64 1007.52 L4126.95 999.56 L4141.40 975.12" stroke-linejoin="round" style="fill:none;stroke:#0080FF;stroke-width:8.64"/>
	<line x1="472.50" y1="2459.20" x2="472.50" y2="275.40" style="stroke:#000000;stroke-width:5.76"/>
	<line x1="472.50" y1="2395.88" x2="432.41" y2="2395.88" style="stroke:#000000;stroke-width:5.76"/>
	<text x="412.43" y="2430.93" style="font-family:'Helvetica';font-size:100.04px;fill:#000000" text-anchor="end">-1</text>
	<line x1="472.50" y1="1710.07" x2="432.41" y2="1710.07" style="stroke:#000000;stroke-width:5.76"/>
	<text x="412.43" y="1745.12" style="font-family:'Helvetica';font-size:100.04px;fill:#000000" text-anchor="end">-.5</text>
	<line x1="472.50" y1="1024.40" x2="432.41" y2="1024.40" style="stroke:#000000;stroke-width:5.76"/>
	<text x="412.43" y="1059.44" style="font-family:'Helvetica';font-size:100.04px;fill:#000000" text-anchor="end">0</text>
	<line x1="472.50" y1="338.72" x2="432.41" y2="338.72" style="stroke:#000000;stroke-width:5.76"/>
	<text x="412.43" y="373.77" style="font-family:'Helvetica';font-size:100.04px;fill:#000000" text-anchor="end">.5</text>
	<text x="190.78" y="1367.30" style="font-family:'Helvetica';font-size:100.04px;fill:#000000" transform="rotate(-90 190.78,1367.30)" text-anchor="middle">Residuo</text>
	<line x1="472.50" y1="2459.20" x2="4219.16" y2="2459.20" style="stroke:#000000;stroke-width:5.76"/>
	<line x1="708.21" y1="2459.20" x2="708.21" y2="2499.16" style="stroke:#000000;stroke-width:5.76"/>
	<text x="708.21" y="2589.10" style="font-family:'Helvetica';font-size:100.04px;fill:#000000" text-anchor="middle">2000m1</text>
	<line x1="1570.05" y1="2459.20" x2="1570.05" y2="2499.16" style="stroke:#000000;stroke-width:5.76"/>
	<text x="1570.05" y="2589.10" style="font-family:'Helvetica';font-size:100.04px;fill:#000000" text-anchor="middle">2005m1</text>
	<line x1="2432.03" y1="2459.20" x2="2432.03" y2="2499.16" style="stroke:#000000;stroke-width:5.76"/>
	<text x="2432.03" y="2589.10" style="font-family:'Helvetica';font-size:100.04px;fill:#000000" text-anchor="middle">2010m1</text>
	<line x1="3293.87" y1="2459.20" x2="3293.87" y2="2499.16" style="stroke:#000000;stroke-width:5.76"/>
	<text x="3293.87" y="2589.10" style="font-family:'Helvetica';font-size:100.04px;fill:#000000" text-anchor="middle">2015m1</text>
	<line x1="4155.84" y1="2459.20" x2="4155.84" y2="2499.16" style="stroke:#000000;stroke-width:5.76"/>
	<text x="4155.84" y="2589.10" style="font-family:'Helvetica';font-size:100.04px;fill:#000000" text-anchor="middle">2020m1</text>
	<text x="2345.76" y="2729.09" style="font-family:'Helvetica';font-size:100.04px;fill:#000000" text-anchor="middle">Fecha</text>
	<text x="2345.76" y="216.06" style="font-family:'Helvetica';font-size:140.00px;fill:#000000" text-anchor="middle">Innovaciones del Precio del Cobre</text>
</svg>
