<?xml version="1.0" encoding="UTF-8" standalone="no"?>
<!-- This is a Stata 18.0 generated SVG file (http://www.stata.com) -->

<svg version="1.1" width="7.500in" height="4.500in" viewBox="0 0 5400 3240" xmlns="http://www.w3.org/2000/svg" xmlns:xlink="http://www.w3.org/1999/xlink">
	<desc>Stata Graph - Graph</desc>
	<rect x="0" y="0" width="5400" height="3240" style="fill:#FFFFFF;stroke:none"/>
	<rect x="0.00" y="0.00" width="5400.00" height="3240.00" style="fill:#FFFFFF"/>
	<rect x="3.24" y="3.24" width="5393.52" height="3233.52" style="fill:none;stroke:#FFFFFF;stroke-width:6.48"/>
	<rect x="754.65" y="264.77" width="4531.95" height="2614.27" style="fill:#FFFFFF"/>
	<rect x="757.89" y="268.01" width="4525.47" height="2607.79" style="fill:none;stroke:#000000;stroke-width:6.48"/>
	<line x1="754.65" y1="2701.35" x2="819.45" y2="2701.35" style="stroke:#F0F0F0;stroke-width:9.72"/>
	<line x1="851.85" y1="2701.35" x2="916.65" y2="2701.35" style="stroke:#F0F0F0;stroke-width:9.72"/>
	<line x1="949.05" y1="2701.35" x2="1013.85" y2="2701.35" style="stroke:#F0F0F0;stroke-width:9.72"/>
	<line x1="1046.25" y1="2701.35" x2="1111.05" y2="2701.35" style="stroke:#F0F0F0;stroke-width:9.72"/>
	<line x1="1143.45" y1="2701.35" x2="1208.25" y2="2701.35" style="stroke:#F0F0F0;stroke-width:9.72"/>
	<line x1="1240.65" y1="2701.35" x2="1305.45" y2="2701.35" style="stroke:#F0F0F0;stroke-width:9.72"/>
	<line x1="1337.85" y1="2701.35" x2="1402.65" y2="2701.35" style="stroke:#F0F0F0;stroke-width:9.72"/>
	<line x1="1435.05" y1="2701.35" x2="1499.85" y2="2701.35" style="stroke:#F0F0F0;stroke-width:9.72"/>
	<line x1="1532.25" y1="2701.35" x2="1597.05" y2="2701.35" style="stroke:#F0F0F0;stroke-width:9.72"/>
	<line x1="1629.45" y1="2701.35" x2="1694.25" y2="2701.35" style="stroke:#F0F0F0;stroke-width:9.72"/>
	<line x1="1726.65" y1="2701.35" x2="1791.45" y2="2701.35" style="stroke:#F0F0F0;stroke-width:9.72"/>
	<line x1="1823.85" y1="2701.35" x2="1888.65" y2="2701.35" style="stroke:#F0F0F0;stroke-width:9.72"/>
	<line x1="1921.05" y1="2701.35" x2="1985.85" y2="2701.35" style="stroke:#F0F0F0;stroke-width:9.72"/>
	<line x1="2018.25" y1="2701.35" x2="2083.05" y2="2701.35" style="stroke:#F0F0F0;stroke-width:9.72"/>
	<line x1="2115.45" y1="2701.35" x2="2180.25" y2="2701.35" style="stroke:#F0F0F0;stroke-width:9.72"/>
	<line x1="2212.65" y1="2701.35" x2="2277.45" y2="2701.35" style="stroke:#F0F0F0;stroke-width:9.72"/>
	<line x1="2309.85" y1="2701.35" x2="2374.65" y2="2701.35" style="stroke:#F0F0F0;stroke-width:9.72"/>
	<line x1="2407.05" y1="2701.35" x2="2471.85" y2="2701.35" style="stroke:#F0F0F0;stroke-width:9.72"/>
	<line x1="2504.25" y1="2701.35" x2="2569.05" y2="2701.35" style="stroke:#F0F0F0;stroke-width:9.72"/>
	<line x1="2601.45" y1="2701.35" x2="2666.25" y2="2701.35" style="stroke:#F0F0F0;stroke-width:9.72"/>
	<line x1="2698.65" y1="2701.35" x2="2763.45" y2="2701.35" style="stroke:#F0F0F0;stroke-width:9.72"/>
	<line x1="2795.85" y1="2701.35" x2="2860.65" y2="2701.35" style="stroke:#F0F0F0;stroke-width:9.72"/>
	<line x1="2893.05" y1="2701.35" x2="2957.85" y2="2701.35" style="stroke:#F0F0F0;stroke-width:9.72"/>
	<line x1="2990.25" y1="2701.35" x2="3055.05" y2="2701.35" style="stroke:#F0F0F0;stroke-width:9.72"/>
	<line x1="3087.45" y1="2701.35" x2="3152.25" y2="2701.35" style="stroke:#F0F0F0;stroke-width:9.72"/>
	<line x1="3184.65" y1="2701.35" x2="3249.45" y2="2701.35" style="stroke:#F0F0F0;stroke-width:9.72"/>
	<line x1="3281.85" y1="2701.35" x2="3346.65" y2="2701.35" style="stroke:#F0F0F0;stroke-width:9.72"/>
	<line x1="3379.05" y1="2701.35" x2="3443.85" y2="2701.35" style="stroke:#F0F0F0;stroke-width:9.72"/>
	<line x1="3476.25" y1="2701.35" x2="3541.05" y2="2701.35" style="stroke:#F0F0F0;stroke-width:9.72"/>
	<line x1="3573.45" y1="2701.35" x2="3638.25" y2="2701.35" style="stroke:#F0F0F0;stroke-width:9.72"/>
	<line x1="3670.65" y1="2701.35" x2="3735.45" y2="2701.35" style="stroke:#F0F0F0;stroke-width:9.72"/>
	<line x1="3767.85" y1="2701.35" x2="3832.65" y2="2701.35" style="stroke:#F0F0F0;stroke-width:9.72"/>
	<line x1="3865.05" y1="2701.35" x2="3929.85" y2="2701.35" style="stroke:#F0F0F0;stroke-width:9.72"/>
	<line x1="3962.25" y1="2701.35" x2="4027.05" y2="2701.35" style="stroke:#F0F0F0;stroke-width:9.72"/>
	<line x1="4059.45" y1="2701.35" x2="4124.25" y2="2701.35" style="stroke:#F0F0F0;stroke-width:9.72"/>
	<line x1="4156.65" y1="2701.35" x2="4221.45" y2="2701.35" style="stroke:#F0F0F0;stroke-width:9.72"/>
	<line x1="4253.85" y1="2701.35" x2="4318.65" y2="2701.35" style="stroke:#F0F0F0;stroke-width:9.72"/>
	<line x1="4351.05" y1="2701.35" x2="4415.85" y2="2701.35" style="stroke:#F0F0F0;stroke-width:9.72"/>
	<line x1="4448.25" y1="2701.35" x2="4513.05" y2="2701.35" style="stroke:#F0F0F0;stroke-width:9.72"/>
	<line x1="4545.45" y1="2701.35" x2="4610.25" y2="2701.35" style="stroke:#F0F0F0;stroke-width:9.72"/>
	<line x1="4642.65" y1="2701.35" x2="4707.45" y2="2701.35" style="stroke:#F0F0F0;stroke-width:9.72"/>
	<line x1="4739.85" y1="2701.35" x2="4804.65" y2="2701.35" style="stroke:#F0F0F0;stroke-width:9.72"/>
	<line x1="4837.05" y1="2701.35" x2="4901.85" y2="2701.35" style="stroke:#F0F0F0;stroke-width:9.72"/>
	<line x1="4934.25" y1="2701.35" x2="4999.05" y2="2701.35" style="stroke:#F0F0F0;stroke-width:9.72"/>
	<line x1="5031.45" y1="2701.35" x2="5096.25" y2="2701.35" style="stroke:#F0F0F0;stroke-width:9.72"/>
	<line x1="5128.65" y1="2701.35" x2="5193.45" y2="2701.35" style="stroke:#F0F0F0;stroke-width:9.72"/>
	<line x1="5225.85" y1="2701.35" x2="5286.60" y2="2701.35" style="stroke:#F0F0F0;stroke-width:9.72"/>
	<line x1="754.65" y1="2228.18" x2="819.45" y2="2228.18" style="stroke:#F0F0F0;stroke-width:9.72"/>
	<line x1="851.85" y1="2228.18" x2="916.65" y2="2228.18" style="stroke:#F0F0F0;stroke-width:9.72"/>
	<line x1="949.05" y1="2228.18" x2="1013.85" y2="2228.18" style="stroke:#F0F0F0;stroke-width:9.72"/>
	<line x1="1046.25" y1="2228.18" x2="1111.05" y2="2228.18" style="stroke:#F0F0F0;stroke-width:9.72"/>
	<line x1="1143.45" y1="2228.18" x2="1208.25" y2="2228.18" style="stroke:#F0F0F0;stroke-width:9.72"/>
	<line x1="1240.65" y1="2228.18" x2="1305.45" y2="2228.18" style="stroke:#F0F0F0;stroke-width:9.72"/>
	<line x1="1337.85" y1="2228.18" x2="1402.65" y2="2228.18" style="stroke:#F0F0F0;stroke-width:9.72"/>
	<line x1="1435.05" y1="2228.18" x2="1499.85" y2="2228.18" style="stroke:#F0F0F0;stroke-width:9.72"/>
	<line x1="1532.25" y1="2228.18" x2="1597.05" y2="2228.18" style="stroke:#F0F0F0;stroke-width:9.72"/>
	<line x1="1629.45" y1="2228.18" x2="1694.25" y2="2228.18" style="stroke:#F0F0F0;stroke-width:9.72"/>
	<line x1="1726.65" y1="2228.18" x2="1791.45" y2="2228.18" style="stroke:#F0F0F0;stroke-width:9.72"/>
	<line x1="1823.85" y1="2228.18" x2="1888.65" y2="2228.18" style="stroke:#F0F0F0;stroke-width:9.72"/>
	<line x1="1921.05" y1="2228.18" x2="1985.85" y2="2228.18" style="stroke:#F0F0F0;stroke-width:9.72"/>
	<line x1="2018.25" y1="2228.18" x2="2083.05" y2="2228.18" style="stroke:#F0F0F0;stroke-width:9.72"/>
	<line x1="2115.45" y1="2228.18" x2="2180.25" y2="2228.18" style="stroke:#F0F0F0;stroke-width:9.72"/>
	<line x1="2212.65" y1="2228.18" x2="2277.45" y2="2228.18" style="stroke:#F0F0F0;stroke-width:9.72"/>
	<line x1="2309.85" y1="2228.18" x2="2374.65" y2="2228.18" style="stroke:#F0F0F0;stroke-width:9.72"/>
	<line x1="2407.05" y1="2228.18" x2="2471.85" y2="2228.18" style="stroke:#F0F0F0;stroke-width:9.72"/>
	<line x1="2504.25" y1="2228.18" x2="2569.05" y2="2228.18" style="stroke:#F0F0F0;stroke-width:9.72"/>
	<line x1="2601.45" y1="2228.18" x2="2666.25" y2="2228.18" style="stroke:#F0F0F0;stroke-width:9.72"/>
	<line x1="2698.65" y1="2228.18" x2="2763.45" y2="2228.18" style="stroke:#F0F0F0;stroke-width:9.72"/>
	<line x1="2795.85" y1="2228.18" x2="2860.65" y2="2228.18" style="stroke:#F0F0F0;stroke-width:9.72"/>
	<line x1="2893.05" y1="2228.18" x2="2957.85" y2="2228.18" style="stroke:#F0F0F0;stroke-width:9.72"/>
	<line x1="2990.25" y1="2228.18" x2="3055.05" y2="2228.18" style="stroke:#F0F0F0;stroke-width:9.72"/>
	<line x1="3087.45" y1="2228.18" x2="3152.25" y2="2228.18" style="stroke:#F0F0F0;stroke-width:9.72"/>
	<line x1="3184.65" y1="2228.18" x2="3249.45" y2="2228.18" style="stroke:#F0F0F0;stroke-width:9.72"/>
	<line x1="3281.85" y1="2228.18" x2="3346.65" y2="2228.18" style="stroke:#F0F0F0;stroke-width:9.72"/>
	<line x1="3379.05" y1="2228.18" x2="3443.85" y2="2228.18" style="stroke:#F0F0F0;stroke-width:9.72"/>
	<line x1="3476.25" y1="2228.18" x2="3541.05" y2="2228.18" style="stroke:#F0F0F0;stroke-width:9.72"/>
	<line x1="3573.45" y1="2228.18" x2="3638.25" y2="2228.18" style="stroke:#F0F0F0;stroke-width:9.72"/>
	<line x1="3670.65" y1="2228.18" x2="3735.45" y2="2228.18" style="stroke:#F0F0F0;stroke-width:9.72"/>
	<line x1="3767.85" y1="2228.18" x2="3832.65" y2="2228.18" style="stroke:#F0F0F0;stroke-width:9.72"/>
	<line x1="3865.05" y1="2228.18" x2="3929.85" y2="2228.18" style="stroke:#F0F0F0;stroke-width:9.72"/>
	<line x1="3962.25" y1="2228.18" x2="4027.05" y2="2228.18" style="stroke:#F0F0F0;stroke-width:9.72"/>
	<line x1="4059.45" y1="2228.18" x2="4124.25" y2="2228.18" style="stroke:#F0F0F0;stroke-width:9.72"/>
	<line x1="4156.65" y1="2228.18" x2="4221.45" y2="2228.18" style="stroke:#F0F0F0;stroke-width:9.72"/>
	<line x1="4253.85" y1="2228.18" x2="4318.65" y2="2228.18" style="stroke:#F0F0F0;stroke-width:9.72"/>
	<line x1="4351.05" y1="2228.18" x2="4415.85" y2="2228.18" style="stroke:#F0F0F0;stroke-width:9.72"/>
	<line x1="4448.25" y1="2228.18" x2="4513.05" y2="2228.18" style="stroke:#F0F0F0;stroke-width:9.72"/>
	<line x1="4545.45" y1="2228.18" x2="4610.25" y2="2228.18" style="stroke:#F0F0F0;stroke-width:9.72"/>
	<line x1="4642.65" y1="2228.18" x2="4707.45" y2="2228.18" style="stroke:#F0F0F0;stroke-width:9.72"/>
	<line x1="4739.85" y1="2228.18" x2="4804.65" y2="2228.18" style="stroke:#F0F0F0;stroke-width:9.72"/>
	<line x1="4837.05" y1="2228.18" x2="4901.85" y2="2228.18" style="stroke:#F0F0F0;stroke-width:9.72"/>
	<line x1="4934.25" y1="2228.18" x2="4999.05" y2="2228.18" style="stroke:#F0F0F0;stroke-width:9.72"/>
	<line x1="5031.45" y1="2228.18" x2="5096.25" y2="2228.18" style="stroke:#F0F0F0;stroke-width:9.72"/>
	<line x1="5128.65" y1="2228.18" x2="5193.45" y2="2228.18" style="stroke:#F0F0F0;stroke-width:9.72"/>
	<line x1="5225.85" y1="2228.18" x2="5286.60" y2="2228.18" style="stroke:#F0F0F0;stroke-width:9.72"/>
	<line x1="754.65" y1="1755.17" x2="819.45" y2="1755.17" style="stroke:#F0F0F0;stroke-width:9.72"/>
	<line x1="851.85" y1="1755.17" x2="916.65" y2="1755.17" style="stroke:#F0F0F0;stroke-width:9.72"/>
	<line x1="949.05" y1="1755.17" x2="1013.85" y2="1755.17" style="stroke:#F0F0F0;stroke-width:9.72"/>
	<line x1="1046.25" y1="1755.17" x2="1111.05" y2="1755.17" style="stroke:#F0F0F0;stroke-width:9.72"/>
	<line x1="1143.45" y1="1755.17" x2="1208.25" y2="1755.17" style="stroke:#F0F0F0;stroke-width:9.72"/>
	<line x1="1240.65" y1="1755.17" x2="1305.45" y2="1755.17" style="stroke:#F0F0F0;stroke-width:9.72"/>
	<line x1="1337.85" y1="1755.17" x2="1402.65" y2="1755.17" style="stroke:#F0F0F0;stroke-width:9.72"/>
	<line x1="1435.05" y1="1755.17" x2="1499.85" y2="1755.17" style="stroke:#F0F0F0;stroke-width:9.72"/>
	<line x1="1532.25" y1="1755.17" x2="1597.05" y2="1755.17" style="stroke:#F0F0F0;stroke-width:9.72"/>
	<line x1="1629.45" y1="1755.17" x2="1694.25" y2="1755.17" style="stroke:#F0F0F0;stroke-width:9.72"/>
	<line x1="1726.65" y1="1755.17" x2="1791.45" y2="1755.17" style="stroke:#F0F0F0;stroke-width:9.72"/>
	<line x1="1823.85" y1="1755.17" x2="1888.65" y2="1755.17" style="stroke:#F0F0F0;stroke-width:9.72"/>
	<line x1="1921.05" y1="1755.17" x2="1985.85" y2="1755.17" style="stroke:#F0F0F0;stroke-width:9.72"/>
	<line x1="2018.25" y1="1755.17" x2="2083.05" y2="1755.17" style="stroke:#F0F0F0;stroke-width:9.72"/>
	<line x1="2115.45" y1="1755.17" x2="2180.25" y2="1755.17" style="stroke:#F0F0F0;stroke-width:9.72"/>
	<line x1="2212.65" y1="1755.17" x2="2277.45" y2="1755.17" style="stroke:#F0F0F0;stroke-width:9.72"/>
	<line x1="2309.85" y1="1755.17" x2="2374.65" y2="1755.17" style="stroke:#F0F0F0;stroke-width:9.72"/>
	<line x1="2407.05" y1="1755.17" x2="2471.85" y2="1755.17" style="stroke:#F0F0F0;stroke-width:9.72"/>
	<line x1="2504.25" y1="1755.17" x2="2569.05" y2="1755.17" style="stroke:#F0F0F0;stroke-width:9.72"/>
	<line x1="2601.45" y1="1755.17" x2="2666.25" y2="1755.17" style="stroke:#F0F0F0;stroke-width:9.72"/>
	<line x1="2698.65" y1="1755.17" x2="2763.45" y2="1755.17" style="stroke:#F0F0F0;stroke-width:9.72"/>
	<line x1="2795.85" y1="1755.17" x2="2860.65" y2="1755.17" style="stroke:#F0F0F0;stroke-width:9.72"/>
	<line x1="2893.05" y1="1755.17" x2="2957.85" y2="1755.17" style="stroke:#F0F0F0;stroke-width:9.72"/>
	<line x1="2990.25" y1="1755.17" x2="3055.05" y2="1755.17" style="stroke:#F0F0F0;stroke-width:9.72"/>
	<line x1="3087.45" y1="1755.17" x2="3152.25" y2="1755.17" style="stroke:#F0F0F0;stroke-width:9.72"/>
	<line x1="3184.65" y1="1755.17" x2="3249.45" y2="1755.17" style="stroke:#F0F0F0;stroke-width:9.72"/>
	<line x1="3281.85" y1="1755.17" x2="3346.65" y2="1755.17" style="stroke:#F0F0F0;stroke-width:9.72"/>
	<line x1="3379.05" y1="1755.17" x2="3443.85" y2="1755.17" style="stroke:#F0F0F0;stroke-width:9.72"/>
	<line x1="3476.25" y1="1755.17" x2="3541.05" y2="1755.17" style="stroke:#F0F0F0;stroke-width:9.72"/>
	<line x1="3573.45" y1="1755.17" x2="3638.25" y2="1755.17" style="stroke:#F0F0F0;stroke-width:9.72"/>
	<line x1="3670.65" y1="1755.17" x2="3735.45" y2="1755.17" style="stroke:#F0F0F0;stroke-width:9.72"/>
	<line x1="3767.85" y1="1755.17" x2="3832.65" y2="1755.17" style="stroke:#F0F0F0;stroke-width:9.72"/>
	<line x1="3865.05" y1="1755.17" x2="3929.85" y2="1755.17" style="stroke:#F0F0F0;stroke-width:9.72"/>
	<line x1="3962.25" y1="1755.17" x2="4027.05" y2="1755.17" style="stroke:#F0F0F0;stroke-width:9.72"/>
	<line x1="4059.45" y1="1755.17" x2="4124.25" y2="1755.17" style="stroke:#F0F0F0;stroke-width:9.72"/>
	<line x1="4156.65" y1="1755.17" x2="4221.45" y2="1755.17" style="stroke:#F0F0F0;stroke-width:9.72"/>
	<line x1="4253.85" y1="1755.17" x2="4318.65" y2="1755.17" style="stroke:#F0F0F0;stroke-width:9.72"/>
	<line x1="4351.05" y1="1755.17" x2="4415.85" y2="1755.17" style="stroke:#F0F0F0;stroke-width:9.72"/>
	<line x1="4448.25" y1="1755.17" x2="4513.05" y2="1755.17" style="stroke:#F0F0F0;stroke-width:9.72"/>
	<line x1="4545.45" y1="1755.17" x2="4610.25" y2="1755.17" style="stroke:#F0F0F0;stroke-width:9.72"/>
	<line x1="4642.65" y1="1755.17" x2="4707.45" y2="1755.17" style="stroke:#F0F0F0;stroke-width:9.72"/>
	<line x1="4739.85" y1="1755.17" x2="4804.65" y2="1755.17" style="stroke:#F0F0F0;stroke-width:9.72"/>
	<line x1="4837.05" y1="1755.17" x2="4901.85" y2="1755.17" style="stroke:#F0F0F0;stroke-width:9.72"/>
	<line x1="4934.25" y1="1755.17" x2="4999.05" y2="1755.17" style="stroke:#F0F0F0;stroke-width:9.72"/>
	<line x1="5031.45" y1="1755.17" x2="5096.25" y2="1755.17" style="stroke:#F0F0F0;stroke-width:9.72"/>
	<line x1="5128.65" y1="1755.17" x2="5193.45" y2="1755.17" style="stroke:#F0F0F0;stroke-width:9.72"/>
	<line x1="5225.85" y1="1755.17" x2="5286.60" y2="1755.17" style="stroke:#F0F0F0;stroke-width:9.72"/>
	<line x1="754.65" y1="1282.16" x2="819.45" y2="1282.16" style="stroke:#F0F0F0;stroke-width:9.72"/>
	<line x1="851.85" y1="1282.16" x2="916.65" y2="1282.16" style="stroke:#F0F0F0;stroke-width:9.72"/>
	<line x1="949.05" y1="1282.16" x2="1013.85" y2="1282.16" style="stroke:#F0F0F0;stroke-width:9.72"/>
	<line x1="1046.25" y1="1282.16" x2="1111.05" y2="1282.16" style="stroke:#F0F0F0;stroke-width:9.72"/>
	<line x1="1143.45" y1="1282.16" x2="1208.25" y2="1282.16" style="stroke:#F0F0F0;stroke-width:9.72"/>
	<line x1="1240.65" y1="1282.16" x2="1305.45" y2="1282.16" style="stroke:#F0F0F0;stroke-width:9.72"/>
	<line x1="1337.85" y1="1282.16" x2="1402.65" y2="1282.16" style="stroke:#F0F0F0;stroke-width:9.72"/>
	<line x1="1435.05" y1="1282.16" x2="1499.85" y2="1282.16" style="stroke:#F0F0F0;stroke-width:9.72"/>
	<line x1="1532.25" y1="1282.16" x2="1597.05" y2="1282.16" style="stroke:#F0F0F0;stroke-width:9.72"/>
	<line x1="1629.45" y1="1282.16" x2="1694.25" y2="1282.16" style="stroke:#F0F0F0;stroke-width:9.72"/>
	<line x1="1726.65" y1="1282.16" x2="1791.45" y2="1282.16" style="stroke:#F0F0F0;stroke-width:9.72"/>
	<line x1="1823.85" y1="1282.16" x2="1888.65" y2="1282.16" style="stroke:#F0F0F0;stroke-width:9.72"/>
	<line x1="1921.05" y1="1282.16" x2="1985.85" y2="1282.16" style="stroke:#F0F0F0;stroke-width:9.72"/>
	<line x1="2018.25" y1="1282.16" x2="2083.05" y2="1282.16" style="stroke:#F0F0F0;stroke-width:9.72"/>
	<line x1="2115.45" y1="1282.16" x2="2180.25" y2="1282.16" style="stroke:#F0F0F0;stroke-width:9.72"/>
	<line x1="2212.65" y1="1282.16" x2="2277.45" y2="1282.16" style="stroke:#F0F0F0;stroke-width:9.72"/>
	<line x1="2309.85" y1="1282.16" x2="2374.65" y2="1282.16" style="stroke:#F0F0F0;stroke-width:9.72"/>
	<line x1="2407.05" y1="1282.16" x2="2471.85" y2="1282.16" style="stroke:#F0F0F0;stroke-width:9.72"/>
	<line x1="2504.25" y1="1282.16" x2="2569.05" y2="1282.16" style="stroke:#F0F0F0;stroke-width:9.72"/>
	<line x1="2601.45" y1="1282.16" x2="2666.25" y2="1282.16" style="stroke:#F0F0F0;stroke-width:9.72"/>
	<line x1="2698.65" y1="1282.16" x2="2763.45" y2="1282.16" style="stroke:#F0F0F0;stroke-width:9.72"/>
	<line x1="2795.85" y1="1282.16" x2="2860.65" y2="1282.16" style="stroke:#F0F0F0;stroke-width:9.72"/>
	<line x1="2893.05" y1="1282.16" x2="2957.85" y2="1282.16" style="stroke:#F0F0F0;stroke-width:9.72"/>
	<line x1="2990.25" y1="1282.16" x2="3055.05" y2="1282.16" style="stroke:#F0F0F0;stroke-width:9.72"/>
	<line x1="3087.45" y1="1282.16" x2="3152.25" y2="1282.16" style="stroke:#F0F0F0;stroke-width:9.72"/>
	<line x1="3184.65" y1="1282.16" x2="3249.45" y2="1282.16" style="stroke:#F0F0F0;stroke-width:9.72"/>
	<line x1="3281.85" y1="1282.16" x2="3346.65" y2="1282.16" style="stroke:#F0F0F0;stroke-width:9.72"/>
	<line x1="3379.05" y1="1282.16" x2="3443.85" y2="1282.16" style="stroke:#F0F0F0;stroke-width:9.72"/>
	<line x1="3476.25" y1="1282.16" x2="3541.05" y2="1282.16" style="stroke:#F0F0F0;stroke-width:9.72"/>
	<line x1="3573.45" y1="1282.16" x2="3638.25" y2="1282.16" style="stroke:#F0F0F0;stroke-width:9.72"/>
	<line x1="3670.65" y1="1282.16" x2="3735.45" y2="1282.16" style="stroke:#F0F0F0;stroke-width:9.72"/>
	<line x1="3767.85" y1="1282.16" x2="3832.65" y2="1282.16" style="stroke:#F0F0F0;stroke-width:9.72"/>
	<line x1="3865.05" y1="1282.16" x2="3929.85" y2="1282.16" style="stroke:#F0F0F0;stroke-width:9.72"/>
	<line x1="3962.25" y1="1282.16" x2="4027.05" y2="1282.16" style="stroke:#F0F0F0;stroke-width:9.72"/>
	<line x1="4059.45" y1="1282.16" x2="4124.25" y2="1282.16" style="stroke:#F0F0F0;stroke-width:9.72"/>
	<line x1="4156.65" y1="1282.16" x2="4221.45" y2="1282.16" style="stroke:#F0F0F0;stroke-width:9.72"/>
	<line x1="4253.85" y1="1282.16" x2="4318.65" y2="1282.16" style="stroke:#F0F0F0;stroke-width:9.72"/>
	<line x1="4351.05" y1="1282.16" x2="4415.85" y2="1282.16" style="stroke:#F0F0F0;stroke-width:9.72"/>
	<line x1="4448.25" y1="1282.16" x2="4513.05" y2="1282.16" style="stroke:#F0F0F0;stroke-width:9.72"/>
	<line x1="4545.45" y1="1282.16" x2="4610.25" y2="1282.16" style="stroke:#F0F0F0;stroke-width:9.72"/>
	<line x1="4642.65" y1="1282.16" x2="4707.45" y2="1282.16" style="stroke:#F0F0F0;stroke-width:9.72"/>
	<line x1="4739.85" y1="1282.16" x2="4804.65" y2="1282.16" style="stroke:#F0F0F0;stroke-width:9.72"/>
	<line x1="4837.05" y1="1282.16" x2="4901.85" y2="1282.16" style="stroke:#F0F0F0;stroke-width:9.72"/>
	<line x1="4934.25" y1="1282.16" x2="4999.05" y2="1282.16" style="stroke:#F0F0F0;stroke-width:9.72"/>
	<line x1="5031.45" y1="1282.16" x2="5096.25" y2="1282.16" style="stroke:#F0F0F0;stroke-width:9.72"/>
	<line x1="5128.65" y1="1282.16" x2="5193.45" y2="1282.16" style="stroke:#F0F0F0;stroke-width:9.72"/>
	<line x1="5225.85" y1="1282.16" x2="5286.60" y2="1282.16" style="stroke:#F0F0F0;stroke-width:9.72"/>
	<line x1="754.65" y1="809.16" x2="819.45" y2="809.16" style="stroke:#F0F0F0;stroke-width:9.72"/>
	<line x1="851.85" y1="809.16" x2="916.65" y2="809.16" style="stroke:#F0F0F0;stroke-width:9.72"/>
	<line x1="949.05" y1="809.16" x2="1013.85" y2="809.16" style="stroke:#F0F0F0;stroke-width:9.72"/>
	<line x1="1046.25" y1="809.16" x2="1111.05" y2="809.16" style="stroke:#F0F0F0;stroke-width:9.72"/>
	<line x1="1143.45" y1="809.16" x2="1208.25" y2="809.16" style="stroke:#F0F0F0;stroke-width:9.72"/>
	<line x1="1240.65" y1="809.16" x2="1305.45" y2="809.16" style="stroke:#F0F0F0;stroke-width:9.72"/>
	<line x1="1337.85" y1="809.16" x2="1402.65" y2="809.16" style="stroke:#F0F0F0;stroke-width:9.72"/>
	<line x1="1435.05" y1="809.16" x2="1499.85" y2="809.16" style="stroke:#F0F0F0;stroke-width:9.72"/>
	<line x1="1532.25" y1="809.16" x2="1597.05" y2="809.16" style="stroke:#F0F0F0;stroke-width:9.72"/>
	<line x1="1629.45" y1="809.16" x2="1694.25" y2="809.16" style="stroke:#F0F0F0;stroke-width:9.72"/>
	<line x1="1726.65" y1="809.16" x2="1791.45" y2="809.16" style="stroke:#F0F0F0;stroke-width:9.72"/>
	<line x1="1823.85" y1="809.16" x2="1888.65" y2="809.16" style="stroke:#F0F0F0;stroke-width:9.72"/>
	<line x1="1921.05" y1="809.16" x2="1985.85" y2="809.16" style="stroke:#F0F0F0;stroke-width:9.72"/>
	<line x1="2018.25" y1="809.16" x2="2083.05" y2="809.16" style="stroke:#F0F0F0;stroke-width:9.72"/>
	<line x1="2115.45" y1="809.16" x2="2180.25" y2="809.16" style="stroke:#F0F0F0;stroke-width:9.72"/>
	<line x1="2212.65" y1="809.16" x2="2277.45" y2="809.16" style="stroke:#F0F0F0;stroke-width:9.72"/>
	<line x1="2309.85" y1="809.16" x2="2374.65" y2="809.16" style="stroke:#F0F0F0;stroke-width:9.72"/>
	<line x1="2407.05" y1="809.16" x2="2471.85" y2="809.16" style="stroke:#F0F0F0;stroke-width:9.72"/>
	<line x1="2504.25" y1="809.16" x2="2569.05" y2="809.16" style="stroke:#F0F0F0;stroke-width:9.72"/>
	<line x1="2601.45" y1="809.16" x2="2666.25" y2="809.16" style="stroke:#F0F0F0;stroke-width:9.72"/>
	<line x1="2698.65" y1="809.16" x2="2763.45" y2="809.16" style="stroke:#F0F0F0;stroke-width:9.72"/>
	<line x1="2795.85" y1="809.16" x2="2860.65" y2="809.16" style="stroke:#F0F0F0;stroke-width:9.72"/>
	<line x1="2893.05" y1="809.16" x2="2957.85" y2="809.16" style="stroke:#F0F0F0;stroke-width:9.72"/>
	<line x1="2990.25" y1="809.16" x2="3055.05" y2="809.16" style="stroke:#F0F0F0;stroke-width:9.72"/>
	<line x1="3087.45" y1="809.16" x2="3152.25" y2="809.16" style="stroke:#F0F0F0;stroke-width:9.72"/>
	<line x1="3184.65" y1="809.16" x2="3249.45" y2="809.16" style="stroke:#F0F0F0;stroke-width:9.72"/>
	<line x1="3281.85" y1="809.16" x2="3346.65" y2="809.16" style="stroke:#F0F0F0;stroke-width:9.72"/>
	<line x1="3379.05" y1="809.16" x2="3443.85" y2="809.16" style="stroke:#F0F0F0;stroke-width:9.72"/>
	<line x1="3476.25" y1="809.16" x2="3541.05" y2="809.16" style="stroke:#F0F0F0;stroke-width:9.72"/>
	<line x1="3573.45" y1="809.16" x2="3638.25" y2="809.16" style="stroke:#F0F0F0;stroke-width:9.72"/>
	<line x1="3670.65" y1="809.16" x2="3735.45" y2="809.16" style="stroke:#F0F0F0;stroke-width:9.72"/>
	<line x1="3767.85" y1="809.16" x2="3832.65" y2="809.16" style="stroke:#F0F0F0;stroke-width:9.72"/>
	<line x1="3865.05" y1="809.16" x2="3929.85" y2="809.16" style="stroke:#F0F0F0;stroke-width:9.72"/>
	<line x1="3962.25" y1="809.16" x2="4027.05" y2="809.16" style="stroke:#F0F0F0;stroke-width:9.72"/>
	<line x1="4059.45" y1="809.16" x2="4124.25" y2="809.16" style="stroke:#F0F0F0;stroke-width:9.72"/>
	<line x1="4156.65" y1="809.16" x2="4221.45" y2="809.16" style="stroke:#F0F0F0;stroke-width:9.72"/>
	<line x1="4253.85" y1="809.16" x2="4318.65" y2="809.16" style="stroke:#F0F0F0;stroke-width:9.72"/>
	<line x1="4351.05" y1="809.16" x2="4415.85" y2="809.16" style="stroke:#F0F0F0;stroke-width:9.72"/>
	<line x1="4448.25" y1="809.16" x2="4513.05" y2="809.16" style="stroke:#F0F0F0;stroke-width:9.72"/>
	<line x1="4545.45" y1="809.16" x2="4610.25" y2="809.16" style="stroke:#F0F0F0;stroke-width:9.72"/>
	<line x1="4642.65" y1="809.16" x2="4707.45" y2="809.16" style="stroke:#F0F0F0;stroke-width:9.72"/>
	<line x1="4739.85" y1="809.16" x2="4804.65" y2="809.16" style="stroke:#F0F0F0;stroke-width:9.72"/>
	<line x1="4837.05" y1="809.16" x2="4901.85" y2="809.16" style="stroke:#F0F0F0;stroke-width:9.72"/>
	<line x1="4934.25" y1="809.16" x2="4999.05" y2="809.16" style="stroke:#F0F0F0;stroke-width:9.72"/>
	<line x1="5031.45" y1="809.16" x2="5096.25" y2="809.16" style="stroke:#F0F0F0;stroke-width:9.72"/>
	<line x1="5128.65" y1="809.16" x2="5193.45" y2="809.16" style="stroke:#F0F0F0;stroke-width:9.72"/>
	<line x1="5225.85" y1="809.16" x2="5286.60" y2="809.16" style="stroke:#F0F0F0;stroke-width:9.72"/>
	<line x1="754.65" y1="335.98" x2="819.45" y2="335.98" style="stroke:#F0F0F0;stroke-width:9.72"/>
	<line x1="851.85" y1="335.98" x2="916.65" y2="335.98" style="stroke:#F0F0F0;stroke-width:9.72"/>
	<line x1="949.05" y1="335.98" x2="1013.85" y2="335.98" style="stroke:#F0F0F0;stroke-width:9.72"/>
	<line x1="1046.25" y1="335.98" x2="1111.05" y2="335.98" style="stroke:#F0F0F0;stroke-width:9.72"/>
	<line x1="1143.45" y1="335.98" x2="1208.25" y2="335.98" style="stroke:#F0F0F0;stroke-width:9.72"/>
	<line x1="1240.65" y1="335.98" x2="1305.45" y2="335.98" style="stroke:#F0F0F0;stroke-width:9.72"/>
	<line x1="1337.85" y1="335.98" x2="1402.65" y2="335.98" style="stroke:#F0F0F0;stroke-width:9.72"/>
	<line x1="1435.05" y1="335.98" x2="1499.85" y2="335.98" style="stroke:#F0F0F0;stroke-width:9.72"/>
	<line x1="1532.25" y1="335.98" x2="1597.05" y2="335.98" style="stroke:#F0F0F0;stroke-width:9.72"/>
	<line x1="1629.45" y1="335.98" x2="1694.25" y2="335.98" style="stroke:#F0F0F0;stroke-width:9.72"/>
	<line x1="1726.65" y1="335.98" x2="1791.45" y2="335.98" style="stroke:#F0F0F0;stroke-width:9.72"/>
	<line x1="1823.85" y1="335.98" x2="1888.65" y2="335.98" style="stroke:#F0F0F0;stroke-width:9.72"/>
	<line x1="1921.05" y1="335.98" x2="1985.85" y2="335.98" style="stroke:#F0F0F0;stroke-width:9.72"/>
	<line x1="2018.25" y1="335.98" x2="2083.05" y2="335.98" style="stroke:#F0F0F0;stroke-width:9.72"/>
	<line x1="2115.45" y1="335.98" x2="2180.25" y2="335.98" style="stroke:#F0F0F0;stroke-width:9.72"/>
	<line x1="2212.65" y1="335.98" x2="2277.45" y2="335.98" style="stroke:#F0F0F0;stroke-width:9.72"/>
	<line x1="2309.85" y1="335.98" x2="2374.65" y2="335.98" style="stroke:#F0F0F0;stroke-width:9.72"/>
	<line x1="2407.05" y1="335.98" x2="2471.85" y2="335.98" style="stroke:#F0F0F0;stroke-width:9.72"/>
	<line x1="2504.25" y1="335.98" x2="2569.05" y2="335.98" style="stroke:#F0F0F0;stroke-width:9.72"/>
	<line x1="2601.45" y1="335.98" x2="2666.25" y2="335.98" style="stroke:#F0F0F0;stroke-width:9.72"/>
	<line x1="2698.65" y1="335.98" x2="2763.45" y2="335.98" style="stroke:#F0F0F0;stroke-width:9.72"/>
	<line x1="2795.85" y1="335.98" x2="2860.65" y2="335.98" style="stroke:#F0F0F0;stroke-width:9.72"/>
	<line x1="2893.05" y1="335.98" x2="2957.85" y2="335.98" style="stroke:#F0F0F0;stroke-width:9.72"/>
	<line x1="2990.25" y1="335.98" x2="3055.05" y2="335.98" style="stroke:#F0F0F0;stroke-width:9.72"/>
	<line x1="3087.45" y1="335.98" x2="3152.25" y2="335.98" style="stroke:#F0F0F0;stroke-width:9.72"/>
	<line x1="3184.65" y1="335.98" x2="3249.45" y2="335.98" style="stroke:#F0F0F0;stroke-width:9.72"/>
	<line x1="3281.85" y1="335.98" x2="3346.65" y2="335.98" style="stroke:#F0F0F0;stroke-width:9.72"/>
	<line x1="3379.05" y1="335.98" x2="3443.85" y2="335.98" style="stroke:#F0F0F0;stroke-width:9.72"/>
	<line x1="3476.25" y1="335.98" x2="3541.05" y2="335.98" style="stroke:#F0F0F0;stroke-width:9.72"/>
	<line x1="3573.45" y1="335.98" x2="3638.25" y2="335.98" style="stroke:#F0F0F0;stroke-width:9.72"/>
	<line x1="3670.65" y1="335.98" x2="3735.45" y2="335.98" style="stroke:#F0F0F0;stroke-width:9.72"/>
	<line x1="3767.85" y1="335.98" x2="3832.65" y2="335.98" style="stroke:#F0F0F0;stroke-width:9.72"/>
	<line x1="3865.05" y1="335.98" x2="3929.85" y2="335.98" style="stroke:#F0F0F0;stroke-width:9.72"/>
	<line x1="3962.25" y1="335.98" x2="4027.05" y2="335.98" style="stroke:#F0F0F0;stroke-width:9.72"/>
	<line x1="4059.45" y1="335.98" x2="4124.25" y2="335.98" style="stroke:#F0F0F0;stroke-width:9.72"/>
	<line x1="4156.65" y1="335.98" x2="4221.45" y2="335.98" style="stroke:#F0F0F0;stroke-width:9.72"/>
	<line x1="4253.85" y1="335.98" x2="4318.65" y2="335.98" style="stroke:#F0F0F0;stroke-width:9.72"/>
	<line x1="4351.05" y1="335.98" x2="4415.85" y2="335.98" style="stroke:#F0F0F0;stroke-width:9.72"/>
	<line x1="4448.25" y1="335.98" x2="4513.05" y2="335.98" style="stroke:#F0F0F0;stroke-width:9.72"/>
	<line x1="4545.45" y1="335.98" x2="4610.25" y2="335.98" style="stroke:#F0F0F0;stroke-width:9.72"/>
	<line x1="4642.65" y1="335.98" x2="4707.45" y2="335.98" style="stroke:#F0F0F0;stroke-width:9.72"/>
	<line x1="4739.85" y1="335.98" x2="4804.65" y2="335.98" style="stroke:#F0F0F0;stroke-width:9.72"/>
	<line x1="4837.05" y1="335.98" x2="4901.85" y2="335.98" style="stroke:#F0F0F0;stroke-width:9.72"/>
	<line x1="4934.25" y1="335.98" x2="4999.05" y2="335.98" style="stroke:#F0F0F0;stroke-width:9.72"/>
	<line x1="5031.45" y1="335.98" x2="5096.25" y2="335.98" style="stroke:#F0F0F0;stroke-width:9.72"/>
	<line x1="5128.65" y1="335.98" x2="5193.45" y2="335.98" style="stroke:#F0F0F0;stroke-width:9.72"/>
	<line x1="5225.85" y1="335.98" x2="5286.60" y2="335.98" style="stroke:#F0F0F0;stroke-width:9.72"/>
	<line x1="825.86" y1="2879.04" x2="825.86" y2="2814.24" style="stroke:#F0F0F0;stroke-width:9.72"/>
	<line x1="825.86" y1="2781.84" x2="825.86" y2="2717.04" style="stroke:#F0F0F0;stroke-width:9.72"/>
	<line x1="825.86" y1="2684.64" x2="825.86" y2="2619.84" style="stroke:#F0F0F0;stroke-width:9.72"/>
	<line x1="825.86" y1="2587.44" x2="825.86" y2="2522.64" style="stroke:#F0F0F0;stroke-width:9.72"/>
	<line x1="825.86" y1="2490.24" x2="825.86" y2="2425.44" style="stroke:#F0F0F0;stroke-width:9.72"/>
	<line x1="825.86" y1="2393.04" x2="825.86" y2="2328.24" style="stroke:#F0F0F0;stroke-width:9.72"/>
	<line x1="825.86" y1="2295.84" x2="825.86" y2="2231.04" style="stroke:#F0F0F0;stroke-width:9.72"/>
	<line x1="825.86" y1="2198.64" x2="825.86" y2="2133.84" style="stroke:#F0F0F0;stroke-width:9.72"/>
	<line x1="825.86" y1="2101.44" x2="825.86" y2="2036.64" style="stroke:#F0F0F0;stroke-width:9.72"/>
	<line x1="825.86" y1="2004.24" x2="825.86" y2="1939.44" style="stroke:#F0F0F0;stroke-width:9.72"/>
	<line x1="825.86" y1="1907.04" x2="825.86" y2="1842.24" style="stroke:#F0F0F0;stroke-width:9.72"/>
	<line x1="825.86" y1="1809.84" x2="825.86" y2="1745.04" style="stroke:#F0F0F0;stroke-width:9.72"/>
	<line x1="825.86" y1="1712.64" x2="825.86" y2="1647.84" style="stroke:#F0F0F0;stroke-width:9.72"/>
	<line x1="825.86" y1="1615.44" x2="825.86" y2="1550.64" style="stroke:#F0F0F0;stroke-width:9.72"/>
	<line x1="825.86" y1="1518.24" x2="825.86" y2="1453.44" style="stroke:#F0F0F0;stroke-width:9.72"/>
	<line x1="825.86" y1="1421.04" x2="825.86" y2="1356.24" style="stroke:#F0F0F0;stroke-width:9.72"/>
	<line x1="825.86" y1="1323.84" x2="825.86" y2="1259.04" style="stroke:#F0F0F0;stroke-width:9.72"/>
	<line x1="825.86" y1="1226.64" x2="825.86" y2="1161.84" style="stroke:#F0F0F0;stroke-width:9.72"/>
	<line x1="825.86" y1="1129.44" x2="825.86" y2="1064.64" style="stroke:#F0F0F0;stroke-width:9.72"/>
	<line x1="825.86" y1="1032.24" x2="825.86" y2="967.44" style="stroke:#F0F0F0;stroke-width:9.72"/>
	<line x1="825.86" y1="935.04" x2="825.86" y2="870.24" style="stroke:#F0F0F0;stroke-width:9.72"/>
	<line x1="825.86" y1="837.84" x2="825.86" y2="773.04" style="stroke:#F0F0F0;stroke-width:9.72"/>
	<line x1="825.86" y1="740.64" x2="825.86" y2="675.84" style="stroke:#F0F0F0;stroke-width:9.72"/>
	<line x1="825.86" y1="643.44" x2="825.86" y2="578.64" style="stroke:#F0F0F0;stroke-width:9.72"/>
	<line x1="825.86" y1="546.24" x2="825.86" y2="481.44" style="stroke:#F0F0F0;stroke-width:9.72"/>
	<line x1="825.86" y1="449.04" x2="825.86" y2="384.24" style="stroke:#F0F0F0;stroke-width:9.72"/>
	<line x1="825.86" y1="351.84" x2="825.86" y2="287.04" style="stroke:#F0F0F0;stroke-width:9.72"/>
	<line x1="1923.24" y1="2879.04" x2="1923.24" y2="2814.24" style="stroke:#F0F0F0;stroke-width:9.72"/>
	<line x1="1923.24" y1="2781.84" x2="1923.24" y2="2717.04" style="stroke:#F0F0F0;stroke-width:9.72"/>
	<line x1="1923.24" y1="2684.64" x2="1923.24" y2="2619.84" style="stroke:#F0F0F0;stroke-width:9.72"/>
	<line x1="1923.24" y1="2587.44" x2="1923.24" y2="2522.64" style="stroke:#F0F0F0;stroke-width:9.72"/>
	<line x1="1923.24" y1="2490.24" x2="1923.24" y2="2425.44" style="stroke:#F0F0F0;stroke-width:9.72"/>
	<line x1="1923.24" y1="2393.04" x2="1923.24" y2="2328.24" style="stroke:#F0F0F0;stroke-width:9.72"/>
	<line x1="1923.24" y1="2295.84" x2="1923.24" y2="2231.04" style="stroke:#F0F0F0;stroke-width:9.72"/>
	<line x1="1923.24" y1="2198.64" x2="1923.24" y2="2133.84" style="stroke:#F0F0F0;stroke-width:9.72"/>
	<line x1="1923.24" y1="2101.44" x2="1923.24" y2="2036.64" style="stroke:#F0F0F0;stroke-width:9.72"/>
	<line x1="1923.24" y1="2004.24" x2="1923.24" y2="1939.44" style="stroke:#F0F0F0;stroke-width:9.72"/>
	<line x1="1923.24" y1="1907.04" x2="1923.24" y2="1842.24" style="stroke:#F0F0F0;stroke-width:9.72"/>
	<line x1="1923.24" y1="1809.84" x2="1923.24" y2="1745.04" style="stroke:#F0F0F0;stroke-width:9.72"/>
	<line x1="1923.24" y1="1712.64" x2="1923.24" y2="1647.84" style="stroke:#F0F0F0;stroke-width:9.72"/>
	<line x1="1923.24" y1="1615.44" x2="1923.24" y2="1550.64" style="stroke:#F0F0F0;stroke-width:9.72"/>
	<line x1="1923.24" y1="1518.24" x2="1923.24" y2="1453.44" style="stroke:#F0F0F0;stroke-width:9.72"/>
	<line x1="1923.24" y1="1421.04" x2="1923.24" y2="1356.24" style="stroke:#F0F0F0;stroke-width:9.72"/>
	<line x1="1923.24" y1="1323.84" x2="1923.24" y2="1259.04" style="stroke:#F0F0F0;stroke-width:9.72"/>
	<line x1="1923.24" y1="1226.64" x2="1923.24" y2="1161.84" style="stroke:#F0F0F0;stroke-width:9.72"/>
	<line x1="1923.24" y1="1129.44" x2="1923.24" y2="1064.64" style="stroke:#F0F0F0;stroke-width:9.72"/>
	<line x1="1923.24" y1="1032.24" x2="1923.24" y2="967.44" style="stroke:#F0F0F0;stroke-width:9.72"/>
	<line x1="1923.24" y1="935.04" x2="1923.24" y2="870.24" style="stroke:#F0F0F0;stroke-width:9.72"/>
	<line x1="1923.24" y1="837.84" x2="1923.24" y2="773.04" style="stroke:#F0F0F0;stroke-width:9.72"/>
	<line x1="1923.24" y1="740.64" x2="1923.24" y2="675.84" style="stroke:#F0F0F0;stroke-width:9.72"/>
	<line x1="1923.24" y1="643.44" x2="1923.24" y2="578.64" style="stroke:#F0F0F0;stroke-width:9.72"/>
	<line x1="1923.24" y1="546.24" x2="1923.24" y2="481.44" style="stroke:#F0F0F0;stroke-width:9.72"/>
	<line x1="1923.24" y1="449.04" x2="1923.24" y2="384.24" style="stroke:#F0F0F0;stroke-width:9.72"/>
	<line x1="1923.24" y1="351.84" x2="1923.24" y2="287.04" style="stroke:#F0F0F0;stroke-width:9.72"/>
	<line x1="3020.63" y1="2879.04" x2="3020.63" y2="2814.24" style="stroke:#F0F0F0;stroke-width:9.72"/>
	<line x1="3020.63" y1="2781.84" x2="3020.63" y2="2717.04" style="stroke:#F0F0F0;stroke-width:9.72"/>
	<line x1="3020.63" y1="2684.64" x2="3020.63" y2="2619.84" style="stroke:#F0F0F0;stroke-width:9.72"/>
	<line x1="3020.63" y1="2587.44" x2="3020.63" y2="2522.64" style="stroke:#F0F0F0;stroke-width:9.72"/>
	<line x1="3020.63" y1="2490.24" x2="3020.63" y2="2425.44" style="stroke:#F0F0F0;stroke-width:9.72"/>
	<line x1="3020.63" y1="2393.04" x2="3020.63" y2="2328.24" style="stroke:#F0F0F0;stroke-width:9.72"/>
	<line x1="3020.63" y1="2295.84" x2="3020.63" y2="2231.04" style="stroke:#F0F0F0;stroke-width:9.72"/>
	<line x1="3020.63" y1="2198.64" x2="3020.63" y2="2133.84" style="stroke:#F0F0F0;stroke-width:9.72"/>
	<line x1="3020.63" y1="2101.44" x2="3020.63" y2="2036.64" style="stroke:#F0F0F0;stroke-width:9.72"/>
	<line x1="3020.63" y1="2004.24" x2="3020.63" y2="1939.44" style="stroke:#F0F0F0;stroke-width:9.72"/>
	<line x1="3020.63" y1="1907.04" x2="3020.63" y2="1842.24" style="stroke:#F0F0F0;stroke-width:9.72"/>
	<line x1="3020.63" y1="1809.84" x2="3020.63" y2="1745.04" style="stroke:#F0F0F0;stroke-width:9.72"/>
	<line x1="3020.63" y1="1712.64" x2="3020.63" y2="1647.84" style="stroke:#F0F0F0;stroke-width:9.72"/>
	<line x1="3020.63" y1="1615.44" x2="3020.63" y2="1550.64" style="stroke:#F0F0F0;stroke-width:9.72"/>
	<line x1="3020.63" y1="1518.24" x2="3020.63" y2="1453.44" style="stroke:#F0F0F0;stroke-width:9.72"/>
	<line x1="3020.63" y1="1421.04" x2="3020.63" y2="1356.24" style="stroke:#F0F0F0;stroke-width:9.72"/>
	<line x1="3020.63" y1="1323.84" x2="3020.63" y2="1259.04" style="stroke:#F0F0F0;stroke-width:9.72"/>
	<line x1="3020.63" y1="1226.64" x2="3020.63" y2="1161.84" style="stroke:#F0F0F0;stroke-width:9.72"/>
	<line x1="3020.63" y1="1129.44" x2="3020.63" y2="1064.64" style="stroke:#F0F0F0;stroke-width:9.72"/>
	<line x1="3020.63" y1="1032.24" x2="3020.63" y2="967.44" style="stroke:#F0F0F0;stroke-width:9.72"/>
	<line x1="3020.63" y1="935.04" x2="3020.63" y2="870.24" style="stroke:#F0F0F0;stroke-width:9.72"/>
	<line x1="3020.63" y1="837.84" x2="3020.63" y2="773.04" style="stroke:#F0F0F0;stroke-width:9.72"/>
	<line x1="3020.63" y1="740.64" x2="3020.63" y2="675.84" style="stroke:#F0F0F0;stroke-width:9.72"/>
	<line x1="3020.63" y1="643.44" x2="3020.63" y2="578.64" style="stroke:#F0F0F0;stroke-width:9.72"/>
	<line x1="3020.63" y1="546.24" x2="3020.63" y2="481.44" style="stroke:#F0F0F0;stroke-width:9.72"/>
	<line x1="3020.63" y1="449.04" x2="3020.63" y2="384.24" style="stroke:#F0F0F0;stroke-width:9.72"/>
	<line x1="3020.63" y1="351.84" x2="3020.63" y2="287.04" style="stroke:#F0F0F0;stroke-width:9.72"/>
	<line x1="4118.01" y1="2879.04" x2="4118.01" y2="2814.24" style="stroke:#F0F0F0;stroke-width:9.72"/>
	<line x1="4118.01" y1="2781.84" x2="4118.01" y2="2717.04" style="stroke:#F0F0F0;stroke-width:9.72"/>
	<line x1="4118.01" y1="2684.64" x2="4118.01" y2="2619.84" style="stroke:#F0F0F0;stroke-width:9.72"/>
	<line x1="4118.01" y1="2587.44" x2="4118.01" y2="2522.64" style="stroke:#F0F0F0;stroke-width:9.72"/>
	<line x1="4118.01" y1="2490.24" x2="4118.01" y2="2425.44" style="stroke:#F0F0F0;stroke-width:9.72"/>
	<line x1="4118.01" y1="2393.04" x2="4118.01" y2="2328.24" style="stroke:#F0F0F0;stroke-width:9.72"/>
	<line x1="4118.01" y1="2295.84" x2="4118.01" y2="2231.04" style="stroke:#F0F0F0;stroke-width:9.72"/>
	<line x1="4118.01" y1="2198.64" x2="4118.01" y2="2133.84" style="stroke:#F0F0F0;stroke-width:9.72"/>
	<line x1="4118.01" y1="2101.44" x2="4118.01" y2="2036.64" style="stroke:#F0F0F0;stroke-width:9.72"/>
	<line x1="4118.01" y1="2004.24" x2="4118.01" y2="1939.44" style="stroke:#F0F0F0;stroke-width:9.72"/>
	<line x1="4118.01" y1="1907.04" x2="4118.01" y2="1842.24" style="stroke:#F0F0F0;stroke-width:9.72"/>
	<line x1="4118.01" y1="1809.84" x2="4118.01" y2="1745.04" style="stroke:#F0F0F0;stroke-width:9.72"/>
	<line x1="4118.01" y1="1712.64" x2="4118.01" y2="1647.84" style="stroke:#F0F0F0;stroke-width:9.72"/>
	<line x1="4118.01" y1="1615.44" x2="4118.01" y2="1550.64" style="stroke:#F0F0F0;stroke-width:9.72"/>
	<line x1="4118.01" y1="1518.24" x2="4118.01" y2="1453.44" style="stroke:#F0F0F0;stroke-width:9.72"/>
	<line x1="4118.01" y1="1421.04" x2="4118.01" y2="1356.24" style="stroke:#F0F0F0;stroke-width:9.72"/>
	<line x1="4118.01" y1="1323.84" x2="4118.01" y2="1259.04" style="stroke:#F0F0F0;stroke-width:9.72"/>
	<line x1="4118.01" y1="1226.64" x2="4118.01" y2="1161.84" style="stroke:#F0F0F0;stroke-width:9.72"/>
	<line x1="4118.01" y1="1129.44" x2="4118.01" y2="1064.64" style="stroke:#F0F0F0;stroke-width:9.72"/>
	<line x1="4118.01" y1="1032.24" x2="4118.01" y2="967.44" style="stroke:#F0F0F0;stroke-width:9.72"/>
	<line x1="4118.01" y1="935.04" x2="4118.01" y2="870.24" style="stroke:#F0F0F0;stroke-width:9.72"/>
	<line x1="4118.01" y1="837.84" x2="4118.01" y2="773.04" style="stroke:#F0F0F0;stroke-width:9.72"/>
	<line x1="4118.01" y1="740.64" x2="4118.01" y2="675.84" style="stroke:#F0F0F0;stroke-width:9.72"/>
	<line x1="4118.01" y1="643.44" x2="4118.01" y2="578.64" style="stroke:#F0F0F0;stroke-width:9.72"/>
	<line x1="4118.01" y1="546.24" x2="4118.01" y2="481.44" style="stroke:#F0F0F0;stroke-width:9.72"/>
	<line x1="4118.01" y1="449.04" x2="4118.01" y2="384.24" style="stroke:#F0F0F0;stroke-width:9.72"/>
	<line x1="4118.01" y1="351.84" x2="4118.01" y2="287.04" style="stroke:#F0F0F0;stroke-width:9.72"/>
	<line x1="5215.39" y1="2879.04" x2="5215.39" y2="2814.24" style="stroke:#F0F0F0;stroke-width:9.72"/>
	<line x1="5215.39" y1="2781.84" x2="5215.39" y2="2717.04" style="stroke:#F0F0F0;stroke-width:9.72"/>
	<line x1="5215.39" y1="2684.64" x2="5215.39" y2="2619.84" style="stroke:#F0F0F0;stroke-width:9.72"/>
	<line x1="5215.39" y1="2587.44" x2="5215.39" y2="2522.64" style="stroke:#F0F0F0;stroke-width:9.72"/>
	<line x1="5215.39" y1="2490.24" x2="5215.39" y2="2425.44" style="stroke:#F0F0F0;stroke-width:9.72"/>
	<line x1="5215.39" y1="2393.04" x2="5215.39" y2="2328.24" style="stroke:#F0F0F0;stroke-width:9.72"/>
	<line x1="5215.39" y1="2295.84" x2="5215.39" y2="2231.04" style="stroke:#F0F0F0;stroke-width:9.72"/>
	<line x1="5215.39" y1="2198.64" x2="5215.39" y2="2133.84" style="stroke:#F0F0F0;stroke-width:9.72"/>
	<line x1="5215.39" y1="2101.44" x2="5215.39" y2="2036.64" style="stroke:#F0F0F0;stroke-width:9.72"/>
	<line x1="5215.39" y1="2004.24" x2="5215.39" y2="1939.44" style="stroke:#F0F0F0;stroke-width:9.72"/>
	<line x1="5215.39" y1="1907.04" x2="5215.39" y2="1842.24" style="stroke:#F0F0F0;stroke-width:9.72"/>
	<line x1="5215.39" y1="1809.84" x2="5215.39" y2="1745.04" style="stroke:#F0F0F0;stroke-width:9.72"/>
	<line x1="5215.39" y1="1712.64" x2="5215.39" y2="1647.84" style="stroke:#F0F0F0;stroke-width:9.72"/>
	<line x1="5215.39" y1="1615.44" x2="5215.39" y2="1550.64" style="stroke:#F0F0F0;stroke-width:9.72"/>
	<line x1="5215.39" y1="1518.24" x2="5215.39" y2="1453.44" style="stroke:#F0F0F0;stroke-width:9.72"/>
	<line x1="5215.39" y1="1421.04" x2="5215.39" y2="1356.24" style="stroke:#F0F0F0;stroke-width:9.72"/>
	<line x1="5215.39" y1="1323.84" x2="5215.39" y2="1259.04" style="stroke:#F0F0F0;stroke-width:9.72"/>
	<line x1="5215.39" y1="1226.64" x2="5215.39" y2="1161.84" style="stroke:#F0F0F0;stroke-width:9.72"/>
	<line x1="5215.39" y1="1129.44" x2="5215.39" y2="1064.64" style="stroke:#F0F0F0;stroke-width:9.72"/>
	<line x1="5215.39" y1="1032.24" x2="5215.39" y2="967.44" style="stroke:#F0F0F0;stroke-width:9.72"/>
	<line x1="5215.39" y1="935.04" x2="5215.39" y2="870.24" style="stroke:#F0F0F0;stroke-width:9.72"/>
	<line x1="5215.39" y1="837.84" x2="5215.39" y2="773.04" style="stroke:#F0F0F0;stroke-width:9.72"/>
	<line x1="5215.39" y1="740.64" x2="5215.39" y2="675.84" style="stroke:#F0F0F0;stroke-width:9.72"/>
	<line x1="5215.39" y1="643.44" x2="5215.39" y2="578.64" style="stroke:#F0F0F0;stroke-width:9.72"/>
	<line x1="5215.39" y1="546.24" x2="5215.39" y2="481.44" style="stroke:#F0F0F0;stroke-width:9.72"/>
	<line x1="5215.39" y1="449.04" x2="5215.39" y2="384.24" style="stroke:#F0F0F0;stroke-width:9.72"/>
	<line x1="5215.39" y1="351.84" x2="5215.39" y2="287.04" style="stroke:#F0F0F0;stroke-width:9.72"/>
	<path d="
M825.86 2411.27 L825.86 2411.27 L1045.41 2236.78 L1264.78 2124.90 L1484.33 1823.51 L1703.87 1663.37 L1923.24 1649.70 L2142.79 1529.04 L2362.16 1666.58 L2581.71 1487.19 L2801.08 1275.41 L3020.63 1176.69 L3240.17 1100.42 L3459.54 1158.64 L3679.09 1143.96 L3898.46 1038.99 L4118.01 1105.99 L4337.38 1000.86 L4556.93 991.24 L4556.93 2434.56 L4337.38 2458.86 L4118.01 2510.16 L3898.46 2231.04 L3679.09 2174.51 L3459.54 2028.21 L3240.17 1959.36 L3020.63 1987.71 L2801.08 2117.64 L2581.71 2287.57 L2362.16 2471.18 L2142.79 2293.82 L1923.24 2503.07 L1703.87 2445.86 L1484.33 2508.81 L1264.78 2638.24 L1045.41 2646.34 L825.86 2807.83 L825.86 2411.27 Z" stroke-linejoin="round" style="fill:#D9D9D9;stroke:#D0D0D0;stroke-width:0.00"/>
	<path d=" M825.86 2609.72 L1045.24 2441.64 L1264.78 2381.57 L1484.33 2166.24 L1703.70 2054.70 L1923.24 2076.47 L2142.62 1911.43 L2362.16 2068.88 L2581.54 1887.47 L2801.08 1696.61 L3020.46 1582.37 L3240.00 1529.89 L3459.54 1593.51 L3678.92 1659.32 L3898.46 1635.19 L4117.84 1808.16 L4337.38 1730.03 L4556.76 1712.98" stroke-linejoin="round" style="fill:none;stroke:#000000;stroke-width:25.92"/>
	<line x1="754.65" y1="2879.04" x2="754.65" y2="264.77" style="stroke:#000000;stroke-width:6.48"/>
	<line x1="754.65" y1="2701.35" x2="709.59" y2="2701.35" style="stroke:#000000;stroke-width:6.48"/>
	<text x="687.15" y="2740.79" style="font-family:'Helvetica';font-size:112.56px;fill:#000000" text-anchor="end">0</text>
	<line x1="754.65" y1="2228.18" x2="709.59" y2="2228.18" style="stroke:#000000;stroke-width:6.48"/>
	<text x="687.15" y="2267.61" style="font-family:'Helvetica';font-size:112.56px;fill:#000000" text-anchor="end">.00002</text>
	<line x1="754.65" y1="1755.17" x2="709.59" y2="1755.17" style="stroke:#000000;stroke-width:6.48"/>
	<text x="687.15" y="1794.61" style="font-family:'Helvetica';font-size:112.56px;fill:#000000" text-anchor="end">.00004</text>
	<line x1="754.65" y1="1282.16" x2="709.59" y2="1282.16" style="stroke:#000000;stroke-width:6.48"/>
	<text x="687.15" y="1321.60" style="font-family:'Helvetica';font-size:112.56px;fill:#000000" text-anchor="end">.00006</text>
	<line x1="754.65" y1="809.16" x2="709.59" y2="809.16" style="stroke:#000000;stroke-width:6.48"/>
	<text x="687.15" y="848.59" style="font-family:'Helvetica';font-size:112.56px;fill:#000000" text-anchor="end">.00008</text>
	<line x1="754.65" y1="335.98" x2="709.59" y2="335.98" style="stroke:#000000;stroke-width:6.48"/>
	<text x="687.15" y="375.42" style="font-family:'Helvetica';font-size:112.56px;fill:#000000" text-anchor="end">.0001</text>
	<text x="214.55" y="1571.91" style="font-family:'Helvetica';font-size:112.56px;fill:#000000" transform="rotate(-90 214.55,1571.91)" text-anchor="middle">ln(Imacec No Minero)</text>
	<line x1="754.65" y1="2879.04" x2="5286.60" y2="2879.04" style="stroke:#000000;stroke-width:6.48"/>
	<line x1="825.86" y1="2879.04" x2="825.86" y2="2924.10" style="stroke:#000000;stroke-width:6.48"/>
	<text x="825.86" y="3025.25" style="font-family:'Helvetica';font-size:112.56px;fill:#000000" text-anchor="middle">0</text>
	<line x1="1923.24" y1="2879.04" x2="1923.24" y2="2924.10" style="stroke:#000000;stroke-width:6.48"/>
	<text x="1923.24" y="3025.25" style="font-family:'Helvetica';font-size:112.56px;fill:#000000" text-anchor="middle">5</text>
	<line x1="3020.63" y1="2879.04" x2="3020.63" y2="2924.10" style="stroke:#000000;stroke-width:6.48"/>
	<text x="3020.63" y="3025.25" style="font-family:'Helvetica';font-size:112.56px;fill:#000000" text-anchor="middle">10</text>
	<line x1="4118.01" y1="2879.04" x2="4118.01" y2="2924.10" style="stroke:#000000;stroke-width:6.48"/>
	<text x="4118.01" y="3025.25" style="font-family:'Helvetica';font-size:112.56px;fill:#000000" text-anchor="middle">15</text>
	<line x1="5215.39" y1="2879.04" x2="5215.39" y2="2924.10" style="stroke:#000000;stroke-width:6.48"/>
	<text x="5215.39" y="3025.25" style="font-family:'Helvetica';font-size:112.56px;fill:#000000" text-anchor="middle">20</text>
	<text x="3020.63" y="211.51" style="font-family:'Helvetica';font-size:112.56px;fill:#000000" text-anchor="middle">Coeficiente en el término de interacción</text>
</svg>
