<?xml version="1.0" encoding="UTF-8" standalone="no"?>
<!-- This is a Stata 18.0 generated SVG file (http://www.stata.com) -->

<svg version="1.1" width="7.500in" height="4.500in" viewBox="0 0 5400 3240" xmlns="http://www.w3.org/2000/svg" xmlns:xlink="http://www.w3.org/1999/xlink">
	<desc>Stata Graph - Graph</desc>
	<rect x="0" y="0" width="5400" height="3240" style="fill:#FFFFFF;stroke:none"/>
	<rect x="0.00" y="0.00" width="5400.00" height="3240.00" style="fill:#FFFFFF"/>
	<rect x="3.24" y="3.24" width="5393.52" height="3233.52" style="fill:none;stroke:#FFFFFF;stroke-width:6.48"/>
	<rect x="662.68" y="264.77" width="4623.92" height="2614.27" style="fill:#FFFFFF"/>
	<rect x="665.92" y="268.01" width="4617.44" height="2607.79" style="fill:none;stroke:#000000;stroke-width:6.48"/>
	<line x1="662.68" y1="2807.83" x2="727.48" y2="2807.83" style="stroke:#F0F0F0;stroke-width:9.72"/>
	<line x1="759.88" y1="2807.83" x2="824.68" y2="2807.83" style="stroke:#F0F0F0;stroke-width:9.72"/>
	<line x1="857.08" y1="2807.83" x2="921.88" y2="2807.83" style="stroke:#F0F0F0;stroke-width:9.72"/>
	<line x1="954.28" y1="2807.83" x2="1019.08" y2="2807.83" style="stroke:#F0F0F0;stroke-width:9.72"/>
	<line x1="1051.48" y1="2807.83" x2="1116.28" y2="2807.83" style="stroke:#F0F0F0;stroke-width:9.72"/>
	<line x1="1148.68" y1="2807.83" x2="1213.48" y2="2807.83" style="stroke:#F0F0F0;stroke-width:9.72"/>
	<line x1="1245.88" y1="2807.83" x2="1310.68" y2="2807.83" style="stroke:#F0F0F0;stroke-width:9.72"/>
	<line x1="1343.08" y1="2807.83" x2="1407.88" y2="2807.83" style="stroke:#F0F0F0;stroke-width:9.72"/>
	<line x1="1440.28" y1="2807.83" x2="1505.08" y2="2807.83" style="stroke:#F0F0F0;stroke-width:9.72"/>
	<line x1="1537.48" y1="2807.83" x2="1602.28" y2="2807.83" style="stroke:#F0F0F0;stroke-width:9.72"/>
	<line x1="1634.68" y1="2807.83" x2="1699.48" y2="2807.83" style="stroke:#F0F0F0;stroke-width:9.72"/>
	<line x1="1731.88" y1="2807.83" x2="1796.68" y2="2807.83" style="stroke:#F0F0F0;stroke-width:9.72"/>
	<line x1="1829.08" y1="2807.83" x2="1893.88" y2="2807.83" style="stroke:#F0F0F0;stroke-width:9.72"/>
	<line x1="1926.28" y1="2807.83" x2="1991.08" y2="2807.83" style="stroke:#F0F0F0;stroke-width:9.72"/>
	<line x1="2023.48" y1="2807.83" x2="2088.28" y2="2807.83" style="stroke:#F0F0F0;stroke-width:9.72"/>
	<line x1="2120.68" y1="2807.83" x2="2185.48" y2="2807.83" style="stroke:#F0F0F0;stroke-width:9.72"/>
	<line x1="2217.88" y1="2807.83" x2="2282.68" y2="2807.83" style="stroke:#F0F0F0;stroke-width:9.72"/>
	<line x1="2315.08" y1="2807.83" x2="2379.88" y2="2807.83" style="stroke:#F0F0F0;stroke-width:9.72"/>
	<line x1="2412.28" y1="2807.83" x2="2477.08" y2="2807.83" style="stroke:#F0F0F0;stroke-width:9.72"/>
	<line x1="2509.48" y1="2807.83" x2="2574.28" y2="2807.83" style="stroke:#F0F0F0;stroke-width:9.72"/>
	<line x1="2606.68" y1="2807.83" x2="2671.48" y2="2807.83" style="stroke:#F0F0F0;stroke-width:9.72"/>
	<line x1="2703.88" y1="2807.83" x2="2768.68" y2="2807.83" style="stroke:#F0F0F0;stroke-width:9.72"/>
	<line x1="2801.08" y1="2807.83" x2="2865.88" y2="2807.83" style="stroke:#F0F0F0;stroke-width:9.72"/>
	<line x1="2898.28" y1="2807.83" x2="2963.08" y2="2807.83" style="stroke:#F0F0F0;stroke-width:9.72"/>
	<line x1="2995.48" y1="2807.83" x2="3060.28" y2="2807.83" style="stroke:#F0F0F0;stroke-width:9.72"/>
	<line x1="3092.68" y1="2807.83" x2="3157.48" y2="2807.83" style="stroke:#F0F0F0;stroke-width:9.72"/>
	<line x1="3189.88" y1="2807.83" x2="3254.68" y2="2807.83" style="stroke:#F0F0F0;stroke-width:9.72"/>
	<line x1="3287.08" y1="2807.83" x2="3351.88" y2="2807.83" style="stroke:#F0F0F0;stroke-width:9.72"/>
	<line x1="3384.28" y1="2807.83" x2="3449.08" y2="2807.83" style="stroke:#F0F0F0;stroke-width:9.72"/>
	<line x1="3481.48" y1="2807.83" x2="3546.28" y2="2807.83" style="stroke:#F0F0F0;stroke-width:9.72"/>
	<line x1="3578.68" y1="2807.83" x2="3643.48" y2="2807.83" style="stroke:#F0F0F0;stroke-width:9.72"/>
	<line x1="3675.88" y1="2807.83" x2="3740.68" y2="2807.83" style="stroke:#F0F0F0;stroke-width:9.72"/>
	<line x1="3773.08" y1="2807.83" x2="3837.88" y2="2807.83" style="stroke:#F0F0F0;stroke-width:9.72"/>
	<line x1="3870.28" y1="2807.83" x2="3935.08" y2="2807.83" style="stroke:#F0F0F0;stroke-width:9.72"/>
	<line x1="3967.48" y1="2807.83" x2="4032.28" y2="2807.83" style="stroke:#F0F0F0;stroke-width:9.72"/>
	<line x1="4064.68" y1="2807.83" x2="4129.48" y2="2807.83" style="stroke:#F0F0F0;stroke-width:9.72"/>
	<line x1="4161.88" y1="2807.83" x2="4226.68" y2="2807.83" style="stroke:#F0F0F0;stroke-width:9.72"/>
	<line x1="4259.08" y1="2807.83" x2="4323.88" y2="2807.83" style="stroke:#F0F0F0;stroke-width:9.72"/>
	<line x1="4356.28" y1="2807.83" x2="4421.08" y2="2807.83" style="stroke:#F0F0F0;stroke-width:9.72"/>
	<line x1="4453.48" y1="2807.83" x2="4518.28" y2="2807.83" style="stroke:#F0F0F0;stroke-width:9.72"/>
	<line x1="4550.68" y1="2807.83" x2="4615.48" y2="2807.83" style="stroke:#F0F0F0;stroke-width:9.72"/>
	<line x1="4647.88" y1="2807.83" x2="4712.68" y2="2807.83" style="stroke:#F0F0F0;stroke-width:9.72"/>
	<line x1="4745.08" y1="2807.83" x2="4809.88" y2="2807.83" style="stroke:#F0F0F0;stroke-width:9.72"/>
	<line x1="4842.28" y1="2807.83" x2="4907.08" y2="2807.83" style="stroke:#F0F0F0;stroke-width:9.72"/>
	<line x1="4939.48" y1="2807.83" x2="5004.28" y2="2807.83" style="stroke:#F0F0F0;stroke-width:9.72"/>
	<line x1="5036.68" y1="2807.83" x2="5101.48" y2="2807.83" style="stroke:#F0F0F0;stroke-width:9.72"/>
	<line x1="5133.88" y1="2807.83" x2="5198.68" y2="2807.83" style="stroke:#F0F0F0;stroke-width:9.72"/>
	<line x1="5231.08" y1="2807.83" x2="5286.60" y2="2807.83" style="stroke:#F0F0F0;stroke-width:9.72"/>
	<line x1="662.68" y1="2231.38" x2="727.48" y2="2231.38" style="stroke:#F0F0F0;stroke-width:9.72"/>
	<line x1="759.88" y1="2231.38" x2="824.68" y2="2231.38" style="stroke:#F0F0F0;stroke-width:9.72"/>
	<line x1="857.08" y1="2231.38" x2="921.88" y2="2231.38" style="stroke:#F0F0F0;stroke-width:9.72"/>
	<line x1="954.28" y1="2231.38" x2="1019.08" y2="2231.38" style="stroke:#F0F0F0;stroke-width:9.72"/>
	<line x1="1051.48" y1="2231.38" x2="1116.28" y2="2231.38" style="stroke:#F0F0F0;stroke-width:9.72"/>
	<line x1="1148.68" y1="2231.38" x2="1213.48" y2="2231.38" style="stroke:#F0F0F0;stroke-width:9.72"/>
	<line x1="1245.88" y1="2231.38" x2="1310.68" y2="2231.38" style="stroke:#F0F0F0;stroke-width:9.72"/>
	<line x1="1343.08" y1="2231.38" x2="1407.88" y2="2231.38" style="stroke:#F0F0F0;stroke-width:9.72"/>
	<line x1="1440.28" y1="2231.38" x2="1505.08" y2="2231.38" style="stroke:#F0F0F0;stroke-width:9.72"/>
	<line x1="1537.48" y1="2231.38" x2="1602.28" y2="2231.38" style="stroke:#F0F0F0;stroke-width:9.72"/>
	<line x1="1634.68" y1="2231.38" x2="1699.48" y2="2231.38" style="stroke:#F0F0F0;stroke-width:9.72"/>
	<line x1="1731.88" y1="2231.38" x2="1796.68" y2="2231.38" style="stroke:#F0F0F0;stroke-width:9.72"/>
	<line x1="1829.08" y1="2231.38" x2="1893.88" y2="2231.38" style="stroke:#F0F0F0;stroke-width:9.72"/>
	<line x1="1926.28" y1="2231.38" x2="1991.08" y2="2231.38" style="stroke:#F0F0F0;stroke-width:9.72"/>
	<line x1="2023.48" y1="2231.38" x2="2088.28" y2="2231.38" style="stroke:#F0F0F0;stroke-width:9.72"/>
	<line x1="2120.68" y1="2231.38" x2="2185.48" y2="2231.38" style="stroke:#F0F0F0;stroke-width:9.72"/>
	<line x1="2217.88" y1="2231.38" x2="2282.68" y2="2231.38" style="stroke:#F0F0F0;stroke-width:9.72"/>
	<line x1="2315.08" y1="2231.38" x2="2379.88" y2="2231.38" style="stroke:#F0F0F0;stroke-width:9.72"/>
	<line x1="2412.28" y1="2231.38" x2="2477.08" y2="2231.38" style="stroke:#F0F0F0;stroke-width:9.72"/>
	<line x1="2509.48" y1="2231.38" x2="2574.28" y2="2231.38" style="stroke:#F0F0F0;stroke-width:9.72"/>
	<line x1="2606.68" y1="2231.38" x2="2671.48" y2="2231.38" style="stroke:#F0F0F0;stroke-width:9.72"/>
	<line x1="2703.88" y1="2231.38" x2="2768.68" y2="2231.38" style="stroke:#F0F0F0;stroke-width:9.72"/>
	<line x1="2801.08" y1="2231.38" x2="2865.88" y2="2231.38" style="stroke:#F0F0F0;stroke-width:9.72"/>
	<line x1="2898.28" y1="2231.38" x2="2963.08" y2="2231.38" style="stroke:#F0F0F0;stroke-width:9.72"/>
	<line x1="2995.48" y1="2231.38" x2="3060.28" y2="2231.38" style="stroke:#F0F0F0;stroke-width:9.72"/>
	<line x1="3092.68" y1="2231.38" x2="3157.48" y2="2231.38" style="stroke:#F0F0F0;stroke-width:9.72"/>
	<line x1="3189.88" y1="2231.38" x2="3254.68" y2="2231.38" style="stroke:#F0F0F0;stroke-width:9.72"/>
	<line x1="3287.08" y1="2231.38" x2="3351.88" y2="2231.38" style="stroke:#F0F0F0;stroke-width:9.72"/>
	<line x1="3384.28" y1="2231.38" x2="3449.08" y2="2231.38" style="stroke:#F0F0F0;stroke-width:9.72"/>
	<line x1="3481.48" y1="2231.38" x2="3546.28" y2="2231.38" style="stroke:#F0F0F0;stroke-width:9.72"/>
	<line x1="3578.68" y1="2231.38" x2="3643.48" y2="2231.38" style="stroke:#F0F0F0;stroke-width:9.72"/>
	<line x1="3675.88" y1="2231.38" x2="3740.68" y2="2231.38" style="stroke:#F0F0F0;stroke-width:9.72"/>
	<line x1="3773.08" y1="2231.38" x2="3837.88" y2="2231.38" style="stroke:#F0F0F0;stroke-width:9.72"/>
	<line x1="3870.28" y1="2231.38" x2="3935.08" y2="2231.38" style="stroke:#F0F0F0;stroke-width:9.72"/>
	<line x1="3967.48" y1="2231.38" x2="4032.28" y2="2231.38" style="stroke:#F0F0F0;stroke-width:9.72"/>
	<line x1="4064.68" y1="2231.38" x2="4129.48" y2="2231.38" style="stroke:#F0F0F0;stroke-width:9.72"/>
	<line x1="4161.88" y1="2231.38" x2="4226.68" y2="2231.38" style="stroke:#F0F0F0;stroke-width:9.72"/>
	<line x1="4259.08" y1="2231.38" x2="4323.88" y2="2231.38" style="stroke:#F0F0F0;stroke-width:9.72"/>
	<line x1="4356.28" y1="2231.38" x2="4421.08" y2="2231.38" style="stroke:#F0F0F0;stroke-width:9.72"/>
	<line x1="4453.48" y1="2231.38" x2="4518.28" y2="2231.38" style="stroke:#F0F0F0;stroke-width:9.72"/>
	<line x1="4550.68" y1="2231.38" x2="4615.48" y2="2231.38" style="stroke:#F0F0F0;stroke-width:9.72"/>
	<line x1="4647.88" y1="2231.38" x2="4712.68" y2="2231.38" style="stroke:#F0F0F0;stroke-width:9.72"/>
	<line x1="4745.08" y1="2231.38" x2="4809.88" y2="2231.38" style="stroke:#F0F0F0;stroke-width:9.72"/>
	<line x1="4842.28" y1="2231.38" x2="4907.08" y2="2231.38" style="stroke:#F0F0F0;stroke-width:9.72"/>
	<line x1="4939.48" y1="2231.38" x2="5004.28" y2="2231.38" style="stroke:#F0F0F0;stroke-width:9.72"/>
	<line x1="5036.68" y1="2231.38" x2="5101.48" y2="2231.38" style="stroke:#F0F0F0;stroke-width:9.72"/>
	<line x1="5133.88" y1="2231.38" x2="5198.68" y2="2231.38" style="stroke:#F0F0F0;stroke-width:9.72"/>
	<line x1="5231.08" y1="2231.38" x2="5286.60" y2="2231.38" style="stroke:#F0F0F0;stroke-width:9.72"/>
	<line x1="662.68" y1="1655.10" x2="727.48" y2="1655.10" style="stroke:#F0F0F0;stroke-width:9.72"/>
	<line x1="759.88" y1="1655.10" x2="824.68" y2="1655.10" style="stroke:#F0F0F0;stroke-width:9.72"/>
	<line x1="857.08" y1="1655.10" x2="921.88" y2="1655.10" style="stroke:#F0F0F0;stroke-width:9.72"/>
	<line x1="954.28" y1="1655.10" x2="1019.08" y2="1655.10" style="stroke:#F0F0F0;stroke-width:9.72"/>
	<line x1="1051.48" y1="1655.10" x2="1116.28" y2="1655.10" style="stroke:#F0F0F0;stroke-width:9.72"/>
	<line x1="1148.68" y1="1655.10" x2="1213.48" y2="1655.10" style="stroke:#F0F0F0;stroke-width:9.72"/>
	<line x1="1245.88" y1="1655.10" x2="1310.68" y2="1655.10" style="stroke:#F0F0F0;stroke-width:9.72"/>
	<line x1="1343.08" y1="1655.10" x2="1407.88" y2="1655.10" style="stroke:#F0F0F0;stroke-width:9.72"/>
	<line x1="1440.28" y1="1655.10" x2="1505.08" y2="1655.10" style="stroke:#F0F0F0;stroke-width:9.72"/>
	<line x1="1537.48" y1="1655.10" x2="1602.28" y2="1655.10" style="stroke:#F0F0F0;stroke-width:9.72"/>
	<line x1="1634.68" y1="1655.10" x2="1699.48" y2="1655.10" style="stroke:#F0F0F0;stroke-width:9.72"/>
	<line x1="1731.88" y1="1655.10" x2="1796.68" y2="1655.10" style="stroke:#F0F0F0;stroke-width:9.72"/>
	<line x1="1829.08" y1="1655.10" x2="1893.88" y2="1655.10" style="stroke:#F0F0F0;stroke-width:9.72"/>
	<line x1="1926.28" y1="1655.10" x2="1991.08" y2="1655.10" style="stroke:#F0F0F0;stroke-width:9.72"/>
	<line x1="2023.48" y1="1655.10" x2="2088.28" y2="1655.10" style="stroke:#F0F0F0;stroke-width:9.72"/>
	<line x1="2120.68" y1="1655.10" x2="2185.48" y2="1655.10" style="stroke:#F0F0F0;stroke-width:9.72"/>
	<line x1="2217.88" y1="1655.10" x2="2282.68" y2="1655.10" style="stroke:#F0F0F0;stroke-width:9.72"/>
	<line x1="2315.08" y1="1655.10" x2="2379.88" y2="1655.10" style="stroke:#F0F0F0;stroke-width:9.72"/>
	<line x1="2412.28" y1="1655.10" x2="2477.08" y2="1655.10" style="stroke:#F0F0F0;stroke-width:9.72"/>
	<line x1="2509.48" y1="1655.10" x2="2574.28" y2="1655.10" style="stroke:#F0F0F0;stroke-width:9.72"/>
	<line x1="2606.68" y1="1655.10" x2="2671.48" y2="1655.10" style="stroke:#F0F0F0;stroke-width:9.72"/>
	<line x1="2703.88" y1="1655.10" x2="2768.68" y2="1655.10" style="stroke:#F0F0F0;stroke-width:9.72"/>
	<line x1="2801.08" y1="1655.10" x2="2865.88" y2="1655.10" style="stroke:#F0F0F0;stroke-width:9.72"/>
	<line x1="2898.28" y1="1655.10" x2="2963.08" y2="1655.10" style="stroke:#F0F0F0;stroke-width:9.72"/>
	<line x1="2995.48" y1="1655.10" x2="3060.28" y2="1655.10" style="stroke:#F0F0F0;stroke-width:9.72"/>
	<line x1="3092.68" y1="1655.10" x2="3157.48" y2="1655.10" style="stroke:#F0F0F0;stroke-width:9.72"/>
	<line x1="3189.88" y1="1655.10" x2="3254.68" y2="1655.10" style="stroke:#F0F0F0;stroke-width:9.72"/>
	<line x1="3287.08" y1="1655.10" x2="3351.88" y2="1655.10" style="stroke:#F0F0F0;stroke-width:9.72"/>
	<line x1="3384.28" y1="1655.10" x2="3449.08" y2="1655.10" style="stroke:#F0F0F0;stroke-width:9.72"/>
	<line x1="3481.48" y1="1655.10" x2="3546.28" y2="1655.10" style="stroke:#F0F0F0;stroke-width:9.72"/>
	<line x1="3578.68" y1="1655.10" x2="3643.48" y2="1655.10" style="stroke:#F0F0F0;stroke-width:9.72"/>
	<line x1="3675.88" y1="1655.10" x2="3740.68" y2="1655.10" style="stroke:#F0F0F0;stroke-width:9.72"/>
	<line x1="3773.08" y1="1655.10" x2="3837.88" y2="1655.10" style="stroke:#F0F0F0;stroke-width:9.72"/>
	<line x1="3870.28" y1="1655.10" x2="3935.08" y2="1655.10" style="stroke:#F0F0F0;stroke-width:9.72"/>
	<line x1="3967.48" y1="1655.10" x2="4032.28" y2="1655.10" style="stroke:#F0F0F0;stroke-width:9.72"/>
	<line x1="4064.68" y1="1655.10" x2="4129.48" y2="1655.10" style="stroke:#F0F0F0;stroke-width:9.72"/>
	<line x1="4161.88" y1="1655.10" x2="4226.68" y2="1655.10" style="stroke:#F0F0F0;stroke-width:9.72"/>
	<line x1="4259.08" y1="1655.10" x2="4323.88" y2="1655.10" style="stroke:#F0F0F0;stroke-width:9.72"/>
	<line x1="4356.28" y1="1655.10" x2="4421.08" y2="1655.10" style="stroke:#F0F0F0;stroke-width:9.72"/>
	<line x1="4453.48" y1="1655.10" x2="4518.28" y2="1655.10" style="stroke:#F0F0F0;stroke-width:9.72"/>
	<line x1="4550.68" y1="1655.10" x2="4615.48" y2="1655.10" style="stroke:#F0F0F0;stroke-width:9.72"/>
	<line x1="4647.88" y1="1655.10" x2="4712.68" y2="1655.10" style="stroke:#F0F0F0;stroke-width:9.72"/>
	<line x1="4745.08" y1="1655.10" x2="4809.88" y2="1655.10" style="stroke:#F0F0F0;stroke-width:9.72"/>
	<line x1="4842.28" y1="1655.10" x2="4907.08" y2="1655.10" style="stroke:#F0F0F0;stroke-width:9.72"/>
	<line x1="4939.48" y1="1655.10" x2="5004.28" y2="1655.10" style="stroke:#F0F0F0;stroke-width:9.72"/>
	<line x1="5036.68" y1="1655.10" x2="5101.48" y2="1655.10" style="stroke:#F0F0F0;stroke-width:9.72"/>
	<line x1="5133.88" y1="1655.10" x2="5198.68" y2="1655.10" style="stroke:#F0F0F0;stroke-width:9.72"/>
	<line x1="5231.08" y1="1655.10" x2="5286.60" y2="1655.10" style="stroke:#F0F0F0;stroke-width:9.72"/>
	<line x1="662.68" y1="1078.65" x2="727.48" y2="1078.65" style="stroke:#F0F0F0;stroke-width:9.72"/>
	<line x1="759.88" y1="1078.65" x2="824.68" y2="1078.65" style="stroke:#F0F0F0;stroke-width:9.72"/>
	<line x1="857.08" y1="1078.65" x2="921.88" y2="1078.65" style="stroke:#F0F0F0;stroke-width:9.72"/>
	<line x1="954.28" y1="1078.65" x2="1019.08" y2="1078.65" style="stroke:#F0F0F0;stroke-width:9.72"/>
	<line x1="1051.48" y1="1078.65" x2="1116.28" y2="1078.65" style="stroke:#F0F0F0;stroke-width:9.72"/>
	<line x1="1148.68" y1="1078.65" x2="1213.48" y2="1078.65" style="stroke:#F0F0F0;stroke-width:9.72"/>
	<line x1="1245.88" y1="1078.65" x2="1310.68" y2="1078.65" style="stroke:#F0F0F0;stroke-width:9.72"/>
	<line x1="1343.08" y1="1078.65" x2="1407.88" y2="1078.65" style="stroke:#F0F0F0;stroke-width:9.72"/>
	<line x1="1440.28" y1="1078.65" x2="1505.08" y2="1078.65" style="stroke:#F0F0F0;stroke-width:9.72"/>
	<line x1="1537.48" y1="1078.65" x2="1602.28" y2="1078.65" style="stroke:#F0F0F0;stroke-width:9.72"/>
	<line x1="1634.68" y1="1078.65" x2="1699.48" y2="1078.65" style="stroke:#F0F0F0;stroke-width:9.72"/>
	<line x1="1731.88" y1="1078.65" x2="1796.68" y2="1078.65" style="stroke:#F0F0F0;stroke-width:9.72"/>
	<line x1="1829.08" y1="1078.65" x2="1893.88" y2="1078.65" style="stroke:#F0F0F0;stroke-width:9.72"/>
	<line x1="1926.28" y1="1078.65" x2="1991.08" y2="1078.65" style="stroke:#F0F0F0;stroke-width:9.72"/>
	<line x1="2023.48" y1="1078.65" x2="2088.28" y2="1078.65" style="stroke:#F0F0F0;stroke-width:9.72"/>
	<line x1="2120.68" y1="1078.65" x2="2185.48" y2="1078.65" style="stroke:#F0F0F0;stroke-width:9.72"/>
	<line x1="2217.88" y1="1078.65" x2="2282.68" y2="1078.65" style="stroke:#F0F0F0;stroke-width:9.72"/>
	<line x1="2315.08" y1="1078.65" x2="2379.88" y2="1078.65" style="stroke:#F0F0F0;stroke-width:9.72"/>
	<line x1="2412.28" y1="1078.65" x2="2477.08" y2="1078.65" style="stroke:#F0F0F0;stroke-width:9.72"/>
	<line x1="2509.48" y1="1078.65" x2="2574.28" y2="1078.65" style="stroke:#F0F0F0;stroke-width:9.72"/>
	<line x1="2606.68" y1="1078.65" x2="2671.48" y2="1078.65" style="stroke:#F0F0F0;stroke-width:9.72"/>
	<line x1="2703.88" y1="1078.65" x2="2768.68" y2="1078.65" style="stroke:#F0F0F0;stroke-width:9.72"/>
	<line x1="2801.08" y1="1078.65" x2="2865.88" y2="1078.65" style="stroke:#F0F0F0;stroke-width:9.72"/>
	<line x1="2898.28" y1="1078.65" x2="2963.08" y2="1078.65" style="stroke:#F0F0F0;stroke-width:9.72"/>
	<line x1="2995.48" y1="1078.65" x2="3060.28" y2="1078.65" style="stroke:#F0F0F0;stroke-width:9.72"/>
	<line x1="3092.68" y1="1078.65" x2="3157.48" y2="1078.65" style="stroke:#F0F0F0;stroke-width:9.72"/>
	<line x1="3189.88" y1="1078.65" x2="3254.68" y2="1078.65" style="stroke:#F0F0F0;stroke-width:9.72"/>
	<line x1="3287.08" y1="1078.65" x2="3351.88" y2="1078.65" style="stroke:#F0F0F0;stroke-width:9.72"/>
	<line x1="3384.28" y1="1078.65" x2="3449.08" y2="1078.65" style="stroke:#F0F0F0;stroke-width:9.72"/>
	<line x1="3481.48" y1="1078.65" x2="3546.28" y2="1078.65" style="stroke:#F0F0F0;stroke-width:9.72"/>
	<line x1="3578.68" y1="1078.65" x2="3643.48" y2="1078.65" style="stroke:#F0F0F0;stroke-width:9.72"/>
	<line x1="3675.88" y1="1078.65" x2="3740.68" y2="1078.65" style="stroke:#F0F0F0;stroke-width:9.72"/>
	<line x1="3773.08" y1="1078.65" x2="3837.88" y2="1078.65" style="stroke:#F0F0F0;stroke-width:9.72"/>
	<line x1="3870.28" y1="1078.65" x2="3935.08" y2="1078.65" style="stroke:#F0F0F0;stroke-width:9.72"/>
	<line x1="3967.48" y1="1078.65" x2="4032.28" y2="1078.65" style="stroke:#F0F0F0;stroke-width:9.72"/>
	<line x1="4064.68" y1="1078.65" x2="4129.48" y2="1078.65" style="stroke:#F0F0F0;stroke-width:9.72"/>
	<line x1="4161.88" y1="1078.65" x2="4226.68" y2="1078.65" style="stroke:#F0F0F0;stroke-width:9.72"/>
	<line x1="4259.08" y1="1078.65" x2="4323.88" y2="1078.65" style="stroke:#F0F0F0;stroke-width:9.72"/>
	<line x1="4356.28" y1="1078.65" x2="4421.08" y2="1078.65" style="stroke:#F0F0F0;stroke-width:9.72"/>
	<line x1="4453.48" y1="1078.65" x2="4518.28" y2="1078.65" style="stroke:#F0F0F0;stroke-width:9.72"/>
	<line x1="4550.68" y1="1078.65" x2="4615.48" y2="1078.65" style="stroke:#F0F0F0;stroke-width:9.72"/>
	<line x1="4647.88" y1="1078.65" x2="4712.68" y2="1078.65" style="stroke:#F0F0F0;stroke-width:9.72"/>
	<line x1="4745.08" y1="1078.65" x2="4809.88" y2="1078.65" style="stroke:#F0F0F0;stroke-width:9.72"/>
	<line x1="4842.28" y1="1078.65" x2="4907.08" y2="1078.65" style="stroke:#F0F0F0;stroke-width:9.72"/>
	<line x1="4939.48" y1="1078.65" x2="5004.28" y2="1078.65" style="stroke:#F0F0F0;stroke-width:9.72"/>
	<line x1="5036.68" y1="1078.65" x2="5101.48" y2="1078.65" style="stroke:#F0F0F0;stroke-width:9.72"/>
	<line x1="5133.88" y1="1078.65" x2="5198.68" y2="1078.65" style="stroke:#F0F0F0;stroke-width:9.72"/>
	<line x1="5231.08" y1="1078.65" x2="5286.60" y2="1078.65" style="stroke:#F0F0F0;stroke-width:9.72"/>
	<line x1="662.68" y1="502.20" x2="727.48" y2="502.20" style="stroke:#F0F0F0;stroke-width:9.72"/>
	<line x1="759.88" y1="502.20" x2="824.68" y2="502.20" style="stroke:#F0F0F0;stroke-width:9.72"/>
	<line x1="857.08" y1="502.20" x2="921.88" y2="502.20" style="stroke:#F0F0F0;stroke-width:9.72"/>
	<line x1="954.28" y1="502.20" x2="1019.08" y2="502.20" style="stroke:#F0F0F0;stroke-width:9.72"/>
	<line x1="1051.48" y1="502.20" x2="1116.28" y2="502.20" style="stroke:#F0F0F0;stroke-width:9.72"/>
	<line x1="1148.68" y1="502.20" x2="1213.48" y2="502.20" style="stroke:#F0F0F0;stroke-width:9.72"/>
	<line x1="1245.88" y1="502.20" x2="1310.68" y2="502.20" style="stroke:#F0F0F0;stroke-width:9.72"/>
	<line x1="1343.08" y1="502.20" x2="1407.88" y2="502.20" style="stroke:#F0F0F0;stroke-width:9.72"/>
	<line x1="1440.28" y1="502.20" x2="1505.08" y2="502.20" style="stroke:#F0F0F0;stroke-width:9.72"/>
	<line x1="1537.48" y1="502.20" x2="1602.28" y2="502.20" style="stroke:#F0F0F0;stroke-width:9.72"/>
	<line x1="1634.68" y1="502.20" x2="1699.48" y2="502.20" style="stroke:#F0F0F0;stroke-width:9.72"/>
	<line x1="1731.88" y1="502.20" x2="1796.68" y2="502.20" style="stroke:#F0F0F0;stroke-width:9.72"/>
	<line x1="1829.08" y1="502.20" x2="1893.88" y2="502.20" style="stroke:#F0F0F0;stroke-width:9.72"/>
	<line x1="1926.28" y1="502.20" x2="1991.08" y2="502.20" style="stroke:#F0F0F0;stroke-width:9.72"/>
	<line x1="2023.48" y1="502.20" x2="2088.28" y2="502.20" style="stroke:#F0F0F0;stroke-width:9.72"/>
	<line x1="2120.68" y1="502.20" x2="2185.48" y2="502.20" style="stroke:#F0F0F0;stroke-width:9.72"/>
	<line x1="2217.88" y1="502.20" x2="2282.68" y2="502.20" style="stroke:#F0F0F0;stroke-width:9.72"/>
	<line x1="2315.08" y1="502.20" x2="2379.88" y2="502.20" style="stroke:#F0F0F0;stroke-width:9.72"/>
	<line x1="2412.28" y1="502.20" x2="2477.08" y2="502.20" style="stroke:#F0F0F0;stroke-width:9.72"/>
	<line x1="2509.48" y1="502.20" x2="2574.28" y2="502.20" style="stroke:#F0F0F0;stroke-width:9.72"/>
	<line x1="2606.68" y1="502.20" x2="2671.48" y2="502.20" style="stroke:#F0F0F0;stroke-width:9.72"/>
	<line x1="2703.88" y1="502.20" x2="2768.68" y2="502.20" style="stroke:#F0F0F0;stroke-width:9.72"/>
	<line x1="2801.08" y1="502.20" x2="2865.88" y2="502.20" style="stroke:#F0F0F0;stroke-width:9.72"/>
	<line x1="2898.28" y1="502.20" x2="2963.08" y2="502.20" style="stroke:#F0F0F0;stroke-width:9.72"/>
	<line x1="2995.48" y1="502.20" x2="3060.28" y2="502.20" style="stroke:#F0F0F0;stroke-width:9.72"/>
	<line x1="3092.68" y1="502.20" x2="3157.48" y2="502.20" style="stroke:#F0F0F0;stroke-width:9.72"/>
	<line x1="3189.88" y1="502.20" x2="3254.68" y2="502.20" style="stroke:#F0F0F0;stroke-width:9.72"/>
	<line x1="3287.08" y1="502.20" x2="3351.88" y2="502.20" style="stroke:#F0F0F0;stroke-width:9.72"/>
	<line x1="3384.28" y1="502.20" x2="3449.08" y2="502.20" style="stroke:#F0F0F0;stroke-width:9.72"/>
	<line x1="3481.48" y1="502.20" x2="3546.28" y2="502.20" style="stroke:#F0F0F0;stroke-width:9.72"/>
	<line x1="3578.68" y1="502.20" x2="3643.48" y2="502.20" style="stroke:#F0F0F0;stroke-width:9.72"/>
	<line x1="3675.88" y1="502.20" x2="3740.68" y2="502.20" style="stroke:#F0F0F0;stroke-width:9.72"/>
	<line x1="3773.08" y1="502.20" x2="3837.88" y2="502.20" style="stroke:#F0F0F0;stroke-width:9.72"/>
	<line x1="3870.28" y1="502.20" x2="3935.08" y2="502.20" style="stroke:#F0F0F0;stroke-width:9.72"/>
	<line x1="3967.48" y1="502.20" x2="4032.28" y2="502.20" style="stroke:#F0F0F0;stroke-width:9.72"/>
	<line x1="4064.68" y1="502.20" x2="4129.48" y2="502.20" style="stroke:#F0F0F0;stroke-width:9.72"/>
	<line x1="4161.88" y1="502.20" x2="4226.68" y2="502.20" style="stroke:#F0F0F0;stroke-width:9.72"/>
	<line x1="4259.08" y1="502.20" x2="4323.88" y2="502.20" style="stroke:#F0F0F0;stroke-width:9.72"/>
	<line x1="4356.28" y1="502.20" x2="4421.08" y2="502.20" style="stroke:#F0F0F0;stroke-width:9.72"/>
	<line x1="4453.48" y1="502.20" x2="4518.28" y2="502.20" style="stroke:#F0F0F0;stroke-width:9.72"/>
	<line x1="4550.68" y1="502.20" x2="4615.48" y2="502.20" style="stroke:#F0F0F0;stroke-width:9.72"/>
	<line x1="4647.88" y1="502.20" x2="4712.68" y2="502.20" style="stroke:#F0F0F0;stroke-width:9.72"/>
	<line x1="4745.08" y1="502.20" x2="4809.88" y2="502.20" style="stroke:#F0F0F0;stroke-width:9.72"/>
	<line x1="4842.28" y1="502.20" x2="4907.08" y2="502.20" style="stroke:#F0F0F0;stroke-width:9.72"/>
	<line x1="4939.48" y1="502.20" x2="5004.28" y2="502.20" style="stroke:#F0F0F0;stroke-width:9.72"/>
	<line x1="5036.68" y1="502.20" x2="5101.48" y2="502.20" style="stroke:#F0F0F0;stroke-width:9.72"/>
	<line x1="5133.88" y1="502.20" x2="5198.68" y2="502.20" style="stroke:#F0F0F0;stroke-width:9.72"/>
	<line x1="5231.08" y1="502.20" x2="5286.60" y2="502.20" style="stroke:#F0F0F0;stroke-width:9.72"/>
	<line x1="734.06" y1="2879.04" x2="734.06" y2="2814.24" style="stroke:#F0F0F0;stroke-width:9.72"/>
	<line x1="734.06" y1="2781.84" x2="734.06" y2="2717.04" style="stroke:#F0F0F0;stroke-width:9.72"/>
	<line x1="734.06" y1="2684.64" x2="734.06" y2="2619.84" style="stroke:#F0F0F0;stroke-width:9.72"/>
	<line x1="734.06" y1="2587.44" x2="734.06" y2="2522.64" style="stroke:#F0F0F0;stroke-width:9.72"/>
	<line x1="734.06" y1="2490.24" x2="734.06" y2="2425.44" style="stroke:#F0F0F0;stroke-width:9.72"/>
	<line x1="734.06" y1="2393.04" x2="734.06" y2="2328.24" style="stroke:#F0F0F0;stroke-width:9.72"/>
	<line x1="734.06" y1="2295.84" x2="734.06" y2="2231.04" style="stroke:#F0F0F0;stroke-width:9.72"/>
	<line x1="734.06" y1="2198.64" x2="734.06" y2="2133.84" style="stroke:#F0F0F0;stroke-width:9.72"/>
	<line x1="734.06" y1="2101.44" x2="734.06" y2="2036.64" style="stroke:#F0F0F0;stroke-width:9.72"/>
	<line x1="734.06" y1="2004.24" x2="734.06" y2="1939.44" style="stroke:#F0F0F0;stroke-width:9.72"/>
	<line x1="734.06" y1="1907.04" x2="734.06" y2="1842.24" style="stroke:#F0F0F0;stroke-width:9.72"/>
	<line x1="734.06" y1="1809.84" x2="734.06" y2="1745.04" style="stroke:#F0F0F0;stroke-width:9.72"/>
	<line x1="734.06" y1="1712.64" x2="734.06" y2="1647.84" style="stroke:#F0F0F0;stroke-width:9.72"/>
	<line x1="734.06" y1="1615.44" x2="734.06" y2="1550.64" style="stroke:#F0F0F0;stroke-width:9.72"/>
	<line x1="734.06" y1="1518.24" x2="734.06" y2="1453.44" style="stroke:#F0F0F0;stroke-width:9.72"/>
	<line x1="734.06" y1="1421.04" x2="734.06" y2="1356.24" style="stroke:#F0F0F0;stroke-width:9.72"/>
	<line x1="734.06" y1="1323.84" x2="734.06" y2="1259.04" style="stroke:#F0F0F0;stroke-width:9.72"/>
	<line x1="734.06" y1="1226.64" x2="734.06" y2="1161.84" style="stroke:#F0F0F0;stroke-width:9.72"/>
	<line x1="734.06" y1="1129.44" x2="734.06" y2="1064.64" style="stroke:#F0F0F0;stroke-width:9.72"/>
	<line x1="734.06" y1="1032.24" x2="734.06" y2="967.44" style="stroke:#F0F0F0;stroke-width:9.72"/>
	<line x1="734.06" y1="935.04" x2="734.06" y2="870.24" style="stroke:#F0F0F0;stroke-width:9.72"/>
	<line x1="734.06" y1="837.84" x2="734.06" y2="773.04" style="stroke:#F0F0F0;stroke-width:9.72"/>
	<line x1="734.06" y1="740.64" x2="734.06" y2="675.84" style="stroke:#F0F0F0;stroke-width:9.72"/>
	<line x1="734.06" y1="643.44" x2="734.06" y2="578.64" style="stroke:#F0F0F0;stroke-width:9.72"/>
	<line x1="734.06" y1="546.24" x2="734.06" y2="481.44" style="stroke:#F0F0F0;stroke-width:9.72"/>
	<line x1="734.06" y1="449.04" x2="734.06" y2="384.24" style="stroke:#F0F0F0;stroke-width:9.72"/>
	<line x1="734.06" y1="351.84" x2="734.06" y2="287.04" style="stroke:#F0F0F0;stroke-width:9.72"/>
	<line x1="1854.39" y1="2879.04" x2="1854.39" y2="2814.24" style="stroke:#F0F0F0;stroke-width:9.72"/>
	<line x1="1854.39" y1="2781.84" x2="1854.39" y2="2717.04" style="stroke:#F0F0F0;stroke-width:9.72"/>
	<line x1="1854.39" y1="2684.64" x2="1854.39" y2="2619.84" style="stroke:#F0F0F0;stroke-width:9.72"/>
	<line x1="1854.39" y1="2587.44" x2="1854.39" y2="2522.64" style="stroke:#F0F0F0;stroke-width:9.72"/>
	<line x1="1854.39" y1="2490.24" x2="1854.39" y2="2425.44" style="stroke:#F0F0F0;stroke-width:9.72"/>
	<line x1="1854.39" y1="2393.04" x2="1854.39" y2="2328.24" style="stroke:#F0F0F0;stroke-width:9.72"/>
	<line x1="1854.39" y1="2295.84" x2="1854.39" y2="2231.04" style="stroke:#F0F0F0;stroke-width:9.72"/>
	<line x1="1854.39" y1="2198.64" x2="1854.39" y2="2133.84" style="stroke:#F0F0F0;stroke-width:9.72"/>
	<line x1="1854.39" y1="2101.44" x2="1854.39" y2="2036.64" style="stroke:#F0F0F0;stroke-width:9.72"/>
	<line x1="1854.39" y1="2004.24" x2="1854.39" y2="1939.44" style="stroke:#F0F0F0;stroke-width:9.72"/>
	<line x1="1854.39" y1="1907.04" x2="1854.39" y2="1842.24" style="stroke:#F0F0F0;stroke-width:9.72"/>
	<line x1="1854.39" y1="1809.84" x2="1854.39" y2="1745.04" style="stroke:#F0F0F0;stroke-width:9.72"/>
	<line x1="1854.39" y1="1712.64" x2="1854.39" y2="1647.84" style="stroke:#F0F0F0;stroke-width:9.72"/>
	<line x1="1854.39" y1="1615.44" x2="1854.39" y2="1550.64" style="stroke:#F0F0F0;stroke-width:9.72"/>
	<line x1="1854.39" y1="1518.24" x2="1854.39" y2="1453.44" style="stroke:#F0F0F0;stroke-width:9.72"/>
	<line x1="1854.39" y1="1421.04" x2="1854.39" y2="1356.24" style="stroke:#F0F0F0;stroke-width:9.72"/>
	<line x1="1854.39" y1="1323.84" x2="1854.39" y2="1259.04" style="stroke:#F0F0F0;stroke-width:9.72"/>
	<line x1="1854.39" y1="1226.64" x2="1854.39" y2="1161.84" style="stroke:#F0F0F0;stroke-width:9.72"/>
	<line x1="1854.39" y1="1129.44" x2="1854.39" y2="1064.64" style="stroke:#F0F0F0;stroke-width:9.72"/>
	<line x1="1854.39" y1="1032.24" x2="1854.39" y2="967.44" style="stroke:#F0F0F0;stroke-width:9.72"/>
	<line x1="1854.39" y1="935.04" x2="1854.39" y2="870.24" style="stroke:#F0F0F0;stroke-width:9.72"/>
	<line x1="1854.39" y1="837.84" x2="1854.39" y2="773.04" style="stroke:#F0F0F0;stroke-width:9.72"/>
	<line x1="1854.39" y1="740.64" x2="1854.39" y2="675.84" style="stroke:#F0F0F0;stroke-width:9.72"/>
	<line x1="1854.39" y1="643.44" x2="1854.39" y2="578.64" style="stroke:#F0F0F0;stroke-width:9.72"/>
	<line x1="1854.39" y1="546.24" x2="1854.39" y2="481.44" style="stroke:#F0F0F0;stroke-width:9.72"/>
	<line x1="1854.39" y1="449.04" x2="1854.39" y2="384.24" style="stroke:#F0F0F0;stroke-width:9.72"/>
	<line x1="1854.39" y1="351.84" x2="1854.39" y2="287.04" style="stroke:#F0F0F0;stroke-width:9.72"/>
	<line x1="2974.73" y1="2879.04" x2="2974.73" y2="2814.24" style="stroke:#F0F0F0;stroke-width:9.72"/>
	<line x1="2974.73" y1="2781.84" x2="2974.73" y2="2717.04" style="stroke:#F0F0F0;stroke-width:9.72"/>
	<line x1="2974.73" y1="2684.64" x2="2974.73" y2="2619.84" style="stroke:#F0F0F0;stroke-width:9.72"/>
	<line x1="2974.73" y1="2587.44" x2="2974.73" y2="2522.64" style="stroke:#F0F0F0;stroke-width:9.72"/>
	<line x1="2974.73" y1="2490.24" x2="2974.73" y2="2425.44" style="stroke:#F0F0F0;stroke-width:9.72"/>
	<line x1="2974.73" y1="2393.04" x2="2974.73" y2="2328.24" style="stroke:#F0F0F0;stroke-width:9.72"/>
	<line x1="2974.73" y1="2295.84" x2="2974.73" y2="2231.04" style="stroke:#F0F0F0;stroke-width:9.72"/>
	<line x1="2974.73" y1="2198.64" x2="2974.73" y2="2133.84" style="stroke:#F0F0F0;stroke-width:9.72"/>
	<line x1="2974.73" y1="2101.44" x2="2974.73" y2="2036.64" style="stroke:#F0F0F0;stroke-width:9.72"/>
	<line x1="2974.73" y1="2004.24" x2="2974.73" y2="1939.44" style="stroke:#F0F0F0;stroke-width:9.72"/>
	<line x1="2974.73" y1="1907.04" x2="2974.73" y2="1842.24" style="stroke:#F0F0F0;stroke-width:9.72"/>
	<line x1="2974.73" y1="1809.84" x2="2974.73" y2="1745.04" style="stroke:#F0F0F0;stroke-width:9.72"/>
	<line x1="2974.73" y1="1712.64" x2="2974.73" y2="1647.84" style="stroke:#F0F0F0;stroke-width:9.72"/>
	<line x1="2974.73" y1="1615.44" x2="2974.73" y2="1550.64" style="stroke:#F0F0F0;stroke-width:9.72"/>
	<line x1="2974.73" y1="1518.24" x2="2974.73" y2="1453.44" style="stroke:#F0F0F0;stroke-width:9.72"/>
	<line x1="2974.73" y1="1421.04" x2="2974.73" y2="1356.24" style="stroke:#F0F0F0;stroke-width:9.72"/>
	<line x1="2974.73" y1="1323.84" x2="2974.73" y2="1259.04" style="stroke:#F0F0F0;stroke-width:9.72"/>
	<line x1="2974.73" y1="1226.64" x2="2974.73" y2="1161.84" style="stroke:#F0F0F0;stroke-width:9.72"/>
	<line x1="2974.73" y1="1129.44" x2="2974.73" y2="1064.64" style="stroke:#F0F0F0;stroke-width:9.72"/>
	<line x1="2974.73" y1="1032.24" x2="2974.73" y2="967.44" style="stroke:#F0F0F0;stroke-width:9.72"/>
	<line x1="2974.73" y1="935.04" x2="2974.73" y2="870.24" style="stroke:#F0F0F0;stroke-width:9.72"/>
	<line x1="2974.73" y1="837.84" x2="2974.73" y2="773.04" style="stroke:#F0F0F0;stroke-width:9.72"/>
	<line x1="2974.73" y1="740.64" x2="2974.73" y2="675.84" style="stroke:#F0F0F0;stroke-width:9.72"/>
	<line x1="2974.73" y1="643.44" x2="2974.73" y2="578.64" style="stroke:#F0F0F0;stroke-width:9.72"/>
	<line x1="2974.73" y1="546.24" x2="2974.73" y2="481.44" style="stroke:#F0F0F0;stroke-width:9.72"/>
	<line x1="2974.73" y1="449.04" x2="2974.73" y2="384.24" style="stroke:#F0F0F0;stroke-width:9.72"/>
	<line x1="2974.73" y1="351.84" x2="2974.73" y2="287.04" style="stroke:#F0F0F0;stroke-width:9.72"/>
	<line x1="4095.06" y1="2879.04" x2="4095.06" y2="2814.24" style="stroke:#F0F0F0;stroke-width:9.72"/>
	<line x1="4095.06" y1="2781.84" x2="4095.06" y2="2717.04" style="stroke:#F0F0F0;stroke-width:9.72"/>
	<line x1="4095.06" y1="2684.64" x2="4095.06" y2="2619.84" style="stroke:#F0F0F0;stroke-width:9.72"/>
	<line x1="4095.06" y1="2587.44" x2="4095.06" y2="2522.64" style="stroke:#F0F0F0;stroke-width:9.72"/>
	<line x1="4095.06" y1="2490.24" x2="4095.06" y2="2425.44" style="stroke:#F0F0F0;stroke-width:9.72"/>
	<line x1="4095.06" y1="2393.04" x2="4095.06" y2="2328.24" style="stroke:#F0F0F0;stroke-width:9.72"/>
	<line x1="4095.06" y1="2295.84" x2="4095.06" y2="2231.04" style="stroke:#F0F0F0;stroke-width:9.72"/>
	<line x1="4095.06" y1="2198.64" x2="4095.06" y2="2133.84" style="stroke:#F0F0F0;stroke-width:9.72"/>
	<line x1="4095.06" y1="2101.44" x2="4095.06" y2="2036.64" style="stroke:#F0F0F0;stroke-width:9.72"/>
	<line x1="4095.06" y1="2004.24" x2="4095.06" y2="1939.44" style="stroke:#F0F0F0;stroke-width:9.72"/>
	<line x1="4095.06" y1="1907.04" x2="4095.06" y2="1842.24" style="stroke:#F0F0F0;stroke-width:9.72"/>
	<line x1="4095.06" y1="1809.84" x2="4095.06" y2="1745.04" style="stroke:#F0F0F0;stroke-width:9.72"/>
	<line x1="4095.06" y1="1712.64" x2="4095.06" y2="1647.84" style="stroke:#F0F0F0;stroke-width:9.72"/>
	<line x1="4095.06" y1="1615.44" x2="4095.06" y2="1550.64" style="stroke:#F0F0F0;stroke-width:9.72"/>
	<line x1="4095.06" y1="1518.24" x2="4095.06" y2="1453.44" style="stroke:#F0F0F0;stroke-width:9.72"/>
	<line x1="4095.06" y1="1421.04" x2="4095.06" y2="1356.24" style="stroke:#F0F0F0;stroke-width:9.72"/>
	<line x1="4095.06" y1="1323.84" x2="4095.06" y2="1259.04" style="stroke:#F0F0F0;stroke-width:9.72"/>
	<line x1="4095.06" y1="1226.64" x2="4095.06" y2="1161.84" style="stroke:#F0F0F0;stroke-width:9.72"/>
	<line x1="4095.06" y1="1129.44" x2="4095.06" y2="1064.64" style="stroke:#F0F0F0;stroke-width:9.72"/>
	<line x1="4095.06" y1="1032.24" x2="4095.06" y2="967.44" style="stroke:#F0F0F0;stroke-width:9.72"/>
	<line x1="4095.06" y1="935.04" x2="4095.06" y2="870.24" style="stroke:#F0F0F0;stroke-width:9.72"/>
	<line x1="4095.06" y1="837.84" x2="4095.06" y2="773.04" style="stroke:#F0F0F0;stroke-width:9.72"/>
	<line x1="4095.06" y1="740.64" x2="4095.06" y2="675.84" style="stroke:#F0F0F0;stroke-width:9.72"/>
	<line x1="4095.06" y1="643.44" x2="4095.06" y2="578.64" style="stroke:#F0F0F0;stroke-width:9.72"/>
	<line x1="4095.06" y1="546.24" x2="4095.06" y2="481.44" style="stroke:#F0F0F0;stroke-width:9.72"/>
	<line x1="4095.06" y1="449.04" x2="4095.06" y2="384.24" style="stroke:#F0F0F0;stroke-width:9.72"/>
	<line x1="4095.06" y1="351.84" x2="4095.06" y2="287.04" style="stroke:#F0F0F0;stroke-width:9.72"/>
	<line x1="5215.39" y1="2879.04" x2="5215.39" y2="2814.24" style="stroke:#F0F0F0;stroke-width:9.72"/>
	<line x1="5215.39" y1="2781.84" x2="5215.39" y2="2717.04" style="stroke:#F0F0F0;stroke-width:9.72"/>
	<line x1="5215.39" y1="2684.64" x2="5215.39" y2="2619.84" style="stroke:#F0F0F0;stroke-width:9.72"/>
	<line x1="5215.39" y1="2587.44" x2="5215.39" y2="2522.64" style="stroke:#F0F0F0;stroke-width:9.72"/>
	<line x1="5215.39" y1="2490.24" x2="5215.39" y2="2425.44" style="stroke:#F0F0F0;stroke-width:9.72"/>
	<line x1="5215.39" y1="2393.04" x2="5215.39" y2="2328.24" style="stroke:#F0F0F0;stroke-width:9.72"/>
	<line x1="5215.39" y1="2295.84" x2="5215.39" y2="2231.04" style="stroke:#F0F0F0;stroke-width:9.72"/>
	<line x1="5215.39" y1="2198.64" x2="5215.39" y2="2133.84" style="stroke:#F0F0F0;stroke-width:9.72"/>
	<line x1="5215.39" y1="2101.44" x2="5215.39" y2="2036.64" style="stroke:#F0F0F0;stroke-width:9.72"/>
	<line x1="5215.39" y1="2004.24" x2="5215.39" y2="1939.44" style="stroke:#F0F0F0;stroke-width:9.72"/>
	<line x1="5215.39" y1="1907.04" x2="5215.39" y2="1842.24" style="stroke:#F0F0F0;stroke-width:9.72"/>
	<line x1="5215.39" y1="1809.84" x2="5215.39" y2="1745.04" style="stroke:#F0F0F0;stroke-width:9.72"/>
	<line x1="5215.39" y1="1712.64" x2="5215.39" y2="1647.84" style="stroke:#F0F0F0;stroke-width:9.72"/>
	<line x1="5215.39" y1="1615.44" x2="5215.39" y2="1550.64" style="stroke:#F0F0F0;stroke-width:9.72"/>
	<line x1="5215.39" y1="1518.24" x2="5215.39" y2="1453.44" style="stroke:#F0F0F0;stroke-width:9.72"/>
	<line x1="5215.39" y1="1421.04" x2="5215.39" y2="1356.24" style="stroke:#F0F0F0;stroke-width:9.72"/>
	<line x1="5215.39" y1="1323.84" x2="5215.39" y2="1259.04" style="stroke:#F0F0F0;stroke-width:9.72"/>
	<line x1="5215.39" y1="1226.64" x2="5215.39" y2="1161.84" style="stroke:#F0F0F0;stroke-width:9.72"/>
	<line x1="5215.39" y1="1129.44" x2="5215.39" y2="1064.64" style="stroke:#F0F0F0;stroke-width:9.72"/>
	<line x1="5215.39" y1="1032.24" x2="5215.39" y2="967.44" style="stroke:#F0F0F0;stroke-width:9.72"/>
	<line x1="5215.39" y1="935.04" x2="5215.39" y2="870.24" style="stroke:#F0F0F0;stroke-width:9.72"/>
	<line x1="5215.39" y1="837.84" x2="5215.39" y2="773.04" style="stroke:#F0F0F0;stroke-width:9.72"/>
	<line x1="5215.39" y1="740.64" x2="5215.39" y2="675.84" style="stroke:#F0F0F0;stroke-width:9.72"/>
	<line x1="5215.39" y1="643.44" x2="5215.39" y2="578.64" style="stroke:#F0F0F0;stroke-width:9.72"/>
	<line x1="5215.39" y1="546.24" x2="5215.39" y2="481.44" style="stroke:#F0F0F0;stroke-width:9.72"/>
	<line x1="5215.39" y1="449.04" x2="5215.39" y2="384.24" style="stroke:#F0F0F0;stroke-width:9.72"/>
	<line x1="5215.39" y1="351.84" x2="5215.39" y2="287.04" style="stroke:#F0F0F0;stroke-width:9.72"/>
	<path d="
M734.06 1973.36 L734.06 1973.36 L958.16 1796.01 L1182.09 1702.18 L1406.19 1672.99 L1630.29 1456.82 L1854.39 1409.74 L2078.49 1284.19 L2302.43 1131.64 L2526.53 984.66 L2750.63 972.17 L2974.73 908.89 L3198.83 674.32 L3422.76 583.37 L3646.86 639.73 L3870.96 665.04 L4095.06 634.67 L4318.99 587.42 L4543.09 548.94 L4543.09 1573.76 L4318.99 1699.65 L4095.06 1958.18 L3870.96 2178.90 L3646.86 2387.98 L3422.76 2545.93 L3198.83 2681.94 L2974.73 2734.76 L2750.63 2633.01 L2526.53 2580.19 L2302.43 2634.36 L2078.49 2701.86 L1854.39 2681.61 L1630.29 2546.94 L1406.19 2398.61 L1182.09 2196.28 L958.16 2162.19 L734.06 2196.62 L734.06 1973.36 Z" stroke-linejoin="round" style="fill:#D9D9D9;stroke:#D0D0D0;stroke-width:0.00"/>
	<path d=" M733.89 2085.07 L957.99 1979.10 L1182.09 1949.23 L1406.19 2035.80 L1630.29 2002.05 L1854.23 2045.76 L2078.32 1993.11 L2302.43 1883.08 L2526.53 1782.51 L2750.46 1802.76 L2974.56 1821.83 L3198.66 1678.22 L3422.76 1564.65 L3646.86 1513.86 L3870.79 1422.06 L4094.89 1296.51 L4318.99 1143.62 L4543.09 1061.44" stroke-linejoin="round" style="fill:none;stroke:#000000;stroke-width:25.92"/>
	<line x1="662.68" y1="2879.04" x2="662.68" y2="264.77" style="stroke:#000000;stroke-width:6.48"/>
	<line x1="662.68" y1="2807.83" x2="617.79" y2="2807.83" style="stroke:#000000;stroke-width:6.48"/>
	<text x="595.35" y="2847.27" style="font-family:'Helvetica';font-size:112.56px;fill:#000000" text-anchor="end">-.002</text>
	<line x1="662.68" y1="2231.38" x2="617.79" y2="2231.38" style="stroke:#000000;stroke-width:6.48"/>
	<text x="595.35" y="2270.82" style="font-family:'Helvetica';font-size:112.56px;fill:#000000" text-anchor="end">0</text>
	<line x1="662.68" y1="1655.10" x2="617.79" y2="1655.10" style="stroke:#000000;stroke-width:6.48"/>
	<text x="595.35" y="1694.54" style="font-family:'Helvetica';font-size:112.56px;fill:#000000" text-anchor="end">.002</text>
	<line x1="662.68" y1="1078.65" x2="617.79" y2="1078.65" style="stroke:#000000;stroke-width:6.48"/>
	<text x="595.35" y="1118.09" style="font-family:'Helvetica';font-size:112.56px;fill:#000000" text-anchor="end">.004</text>
	<line x1="662.68" y1="502.20" x2="617.79" y2="502.20" style="stroke:#000000;stroke-width:6.48"/>
	<text x="595.35" y="541.64" style="font-family:'Helvetica';font-size:112.56px;fill:#000000" text-anchor="end">.006</text>
	<text x="214.55" y="1571.91" style="font-family:'Helvetica';font-size:112.56px;fill:#000000" transform="rotate(-90 214.55,1571.91)" text-anchor="middle">Inflación</text>
	<line x1="662.68" y1="2879.04" x2="5286.60" y2="2879.04" style="stroke:#000000;stroke-width:6.48"/>
	<line x1="734.06" y1="2879.04" x2="734.06" y2="2924.10" style="stroke:#000000;stroke-width:6.48"/>
	<text x="734.06" y="3025.25" style="font-family:'Helvetica';font-size:112.56px;fill:#000000" text-anchor="middle">0</text>
	<line x1="1854.39" y1="2879.04" x2="1854.39" y2="2924.10" style="stroke:#000000;stroke-width:6.48"/>
	<text x="1854.39" y="3025.25" style="font-family:'Helvetica';font-size:112.56px;fill:#000000" text-anchor="middle">5</text>
	<line x1="2974.73" y1="2879.04" x2="2974.73" y2="2924.10" style="stroke:#000000;stroke-width:6.48"/>
	<text x="2974.73" y="3025.25" style="font-family:'Helvetica';font-size:112.56px;fill:#000000" text-anchor="middle">10</text>
	<line x1="4095.06" y1="2879.04" x2="4095.06" y2="2924.10" style="stroke:#000000;stroke-width:6.48"/>
	<text x="4095.06" y="3025.25" style="font-family:'Helvetica';font-size:112.56px;fill:#000000" text-anchor="middle">15</text>
	<line x1="5215.39" y1="2879.04" x2="5215.39" y2="2924.10" style="stroke:#000000;stroke-width:6.48"/>
	<text x="5215.39" y="3025.25" style="font-family:'Helvetica';font-size:112.56px;fill:#000000" text-anchor="middle">20</text>
	<text x="2974.73" y="211.51" style="font-family:'Helvetica';font-size:112.56px;fill:#000000" text-anchor="middle">Coeficiente en el término de interacción</text>
</svg>
