<?xml version="1.0" encoding="UTF-8" standalone="no"?>
<!-- This is a Stata 18.0 generated SVG file (http://www.stata.com) -->

<svg version="1.1" width="6.000in" height="4.000in" viewBox="0 0 4320 2880" xmlns="http://www.w3.org/2000/svg" xmlns:xlink="http://www.w3.org/1999/xlink">
	<desc>Stata Graph - Graph</desc>
	<rect x="0" y="0" width="4320" height="2880" style="fill:#FFFFFF;stroke:none"/>
	<rect x="0.00" y="0.00" width="4320.00" height="2880.00" style="fill:#FFFFFF"/>
	<rect x="2.88" y="2.88" width="4314.24" height="2874.24" style="fill:none;stroke:#FFFFFF;stroke-width:5.76"/>
	<rect x="612.50" y="275.40" width="3606.66" height="2183.79" style="fill:#FFFFFF"/>
	<rect x="615.37" y="278.28" width="3600.90" height="2178.03" style="fill:none;stroke:#000000;stroke-width:5.76"/>
	<path d=" M809.60 1593.70 L820.80 1542.26 L831.87 1531.87 L843.08 1521.61 L854.15 1511.35 L865.35 1501.09 L876.56 1490.83 L887.63 1480.43 L898.83 1449.65 L909.90 1418.74 L921.11 1398.22 L932.31 1418.74 L943.38 1398.22 L954.59 1490.83 L965.79 1521.61 L976.86 1521.61 L988.07 1501.09 L999.14 1511.35 L1010.34 1552.52 L1021.55 1490.83 L1032.62 1480.43 L1043.82 1531.87 L1055.03 1562.78 L1066.10 1614.22 L1077.30 1655.40 L1088.37 1624.48 L1099.58 1614.22 L1110.78 1624.48 L1121.85 1665.66 L1133.06 1675.92 L1144.26 1614.22 L1155.33 1655.40 L1166.54 1645.00 L1177.61 1573.04 L1188.81 1573.04 L1200.02 1593.70 L1211.09 1573.04 L1222.29 1490.83 L1233.36 1418.74 L1244.57 1470.17 L1255.77 1521.61 L1266.84 1511.35 L1278.05 1562.78 L1289.25 1583.30 L1300.32 1655.40 L1311.53 1758.27 L1322.60 1778.79 L1333.80 1768.53 L1345.01 1799.31 L1356.08 1881.66 L1367.28 1953.62 L1378.49 1912.44 L1389.56 1819.96 L1400.76 1768.53 L1411.83 1737.61 L1423.04 1717.09 L1434.24 1727.35 L1445.31 1686.18 L1456.52 1624.48 L1467.72 1634.74 L1478.79 1645.00 L1490.00 1655.40 L1501.07 1634.74 L1512.27 1583.30 L1523.48 1603.96 L1534.55 1603.96 L1545.75 1562.78 L1556.82 1573.04 L1568.03 1480.43 L1579.23 1459.91 L1590.30 1511.35 L1601.51 1501.09 L1612.71 1459.91 L1623.78 1459.91 L1634.99 1470.17 L1646.06 1490.83 L1657.26 1501.09 L1668.47 1480.43 L1679.54 1490.83 L1690.74 1490.83 L1701.95 1593.70 L1713.02 1665.66 L1724.22 1665.66 L1735.29 1614.22 L1746.50 1593.70 L1757.70 1603.96 L1768.77 1614.22 L1779.98 1624.48 L1791.18 1583.30 L1802.25 1552.52 L1813.46 1490.83 L1824.53 1398.22 L1835.73 1285.09 L1846.94 1213.13 L1858.01 1120.52 L1869.21 1079.34 L1880.28 1110.26 L1891.49 1048.56 L1902.69 1007.39 L1913.76 1027.91 L1924.97 966.21 L1936.17 904.51 L1947.24 904.51 L1958.45 925.03 L1969.52 935.29 L1980.72 863.34 L1991.93 966.21 L2003.00 1151.30 L2014.20 1233.65 L2025.41 1315.87 L2036.48 1367.30 L2047.68 1418.74 L2058.75 1573.04 L2069.96 1686.18 L2081.16 1850.74 L2092.23 1984.53 L2103.44 1994.79 L2114.51 2077.01 L2125.71 2118.18 L2136.92 2025.57 L2147.99 2015.31 L2159.19 1850.74 L2170.40 1850.74 L2181.47 1789.05 L2192.67 1727.35 L2203.74 1758.27 L2214.95 1645.00 L2226.15 1614.22 L2237.22 1686.18 L2248.43 1675.92 L2259.63 1624.48 L2270.70 1573.04 L2281.91 1603.96 L2292.98 1603.96 L2304.18 1531.87 L2315.39 1552.52 L2326.46 1542.26 L2337.66 1531.87 L2348.86 1583.30 L2359.94 1552.52 L2371.14 1542.26 L2382.21 1501.09 L2393.42 1480.43 L2404.62 1429.13 L2415.69 1449.65 L2426.90 1429.13 L2437.97 1490.83 L2449.17 1521.61 L2460.38 1562.78 L2471.45 1603.96 L2482.65 1624.48 L2493.86 1614.22 L2504.93 1593.70 L2516.13 1583.30 L2527.20 1665.66 L2538.41 1727.35 L2549.61 1717.09 L2560.68 1747.87 L2571.89 1727.35 L2583.09 1778.79 L2594.16 1789.05 L2605.36 1686.18 L2616.44 1655.40 L2627.64 1655.40 L2638.85 1675.92 L2649.92 1727.35 L2661.12 1634.74 L2672.33 1573.04 L2683.40 1593.70 L2694.60 1552.52 L2705.67 1521.61 L2716.88 1439.39 L2728.08 1398.22 L2739.15 1439.39 L2750.36 1418.74 L2761.43 1418.74 L2772.63 1377.70 L2783.84 1295.35 L2794.91 1315.87 L2806.11 1408.48 L2817.32 1418.74 L2828.39 1429.13 L2839.59 1449.65 L2850.66 1459.91 L2861.87 1470.17 L2873.07 1429.13 L2884.14 1408.48 L2895.35 1367.30 L2906.55 1408.48 L2917.62 1470.17 L2928.83 1480.43 L2939.90 1429.13 L2951.10 1387.96 L2962.31 1398.22 L2973.38 1418.74 L2984.58 1449.65 L2995.65 1449.65 L3006.86 1449.65 L3018.06 1470.17 L3029.13 1531.87 L3040.34 1562.78 L3051.54 1593.70 L3062.61 1583.30 L3073.82 1603.96 L3084.89 1593.70 L3096.09 1603.96 L3107.30 1603.96 L3118.37 1603.96 L3129.57 1614.22 L3140.78 1706.83 L3151.85 1706.83 L3163.05 1686.18 L3174.12 1727.35 L3185.33 1686.18 L3196.53 1686.18 L3207.60 1645.00 L3218.81 1655.40 L3230.01 1675.92 L3241.08 1696.44 L3252.29 1686.18 L3263.36 1675.92 L3274.56 1624.48 L3285.77 1603.96 L3296.84 1614.22 L3308.04 1562.78 L3319.11 1583.30 L3330.32 1593.70 L3341.52 1614.22 L3352.59 1696.44 L3363.80 1706.83 L3375.00 1675.92 L3386.07 1675.92 L3397.28 1645.00 L3408.35 1645.00 L3419.55 1655.40 L3430.76 1645.00 L3441.83 1665.66 L3453.03 1624.48 L3464.24 1603.96 L3475.31 1573.04 L3486.51 1521.61 L3497.58 1480.43 L3508.79 1501.09 L3519.99 1531.87 L3531.06 1593.70 L3542.27 1614.22 L3553.47 1624.48 L3564.54 1634.74 L3575.75 1562.78 L3586.82 1573.04 L3598.02 1603.96 L3609.23 1573.04 L3620.30 1562.78 L3631.50 1593.70 L3642.57 1583.30 L3653.78 1542.26 L3664.98 1511.35 L3676.05 1490.83 L3687.26 1418.74 L3698.46 1387.96 L3709.53 1336.52 L3720.74 1264.43 L3731.81 1192.47 L3743.01 1141.04 L3754.22 1089.60 L3765.29 1079.34 L3776.49 914.77 L3787.70 801.64 L3798.77 698.77 L3809.97 595.90 L3821.04 534.20 L3832.25 431.33 L3843.45 472.51 L3854.52 565.12 L3865.73 513.68 L3876.93 565.12 L3888.00 616.55 L3899.21 657.60 L3910.28 739.95 L3921.48 863.34 L3932.69 986.73 L3943.76 1099.86 L3954.96 1213.13 L3966.03 1336.52 L3977.24 1357.04 L3988.44 1367.30" stroke-linejoin="round" style="fill:none;stroke:#0080FF;stroke-width:8.64"/>
	<line x1="612.50" y1="2459.20" x2="612.50" y2="275.40" style="stroke:#000000;stroke-width:5.76"/>
	<line x1="612.50" y1="2395.88" x2="572.40" y2="2395.88" style="stroke:#000000;stroke-width:5.76"/>
	<text x="552.42" y="2430.93" style="font-family:'Helvetica';font-size:100.04px;fill:#000000" text-anchor="end">-5.00</text>
	<line x1="612.50" y1="1881.52" x2="572.40" y2="1881.52" style="stroke:#000000;stroke-width:5.76"/>
	<text x="552.42" y="1916.57" style="font-family:'Helvetica';font-size:100.04px;fill:#000000" text-anchor="end">0.00</text>
	<line x1="612.50" y1="1367.30" x2="572.40" y2="1367.30" style="stroke:#000000;stroke-width:5.76"/>
	<text x="552.42" y="1402.35" style="font-family:'Helvetica';font-size:100.04px;fill:#000000" text-anchor="end">5.00</text>
	<line x1="612.50" y1="852.94" x2="572.40" y2="852.94" style="stroke:#000000;stroke-width:5.76"/>
	<text x="552.42" y="887.99" style="font-family:'Helvetica';font-size:100.04px;fill:#000000" text-anchor="end">10.00</text>
	<line x1="612.50" y1="338.72" x2="572.40" y2="338.72" style="stroke:#000000;stroke-width:5.76"/>
	<text x="552.42" y="373.77" style="font-family:'Helvetica';font-size:100.04px;fill:#000000" text-anchor="end">15.00</text>
	<text x="190.78" y="1367.30" style="font-family:'Helvetica';font-size:100.04px;fill:#000000" transform="rotate(-90 190.78,1367.30)" text-anchor="middle">IPC</text>
	<line x1="612.50" y1="2459.20" x2="4219.16" y2="2459.20" style="stroke:#000000;stroke-width:5.76"/>
	<line x1="809.60" y1="2459.20" x2="809.60" y2="2499.16" style="stroke:#000000;stroke-width:5.76"/>
	<text x="809.60" y="2589.10" style="font-family:'Helvetica';font-size:100.04px;fill:#000000" text-anchor="middle">2000m1</text>
	<line x1="1478.93" y1="2459.20" x2="1478.93" y2="2499.16" style="stroke:#000000;stroke-width:5.76"/>
	<text x="1478.93" y="2589.10" style="font-family:'Helvetica';font-size:100.04px;fill:#000000" text-anchor="middle">2005m1</text>
	<line x1="2148.12" y1="2459.20" x2="2148.12" y2="2499.16" style="stroke:#000000;stroke-width:5.76"/>
	<text x="2148.12" y="2589.10" style="font-family:'Helvetica';font-size:100.04px;fill:#000000" text-anchor="middle">2010m1</text>
	<line x1="2817.32" y1="2459.20" x2="2817.32" y2="2499.16" style="stroke:#000000;stroke-width:5.76"/>
	<text x="2817.32" y="2589.10" style="font-family:'Helvetica';font-size:100.04px;fill:#000000" text-anchor="middle">2015m1</text>
	<line x1="3486.51" y1="2459.20" x2="3486.51" y2="2499.16" style="stroke:#000000;stroke-width:5.76"/>
	<text x="3486.51" y="2589.10" style="font-family:'Helvetica';font-size:100.04px;fill:#000000" text-anchor="middle">2020m1</text>
	<line x1="4155.84" y1="2459.20" x2="4155.84" y2="2499.16" style="stroke:#000000;stroke-width:5.76"/>
	<text x="4155.84" y="2589.10" style="font-family:'Helvetica';font-size:100.04px;fill:#000000" text-anchor="middle">2025m1</text>
	<text x="2415.82" y="2729.09" style="font-family:'Helvetica';font-size:100.04px;fill:#000000" text-anchor="middle">Fecha</text>
	<text x="2415.82" y="216.06" style="font-family:'Helvetica';font-size:140.00px;fill:#000000" text-anchor="middle">IPC</text>
</svg>
