<?xml version="1.0" encoding="UTF-8" standalone="no"?>
<!-- This is a Stata 18.0 generated SVG file (http://www.stata.com) -->

<svg version="1.1" width="6.000in" height="4.000in" viewBox="0 0 4320 2880" xmlns="http://www.w3.org/2000/svg" xmlns:xlink="http://www.w3.org/1999/xlink">
	<desc>Stata Graph - Graph</desc>
	<rect x="0" y="0" width="4320" height="2880" style="fill:#FFFFFF;stroke:none"/>
	<rect x="0.00" y="0.00" width="4320.00" height="2880.00" style="fill:#FFFFFF"/>
	<rect x="2.88" y="2.88" width="4314.24" height="2874.24" style="fill:none;stroke:#FFFFFF;stroke-width:5.76"/>
	<rect x="495.72" y="275.40" width="3723.43" height="2183.79" style="fill:#FFFFFF"/>
	<rect x="498.60" y="278.28" width="3717.68" height="2178.03" style="fill:none;stroke:#000000;stroke-width:5.76"/>
	<path d=" M697.41 2169.21 L708.89 2168.00 L720.50 2167.73 L731.97 2162.60 L743.58 2153.01 L755.06 2175.83 L766.53 2140.19 L778.14 2127.63 L789.62 2128.17 L801.09 2119.40 L812.70 2107.11 L824.18 2097.53 L835.79 2109.14 L847.26 2092.67 L858.74 2079.44 L870.35 2086.05 L881.82 2074.44 L893.43 2061.21 L904.91 2082.95 L916.38 2073.77 L927.99 2079.44 L939.47 2069.18 L951.08 2059.05 L962.55 2069.45 L974.03 2041.10 L985.64 2053.92 L997.11 2051.22 L1008.72 2026.92 L1020.20 2041.64 L1031.67 2027.87 L1043.28 2020.58 L1054.76 2011.67 L1066.23 1997.09 L1077.84 1988.45 L1089.32 1979.54 L1100.93 1972.38 L1112.40 1955.51 L1123.88 1945.79 L1135.48 1951.86 L1146.96 1936.07 L1158.57 1931.21 L1170.05 1921.08 L1181.52 1916.35 L1193.13 1920.95 L1204.61 1910.41 L1216.21 1905.42 L1227.69 1906.50 L1239.17 1902.45 L1250.78 1877.61 L1262.25 1865.19 L1273.72 1843.05 L1285.34 1830.90 L1296.81 1822.12 L1308.42 1815.24 L1319.90 1776.22 L1331.37 1770.69 L1342.98 1761.78 L1354.46 1739.77 L1366.07 1736.40 L1377.54 1733.16 L1389.02 1737.07 L1400.63 1742.34 L1412.10 1723.03 L1423.71 1700.62 L1435.19 1710.48 L1446.66 1689.69 L1458.27 1676.32 L1469.75 1630.56 L1481.36 1645.81 L1492.83 1653.64 L1504.31 1621.24 L1515.92 1604.23 L1527.39 1620.30 L1538.87 1597.07 L1550.48 1605.85 L1561.95 1583.71 L1573.56 1558.60 L1585.04 1554.14 L1596.51 1552.66 L1608.12 1541.72 L1619.60 1518.64 L1631.21 1496.90 L1642.68 1500.28 L1654.16 1485.43 L1665.77 1491.37 L1677.24 1486.24 L1688.85 1442.23 L1700.33 1453.03 L1711.80 1451.54 L1723.41 1452.62 L1734.89 1476.38 L1746.36 1446.55 L1757.97 1417.66 L1769.45 1427.38 L1781.06 1411.18 L1792.53 1386.88 L1804.01 1381.34 L1815.62 1357.04 L1827.09 1358.26 L1838.70 1367.98 L1850.18 1369.06 L1861.65 1353.53 L1873.26 1348.81 L1884.74 1411.99 L1896.35 1380.67 L1907.82 1377.83 L1919.30 1419.68 L1930.91 1393.36 L1942.38 1404.97 L1953.99 1408.21 L1965.47 1407.53 L1976.94 1415.09 L1988.55 1421.57 L2000.03 1420.22 L2011.50 1409.69 L2023.11 1395.92 L2034.59 1378.10 L2046.20 1375.81 L2057.67 1374.32 L2069.15 1357.99 L2080.76 1350.43 L2092.23 1328.56 L2103.84 1409.96 L2115.32 1293.59 L2126.79 1304.53 L2138.40 1284.14 L2149.88 1252.55 L2161.49 1247.42 L2172.96 1239.05 L2184.44 1237.16 L2196.05 1208.54 L2207.52 1220.42 L2219.00 1205.16 L2230.61 1205.84 L2242.08 1183.43 L2253.69 1168.04 L2265.17 1168.98 L2276.64 1169.39 L2288.25 1166.01 L2299.73 1153.05 L2311.34 1147.79 L2322.81 1129.43 L2334.29 1122.54 L2345.90 1082.58 L2357.37 1086.23 L2368.98 1070.16 L2380.46 1052.34 L2391.93 1035.87 L2403.54 1034.39 L2415.02 1025.07 L2426.63 1014.41 L2438.10 1011.17 L2449.57 1021.97 L2461.19 1013.19 L2472.66 1000.50 L2484.14 997.40 L2495.75 981.33 L2507.22 997.13 L2518.83 982.68 L2530.30 978.36 L2541.78 973.37 L2553.39 956.89 L2564.86 954.19 L2576.48 953.25 L2587.95 960.54 L2599.43 949.47 L2611.04 942.72 L2622.51 958.78 L2634.12 955.68 L2645.60 938.67 L2657.07 938.13 L2668.68 925.30 L2680.16 923.01 L2691.63 934.08 L2703.24 941.23 L2714.72 932.32 L2726.33 934.89 L2737.80 912.61 L2749.28 922.60 L2760.89 907.75 L2772.36 893.44 L2783.97 900.73 L2795.45 908.83 L2806.92 880.75 L2818.53 886.29 L2830.01 878.73 L2841.62 886.29 L2853.09 903.97 L2864.57 875.62 L2876.18 874.68 L2887.65 879.67 L2899.13 872.92 L2910.74 854.02 L2922.21 844.71 L2933.82 857.13 L2945.30 865.77 L2956.77 863.74 L2968.38 855.10 L2979.86 850.78 L2991.47 850.65 L3002.94 841.47 L3014.42 857.67 L3026.03 850.51 L3037.50 846.46 L3049.11 853.08 L3060.59 867.39 L3072.06 872.92 L3083.67 849.84 L3095.15 835.66 L3106.76 826.75 L3118.23 808.39 L3129.71 798.27 L3141.32 786.79 L3152.79 791.92 L3164.27 779.37 L3175.88 781.66 L3187.35 769.65 L3198.96 770.32 L3210.44 753.58 L3221.91 740.49 L3233.52 729.82 L3245.00 734.14 L3256.61 737.25 L3268.08 746.70 L3279.56 741.03 L3291.17 719.97 L3302.64 704.04 L3314.25 729.01 L3325.73 722.13 L3337.20 742.92 L3348.81 716.46 L3360.29 695.26 L3371.76 691.75 L3383.37 711.60 L3394.85 706.74 L3406.46 678.79 L3417.93 703.36 L3429.41 800.83 L3441.02 804.61 L3452.49 741.16 L3464.10 690.67 L3475.58 690.13 L3487.05 809.88 L3498.66 981.60 L3510.14 1028.45 L3521.75 1041.95 L3533.22 989.16 L3544.70 924.36 L3556.31 855.37 L3567.78 828.78 L3579.39 799.21 L3590.87 744.67 L3602.34 718.35 L3613.95 687.84 L3625.43 706.60 L3636.90 722.13 L3648.51 671.50 L3659.99 642.34 L3671.60 610.34 L3683.07 594.82 L3694.55 574.70 L3706.16 559.31 L3717.63 535.42 L3729.24 547.16 L3740.72 572.41 L3752.19 569.17 L3763.80 549.32 L3775.28 576.46 L3786.89 558.50 L3798.36 572.14 L3809.84 618.44 L3821.45 574.43 L3832.92 584.42 L3844.40 577.27 L3856.01 597.11 L3867.48 601.03 L3879.09 577.00 L3890.57 583.07 L3902.04 589.01 L3913.65 586.85 L3925.13 597.11 L3936.74 590.50 L3948.21 582.53 L3959.69 594.14 L3971.30 581.32" stroke-linejoin="round" style="fill:none;stroke:#1A85FF;stroke-width:8.64"/>
	<line x1="495.72" y1="2459.20" x2="495.72" y2="275.40" style="stroke:#000000;stroke-width:5.76"/>
	<line x1="495.72" y1="2395.88" x2="455.76" y2="2395.88" style="stroke:#000000;stroke-width:5.76"/>
	<text x="435.78" y="2430.93" style="font-family:'Helvetica';font-size:100.04px;fill:#000000" text-anchor="end">3.8</text>
	<line x1="495.72" y1="1984.40" x2="455.76" y2="1984.40" style="stroke:#000000;stroke-width:5.76"/>
	<text x="435.78" y="2019.44" style="font-family:'Helvetica';font-size:100.04px;fill:#000000" text-anchor="end">4</text>
	<line x1="495.72" y1="1573.04" x2="455.76" y2="1573.04" style="stroke:#000000;stroke-width:5.76"/>
	<text x="435.78" y="1608.09" style="font-family:'Helvetica';font-size:100.04px;fill:#000000" text-anchor="end">4.2</text>
	<line x1="495.72" y1="1161.56" x2="455.76" y2="1161.56" style="stroke:#000000;stroke-width:5.76"/>
	<text x="435.78" y="1196.60" style="font-family:'Helvetica';font-size:100.04px;fill:#000000" text-anchor="end">4.4</text>
	<line x1="495.72" y1="750.21" x2="455.76" y2="750.21" style="stroke:#000000;stroke-width:5.76"/>
	<text x="435.78" y="785.25" style="font-family:'Helvetica';font-size:100.04px;fill:#000000" text-anchor="end">4.6</text>
	<line x1="495.72" y1="338.72" x2="455.76" y2="338.72" style="stroke:#000000;stroke-width:5.76"/>
	<text x="435.78" y="373.77" style="font-family:'Helvetica';font-size:100.04px;fill:#000000" text-anchor="end">4.8</text>
	<text x="190.78" y="1367.30" style="font-family:'Helvetica';font-size:100.04px;fill:#000000" transform="rotate(-90 190.78,1367.30)" text-anchor="middle">log(Imacec)</text>
	<line x1="495.72" y1="2459.20" x2="4219.16" y2="2459.20" style="stroke:#000000;stroke-width:5.76"/>
	<line x1="697.41" y1="2459.20" x2="697.41" y2="2499.16" style="stroke:#000000;stroke-width:5.76"/>
	<text x="697.41" y="2589.10" style="font-family:'Helvetica';font-size:100.04px;fill:#000000" text-anchor="middle">2000m1</text>
	<line x1="1389.15" y1="2459.20" x2="1389.15" y2="2499.16" style="stroke:#000000;stroke-width:5.76"/>
	<text x="1389.15" y="2589.10" style="font-family:'Helvetica';font-size:100.04px;fill:#000000" text-anchor="middle">2005m1</text>
	<line x1="2080.76" y1="2459.20" x2="2080.76" y2="2499.16" style="stroke:#000000;stroke-width:5.76"/>
	<text x="2080.76" y="2589.10" style="font-family:'Helvetica';font-size:100.04px;fill:#000000" text-anchor="middle">2010m1</text>
	<line x1="2772.50" y1="2459.20" x2="2772.50" y2="2499.16" style="stroke:#000000;stroke-width:5.76"/>
	<text x="2772.50" y="2589.10" style="font-family:'Helvetica';font-size:100.04px;fill:#000000" text-anchor="middle">2015m1</text>
	<line x1="3464.10" y1="2459.20" x2="3464.10" y2="2499.16" style="stroke:#000000;stroke-width:5.76"/>
	<text x="3464.10" y="2589.10" style="font-family:'Helvetica';font-size:100.04px;fill:#000000" text-anchor="middle">2020m1</text>
	<line x1="4155.84" y1="2459.20" x2="4155.84" y2="2499.16" style="stroke:#000000;stroke-width:5.76"/>
	<text x="4155.84" y="2589.10" style="font-family:'Helvetica';font-size:100.04px;fill:#000000" text-anchor="middle">2025m1</text>
	<text x="2357.51" y="2729.09" style="font-family:'Helvetica';font-size:100.04px;fill:#000000" text-anchor="middle">Fecha</text>
	<text x="2357.51" y="216.06" style="font-family:'Helvetica';font-size:140.00px;fill:#000000" text-anchor="middle">IMACEC Desestacionalizado</text>
</svg>
