<?xml version="1.0" encoding="UTF-8" standalone="no"?>
<!-- This is a Stata 18.0 generated SVG file (http://www.stata.com) -->

<svg version="1.1" width="6.000in" height="4.000in" viewBox="0 0 4320 2880" xmlns="http://www.w3.org/2000/svg" xmlns:xlink="http://www.w3.org/1999/xlink">
	<desc>Stata Graph - Graph</desc>
	<rect x="0" y="0" width="4320" height="2880" style="fill:#FFFFFF;stroke:none"/>
	<rect x="0.00" y="0.00" width="4320.00" height="2880.00" style="fill:#FFFFFF"/>
	<rect x="2.88" y="2.88" width="4314.24" height="2874.24" style="fill:none;stroke:#FFFFFF;stroke-width:5.76"/>
	<rect x="495.72" y="275.40" width="3723.43" height="2183.79" style="fill:#FFFFFF"/>
	<rect x="498.60" y="278.28" width="3717.68" height="2178.03" style="fill:none;stroke:#000000;stroke-width:5.76"/>
	<path d=" M697.41 2372.66 L708.89 2369.56 L720.50 2367.80 L731.97 2365.64 L743.58 2350.12 L755.06 2376.04 L766.53 2342.96 L778.14 2327.17 L789.62 2328.11 L801.09 2319.20 L812.70 2308.54 L824.18 2296.12 L835.79 2307.86 L847.26 2291.39 L858.74 2280.19 L870.35 2284.51 L881.82 2273.30 L893.43 2261.56 L904.91 2285.72 L916.38 2274.92 L927.99 2280.05 L939.47 2270.60 L951.08 2255.75 L962.55 2266.96 L974.03 2237.39 L985.64 2246.84 L997.11 2246.30 L1008.72 2219.43 L1020.20 2236.04 L1031.67 2221.05 L1043.28 2209.04 L1054.76 2203.91 L1066.23 2188.25 L1077.84 2179.34 L1089.32 2174.34 L1100.93 2169.21 L1112.40 2148.96 L1123.88 2147.75 L1135.48 2146.67 L1146.96 2125.74 L1158.57 2122.50 L1170.05 2114.00 L1181.52 2115.21 L1193.13 2104.41 L1204.61 2097.66 L1216.21 2090.78 L1227.69 2091.72 L1239.17 2081.19 L1250.78 2060.67 L1262.25 2046.50 L1273.72 2021.93 L1285.34 2013.02 L1296.81 2002.49 L1308.42 1994.39 L1319.90 1957.67 L1331.37 1951.19 L1342.98 1936.88 L1354.46 1915.00 L1366.07 1908.52 L1377.54 1900.56 L1389.02 1896.37 L1400.63 1893.94 L1412.10 1881.25 L1423.71 1840.08 L1435.19 1853.98 L1446.66 1825.23 L1458.27 1817.40 L1469.75 1798.23 L1481.36 1786.35 L1492.83 1792.96 L1504.31 1769.07 L1515.92 1749.90 L1527.39 1753.81 L1538.87 1741.26 L1550.48 1739.64 L1561.95 1722.49 L1573.56 1688.07 L1585.04 1685.77 L1596.51 1686.18 L1608.12 1667.14 L1619.60 1645.54 L1631.21 1631.23 L1642.68 1628.26 L1654.16 1610.85 L1665.77 1623.54 L1677.24 1603.42 L1688.85 1594.24 L1700.33 1581.55 L1711.80 1576.96 L1723.41 1578.44 L1734.89 1565.75 L1746.36 1561.16 L1757.97 1561.30 L1769.45 1522.01 L1781.06 1499.20 L1792.53 1486.64 L1804.01 1468.82 L1815.62 1445.87 L1827.09 1444.52 L1838.70 1436.96 L1850.18 1442.90 L1861.65 1429.54 L1873.26 1443.98 L1884.74 1440.61 L1896.35 1426.57 L1907.82 1439.53 L1919.30 1458.29 L1930.91 1470.58 L1942.38 1468.55 L1953.99 1464.77 L1965.47 1470.71 L1976.94 1486.64 L1988.55 1495.69 L2000.03 1494.61 L2011.50 1474.36 L2023.11 1472.33 L2034.59 1468.28 L2046.20 1457.62 L2057.67 1458.16 L2069.15 1431.56 L2080.76 1406.86 L2092.23 1408.07 L2103.84 1492.45 L2115.32 1374.05 L2126.79 1357.45 L2138.40 1358.53 L2149.88 1324.10 L2161.49 1313.84 L2172.96 1307.23 L2184.44 1293.86 L2196.05 1272.53 L2207.52 1262.94 L2219.00 1239.45 L2230.61 1228.92 L2242.08 1215.83 L2253.69 1205.57 L2265.17 1192.47 L2276.64 1185.45 L2288.25 1174.65 L2299.73 1168.98 L2311.34 1151.97 L2322.81 1150.62 L2334.29 1132.67 L2345.90 1107.02 L2357.37 1101.48 L2368.98 1081.91 L2380.46 1066.65 L2391.93 1055.58 L2403.54 1043.03 L2415.02 1025.48 L2426.63 1010.36 L2438.10 1022.91 L2449.57 1029.93 L2461.19 1021.16 L2472.66 1014.00 L2484.14 1010.90 L2495.75 999.96 L2507.22 1006.98 L2518.83 999.96 L2530.30 993.21 L2541.78 984.03 L2553.39 976.74 L2564.86 970.40 L2576.48 972.42 L2587.95 979.04 L2599.43 968.64 L2611.04 964.19 L2622.51 975.12 L2634.12 970.94 L2645.60 961.22 L2657.07 954.19 L2668.68 950.82 L2680.16 945.82 L2691.63 954.33 L2703.24 957.70 L2714.72 946.63 L2726.33 949.47 L2737.80 930.03 L2749.28 935.43 L2760.89 928.00 L2772.36 929.49 L2783.97 919.50 L2795.45 923.68 L2806.92 900.73 L2818.53 904.11 L2830.01 900.73 L2841.62 887.10 L2853.09 893.58 L2864.57 878.46 L2876.18 879.00 L2887.65 877.78 L2899.13 875.08 L2910.74 861.31 L2922.21 853.62 L2933.82 866.85 L2945.30 868.33 L2956.77 871.30 L2968.38 855.64 L2979.86 850.51 L2991.47 849.43 L3002.94 838.50 L3014.42 850.78 L3026.03 850.78 L3037.50 842.41 L3049.11 851.73 L3060.59 850.11 L3072.06 843.90 L3083.67 842.14 L3095.15 830.94 L3106.76 818.52 L3118.23 807.58 L3129.71 804.48 L3141.32 789.09 L3152.79 802.05 L3164.27 781.53 L3175.88 778.29 L3187.35 771.94 L3198.96 777.75 L3210.44 757.23 L3221.91 736.98 L3233.52 729.28 L3245.00 729.01 L3256.61 739.95 L3268.08 741.57 L3279.56 738.46 L3291.17 710.65 L3302.64 715.11 L3314.25 728.07 L3325.73 711.33 L3337.20 725.91 L3348.81 704.71 L3360.29 683.52 L3371.76 674.20 L3383.37 696.88 L3394.85 698.37 L3406.46 678.79 L3417.93 697.83 L3429.41 797.05 L3441.02 803.53 L3452.49 739.00 L3464.10 680.95 L3475.58 683.52 L3487.05 810.69 L3498.66 999.56 L3510.14 1049.51 L3521.75 1064.63 L3533.22 1012.79 L3544.70 943.80 L3556.31 860.10 L3567.78 829.05 L3579.39 796.92 L3590.87 726.04 L3602.34 701.20 L3613.95 665.70 L3625.43 693.91 L3636.90 723.21 L3648.51 654.76 L3659.99 620.33 L3671.60 585.91 L3683.07 568.49 L3694.55 528.67 L3706.16 522.59 L3717.63 496.40 L3729.24 499.24 L3740.72 512.33 L3752.19 508.96 L3763.80 508.15 L3775.28 524.21 L3786.89 524.48 L3798.36 525.70 L3809.84 568.63 L3821.45 521.65 L3832.92 528.26 L3844.40 540.41 L3856.01 548.24 L3867.48 552.16 L3879.09 535.15 L3890.57 530.02 L3902.04 532.85 L3913.65 546.22 L3925.13 543.92 L3936.74 551.21 L3948.21 537.04 L3959.69 549.59 L3971.30 544.87" stroke-linejoin="round" style="fill:none;stroke:#1A85FF;stroke-width:8.64"/>
	<line x1="495.72" y1="2459.20" x2="495.72" y2="275.40" style="stroke:#000000;stroke-width:5.76"/>
	<line x1="495.72" y1="2395.88" x2="455.76" y2="2395.88" style="stroke:#000000;stroke-width:5.76"/>
	<text x="435.78" y="2430.93" style="font-family:'Helvetica';font-size:100.04px;fill:#000000" text-anchor="end">3.8</text>
	<line x1="495.72" y1="1984.40" x2="455.76" y2="1984.40" style="stroke:#000000;stroke-width:5.76"/>
	<text x="435.78" y="2019.44" style="font-family:'Helvetica';font-size:100.04px;fill:#000000" text-anchor="end">4</text>
	<line x1="495.72" y1="1573.04" x2="455.76" y2="1573.04" style="stroke:#000000;stroke-width:5.76"/>
	<text x="435.78" y="1608.09" style="font-family:'Helvetica';font-size:100.04px;fill:#000000" text-anchor="end">4.2</text>
	<line x1="495.72" y1="1161.56" x2="455.76" y2="1161.56" style="stroke:#000000;stroke-width:5.76"/>
	<text x="435.78" y="1196.60" style="font-family:'Helvetica';font-size:100.04px;fill:#000000" text-anchor="end">4.4</text>
	<line x1="495.72" y1="750.21" x2="455.76" y2="750.21" style="stroke:#000000;stroke-width:5.76"/>
	<text x="435.78" y="785.25" style="font-family:'Helvetica';font-size:100.04px;fill:#000000" text-anchor="end">4.6</text>
	<line x1="495.72" y1="338.72" x2="455.76" y2="338.72" style="stroke:#000000;stroke-width:5.76"/>
	<text x="435.78" y="373.77" style="font-family:'Helvetica';font-size:100.04px;fill:#000000" text-anchor="end">4.8</text>
	<text x="190.78" y="1367.30" style="font-family:'Helvetica';font-size:100.04px;fill:#000000" transform="rotate(-90 190.78,1367.30)" text-anchor="middle">log(Imacec No Minero)</text>
	<line x1="495.72" y1="2459.20" x2="4219.16" y2="2459.20" style="stroke:#000000;stroke-width:5.76"/>
	<line x1="697.41" y1="2459.20" x2="697.41" y2="2499.16" style="stroke:#000000;stroke-width:5.76"/>
	<text x="697.41" y="2589.10" style="font-family:'Helvetica';font-size:100.04px;fill:#000000" text-anchor="middle">2000m1</text>
	<line x1="1389.15" y1="2459.20" x2="1389.15" y2="2499.16" style="stroke:#000000;stroke-width:5.76"/>
	<text x="1389.15" y="2589.10" style="font-family:'Helvetica';font-size:100.04px;fill:#000000" text-anchor="middle">2005m1</text>
	<line x1="2080.76" y1="2459.20" x2="2080.76" y2="2499.16" style="stroke:#000000;stroke-width:5.76"/>
	<text x="2080.76" y="2589.10" style="font-family:'Helvetica';font-size:100.04px;fill:#000000" text-anchor="middle">2010m1</text>
	<line x1="2772.50" y1="2459.20" x2="2772.50" y2="2499.16" style="stroke:#000000;stroke-width:5.76"/>
	<text x="2772.50" y="2589.10" style="font-family:'Helvetica';font-size:100.04px;fill:#000000" text-anchor="middle">2015m1</text>
	<line x1="3464.10" y1="2459.20" x2="3464.10" y2="2499.16" style="stroke:#000000;stroke-width:5.76"/>
	<text x="3464.10" y="2589.10" style="font-family:'Helvetica';font-size:100.04px;fill:#000000" text-anchor="middle">2020m1</text>
	<line x1="4155.84" y1="2459.20" x2="4155.84" y2="2499.16" style="stroke:#000000;stroke-width:5.76"/>
	<text x="4155.84" y="2589.10" style="font-family:'Helvetica';font-size:100.04px;fill:#000000" text-anchor="middle">2025m1</text>
	<text x="2357.51" y="2729.09" style="font-family:'Helvetica';font-size:100.04px;fill:#000000" text-anchor="middle">Fecha</text>
	<text x="2357.51" y="216.06" style="font-family:'Helvetica';font-size:140.00px;fill:#000000" text-anchor="middle">IMACEC No Minero Desestacionalizado</text>
</svg>
