<?xml version="1.0" encoding="UTF-8" standalone="no"?>
<!-- This is a Stata 18.0 generated SVG file (http://www.stata.com) -->

<svg version="1.1" width="7.500in" height="4.500in" viewBox="0 0 5400 3240" xmlns="http://www.w3.org/2000/svg" xmlns:xlink="http://www.w3.org/1999/xlink">
	<desc>Stata Graph - Graph</desc>
	<rect x="0" y="0" width="5400" height="3240" style="fill:#FFFFFF;stroke:none"/>
	<rect x="0.00" y="0.00" width="5400.00" height="3240.00" style="fill:#FFFFFF"/>
	<rect x="3.24" y="3.24" width="5393.52" height="3233.52" style="fill:none;stroke:#FFFFFF;stroke-width:6.48"/>
	<rect x="793.97" y="264.77" width="4492.63" height="2614.27" style="fill:#FFFFFF"/>
	<rect x="797.21" y="268.01" width="4486.15" height="2607.79" style="fill:none;stroke:#000000;stroke-width:6.48"/>
	<line x1="793.97" y1="2807.83" x2="858.77" y2="2807.83" style="stroke:#F0F0F0;stroke-width:9.72"/>
	<line x1="891.17" y1="2807.83" x2="955.97" y2="2807.83" style="stroke:#F0F0F0;stroke-width:9.72"/>
	<line x1="988.37" y1="2807.83" x2="1053.17" y2="2807.83" style="stroke:#F0F0F0;stroke-width:9.72"/>
	<line x1="1085.57" y1="2807.83" x2="1150.37" y2="2807.83" style="stroke:#F0F0F0;stroke-width:9.72"/>
	<line x1="1182.77" y1="2807.83" x2="1247.57" y2="2807.83" style="stroke:#F0F0F0;stroke-width:9.72"/>
	<line x1="1279.97" y1="2807.83" x2="1344.77" y2="2807.83" style="stroke:#F0F0F0;stroke-width:9.72"/>
	<line x1="1377.17" y1="2807.83" x2="1441.97" y2="2807.83" style="stroke:#F0F0F0;stroke-width:9.72"/>
	<line x1="1474.37" y1="2807.83" x2="1539.17" y2="2807.83" style="stroke:#F0F0F0;stroke-width:9.72"/>
	<line x1="1571.57" y1="2807.83" x2="1636.37" y2="2807.83" style="stroke:#F0F0F0;stroke-width:9.72"/>
	<line x1="1668.77" y1="2807.83" x2="1733.57" y2="2807.83" style="stroke:#F0F0F0;stroke-width:9.72"/>
	<line x1="1765.97" y1="2807.83" x2="1830.77" y2="2807.83" style="stroke:#F0F0F0;stroke-width:9.72"/>
	<line x1="1863.17" y1="2807.83" x2="1927.97" y2="2807.83" style="stroke:#F0F0F0;stroke-width:9.72"/>
	<line x1="1960.37" y1="2807.83" x2="2025.17" y2="2807.83" style="stroke:#F0F0F0;stroke-width:9.72"/>
	<line x1="2057.57" y1="2807.83" x2="2122.37" y2="2807.83" style="stroke:#F0F0F0;stroke-width:9.72"/>
	<line x1="2154.77" y1="2807.83" x2="2219.57" y2="2807.83" style="stroke:#F0F0F0;stroke-width:9.72"/>
	<line x1="2251.97" y1="2807.83" x2="2316.77" y2="2807.83" style="stroke:#F0F0F0;stroke-width:9.72"/>
	<line x1="2349.17" y1="2807.83" x2="2413.97" y2="2807.83" style="stroke:#F0F0F0;stroke-width:9.72"/>
	<line x1="2446.37" y1="2807.83" x2="2511.17" y2="2807.83" style="stroke:#F0F0F0;stroke-width:9.72"/>
	<line x1="2543.57" y1="2807.83" x2="2608.37" y2="2807.83" style="stroke:#F0F0F0;stroke-width:9.72"/>
	<line x1="2640.77" y1="2807.83" x2="2705.57" y2="2807.83" style="stroke:#F0F0F0;stroke-width:9.72"/>
	<line x1="2737.97" y1="2807.83" x2="2802.77" y2="2807.83" style="stroke:#F0F0F0;stroke-width:9.72"/>
	<line x1="2835.17" y1="2807.83" x2="2899.97" y2="2807.83" style="stroke:#F0F0F0;stroke-width:9.72"/>
	<line x1="2932.37" y1="2807.83" x2="2997.17" y2="2807.83" style="stroke:#F0F0F0;stroke-width:9.72"/>
	<line x1="3029.57" y1="2807.83" x2="3094.37" y2="2807.83" style="stroke:#F0F0F0;stroke-width:9.72"/>
	<line x1="3126.77" y1="2807.83" x2="3191.57" y2="2807.83" style="stroke:#F0F0F0;stroke-width:9.72"/>
	<line x1="3223.97" y1="2807.83" x2="3288.77" y2="2807.83" style="stroke:#F0F0F0;stroke-width:9.72"/>
	<line x1="3321.17" y1="2807.83" x2="3385.97" y2="2807.83" style="stroke:#F0F0F0;stroke-width:9.72"/>
	<line x1="3418.37" y1="2807.83" x2="3483.17" y2="2807.83" style="stroke:#F0F0F0;stroke-width:9.72"/>
	<line x1="3515.57" y1="2807.83" x2="3580.37" y2="2807.83" style="stroke:#F0F0F0;stroke-width:9.72"/>
	<line x1="3612.77" y1="2807.83" x2="3677.57" y2="2807.83" style="stroke:#F0F0F0;stroke-width:9.72"/>
	<line x1="3709.97" y1="2807.83" x2="3774.77" y2="2807.83" style="stroke:#F0F0F0;stroke-width:9.72"/>
	<line x1="3807.17" y1="2807.83" x2="3871.97" y2="2807.83" style="stroke:#F0F0F0;stroke-width:9.72"/>
	<line x1="3904.37" y1="2807.83" x2="3969.17" y2="2807.83" style="stroke:#F0F0F0;stroke-width:9.72"/>
	<line x1="4001.57" y1="2807.83" x2="4066.37" y2="2807.83" style="stroke:#F0F0F0;stroke-width:9.72"/>
	<line x1="4098.77" y1="2807.83" x2="4163.57" y2="2807.83" style="stroke:#F0F0F0;stroke-width:9.72"/>
	<line x1="4195.97" y1="2807.83" x2="4260.77" y2="2807.83" style="stroke:#F0F0F0;stroke-width:9.72"/>
	<line x1="4293.17" y1="2807.83" x2="4357.97" y2="2807.83" style="stroke:#F0F0F0;stroke-width:9.72"/>
	<line x1="4390.37" y1="2807.83" x2="4455.17" y2="2807.83" style="stroke:#F0F0F0;stroke-width:9.72"/>
	<line x1="4487.57" y1="2807.83" x2="4552.37" y2="2807.83" style="stroke:#F0F0F0;stroke-width:9.72"/>
	<line x1="4584.77" y1="2807.83" x2="4649.57" y2="2807.83" style="stroke:#F0F0F0;stroke-width:9.72"/>
	<line x1="4681.97" y1="2807.83" x2="4746.77" y2="2807.83" style="stroke:#F0F0F0;stroke-width:9.72"/>
	<line x1="4779.17" y1="2807.83" x2="4843.97" y2="2807.83" style="stroke:#F0F0F0;stroke-width:9.72"/>
	<line x1="4876.37" y1="2807.83" x2="4941.17" y2="2807.83" style="stroke:#F0F0F0;stroke-width:9.72"/>
	<line x1="4973.57" y1="2807.83" x2="5038.37" y2="2807.83" style="stroke:#F0F0F0;stroke-width:9.72"/>
	<line x1="5070.77" y1="2807.83" x2="5135.57" y2="2807.83" style="stroke:#F0F0F0;stroke-width:9.72"/>
	<line x1="5167.97" y1="2807.83" x2="5232.77" y2="2807.83" style="stroke:#F0F0F0;stroke-width:9.72"/>
	<line x1="5265.17" y1="2807.83" x2="5286.60" y2="2807.83" style="stroke:#F0F0F0;stroke-width:9.72"/>
	<line x1="793.97" y1="2230.20" x2="858.77" y2="2230.20" style="stroke:#F0F0F0;stroke-width:9.72"/>
	<line x1="891.17" y1="2230.20" x2="955.97" y2="2230.20" style="stroke:#F0F0F0;stroke-width:9.72"/>
	<line x1="988.37" y1="2230.20" x2="1053.17" y2="2230.20" style="stroke:#F0F0F0;stroke-width:9.72"/>
	<line x1="1085.57" y1="2230.20" x2="1150.37" y2="2230.20" style="stroke:#F0F0F0;stroke-width:9.72"/>
	<line x1="1182.77" y1="2230.20" x2="1247.57" y2="2230.20" style="stroke:#F0F0F0;stroke-width:9.72"/>
	<line x1="1279.97" y1="2230.20" x2="1344.77" y2="2230.20" style="stroke:#F0F0F0;stroke-width:9.72"/>
	<line x1="1377.17" y1="2230.20" x2="1441.97" y2="2230.20" style="stroke:#F0F0F0;stroke-width:9.72"/>
	<line x1="1474.37" y1="2230.20" x2="1539.17" y2="2230.20" style="stroke:#F0F0F0;stroke-width:9.72"/>
	<line x1="1571.57" y1="2230.20" x2="1636.37" y2="2230.20" style="stroke:#F0F0F0;stroke-width:9.72"/>
	<line x1="1668.77" y1="2230.20" x2="1733.57" y2="2230.20" style="stroke:#F0F0F0;stroke-width:9.72"/>
	<line x1="1765.97" y1="2230.20" x2="1830.77" y2="2230.20" style="stroke:#F0F0F0;stroke-width:9.72"/>
	<line x1="1863.17" y1="2230.20" x2="1927.97" y2="2230.20" style="stroke:#F0F0F0;stroke-width:9.72"/>
	<line x1="1960.37" y1="2230.20" x2="2025.17" y2="2230.20" style="stroke:#F0F0F0;stroke-width:9.72"/>
	<line x1="2057.57" y1="2230.20" x2="2122.37" y2="2230.20" style="stroke:#F0F0F0;stroke-width:9.72"/>
	<line x1="2154.77" y1="2230.20" x2="2219.57" y2="2230.20" style="stroke:#F0F0F0;stroke-width:9.72"/>
	<line x1="2251.97" y1="2230.20" x2="2316.77" y2="2230.20" style="stroke:#F0F0F0;stroke-width:9.72"/>
	<line x1="2349.17" y1="2230.20" x2="2413.97" y2="2230.20" style="stroke:#F0F0F0;stroke-width:9.72"/>
	<line x1="2446.37" y1="2230.20" x2="2511.17" y2="2230.20" style="stroke:#F0F0F0;stroke-width:9.72"/>
	<line x1="2543.57" y1="2230.20" x2="2608.37" y2="2230.20" style="stroke:#F0F0F0;stroke-width:9.72"/>
	<line x1="2640.77" y1="2230.20" x2="2705.57" y2="2230.20" style="stroke:#F0F0F0;stroke-width:9.72"/>
	<line x1="2737.97" y1="2230.20" x2="2802.77" y2="2230.20" style="stroke:#F0F0F0;stroke-width:9.72"/>
	<line x1="2835.17" y1="2230.20" x2="2899.97" y2="2230.20" style="stroke:#F0F0F0;stroke-width:9.72"/>
	<line x1="2932.37" y1="2230.20" x2="2997.17" y2="2230.20" style="stroke:#F0F0F0;stroke-width:9.72"/>
	<line x1="3029.57" y1="2230.20" x2="3094.37" y2="2230.20" style="stroke:#F0F0F0;stroke-width:9.72"/>
	<line x1="3126.77" y1="2230.20" x2="3191.57" y2="2230.20" style="stroke:#F0F0F0;stroke-width:9.72"/>
	<line x1="3223.97" y1="2230.20" x2="3288.77" y2="2230.20" style="stroke:#F0F0F0;stroke-width:9.72"/>
	<line x1="3321.17" y1="2230.20" x2="3385.97" y2="2230.20" style="stroke:#F0F0F0;stroke-width:9.72"/>
	<line x1="3418.37" y1="2230.20" x2="3483.17" y2="2230.20" style="stroke:#F0F0F0;stroke-width:9.72"/>
	<line x1="3515.57" y1="2230.20" x2="3580.37" y2="2230.20" style="stroke:#F0F0F0;stroke-width:9.72"/>
	<line x1="3612.77" y1="2230.20" x2="3677.57" y2="2230.20" style="stroke:#F0F0F0;stroke-width:9.72"/>
	<line x1="3709.97" y1="2230.20" x2="3774.77" y2="2230.20" style="stroke:#F0F0F0;stroke-width:9.72"/>
	<line x1="3807.17" y1="2230.20" x2="3871.97" y2="2230.20" style="stroke:#F0F0F0;stroke-width:9.72"/>
	<line x1="3904.37" y1="2230.20" x2="3969.17" y2="2230.20" style="stroke:#F0F0F0;stroke-width:9.72"/>
	<line x1="4001.57" y1="2230.20" x2="4066.37" y2="2230.20" style="stroke:#F0F0F0;stroke-width:9.72"/>
	<line x1="4098.77" y1="2230.20" x2="4163.57" y2="2230.20" style="stroke:#F0F0F0;stroke-width:9.72"/>
	<line x1="4195.97" y1="2230.20" x2="4260.77" y2="2230.20" style="stroke:#F0F0F0;stroke-width:9.72"/>
	<line x1="4293.17" y1="2230.20" x2="4357.97" y2="2230.20" style="stroke:#F0F0F0;stroke-width:9.72"/>
	<line x1="4390.37" y1="2230.20" x2="4455.17" y2="2230.20" style="stroke:#F0F0F0;stroke-width:9.72"/>
	<line x1="4487.57" y1="2230.20" x2="4552.37" y2="2230.20" style="stroke:#F0F0F0;stroke-width:9.72"/>
	<line x1="4584.77" y1="2230.20" x2="4649.57" y2="2230.20" style="stroke:#F0F0F0;stroke-width:9.72"/>
	<line x1="4681.97" y1="2230.20" x2="4746.77" y2="2230.20" style="stroke:#F0F0F0;stroke-width:9.72"/>
	<line x1="4779.17" y1="2230.20" x2="4843.97" y2="2230.20" style="stroke:#F0F0F0;stroke-width:9.72"/>
	<line x1="4876.37" y1="2230.20" x2="4941.17" y2="2230.20" style="stroke:#F0F0F0;stroke-width:9.72"/>
	<line x1="4973.57" y1="2230.20" x2="5038.37" y2="2230.20" style="stroke:#F0F0F0;stroke-width:9.72"/>
	<line x1="5070.77" y1="2230.20" x2="5135.57" y2="2230.20" style="stroke:#F0F0F0;stroke-width:9.72"/>
	<line x1="5167.97" y1="2230.20" x2="5232.77" y2="2230.20" style="stroke:#F0F0F0;stroke-width:9.72"/>
	<line x1="5265.17" y1="2230.20" x2="5286.60" y2="2230.20" style="stroke:#F0F0F0;stroke-width:9.72"/>
	<line x1="793.97" y1="1652.57" x2="858.77" y2="1652.57" style="stroke:#F0F0F0;stroke-width:9.72"/>
	<line x1="891.17" y1="1652.57" x2="955.97" y2="1652.57" style="stroke:#F0F0F0;stroke-width:9.72"/>
	<line x1="988.37" y1="1652.57" x2="1053.17" y2="1652.57" style="stroke:#F0F0F0;stroke-width:9.72"/>
	<line x1="1085.57" y1="1652.57" x2="1150.37" y2="1652.57" style="stroke:#F0F0F0;stroke-width:9.72"/>
	<line x1="1182.77" y1="1652.57" x2="1247.57" y2="1652.57" style="stroke:#F0F0F0;stroke-width:9.72"/>
	<line x1="1279.97" y1="1652.57" x2="1344.77" y2="1652.57" style="stroke:#F0F0F0;stroke-width:9.72"/>
	<line x1="1377.17" y1="1652.57" x2="1441.97" y2="1652.57" style="stroke:#F0F0F0;stroke-width:9.72"/>
	<line x1="1474.37" y1="1652.57" x2="1539.17" y2="1652.57" style="stroke:#F0F0F0;stroke-width:9.72"/>
	<line x1="1571.57" y1="1652.57" x2="1636.37" y2="1652.57" style="stroke:#F0F0F0;stroke-width:9.72"/>
	<line x1="1668.77" y1="1652.57" x2="1733.57" y2="1652.57" style="stroke:#F0F0F0;stroke-width:9.72"/>
	<line x1="1765.97" y1="1652.57" x2="1830.77" y2="1652.57" style="stroke:#F0F0F0;stroke-width:9.72"/>
	<line x1="1863.17" y1="1652.57" x2="1927.97" y2="1652.57" style="stroke:#F0F0F0;stroke-width:9.72"/>
	<line x1="1960.37" y1="1652.57" x2="2025.17" y2="1652.57" style="stroke:#F0F0F0;stroke-width:9.72"/>
	<line x1="2057.57" y1="1652.57" x2="2122.37" y2="1652.57" style="stroke:#F0F0F0;stroke-width:9.72"/>
	<line x1="2154.77" y1="1652.57" x2="2219.57" y2="1652.57" style="stroke:#F0F0F0;stroke-width:9.72"/>
	<line x1="2251.97" y1="1652.57" x2="2316.77" y2="1652.57" style="stroke:#F0F0F0;stroke-width:9.72"/>
	<line x1="2349.17" y1="1652.57" x2="2413.97" y2="1652.57" style="stroke:#F0F0F0;stroke-width:9.72"/>
	<line x1="2446.37" y1="1652.57" x2="2511.17" y2="1652.57" style="stroke:#F0F0F0;stroke-width:9.72"/>
	<line x1="2543.57" y1="1652.57" x2="2608.37" y2="1652.57" style="stroke:#F0F0F0;stroke-width:9.72"/>
	<line x1="2640.77" y1="1652.57" x2="2705.57" y2="1652.57" style="stroke:#F0F0F0;stroke-width:9.72"/>
	<line x1="2737.97" y1="1652.57" x2="2802.77" y2="1652.57" style="stroke:#F0F0F0;stroke-width:9.72"/>
	<line x1="2835.17" y1="1652.57" x2="2899.97" y2="1652.57" style="stroke:#F0F0F0;stroke-width:9.72"/>
	<line x1="2932.37" y1="1652.57" x2="2997.17" y2="1652.57" style="stroke:#F0F0F0;stroke-width:9.72"/>
	<line x1="3029.57" y1="1652.57" x2="3094.37" y2="1652.57" style="stroke:#F0F0F0;stroke-width:9.72"/>
	<line x1="3126.77" y1="1652.57" x2="3191.57" y2="1652.57" style="stroke:#F0F0F0;stroke-width:9.72"/>
	<line x1="3223.97" y1="1652.57" x2="3288.77" y2="1652.57" style="stroke:#F0F0F0;stroke-width:9.72"/>
	<line x1="3321.17" y1="1652.57" x2="3385.97" y2="1652.57" style="stroke:#F0F0F0;stroke-width:9.72"/>
	<line x1="3418.37" y1="1652.57" x2="3483.17" y2="1652.57" style="stroke:#F0F0F0;stroke-width:9.72"/>
	<line x1="3515.57" y1="1652.57" x2="3580.37" y2="1652.57" style="stroke:#F0F0F0;stroke-width:9.72"/>
	<line x1="3612.77" y1="1652.57" x2="3677.57" y2="1652.57" style="stroke:#F0F0F0;stroke-width:9.72"/>
	<line x1="3709.97" y1="1652.57" x2="3774.77" y2="1652.57" style="stroke:#F0F0F0;stroke-width:9.72"/>
	<line x1="3807.17" y1="1652.57" x2="3871.97" y2="1652.57" style="stroke:#F0F0F0;stroke-width:9.72"/>
	<line x1="3904.37" y1="1652.57" x2="3969.17" y2="1652.57" style="stroke:#F0F0F0;stroke-width:9.72"/>
	<line x1="4001.57" y1="1652.57" x2="4066.37" y2="1652.57" style="stroke:#F0F0F0;stroke-width:9.72"/>
	<line x1="4098.77" y1="1652.57" x2="4163.57" y2="1652.57" style="stroke:#F0F0F0;stroke-width:9.72"/>
	<line x1="4195.97" y1="1652.57" x2="4260.77" y2="1652.57" style="stroke:#F0F0F0;stroke-width:9.72"/>
	<line x1="4293.17" y1="1652.57" x2="4357.97" y2="1652.57" style="stroke:#F0F0F0;stroke-width:9.72"/>
	<line x1="4390.37" y1="1652.57" x2="4455.17" y2="1652.57" style="stroke:#F0F0F0;stroke-width:9.72"/>
	<line x1="4487.57" y1="1652.57" x2="4552.37" y2="1652.57" style="stroke:#F0F0F0;stroke-width:9.72"/>
	<line x1="4584.77" y1="1652.57" x2="4649.57" y2="1652.57" style="stroke:#F0F0F0;stroke-width:9.72"/>
	<line x1="4681.97" y1="1652.57" x2="4746.77" y2="1652.57" style="stroke:#F0F0F0;stroke-width:9.72"/>
	<line x1="4779.17" y1="1652.57" x2="4843.97" y2="1652.57" style="stroke:#F0F0F0;stroke-width:9.72"/>
	<line x1="4876.37" y1="1652.57" x2="4941.17" y2="1652.57" style="stroke:#F0F0F0;stroke-width:9.72"/>
	<line x1="4973.57" y1="1652.57" x2="5038.37" y2="1652.57" style="stroke:#F0F0F0;stroke-width:9.72"/>
	<line x1="5070.77" y1="1652.57" x2="5135.57" y2="1652.57" style="stroke:#F0F0F0;stroke-width:9.72"/>
	<line x1="5167.97" y1="1652.57" x2="5232.77" y2="1652.57" style="stroke:#F0F0F0;stroke-width:9.72"/>
	<line x1="5265.17" y1="1652.57" x2="5286.60" y2="1652.57" style="stroke:#F0F0F0;stroke-width:9.72"/>
	<line x1="793.97" y1="1075.11" x2="858.77" y2="1075.11" style="stroke:#F0F0F0;stroke-width:9.72"/>
	<line x1="891.17" y1="1075.11" x2="955.97" y2="1075.11" style="stroke:#F0F0F0;stroke-width:9.72"/>
	<line x1="988.37" y1="1075.11" x2="1053.17" y2="1075.11" style="stroke:#F0F0F0;stroke-width:9.72"/>
	<line x1="1085.57" y1="1075.11" x2="1150.37" y2="1075.11" style="stroke:#F0F0F0;stroke-width:9.72"/>
	<line x1="1182.77" y1="1075.11" x2="1247.57" y2="1075.11" style="stroke:#F0F0F0;stroke-width:9.72"/>
	<line x1="1279.97" y1="1075.11" x2="1344.77" y2="1075.11" style="stroke:#F0F0F0;stroke-width:9.72"/>
	<line x1="1377.17" y1="1075.11" x2="1441.97" y2="1075.11" style="stroke:#F0F0F0;stroke-width:9.72"/>
	<line x1="1474.37" y1="1075.11" x2="1539.17" y2="1075.11" style="stroke:#F0F0F0;stroke-width:9.72"/>
	<line x1="1571.57" y1="1075.11" x2="1636.37" y2="1075.11" style="stroke:#F0F0F0;stroke-width:9.72"/>
	<line x1="1668.77" y1="1075.11" x2="1733.57" y2="1075.11" style="stroke:#F0F0F0;stroke-width:9.72"/>
	<line x1="1765.97" y1="1075.11" x2="1830.77" y2="1075.11" style="stroke:#F0F0F0;stroke-width:9.72"/>
	<line x1="1863.17" y1="1075.11" x2="1927.97" y2="1075.11" style="stroke:#F0F0F0;stroke-width:9.72"/>
	<line x1="1960.37" y1="1075.11" x2="2025.17" y2="1075.11" style="stroke:#F0F0F0;stroke-width:9.72"/>
	<line x1="2057.57" y1="1075.11" x2="2122.37" y2="1075.11" style="stroke:#F0F0F0;stroke-width:9.72"/>
	<line x1="2154.77" y1="1075.11" x2="2219.57" y2="1075.11" style="stroke:#F0F0F0;stroke-width:9.72"/>
	<line x1="2251.97" y1="1075.11" x2="2316.77" y2="1075.11" style="stroke:#F0F0F0;stroke-width:9.72"/>
	<line x1="2349.17" y1="1075.11" x2="2413.97" y2="1075.11" style="stroke:#F0F0F0;stroke-width:9.72"/>
	<line x1="2446.37" y1="1075.11" x2="2511.17" y2="1075.11" style="stroke:#F0F0F0;stroke-width:9.72"/>
	<line x1="2543.57" y1="1075.11" x2="2608.37" y2="1075.11" style="stroke:#F0F0F0;stroke-width:9.72"/>
	<line x1="2640.77" y1="1075.11" x2="2705.57" y2="1075.11" style="stroke:#F0F0F0;stroke-width:9.72"/>
	<line x1="2737.97" y1="1075.11" x2="2802.77" y2="1075.11" style="stroke:#F0F0F0;stroke-width:9.72"/>
	<line x1="2835.17" y1="1075.11" x2="2899.97" y2="1075.11" style="stroke:#F0F0F0;stroke-width:9.72"/>
	<line x1="2932.37" y1="1075.11" x2="2997.17" y2="1075.11" style="stroke:#F0F0F0;stroke-width:9.72"/>
	<line x1="3029.57" y1="1075.11" x2="3094.37" y2="1075.11" style="stroke:#F0F0F0;stroke-width:9.72"/>
	<line x1="3126.77" y1="1075.11" x2="3191.57" y2="1075.11" style="stroke:#F0F0F0;stroke-width:9.72"/>
	<line x1="3223.97" y1="1075.11" x2="3288.77" y2="1075.11" style="stroke:#F0F0F0;stroke-width:9.72"/>
	<line x1="3321.17" y1="1075.11" x2="3385.97" y2="1075.11" style="stroke:#F0F0F0;stroke-width:9.72"/>
	<line x1="3418.37" y1="1075.11" x2="3483.17" y2="1075.11" style="stroke:#F0F0F0;stroke-width:9.72"/>
	<line x1="3515.57" y1="1075.11" x2="3580.37" y2="1075.11" style="stroke:#F0F0F0;stroke-width:9.72"/>
	<line x1="3612.77" y1="1075.11" x2="3677.57" y2="1075.11" style="stroke:#F0F0F0;stroke-width:9.72"/>
	<line x1="3709.97" y1="1075.11" x2="3774.77" y2="1075.11" style="stroke:#F0F0F0;stroke-width:9.72"/>
	<line x1="3807.17" y1="1075.11" x2="3871.97" y2="1075.11" style="stroke:#F0F0F0;stroke-width:9.72"/>
	<line x1="3904.37" y1="1075.11" x2="3969.17" y2="1075.11" style="stroke:#F0F0F0;stroke-width:9.72"/>
	<line x1="4001.57" y1="1075.11" x2="4066.37" y2="1075.11" style="stroke:#F0F0F0;stroke-width:9.72"/>
	<line x1="4098.77" y1="1075.11" x2="4163.57" y2="1075.11" style="stroke:#F0F0F0;stroke-width:9.72"/>
	<line x1="4195.97" y1="1075.11" x2="4260.77" y2="1075.11" style="stroke:#F0F0F0;stroke-width:9.72"/>
	<line x1="4293.17" y1="1075.11" x2="4357.97" y2="1075.11" style="stroke:#F0F0F0;stroke-width:9.72"/>
	<line x1="4390.37" y1="1075.11" x2="4455.17" y2="1075.11" style="stroke:#F0F0F0;stroke-width:9.72"/>
	<line x1="4487.57" y1="1075.11" x2="4552.37" y2="1075.11" style="stroke:#F0F0F0;stroke-width:9.72"/>
	<line x1="4584.77" y1="1075.11" x2="4649.57" y2="1075.11" style="stroke:#F0F0F0;stroke-width:9.72"/>
	<line x1="4681.97" y1="1075.11" x2="4746.77" y2="1075.11" style="stroke:#F0F0F0;stroke-width:9.72"/>
	<line x1="4779.17" y1="1075.11" x2="4843.97" y2="1075.11" style="stroke:#F0F0F0;stroke-width:9.72"/>
	<line x1="4876.37" y1="1075.11" x2="4941.17" y2="1075.11" style="stroke:#F0F0F0;stroke-width:9.72"/>
	<line x1="4973.57" y1="1075.11" x2="5038.37" y2="1075.11" style="stroke:#F0F0F0;stroke-width:9.72"/>
	<line x1="5070.77" y1="1075.11" x2="5135.57" y2="1075.11" style="stroke:#F0F0F0;stroke-width:9.72"/>
	<line x1="5167.97" y1="1075.11" x2="5232.77" y2="1075.11" style="stroke:#F0F0F0;stroke-width:9.72"/>
	<line x1="5265.17" y1="1075.11" x2="5286.60" y2="1075.11" style="stroke:#F0F0F0;stroke-width:9.72"/>
	<line x1="793.97" y1="497.47" x2="858.77" y2="497.47" style="stroke:#F0F0F0;stroke-width:9.72"/>
	<line x1="891.17" y1="497.47" x2="955.97" y2="497.47" style="stroke:#F0F0F0;stroke-width:9.72"/>
	<line x1="988.37" y1="497.47" x2="1053.17" y2="497.47" style="stroke:#F0F0F0;stroke-width:9.72"/>
	<line x1="1085.57" y1="497.47" x2="1150.37" y2="497.47" style="stroke:#F0F0F0;stroke-width:9.72"/>
	<line x1="1182.77" y1="497.47" x2="1247.57" y2="497.47" style="stroke:#F0F0F0;stroke-width:9.72"/>
	<line x1="1279.97" y1="497.47" x2="1344.77" y2="497.47" style="stroke:#F0F0F0;stroke-width:9.72"/>
	<line x1="1377.17" y1="497.47" x2="1441.97" y2="497.47" style="stroke:#F0F0F0;stroke-width:9.72"/>
	<line x1="1474.37" y1="497.47" x2="1539.17" y2="497.47" style="stroke:#F0F0F0;stroke-width:9.72"/>
	<line x1="1571.57" y1="497.47" x2="1636.37" y2="497.47" style="stroke:#F0F0F0;stroke-width:9.72"/>
	<line x1="1668.77" y1="497.47" x2="1733.57" y2="497.47" style="stroke:#F0F0F0;stroke-width:9.72"/>
	<line x1="1765.97" y1="497.47" x2="1830.77" y2="497.47" style="stroke:#F0F0F0;stroke-width:9.72"/>
	<line x1="1863.17" y1="497.47" x2="1927.97" y2="497.47" style="stroke:#F0F0F0;stroke-width:9.72"/>
	<line x1="1960.37" y1="497.47" x2="2025.17" y2="497.47" style="stroke:#F0F0F0;stroke-width:9.72"/>
	<line x1="2057.57" y1="497.47" x2="2122.37" y2="497.47" style="stroke:#F0F0F0;stroke-width:9.72"/>
	<line x1="2154.77" y1="497.47" x2="2219.57" y2="497.47" style="stroke:#F0F0F0;stroke-width:9.72"/>
	<line x1="2251.97" y1="497.47" x2="2316.77" y2="497.47" style="stroke:#F0F0F0;stroke-width:9.72"/>
	<line x1="2349.17" y1="497.47" x2="2413.97" y2="497.47" style="stroke:#F0F0F0;stroke-width:9.72"/>
	<line x1="2446.37" y1="497.47" x2="2511.17" y2="497.47" style="stroke:#F0F0F0;stroke-width:9.72"/>
	<line x1="2543.57" y1="497.47" x2="2608.37" y2="497.47" style="stroke:#F0F0F0;stroke-width:9.72"/>
	<line x1="2640.77" y1="497.47" x2="2705.57" y2="497.47" style="stroke:#F0F0F0;stroke-width:9.72"/>
	<line x1="2737.97" y1="497.47" x2="2802.77" y2="497.47" style="stroke:#F0F0F0;stroke-width:9.72"/>
	<line x1="2835.17" y1="497.47" x2="2899.97" y2="497.47" style="stroke:#F0F0F0;stroke-width:9.72"/>
	<line x1="2932.37" y1="497.47" x2="2997.17" y2="497.47" style="stroke:#F0F0F0;stroke-width:9.72"/>
	<line x1="3029.57" y1="497.47" x2="3094.37" y2="497.47" style="stroke:#F0F0F0;stroke-width:9.72"/>
	<line x1="3126.77" y1="497.47" x2="3191.57" y2="497.47" style="stroke:#F0F0F0;stroke-width:9.72"/>
	<line x1="3223.97" y1="497.47" x2="3288.77" y2="497.47" style="stroke:#F0F0F0;stroke-width:9.72"/>
	<line x1="3321.17" y1="497.47" x2="3385.97" y2="497.47" style="stroke:#F0F0F0;stroke-width:9.72"/>
	<line x1="3418.37" y1="497.47" x2="3483.17" y2="497.47" style="stroke:#F0F0F0;stroke-width:9.72"/>
	<line x1="3515.57" y1="497.47" x2="3580.37" y2="497.47" style="stroke:#F0F0F0;stroke-width:9.72"/>
	<line x1="3612.77" y1="497.47" x2="3677.57" y2="497.47" style="stroke:#F0F0F0;stroke-width:9.72"/>
	<line x1="3709.97" y1="497.47" x2="3774.77" y2="497.47" style="stroke:#F0F0F0;stroke-width:9.72"/>
	<line x1="3807.17" y1="497.47" x2="3871.97" y2="497.47" style="stroke:#F0F0F0;stroke-width:9.72"/>
	<line x1="3904.37" y1="497.47" x2="3969.17" y2="497.47" style="stroke:#F0F0F0;stroke-width:9.72"/>
	<line x1="4001.57" y1="497.47" x2="4066.37" y2="497.47" style="stroke:#F0F0F0;stroke-width:9.72"/>
	<line x1="4098.77" y1="497.47" x2="4163.57" y2="497.47" style="stroke:#F0F0F0;stroke-width:9.72"/>
	<line x1="4195.97" y1="497.47" x2="4260.77" y2="497.47" style="stroke:#F0F0F0;stroke-width:9.72"/>
	<line x1="4293.17" y1="497.47" x2="4357.97" y2="497.47" style="stroke:#F0F0F0;stroke-width:9.72"/>
	<line x1="4390.37" y1="497.47" x2="4455.17" y2="497.47" style="stroke:#F0F0F0;stroke-width:9.72"/>
	<line x1="4487.57" y1="497.47" x2="4552.37" y2="497.47" style="stroke:#F0F0F0;stroke-width:9.72"/>
	<line x1="4584.77" y1="497.47" x2="4649.57" y2="497.47" style="stroke:#F0F0F0;stroke-width:9.72"/>
	<line x1="4681.97" y1="497.47" x2="4746.77" y2="497.47" style="stroke:#F0F0F0;stroke-width:9.72"/>
	<line x1="4779.17" y1="497.47" x2="4843.97" y2="497.47" style="stroke:#F0F0F0;stroke-width:9.72"/>
	<line x1="4876.37" y1="497.47" x2="4941.17" y2="497.47" style="stroke:#F0F0F0;stroke-width:9.72"/>
	<line x1="4973.57" y1="497.47" x2="5038.37" y2="497.47" style="stroke:#F0F0F0;stroke-width:9.72"/>
	<line x1="5070.77" y1="497.47" x2="5135.57" y2="497.47" style="stroke:#F0F0F0;stroke-width:9.72"/>
	<line x1="5167.97" y1="497.47" x2="5232.77" y2="497.47" style="stroke:#F0F0F0;stroke-width:9.72"/>
	<line x1="5265.17" y1="497.47" x2="5286.60" y2="497.47" style="stroke:#F0F0F0;stroke-width:9.72"/>
	<line x1="865.35" y1="2879.04" x2="865.35" y2="2814.24" style="stroke:#F0F0F0;stroke-width:9.72"/>
	<line x1="865.35" y1="2781.84" x2="865.35" y2="2717.04" style="stroke:#F0F0F0;stroke-width:9.72"/>
	<line x1="865.35" y1="2684.64" x2="865.35" y2="2619.84" style="stroke:#F0F0F0;stroke-width:9.72"/>
	<line x1="865.35" y1="2587.44" x2="865.35" y2="2522.64" style="stroke:#F0F0F0;stroke-width:9.72"/>
	<line x1="865.35" y1="2490.24" x2="865.35" y2="2425.44" style="stroke:#F0F0F0;stroke-width:9.72"/>
	<line x1="865.35" y1="2393.04" x2="865.35" y2="2328.24" style="stroke:#F0F0F0;stroke-width:9.72"/>
	<line x1="865.35" y1="2295.84" x2="865.35" y2="2231.04" style="stroke:#F0F0F0;stroke-width:9.72"/>
	<line x1="865.35" y1="2198.64" x2="865.35" y2="2133.84" style="stroke:#F0F0F0;stroke-width:9.72"/>
	<line x1="865.35" y1="2101.44" x2="865.35" y2="2036.64" style="stroke:#F0F0F0;stroke-width:9.72"/>
	<line x1="865.35" y1="2004.24" x2="865.35" y2="1939.44" style="stroke:#F0F0F0;stroke-width:9.72"/>
	<line x1="865.35" y1="1907.04" x2="865.35" y2="1842.24" style="stroke:#F0F0F0;stroke-width:9.72"/>
	<line x1="865.35" y1="1809.84" x2="865.35" y2="1745.04" style="stroke:#F0F0F0;stroke-width:9.72"/>
	<line x1="865.35" y1="1712.64" x2="865.35" y2="1647.84" style="stroke:#F0F0F0;stroke-width:9.72"/>
	<line x1="865.35" y1="1615.44" x2="865.35" y2="1550.64" style="stroke:#F0F0F0;stroke-width:9.72"/>
	<line x1="865.35" y1="1518.24" x2="865.35" y2="1453.44" style="stroke:#F0F0F0;stroke-width:9.72"/>
	<line x1="865.35" y1="1421.04" x2="865.35" y2="1356.24" style="stroke:#F0F0F0;stroke-width:9.72"/>
	<line x1="865.35" y1="1323.84" x2="865.35" y2="1259.04" style="stroke:#F0F0F0;stroke-width:9.72"/>
	<line x1="865.35" y1="1226.64" x2="865.35" y2="1161.84" style="stroke:#F0F0F0;stroke-width:9.72"/>
	<line x1="865.35" y1="1129.44" x2="865.35" y2="1064.64" style="stroke:#F0F0F0;stroke-width:9.72"/>
	<line x1="865.35" y1="1032.24" x2="865.35" y2="967.44" style="stroke:#F0F0F0;stroke-width:9.72"/>
	<line x1="865.35" y1="935.04" x2="865.35" y2="870.24" style="stroke:#F0F0F0;stroke-width:9.72"/>
	<line x1="865.35" y1="837.84" x2="865.35" y2="773.04" style="stroke:#F0F0F0;stroke-width:9.72"/>
	<line x1="865.35" y1="740.64" x2="865.35" y2="675.84" style="stroke:#F0F0F0;stroke-width:9.72"/>
	<line x1="865.35" y1="643.44" x2="865.35" y2="578.64" style="stroke:#F0F0F0;stroke-width:9.72"/>
	<line x1="865.35" y1="546.24" x2="865.35" y2="481.44" style="stroke:#F0F0F0;stroke-width:9.72"/>
	<line x1="865.35" y1="449.04" x2="865.35" y2="384.24" style="stroke:#F0F0F0;stroke-width:9.72"/>
	<line x1="865.35" y1="351.84" x2="865.35" y2="287.04" style="stroke:#F0F0F0;stroke-width:9.72"/>
	<line x1="1952.78" y1="2879.04" x2="1952.78" y2="2814.24" style="stroke:#F0F0F0;stroke-width:9.72"/>
	<line x1="1952.78" y1="2781.84" x2="1952.78" y2="2717.04" style="stroke:#F0F0F0;stroke-width:9.72"/>
	<line x1="1952.78" y1="2684.64" x2="1952.78" y2="2619.84" style="stroke:#F0F0F0;stroke-width:9.72"/>
	<line x1="1952.78" y1="2587.44" x2="1952.78" y2="2522.64" style="stroke:#F0F0F0;stroke-width:9.72"/>
	<line x1="1952.78" y1="2490.24" x2="1952.78" y2="2425.44" style="stroke:#F0F0F0;stroke-width:9.72"/>
	<line x1="1952.78" y1="2393.04" x2="1952.78" y2="2328.24" style="stroke:#F0F0F0;stroke-width:9.72"/>
	<line x1="1952.78" y1="2295.84" x2="1952.78" y2="2231.04" style="stroke:#F0F0F0;stroke-width:9.72"/>
	<line x1="1952.78" y1="2198.64" x2="1952.78" y2="2133.84" style="stroke:#F0F0F0;stroke-width:9.72"/>
	<line x1="1952.78" y1="2101.44" x2="1952.78" y2="2036.64" style="stroke:#F0F0F0;stroke-width:9.72"/>
	<line x1="1952.78" y1="2004.24" x2="1952.78" y2="1939.44" style="stroke:#F0F0F0;stroke-width:9.72"/>
	<line x1="1952.78" y1="1907.04" x2="1952.78" y2="1842.24" style="stroke:#F0F0F0;stroke-width:9.72"/>
	<line x1="1952.78" y1="1809.84" x2="1952.78" y2="1745.04" style="stroke:#F0F0F0;stroke-width:9.72"/>
	<line x1="1952.78" y1="1712.64" x2="1952.78" y2="1647.84" style="stroke:#F0F0F0;stroke-width:9.72"/>
	<line x1="1952.78" y1="1615.44" x2="1952.78" y2="1550.64" style="stroke:#F0F0F0;stroke-width:9.72"/>
	<line x1="1952.78" y1="1518.24" x2="1952.78" y2="1453.44" style="stroke:#F0F0F0;stroke-width:9.72"/>
	<line x1="1952.78" y1="1421.04" x2="1952.78" y2="1356.24" style="stroke:#F0F0F0;stroke-width:9.72"/>
	<line x1="1952.78" y1="1323.84" x2="1952.78" y2="1259.04" style="stroke:#F0F0F0;stroke-width:9.72"/>
	<line x1="1952.78" y1="1226.64" x2="1952.78" y2="1161.84" style="stroke:#F0F0F0;stroke-width:9.72"/>
	<line x1="1952.78" y1="1129.44" x2="1952.78" y2="1064.64" style="stroke:#F0F0F0;stroke-width:9.72"/>
	<line x1="1952.78" y1="1032.24" x2="1952.78" y2="967.44" style="stroke:#F0F0F0;stroke-width:9.72"/>
	<line x1="1952.78" y1="935.04" x2="1952.78" y2="870.24" style="stroke:#F0F0F0;stroke-width:9.72"/>
	<line x1="1952.78" y1="837.84" x2="1952.78" y2="773.04" style="stroke:#F0F0F0;stroke-width:9.72"/>
	<line x1="1952.78" y1="740.64" x2="1952.78" y2="675.84" style="stroke:#F0F0F0;stroke-width:9.72"/>
	<line x1="1952.78" y1="643.44" x2="1952.78" y2="578.64" style="stroke:#F0F0F0;stroke-width:9.72"/>
	<line x1="1952.78" y1="546.24" x2="1952.78" y2="481.44" style="stroke:#F0F0F0;stroke-width:9.72"/>
	<line x1="1952.78" y1="449.04" x2="1952.78" y2="384.24" style="stroke:#F0F0F0;stroke-width:9.72"/>
	<line x1="1952.78" y1="351.84" x2="1952.78" y2="287.04" style="stroke:#F0F0F0;stroke-width:9.72"/>
	<line x1="3040.37" y1="2879.04" x2="3040.37" y2="2814.24" style="stroke:#F0F0F0;stroke-width:9.72"/>
	<line x1="3040.37" y1="2781.84" x2="3040.37" y2="2717.04" style="stroke:#F0F0F0;stroke-width:9.72"/>
	<line x1="3040.37" y1="2684.64" x2="3040.37" y2="2619.84" style="stroke:#F0F0F0;stroke-width:9.72"/>
	<line x1="3040.37" y1="2587.44" x2="3040.37" y2="2522.64" style="stroke:#F0F0F0;stroke-width:9.72"/>
	<line x1="3040.37" y1="2490.24" x2="3040.37" y2="2425.44" style="stroke:#F0F0F0;stroke-width:9.72"/>
	<line x1="3040.37" y1="2393.04" x2="3040.37" y2="2328.24" style="stroke:#F0F0F0;stroke-width:9.72"/>
	<line x1="3040.37" y1="2295.84" x2="3040.37" y2="2231.04" style="stroke:#F0F0F0;stroke-width:9.72"/>
	<line x1="3040.37" y1="2198.64" x2="3040.37" y2="2133.84" style="stroke:#F0F0F0;stroke-width:9.72"/>
	<line x1="3040.37" y1="2101.44" x2="3040.37" y2="2036.64" style="stroke:#F0F0F0;stroke-width:9.72"/>
	<line x1="3040.37" y1="2004.24" x2="3040.37" y2="1939.44" style="stroke:#F0F0F0;stroke-width:9.72"/>
	<line x1="3040.37" y1="1907.04" x2="3040.37" y2="1842.24" style="stroke:#F0F0F0;stroke-width:9.72"/>
	<line x1="3040.37" y1="1809.84" x2="3040.37" y2="1745.04" style="stroke:#F0F0F0;stroke-width:9.72"/>
	<line x1="3040.37" y1="1712.64" x2="3040.37" y2="1647.84" style="stroke:#F0F0F0;stroke-width:9.72"/>
	<line x1="3040.37" y1="1615.44" x2="3040.37" y2="1550.64" style="stroke:#F0F0F0;stroke-width:9.72"/>
	<line x1="3040.37" y1="1518.24" x2="3040.37" y2="1453.44" style="stroke:#F0F0F0;stroke-width:9.72"/>
	<line x1="3040.37" y1="1421.04" x2="3040.37" y2="1356.24" style="stroke:#F0F0F0;stroke-width:9.72"/>
	<line x1="3040.37" y1="1323.84" x2="3040.37" y2="1259.04" style="stroke:#F0F0F0;stroke-width:9.72"/>
	<line x1="3040.37" y1="1226.64" x2="3040.37" y2="1161.84" style="stroke:#F0F0F0;stroke-width:9.72"/>
	<line x1="3040.37" y1="1129.44" x2="3040.37" y2="1064.64" style="stroke:#F0F0F0;stroke-width:9.72"/>
	<line x1="3040.37" y1="1032.24" x2="3040.37" y2="967.44" style="stroke:#F0F0F0;stroke-width:9.72"/>
	<line x1="3040.37" y1="935.04" x2="3040.37" y2="870.24" style="stroke:#F0F0F0;stroke-width:9.72"/>
	<line x1="3040.37" y1="837.84" x2="3040.37" y2="773.04" style="stroke:#F0F0F0;stroke-width:9.72"/>
	<line x1="3040.37" y1="740.64" x2="3040.37" y2="675.84" style="stroke:#F0F0F0;stroke-width:9.72"/>
	<line x1="3040.37" y1="643.44" x2="3040.37" y2="578.64" style="stroke:#F0F0F0;stroke-width:9.72"/>
	<line x1="3040.37" y1="546.24" x2="3040.37" y2="481.44" style="stroke:#F0F0F0;stroke-width:9.72"/>
	<line x1="3040.37" y1="449.04" x2="3040.37" y2="384.24" style="stroke:#F0F0F0;stroke-width:9.72"/>
	<line x1="3040.37" y1="351.84" x2="3040.37" y2="287.04" style="stroke:#F0F0F0;stroke-width:9.72"/>
	<line x1="4127.79" y1="2879.04" x2="4127.79" y2="2814.24" style="stroke:#F0F0F0;stroke-width:9.72"/>
	<line x1="4127.79" y1="2781.84" x2="4127.79" y2="2717.04" style="stroke:#F0F0F0;stroke-width:9.72"/>
	<line x1="4127.79" y1="2684.64" x2="4127.79" y2="2619.84" style="stroke:#F0F0F0;stroke-width:9.72"/>
	<line x1="4127.79" y1="2587.44" x2="4127.79" y2="2522.64" style="stroke:#F0F0F0;stroke-width:9.72"/>
	<line x1="4127.79" y1="2490.24" x2="4127.79" y2="2425.44" style="stroke:#F0F0F0;stroke-width:9.72"/>
	<line x1="4127.79" y1="2393.04" x2="4127.79" y2="2328.24" style="stroke:#F0F0F0;stroke-width:9.72"/>
	<line x1="4127.79" y1="2295.84" x2="4127.79" y2="2231.04" style="stroke:#F0F0F0;stroke-width:9.72"/>
	<line x1="4127.79" y1="2198.64" x2="4127.79" y2="2133.84" style="stroke:#F0F0F0;stroke-width:9.72"/>
	<line x1="4127.79" y1="2101.44" x2="4127.79" y2="2036.64" style="stroke:#F0F0F0;stroke-width:9.72"/>
	<line x1="4127.79" y1="2004.24" x2="4127.79" y2="1939.44" style="stroke:#F0F0F0;stroke-width:9.72"/>
	<line x1="4127.79" y1="1907.04" x2="4127.79" y2="1842.24" style="stroke:#F0F0F0;stroke-width:9.72"/>
	<line x1="4127.79" y1="1809.84" x2="4127.79" y2="1745.04" style="stroke:#F0F0F0;stroke-width:9.72"/>
	<line x1="4127.79" y1="1712.64" x2="4127.79" y2="1647.84" style="stroke:#F0F0F0;stroke-width:9.72"/>
	<line x1="4127.79" y1="1615.44" x2="4127.79" y2="1550.64" style="stroke:#F0F0F0;stroke-width:9.72"/>
	<line x1="4127.79" y1="1518.24" x2="4127.79" y2="1453.44" style="stroke:#F0F0F0;stroke-width:9.72"/>
	<line x1="4127.79" y1="1421.04" x2="4127.79" y2="1356.24" style="stroke:#F0F0F0;stroke-width:9.72"/>
	<line x1="4127.79" y1="1323.84" x2="4127.79" y2="1259.04" style="stroke:#F0F0F0;stroke-width:9.72"/>
	<line x1="4127.79" y1="1226.64" x2="4127.79" y2="1161.84" style="stroke:#F0F0F0;stroke-width:9.72"/>
	<line x1="4127.79" y1="1129.44" x2="4127.79" y2="1064.64" style="stroke:#F0F0F0;stroke-width:9.72"/>
	<line x1="4127.79" y1="1032.24" x2="4127.79" y2="967.44" style="stroke:#F0F0F0;stroke-width:9.72"/>
	<line x1="4127.79" y1="935.04" x2="4127.79" y2="870.24" style="stroke:#F0F0F0;stroke-width:9.72"/>
	<line x1="4127.79" y1="837.84" x2="4127.79" y2="773.04" style="stroke:#F0F0F0;stroke-width:9.72"/>
	<line x1="4127.79" y1="740.64" x2="4127.79" y2="675.84" style="stroke:#F0F0F0;stroke-width:9.72"/>
	<line x1="4127.79" y1="643.44" x2="4127.79" y2="578.64" style="stroke:#F0F0F0;stroke-width:9.72"/>
	<line x1="4127.79" y1="546.24" x2="4127.79" y2="481.44" style="stroke:#F0F0F0;stroke-width:9.72"/>
	<line x1="4127.79" y1="449.04" x2="4127.79" y2="384.24" style="stroke:#F0F0F0;stroke-width:9.72"/>
	<line x1="4127.79" y1="351.84" x2="4127.79" y2="287.04" style="stroke:#F0F0F0;stroke-width:9.72"/>
	<line x1="5215.39" y1="2879.04" x2="5215.39" y2="2814.24" style="stroke:#F0F0F0;stroke-width:9.72"/>
	<line x1="5215.39" y1="2781.84" x2="5215.39" y2="2717.04" style="stroke:#F0F0F0;stroke-width:9.72"/>
	<line x1="5215.39" y1="2684.64" x2="5215.39" y2="2619.84" style="stroke:#F0F0F0;stroke-width:9.72"/>
	<line x1="5215.39" y1="2587.44" x2="5215.39" y2="2522.64" style="stroke:#F0F0F0;stroke-width:9.72"/>
	<line x1="5215.39" y1="2490.24" x2="5215.39" y2="2425.44" style="stroke:#F0F0F0;stroke-width:9.72"/>
	<line x1="5215.39" y1="2393.04" x2="5215.39" y2="2328.24" style="stroke:#F0F0F0;stroke-width:9.72"/>
	<line x1="5215.39" y1="2295.84" x2="5215.39" y2="2231.04" style="stroke:#F0F0F0;stroke-width:9.72"/>
	<line x1="5215.39" y1="2198.64" x2="5215.39" y2="2133.84" style="stroke:#F0F0F0;stroke-width:9.72"/>
	<line x1="5215.39" y1="2101.44" x2="5215.39" y2="2036.64" style="stroke:#F0F0F0;stroke-width:9.72"/>
	<line x1="5215.39" y1="2004.24" x2="5215.39" y2="1939.44" style="stroke:#F0F0F0;stroke-width:9.72"/>
	<line x1="5215.39" y1="1907.04" x2="5215.39" y2="1842.24" style="stroke:#F0F0F0;stroke-width:9.72"/>
	<line x1="5215.39" y1="1809.84" x2="5215.39" y2="1745.04" style="stroke:#F0F0F0;stroke-width:9.72"/>
	<line x1="5215.39" y1="1712.64" x2="5215.39" y2="1647.84" style="stroke:#F0F0F0;stroke-width:9.72"/>
	<line x1="5215.39" y1="1615.44" x2="5215.39" y2="1550.64" style="stroke:#F0F0F0;stroke-width:9.72"/>
	<line x1="5215.39" y1="1518.24" x2="5215.39" y2="1453.44" style="stroke:#F0F0F0;stroke-width:9.72"/>
	<line x1="5215.39" y1="1421.04" x2="5215.39" y2="1356.24" style="stroke:#F0F0F0;stroke-width:9.72"/>
	<line x1="5215.39" y1="1323.84" x2="5215.39" y2="1259.04" style="stroke:#F0F0F0;stroke-width:9.72"/>
	<line x1="5215.39" y1="1226.64" x2="5215.39" y2="1161.84" style="stroke:#F0F0F0;stroke-width:9.72"/>
	<line x1="5215.39" y1="1129.44" x2="5215.39" y2="1064.64" style="stroke:#F0F0F0;stroke-width:9.72"/>
	<line x1="5215.39" y1="1032.24" x2="5215.39" y2="967.44" style="stroke:#F0F0F0;stroke-width:9.72"/>
	<line x1="5215.39" y1="935.04" x2="5215.39" y2="870.24" style="stroke:#F0F0F0;stroke-width:9.72"/>
	<line x1="5215.39" y1="837.84" x2="5215.39" y2="773.04" style="stroke:#F0F0F0;stroke-width:9.72"/>
	<line x1="5215.39" y1="740.64" x2="5215.39" y2="675.84" style="stroke:#F0F0F0;stroke-width:9.72"/>
	<line x1="5215.39" y1="643.44" x2="5215.39" y2="578.64" style="stroke:#F0F0F0;stroke-width:9.72"/>
	<line x1="5215.39" y1="546.24" x2="5215.39" y2="481.44" style="stroke:#F0F0F0;stroke-width:9.72"/>
	<line x1="5215.39" y1="449.04" x2="5215.39" y2="384.24" style="stroke:#F0F0F0;stroke-width:9.72"/>
	<line x1="5215.39" y1="351.84" x2="5215.39" y2="287.04" style="stroke:#F0F0F0;stroke-width:9.72"/>
	<path d="
M865.35 2061.28 L865.35 2061.28 L1082.87 1795.67 L1300.22 1556.38 L1517.74 1394.55 L1735.26 1030.39 L1952.78 1069.54 L2170.29 968.79 L2387.81 1163.87 L2605.33 969.64 L2822.85 861.97 L3040.37 829.74 L3257.89 646.31 L3475.24 873.62 L3692.76 932.51 L3910.28 906.69 L4127.79 1028.53 L4345.31 851.01 L4562.83 836.66 L4562.83 2444.34 L4345.31 2454.13 L4127.79 2413.46 L3910.28 1964.59 L3692.76 1956.83 L3475.24 1812.04 L3257.89 1577.48 L3040.37 1775.93 L2822.85 1846.13 L2605.33 1924.59 L2387.81 2251.63 L2170.29 1920.21 L1952.78 2215.69 L1735.26 2042.72 L1517.74 2303.44 L1300.22 2161.69 L1082.87 2360.48 L865.35 2570.57 L865.35 2061.28 Z" stroke-linejoin="round" style="fill:#D9D9D9;stroke:#D0D0D0;stroke-width:0.00"/>
	<path d=" M865.18 2316.09 L1082.70 2078.16 L1300.22 1859.12 L1517.74 1848.99 L1735.26 1536.64 L1952.78 1642.78 L2170.29 1444.67 L2387.64 1707.75 L2605.16 1447.20 L2822.68 1354.22 L3040.20 1302.92 L3257.72 1112.06 L3475.24 1342.91 L3692.76 1444.84 L3910.28 1435.73 L4127.79 1721.08 L4345.31 1652.74 L4562.66 1640.59" stroke-linejoin="round" style="fill:none;stroke:#000000;stroke-width:25.92"/>
	<line x1="793.97" y1="2879.04" x2="793.97" y2="264.77" style="stroke:#000000;stroke-width:6.48"/>
	<line x1="793.97" y1="2807.83" x2="749.08" y2="2807.83" style="stroke:#000000;stroke-width:6.48"/>
	<text x="726.47" y="2847.27" style="font-family:'Helvetica';font-size:112.56px;fill:#000000" text-anchor="end">-.00002</text>
	<line x1="793.97" y1="2230.20" x2="749.08" y2="2230.20" style="stroke:#000000;stroke-width:6.48"/>
	<text x="726.47" y="2269.64" style="font-family:'Helvetica';font-size:112.56px;fill:#000000" text-anchor="end">0</text>
	<line x1="793.97" y1="1652.57" x2="749.08" y2="1652.57" style="stroke:#000000;stroke-width:6.48"/>
	<text x="726.47" y="1692.01" style="font-family:'Helvetica';font-size:112.56px;fill:#000000" text-anchor="end">.00002</text>
	<line x1="793.97" y1="1075.11" x2="749.08" y2="1075.11" style="stroke:#000000;stroke-width:6.48"/>
	<text x="726.47" y="1114.54" style="font-family:'Helvetica';font-size:112.56px;fill:#000000" text-anchor="end">.00004</text>
	<line x1="793.97" y1="497.47" x2="749.08" y2="497.47" style="stroke:#000000;stroke-width:6.48"/>
	<text x="726.47" y="536.91" style="font-family:'Helvetica';font-size:112.56px;fill:#000000" text-anchor="end">.00006</text>
	<text x="214.55" y="1571.91" style="font-family:'Helvetica';font-size:112.56px;fill:#000000" transform="rotate(-90 214.55,1571.91)" text-anchor="middle">ln(Imacec)</text>
	<line x1="793.97" y1="2879.04" x2="5286.60" y2="2879.04" style="stroke:#000000;stroke-width:6.48"/>
	<line x1="865.35" y1="2879.04" x2="865.35" y2="2924.10" style="stroke:#000000;stroke-width:6.48"/>
	<text x="865.35" y="3025.25" style="font-family:'Helvetica';font-size:112.56px;fill:#000000" text-anchor="middle">0</text>
	<line x1="1952.78" y1="2879.04" x2="1952.78" y2="2924.10" style="stroke:#000000;stroke-width:6.48"/>
	<text x="1952.78" y="3025.25" style="font-family:'Helvetica';font-size:112.56px;fill:#000000" text-anchor="middle">5</text>
	<line x1="3040.37" y1="2879.04" x2="3040.37" y2="2924.10" style="stroke:#000000;stroke-width:6.48"/>
	<text x="3040.37" y="3025.25" style="font-family:'Helvetica';font-size:112.56px;fill:#000000" text-anchor="middle">10</text>
	<line x1="4127.79" y1="2879.04" x2="4127.79" y2="2924.10" style="stroke:#000000;stroke-width:6.48"/>
	<text x="4127.79" y="3025.25" style="font-family:'Helvetica';font-size:112.56px;fill:#000000" text-anchor="middle">15</text>
	<line x1="5215.39" y1="2879.04" x2="5215.39" y2="2924.10" style="stroke:#000000;stroke-width:6.48"/>
	<text x="5215.39" y="3025.25" style="font-family:'Helvetica';font-size:112.56px;fill:#000000" text-anchor="middle">20</text>
	<text x="3040.37" y="211.51" style="font-family:'Helvetica';font-size:112.56px;fill:#000000" text-anchor="middle">Coeficiente en el término de interacción</text>
</svg>
